<?xml version="1.0" standalone="no"?><!DOCTYPE svg PUBLIC "-//W3C//DTD SVG 20010904//EN" "http://www.w3.org/TR/2001/REC-SVG-20010904/DTD/svg10.dtd">
<svg version="1.0" xmlns="http://www.w3.org/2000/svg" width="332pх" height="53pх" viewBox="0 0 332 53" preserveAspectRatio="xMidYMid meet">
	<defs>
		<linearGradient id="Gr2" x1="0" y1="1" x2="0" y2="0">
			<stop offset="0%" stop-color="#2be5f1"/>
			<stop offset="100%" stop-color="#09c2cd"/>
		</linearGradient>
	</defs>
	<g transform="translate(0,53) scale(0.1,-0.1)" fill="url(#Gr2)" stroke="#606363" stroke-width="18">
		<path d="M75 420 c-10 -16 -28 -198 -29 -295 l-1 -90 30 0 c30 0 30 1 35 65 3 36 10 74 17 85 11 19 12 19 32 -5 11 -14 37 -53 57 -87 40 -69 73 -83 94 -42 10 18 5 31 -37 91 -26 39 -54 80 -62 90 -13 18 -10 24 43 71 46 42 57 57 55 77 -7 46 -41 37 -100 -25 -81 -85 -87 -86 -78 -12 5 39 4 67 -3 74 -13 16 -44 17 -53 3z"/>
		<path fill-rule="evenodd" d="M450 405 c-43 -14 -101 -77 -115 -122 -5 -18 -10 -57 -10 -87 0 -64 33 -122 86 -150 130 -65 257 74 217 242 -21 92 -100 144 -177 117z M460 335 c-15 -7 -39 -28 -52 -44 -18 -24 -22 -40 -22 -81 0 -49 1 -52 36 -86 42 -40 63 -41 104 -11 39 29 54 63 54 115 0 53 -17 91 -52 108 -31 15 -32 15 -67 -1z"/>
		<path d="M970 405 c-6 -8 -38 -63 -70 -121 l-58 -106 -15 43 c-9 24 -23 68 -33 98 -9 30 -21 61 -27 68 -16 20 -56 14 -67 -10 -12 -31 -30 -200 -30 -287 0 -69 1 -71 25 -71 31 0 32 2 40 123 4 55 11 95 15 90 4 -4 15 -30 24 -58 21 -65 52 -115 71 -115 9 0 34 36 60 88 l45 87 -2 -95 -3 -95 26 -3 c14 -2 30 3 36 10 13 16 22 337 10 356 -11 16 -32 15 -47 -2z"/>
		<path d="M1106 378 c-31 -48 -51 -341 -23 -351 21 -8 44 11 90 75 25 35 65 85 90 113 l44 49 -5 -110 c-4 -92 -2 -112 12 -123 27 -23 46 3 46 63 0 67 20 227 31 247 13 26 -1 59 -26 59 -24 0 -137 -111 -195 -191 -36 -50 -37 -40 -14 78 9 45 14 89 11 97 -9 23 -44 19 -61 -6z"/>
		<path d="M1455 420 c-10 -16 -28 -198 -29 -295 l-1 -90 30 0 c30 0 30 1 35 65 3 36 10 74 17 85 11 19 12 19 32 -5 11 -14 37 -53 57 -87 40 -69 73 -83 94 -42 10 18 5 31 -37 91 -26 39 -54 80 -62 90 -13 18 -10 24 43 71 46 42 57 57 55 77 -7 46 -41 37 -100 -25 -81 -85 -87 -86 -78 -12 5 39 4 67 -3 74 -13 16 -44 17 -53 3z"/>
		<path d="M1815 381 c-70 -32 -105 -93 -105 -183 0 -106 59 -168 160 -168 43 0 64 5 84 21 50 40 21 88 -34 55 -91 -53 -181 50 -137 157 19 44 71 80 107 73 97 -20 90 -20 90 7 0 18 -9 29 -34 41 -44 21 -81 20 -131 -3z"/>
		<path d="M2152 392 c-12 -10 -29 -50 -42 -97 -12 -44 -39 -113 -61 -154 -47 -88 -48 -115 -2 -119 29 -3 33 0 61 61 17 35 38 90 48 123 l17 58 17 -44 c10 -25 26 -78 36 -117 10 -40 25 -75 33 -78 23 -9 51 5 51 25 0 20 -59 225 -86 298 -20 53 -44 68 -72 44z"/>
		<path d="M2401 401 c-16 -10 -37 -129 -47 -263 -9 -117 -8 -118 117 -118 89 0 99 2 109 21 22 40 7 49 -85 49 l-86 0 3 43 3 42 80 5 c78 5 80 6 83 33 l3 27 -70 0 c-38 0 -73 5 -76 10 -4 6 -4 29 0 50 l7 40 56 1 c93 2 117 10 117 39 0 25 -1 25 -100 28 -55 1 -106 -2 -114 -7z"/>
		<path d="M2676 378 c-31 -48 -51 -341 -23 -351 21 -8 44 11 90 75 25 35 65 85 90 113 l44 49 -5 -110 c-4 -92 -2 -112 12 -123 27 -23 46 3 46 63 0 67 20 227 31 247 13 26 -1 59 -26 59 -24 0 -137 -111 -195 -191 -36 -50 -37 -40 -14 78 9 45 14 89 11 97 -9 23 -44 19 -61 -6z"/>
		<path d="M2858 490 c-21 -37 -50 -39 -76 -5 -23 28 -72 35 -72 10 0 -25 31 -65 63 -81 43 -23 89 -11 127 32 36 41 36 68 0 72 -19 2 -29 -5 -42 -28z"/>
		<path d="M3026 384 c-17 -44 -8 -54 44 -54 l51 0 -6 -32 c-6 -40 -25 -232 -25 -260 0 -16 6 -19 33 -16 l32 3 7 100 c4 55 10 124 13 153 l6 52 39 0 c41 0 67 26 56 56 -8 22 -241 20 -250 -2z"/>
	</g>
</svg>
