<?xml version="1.0" standalone="no"?>
<!DOCTYPE svg PUBLIC "-//W3C//DTD SVG 1.1//EN" "http://www.w3.org/Graphics/SVG/1.1/DTD/svg11.dtd" >
<svg xmlns="http://www.w3.org/2000/svg" xmlns:xlink="http://www.w3.org/1999/xlink" version="1.1">
<metadata></metadata>
<defs>
<font id="main" horiz-adv-x="797" >
  <font-face 
    font-family="Anime Ace v05"
    font-weight="300"
    font-stretch="normal"
    units-per-em="1024"
    panose-1="2 5 6 4 5 5 5 2 2 4"
    ascent="819"
    descent="-205"
    x-height="843"
    cap-height="850"
    bbox="0 -217 1317 1107"
    underline-thickness="0"
    underline-position="0"
    unicode-range="U+0020-2666"
  />
<missing-glyph horiz-adv-x="733" 
d="M700 703q-116 -65 -188.5 -98t-109.5 -33q-20 -4 -31.5 5.5t-20.5 21t-19.5 22.5t-30.5 10q-135 1 -279 -86l-19 7q42 32 91 61.5t95.5 49t86 23.5t65.5 -16q21 -18 45.5 -26.5t56.5 -6.5q27 1 64 9t75 24l93 39zM337 255q-74 119 -156 142q29 33 40 66q28 -22 45.5 -45
t29 -47.5t21.5 -52.5t27 -62q92 35 139 123.5t-26 147.5q-41 18 -73 -8t-40 -84q-30 31 -25 72t84 44q32 0 59 -16q215 -149 -113 -286q-44 -15 -77.5 -35t-47.5 -60q-20 -60 -5.5 -97t53.5 -45q38 -3 81.5 7.5t70.5 33.5q83 51 81 154q36 26 65 81q-1 -99 -30 -169
q-35 -78 -113 -105q-35 -11 -87 -11q-16 0 -33 1t-37 2q-110 11 -105 128q3 104 172 121z" />
    <glyph glyph-name=".notdef" horiz-adv-x="733" 
d="M700 703q-116 -65 -188.5 -98t-109.5 -33q-20 -4 -31.5 5.5t-20.5 21t-19.5 22.5t-30.5 10q-135 1 -279 -86l-19 7q42 32 91 61.5t95.5 49t86 23.5t65.5 -16q21 -18 45.5 -26.5t56.5 -6.5q27 1 64 9t75 24l93 39zM337 255q-74 119 -156 142q29 33 40 66q28 -22 45.5 -45
t29 -47.5t21.5 -52.5t27 -62q92 35 139 123.5t-26 147.5q-41 18 -73 -8t-40 -84q-30 31 -25 72t84 44q32 0 59 -16q215 -149 -113 -286q-44 -15 -77.5 -35t-47.5 -60q-20 -60 -5.5 -97t53.5 -45q38 -3 81.5 7.5t70.5 33.5q83 51 81 154q36 26 65 81q-1 -99 -30 -169
q-35 -78 -113 -105q-35 -11 -87 -11q-16 0 -33 1t-37 2q-110 11 -105 128q3 104 172 121z" />
    <glyph glyph-name="NULL" horiz-adv-x="0" 
 />
    <glyph glyph-name="nonmarkingreturn" horiz-adv-x="609" 
 />
    <glyph glyph-name="space" unicode=" " horiz-adv-x="609" 
 />
    <glyph glyph-name="Ugrave" unicode="&#xd9;" horiz-adv-x="967" 
d="M928 -12q0 -32 -37 -55q-16 -10 -34 -12q-44 -5 -77 63q-20 40 -30 78q-73 -2 -219 -8q-23 -42 -74 -42q-46 0 -54 38q-9 -2 -75 0q-41 2 -81 4q-41 1 -68 0q-31 -1 -54 -1q-49 0 -65 14q-20 16 -18 63q1 29 1 73q-1 41 -1 95t2 125q2 50 6 159t17 141q10 27 46.5 53
t60.5 26q30 0 30 -40q0 -10 -2 -23q-32 -208 -30 -433q0 -72 4 -133q80 -8 162 -8q28 0 57 1q-4 161 -3 312q0 139 10 261q4 44 43 96q23 12 39 12q43 0 43 -87v-285q0 -148 4 -306q108 0 210 17q-7 166 -16 497q-1 47 3 66q6 35 31.5 58.5t62.5 23.5q47 0 47 -37
q0 -22 -6 -92l-5 -50q-1 -13 -3 -30q-7 -73 -7 -243q0 -31 0.5 -78t5.5 -114q27 -9 24 -56l-7 -14l34 -64q23 -45 23 -65z" />
    <glyph glyph-name="Uacute" unicode="&#xda;" horiz-adv-x="1149" 
d="M515 577q167 45 299 45q40 0 77 -4q218 -25 218 -201q0 -121 -96 -238q-92 -112 -212 -160q-70 -28 -144 -28q-70 0 -135 26q-80 31 -123 80q-22 25 -22 49q0 36 18 68l6 374q2 134 4 162q-234 -37 -288 -37q-28 0 -51 28t-23 57t27 35q-8 0 108 6q10 1 55 4q34 3 55 3
q38 4 129 31l62 18q26 8 28 7q33 0 54 -59q7 -22 6 -41q-2 -20 -16 -23l-22 -4q-2 -50 -4 -99q-2 -61 -10 -99zM974 395q0 67 -63 110q-32 22 -92 22q-110 0 -313 -75q-5 -68 -5 -160q0 -67 4 -131q75 -45 147 -45q121 0 241 122q81 83 81 157z" />
    <glyph glyph-name="Eth" unicode="&#xd0;" horiz-adv-x="780" 
d="M132 223q0 -1 13 -82l8 -56q4 -26 4 -34q0 -24 -32 -39q-27 -14 -55 -14q-27 0 -33 17q-11 33 -20 508q-17 24 -17 58q0 36 49 93q75 86 153 130q105 59 202 59q117 0 203 -71q91 -75 91 -190q0 -168 -208 -275q-144 -74 -358 -104zM569 571q0 72 -76 120q-67 41 -144 41
q-111 0 -227 -116q-3 -63 -3 -126q0 -75 4 -151q300 9 387 104q59 65 59 128z" />
    <glyph glyph-name="Ograve" unicode="&#xd2;" horiz-adv-x="716" 
d="M356 716q-8 -114 -8 -216q0 -199 25 -355q5 -24 12 -70q2 -16 2 -22q0 -19 -31 -35q-27 -14 -54 -14q-31 0 -36 20q-4 17 -5 47v47q-12 214 -16 575q13 0 -4 -6q-10 -3 -42.5 -11.5t-39.5 -10.5q-85 -30 -96 -30q-30 0 -48 29q-15 25 -15 57q0 55 44 74q168 71 364 71
q91 0 123 -7q39 -9 68 -30q36 -26 36 -61t-86 -42q-65 -3 -193 -10z" />
    <glyph glyph-name="Oacute" unicode="&#xd3;" horiz-adv-x="828" 
d="M228 3q-24 0 -49 13q-29 15 -29 37q0 6 152 281q-46 62 -140 185q-30 34 -87 104q-75 97 -75 141q0 23 21 54.5t38 31.5q16 0 39 -37l30 -52q107 -173 230 -329q105 184 170 288q23 40 73 118q21 29 60 29q52 0 77 -35q8 -12 8 -24q0 -14 -41 -68q-22 -28 -64 -85
q-189 -261 -311 -512q-12 -29 -37 -87q-23 -53 -65 -53z" />
    <glyph glyph-name="Ocircumflex" unicode="&#xd4;" horiz-adv-x="1311" 
d="M714 280q-2 -62 0 -105q1 -44 1 -82l-1 -54q0 -25 -54 -32q-59 7 -59 33q0 25 2 68q1 49 2 69q0 41 -3 101q-111 -14 -199 -11q-86 2 -160 21q-203 52 -203 219q0 110 90 207q121 131 275 131q58 0 120 -20q68 -22 128 -69q63 50 134 73q62 20 120 20q153 0 275 -131
q90 -97 90 -207q0 -166 -203 -219q-74 -19 -159 -21q-89 -3 -196 9zM1146 512q0 70 -74 135q-66 57 -141 76q-25 6 -50 6q-83 0 -174 -65v-35q-1 -26 -1 -33v-52q0 -74 4 -150q138 -30 230 -30q103 0 148 38q58 49 58 110zM166 508q0 -61 58 -110q45 -38 148 -38
q92 0 230 30q4 76 4 150v61q0 -6 2 62q-93 62 -175 62q-96 0 -192 -82q-75 -64 -75 -135z" />
    <glyph glyph-name="Ucircumflex" unicode="&#xdb;" horiz-adv-x="1071" 
d="M181 577q167 45 299 45q40 0 77 -4q218 -25 218 -201q0 -121 -95 -236.5t-213 -161.5q-71 -27 -145 -27q-72 0 -134 25q-79 31 -123 80q-22 24 -22 49q0 35 17 68q11 603 22 644q6 22 35 32q22 11 54 9q37 -3 37 -29q0 -44 -14 -176q-13 -114 -13 -117zM640 395
q0 68 -62 110q-33 22 -93 22q-110 0 -313 -75q-4 -82 -4 -160q0 -68 3 -131q75 -45 147 -45q123 0 242 122q80 82 80 157zM1030 70q0 -33 -33 -53q-27 -17 -63 -17q-31 0 -36 65q-2 26 -1 56q1 29 1 51q0 106 -7 290q-9 206 -10 289q-1 49 3 68q6 36 31 58q28 26 65 26
q49 0 49 -40q0 -9 -7 -93l-5 -51q-1 -14 -3 -32q-8 -86 -8 -248q0 -107 9 -227q1 -5 3 -24l5 -42q7 -69 7 -76z" />
    <glyph glyph-name="glyph11" horiz-adv-x="0" 
 />
    <glyph glyph-name="germandbls" unicode="&#xdd;" horiz-adv-x="933" 
d="M45 76q4 54 30 66q10 4 87 0q56 -3 88 -3q48 -1 72 1q104 9 179 46q84 42 159 122q59 64 69 122l-64 -1q-22 -1 -35 -2.5t-105 -20.5l-100 -27q-90 -24 -91 -24q-22 -3 -30 18q-7 15 -4 39q6 61 48 74q54 17 190 37q97 13 195 26q-4 62 -92 124q-59 41 -150 41t-214 -41
q-56 -27 -83 -28q-28 -1 -35 40l2 33q2 32 21 52q14 14 48 31q161 80 291 80q81 0 149 -31q182 -84 174 -290l22 1q18 1 25 -21q5 -16 4 -37q-4 -59 -36 -72q-7 -1 -33 0q-10 -72 -65 -164q-73 -121 -206 -188q-126 -65 -272 -65q-77 0 -160 20q-24 5 -48 11q-31 11 -30 31z
" />
    <glyph glyph-name="Thorn" unicode="&#xde;" horiz-adv-x="1357" 
d="M1317 499q0 -190 -147 -326.5t-338 -136.5q-107 0 -199 49.5t-146 139.5q-35 58 -48 140q-50 -5 -80 -3t-62 3h-66q-34 -1 -69 -15q5 -122 17 -189l2 -11q0 4 8 -42q6 -41 6 -53q0 -20 -29 -33.5t-51 -13.5q-34 0 -39 44q-1 27 -3 82l-21 276q-12 161 -12 278v37
q0 27 31 48q27 17 60 17q41 0 41 -33q0 -5 -1 -18l-2 -27q-10 -136 -10 -235q78 -2 143 0q64 1 133 5q16 146 147 268q146 135 336 135q167 0 281 -110q118 -114 118 -276zM1165 440q0 134 -83 229q-87 100 -219 100q-130 0 -218 -101q-85 -96 -85 -228t85 -228
q88 -99 219 -99q129 0 217 100q84 96 84 227z" />
    <glyph glyph-name="glyph14" horiz-adv-x="0" 
 />
    <glyph glyph-name="Otilde" unicode="&#xd5;" horiz-adv-x="721" 
d="M382 425q89 -113 146 -171q26 -21 74 -74q11 -17 11 -32q0 -27 -18 -57q-22 -35 -44 -35q-19 0 -70 67q-35 45 -105 137l-52 68q-75 -125 -113 -210q-9 -21 -43 -93q-14 -24 -47 -24q-25 0 -49 13q-28 14 -28 37q0 16 206 374q-63 79 -184 240l-42 58q-24 37 -24 64
q0 26 15 53q18 31 43 31q16 0 40 -37q16 -27 48 -80q79 -124 160 -231l44 75q19 34 47 80q58 98 99 158q20 29 59 29q28 0 54 -15q31 -18 31 -44q0 -12 -21 -41q-16 -20 -31 -39q-104 -138 -206 -301z" />
    <glyph glyph-name="multiply" unicode="&#xd7;" horiz-adv-x="716" 
d="M665 323q3 -39 8 -118q2 -35 2 -123v-6q0 -21 -33 -36q-28 -13 -52 -13q-28 0 -36 22q-3 10 -3 47q0 32 2 70l3 77q1 38 0 66q-111 -6 -260 -43q-3 -1 -27 -8l-169 -51q-25 0 -41 21t-16 47q0 12 5 25q-8 250 -8 359v46q0 16 1 21q1 32 25 53.5t56 21.5q39 0 39 -31
q0 -36 -6 -107q-9 -106 -9 -154v-47q0 -68 3 -107q177 54 402 70q1 101 2 176v121q0 55 13 78q18 33 68 33q38 0 38 -28q0 -19 -7 -94q-2 -11 -2 -20q-6 -141 -6 -165q0 -40 3 -102q4 -85 5 -101z" />
    <glyph glyph-name="egrave" unicode="&#xe8;" horiz-adv-x="741" 
d="M659 77q0 -37 -55 -50q-15 -4 -29 -4q-31 0 -39 26q-4 13 -3 52q0 30 -1 77q-74 -43 -151 -70q-241 -85 -305 -85q-40 0 -50 18q-7 11 -7 53v51q0 80 -6 182q-8 134 -8 144q-5 125 -5 175q0 92 4 131q3 32 33 50q27 16 61 16q45 0 45 -29q0 -20 -5 -60q-3 -16 -7 -47
q-13 -101 -13 -261q0 -245 16 -268q4 -7 18 -7q34 0 179 57q130 51 195 85l-8 196q-3 83 -3 135q0 94 4 133q3 31 33 49q26 17 59 17q47 0 47 -29t-11 -116q-2 -14 -3 -23q-11 -101 -11 -241v-30q0 -30 4 -104t10 -117q3 -27 10 -82q2 -17 2 -24z" />
    <glyph glyph-name="igrave" unicode="&#xec;" horiz-adv-x="1040" 
d="M958 108q0 -27 -26.5 -55.5t-52.5 -28.5q-24 0 -61 121q-20 72 -39 144q-37 135 -91 311q-38 -119 -93 -322q-67 -245 -84 -275q-10 -18 -25 -18q-25 0 -47 38q-21 33 -21 62q0 5 2 17l-145 465q-87 -288 -152 -481q-10 -52 -34 -88q-9 -13 -20 -13q-23 0 -47 38
q-22 35 -22 62q0 12 16 48q9 19 26 58q34 84 73 202q69 211 107 390q11 54 55 54q23 0 37 -46q6 -25 18 -74q50 -196 150 -457q99 276 162 585q11 53 54 53q20 0 45 -72q19 -59 19 -91q81 -326 150 -506q9 -17 26 -50q20 -44 20 -71z" />
    <glyph glyph-name="agrave" unicode="&#xe0;" horiz-adv-x="867" 
d="M785 116q0 -27 -27.5 -49t-56.5 -22q-26 0 -49 49q-11 29 -36 85q-190 -46 -474 -97q-35 -83 -62 -83q-28 0 -54 33t-26 63q0 13 26 54q13 20 38 62q86 147 220 500q19 50 40 111q18 52 78 52q33 0 55 -49q12 -37 38 -110q108 -285 227 -484q20 -30 56 -93q7 -14 7 -22z
M561 306q-70 168 -167 388q-45 -103 -98 -238l-94 -239q191 29 359 89z" />
    <glyph glyph-name="eth" unicode="&#xf0;" horiz-adv-x="780" 
d="M132 223q0 -1 13 -82l8 -56q4 -26 4 -34q0 -24 -32 -39q-27 -14 -55 -14q-27 0 -33 17q-11 33 -20 508q-17 24 -17 58q0 36 49 93q75 86 153 130q105 59 202 59q117 0 203 -71q91 -75 91 -190q0 -168 -208 -275q-144 -74 -358 -104zM569 571q0 72 -76 120q-67 41 -144 41
q-111 0 -227 -116q-3 -63 -3 -126q0 -75 4 -151q300 9 387 104q59 65 59 128z" />
    <glyph glyph-name="ae" unicode="&#xe6;" horiz-adv-x="1297" 
d="M1255 785q0 -2 -62 -63q-78 -76 -120 -115q-30 -27 -51 -47l-26 -26l-105 -100q-50 -47 -92 -89q161 -123 358 -213q17 -6 51 -20q31 -16 31 -25q0 -19 -42 -38q-37 -17 -62 -17q-18 0 -224 70q-114 39 -200 107q0 -19 2 -52q2 -39 3 -53v-28q0 -46 -70 -56q-47 5 -58 39
q-6 16 -6 38v45q0 11 1.5 34t1.5 34q-69 -56 -171 -98q-64 -26 -188 -63q-57 -17 -64 -17q-25 0 -62 17q-41 17 -43 38q-1 9 31 26q17 8 50 19q185 83 360 213q-43 42 -93 89l-107 100q-13 17 -104 102q-42 37 -84 73q-70 64 -70 75q1 36 62 36q55 0 116 -61
q172 -142 373 -283l2 1l1 2q5 10 6 35q0 30 -4 87.5t-4 84.5q-1 6 -4 60q-2 42 -2 68q0 29 44 29h40q44 0 44 -29q0 -21 -2 -54q-2 -42 -2 -54q-1 -17 -2 -22q-7 -129 -7 -206l1 -2l3 -1q212 148 372 284q38 32 53 41q32 20 63 20q62 0 62 -35z" />
    <glyph glyph-name="atilde" unicode="&#xe3;" horiz-adv-x="750" 
d="M190 869q57 10 113 12q134 5 253 -17q59 -12 98 -26q21 -8 37.5 -33t16.5 -47q0 -35 -42 -43q-19 -1 -35 0l-242 20q-51 1 -99 -1q-34 -2 -99 -10l-10 -2q-27 -177 -27 -374q0 -90 8 -200l7 -86q1 -18 1 -25q0 -21 -22 -31q-17 -7 -40 -4q-62 6 -64 57q-1 6 -1 21v41
q0 152 7 362q-1 90 7 268q8 89 68 107q25 4 65 11z" />
    <glyph glyph-name="Oslash" unicode="&#xd8;" horiz-adv-x="906" 
d="M520 165q103 0 211 18l2 10q16 79 16 200q0 51 -3 112q3 30 3 85q0 52 -5 135q-4 72 43 72q69 0 75 -52q5 -47 4 -104q-4 -137 -4 -131q0 -35 2 -103q2 -60 2 -88q0 -168 -8 -191q-19 -54 -100 -64q-46 -7 -119 -8q-108 -2 -119 -3q-22 -41 -73 -41q-45 0 -52 37l1 1
q-2 -2 -16 -2q-25 0 -69 2q-51 3 -69 3q-41 1 -66 0q-30 -1 -53 -1q-37 0 -41 1q-43 10 -40 74q1 25 1 71q-1 40 -1 93t2 122q2 48 6 156t16 137q10 25 45 51t60 26q29 0 29 -39q0 -10 -2 -22q-16 -104 -26 -276q-4 -73 -3 -147q0 -70 4 -130q78 -8 158 -8q28 0 56 1
q-4 164 -2 304q1 140 9 256q10 52 42 93q22 12 39 12q41 0 41 -85v-278q0 -145 4 -299z" />
    <glyph glyph-name="ch28" unicode="&#xdf;" horiz-adv-x="838" 
d="M166 37q0 21 60 51q27 13 106 70q48 34 79 60l81 65q-43 -3 -82 -3q-121 0 -207 30q-160 56 -160 202q0 122 102 233q95 104 221 142q60 18 117 18q151 0 286 -124q28 -26 28 -50q0 -25 -17 -54t-39 -40q0 -33 -8 -279l-4 -134q-2 -72 -10 -112q-7 -34 -66 -39t-59 31
q0 19 9 68q10 53 10 61q-125 -97 -278 -180q-101 -55 -144 -50q-25 3 -25 34zM169 528q0 -69 61 -117q42 -33 131 -33q103 0 269 45q5 103 5 160q0 67 -4 131q-86 60 -169 60q-112 0 -216 -99q-77 -73 -77 -147z" />
    <glyph glyph-name="exclam" unicode="!" horiz-adv-x="438" 
d="M139 296q-53 0 -53 30q0 8 10 51q5 23 9 37l48 245q31 157 64 233q13 31 83 31q54 0 85 -17q11 -6 11 -14q0 19 -16 -20l-24 -62l-72 -159q-16 -38 -31 -72q-48 -111 -63 -200l-2 -29q-4 -54 -49 -54zM82 12q-42 0 -42 29q0 62 7 128q3 24 72 24q53 0 53 -16
q0 -12 -13 -71q-11 -47 -18.5 -70.5t-58.5 -23.5z" />
    <glyph glyph-name="quotedbl" unicode="&#x22;" horiz-adv-x="401" 
d="M359 918q0 -154 -14 -293q-5 -47 -57 -47q-46 0 -46 64q0 10 1 29t1 29q0 -10 -6 158q-1 28 -1 41q0 27 22 42t50 15q50 0 50 -38zM164 898q0 -165 -15 -293q-5 -46 -58 -46q-45 0 -45 53q0 11 1.5 34t1.5 34q0 14 -1 42l-6 116q-2 28 -2 42q0 27 24 43q21 14 49 14
q51 0 51 -39z" />
    <glyph glyph-name="numbersign" unicode="#" horiz-adv-x="744" 
d="M702 314q0 -22 -48 -32q-35 -4 -69 -9q8 -60 20 -186v-5q2 -22 -28.5 -35.5t-55.5 -13.5q-38 0 -43 61l-3 162q-16 -3 -207 -27q0 -27 5 -72q6 -56 7 -71q1 -24 1 -33q0 -23 -30 -37q-25 -11 -51 -11q-43 0 -43 42q0 60 5 170q-40 -4 -47 -4q-33 0 -55 28q-20 25 -20 59
q0 24 40 29q17 2 40 2q22 -1 46 -1q2 64 6 130q-32 -6 -50 -6q-36 0 -59 25.5t-23 62.5q0 25 44 29q19 1 45 1q25 -1 49 -1q2 79 14 225q5 60 86 60q35 0 35 -25v-5q0 -26 -15 -125q-4 -27 -10 -74l-6 -50q107 6 182 24l-1 169q0 46 32 66q28 17 72 17q37 0 37 -29
q0 -36 -14 -155l-4 -35q41 13 50 13q25 0 45 -30.5t20 -57.5q0 -28 -32 -32l-88 -13q-1 -16 -1 -37v-86q54 16 60 16q23 0 44 -35q18 -32 18 -58zM470 361l-4 135q-60 -10 -193 -25q-5 -75 -5 -137q115 8 202 27z" />
    <glyph glyph-name="dollar" unicode="$" 
d="M756 415q0 -20 -6 -41q-63 -219 -283 -326q0 -10 4 -29.5t4 -29.5q0 -26 -28 -45.5t-58 -19.5t-36 27q-2 8 -2 53q-65 -16 -115 -16q-58 0 -92 23q-28 19 -55 56q-32 43 -32 63q0 17 15.5 48.5t30.5 31.5q11 0 25 -17q71 -84 203 -84h16q-6 133 -9 290q-37 2 -93 6
l-130 9q-43 3 -60 27q-15 21 -15 65t40 103q27 41 79 94q80 82 174 123v26q-1 8 -1 14v12q0 49 27 76.5t76 27.5q38 0 38 -37q0 -5 -1 -17l-4 -47q-1 -12 -2 -16q58 8 85 8q32 0 44 -7q16 -9 16 -38q0 -5 16 -94q2 -15 2 -21q0 -19 -29 -43t-51 -24q-17 0 -29 31l-15 51
l-25 1l-23 -1q-6 -101 -8 -194l138 -14q81 -9 136 -24q33 -9 33 -81zM334 541v77v39q-1 26 -1 39q-76 -38 -132 -107q-18 -22 -18 -37q0 -12 33 -12h59q7 0 19 1h16h24zM449 387q0 -107 10 -253q57 23 102 73q50 56 50 112q0 35 -41 48q-12 3 -121 20z" />
    <glyph glyph-name="percent" unicode="%" horiz-adv-x="890" 
d="M470 62q-104 0 -144 63q-11 -25 -39 -78q-38 -59 -77 -59q-24 0 -46 10q-27 13 -27 34q0 13 228 362q-83 -29 -160 -29q-70 0 -113 26q-52 32 -52 97q0 97 112 240q96 123 215 123q61 0 119 -51q52 -45 77 -109q21 34 65 100q59 79 104 79q25 0 51 -13q31 -16 31 -39
q0 -17 -30 -52q-22 -25 -44 -49q-62 -76 -133 -171q14 2 29 2q60 0 107 -40q106 -89 106 -180q0 -21 -6 -40q-33 -105 -150 -168q-108 -58 -223 -58zM468 586q0 55 -30 99q-34 48 -86 48q-58 0 -124.5 -56.5t-66.5 -113.5q0 -45 52 -73q45 -25 101 -25q63 0 105 28
q49 33 49 93zM620 432q-48 0 -94 -34q-101 -75 -101 -133q0 -42 52 -73q43 -27 96 -27q60 0 108 26q59 32 59 87q0 57 -31 102q-35 52 -89 52z" />
    <glyph glyph-name="ampersand" unicode="&#x26;" horiz-adv-x="761" 
d="M636 -93q-38 0 -38 28q0 9 3 34l8 69q-113 -53 -227 -53q-121 0 -221 53q-121 64 -121 176q0 87 74 160q49 48 151 101q-85 51 -85 146q0 85 105 200q64 70 156 70q100 0 167 -76q48 -54 48 -84q0 -16 -7 -32q-9 -20 -23 -20q-19 0 -79 38t-85 38q-59 0 -106.5 -45.5
t-47.5 -104.5q0 -47 20.5 -61.5t73.5 -18.5q100 -7 100 -81q0 -40 -63 -52q-36 -3 -107 -10q-76 -10 -113 -61q-33 -45 -33 -89q0 -70 69 -113q60 -38 134 -38q93 0 227 73l1 26q1 28 -3 58l-10 76q-1 2 -11 59q-7 39 -7 59v7q0 20 32 34q29 13 52 13q30 0 36 -20
q16 -76 14 -335l-1 -158q0 -29 -26.5 -47.5t-56.5 -18.5z" />
    <glyph glyph-name="quotesingle" unicode="'" horiz-adv-x="315" 
d="M97 610q-21 0 -39 12t-18 32q0 25 25 81q19 40 38 81q15 42 47 114q19 32 52 32q24 0 47.5 -13.5t23.5 -36.5q0 -11 -61 -132q-25 -49 -47 -91l-27 -52q-16 -27 -41 -27z" />
    <glyph glyph-name="parenleft" unicode="(" horiz-adv-x="589" 
d="M152 352q0 -176 262 -264q24 -5 73 -20q53 -22 53 -59q0 -26 -14 -50q-17 -29 -34 -29q-2 2 -15 8q-65 30 -193 91q-99 49 -165 133q-79 101 -79 208q0 144 133 299q147 171 259 235q19 11 38 11q26 0 52 -17.5t26 -42.5q0 -18 -49 -51q-24 -15 -68 -45
q-279 -214 -279 -407z" />
    <glyph glyph-name="parenright" unicode=")" horiz-adv-x="589" 
d="M117 -68q-26 0 -50 17q-27 19 -27 44q0 16 50 51q23 14 66 44q278 213 278 407q0 175 -261 264q-24 5 -72 19q-53 20 -53 60q0 26 14 51q15 29 34 29q2 -2 15 -8q19 -9 135 -63l58 -28q106 -57 165 -134q79 -103 79 -209q0 -144 -134 -298q-147 -170 -259 -234
q-21 -12 -38 -12z" />
    <glyph glyph-name="asterisk" unicode="*" horiz-adv-x="444" 
d="M299 760l42 -26q24 -17 36 -33q9 -12 9 -25q0 -15 -9 -33t-23 -18q-6 0 -96 74v-94q0 -20 -17.5 -33.5t-38.5 -13.5q-27 0 -27 21q0 12 8 90q-55 -48 -76 -48q-18 0 -36.5 14t-18.5 31q0 10 56 47q22 14 43 27l28 16q-45 18 -62 26q-35 16 -59 33q-18 13 -18 27
q0 15 10 36.5t24 21.5q3 0 46 -25q21 -12 61 -37l-12 68q-4 21 -4 23q0 16 24 26q19 8 38 8q24 0 28 -63q1 -41 1 -82q8 9 21 24l26 28q29 33 41 33q17 0 37.5 -16.5t20.5 -32.5q0 -9 -103 -94z" />
    <glyph glyph-name="plus" unicode="+" horiz-adv-x="663" 
d="M373 367q0 -7 22.5 -84.5t22.5 -88.5q0 -21 -31 -41q-25 -16 -55 -16q-32 0 -44 71q-4 19 -17 148l-118 -10q-42 -4 -46 -4q-32 0 -51 29q-16 25 -16 59q0 26 21 29q14 1 45 0q31 -2 88 -2q38 0 66 2l-12 126q-5 47 -5 66q0 32 29 51q26 17 60 17q24 0 27 -23
q1 -16 0 -45q-1 -30 -1 -82q0 -59 3 -101q20 2 109 27q77 22 95 22q23 0 40 -32t17 -56q0 -29 -67 -41q-61 -7 -182 -21z" />
    <glyph glyph-name="comma" unicode="," horiz-adv-x="316" 
d="M97 -161q-20 0 -37 11q-20 13 -20 32q0 26 25 81q19 40 38 81q13 37 27 75q20 51 41 64q12 7 32 7q24 0 46 -12q25 -15 25 -37q0 -10 -61 -131q-25 -49 -47 -91l-29 -53q-15 -27 -40 -27z" />
    <glyph glyph-name="hyphen" unicode="-" horiz-adv-x="662" 
d="M110 316q-30 0 -50 25t-20 55q0 31 24 34q29 0 75 2q61 4 75 4q30 1 37 1q36 3 101 13l34 9q84 23 144 41l32 9q21 0 40 -30t19 -57q0 -23 -17 -29q-9 -3 -45 -9l-90 -16q-106 -18 -223 -34q-34 -6 -68 -11q-42 -7 -68 -7z" />
    <glyph glyph-name="hyphen" unicode="&#x2010;" horiz-adv-x="662" 
d="M110 316q-30 0 -50 25t-20 55q0 31 24 34q29 0 75 2q61 4 75 4q30 1 37 1q36 3 101 13l34 9q84 23 144 41l32 9q21 0 40 -30t19 -57q0 -23 -17 -29q-9 -3 -45 -9l-90 -16q-106 -18 -223 -34q-34 -6 -68 -11q-42 -7 -68 -7z" />
    <glyph glyph-name="period" unicode="." horiz-adv-x="214" 
d="M82 12q-42 0 -42 29q0 62 7 128q3 24 72 24q53 0 53 -16q0 -12 -13 -71q-11 -47 -18.5 -70.5t-58.5 -23.5z" />
    <glyph glyph-name="slash" unicode="/" horiz-adv-x="759" 
d="M121 -3q-24 0 -51 12q-30 12 -30 31q0 20 32 66q17 24 51 73l160 250q55 85 95 143l104 152q18 30 58 88q50 67 98 67q26 0 51 -13q29 -16 29 -40q0 -14 -48 -72q-25 -29 -74 -87q-217 -269 -360 -521q-22 -41 -68 -122q-16 -27 -47 -27z" />
    <glyph glyph-name="zero" unicode="0" horiz-adv-x="1008" 
d="M967 478q0 -200 -156 -344q-152 -141 -353 -141q-127 0 -230 64q-106 66 -155 180q-33 74 -33 161q0 197 156 343q153 143 352 143q174 0 296.5 -117.5t122.5 -288.5zM816 431q0 139 -88 240q-92 105 -229 105q-135 0 -229 -106q-89 -101 -89 -239q0 -139 89 -239
q93 -104 230 -104q135 0 227 105q89 101 89 238z" />
    <glyph glyph-name="one" unicode="1" horiz-adv-x="355" 
d="M313 74q0 -23 -32.5 -36.5t-58.5 -13.5q-29 0 -36 54q-4 25 -6 109l-9 483q-71 -33 -79 -33q-16 0 -35 26q-17 23 -17 45q0 28 40 50q11 5 86 37q67 28 86 28q37 0 37 -25q0 -8 -1 -26l-3 -38q-2 -23 -6 -58q-5 -105 -5 -166q0 -170 23 -339q0 -1 8 -43t8 -54z" />
    <glyph glyph-name="two" unicode="2" horiz-adv-x="802" 
d="M761 508q0 -142 -112 -292q79 -60 79 -77q0 -14 -24 -25q-20 -10 -36 -10q-21 0 -80 39q-173 -181 -301 -181q-106 0 -178 90q-69 86 -69 192q0 81 44.5 127.5t125.5 46.5q133 0 340 -128q93 134 93 240q0 101 -57 162t-157 61q-78 0 -151 -39l-84 -60q-75 -52 -99 -52
q-34 0 -34 29q0 27 52 94q128 165 299 165q154 0 254 -116q95 -110 95 -266zM235 308q-86 0 -86 -121q0 -51 20 -73.5t70 -22.5q103 0 198 76q33 26 33 39q0 12 -94 56q-99 46 -141 46z" />
    <glyph glyph-name="three" unicode="3" horiz-adv-x="744" 
d="M702 303q0 -136 -162 -235q-147 -90 -293 -90q-39 0 -92 10q-60 11 -87.5 27t-27.5 54q0 56 32 56q10 0 36 -11q79 -34 169 -34q68 0 117 21q162 70 162 185q0 54 -37.5 85t-92.5 31q-21 0 -73.5 -8.5t-72.5 -8.5q-41 0 -41 39q0 38 32 68q27 25 67 37q49 14 64 26
q30 24 30 76q0 50 -38 84t-88 34q-43 0 -86 -31q-4 -3 -18 -16l-32 -30q-44 -41 -59 -41q-25 0 -25 45q0 36 50 96q46 56 93 84q62 37 121 37q60 0 107 -41q104 -90 104 -177q0 -92 -85 -165q101 -29 153 -68q73 -54 73 -139z" />
    <glyph glyph-name="four" unicode="4" horiz-adv-x="801" 
d="M596 319q2 -41 16 -117q16 -88 16 -118v-6q0 -21 -33 -36q-28 -13 -52 -13q-28 0 -36 23q-4 9 -6 49q-5 72 -5 140q-1 37 -2 65q-109 -17 -198 -40q-3 -1 -27 -8l-169 -51q-25 0 -41 21t-16 47q0 12 5 25q-8 250 -8 359v46q0 16 1 21q1 32 25 53.5t56 21.5q39 0 39 -31
q0 -36 -6 -107q-9 -106 -9 -154v-47q0 -68 3 -107q173 54 342 69q-7 201 -7 295q0 54 13 78q18 32 68 32q38 0 38 -27q0 -17 -7 -94q-2 -13 -2 -20l-3 -83q-2 -41 -2 -82q0 -47 2 -93q11 0 33.5 1t33.5 1q32 0 65 -21q37 -24 37 -47q0 -24 -64 -34q-33 -3 -100 -11z" />
    <glyph glyph-name="five" unicode="5" horiz-adv-x="671" 
d="M219 709l39 -181q227 -11 310 -117q58 -74 58 -153q0 -77 -58 -145q-50 -59 -128 -94q-61 -27 -148 -27q-118 0 -204 41q-48 23 -48 78q0 32 20 32q10 0 38 -11q88 -34 181 -34q82 0 148 43q76 49 76 127q0 66 -54 111q-51 42 -119 42q-11 0 -68 -9l-63 -10q-52 0 -72 80
l-58 230q-7 28 -7 33q0 40 37 56q177 76 395 76h29q21 0 45 -9q31 -12 52 -37q10 -12 10 -23q0 -28 -67 -35q-228 -22 -344 -64z" />
    <glyph glyph-name="six" unicode="6" horiz-adv-x="842" 
d="M801 351q0 -84 -96 -180q-163 -163 -350 -163q-143 0 -234 129q-81 115 -81 265q0 207 163 348q120 104 325 104q34 0 48 -7q19 -10 27 -39q22 -82 56 -139q3 -5 3 -11q0 -20 -25 -40.5t-48 -20.5q-20 0 -45 45l-33 66q-158 -26 -258 -116q-112 -101 -110 -239
q309 111 481 111q177 0 177 -113zM691 306q0 20 -32 31q-28 8 -58 8q-106 0 -424 -113q58 -92 188 -92q118 0 252 83q74 46 74 83z" />
    <glyph glyph-name="seven" unicode="7" horiz-adv-x="762" 
d="M378 29q-23 0 -44 8q-28 11 -28 31q0 41 272 637q-58 2 -109 2q-79 0 -151 -6q-48 -4 -141 -18l-11 -2q-2 -1 -53 -10q-14 -3 -20 -3q-24 0 -38.5 19t-14.5 44q0 51 45 65q101 31 300 31q184 0 261 -21q20 -5 46 -28q29 -26 29 -45q0 -7 -9 -21q-166 -261 -254 -557
q-9 -34 -29 -101q-9 -25 -51 -25z" />
    <glyph glyph-name="eight" unicode="8" horiz-adv-x="819" 
d="M777 260q0 -144 -189 -235q-157 -76 -317 -76q-231 0 -231 148q0 77 63 175q49 76 123 146q-51 8 -86 43t-35 85q0 85 114 231q94 121 217 121q59 0 106 -40q104 -89 104 -177q0 -94 -84 -165q79 -24 145 -98q70 -79 70 -158zM537 632q0 54 -31 99q-34 51 -86 51
q-59 0 -123 -57q-68 -61 -68 -116q0 -70 97 -88q26 -5 54 -5q60 0 105 27q52 32 52 89zM456 400q-123 0 -233 -115q-53 -55 -53 -101q0 -60 87 -92q66 -24 139 -24q87 0 150 31q81 40 81 117q0 52 -28 99t-73 70q-32 15 -70 15z" />
    <glyph glyph-name="nine" unicode="9" horiz-adv-x="820" 
d="M752 291q0 -22 8 -122l6 -72q2 -34 2 -51q0 -24 -31 -39.5t-58 -15.5q-29 0 -34 20q-5 17 -10 153q-6 128 -6 216q-164 -99 -362 -99q-227 0 -227 162q0 103 153 273q58 65 134 103q83 42 164 42q82 0 147 -49q140 -106 140 -221q0 -18 -5 -49q-21 -130 -21 -251z
M457 734q-76 0 -147 -46q-48 -31 -86 -70q-53 -54 -53 -100q0 -59 88 -92q66 -25 139 -25q86 0 150 32q81 41 81 117q0 73 -50 128.5t-122 55.5z" />
    <glyph glyph-name="colon" unicode=":" horiz-adv-x="242" 
d="M112 330q-43 0 -43 30q0 53 8 134q3 26 69 26q55 0 55 -18q0 -7 -14 -74q-5 -26 -18 -74q-8 -24 -57 -24zM172 173q0 -5 -4 -26l-10 -46q-10 -48 -18 -73t-56 -25q-44 0 -44 31q0 52 8 133q3 27 72 27q52 0 52 -21z" />
    <glyph glyph-name="semicolon" unicode=";" horiz-adv-x="316" 
d="M177 330q-43 0 -43 30q0 39 8 134q2 26 70 26q54 0 54 -18q0 -7 -14 -74q-7 -32 -18 -74q-8 -24 -57 -24zM67 -161q-20 0 -37 11q-20 13 -20 32q0 26 26 81q19 40 38 81q13 37 27 75q20 50 41 64q11 7 31 7q24 0 46 -12q25 -15 25 -37q0 -7 -31 -70l-30 -61
q-16 -33 -31 -63l-28 -52q-7 -12 -16 -29q-17 -27 -41 -27z" />
    <glyph glyph-name="less" unicode="&#x3c;" horiz-adv-x="784" 
d="M196 411q203 -134 425 -288q26 -17 51 -34q30 -20 47 -40q14 -18 14 -36q0 -20 -14.5 -49t-30.5 -29q-11 0 -56 38q-23 20 -69 59q-225 179 -412 275q-25 11 -49 22q-29 14 -45.5 28t-16.5 29q0 24 15 55q16 35 36 33q116 100 442 362q19 16 56 48q50 40 75 40
q20 0 49 -22t29 -42q0 -15 -49 -48q-23 -12 -64 -40q-238 -152 -433 -361z" />
    <glyph glyph-name="equal" unicode="=" horiz-adv-x="718" 
d="M110 455q-30 0 -50 24.5t-20 55.5q0 29 22 33l27 1q74 3 126 6q31 2 41 2q40 4 95 12q18 3 116 33q87 27 95 27q23 0 41 -32t18 -55q0 -22 -18 -28q-10 -5 -135 -25l-111 -19q-93 -15 -201 -30q-38 -5 -46 -5zM165 236q-29 0 -50 25t-21 55q0 28 25 33q-11 0 88 5l63 3
q16 0 37 1q50 3 100 13q-3 0 56 15q17 4 51 14.5t52 14.5q34 9 51 15q22 0 41 -31t19 -57q0 -21 -17.5 -27.5t-134.5 -25.5l-112 -18q-107 -17 -202 -30q-38 -5 -46 -5z" />
    <glyph glyph-name="greater" unicode="&#x3e;" horiz-adv-x="783" 
d="M741 386q0 -24 -34 -42q-26 -12 -76 -37q-208 -109 -413 -276q-9 -8 -31 -27l-37 -32q-45 -37 -57 -37q-15 0 -31 31q-14 25 -14 47q0 26 17 44q9 9 39 28q14 8 57 38q107 75 245 168l180 120q-185 196 -434 361q-33 19 -95 62q-17 14 -17 25q0 25 26 44t52 19
q23 0 41 -12q6 -4 35 -29q2 -2 56 -45q105 -83 221 -179l117 -96q54 -46 101 -87q21 2 38 -33q14 -31 14 -55z" />
    <glyph glyph-name="question" unicode="?" horiz-adv-x="795" 
d="M223 387q-7 -48 -5 -76q-21 -22 -60 -22q-60 10 -60 35q10 65 18 130q3 27 36 27q14 0 42 -1t42 -1q209 10 282 76q48 42 48 100q0 75 -83 121q-78 39 -158 39q-95 0 -223 -90q-44 -31 -55 -31q-17 0 -17 34q0 48 29 73q58 58 150 91.5t182 33.5q122 0 225 -66
q118 -75 118 -192q0 -69 -50 -129q-130 -129 -461 -152zM112 12q-42 0 -42 29q0 62 7 128q3 24 72 24q53 0 53 -16q0 -12 -13 -71q-11 -47 -18.5 -70.5t-58.5 -23.5z" />
    <glyph glyph-name="at" unicode="@" horiz-adv-x="978" 
d="M937 505q0 -127 -74 -256q-53 -93 -134 -164q-85 -75 -182 -106q-64 -20 -128 -20q-158 0 -268.5 113.5t-110.5 269.5q0 129 74 257t189 207q122 84 253 84q157 0 269 -114.5t112 -270.5zM802 440q0 131 -73 229q-81 108 -207 108q-81 0 -164 -50q-192 -115 -192 -332
q0 -128 73 -228q80 -110 205 -110q77 0 163 51q195 115 195 332zM683 365q0 -103 -74 -162q-68 -55 -174 -55q-62 0 -104 26q-50 31 -50 89q0 87 75.5 170t167.5 83q36 0 74 -8q-5 35 -20.5 50t-50.5 15q-20 0 -84 -11l-45 -7q-22 -4 -32 -4q-20 0 -36 19t-16 39q0 29 94 47
q63 12 135 12q50 0 72 -12q28 -14 42 -56q21 -67 25 -164q1 -43 1 -71zM518 428q-32 0 -96 -43.5t-64 -78.5q0 -27 36 -47q31 -18 64 -18q77 0 120 60q13 18 13 42q0 30 -23 57.5t-50 27.5z" />
    <glyph glyph-name="A" unicode="A" horiz-adv-x="867" 
d="M825 101q0 -27 -27.5 -49t-56.5 -22q-26 0 -49 49q-11 29 -36 86q-190 -46 -474 -98q-35 -84 -62 -84q-28 0 -54 33.5t-26 63.5q0 14 26 55q13 20 38 62q85 147 220 506q21 55 40 112q18 53 78 53q33 0 55 -49q12 -38 38 -112q108 -287 227 -489q20 -31 56 -94
q7 -15 7 -23zM601 294q-75 181 -167 392q-48 -113 -98 -241l-94 -242q201 32 359 91z" />
    <glyph glyph-name="B" unicode="B" horiz-adv-x="804" 
d="M294 2q-82 0 -125 5q-39 5 -50 31q-19 43 -21 227q-2 92 -5 235q-3 -1 -8 -1q-23 0 -35 28q-10 22 -10 48q0 30 17 56q4 6 37 46q76 92 149 135q85 50 192 50q124 0 201 -62q84 -67 84 -188q0 -122 -160 -217q74 -20 132 -68q71 -58 71 -124q0 -103 -180 -164
q-110 -37 -289 -37zM622 601q0 62 -73 100q-63 33 -129 33q-111 0 -222 -114q-2 -60 -2 -121v-49q0 -25 1 -50q285 9 368 92q57 57 57 109zM395 309q-106 0 -190 -62q6 -61 14 -119q112 -8 193 -8t141 11q110 20 110 70q0 51 -112 83q-87 25 -156 25z" />
    <glyph glyph-name="C" unicode="C" horiz-adv-x="827" 
d="M785 249q0 -19 -30 -44q-24 -17 -47 -34q-227 -164 -414 -164q-122 0 -191 85q-63 79 -63 204q0 240 187 406q180 161 423 161q34 0 46 -6q18 -10 18 -40v-32q0 -20 11.5 -62.5t11.5 -50.5q0 -20 -35 -43t-56 -23q-19 0 -32 44q-5 23 -17 67q-233 -35 -352 -173
q-107 -124 -107 -232q0 -84 66 -131q58 -42 146 -42q72 0 171 41q11 5 127 66q101 54 114 54q23 0 23 -51z" />
    <glyph glyph-name="D" unicode="D" horiz-adv-x="859" 
d="M104 3q-28 0 -35 108q-4 60 -6 162l-5 256q-18 24 -18 58q0 27 22 56q9 12 42 45q76 76 168 120q101 49 200 49q144 0 244.5 -103t100.5 -245q0 -188 -185 -322q-153 -111 -360 -149q-45 -11 -134 -30q-25 -5 -34 -5zM184 138q188 17 319 85q179 93 179 253
q0 106 -78.5 179.5t-183.5 73.5q-132 0 -257 -117q-4 -68 -4 -133q0 -187 25 -341z" />
    <glyph glyph-name="E" unicode="E" 
d="M182 375q4 -120 23 -246h9q93 0 212 23q55 11 209 48q21 5 33 5q39 0 39 -34q0 -22 -16 -48.5t-36 -36.5q-87 -45 -218 -72q-118 -24 -227 -24q-46 0 -60 2q-53 7 -62 99q-6 51 -6 130q-1 65 -1 130q-41 14 -41 65q0 44 37 59h1q-1 5 -1 33l-1 74q-1 41 -1 79l-1 51
q0 50 13 64.5t62 30.5l125 41q63 20 138 20q97 0 130 -7q26 -6 51 -35q27 -32 27 -55q0 -35 -62 -39q-143 -9 -190 -18q-71 -13 -184 -61q-5 -88 -5 -146q232 67 449 67q37 0 75 -13q53 -19 53 -55q0 -28 -68 -35q-317 -32 -506 -96z" />
    <glyph glyph-name="F" unicode="F" horiz-adv-x="749" 
d="M181 375q1 -56 16 -158t20 -159v-4q0 -22 -28.5 -36t-56.5 -14q-31 0 -35 20q-10 47 -16 324q-41 10 -41 67q0 49 38 58l-3 125q-2 53 -2 86v54q5 31 26 46q12 8 50 20q64 20 129 41q72 20 133 20q98 0 131 -7q28 -6 51 -34q27 -34 27 -55q0 -36 -63 -40
q-143 -9 -190 -18q-72 -13 -184 -61q-4 -74 -4 -143q211 64 409 64q40 0 75 -15q45 -19 45 -53q0 -29 -63 -35q-278 -27 -464 -93z" />
    <glyph glyph-name="G" unicode="G" horiz-adv-x="920" 
d="M302 0q-129 0 -198 87q-64 79 -64 211q0 237 188 402q181 158 421 158q44 0 54 -11.5t10 -61.5q0 -21 12 -65l8 -32q3 -14 3 -20q0 -20 -33 -43.5t-57 -23.5q-16 0 -32 44q-7 17 -11 36l-7 32q-291 -47 -416 -263q-44 -76 -44 -143q0 -77 57 -125q53 -46 131 -46
q90 0 219 52q135 54 193 112q25 25 25 40q0 36 -86 36q-139 0 -377 -57q-25 -6 -38 -6q-30 0 -30 30q0 22 26 58q22 30 48 42q36 16 160 31q109 13 179 13q236 0 236 -99q0 -78 -136 -188q-247 -200 -441 -200z" />
    <glyph glyph-name="H" unicode="H" horiz-adv-x="775" 
d="M679 96q0 -24 -26.5 -39t-56.5 -15q-44 0 -44 69q0 14 -1 43.5t-1 44.5v46q0 10 -8 202q-211 -29 -374 -90q5 -124 17 -198l2 -12q0 -3 4 -22t5 -22q7 -51 7 -56q0 -20 -32 -35q-27 -14 -52 -14q-35 0 -41 46q-1 29 -3 86q-8 97 -23 291q-12 169 -12 291v39q0 30 33 49
q30 18 62 18q43 0 43 -34q0 -6 -1 -19l-2 -28q-10 -140 -10 -247q185 60 374 71l-2 216q5 44 24 62q30 23 78 23q39 0 39 -28q0 -15 -10 -118l-8 -84q-4 -42 -5 -70q25 -6 49 -24q29 -22 29 -44q0 -33 -80 -33v-29q0 -160 13 -241q3 -15 7 -43l4 -31q2 -15 2 -21z" />
    <glyph glyph-name="glyph65" unicode="I" horiz-adv-x="613" 
d="M332 725q-9 -115 -9 -222q0 -194 27 -366q-8 0 90 23q88 20 99 20q29 0 29 -24q0 -19 -15 -43.5t-31 -33.5q-72 -39 -184 -61q-101 -20 -194 -20q-52 0 -70 8q-31 14 -31 62q0 50 43 50q11 0 31.5 -1t31.5 -1q46 0 88 4q-14 163 -18 574q-32 -14 -65 -28q-49 -21 -63 -21
q-23 0 -38 30q-13 24 -13 56q0 55 37 74q142 72 304 72q61 0 87 -5q46 -8 77 -36q26 -24 26 -58t-73 -43q-55 -3 -166 -10z" />
    <glyph glyph-name="J" unicode="J" horiz-adv-x="848" 
d="M809 630q0 -178 -50 -346q-56 -188 -234 -249q-57 -20 -118 -20q-131 0 -239 101q-57 53 -90 137q-35 88 -35 162v9q0 56 62 56q39 0 47 -64q14 -120 83 -195q75 -81 192 -81q85 0 151 45q70 47 87 128q13 61 13 155q0 185 -31 258q-7 16 -47 16q-12 0 -40 -5l-118 -21
q-28 -5 -40 -5q-22 0 -22 29q0 78 51 96q82 28 229 28q39 0 64 -3q61 -7 78 -94q7 -34 7 -137z" />
    <glyph glyph-name="K" unicode="K" horiz-adv-x="751" 
d="M710 785l-63 -63q-48 -48 -120 -115q-29 -27 -50 -47l-26 -26l-106 -100q-50 -47 -92 -89q163 -124 358 -213q17 -6 51 -20q31 -16 31 -25q0 -20 -42 -38q-37 -17 -62 -17q-17 0 -223 70q-115 39 -201 107q0 -6 3 -24l5 -39q8 -56 8 -69q0 -27 -29 -42q-24 -13 -53 -13
q-37 0 -42 47q-3 20 -2 43q1 33 1 44l-12 319q-4 143 -4 254v29q0 10 1 19q3 31 34 50q27 16 61 16q44 0 44 -29q0 -9 -2 -29l-4 -42q-3 -20 -7 -59q-11 -150 -11 -254l1 -2l2 -1q184 171 372 332q71 61 116 61q63 0 63 -35z" />
    <glyph glyph-name="L" unicode="L" horiz-adv-x="715" 
d="M181 16q-51 0 -63 2q-54 9 -63 96q-6 49 -6 126q-2 112 -2 126q-7 197 -7 345v38q0 14 1 19q1 31 25 49.5t56 18.5q39 0 39 -28q0 14 -7 -91q0 -8 -1 -18q-8 -104 -8 -190q0 -188 27 -352h10q94 0 188 16q2 1 60 15l171 39q22 5 33 5q40 0 40 -34q0 -22 -15.5 -47.5
t-35.5 -36.5q-81 -43 -215 -71q-129 -27 -227 -27z" />
    <glyph glyph-name="M" unicode="M" horiz-adv-x="1040" 
d="M998 108q0 -27 -26.5 -55.5t-52.5 -28.5q-24 0 -61 121q-20 72 -39 144q-37 135 -91 311q-38 -119 -93 -322q-67 -245 -84 -275q-10 -18 -25 -18q-25 0 -47 38q-21 33 -21 62q0 5 2 17l-145 465q-87 -288 -152 -481q-10 -52 -34 -88q-9 -13 -20 -13q-23 0 -47 38
q-22 35 -22 62q0 12 16 48q9 19 26 58q34 84 73 202q69 211 107 390q11 54 55 54q23 0 37 -46q6 -25 18 -74q50 -196 150 -457q99 276 162 585q11 53 54 53q20 0 45 -72q19 -59 19 -91q81 -326 150 -506q9 -17 26 -50q20 -44 20 -71z" />
    <glyph glyph-name="N" unicode="N" horiz-adv-x="812" 
d="M724 306q0 -69 3 -132q0 -2 5 -46l3 -30q1 -15 1 -22q0 -49 -89 -49q-34 0 -33 21l-452 512q-6 -97 -6 -185q0 -72 4 -137q2 -43 10 -126q0 -4 2 -13l5 -24q5 -30 5 -44q0 -26 -29.5 -40t-61.5 -14q-24 0 -30 21q-3 9 -3 41q0 28 -2 70q-16 338 -16 565q0 59 5 75
q7 24 39 37q26 11 55 11q26 0 38 -14l442 -513q4 91 12 272q4 125 17 275q5 61 87 61q35 0 35 -26q0 -14 -9 -76q-11 -69 -11 -65q-26 -186 -26 -405z" />
    <glyph glyph-name="O" unicode="O" horiz-adv-x="1008" 
d="M967 478q0 -200 -156 -344q-152 -141 -353 -141q-127 0 -230 64q-106 66 -155 180q-33 74 -33 161q0 197 156 343q153 143 352 143q174 0 296.5 -117.5t122.5 -288.5zM816 431q0 139 -88 240q-92 105 -229 105q-135 0 -229 -106q-89 -101 -89 -239q0 -139 89 -239
q93 -104 230 -104q135 0 227 105q89 101 89 238z" />
    <glyph glyph-name="P" unicode="P" horiz-adv-x="780" 
d="M172 223q0 -1 13 -82l8 -56q4 -26 4 -34q0 -24 -32 -39q-27 -14 -55 -14q-27 0 -33 17q-11 33 -20 508q-17 24 -17 58q0 36 49 93q75 86 153 130q105 59 202 59q117 0 203 -71q91 -75 91 -190q0 -168 -208 -275q-144 -74 -358 -104zM609 571q0 72 -76 120q-67 41 -144 41
q-111 0 -227 -116q-3 -63 -3 -126q0 -75 4 -151q300 9 387 104q59 65 59 128z" />
    <glyph glyph-name="Q" unicode="Q" horiz-adv-x="1006" 
d="M965 481q0 -186 -142 -333q42 -18 44 -18q25 -12 41 -25q11 -9 11 -17q0 -17 -18 -29t-36 -12t-116 39q-132 -92 -292 -92q-178 0 -296 115q-121 116 -121 291q0 197 154 342q152 142 350 142q177 0 297 -112q124 -116 124 -291zM734 204q82 99 82 224q0 137 -87 240
q-92 109 -226 109q-139 0 -233 -105q-90 -101 -90 -241q0 -139 89 -239q92 -104 229 -104q78 0 150 42q-102 51 -166 103q-99 81 -99 157q0 24 12 51q13 32 30 32q16 0 64 -44q26 -24 74 -79q25 -28 25 -31v0l-4 4q77 -73 150 -119z" />
    <glyph glyph-name="R" unicode="R" horiz-adv-x="800" 
d="M642 108q0 -20 -17 -34.5t-37 -14.5q-68 0 -190 38q-111 34 -183 71q0 -4 3 -21l7 -36q8 -48 8 -61q0 -24 -28 -39q-23 -11 -50 -11q-32 0 -40 19q-4 7 -7 47q-3 24 -8 186l-4 131q-2 66 -3 132q-22 5 -37.5 28.5t-15.5 46.5q0 22 27 55q176 216 384 216q121 0 210 -71
q98 -78 98 -194q0 -139 -152 -238q-109 -71 -276 -108q73 -43 152 -75q63 -26 101 -36q19 -2 52 -16q6 -6 6 -15zM639 575q0 72 -74 119q-65 42 -141 42q-111 0 -226 -115q-3 -64 -3 -126q0 -76 4 -152q294 7 381 103q59 65 59 129z" />
    <glyph glyph-name="S" unicode="S" horiz-adv-x="879" 
d="M270 1q-52 0 -84 13q-35 14 -68 50q-78 85 -78 177q0 47 26 47q22 0 42 -25q10 -18 35 -54q74 -89 226 -89q97 0 176 39q91 44 123 126q11 28 11 47q0 40 -96 60q-62 12 -189 20q-59 4 -129 7l-131 6q-83 4 -83 90q0 15 3 22q26 65 85 132q190 216 477 216q32 0 45 -7
q18 -10 19 -38q0 -16 10 -61l6 -33q3 -16 3 -22q0 -21 -34.5 -44t-58.5 -23q-18 0 -26 41.5t-42 41.5q-197 0 -310 -144q-19 -24 -19 -34q0 -8 28 -11q18 -2 52 0q18 1 32 1h4q92 0 347 -24q81 -8 131 -21q35 -9 35 -79q0 -27 -5 -43q-51 -166 -221 -277
q-163 -107 -342 -107z" />
    <glyph glyph-name="T" unicode="T" horiz-adv-x="716" 
d="M396 716q-8 -114 -8 -216q0 -199 25 -355q5 -24 12 -70q2 -16 2 -22q0 -19 -31 -35q-27 -14 -54 -14q-31 0 -36 20q-4 17 -5 47v47q-12 214 -16 575q13 0 -4 -6q-10 -3 -42.5 -11.5t-39.5 -10.5q-85 -30 -96 -30q-30 0 -48 29q-15 25 -15 57q0 55 44 74q168 71 364 71
q91 0 123 -7q39 -9 68 -30q36 -26 36 -61t-86 -42q-65 -3 -193 -10z" />
    <glyph glyph-name="U" unicode="U" horiz-adv-x="741" 
d="M699 77q0 -37 -55 -50q-15 -4 -29 -4q-31 0 -39 26q-4 13 -3 52q0 30 -1 77q-74 -43 -151 -70q-241 -85 -305 -85q-40 0 -50 18q-7 11 -7 53v51q0 80 -6 182q-8 134 -8 144q-5 125 -5 175q0 92 4 131q3 32 33 50q27 16 61 16q45 0 45 -29q0 -20 -5 -60q-3 -16 -7 -47
q-13 -101 -13 -261q0 -245 16 -268q4 -7 18 -7q34 0 179 57q130 51 195 85l-8 196q-3 83 -3 135q0 94 4 133q3 31 33 49q26 17 59 17q47 0 47 -29t-11 -116q-2 -14 -3 -23q-11 -101 -11 -241v-30q0 -30 4 -104t10 -117q3 -27 10 -82q2 -17 2 -24z" />
    <glyph glyph-name="V" unicode="V" horiz-adv-x="693" 
d="M343 16q-66 0 -79 32q-24 59 -122 382q-102 335 -102 369q0 50 73 50q31 0 48 -59q12 -46 12 -83q55 -273 148 -498q31 87 92 261q57 168 106 283q18 43 66 43q66 0 66 -30q0 -9 -23 -58q-12 -24 -36 -71q-104 -220 -155 -479q-6 -37 -20 -111q-7 -31 -74 -31z" />
    <glyph glyph-name="W" unicode="W" horiz-adv-x="1041" 
d="M722 25q-23 0 -58 118q-17 63 -59 187q-33 77 -85 209l-63 -177q-18 -51 -28 -82q-52 -160 -75 -264q-12 -52 -55 -52q-22 0 -36 52q-9 37 -26 110q-45 174 -69 259q-42 145 -85 255q-2 5 -8 19l-15 30q-20 41 -20 65q0 28 28.5 56.5t52.5 28.5q23 0 54 -102
q12 -43 24 -88l19 -77q32 -117 92 -311q36 124 75 229q23 61 70 183q38 101 82 101q25 0 46 -79q5 -19 22 -64l39 -108q28 -75 79 -228q74 244 159 498q6 19 12 38.5t17 34.5q8 12 18 12q26 0 48 -38.5t22 -63.5q0 -14 -16 -49q-8 -20 -27 -59q-37 -90 -72 -200
q-71 -221 -108 -390q-11 -53 -54 -53z" />
    <glyph glyph-name="X" unicode="X" horiz-adv-x="721" 
d="M422 425q89 -113 146 -171q26 -21 74 -74q11 -17 11 -32q0 -27 -18 -57q-22 -35 -44 -35q-19 0 -70 67q-35 45 -105 137l-52 68q-75 -125 -113 -210q-9 -21 -43 -93q-14 -24 -47 -24q-25 0 -49 13q-28 14 -28 37q0 16 206 374q-63 79 -184 240l-42 58q-24 37 -24 64
q0 26 15 53q18 31 43 31q16 0 40 -37q16 -27 48 -80q79 -124 160 -231l44 75q19 34 47 80q58 98 99 158q20 29 59 29q28 0 54 -15q31 -18 31 -44q0 -12 -21 -41q-16 -20 -31 -39q-104 -138 -206 -301z" />
    <glyph glyph-name="Y" unicode="Y" horiz-adv-x="828" 
d="M268 3q-24 0 -49 13q-29 15 -29 37q0 6 152 281q-46 62 -140 185q-30 34 -87 104q-75 97 -75 141q0 23 21 54.5t38 31.5q16 0 39 -37l30 -52q107 -173 230 -329q105 184 170 288q23 40 73 118q21 29 60 29q52 0 77 -35q8 -12 8 -24q0 -14 -41 -68q-22 -28 -64 -85
q-189 -261 -311 -512q-12 -29 -37 -87q-23 -53 -65 -53z" />
    <glyph glyph-name="Z" unicode="Z" horiz-adv-x="815" 
d="M773 127q0 -20 -21 -41t-42 -27q-160 -46 -405 -46q-119 0 -193 12q-28 4 -50 26t-22 49q0 23 12 39l69 84l142 184q40 50 123 152q62 77 127 156q-13 1 -25 1h-25q-166 0 -298 -34q-16 -4 -24 -4q-26 0 -45 25q-17 22 -17 49q0 48 49 64q125 41 277 41q104 0 180 -15
q130 -26 130 -88q0 -36 -67 -97q-44 -40 -50 -47q-91 -85 -212 -234q-98 -120 -179 -241q52 -4 113 -4q120 0 368 27q18 2 33 2q52 0 52 -33z" />
    <glyph glyph-name="bracketleft" unicode="[" horiz-adv-x="549" 
d="M269 -117h-81q-26 0 -45 -1q-41 -1 -57 10q-9 6 -17 22q-13 25 -13 51q0 17 4 26q-20 476 -20 721v125q0 65 8 95q14 59 60 59h34q6 0 21 1h25h81q180 0 223 -11q16 -4 16 -36q0 -25 -9 -51q-12 -33 -33 -33q-13 0 -70 14q-27 6 -68 14q-16 3 -47 3q-39 0 -105 -8
q-19 -219 -19 -428q0 -32 4 -96l17 -269q4 -64 4 -96v-4q62 -6 97 -6q10 0 83 14t104 14q20 0 32 -30q10 -26 10 -53q0 -31 -16 -35q-43 -12 -223 -12z" />
    <glyph glyph-name="backslash" unicode="\" horiz-adv-x="759" 
d="M718 40q0 -19 -29.5 -31t-52.5 -12q-30 0 -57 42q-16 32 -51 96q-148 256 -367 532q-37 43 -106 131q-15 20 -15 28q0 33 55 49q14 4 26 4q42 0 68 -32q7 -9 86 -123l101 -145q44 -66 98 -150l160 -250q15 -19 45 -59q39 -57 39 -80z" />
    <glyph glyph-name="bracketright" unicode="]" horiz-adv-x="548" 
d="M507 724q0 -215 -21 -733q3 -11 3 -24q0 -29 -11 -53q-14 -30 -39 -30h-80q-9 0 -25 -1h-21h-33q-186 0 -225 12q-15 5 -15 36q0 27 8 50q11 32 33 32q15 0 65 -11q31 -8 94 -17h28q36 0 97 6v4q0 72 8 180q12 172 13 180q3 63 3 95q0 202 -18 434q-68 8 -105 8
q-33 0 -48 -3q-4 0 -23 -4l-44 -10q-59 -14 -70 -14q-21 0 -31 29q-10 25 -10 53q0 34 15 38q40 11 223 11h80h25q16 -1 23 -1h33q51 0 63 -73q5 -35 5 -84v-110z" />
    <glyph glyph-name="underscore" unicode="_" horiz-adv-x="844" 
d="M481 -126q-224 0 -357 7q-84 4 -84 87q0 33 34 33h4q37 0 179 -13q120 -11 180 -11h20q25 0 65 5q56 7 65 8l86 8q42 4 61 4q30 0 49.5 -26t19.5 -57t-22 -36q-10 -2 -82 -5q-105 -4 -218 -4z" />
    <glyph glyph-name="a" unicode="a" horiz-adv-x="867" 
d="M825 101q0 -27 -27.5 -49t-56.5 -22q-26 0 -49 49q-11 29 -36 86q-190 -46 -474 -98q-35 -84 -62 -84q-28 0 -54 33.5t-26 63.5q0 14 26 55q13 20 38 62q85 147 220 506q21 55 40 112q18 53 78 53q33 0 55 -49q12 -38 38 -112q108 -287 227 -489q20 -31 56 -94
q7 -15 7 -23zM601 294q-75 181 -167 392q-48 -113 -98 -241l-94 -242q201 32 359 91z" />
    <glyph glyph-name="b" unicode="b" horiz-adv-x="804" 
d="M294 2q-99 0 -144 8q-37 7 -46 106q-7 77 -9 192l-2 192q-3 -1 -8 -1q-23 0 -35 28q-10 22 -10 48q0 30 17 56q4 6 37 46q76 92 149 135q85 50 192 50q124 0 201 -62q84 -67 84 -188q0 -122 -160 -217q74 -20 132 -68q71 -58 71 -124q0 -103 -180 -164q-110 -37 -289 -37
zM622 601q0 62 -73 100q-63 33 -129 33q-111 0 -222 -114q-2 -60 -2 -121v-49q0 -25 1 -50q285 9 368 92q57 57 57 109zM395 309q-106 0 -190 -62q6 -61 14 -119q112 -8 193 -8t141 11q110 20 110 70q0 51 -112 83q-87 25 -156 25z" />
    <glyph glyph-name="c" unicode="c" horiz-adv-x="827" 
d="M785 249q0 -19 -30 -44q-24 -17 -47 -34q-227 -164 -414 -164q-122 0 -191 85q-63 79 -63 204q0 240 187 406q180 161 423 161q34 0 46 -6q18 -10 18 -40v-32q0 -20 11.5 -62.5t11.5 -50.5q0 -20 -35 -43t-56 -23q-19 0 -32 44q-5 23 -17 67q-233 -35 -352 -173
q-107 -124 -107 -232q0 -84 66 -131q58 -42 146 -42q72 0 171 41q11 5 127 66q101 54 114 54q23 0 23 -51z" />
    <glyph glyph-name="d" unicode="d" horiz-adv-x="859" 
d="M104 3q-28 0 -35 108q-4 60 -6 162l-5 256q-18 24 -18 58q0 27 22 56q9 12 42 45q76 76 168 120q101 49 200 49q144 0 244.5 -103t100.5 -245q0 -188 -185 -322q-153 -111 -360 -149q-45 -11 -134 -30q-25 -5 -34 -5zM184 138q188 17 319 85q179 93 179 253
q0 106 -78.5 179.5t-183.5 73.5q-132 0 -257 -117q-4 -68 -4 -133q0 -187 25 -341z" />
    <glyph glyph-name="e" unicode="e" 
d="M182 375q4 -120 23 -246h9q93 0 212 23q55 11 209 48q21 5 33 5q39 0 39 -34q0 -22 -16 -48.5t-36 -36.5q-87 -45 -218 -72q-118 -24 -227 -24q-46 0 -60 2q-53 7 -62 99q-6 51 -6 130q-1 65 -1 130q-41 14 -41 65q0 44 37 59h1q-1 5 -1 33l-1 74q-1 41 -1 79l-1 51
q0 50 13 64.5t62 30.5l125 41q63 20 138 20q97 0 130 -7q26 -6 51 -35q27 -32 27 -55q0 -35 -62 -39q-143 -9 -190 -18q-71 -13 -184 -61q-5 -88 -5 -146q232 67 449 67q37 0 75 -13q53 -19 53 -55q0 -28 -68 -35q-317 -32 -506 -96z" />
    <glyph glyph-name="f" unicode="f" horiz-adv-x="749" 
d="M181 375q1 -56 16 -158t20 -159v-4q0 -22 -28.5 -36t-56.5 -14q-31 0 -35 20q-10 47 -16 324q-41 10 -41 67q0 49 38 58l-3 125q-2 53 -2 86v54q5 31 26 46q12 8 50 20q64 20 129 41q72 20 133 20q98 0 131 -7q28 -6 51 -34q27 -34 27 -55q0 -36 -63 -40
q-143 -9 -190 -18q-72 -13 -184 -61q-4 -74 -4 -143q211 64 409 64q40 0 75 -15q45 -19 45 -53q0 -29 -63 -35q-278 -27 -464 -93z" />
    <glyph glyph-name="g" unicode="g" horiz-adv-x="920" 
d="M302 0q-129 0 -198 87q-64 79 -64 211q0 237 188 402q181 158 421 158q46 0 58 -15q6 -12 6 -58q0 -21 12 -65l8 -32q3 -14 3 -20q0 -21 -33.5 -44t-55.5 -23q-18 0 -33 43q-7 18 -11 37l-7 32q-291 -47 -416 -263q-43 -74 -43 -143q0 -78 57 -126q53 -45 131 -45
q85 0 217.5 52t193.5 112q26 26 26 40q0 36 -86 36q-140 0 -378 -57q-25 -6 -37 -6q-31 0 -31 30q0 22 26 58q22 30 48 42q36 16 161 31q109 13 179 13q235 0 235 -99q0 -78 -135 -188q-246 -200 -442 -200z" />
    <glyph glyph-name="h" unicode="h" horiz-adv-x="775" 
d="M679 96q0 -24 -26.5 -39t-56.5 -15q-44 0 -44 69q0 14 -1 43.5t-1 44.5v46q0 10 -8 202q-211 -29 -374 -90q5 -124 17 -198l2 -12q0 -3 4 -22t5 -22q7 -51 7 -56q0 -20 -32 -35q-27 -14 -52 -14q-35 0 -41 46q-1 29 -3 86q-8 97 -23 291q-12 169 -12 291v39q0 30 33 49
q30 18 62 18q43 0 43 -34q0 -6 -1 -19l-2 -28q-10 -140 -10 -247q185 60 374 71l-2 216q5 44 24 62q30 23 78 23q39 0 39 -28q0 -15 -10 -118l-8 -84q-4 -42 -5 -70q25 -6 49 -24q29 -22 29 -44q0 -33 -80 -33v-29q0 -160 13 -241q3 -15 7 -43l4 -31q2 -15 2 -21z" />
    <glyph glyph-name="glyph95" unicode="i" horiz-adv-x="613" 
d="M332 725q-9 -115 -9 -222q0 -194 27 -366q-8 0 90 23q88 20 99 20q29 0 29 -24q0 -19 -15 -43.5t-31 -33.5q-72 -39 -184 -61q-101 -20 -194 -20q-52 0 -70 8q-31 14 -31 62q0 50 43 50q11 0 31.5 -1t31.5 -1q46 0 88 4q-14 163 -18 574q-32 -14 -65 -28q-49 -21 -63 -21
q-23 0 -38 30q-13 24 -13 56q0 55 37 74q142 72 304 72q61 0 87 -5q46 -8 77 -36q26 -24 26 -58t-73 -43q-55 -3 -166 -10z" />
    <glyph glyph-name="j" unicode="j" horiz-adv-x="850" 
d="M812 630q0 -178 -50 -346q-56 -188 -234 -249q-57 -20 -118 -20q-131 0 -239 101q-57 53 -90 137q-35 88 -35 162v9q0 56 62 56q39 0 47 -64q14 -120 83 -195q75 -81 192 -81q85 0 151 45q70 47 87 128q13 61 13 155q0 185 -31 258q-7 16 -47 16q-10 0 -98 -15l-60 -11
q-28 -5 -40 -5q-22 0 -22 29q0 78 51 96q82 28 230 28q38 0 63 -3q61 -7 78 -94q7 -34 7 -137z" />
    <glyph glyph-name="k" unicode="k" horiz-adv-x="751" 
d="M710 785l-63 -63q-48 -48 -120 -115q-29 -27 -50 -47l-26 -26l-106 -100q-50 -47 -92 -89q163 -124 358 -213q17 -6 51 -20q31 -16 31 -25q0 -20 -42 -38q-37 -17 -62 -17q-17 0 -223 70q-115 39 -201 107q0 -6 3 -24l5 -39q8 -56 8 -69q0 -27 -29 -42q-24 -13 -53 -13
q-37 0 -42 47q-3 20 -2 43q1 33 1 44l-12 319q-4 143 -4 254v29q0 10 1 19q3 31 34 50q27 16 61 16q44 0 44 -29q0 -9 -2 -29l-4 -42q-3 -20 -7 -59q-11 -150 -11 -254l1 -2l2 -1q184 171 372 332q71 61 116 61q63 0 63 -35z" />
    <glyph glyph-name="l" unicode="l" horiz-adv-x="715" 
d="M181 16q-51 0 -63 2q-55 9 -64 96q-6 48 -5 126q0 103 -1 126q-8 225 -8 345v38q0 14 1 19q2 31 25.5 49.5t55.5 18.5q39 0 39 -28q0 14 -7 -91q0 -8 -1 -18q-8 -104 -8 -190q0 -188 27 -352h11q93 0 187 16q2 1 60 15l171 39q22 5 33 5q40 0 40 -34q0 -22 -15.5 -47.5
t-35.5 -36.5q-81 -43 -215 -71q-129 -27 -227 -27z" />
    <glyph glyph-name="m" unicode="m" horiz-adv-x="1040" 
d="M998 108q0 -27 -26.5 -55.5t-52.5 -28.5q-24 0 -61 121q-20 72 -39 144q-37 135 -91 311q-38 -119 -93 -322q-67 -245 -84 -275q-10 -18 -25 -18q-25 0 -47 38q-21 33 -21 62q0 5 2 17l-145 465q-87 -288 -152 -481q-10 -52 -34 -88q-9 -13 -20 -13q-23 0 -47 38
q-22 35 -22 62q0 12 16 48q9 19 26 58q34 84 73 202q69 211 107 390q11 54 55 54q23 0 37 -46q6 -25 18 -74q50 -196 150 -457q99 276 162 585q11 53 54 53q20 0 45 -72q19 -59 19 -91q81 -326 150 -506q9 -17 26 -50q20 -44 20 -71z" />
    <glyph glyph-name="n" unicode="n" horiz-adv-x="812" 
d="M724 306q0 -69 3 -132q0 -2 5 -46l3 -30q1 -15 1 -22q0 -49 -89 -49q-34 0 -33 21l-452 512q-6 -97 -6 -185q0 -72 4 -137q2 -43 10 -126q0 -4 2 -13l5 -24q5 -30 5 -44q0 -26 -29.5 -40t-61.5 -14q-24 0 -30 21q-3 9 -3 41q0 28 -2 70q-16 338 -16 565q0 59 5 75
q7 24 39 37q26 11 55 11q26 0 38 -14l442 -513q4 91 12 272q4 125 17 275q5 61 87 61q35 0 35 -26q0 -14 -9 -76q-11 -69 -11 -65q-26 -186 -26 -405z" />
    <glyph glyph-name="o" unicode="o" horiz-adv-x="1008" 
d="M967 478q0 -200 -156 -344q-152 -141 -353 -141q-127 0 -230 64q-106 66 -155 180q-33 74 -33 161q0 197 156 343q153 143 352 143q174 0 296.5 -117.5t122.5 -288.5zM816 431q0 139 -88 240q-92 105 -229 105q-135 0 -229 -106q-89 -101 -89 -239q0 -139 89 -239
q93 -104 230 -104q135 0 227 105q89 101 89 238z" />
    <glyph glyph-name="p" unicode="p" horiz-adv-x="780" 
d="M172 223q0 -1 13 -82l8 -56q4 -26 4 -34q0 -24 -32 -39q-27 -14 -55 -14q-27 0 -33 17q-11 33 -20 508q-17 24 -17 58q0 36 49 93q75 86 153 130q105 59 202 59q117 0 203 -71q91 -75 91 -190q0 -168 -208 -275q-144 -74 -358 -104zM609 571q0 72 -76 120q-67 41 -144 41
q-111 0 -227 -116q-3 -63 -3 -126q0 -75 4 -151q300 9 387 104q59 65 59 128z" />
    <glyph glyph-name="q" unicode="q" horiz-adv-x="1006" 
d="M965 481q0 -186 -142 -333q42 -18 44 -18q25 -12 41 -25q11 -9 11 -17q0 -17 -18 -29t-36 -12t-116 39q-132 -92 -292 -92q-178 0 -296 115q-121 116 -121 291q0 197 154 342q152 142 350 142q177 0 297 -112q124 -116 124 -291zM734 204q82 99 82 224q0 137 -87 240
q-92 109 -226 109q-139 0 -233 -105q-90 -101 -90 -241q0 -139 89 -239q92 -104 229 -104q78 0 150 42q-102 51 -166 103q-99 81 -99 157q0 24 12 51q13 32 30 32q16 0 64 -44q26 -24 74 -79q25 -28 25 -31v0l-4 4q77 -73 150 -119z" />
    <glyph glyph-name="r" unicode="r" horiz-adv-x="800" 
d="M642 108q0 -20 -17 -34.5t-37 -14.5q-68 0 -190 38q-111 34 -183 71q0 -4 3 -21l7 -36q8 -48 8 -61q0 -24 -28 -39q-23 -11 -50 -11q-32 0 -40 19q-4 7 -7 47q-3 24 -8 186l-4 131q-2 66 -3 132q-22 5 -37.5 28.5t-15.5 46.5q0 22 27 55q176 216 384 216q121 0 210 -71
q98 -78 98 -194q0 -139 -152 -238q-109 -71 -276 -108q73 -43 152 -75q63 -26 101 -36q19 -2 52 -16q6 -6 6 -15zM639 575q0 72 -74 119q-65 42 -141 42q-111 0 -226 -115q-3 -64 -3 -126q0 -76 4 -152q294 7 381 103q59 65 59 129z" />
    <glyph glyph-name="s" unicode="s" horiz-adv-x="879" 
d="M269 1q-94 0 -152 63q-77 84 -77 177q0 47 26 47q29 0 57 -50q65 -118 246 -118q96 0 176 39q91 45 123 126q10 25 10 47q0 40 -95 60q-61 12 -190 20q-59 4 -129 7l-130 6q-84 4 -84 90q0 14 4 22q46 125 202 238q151 110 360 110q32 0 45 -7q18 -10 19 -38
q0 -19 15 -94q3 -16 3 -22q0 -20 -34 -43.5t-59 -23.5q-18 0 -26 41.5t-42 41.5q-196 0 -309 -144q-19 -24 -19 -34q0 -9 27 -11q15 -1 53 0l36 1q90 0 347 -24q81 -8 131 -21q35 -9 35 -79q0 -27 -5 -43q-51 -166 -222 -278q-163 -106 -342 -106z" />
    <glyph glyph-name="t" unicode="t" horiz-adv-x="716" 
d="M396 716q-8 -114 -8 -216q0 -199 25 -355q5 -24 12 -70q2 -16 2 -22q0 -19 -31 -35q-27 -14 -54 -14q-31 0 -36 20q-4 17 -5 47v47q-12 214 -16 575q13 0 -4 -6q-10 -3 -42.5 -11.5t-39.5 -10.5q-85 -30 -96 -30q-30 0 -48 29q-15 25 -15 57q0 55 44 74q168 71 364 71
q91 0 123 -7q39 -9 68 -30q36 -26 36 -61t-86 -42q-65 -3 -193 -10z" />
    <glyph glyph-name="u" unicode="u" horiz-adv-x="741" 
d="M699 77q0 -37 -55 -50q-15 -4 -29 -4q-31 0 -39 26q-4 13 -3 52q0 30 -1 77q-74 -43 -151 -70q-241 -85 -305 -85q-40 0 -50 18q-7 11 -7 53v51q0 80 -6 182q-8 134 -8 144q-5 125 -5 175q0 92 4 131q3 32 33 50q27 16 61 16q45 0 45 -29q0 -20 -5 -60q-3 -16 -7 -47
q-13 -101 -13 -261q0 -245 16 -268q4 -7 18 -7q34 0 179 57q130 51 195 85l-8 196q-3 83 -3 135q0 94 4 133q3 31 33 49q26 17 59 17q47 0 47 -29t-11 -116q-2 -14 -3 -23q-11 -101 -11 -241v-30q0 -30 4 -104t10 -117q3 -27 10 -82q2 -17 2 -24z" />
    <glyph glyph-name="v" unicode="v" horiz-adv-x="693" 
d="M343 16q-66 0 -79 32q-24 59 -122 382q-102 335 -102 369q0 50 73 50q31 0 48 -59q12 -46 12 -83q55 -273 148 -498q31 87 92 261q57 168 106 283q18 43 66 43q66 0 66 -30q0 -9 -23 -58q-12 -24 -36 -71q-104 -220 -155 -479q-6 -37 -20 -111q-7 -31 -74 -31z" />
    <glyph glyph-name="w" unicode="w" horiz-adv-x="1041" 
d="M722 25q-23 0 -58 118q-17 63 -59 187q-33 77 -85 209l-63 -177q-18 -51 -28 -82q-52 -160 -75 -264q-12 -52 -55 -52q-22 0 -36 52q-9 37 -26 110q-45 174 -69 259q-42 145 -85 255q-2 5 -8 19l-15 30q-20 41 -20 65q0 28 28.5 56.5t52.5 28.5q23 0 54 -102
q12 -43 24 -88l19 -77q32 -117 92 -311q36 124 75 229q23 61 70 183q38 101 82 101q25 0 46 -79q5 -19 22 -64l39 -108q28 -75 79 -228q74 244 159 498q6 19 12 38.5t17 34.5q8 12 18 12q26 0 48 -38.5t22 -63.5q0 -14 -16 -49q-8 -20 -27 -59q-37 -90 -72 -200
q-71 -221 -108 -390q-11 -53 -54 -53z" />
    <glyph glyph-name="x" unicode="x" horiz-adv-x="721" 
d="M422 425q89 -113 146 -171q26 -21 74 -74q11 -17 11 -32q0 -27 -18 -57q-22 -35 -44 -35q-21 0 -70 67q-35 45 -105 137l-52 68q-40 -69 -113 -210q-11 -27 -22 -53q-14 -30 -30.5 -47t-36.5 -17q-24 0 -51 13.5t-27 36.5q0 16 206 374l-120 155q-70 90 -115 158
q-15 22 -15 49q0 26 15 53q18 31 43 31q16 0 40 -37q16 -27 48 -80q79 -124 160 -231l44 75q19 34 47 80q58 98 99 158q20 29 59 29q28 0 54 -15q31 -18 31 -44q0 -12 -21 -41q-16 -20 -31 -39q-104 -138 -206 -301z" />
    <glyph glyph-name="y" unicode="y" horiz-adv-x="828" 
d="M268 3q-24 0 -49 13q-29 15 -29 37q0 5 153 281q-46 62 -141 185q-30 34 -87 106q-75 98 -75 139q0 23 21 54.5t38 31.5q16 0 39 -37l30 -52q97 -159 231 -329q40 70 83 142l86 146q24 40 74 118q20 29 59 29q28 0 54 -15q31 -18 31 -44q0 -14 -41 -68q-22 -28 -64 -85
q-186 -257 -311 -512q-12 -29 -37 -87q-23 -53 -65 -53z" />
    <glyph glyph-name="z" unicode="z" horiz-adv-x="815" 
d="M773 127q0 -20 -21 -41t-42 -27q-160 -46 -405 -46q-119 0 -193 12q-28 4 -50 26t-22 49q0 23 12 39l69 84l142 184q40 50 123 152q62 77 127 156q-13 1 -25 1h-25q-166 0 -298 -34q-16 -4 -24 -4q-26 0 -45 25q-17 22 -17 49q0 48 49 64q125 41 277 41q104 0 180 -15
q130 -26 130 -88q0 -36 -67 -97q-44 -40 -50 -47q-91 -85 -212 -234q-98 -120 -179 -241q52 -4 113 -4q120 0 368 27q18 2 33 2q52 0 52 -33z" />
    <glyph glyph-name="braceleft" unicode="{" horiz-adv-x="837" 
d="M782 723q0 -22 -26.5 -53.5t-47.5 -31.5q-11 0 -55 39q-51 44 -86 69q-27 20 -142 66q-41 10 -63 27q-10 7 -10 15q0 25 26.5 51.5t49.5 26.5q6 0 93 -47q65 -35 159 -90q38 -21 97 -60q5 -5 5 -12zM678 468q0 -28 -13 -53q-16 -29 -42 -29q-10 0 -121 11q-6 0 -56 7
q-34 4 -56 4q-9 0 -153 -15q-134 -15 -164 -15q-33 0 -33 40q0 31 20 55.5t51 26.5q19 1 175 6l129 4q53 -1 161 3q65 4 89 -12q13 -9 13 -33zM464 -86q-20 0 -37 29.5t-17 52.5q0 21 15.5 35t86.5 68q34 25 72 53l71 52q76 55 83 55q18 0 38 -34.5t20 -56.5
q0 -16 -17.5 -24.5t-34.5 -15.5q-39 -19 -105 -57q-31 -23 -91 -82l-73 -71q-5 -4 -11 -4z" />
    <glyph glyph-name="bar" unicode="|" horiz-adv-x="224" 
d="M182 79q0 -30 -32 -50q-27 -16 -59 -16q-28 0 -34 62q-3 25 -2 54q1 28 1 48q0 101 -7 276q-8 199 -9 276q-1 47 2 65q7 34 30 56q27 24 63 24q46 0 46 -37q0 -21 -6 -89l-5 -49q-1 -13 -3 -30q-7 -71 -7 -237q0 -116 8 -217q0 -1 8 -63q6 -56 6 -73z" />
    <glyph glyph-name="braceright" unicode="}" horiz-adv-x="838" 
d="M96 585q-17 0 -37 36q-19 33 -19 56q0 17 28 30q76 36 128 67q23 14 94 83l47 47l24 24q5 4 11 4q16 0 37 -32q17 -27 17 -51q0 -20 -14 -34q-53 -44 -160 -123l-71 -52q-75 -55 -85 -55zM763 466q34 0 34 -40q0 -32 -19.5 -55t-51.5 -26q-19 -4 -51 -4q-26 -1 -52 -1
q-138 -7 -254 -7q-44 0 -83 -2q-84 -4 -113 12q-16 9 -16 33q0 29 14 53q16 30 42 30q27 0 120.5 -11.5t110.5 -11.5q74 0 217 18q95 12 102 12zM483 -8q0 -26 -26.5 -52.5t-49.5 -26.5q-8 0 -93 47q-79 43 -158 90l-64 38q-40 24 -40 35q0 21 28 52.5t48 31.5q8 0 54 -39
q27 -25 85 -70q35 -24 151 -69q19 -5 56 -23q9 -6 9 -14z" />
    <glyph glyph-name="asciitilde" unicode="~" horiz-adv-x="640" 
d="M451 361q-16 0 -51 13l-75 27q-106 38 -124 38t-64.5 -38.5t-55.5 -38.5q-19 0 -31 33q-10 27 -10 55q0 41 40.5 74.5t82.5 33.5q25 0 128.5 -38t127.5 -38q17 0 74 46l39 31q17 14 23 14q17 0 31 -36q12 -30 12 -56q0 -35 -56 -77.5t-91 -42.5z" />
    <glyph glyph-name="Adieresis" unicode="&#xc4;" horiz-adv-x="1084" 
d="M35 82q-26 67 -26 100q0 57 89 76q65 14 110 69q80 99 244 416q18 40 58 119q28 52 64 54q67 5 75 -51q1 -8 25 -115l27 -120q22 -102 44 -160q13 -38 34 -92q5 -34 27 -37q10 -2 26 0q23 4 26 4l45 3q67 -5 67 -61q0 -14 -3 -31q-32 -91 -84 -207q-14 -31 -50 -31
q-14 0 -31 5q-40 2 -45 20q-6 23 33 87q25 41 31 61q2 10 -3 14.5t-18 2.5q-76 -11 -229 -29q-55 -6 -165 -16q-114 -12 -212 -26q-25 -3 -28 -14q-2 -8 4 -30q1 -4 17 -41q11 -26 11 -39q0 -36 -54 -53q-31 -10 -48 -6q-32 8 -45 66q-7 27 -16 62zM320 286q96 3 232 19
q47 5 110 13q0 2 -22 82l-13 49q-3 12 -8 30q-20 78 -58 234q-79 -143 -241 -427z" />
    <glyph glyph-name="Aring" unicode="&#xc5;" 
d="M142 380q4 -120 23 -246h9q93 0 212 23q55 11 209 48q21 5 33 5q39 0 39 -34q0 -22 -16 -48.5t-36 -36.5q-87 -45 -218 -72q-118 -24 -227 -24q-46 0 -60 2q-53 7 -62 99q-6 51 -6 130q-1 65 -1 130q-41 14 -41 65q0 44 37 59h1q-1 5 -1 33l-1 74q-1 41 -1 79l-1 51
q0 50 13 64.5t62 30.5l125 41q63 20 138 20q97 0 130 -7q26 -6 51 -35q27 -32 27 -55q0 -35 -62 -39q-143 -9 -190 -18q-71 -13 -184 -61q-5 -88 -5 -146q232 67 449 67q37 0 75 -13q53 -19 53 -55q0 -28 -68 -35q-317 -32 -506 -96z" />
    <glyph glyph-name="Ccedilla" unicode="&#xc7;" horiz-adv-x="744" 
d="M662 303q0 -136 -162 -235q-147 -90 -293 -90q-39 0 -92 10q-60 11 -87.5 27t-27.5 54q0 56 32 56q10 0 36 -11q79 -34 169 -34q68 0 117 21q162 70 162 185q0 54 -37.5 85t-92.5 31q-21 0 -73.5 -8.5t-72.5 -8.5q-41 0 -41 39q0 38 32 68q27 25 67 37q49 14 64 26
q30 24 30 76q0 50 -38 84t-88 34q-43 0 -86 -31q-4 -3 -18 -16l-32 -30q-44 -41 -59 -41q-25 0 -25 45q0 36 50 96q46 56 93 84q62 37 121 37q60 0 107 -41q104 -90 104 -177q0 -92 -85 -165q101 -29 153 -68q73 -54 73 -139z" />
    <glyph glyph-name="Eacute" unicode="&#xc9;" horiz-adv-x="741" 
d="M659 77q0 -37 -55 -50q-15 -4 -29 -4q-31 0 -39 26q-4 13 -3 52q0 30 -1 77q-74 -43 -151 -70q-241 -85 -305 -85q-40 0 -50 18q-7 11 -7 53v51q0 80 -6 182q-8 134 -8 144q-5 125 -5 175q0 92 4 131q3 32 33 50q27 16 61 16q45 0 45 -29q0 -20 -5 -60q-3 -16 -7 -47
q-13 -101 -13 -261q0 -245 16 -268q4 -7 18 -7q34 0 179 57q130 51 195 85l-8 196q-3 83 -3 135q0 94 4 133q3 31 33 49q26 17 59 17q47 0 47 -29t-11 -116q-2 -14 -3 -23q-11 -101 -11 -241v-30q0 -30 4 -104t10 -117q3 -27 10 -82q2 -17 2 -24zM321 735q-21 0 -39 12
t-18 32q0 25 26 81q19 40 38 81q13 39 47 114q17 31 51 31q25 0 46 -12q26 -14 26 -37q0 -7 -62 -132q-23 -50 -74 -143q-17 -27 -41 -27z" />
    <glyph glyph-name="Ntilde" unicode="&#xd1;" horiz-adv-x="827" 
d="M745 249q0 -19 -30 -44q-24 -17 -47 -34q-227 -164 -414 -164q-122 0 -191 85q-63 79 -63 204q0 240 187 406q180 161 423 161q34 0 46 -6q18 -10 18 -40v-32q0 -20 11.5 -62.5t11.5 -50.5q0 -20 -35 -43t-56 -23q-19 0 -32 44q-5 23 -17 67q-233 -35 -352 -173
q-107 -124 -107 -232q0 -84 66 -131q58 -42 146 -42q72 0 171 41q11 5 127 66q101 54 114 54q23 0 23 -51z" />
    <glyph glyph-name="Odieresis" unicode="&#xd6;" horiz-adv-x="862" 
d="M821 28q0 -33 -36 -55q-16 -10 -34 -12q-35 -4 -62 36l-48 69q-45 64 -53 118q-52 -27 -158 -73q-246 -87 -312 -87q-57 0 -58 41q-1 14 -1 31v52q0 86 -9.5 257.5t-9.5 256.5q0 94 4 134q3 32 34 51q28 16 62 16q46 0 46 -29q0 -21 -5 -61l-5 -33q-2 -12 -2 -16
q-13 -101 -13 -267q0 -252 16 -275q4 -7 19 -7q69 0 199 55q63 29 189 88q-6 96 -16 288q-2 57 -3 106q-1 48 3 66q6 35 30 57q28 25 65 25q47 0 47 -38q0 -4 -12 -142q-1 -14 -3 -30q-5 -45 -5 -81q0 -15 1 -46v-47v-42q0 -25 1 -57q1 1 1.5 1t1.5 1q28 0 54 -44
q10 -19 13 -38q2 -19 -10 -32l-48 -24q13 -40 65 -111t52 -102z" />
    <glyph glyph-name="Udieresis" unicode="&#xdc;" horiz-adv-x="817" 
d="M181 577q167 45 299 45q40 0 77 -4q218 -25 218 -201q0 -121 -95 -236.5t-213 -161.5q-71 -27 -145 -27q-72 0 -134 25q-79 31 -123 80q-22 24 -22 49q0 35 17 68q11 603 22 644q6 22 35 32q22 11 54 9q37 -3 37 -29q0 -44 -14 -176q-13 -114 -13 -117zM640 395
q0 68 -62 110q-33 22 -93 22q-110 0 -313 -75q-4 -82 -4 -160q0 -68 3 -131q75 -45 147 -45q123 0 242 122q80 82 80 157z" />
    <glyph glyph-name="aacute" unicode="&#xe1;" horiz-adv-x="817" 
d="M274 2q-82 0 -125 6q-39 5 -50 35q-19 50 -21 270q-2 110 -5 281q-3 -1 -8 -1q-23 0 -35 31q-10 24 -10 53t17 62q15 29 92 58q215 77 391 73q72 -2 112 -27q21 -13 21 -47q0 -26 -13 -43t-36 -15q-87 11 -211 -21q-118 -30 -220 -90l-1 -86l5 -94q68 21 167 21
q34 0 72 -2l124 -28q64 -14 132 -75q71 -65 71 -138q0 -114 -180 -182q-110 -41 -289 -41zM395 354q-106 10 -190 -53q6 -103 14 -182q112 -9 193 -9q81 10 141 23q100 24 100 83q0 60 -102 98q-87 30 -156 40z" />
    <glyph glyph-name="acircumflex" unicode="&#xe2;" horiz-adv-x="804" 
d="M254 2q-82 0 -125 5q-39 5 -50 31q-19 43 -21 227q-2 92 -5 235q-3 -1 -8 -1q-23 0 -35 28q-10 22 -10 48q0 30 17 56q4 6 37 46q76 92 149 135q85 50 192 50q124 0 201 -62q84 -67 84 -188q0 -122 -160 -217q74 -20 132 -68q71 -58 71 -124q0 -103 -180 -164
q-110 -37 -289 -37zM582 601q0 62 -73 100q-63 33 -129 33q-111 0 -222 -114q-2 -60 -2 -121v-49q0 -25 1 -50q285 9 368 92q57 57 57 109zM355 309q-106 0 -190 -62q6 -61 14 -119q112 -8 193 -8t141 11q110 20 110 70q0 51 -112 83q-87 25 -156 25z" />
    <glyph glyph-name="adieresis" unicode="&#xe4;" horiz-adv-x="1084" 
d="M35 82q-26 67 -26 100q0 57 89 76q65 14 110 69q80 99 244 416q18 40 58 119q28 52 64 54q67 5 75 -51q1 -8 25 -115l27 -120q22 -102 44 -160q13 -38 34 -92q5 -34 27 -37q10 -2 26 0q23 4 26 4l45 3q67 -5 67 -61q0 -14 -3 -31q-32 -91 -84 -207q-14 -31 -50 -31
q-14 0 -31 5q-40 2 -45 20q-6 23 33 87q25 41 31 61q2 10 -3 14.5t-18 2.5q-76 -11 -229 -29q-55 -6 -165 -16q-114 -12 -212 -26q-25 -3 -28 -14q-2 -8 4 -30q1 -4 17 -41q11 -26 11 -39q0 -36 -54 -53q-31 -10 -48 -6q-32 8 -45 66q-7 27 -16 62zM320 286q96 3 232 19
q47 5 110 13q0 2 -22 82l-13 49q-3 12 -8 30q-20 78 -58 234q-79 -143 -241 -427z" />
    <glyph glyph-name="aring" unicode="&#xe5;" 
d="M142 380q4 -120 23 -246h9q93 0 212 23q55 11 209 48q21 5 33 5q39 0 39 -34q0 -22 -16 -48.5t-36 -36.5q-87 -45 -218 -72q-118 -24 -227 -24q-46 0 -60 2q-53 7 -62 99q-6 51 -6 130q-1 65 -1 130q-41 14 -41 65q0 44 37 59h1q-1 5 -1 33l-1 74q-1 41 -1 79l-1 51
q0 50 13 64.5t62 30.5l125 41q63 20 138 20q97 0 130 -7q26 -6 51 -35q27 -32 27 -55q0 -35 -62 -39q-143 -9 -190 -18q-71 -13 -184 -61q-5 -88 -5 -146q232 67 449 67q37 0 75 -13q53 -19 53 -55q0 -28 -68 -35q-317 -32 -506 -96z" />
    <glyph glyph-name="ccedilla" unicode="&#xe7;" horiz-adv-x="744" 
d="M662 303q0 -136 -162 -235q-147 -90 -293 -90q-39 0 -92 10q-60 11 -87.5 27t-27.5 54q0 56 32 56q10 0 36 -11q79 -34 169 -34q68 0 117 21q162 70 162 185q0 54 -37.5 85t-92.5 31q-21 0 -73.5 -8.5t-72.5 -8.5q-41 0 -41 39q0 38 32 68q27 25 67 37q49 14 64 26
q30 24 30 76q0 50 -38 84t-88 34q-43 0 -86 -31q-4 -3 -18 -16l-32 -30q-44 -41 -59 -41q-25 0 -25 45q0 36 50 96q46 56 93 84q62 37 121 37q60 0 107 -41q104 -90 104 -177q0 -92 -85 -165q101 -29 153 -68q73 -54 73 -139z" />
    <glyph glyph-name="eacute" unicode="&#xe9;" horiz-adv-x="741" 
d="M659 77q0 -37 -55 -50q-15 -4 -29 -4q-31 0 -39 26q-4 13 -3 52q0 30 -1 77q-74 -43 -151 -70q-241 -85 -305 -85q-40 0 -50 18q-7 11 -7 53v51q0 80 -6 182q-8 134 -8 144q-5 125 -5 175q0 92 4 131q3 32 33 50q27 16 61 16q45 0 45 -29q0 -20 -5 -60q-3 -16 -7 -47
q-13 -101 -13 -261q0 -245 16 -268q4 -7 18 -7q34 0 179 57q130 51 195 85l-8 196q-3 83 -3 135q0 94 4 133q3 31 33 49q26 17 59 17q47 0 47 -29t-11 -116q-2 -14 -3 -23q-11 -101 -11 -241v-30q0 -30 4 -104t10 -117q3 -27 10 -82q2 -17 2 -24zM321 735q-21 0 -39 12
t-18 32q0 25 26 81q19 40 38 81q13 39 47 114q17 31 51 31q25 0 46 -12q26 -14 26 -37q0 -7 -62 -132q-23 -50 -74 -143q-17 -27 -41 -27z" />
    <glyph glyph-name="ecircumflex" unicode="&#xea;" horiz-adv-x="751" 
d="M670 785l-63 -63q-48 -48 -120 -115q-29 -27 -50 -47l-26 -26l-106 -100q-50 -47 -92 -89q163 -124 358 -213q17 -6 51 -20q31 -16 31 -25q0 -20 -42 -38q-37 -17 -62 -17q-17 0 -223 70q-115 39 -201 107q0 -6 3 -24l5 -39q8 -56 8 -69q0 -27 -29 -42q-24 -13 -53 -13
q-37 0 -42 47q-3 20 -2 43q1 33 1 44l-12 319q-4 143 -4 254v29q0 10 1 19q3 31 34 50q27 16 61 16q44 0 44 -29q0 -9 -2 -29l-4 -42q-3 -20 -7 -59q-11 -150 -11 -254l1 -2l2 -1q184 171 372 332q71 61 116 61q63 0 63 -35z" />
    <glyph glyph-name="edieresis" unicode="&#xeb;" horiz-adv-x="711" 
d="M423 867q69 -5 73 -39q4 -38 11 -114q27 -267 115 -502q15 -38 44 -114q6 -17 4 -23q-2 -29 -60 -25q-59 3 -73 49q-54 180 -81 291l-2 7q-25 91 -71 275q-57 -111 -106 -234q-34 -87 -49 -127q-26 -72 -41 -133l-13 -52q-5 -23 -18 -64q-12 -21 -31 -24q-26 -4 -53 13
q-30 19 -28 44q2 29 137 368q37 96 75 192q50 125 84 186q17 31 83 26z" />
    <glyph glyph-name="iacute" unicode="&#xed;" horiz-adv-x="775" 
d="M639 96q0 -24 -26.5 -39t-56.5 -15q-44 0 -44 69q0 14 -1 43.5t-1 44.5v46q0 10 -8 202q-211 -29 -374 -90q5 -124 17 -198l2 -12q0 -3 4 -22t5 -22q7 -51 7 -56q0 -20 -32 -35q-27 -14 -52 -14q-35 0 -41 46q-1 29 -3 86q-8 97 -23 291q-12 169 -12 291v39q0 30 33 49
q30 18 62 18q43 0 43 -34q0 -6 -1 -19l-2 -28q-10 -140 -10 -247q185 60 374 71l-2 216q5 44 24 62q30 23 78 23q39 0 39 -28q0 -15 -10 -118l-8 -84q-4 -42 -5 -70q25 -6 49 -24q29 -22 29 -44q0 -33 -80 -33v-29q0 -160 13 -241q3 -15 7 -43l4 -31q2 -15 2 -21z" />
    <glyph glyph-name="icircumflex" unicode="&#xee;" horiz-adv-x="1008" 
d="M927 478q0 -200 -156 -344q-152 -141 -353 -141q-127 0 -230 64q-106 66 -155 180q-33 74 -33 161q0 197 156 343q153 143 352 143q174 0 296.5 -117.5t122.5 -288.5zM776 431q0 139 -88 240q-92 105 -229 105q-135 0 -229 -106q-89 -101 -89 -239q0 -139 89 -239
q93 -104 230 -104q135 0 227 105q89 101 89 238z" />
    <glyph glyph-name="idieresis" unicode="&#xef;" horiz-adv-x="720" 
d="M679 96q0 -24 -26.5 -39t-56.5 -15q-44 0 -44 69q0 14 -1 43.5t-1 44.5v46q0 53 -1 168q-2 115 0 293q-211 -30 -374 -91q-2 -427 -3 -230q1 -152 13 -226l2 -12q0 -3 4 -22t5 -22q7 -51 7 -56q0 -20 -32 -35q-27 -14 -52 -14q-35 0 -41 46q-1 29 -3 86q-8 97 -23 291
q-12 169 -12 291v39q0 30 33 49q30 18 62 18q43 0 43 -34q0 -17 -6 -35q186 58 389 90q24 5 72 11q45 1 45 -29q0 -20 -10 -115l-8 -77q-6 -63 -7 -136q-1 -22 0 -61l3 -123q2 -71 10 -118q0 -4 2.5 -16t4.5 -27l4 -31q2 -15 2 -21z" />
    <glyph glyph-name="ntilde" unicode="&#xf1;" horiz-adv-x="827" 
d="M745 249q0 -19 -30 -44q-24 -17 -47 -34q-227 -164 -414 -164q-122 0 -191 85q-63 79 -63 204q0 240 187 406q180 161 423 161q34 0 46 -6q18 -10 18 -40v-32q0 -20 11.5 -62.5t11.5 -50.5q0 -20 -35 -43t-56 -23q-19 0 -32 44q-5 23 -17 67q-233 -35 -352 -173
q-107 -124 -107 -232q0 -84 66 -131q58 -42 146 -42q72 0 171 41q11 5 127 66q101 54 114 54q23 0 23 -51z" />
    <glyph glyph-name="oacute" unicode="&#xf3;" horiz-adv-x="828" 
d="M228 3q-24 0 -49 13q-29 15 -29 37q0 6 152 281q-46 62 -140 185q-30 34 -87 104q-75 97 -75 141q0 23 21 54.5t38 31.5q16 0 39 -37l30 -52q107 -173 230 -329q105 184 170 288q23 40 73 118q21 29 60 29q52 0 77 -35q8 -12 8 -24q0 -14 -41 -68q-22 -28 -64 -85
q-189 -261 -311 -512q-12 -29 -37 -87q-23 -53 -65 -53z" />
    <glyph glyph-name="ocircumflex" unicode="&#xf4;" horiz-adv-x="1311" 
d="M714 280q-2 -62 0 -105q1 -44 1 -82l-1 -54q0 -25 -54 -32q-59 7 -59 33q0 25 2 68q1 49 2 69q0 41 -3 101q-111 -14 -199 -11q-86 2 -160 21q-203 52 -203 219q0 110 90 207q121 131 275 131q58 0 120 -20q68 -22 128 -69q63 50 134 73q62 20 120 20q153 0 275 -131
q90 -97 90 -207q0 -166 -203 -219q-74 -19 -159 -21q-89 -3 -196 9zM1146 512q0 70 -74 135q-66 57 -141 76q-25 6 -50 6q-83 0 -174 -65v-35q-1 -26 -1 -33v-52q0 -74 4 -150q138 -30 230 -30q103 0 148 38q58 49 58 110zM166 508q0 -61 58 -110q45 -38 148 -38
q92 0 230 30q4 76 4 150v61q0 -6 2 62q-93 62 -175 62q-96 0 -192 -82q-75 -64 -75 -135z" />
    <glyph glyph-name="odieresis" unicode="&#xf6;" horiz-adv-x="862" 
d="M821 28q0 -33 -36 -55q-16 -10 -34 -12q-35 -4 -62 36l-48 69q-45 64 -53 118q-52 -27 -158 -73q-246 -87 -312 -87q-57 0 -58 41q-1 14 -1 31v52q0 86 -9.5 257.5t-9.5 256.5q0 94 4 134q3 32 34 51q28 16 62 16q46 0 46 -29q0 -21 -5 -61l-5 -33q-2 -12 -2 -16
q-13 -101 -13 -267q0 -252 16 -275q4 -7 19 -7q69 0 199 55q63 29 189 88q-6 96 -16 288q-2 57 -3 106q-1 48 3 66q6 35 30 57q28 25 65 25q47 0 47 -38q0 -4 -12 -142q-1 -14 -3 -30q-5 -45 -5 -81q0 -15 1 -46v-47v-42q0 -25 1 -57q1 1 1.5 1t1.5 1q28 0 54 -44
q10 -19 13 -38q2 -19 -10 -32l-48 -24q13 -40 65 -111t52 -102z" />
    <glyph glyph-name="ugrave" unicode="&#xf9;" horiz-adv-x="967" 
d="M928 -12q0 -32 -37 -55q-16 -10 -34 -12q-44 -5 -77 63q-20 40 -30 78q-73 -2 -219 -8q-23 -42 -74 -42q-46 0 -54 38q-9 -2 -75 0q-41 2 -81 4q-41 1 -68 0q-31 -1 -54 -1q-49 0 -65 14q-20 16 -18 63q1 29 1 73q-1 41 -1 95t2 125q2 50 6 159t17 141q10 27 46.5 53
t60.5 26q30 0 30 -40q0 -10 -2 -23q-32 -208 -30 -433q0 -72 4 -133q80 -8 162 -8q28 0 57 1q-4 161 -3 312q0 139 10 261q4 44 43 96q23 12 39 12q43 0 43 -87v-285q0 -148 4 -306q108 0 210 17q-7 166 -16 497q-1 47 3 66q6 35 31.5 58.5t62.5 23.5q47 0 47 -37
q0 -22 -6 -92l-5 -50q-1 -13 -3 -30q-7 -73 -7 -243q0 -31 0.5 -78t5.5 -114q27 -9 24 -56l-7 -14l34 -64q23 -45 23 -65z" />
    <glyph glyph-name="ucircumflex" unicode="&#xfb;" horiz-adv-x="1071" 
d="M181 577q167 45 299 45q40 0 77 -4q218 -25 218 -201q0 -121 -95 -236.5t-213 -161.5q-71 -27 -145 -27q-72 0 -134 25q-79 31 -123 80q-22 24 -22 49q0 35 17 68q11 603 22 644q6 22 35 32q22 11 54 9q37 -3 37 -29q0 -44 -14 -176q-13 -114 -13 -117zM640 395
q0 68 -62 110q-33 22 -93 22q-110 0 -313 -75q-4 -82 -4 -160q0 -68 3 -131q75 -45 147 -45q123 0 242 122q80 82 80 157zM1030 70q0 -33 -33 -53q-27 -17 -63 -17q-31 0 -36 65q-2 26 -1 56q1 29 1 51q0 106 -7 290q-9 206 -10 289q-1 49 3 68q6 36 31 58q28 26 65 26
q49 0 49 -40q0 -9 -7 -93l-5 -51q-1 -14 -3 -32q-8 -86 -8 -248q0 -107 9 -227q1 -5 3 -24l5 -42q7 -69 7 -76z" />
    <glyph glyph-name="udieresis" unicode="&#xfc;" horiz-adv-x="817" 
d="M181 577q167 45 299 45q40 0 77 -4q218 -25 218 -201q0 -121 -95 -236.5t-213 -161.5q-71 -27 -145 -27q-72 0 -134 25q-79 31 -123 80q-22 24 -22 49q0 35 17 68q11 603 22 644q6 22 35 32q22 11 54 9q37 -3 37 -29q0 -44 -14 -176q-13 -114 -13 -117zM640 395
q0 68 -62 110q-33 22 -93 22q-110 0 -313 -75q-4 -82 -4 -160q0 -68 3 -131q75 -45 147 -45q123 0 242 122q80 82 80 157z" />
    <glyph glyph-name="registered" unicode="&#xae;" horiz-adv-x="979" 
d="M938 510q0 -129 -74 -256.5t-190 -206.5q-123 -84 -254 -84q-157 0 -268.5 113.5t-111.5 269.5q0 127 74 258q73 128 189 207q123 84 253 84q159 0 270.5 -114t111.5 -271zM803 444q0 131 -73 229q-81 108 -207 108q-88 0 -176 -56q-84 -54 -129 -133q-51 -87 -51 -193
q0 -128 74 -228q81 -110 204 -110q77 0 164 52q194 115 194 331zM475 321q82 -42 151 -80q32 -17 32 -34q0 -14 -23 -14q-16 0 -32 6l-228 84q2 0 7 -42q6 -48 6 -51q0 -13 -15.5 -20.5t-30.5 -7.5q-28 0 -34 54q-3 22 -4 119l-1 83v83q-23 -33 -33 -33q-13 0 -23.5 15.5
t-10.5 29.5q0 18 38 60q95 104 200 104q86 0 147 -39q71 -45 71 -126q0 -83 -70 -132q-47 -33 -147 -59zM622 501q0 41 -47 73q-43 29 -93 29q-56 0 -113 -41q-3 -50 -3 -101q0 -43 2 -83l12 -7q162 8 209 59q33 36 33 71z" />
    <glyph glyph-name="copyright" unicode="&#xa9;" horiz-adv-x="979" 
d="M938 510q0 -130 -74.5 -256.5t-190.5 -206.5q-122 -84 -253 -84q-157 0 -268.5 113.5t-111.5 269.5q0 127 74 258q73 128 189 207q123 84 253 84q158 0 270 -114t112 -271zM803 443q0 131 -73 230q-81 109 -207 109q-80 0 -164 -50q-192 -114 -192 -332q0 -130 73 -229
q81 -110 205 -110q77 0 164 52q194 115 194 330zM402 193q-63 0 -103 30q-44 34 -44 95q0 81 97 222q33 48 80 79q53 36 105 36q51 0 93 -40q61 -58 61 -85q0 -17 -24 -30q-20 -12 -39 -12q-6 0 -45 28t-63 28q-44 0 -101.5 -55.5t-57.5 -98.5q0 -51 41 -78q35 -22 90 -22
q37 0 99 41t94 41q13 0 13 -10q0 -32 -40 -66.5t-87 -57.5q-92 -45 -169 -45z" />
    <glyph glyph-name="trademark" unicode="&#x2122;" horiz-adv-x="947" 
d="M907 486q0 -15 -16.5 -30.5t-31.5 -15.5q-8 0 -12 7q-13 22 -43 128q-12 42 -50 160l-52 -179q-44 -145 -72 -145q-38 0 -130 288q-19 -57 -59 -156q-14 -37 -54 -128q-7 -10 -15 -10q-16 0 -30 23q-14 20 -14 37q0 5 24 53q84 169 115 306q7 29 32 29q13 0 20 -17
q20 -80 54 -163q19 -43 54 -125q58 152 100 329q7 28 32 28q16 0 26 -36q4 -16 12 -49q15 -58 44 -157q18 -47 65 -168q1 -5 1 -9zM228 807q-6 -71 -6 -135q0 -87 15 -190l8 -57q0 -15 -18 -25q-14 -8 -31 -8q-16 0 -19 12q-11 41 -14 388l-91 -28q-32 0 -32 41q0 30 25 42
q79 37 169 37q39 0 62 -4q15 -3 35 -18.5t20 -29.5q0 -16 -52 -20q-24 -1 -71 -5z" />
    <glyph glyph-name="dieresis" unicode="&#xa8;" 
d="M142 375q4 -120 23 -246h9q93 0 212 23q55 11 209 48q21 5 33 5q39 0 39 -34q0 -22 -16 -48.5t-36 -36.5q-87 -45 -218 -72q-118 -24 -227 -24q-46 0 -60 2q-53 7 -62 99q-6 51 -6 130q-1 65 -1 130q-41 14 -41 65q0 44 37 59h1q-1 5 -1 33l-1 74q-1 41 -1 79l-1 51
q0 50 13 64.5t62 30.5l125 41q63 20 138 20q97 0 130 -7q26 -6 51 -35q27 -32 27 -55q0 -35 -62 -39q-143 -9 -190 -18q-71 -13 -184 -61q-5 -88 -5 -146q232 67 449 67q37 0 75 -13q53 -19 53 -55q0 -28 -68 -35q-317 -32 -506 -96zM246 1046q0 -9 -14 -73q-5 -25 -18 -73
q-8 -24 -56 -24q-44 0 -44 30q0 38 8 133q2 27 71 27q53 0 53 -20zM444 1086q0 -5 -4 -26l-10 -46q-5 -26 -17 -73q-9 -25 -57 -25q-44 0 -44 31q0 52 8 133q3 27 72 27q52 0 52 -21z" />
    <glyph glyph-name="AE" unicode="&#xc6;" horiz-adv-x="1297" 
d="M1255 785q0 -2 -62 -63q-78 -76 -120 -115q-30 -27 -51 -47l-26 -26l-105 -100q-50 -47 -92 -89q161 -123 358 -213q17 -6 51 -20q31 -16 31 -25q0 -19 -42 -38q-37 -17 -62 -17q-18 0 -224 70q-114 39 -200 107q0 -19 2 -52q2 -39 3 -53v-28q0 -46 -70 -56q-47 5 -58 39
q-6 16 -6 38v45q0 11 1.5 34t1.5 34q-69 -56 -171 -98q-64 -26 -188 -63q-57 -17 -64 -17q-25 0 -62 17q-41 17 -43 38q-1 9 31 26q17 8 50 19q185 83 360 213q-43 42 -93 89l-107 100q-13 17 -104 102q-42 37 -84 73q-70 64 -70 75q1 36 62 36q55 0 116 -61
q172 -142 373 -283l2 1l1 2q5 10 6 35q0 30 -4 87.5t-4 84.5q-1 6 -4 60q-2 42 -2 68q0 29 44 29h40q44 0 44 -29q0 -21 -2 -54q-2 -42 -2 -54q-1 -17 -2 -22q-7 -129 -7 -206l1 -2l3 -1q212 148 372 284q38 32 53 41q32 20 63 20q62 0 62 -35z" />
    <glyph glyph-name="guillemotleft" unicode="&#xab;" horiz-adv-x="740" 
d="M168 393q166 -125 348 -270l42 -32q25 -18 38 -37q12 -17 12 -34q0 -19 -12 -46t-25 -27q-9 0 -46 35l-56 56q-185 168 -338 258q-21 10 -40 20q-24 14 -37.5 27t-13.5 27q0 22 12 52l30 31q95 93 362 339q16 15 46 45q41 38 61 38q17 0 40.5 -21t23.5 -39q0 -14 -40 -45
q-19 -12 -52 -38q-195 -143 -355 -339zM371 405q125 -94 262 -203q16 -12 31 -24q18 -14 29 -28q8 -13 8 -25q0 -14 -8.5 -34.5t-18.5 -20.5q-7 0 -35 27q-14 14 -42 41q-138 126 -253 194q-16 8 -31 15q-17 10 -27.5 20t-10.5 20q0 17 10 39l22 23q71 71 271 255
q12 11 35 34q31 28 46 28q12 0 30 -15.5t18 -29.5q0 -10 -30 -34q-14 -8 -39 -28q-147 -107 -267 -254z" />
    <glyph glyph-name="guillemotright" unicode="&#xbb;" horiz-adv-x="740" 
d="M224 732q-33 26 -52 38q-40 31 -40 45q0 18 23.5 39t40.5 21q20 0 61 -38q30 -30 46 -45q267 -246 362 -339l30 -31q12 -30 12 -52q0 -14 -13.5 -27t-37.5 -27q-19 -10 -40 -20q-153 -90 -338 -258l-56 -56q-37 -35 -46 -35q-13 0 -25 27t-12 46q0 17 12 34q13 19 38 37
l42 32q182 145 348 270q-160 196 -355 339zM109 659q-25 20 -39 28q-30 24 -30 34q0 14 18 29.5t30 15.5q15 0 46 -28q23 -23 35 -34q200 -184 271 -255l22 -23q10 -22 10 -39q0 -10 -10.5 -20t-27.5 -20q-15 -7 -31 -15q-115 -68 -253 -194q-28 -27 -42 -41
q-28 -27 -35 -27q-10 0 -18.5 20.5t-8.5 34.5q0 12 8 25q11 14 29 28q15 12 31 24q137 109 262 203q-120 147 -267 254z" />
    <glyph glyph-name="ellipsis" unicode="&#x2026;" horiz-adv-x="713" 
d="M82 22q-42 0 -42 29q0 62 7 128q3 24 72 24q53 0 53 -16q0 -12 -13 -71q-11 -47 -18.5 -70.5t-58.5 -23.5zM332 22q-42 0 -42 29q0 62 7 128q3 24 72 24q53 0 53 -16q0 -12 -13 -71q-11 -47 -18.5 -70.5t-58.5 -23.5zM582 22q-42 0 -42 29q0 62 7 128q3 24 72 24
q53 0 53 -16q0 -12 -13 -71q-11 -47 -18.5 -70.5t-58.5 -23.5z" />
    <glyph glyph-name="Agrave" unicode="&#xc0;" horiz-adv-x="867" 
d="M785 116q0 -27 -27.5 -49t-56.5 -22q-26 0 -49 49q-11 29 -36 85q-190 -46 -474 -97q-35 -83 -62 -83q-28 0 -54 33t-26 63q0 13 26 54q13 20 38 62q86 147 220 500q19 50 40 111q18 52 78 52q33 0 55 -49q12 -37 38 -110q108 -285 227 -484q20 -30 56 -93q7 -14 7 -22z
M561 306q-70 168 -167 388q-45 -103 -98 -238l-94 -239q191 29 359 89z" />
    <glyph glyph-name="Atilde" unicode="&#xc3;" horiz-adv-x="750" 
d="M190 869q57 10 113 12q134 5 253 -17q59 -12 98 -26q21 -8 37.5 -33t16.5 -47q0 -35 -42 -43q-19 -1 -35 0l-242 20q-51 1 -99 -1q-34 -2 -99 -10l-10 -2q-27 -177 -27 -374q0 -90 8 -200l7 -86q1 -18 1 -25q0 -21 -22 -31q-17 -7 -40 -4q-62 6 -64 57q-1 6 -1 21v41
q0 152 7 362q-1 90 7 268q8 89 68 107q25 4 65 11z" />
    <glyph glyph-name="quotedblleft" unicode="&#x201c;" horiz-adv-x="502" 
d="M461 658q0 -20 -17.5 -32t-38.5 -12q-25 0 -42 28q-3 4 -42 79.5t-62 125.5q-33 70 -33 72q0 22 26 36q22 12 46 12q40 0 52 -31l39 -97q29 -73 56 -133q16 -36 16 -48zM273 596q0 -20 -18 -31.5t-39 -11.5q-23 0 -41 27q-24 47 -72 143l-31 62q-32 65 -32 71q0 22 25 36
q22 12 46 12q40 0 52 -31q57 -146 95 -230q15 -33 15 -47z" />
    <glyph glyph-name="quotedblright" unicode="&#x201d;" horiz-adv-x="502" 
d="M284 553q-21 0 -38 11q-20 12 -20 32q0 24 26 80l39 82q13 39 45 115q17 31 53 31q25 0 46 -12q26 -14 26 -37q0 -3 -9 -23l-23 -48q-29 -61 -62 -124q-13 -28 -42 -80q-18 -27 -41 -27zM96 614q-21 0 -38.5 12t-17.5 32q0 25 25 81q19 40 38 81q14 43 46 116
q19 31 54 31q23 0 46.5 -13.5t23.5 -35.5q0 -5 -32 -71l-30 -62q-33 -69 -57 -115q-8 -15 -16 -28q-16 -28 -42 -28z" />
    <glyph glyph-name="quoteleft" unicode="&#x2018;" horiz-adv-x="315" 
d="M273 654q0 -21 -17.5 -32.5t-39.5 -11.5q-23 0 -41 27q-14 27 -41 80q-16 29 -32 62l-31 62q-31 63 -31 72q0 22 25 37q22 12 46 12q40 0 52 -30l38 -97q25 -62 57 -134q15 -33 15 -47z" />
    <glyph glyph-name="quoteright" unicode="&#x2019;" horiz-adv-x="315" 
d="M97 610q-21 0 -39 12t-18 32q0 25 25 81q19 40 38 81q15 42 47 114q19 32 52 32q24 0 47.5 -13.5t23.5 -36.5q0 -11 -61 -132q-25 -49 -47 -91l-27 -52q-16 -27 -41 -27z" />
    <glyph glyph-name="Acircumflex" unicode="&#xc2;" horiz-adv-x="804" 
d="M254 2q-82 0 -125 5q-39 5 -50 31q-19 43 -21 227q-2 92 -5 235q-3 -1 -8 -1q-23 0 -35 28q-10 22 -10 48q0 30 17 56q4 6 37 46q76 92 149 135q85 50 192 50q124 0 201 -62q84 -67 84 -188q0 -122 -160 -217q74 -20 132 -68q71 -58 71 -124q0 -103 -180 -164
q-110 -37 -289 -37zM582 601q0 62 -73 100q-63 33 -129 33q-111 0 -222 -114q-2 -60 -2 -121v-49q0 -25 1 -50q285 9 368 92q57 57 57 109zM355 309q-106 0 -190 -62q6 -61 14 -119q112 -8 193 -8t141 11q110 20 110 70q0 51 -112 83q-87 25 -156 25z" />
    <glyph glyph-name="Ecircumflex" unicode="&#xca;" horiz-adv-x="751" 
d="M670 785l-63 -63q-48 -48 -120 -115q-29 -27 -50 -47l-26 -26l-106 -100q-50 -47 -92 -89q163 -124 358 -213q17 -6 51 -20q31 -16 31 -25q0 -20 -42 -38q-37 -17 -62 -17q-17 0 -223 70q-115 39 -201 107q0 -6 3 -24l5 -39q8 -56 8 -69q0 -27 -29 -42q-24 -13 -53 -13
q-37 0 -42 47q-3 20 -2 43q1 33 1 44l-12 319q-4 143 -4 254v29q0 10 1 19q3 31 34 50q27 16 61 16q44 0 44 -29q0 -9 -2 -29l-4 -42q-3 -20 -7 -59q-11 -150 -11 -254l1 -2l2 -1q184 171 372 332q71 61 116 61q63 0 63 -35z" />
    <glyph glyph-name="Aacute" unicode="&#xc1;" horiz-adv-x="817" 
d="M274 2q-82 0 -125 6q-39 5 -50 35q-19 50 -21 270q-2 110 -5 281q-3 -1 -8 -1q-23 0 -35 31q-10 24 -10 53t17 62q15 29 92 58q215 77 391 73q72 -2 112 -27q21 -13 21 -47q0 -26 -13 -43t-36 -15q-87 11 -211 -21q-118 -30 -220 -90l-1 -86l5 -94q68 21 167 21
q34 0 72 -2l124 -28q64 -14 132 -75q71 -65 71 -138q0 -114 -180 -182q-110 -41 -289 -41zM395 354q-106 10 -190 -53q6 -103 14 -182q112 -9 193 -9q81 10 141 23q100 24 100 83q0 60 -102 98q-87 30 -156 40z" />
    <glyph glyph-name="Edieresis" unicode="&#xcb;" horiz-adv-x="711" 
d="M423 867q69 -5 73 -39q4 -38 11 -114q27 -267 115 -502q15 -38 44 -114q6 -17 4 -23q-2 -29 -60 -25q-59 3 -73 49q-54 180 -81 291l-2 7q-25 91 -71 275q-57 -111 -106 -234q-34 -87 -49 -127q-26 -72 -41 -133l-13 -52q-5 -23 -18 -64q-12 -21 -31 -24q-26 -4 -53 13
q-30 19 -28 44q2 29 137 368q37 96 75 192q50 125 84 186q17 31 83 26z" />
    <glyph glyph-name="Egrave" unicode="&#xc8;" horiz-adv-x="741" 
d="M659 77q0 -37 -55 -50q-15 -4 -29 -4q-31 0 -39 26q-4 13 -3 52q0 30 -1 77q-74 -43 -151 -70q-241 -85 -305 -85q-40 0 -50 18q-7 11 -7 53v51q0 80 -6 182q-8 134 -8 144q-5 125 -5 175q0 92 4 131q3 32 33 50q27 16 61 16q45 0 45 -29q0 -20 -5 -60q-3 -16 -7 -47
q-13 -101 -13 -261q0 -245 16 -268q4 -7 18 -7q34 0 179 57q130 51 195 85l-8 196q-3 83 -3 135q0 94 4 133q3 31 33 49q26 17 59 17q47 0 47 -29t-11 -116q-2 -14 -3 -23q-11 -101 -11 -241v-30q0 -30 4 -104t10 -117q3 -27 10 -82q2 -17 2 -24z" />
    <glyph glyph-name="Iacute" unicode="&#xcd;" horiz-adv-x="775" 
d="M639 96q0 -24 -26.5 -39t-56.5 -15q-44 0 -44 69q0 14 -1 43.5t-1 44.5v46q0 10 -8 202q-211 -29 -374 -90q5 -124 17 -198l2 -12q0 -3 4 -22t5 -22q7 -51 7 -56q0 -20 -32 -35q-27 -14 -52 -14q-35 0 -41 46q-1 29 -3 86q-8 97 -23 291q-12 169 -12 291v39q0 30 33 49
q30 18 62 18q43 0 43 -34q0 -6 -1 -19l-2 -28q-10 -140 -10 -247q185 60 374 71l-2 216q5 44 24 62q30 23 78 23q39 0 39 -28q0 -15 -10 -118l-8 -84q-4 -42 -5 -70q25 -6 49 -24q29 -22 29 -44q0 -33 -80 -33v-29q0 -160 13 -241q3 -15 7 -43l4 -31q2 -15 2 -21z" />
    <glyph glyph-name="Icircumflex" unicode="&#xce;" horiz-adv-x="1008" 
d="M927 478q0 -200 -156 -344q-152 -141 -353 -141q-127 0 -230 64q-106 66 -155 180q-33 74 -33 161q0 197 156 343q153 143 352 143q174 0 296.5 -117.5t122.5 -288.5zM776 431q0 139 -88 240q-92 105 -229 105q-135 0 -229 -106q-89 -101 -89 -239q0 -139 89 -239
q93 -104 230 -104q135 0 227 105q89 101 89 238z" />
    <glyph glyph-name="Idieresis" unicode="&#xcf;" horiz-adv-x="720" 
d="M679 96q0 -24 -26.5 -39t-56.5 -15q-44 0 -44 69q0 14 -1 43.5t-1 44.5v46q0 53 -1 168q-2 115 0 293q-211 -30 -374 -91q-2 -427 -3 -230q1 -152 13 -226l2 -12q0 -3 4 -22t5 -22q7 -51 7 -56q0 -20 -32 -35q-27 -14 -52 -14q-35 0 -41 46q-1 29 -3 86q-8 97 -23 291
q-12 169 -12 291v39q0 30 33 49q30 18 62 18q43 0 43 -34q0 -17 -6 -35q186 58 389 90q24 5 72 11q45 1 45 -29q0 -20 -10 -115l-8 -77q-6 -63 -7 -136q-1 -22 0 -61l3 -123q2 -71 10 -118q0 -4 2.5 -16t4.5 -27l4 -31q2 -15 2 -21z" />
    <glyph glyph-name="Igrave" unicode="&#xcc;" horiz-adv-x="1040" 
d="M958 108q0 -27 -26.5 -55.5t-52.5 -28.5q-24 0 -61 121q-20 72 -39 144q-37 135 -91 311q-38 -119 -93 -322q-67 -245 -84 -275q-10 -18 -25 -18q-25 0 -47 38q-21 33 -21 62q0 5 2 17l-145 465q-87 -288 -152 -481q-10 -52 -34 -88q-9 -13 -20 -13q-23 0 -47 38
q-22 35 -22 62q0 12 16 48q9 19 26 58q34 84 73 202q69 211 107 390q11 54 55 54q23 0 37 -46q6 -25 18 -74q50 -196 150 -457q99 276 162 585q11 53 54 53q20 0 45 -72q19 -59 19 -91q81 -326 150 -506q9 -17 26 -50q20 -44 20 -71z" />
    <glyph glyph-name="ograve" unicode="&#xf2;" horiz-adv-x="716" 
d="M356 716q-8 -114 -8 -216q0 -199 25 -355q5 -24 12 -70q2 -16 2 -22q0 -19 -31 -35q-27 -14 -54 -14q-31 0 -36 20q-4 17 -5 47v47q-12 214 -16 575q13 0 -4 -6q-10 -3 -42.5 -11.5t-39.5 -10.5q-85 -30 -96 -30q-30 0 -48 29q-15 25 -15 57q0 55 44 74q168 71 364 71
q91 0 123 -7q39 -9 68 -30q36 -26 36 -61t-86 -42q-65 -3 -193 -10z" />
    <glyph glyph-name="otilde" unicode="&#xf5;" horiz-adv-x="721" 
d="M382 425q89 -113 146 -171q26 -21 74 -74q11 -17 11 -32q0 -27 -18 -57q-22 -35 -44 -35q-19 0 -70 67q-35 45 -105 137l-52 68q-75 -125 -113 -210q-9 -21 -43 -93q-14 -24 -47 -24q-25 0 -49 13q-28 14 -28 37q0 16 206 374q-63 79 -184 240l-42 58q-24 37 -24 64
q0 26 15 53q18 31 43 31q16 0 40 -37q16 -27 48 -80q79 -124 160 -231l44 75q19 34 47 80q58 98 99 158q20 29 59 29q28 0 54 -15q31 -18 31 -44q0 -12 -21 -41q-16 -20 -31 -39q-104 -138 -206 -301z" />
    <glyph glyph-name="divide" unicode="&#xf7;" horiz-adv-x="716" 
d="M665 323q3 -39 8 -118q2 -35 2 -123v-6q0 -21 -33 -36q-28 -13 -52 -13q-28 0 -36 22q-3 10 -3 47q0 32 2 70l3 77q1 38 0 66q-111 -6 -260 -43q-3 -1 -27 -8l-169 -51q-25 0 -41 21t-16 47q0 12 5 25q-8 250 -8 359v46q0 16 1 21q1 32 25 53.5t56 21.5q39 0 39 -31
q0 -36 -6 -107q-9 -106 -9 -154v-47q0 -68 3 -107q177 54 402 70q1 101 2 176v121q0 55 13 78q18 33 68 33q38 0 38 -28q0 -19 -7 -94q-2 -11 -2 -20q-6 -141 -6 -165q0 -40 3 -102q4 -85 5 -101z" />
    <glyph glyph-name="oslash" unicode="&#xf8;" horiz-adv-x="906" 
d="M520 165q103 0 211 18l2 10q16 79 16 200q0 51 -3 112q3 30 3 85q0 52 -5 135q-4 72 43 72q69 0 75 -52q5 -47 4 -104q-4 -137 -4 -131q0 -35 2 -103q2 -60 2 -88q0 -168 -8 -191q-19 -54 -100 -64q-46 -7 -119 -8q-108 -2 -119 -3q-22 -41 -73 -41q-45 0 -52 37l1 1
q-2 -2 -16 -2q-25 0 -69 2q-51 3 -69 3q-41 1 -66 0q-30 -1 -53 -1q-37 0 -41 1q-43 10 -40 74q1 25 1 71q-1 40 -1 93t2 122q2 48 6 156t16 137q10 25 45 51t60 26q29 0 29 -39q0 -10 -2 -22q-16 -104 -26 -276q-4 -73 -3 -147q0 -70 4 -130q78 -8 158 -8q28 0 56 1
q-4 164 -2 304q1 140 9 256q10 52 42 93q22 12 39 12q41 0 41 -85v-278q0 -145 4 -299z" />
    <glyph glyph-name="uacute" unicode="&#xfa;" horiz-adv-x="1149" 
d="M515 577q167 45 299 45q40 0 77 -4q218 -25 218 -201q0 -121 -96 -238q-92 -112 -212 -160q-70 -28 -144 -28q-70 0 -135 26q-80 31 -123 80q-22 25 -22 49q0 36 18 68l6 374q2 134 4 162q-234 -37 -288 -37q-28 0 -51 28t-23 57t27 35q-8 0 108 6q10 1 55 4q34 3 55 3
q38 4 129 31l62 18q26 8 28 7q33 0 54 -59q7 -22 6 -41q-2 -20 -16 -23l-22 -4q-2 -50 -4 -99q-2 -61 -10 -99zM974 395q0 67 -63 110q-32 22 -92 22q-110 0 -313 -75q-5 -68 -5 -160q0 -67 4 -131q75 -45 147 -45q121 0 241 122q81 83 81 157z" />
    <glyph glyph-name="yacute" unicode="&#xfd;" horiz-adv-x="933" 
d="M45 76q4 54 30 66q10 4 87 0q56 -3 88 -3q48 -1 72 1q104 9 179 46q84 42 159 122q59 64 69 122l-64 -1q-22 -1 -35 -2.5t-105 -20.5l-100 -27q-90 -24 -91 -24q-22 -3 -30 18q-7 15 -4 39q6 61 48 74q54 17 190 37q97 13 195 26q-4 62 -92 124q-59 41 -150 41t-214 -41
q-56 -27 -83 -28q-28 -1 -35 40l2 33q2 32 21 52q14 14 48 31q161 80 291 80q81 0 149 -31q182 -84 174 -290l22 1q18 1 25 -21q5 -16 4 -37q-4 -59 -36 -72q-7 -1 -33 0q-10 -72 -65 -164q-73 -121 -206 -188q-126 -65 -272 -65q-77 0 -160 20q-24 5 -48 11q-31 11 -30 31z
" />
    <glyph glyph-name="thorn" unicode="&#xfe;" horiz-adv-x="1357" 
d="M1317 499q0 -190 -147 -326.5t-338 -136.5q-107 0 -199 49.5t-146 139.5q-35 58 -48 140q-50 -5 -80 -3t-62 3h-66q-34 -1 -69 -15q5 -122 17 -189l2 -11q0 4 8 -42q6 -41 6 -53q0 -20 -29 -33.5t-51 -13.5q-34 0 -39 44q-1 27 -3 82l-21 276q-12 161 -12 278v37
q0 27 31 48q27 17 60 17q41 0 41 -33q0 -5 -1 -18l-2 -27q-10 -136 -10 -235q78 -2 143 0q64 1 133 5q16 146 147 268q146 135 336 135q167 0 281 -110q118 -114 118 -276zM1165 440q0 134 -83 229q-87 100 -219 100q-130 0 -218 -101q-85 -96 -85 -228t85 -228
q88 -99 219 -99q129 0 217 100q84 96 84 227z" />
    <glyph glyph-name="ydieresis" unicode="&#xff;" horiz-adv-x="838" 
d="M166 37q0 21 60 51q27 13 106 70q48 34 79 60l81 65q-43 -3 -82 -3q-121 0 -207 30q-160 56 -160 202q0 122 102 233q95 104 221 142q60 18 117 18q151 0 286 -124q28 -26 28 -50q0 -25 -17 -54t-39 -40q0 -33 -8 -279l-4 -134q-2 -72 -10 -112q-7 -34 -66 -39t-59 31
q0 19 9 68q10 53 10 61q-125 -97 -278 -180q-101 -55 -144 -50q-25 3 -25 34zM169 528q0 -69 61 -117q42 -33 131 -33q103 0 269 45q5 103 5 160q0 67 -4 131q-86 60 -169 60q-112 0 -216 -99q-77 -73 -77 -147z" />
    <glyph glyph-name="cedilla" unicode="&#xb8;" 
d="M142 375q4 -120 23 -246h9q93 0 212 23q55 11 209 48q21 5 33 5q39 0 39 -34q0 -22 -16 -48.5t-36 -36.5q-87 -45 -218 -72q-118 -24 -227 -24q-46 0 -60 2q-53 7 -62 99q-6 51 -6 130q-1 65 -1 130q-41 14 -41 65q0 44 37 59h1q-1 5 -1 33l-1 74q-1 41 -1 79l-1 51
q0 50 13 64.5t62 30.5l125 41q63 20 138 20q97 0 130 -7q26 -6 51 -35q27 -32 27 -55q0 -35 -62 -39q-143 -9 -190 -18q-71 -13 -184 -61q-5 -88 -5 -146q232 67 449 67q37 0 75 -13q53 -19 53 -55q0 -28 -68 -35q-317 -32 -506 -96zM246 1046q0 -9 -14 -73q-5 -25 -18 -73
q-8 -24 -56 -24q-44 0 -44 30q0 38 8 133q2 27 71 27q53 0 53 -20zM444 1086q0 -5 -4 -26l-10 -46q-5 -26 -17 -73q-9 -25 -57 -25q-44 0 -44 31q0 52 8 133q3 27 72 27q52 0 52 -21z" />
    <glyph glyph-name="ch247" unicode="&#x401;" 
d="M142 375q4 -120 23 -246h9q93 0 212 23q55 11 209 48q21 5 33 5q39 0 39 -34q0 -22 -16 -48.5t-36 -36.5q-87 -45 -218 -72q-118 -24 -227 -24q-46 0 -60 2q-53 7 -62 99q-6 51 -6 130q-1 65 -1 130q-41 14 -41 65q0 44 37 59h1q-1 5 -1 33l-1 74q-1 41 -1 79l-1 51
q0 50 13 64.5t62 30.5l125 41q63 20 138 20q97 0 130 -7q26 -6 51 -35q27 -32 27 -55q0 -35 -62 -39q-143 -9 -190 -18q-71 -13 -184 -61q-5 -88 -5 -146q232 67 449 67q37 0 75 -13q53 -19 53 -55q0 -28 -68 -35q-317 -32 -506 -96zM206 1016q0 -9 -14 -63q-5 -25 -18 -73
q-8 -24 -56 -24q-44 0 -44 30q0 38 8 123q2 27 71 27q53 0 53 -20zM484 1086q0 -5 -4 -26l-10 -36q-5 -26 -17 -73q-9 -25 -57 -25q-44 0 -44 31q0 52 8 123q3 27 72 27q52 0 52 -21z" />
    <glyph glyph-name="ch248" unicode="&#x410;" horiz-adv-x="823" 
d="M795 116q0 -27 -27.5 -49t-56.5 -22q-26 0 -49 49q-11 29 -56 105q-170 -26 -434 -67q-55 -133 -82 -133q-28 0 -54 33t-26 63q0 13 26 54q13 20 38 62q86 147 220 500q19 50 40 111q18 52 78 52q33 0 55 -49q12 -37 38 -110q108 -285 227 -484q20 -30 56 -93
q7 -14 7 -22zM551 326q-60 148 -147 368q-45 -103 -98 -238l-74 -189q171 19 319 59z" />
    <glyph glyph-name="ch249" unicode="&#x411;" horiz-adv-x="817" 
d="M274 2q-82 0 -125 6q-39 5 -50 35q-19 50 -21 270q-2 110 -5 301q-3 -1 -8 -1q-23 0 -35 31q-10 14 -10 33q0 29 17 62q15 29 92 58q215 77 401 73q82 -2 122 -27q21 -13 21 -47q0 -26 -13 -33t-36 -5q-97 11 -231 -21q-118 -20 -220 -90l-1 -106l5 -74q68 21 167 21
q34 0 72 -2q62 -4 125 -23t131 -80q71 -65 71 -138q0 -134 -180 -202q-110 -41 -289 -41zM395 374q-106 10 -190 -53q6 -123 14 -202q112 -9 193 -9q81 10 131 23q100 24 100 103q-10 50 -46 79t-84.5 44t-117.5 15z" />
    <glyph glyph-name="ch250" unicode="&#x412;" horiz-adv-x="804" 
d="M254 2q-82 0 -125 5q-39 5 -50 31q-19 43 -21 227q-2 92 -5 235q-3 -1 -8 -1q-23 0 -35 28q-10 22 -10 48q0 30 17 56q4 6 37 46q76 92 149 135q85 50 192 50q124 0 201 -62q84 -67 84 -188q0 -122 -160 -217q74 -20 132 -68q71 -58 71 -124q0 -103 -180 -164
q-110 -37 -289 -37zM582 601q0 62 -73 100q-63 33 -129 33q-111 0 -222 -114q-2 -60 -2 -121v-49q0 -25 1 -50q285 9 368 92q57 57 57 109zM355 309q-106 0 -190 -62q6 -61 14 -119q112 -8 193 -8t141 11q110 20 110 70q0 51 -112 83q-87 25 -156 25z" />
    <glyph glyph-name="ch251" unicode="&#x413;" horiz-adv-x="750" 
d="M190 869q57 10 113 12q134 5 253 -17q59 -12 98 -26q21 -8 37.5 -33t16.5 -47q0 -35 -42 -43q-19 -1 -35 0l-242 20q-51 1 -99 -1q-34 -2 -99 -10l-10 -2q-27 -177 -27 -374q0 -90 8 -200l7 -86q1 -18 1 -25q0 -21 -22 -31q-17 -7 -40 -4q-62 6 -64 57q-1 6 -1 21v41
q0 152 7 362q-1 90 7 268q8 89 68 107q25 4 65 11z" />
    <glyph glyph-name="ch252" unicode="&#x414;" horiz-adv-x="1000" 
d="M45 62q-26 67 -26 100q0 57 89 76q65 14 100 69q80 109 214 426l48 109q28 52 64 54q67 5 85 -51q76 -281 125.5 -406t61.5 -148q59 4 62 4l45 3q67 -5 67 -41q0 -34 -3 -51q-32 -91 -84 -207q-14 -11 -50 -21q-14 0 -31 -5q-40 2 -45 20q-6 23 33 87q25 41 31 61
q2 10 -3 14.5t-18 2.5q-76 -1 -180 -8t-214 -17q-114 -2 -212 -16q-25 -3 -28 -14q-2 -8 4 -30q1 -4 17 -41q11 -26 11 -39q0 -36 -54 -53q-31 -10 -48 -6q-32 8 -45 66q-7 27 -16 62zM320 266q96 3 232 9q47 5 110 13q-55 204 -131 415q-69 -143 -211 -437z" />
    <glyph glyph-name="ch253" unicode="&#x415;" 
d="M142 380q4 -120 23 -246h9q93 0 212 23q55 11 209 48q21 5 33 5q39 0 39 -34q0 -22 -16 -48.5t-36 -36.5q-87 -45 -218 -72q-118 -24 -227 -24q-46 0 -60 2q-53 7 -62 99q-6 51 -6 130q-1 65 -1 130q-41 14 -41 65q0 44 37 59h1q-1 5 -1 33l-1 74q-1 41 -1 79l-1 51
q0 50 13 64.5t62 30.5l125 41q63 20 138 20q97 0 130 -7q26 -6 51 -35q27 -32 27 -55q0 -35 -62 -39q-143 -9 -190 -18q-71 -13 -184 -61q-5 -88 -5 -146q232 67 449 67q37 0 75 -13q53 -19 53 -55q0 -28 -68 -35q-317 -32 -506 -96z" />
    <glyph glyph-name="ch254" unicode="&#x416;" horiz-adv-x="1297" 
d="M1255 785q0 -2 -62 -63q-78 -76 -120 -115q-30 -27 -51 -47l-26 -26l-105 -100q-50 -47 -92 -89q161 -123 358 -213q17 -6 51 -20q31 -16 31 -25q0 -19 -42 -38q-37 -17 -62 -17q-18 0 -224 70q-114 39 -200 107q0 -19 2 -52q2 -39 3 -53v-28q0 -46 -70 -56q-47 5 -58 39
q-6 16 -6 38v45q0 11 1.5 34t1.5 34q-69 -56 -171 -98q-64 -26 -188 -63q-57 -17 -64 -17q-25 0 -62 17q-41 17 -43 38q-1 9 31 26q17 8 50 19q185 83 360 213q-43 42 -93 89l-107 100q-13 17 -104 102q-42 37 -84 73q-70 64 -70 75q1 36 62 36q55 0 116 -61
q172 -142 373 -283l2 1l1 2q5 10 6 35q0 30 -4 87.5t-4 84.5q-1 6 -4 60q-2 42 -2 68q0 29 44 29h40q44 0 44 -29q0 -21 -2 -54q-2 -42 -2 -54q-1 -17 -2 -22q-7 -129 -7 -206l1 -2l3 -1q212 148 372 284q38 32 53 41q32 20 63 20q62 0 62 -35z" />
    <glyph glyph-name="ch255" unicode="&#x417;" horiz-adv-x="744" 
d="M662 303q0 -136 -162 -235q-147 -90 -293 -90q-39 0 -92 10q-60 11 -87.5 27t-27.5 54q0 56 32 56q10 0 36 -11q79 -34 169 -34q68 0 117 21q162 70 162 185q0 54 -37.5 85t-92.5 31q-21 0 -73.5 -8.5t-72.5 -8.5q-41 0 -41 39q0 38 32 68q27 25 67 37q49 14 64 26
q30 24 30 76q0 50 -38 84t-88 34q-43 0 -86 -31q-4 -3 -18 -16l-32 -30q-44 -41 -59 -41q-25 0 -25 45q0 36 50 96q46 56 93 84q62 37 121 37q60 0 107 -41q104 -90 104 -177q0 -92 -85 -165q101 -29 153 -68q73 -54 73 -139z" />
    <glyph glyph-name="ch256" unicode="&#x418;" horiz-adv-x="741" 
d="M659 77q0 -37 -55 -50q-15 -4 -29 -4q-31 0 -39 26q-4 13 -3 52q0 30 -1 227q-74 -63 -151 -120q-241 -185 -305 -185q-40 0 -50 18q-7 11 -7 53v51q0 80 -6 182q-8 134 -8 144q-5 125 -5 175q0 92 4 131q3 32 33 50q27 16 61 16q45 0 45 -29q0 -20 -5 -60q-3 -16 -7 -47
q-13 -101 -13 -261q0 -245 16 -248q4 -7 18 -7q34 20 179 127q130 101 185 155l2 36q-3 83 -3 135q0 94 4 133q3 31 33 49q26 17 59 17q47 0 47 -29t-11 -116q-2 -14 -3 -23q-11 -101 -11 -241v-30q0 -30 4 -104t10 -117q3 -27 10 -82q2 -17 2 -24z" />
    <glyph glyph-name="ch257" unicode="&#x419;" horiz-adv-x="741" 
d="M321 735q-21 0 -39 12t-18 32q0 25 26 81q19 40 38 81q13 39 47 114q17 31 51 31q25 0 46 -12q26 -14 26 -37q0 -7 -62 -132q-23 -50 -74 -143q-17 -27 -41 -27zM659 77q0 -37 -55 -50q-15 -4 -29 -4q-31 0 -39 26q-4 13 -3 52q0 30 -1 227q-74 -63 -151 -120
q-241 -185 -305 -185q-40 0 -50 18q-7 11 -7 53v51q0 80 -6 182q-8 134 -8 144q-5 125 -5 175q0 92 4 131q3 32 33 50q27 16 61 16q45 0 45 -29q0 -20 -5 -60q-3 -16 -7 -47q-13 -101 -13 -261q0 -245 16 -248q4 -7 18 -7q34 20 179 127q130 101 185 155l2 36q-3 83 -3 135
q0 94 4 133q3 31 33 49q26 17 59 17q47 0 47 -29t-11 -116q-2 -14 -3 -23q-11 -101 -11 -241v-30q0 -30 4 -104t10 -117q3 -27 10 -82q2 -17 2 -24z" />
    <glyph glyph-name="ch258" unicode="&#x41a;" horiz-adv-x="751" 
d="M670 785l-63 -63q-48 -48 -120 -115q-29 -27 -50 -47l-26 -26l-106 -100q-50 -47 -92 -89q163 -124 358 -213q17 -6 51 -20q31 -16 31 -25q0 -20 -42 -38q-37 -17 -62 -17q-17 0 -223 70q-115 39 -201 107q0 -6 3 -24l5 -39q8 -56 8 -69q0 -27 -29 -42q-24 -13 -53 -13
q-37 0 -42 47q-3 20 -2 43q1 33 1 44l-12 319q-4 143 -4 254v29q0 10 1 19q3 31 34 50q27 16 61 16q44 0 44 -29q0 -9 -2 -29l-4 -42q-3 -20 -7 -59q-11 -150 -11 -254l1 -2l2 -1q184 171 372 332q71 61 116 61q63 0 63 -35z" />
    <glyph glyph-name="ch259" unicode="&#x41b;" horiz-adv-x="711" 
d="M423 867q69 -5 73 -41q4 -40 11 -120q27 -280 115 -527q15 -40 44 -120q6 -18 4 -24q-2 -31 -60 -26q-59 3 -73 51q-54 189 -81 306l-2 7q-25 96 -71 289q-57 -117 -106 -246q-34 -91 -49 -133q-26 -76 -41 -140l-13 -54q-5 -25 -18 -68q-12 -22 -31 -25q-26 -4 -53 14
q-30 20 -28 46q2 30 137 387q37 100 75 201q50 132 84 196q17 32 83 27z" />
    <glyph glyph-name="ch260" unicode="&#x41c;" horiz-adv-x="1040" 
d="M958 108q0 -27 -26.5 -55.5t-52.5 -28.5q-24 0 -61 121q-20 72 -39 144q-37 135 -91 311q-38 -119 -93 -322q-67 -245 -84 -275q-10 -18 -25 -18q-25 0 -47 38q-21 33 -21 62q0 5 2 17l-145 465q-87 -288 -152 -481q-10 -52 -34 -88q-9 -13 -20 -13q-23 0 -47 38
q-22 35 -22 62q0 12 16 48q9 19 26 58q34 84 73 202q69 211 107 390q11 54 55 54q23 0 37 -46q6 -25 18 -74q50 -196 150 -457q99 276 162 585q11 53 54 53q20 0 45 -72q19 -59 19 -91q81 -326 150 -506q9 -17 26 -50q20 -44 20 -71z" />
    <glyph glyph-name="ch261" unicode="&#x41d;" horiz-adv-x="775" 
d="M649 96q0 -24 -26.5 -39t-56.5 -15q-44 0 -44 69q0 14 -1 43.5t-1 44.5v46q0 10 -8 202q-211 -29 -374 -90q5 -124 17 -198l2 -12q0 -3 4 -22t5 -22q7 -51 7 -56q0 -20 -32 -35q-27 -14 -52 -14q-35 0 -41 46q-1 29 -3 86q-8 97 -23 291q-12 169 -12 291v39q0 30 33 49
q30 18 62 18q43 0 43 -34q0 -6 -1 -19l-2 -28q-10 -140 -10 -247q185 60 374 71l-2 216q5 44 24 62q30 23 78 23q39 0 39 -28q0 -15 -10 -118l-8 -84q-4 -42 -5 -70q25 -6 49 -24q29 -22 29 -44q0 -33 -80 -33v-29q0 -160 13 -241q3 -15 7 -43l4 -31q2 -15 2 -21z" />
    <glyph glyph-name="ch262" unicode="&#x41e;" horiz-adv-x="1008" 
d="M927 478q0 -200 -156 -344q-152 -141 -353 -141q-127 0 -230 64q-106 66 -155 180q-33 74 -33 161q0 197 156 343q153 143 352 143q174 0 296.5 -117.5t122.5 -288.5zM776 431q0 139 -88 240q-92 105 -229 105q-135 0 -229 -106q-89 -101 -89 -239q0 -139 89 -239
q93 -104 230 -104q135 0 227 105q89 101 89 238z" />
    <glyph glyph-name="ch263" unicode="&#x41f;" horiz-adv-x="720" 
d="M679 96q0 -24 -26.5 -39t-56.5 -15q-44 0 -44 69q0 14 -1 43.5t-1 44.5v46q0 53 -1 168q-2 115 0 293q-211 -30 -374 -91q-2 -427 -3 -230q1 -152 13 -226l2 -12q0 -3 4 -22t5 -22q7 -51 7 -56q0 -20 -32 -35q-27 -14 -52 -14q-35 0 -41 46q-1 29 -3 86q-8 97 -23 291
q-12 169 -12 291v39q0 30 33 49q30 18 62 18q43 0 43 -34q0 -17 -6 -35q186 58 389 90q24 5 72 11q45 1 45 -29q0 -20 -10 -115l-8 -77q-6 -63 -7 -136q-1 -22 0 -61l3 -123q2 -71 10 -118q0 -4 2.5 -16t4.5 -27l4 -31q2 -15 2 -21z" />
    <glyph glyph-name="ch264" unicode="&#x420;" horiz-adv-x="780" 
d="M132 223q0 -1 13 -82l8 -56q4 -26 4 -34q0 -24 -32 -39q-27 -14 -55 -14q-27 0 -33 17q-11 33 -20 508q-17 24 -17 58q0 36 49 93q75 86 153 130q105 59 202 59q117 0 203 -71q91 -75 91 -190q0 -168 -208 -275q-144 -74 -358 -104zM569 571q0 72 -76 120q-67 41 -144 41
q-111 0 -227 -116q-3 -63 -3 -126q0 -75 4 -151q300 9 387 104q59 65 59 128z" />
    <glyph glyph-name="ch265" unicode="&#x421;" horiz-adv-x="827" 
d="M745 249q0 -19 -30 -44q-24 -17 -47 -34q-227 -164 -414 -164q-122 0 -191 85q-63 79 -63 204q0 240 187 406q180 161 423 161q34 0 46 -6q18 -10 18 -40v-32q0 -20 11.5 -62.5t11.5 -50.5q0 -20 -35 -43t-56 -23q-19 0 -32 44q-5 23 -17 67q-233 -35 -352 -173
q-107 -124 -107 -232q0 -84 66 -131q58 -42 146 -42q72 0 171 41q11 5 127 66q101 54 114 54q23 0 23 -51z" />
    <glyph glyph-name="ch266" unicode="&#x422;" horiz-adv-x="716" 
d="M356 716q-8 -114 -8 -216q0 -199 25 -355q5 -24 12 -70q2 -16 2 -22q0 -19 -31 -35q-27 -14 -54 -14q-31 0 -36 20q-4 17 -5 47v47q-12 214 -16 575q13 0 -4 -6q-10 -3 -42.5 -11.5t-39.5 -10.5q-85 -30 -96 -30q-30 0 -48 29q-15 25 -15 57q0 55 44 74q168 71 364 71
q91 0 123 -7q39 -9 68 -30q36 -26 36 -61t-86 -42q-65 -3 -193 -10z" />
    <glyph glyph-name="ch267" unicode="&#x423;" horiz-adv-x="828" 
d="M228 3q-24 0 -49 13q-29 15 -29 37q0 6 152 281q-46 62 -140 185q-30 34 -87 104q-75 97 -75 141q0 23 21 54.5t38 31.5q16 0 39 -37l30 -52q107 -173 230 -329q105 184 170 288q23 40 73 118q21 29 60 29q52 0 77 -35q8 -12 8 -24q0 -14 -41 -68q-22 -28 -64 -85
q-189 -261 -311 -512q-12 -29 -37 -87q-23 -53 -65 -53z" />
    <glyph glyph-name="ch268" unicode="&#x424;" horiz-adv-x="1311" 
d="M714 280q-2 -62 0 -105q1 -44 1 -82l-1 -54q0 -25 -54 -32q-59 7 -59 33q0 25 2 68q1 49 2 69q0 41 -3 101q-111 -14 -199 -11q-86 2 -160 21q-203 52 -203 219q0 110 90 207q121 131 275 131q58 0 120 -20q68 -22 128 -69q63 50 134 73q62 20 120 20q153 0 275 -131
q90 -97 90 -207q0 -166 -203 -219q-74 -19 -159 -21q-89 -3 -196 9zM1146 512q0 70 -74 135q-66 57 -141 76q-25 6 -50 6q-83 0 -174 -65v-35q-1 -26 -1 -33v-52q0 -74 4 -150q138 -30 230 -30q103 0 148 38q58 49 58 110zM166 508q0 -61 58 -110q45 -38 148 -38
q92 0 230 30q4 76 4 150v61q0 -6 2 62q-93 62 -175 62q-96 0 -192 -82q-75 -64 -75 -135z" />
    <glyph glyph-name="ch269" unicode="&#x425;" horiz-adv-x="721" 
d="M382 425q89 -113 146 -171q26 -21 74 -74q11 -17 11 -32q0 -27 -18 -57q-22 -35 -44 -35q-19 0 -70 67q-35 45 -105 137l-52 68q-75 -125 -113 -210q-9 -21 -43 -93q-14 -24 -47 -24q-25 0 -49 13q-28 14 -28 37q0 16 206 374q-63 79 -184 240l-42 58q-24 37 -24 64
q0 26 15 53q18 31 43 31q16 0 40 -37q16 -27 48 -80q79 -124 160 -231l44 75q19 34 47 80q58 98 99 158q20 29 59 29q28 0 54 -15q31 -18 31 -44q0 -12 -21 -41q-16 -20 -31 -39q-104 -138 -206 -301z" />
    <glyph glyph-name="ch270" unicode="&#x426;" horiz-adv-x="898" 
d="M679 96q-123 -10 -164 -19q-42 -10 -85 -16q-246 -37 -312 -37q-57 0 -58 41q-1 14 -1 31v52q0 86 -9.5 257.5t-9.5 256.5q0 94 4 134q3 32 34 51q28 16 62 16q46 0 46 -29q0 -21 -5 -61l-5 -33q-2 -12 -2 -16q-13 -101 -13 -267q0 -252 16 -275q4 -7 19 -7q69 0 189 15
q75 9 171 24v1q21 2 42 6q-7 126 -16 507q-1 47 3 66q6 35 31.5 58.5t62.5 23.5q47 0 47 -37q0 -22 -6 -92l-5 -50q-1 -13 -3 -30q-7 -123 -7 -293q0 -31 1 -78q0 -31 2 -58v-1q16 3 19 3l45 3q67 -5 67 -41q0 -34 -3 -51q-32 -91 -84 -207q-14 -11 -50 -21q-14 0 -31 -5
q-40 2 -45 20q-6 23 33 87q25 41 31 61q2 10 -11 10z" />
    <glyph glyph-name="ch271" unicode="&#x427;" horiz-adv-x="716" 
d="M665 323q3 -39 8 -118q2 -35 2 -123v-6q0 -21 -33 -36q-28 -13 -52 -13q-28 0 -36 22q-3 10 -3 47q0 32 2 70l3 77q1 38 0 66q-111 -6 -260 -43q-3 -1 -27 -8l-169 -51q-25 0 -41 21t-16 47q0 12 5 25q-8 250 -8 359v46q0 16 1 21q1 32 25 53.5t56 21.5q39 0 39 -31
q0 -36 -6 -107q-9 -106 -9 -154v-47q0 -68 3 -107q177 54 402 70q1 101 2 176v121q0 55 13 78q18 33 68 33q38 0 38 -28q0 -19 -7 -94q-2 -11 -2 -20q-6 -141 -6 -165q0 -40 3 -102q4 -85 5 -101z" />
    <glyph glyph-name="ch272" unicode="&#x428;" horiz-adv-x="907" 
d="M791 74q-129 -15 -260 -20q-23 -32 -74 -32q-46 0 -54 28q-9 8 -75 0q-41 2 -78 -1q-44 -4 -71 -5q-31 -1 -54 -1q-49 0 -65 14q-20 16 -18 63q1 29 1 83q-1 41 -1 95t2 125q2 50 6 169t17 151q10 27 46.5 53t60.5 26q30 0 30 -40q0 -10 -2 -23q-32 -228 -30 -453
q0 -72 4 -143q80 2 155 2q36 2 66 6q-6 156 -5 307q0 169 10 261q4 44 43 96q23 12 39 12q43 0 43 -87v-285q0 -148 4 -296q108 0 210 17q-7 156 -16 517q-1 47 3 66q6 35 31.5 58.5t62.5 23.5q47 0 47 -37q0 -22 -6 -92l-5 -50q-1 -13 -3 -30q-7 -103 -7 -273q0 -31 1 -78
q0 -41 4 -88l9 -65q4 -30 -10 -50q-21 -16 -61 -24z" />
    <glyph glyph-name="ch273" unicode="&#x429;" horiz-adv-x="987" 
d="M531 54q-23 -32 -74 -32q-46 0 -54 28q-9 8 -75 0q-41 2 -78 -1q-44 -4 -71 -5q-31 -1 -54 -1q-49 0 -65 14q-20 16 -18 63q1 29 1 83q-1 41 -1 95t2 125q2 50 6 169t17 151q10 27 46.5 53t60.5 26q30 0 30 -40q0 -10 -2 -23q-32 -228 -30 -453q0 -72 4 -143q80 2 155 2
q36 2 66 6q-6 156 -5 307q0 169 10 261q4 44 43 96q23 12 39 12q43 0 43 -87v-285q0 -148 4 -296q108 0 210 17q-7 156 -16 517q-1 47 3 66q6 35 31.5 58.5t62.5 23.5q47 0 47 -37q0 -22 -6 -92l-5 -50q-1 -13 -3 -30q-7 -103 -7 -273q0 -31 1 -78q0 -41 4 -88l41 1
q67 -5 67 -41q0 -34 -3 -51q-32 -91 -84 -207q-14 -11 -50 -21q-14 0 -31 -5q-40 2 -45 20q-6 23 33 87q25 41 31 61q2 10 -3 14.5t-18 2.5q-129 -15 -260 -20z" />
    <glyph glyph-name="ch274" unicode="&#x42a;" horiz-adv-x="1149" 
d="M507 567q164 44 294 44q39 0 76 -4q214 -24 214 -197q0 -119 -94 -234q-91 -110 -209 -157q-69 -28 -141 -28q-69 0 -133 26q-79 30 -121 78q-22 25 -22 48q0 36 18 67l6 368q2 132 4 159q-230 -36 -283 -36q-28 0 -50.5 27.5t-22.5 55.5q0 29 27 35q-8 0 106 6
q10 1 54 4q33 3 54 3q37 3 127 30l61 18q25 8 27 7q33 0 53 -58q7 -22 6 -41q-2 -19 -16 -22l-21 -4l-4 -98q-2 -60 -10 -97zM974 395q0 67 -63 110q-32 22 -92 22q-110 0 -313 -75q-5 -68 -5 -160q0 -67 4 -131q75 -45 147 -45q121 0 241 122q81 83 81 157z" />
    <glyph glyph-name="ch275" unicode="&#x42b;" horiz-adv-x="1004" 
d="M180 552q143 43 265 43q36 0 60 -3q201 -25 201 -196q0 -118 -87.5 -225.5t-185.5 -152.5q-66 -26 -134 -26q-66 0 -123 24q-72 31 -113 78q-20 24 -20 48q0 34 16 66q10 587 20 627q5 22 32 31q20 11 50 9q44 -3 44 -28q0 -43 -13 -171q-12 -121 -12 -124zM604 364
q0 57 -60 117q-32 12 -81 12q-97 20 -284 -63q-4 -80 -4 -146t3 -127q63 -44 133 -44q120 0 225 109q68 69 68 142zM944 68q0 -32 -32 -52q-26 -16 -61 -16q-31 0 -36 63q-1 25 0 55v49q0 103 -6 283q-9 200 -10 281q-1 48 3 66q6 35 30 57q27 25 63 25q48 0 48 -39
q0 -9 -7 -90l-5 -50q-1 -14 -3 -31q-7 -84 -7 -242q0 -104 8 -221q1 -5 3 -23l5 -41q7 -67 7 -74z" />
    <glyph glyph-name="ch276" unicode="&#x42c;" horiz-adv-x="817" 
d="M176 554q160 43 287 43q38 0 74 -4q209 -24 209 -193q0 -116 -91 -227t-205 -155q-68 -26 -139 -26q-69 0 -129 24q-76 30 -118 77q-21 23 -21 47q0 34 16 65q11 579 21 619q6 21 34 30q21 11 52 9q35 -3 35 -28q0 -42 -13 -169q-12 -109 -12 -112zM630 395q0 58 -62 90
q-33 22 -83 22q-110 10 -313 -65q-4 -72 -4 -150q0 -68 3 -131q75 -45 147 -45q123 0 242 122q80 82 70 157z" />
    <glyph glyph-name="ch277" unicode="&#x42d;" horiz-adv-x="933" 
d="M45 76q4 54 30 66q10 4 87 0q56 -3 88 -3q48 -1 72 1q104 9 179 46q84 42 159 122q59 64 69 122l-64 -1q-22 -1 -35 -2.5t-105 -20.5l-100 -27q-90 -24 -91 -24q-22 -3 -30 18q-7 15 -4 39q6 61 48 74q54 17 190 37q97 13 195 26q-4 62 -92 124q-59 41 -150 41t-214 -41
q-56 -27 -83 -28q-28 -1 -35 40l2 33q2 32 21 52q14 14 48 31q161 80 291 80q81 0 149 -31q182 -84 174 -290l22 1q18 1 25 -21q5 -16 4 -37q-4 -59 -36 -72q-7 -1 -33 0q-10 -72 -65 -164q-73 -121 -206 -188q-126 -65 -272 -65q-77 0 -160 20q-24 5 -48 11q-31 11 -30 31z
" />
    <glyph glyph-name="ch278" unicode="&#x42e;" horiz-adv-x="1357" 
d="M1317 499q0 -190 -147 -326.5t-338 -136.5q-107 0 -199 49.5t-146 139.5q-35 58 -48 140q-50 -5 -80 -3t-62 3h-66q-34 -1 -69 -15q5 -122 17 -189l2 -11q0 4 8 -42q6 -41 6 -53q0 -20 -29 -33.5t-51 -13.5q-34 0 -39 44q-1 27 -3 82l-21 276q-12 161 -12 338v37
q0 27 31 48q27 17 60 17q41 0 41 -33q0 -5 -1 -18l-2 -27q-10 -196 -10 -295q78 -2 143 0q64 1 133 5q16 146 147 268q146 135 336 135q167 0 281 -110q118 -114 118 -276zM1165 440q0 134 -83 229q-87 100 -219 100q-130 0 -218 -101q-85 -96 -85 -228t85 -228
q88 -99 219 -99q129 0 217 100q84 96 84 227z" />
    <glyph glyph-name="ch279" unicode="&#x42f;" horiz-adv-x="821" 
d="M155 37q0 21 70 60q37 23 96 60q47 34 78 60l71 54q-33 -3 -72 -3q-120 0 -206 30q-159 56 -159 201q10 122 102 232q84 83 209 121q60 18 117 18q160 20 294 -103q28 -26 28 -50q0 -25 -16.5 -53.5t-38.5 -39.5q0 -33 -8 -278l-4 -123q-2 -141 -10 -181q-7 -34 -66 -39
t-59 31q0 19 9 67q10 123 10 131q-114 -107 -266 -179q-111 -55 -124 -60q-55 13 -55 44zM149 518q0 -69 71 -117q42 -23 141 -33q103 0 239 45q15 83 15 140q10 67 -14 141q-66 60 -149 60q-112 10 -226 -79q-67 -73 -77 -157z" />
    <glyph glyph-name="ch280" unicode="&#x430;" horiz-adv-x="823" 
d="M795 116q0 -27 -27.5 -49t-56.5 -22q-26 0 -49 49q-11 29 -56 105q-170 -26 -434 -67q-55 -133 -82 -133q-28 0 -54 33t-26 63q0 13 26 54q13 20 38 62q86 147 220 500q19 50 40 111q18 52 78 52q33 0 55 -49q12 -37 38 -110q108 -285 227 -484q20 -30 56 -93
q7 -14 7 -22zM551 326q-60 148 -147 368q-45 -103 -98 -238l-74 -189q171 19 319 59z" />
    <glyph glyph-name="ch281" unicode="&#x431;" horiz-adv-x="817" 
d="M274 2q-82 0 -125 6q-39 5 -50 35q-19 50 -21 270q-2 110 -5 301q-3 -1 -8 -1q-23 0 -35 31q-10 14 -10 33q0 29 17 62q15 29 92 58q215 77 401 73q82 -2 122 -27q21 -13 21 -47q0 -26 -13 -33t-36 -5q-97 11 -231 -21q-118 -20 -220 -90l-1 -106l5 -74q68 21 167 21
q34 0 72 -2q62 -4 125 -23t131 -80q71 -65 71 -138q0 -134 -180 -202q-110 -41 -289 -41zM395 374q-106 10 -190 -53q6 -123 14 -202q112 -9 193 -9q81 10 131 23q100 24 100 103q-10 50 -46 79t-84.5 44t-117.5 15z" />
    <glyph glyph-name="ch282" unicode="&#x432;" horiz-adv-x="804" 
d="M254 2q-82 0 -125 5q-39 5 -50 31q-19 43 -21 227q-2 92 -5 235q-3 -1 -8 -1q-23 0 -35 28q-10 22 -10 48q0 30 17 56q4 6 37 46q76 92 149 135q85 50 192 50q124 0 201 -62q84 -67 84 -188q0 -122 -160 -217q74 -20 132 -68q71 -58 71 -124q0 -103 -180 -164
q-110 -37 -289 -37zM582 601q0 62 -73 100q-63 33 -129 33q-111 0 -222 -114q-2 -60 -2 -121v-49q0 -25 1 -50q285 9 368 92q57 57 57 109zM355 309q-106 0 -190 -62q6 -61 14 -119q112 -8 193 -8t141 11q110 20 110 70q0 51 -112 83q-87 25 -156 25z" />
    <glyph glyph-name="ch283" unicode="&#x433;" horiz-adv-x="750" 
d="M190 869q57 10 113 12q134 5 253 -17q59 -12 98 -26q21 -8 37.5 -33t16.5 -47q0 -35 -42 -43q-19 -1 -35 0l-242 20q-51 1 -99 -1q-34 -2 -99 -10l-10 -2q-27 -177 -27 -374q0 -90 8 -200l7 -86q1 -18 1 -25q0 -21 -22 -31q-17 -7 -40 -4q-62 6 -64 57q-1 6 -1 21v41
q0 152 7 362q-1 90 7 268q8 89 68 107q25 4 65 11z" />
    <glyph glyph-name="ch284" unicode="&#x434;" horiz-adv-x="1000" 
d="M45 62q-26 67 -26 100q0 57 89 76q65 14 100 69q80 109 214 426l48 109q28 52 64 54q67 5 85 -51q76 -281 125.5 -406t61.5 -148q59 4 62 4l45 3q67 -5 67 -41q0 -34 -3 -51q-32 -91 -84 -207q-14 -11 -50 -21q-14 0 -31 -5q-40 2 -45 20q-6 23 33 87q25 41 31 61
q2 10 -3 14.5t-18 2.5q-76 -1 -180 -8t-214 -17q-114 -2 -212 -16q-25 -3 -28 -14q-2 -8 4 -30q1 -4 17 -41q11 -26 11 -39q0 -36 -54 -53q-31 -10 -48 -6q-32 8 -45 66q-7 27 -16 62zM320 266q96 3 232 9q47 5 110 13q-55 204 -131 415q-69 -143 -211 -437z" />
    <glyph glyph-name="ch285" unicode="&#x435;" 
d="M142 380q4 -120 23 -246h9q93 0 212 23q55 11 209 48q21 5 33 5q39 0 39 -34q0 -22 -16 -48.5t-36 -36.5q-87 -45 -218 -72q-118 -24 -227 -24q-46 0 -60 2q-53 7 -62 99q-6 51 -6 130q-1 65 -1 130q-41 14 -41 65q0 44 37 59h1q-1 5 -1 33l-1 74q-1 41 -1 79l-1 51
q0 50 13 64.5t62 30.5l125 41q63 20 138 20q97 0 130 -7q26 -6 51 -35q27 -32 27 -55q0 -35 -62 -39q-143 -9 -190 -18q-71 -13 -184 -61q-5 -88 -5 -146q232 67 449 67q37 0 75 -13q53 -19 53 -55q0 -28 -68 -35q-317 -32 -506 -96z" />
    <glyph glyph-name="ch286" unicode="&#x436;" horiz-adv-x="1297" 
d="M1255 785q0 -2 -62 -63q-78 -76 -120 -115q-30 -27 -51 -47l-26 -26l-105 -100q-50 -47 -92 -89q161 -123 358 -213q17 -6 51 -20q31 -16 31 -25q0 -19 -42 -38q-37 -17 -62 -17q-18 0 -224 70q-114 39 -200 107q0 -19 2 -52q2 -39 3 -53v-28q0 -46 -70 -56q-47 5 -58 39
q-6 16 -6 38v45q0 11 1.5 34t1.5 34q-69 -56 -171 -98q-64 -26 -188 -63q-57 -17 -64 -17q-25 0 -62 17q-41 17 -43 38q-1 9 31 26q17 8 50 19q185 83 360 213q-43 42 -93 89l-107 100q-13 17 -104 102q-42 37 -84 73q-70 64 -70 75q1 36 62 36q55 0 116 -61
q172 -142 373 -283l2 1l1 2q5 10 6 35q0 30 -4 87.5t-4 84.5q-1 6 -4 60q-2 42 -2 68q0 29 44 29h40q44 0 44 -29q0 -21 -2 -54q-2 -42 -2 -54q-1 -17 -2 -22q-7 -129 -7 -206l1 -2l3 -1q212 148 372 284q38 32 53 41q32 20 63 20q62 0 62 -35z" />
    <glyph glyph-name="ch287" unicode="&#x437;" horiz-adv-x="744" 
d="M662 303q0 -136 -162 -235q-147 -90 -293 -90q-39 0 -92 10q-60 11 -87.5 27t-27.5 54q0 56 32 56q10 0 36 -11q79 -34 169 -34q68 0 117 21q162 70 162 185q0 54 -37.5 85t-92.5 31q-21 0 -73.5 -8.5t-72.5 -8.5q-41 0 -41 39q0 38 32 68q27 25 67 37q49 14 64 26
q30 24 30 76q0 50 -38 84t-88 34q-43 0 -86 -31q-4 -3 -18 -16l-32 -30q-44 -41 -59 -41q-25 0 -25 45q0 36 50 96q46 56 93 84q62 37 121 37q60 0 107 -41q104 -90 104 -177q0 -92 -85 -165q101 -29 153 -68q73 -54 73 -139z" />
    <glyph glyph-name="ch288" unicode="&#x438;" horiz-adv-x="741" 
d="M659 77q0 -37 -55 -50q-15 -4 -29 -4q-31 0 -39 26q-4 13 -3 52q0 30 -1 227q-74 -63 -151 -120q-241 -185 -305 -185q-40 0 -50 18q-7 11 -7 53v51q0 80 -6 182q-8 134 -8 144q-5 125 -5 175q0 92 4 131q3 32 33 50q27 16 61 16q45 0 45 -29q0 -20 -5 -60q-3 -16 -7 -47
q-13 -101 -13 -261q0 -245 16 -248q4 -7 18 -7q34 20 179 127q130 101 185 155l2 36q-3 83 -3 135q0 94 4 133q3 31 33 49q26 17 59 17q47 0 47 -29t-11 -116q-2 -14 -3 -23q-11 -101 -11 -241v-30q0 -30 4 -104t10 -117q3 -27 10 -82q2 -17 2 -24z" />
    <glyph glyph-name="ch289" unicode="&#x439;" horiz-adv-x="741" 
d="M321 735q-21 0 -39 12t-18 32q0 25 26 81q19 40 38 81q13 39 47 114q17 31 51 31q25 0 46 -12q26 -14 26 -37q0 -7 -62 -132q-23 -50 -74 -143q-17 -27 -41 -27zM659 77q0 -37 -55 -50q-15 -4 -29 -4q-31 0 -39 26q-4 13 -3 52q0 30 -1 227q-74 -63 -151 -120
q-241 -185 -305 -185q-40 0 -50 18q-7 11 -7 53v51q0 80 -6 182q-8 134 -8 144q-5 125 -5 175q0 92 4 131q3 32 33 50q27 16 61 16q45 0 45 -29q0 -20 -5 -60q-3 -16 -7 -47q-13 -101 -13 -261q0 -245 16 -248q4 -7 18 -7q34 20 179 127q130 101 185 155l2 36q-3 83 -3 135
q0 94 4 133q3 31 33 49q26 17 59 17q47 0 47 -29t-11 -116q-2 -14 -3 -23q-11 -101 -11 -241v-30q0 -30 4 -104t10 -117q3 -27 10 -82q2 -17 2 -24z" />
    <glyph glyph-name="ch290" unicode="&#x43a;" horiz-adv-x="751" 
d="M670 785l-63 -63q-48 -48 -120 -115q-29 -27 -50 -47l-26 -26l-106 -100q-50 -47 -92 -89q163 -124 358 -213q17 -6 51 -20q31 -16 31 -25q0 -20 -42 -38q-37 -17 -62 -17q-17 0 -223 70q-115 39 -201 107q0 -6 3 -24l5 -39q8 -56 8 -69q0 -27 -29 -42q-24 -13 -53 -13
q-37 0 -42 47q-3 20 -2 43q1 33 1 44l-12 319q-4 143 -4 254v29q0 10 1 19q3 31 34 50q27 16 61 16q44 0 44 -29q0 -9 -2 -29l-4 -42q-3 -20 -7 -59q-11 -150 -11 -254l1 -2l2 -1q184 171 372 332q71 61 116 61q63 0 63 -35z" />
    <glyph glyph-name="ch291" unicode="&#x43b;" horiz-adv-x="711" 
d="M423 867q69 -5 73 -41q4 -40 11 -120q27 -280 115 -527q15 -40 44 -120q6 -18 4 -24q-2 -31 -60 -26q-59 3 -73 51q-54 189 -81 306l-2 7q-25 96 -71 289q-57 -117 -106 -246q-34 -91 -49 -133q-26 -76 -41 -140l-13 -54q-5 -25 -18 -68q-12 -22 -31 -25q-26 -4 -53 14
q-30 20 -28 46q2 30 137 387q37 100 75 201q50 132 84 196q17 32 83 27z" />
    <glyph glyph-name="ch292" unicode="&#x43c;" horiz-adv-x="1040" 
d="M958 108q0 -27 -26.5 -55.5t-52.5 -28.5q-24 0 -61 121q-20 72 -39 144q-37 135 -91 311q-38 -119 -93 -322q-67 -245 -84 -275q-10 -18 -25 -18q-25 0 -47 38q-21 33 -21 62q0 5 2 17l-145 465q-87 -288 -152 -481q-10 -52 -34 -88q-9 -13 -20 -13q-23 0 -47 38
q-22 35 -22 62q0 12 16 48q9 19 26 58q34 84 73 202q69 211 107 390q11 54 55 54q23 0 37 -46q6 -25 18 -74q50 -196 150 -457q99 276 162 585q11 53 54 53q20 0 45 -72q19 -59 19 -91q81 -326 150 -506q9 -17 26 -50q20 -44 20 -71z" />
    <glyph glyph-name="ch293" unicode="&#x43d;" horiz-adv-x="775" 
d="M639 96q0 -24 -26.5 -39t-56.5 -15q-44 0 -44 69q0 14 -1 43.5t-1 44.5v46q0 10 -8 202q-211 -29 -374 -90q5 -124 17 -198l2 -12q0 -3 4 -22t5 -22q7 -51 7 -56q0 -20 -32 -35q-27 -14 -52 -14q-35 0 -41 46q-1 29 -3 86q-8 97 -23 291q-12 169 -12 291v39q0 30 33 49
q30 18 62 18q43 0 43 -34q0 -6 -1 -19l-2 -28q-10 -140 -10 -247q185 60 374 71l-2 216q5 44 24 62q30 23 78 23q39 0 39 -28q0 -15 -10 -118l-8 -84q-4 -42 -5 -70q25 -6 49 -24q29 -22 29 -44q0 -33 -80 -33v-29q0 -160 13 -241q3 -15 7 -43l4 -31q2 -15 2 -21z" />
    <glyph glyph-name="ch294" unicode="&#x43e;" horiz-adv-x="1008" 
d="M927 478q0 -200 -156 -344q-152 -141 -353 -141q-127 0 -230 64q-106 66 -155 180q-33 74 -33 161q0 197 156 343q153 143 352 143q174 0 296.5 -117.5t122.5 -288.5zM776 431q0 139 -88 240q-92 105 -229 105q-135 0 -229 -106q-89 -101 -89 -239q0 -139 89 -239
q93 -104 230 -104q135 0 227 105q89 101 89 238z" />
    <glyph glyph-name="ch295" unicode="&#x43f;" horiz-adv-x="720" 
d="M679 96q0 -24 -26.5 -39t-56.5 -15q-44 0 -44 69q0 14 -1 43.5t-1 44.5v46q0 53 -1 168q-2 115 0 293q-211 -30 -374 -91q-2 -427 -3 -230q1 -152 13 -226l2 -12q0 -3 4 -22t5 -22q7 -51 7 -56q0 -20 -32 -35q-27 -14 -52 -14q-35 0 -41 46q-1 29 -3 86q-8 97 -23 291
q-12 169 -12 291v39q0 30 33 49q30 18 62 18q43 0 43 -34q0 -17 -6 -35q186 58 389 90q24 5 72 11q45 1 45 -29q0 -20 -10 -115l-8 -77q-6 -63 -7 -136q-1 -22 0 -61l3 -123q2 -71 10 -118q0 -4 2.5 -16t4.5 -27l4 -31q2 -15 2 -21z" />
    <glyph glyph-name="ch296" unicode="&#x440;" horiz-adv-x="780" 
d="M132 223q0 -1 13 -82l8 -56q4 -26 4 -34q0 -24 -32 -39q-27 -14 -55 -14q-27 0 -33 17q-11 33 -20 508q-17 24 -17 58q0 36 49 93q75 86 153 130q105 59 202 59q117 0 203 -71q91 -75 91 -190q0 -168 -208 -275q-144 -74 -358 -104zM569 571q0 72 -76 120q-67 41 -144 41
q-111 0 -227 -116q-3 -63 -3 -126q0 -75 4 -151q300 9 387 104q59 65 59 128z" />
    <glyph glyph-name="ch297" unicode="&#x441;" horiz-adv-x="827" 
d="M745 249q0 -19 -30 -44q-24 -17 -47 -34q-227 -164 -414 -164q-122 0 -191 85q-63 79 -63 204q0 240 187 406q180 161 423 161q34 0 46 -6q18 -10 18 -40v-32q0 -20 11.5 -62.5t11.5 -50.5q0 -20 -35 -43t-56 -23q-19 0 -32 44q-5 23 -17 67q-233 -35 -352 -173
q-107 -124 -107 -232q0 -84 66 -131q58 -42 146 -42q72 0 171 41q11 5 127 66q101 54 114 54q23 0 23 -51z" />
    <glyph glyph-name="ch298" unicode="&#x442;" horiz-adv-x="716" 
d="M356 716q-8 -114 -8 -216q0 -199 25 -355q5 -24 12 -70q2 -16 2 -22q0 -19 -31 -35q-27 -14 -54 -14q-31 0 -36 20q-4 17 -5 47v47q-12 214 -16 575q13 0 -4 -6q-10 -3 -42.5 -11.5t-39.5 -10.5q-85 -30 -96 -30q-30 0 -48 29q-15 25 -15 57q0 55 44 74q168 71 364 71
q91 0 123 -7q39 -9 68 -30q36 -26 36 -61t-86 -42q-65 -3 -193 -10z" />
    <glyph glyph-name="ch299" unicode="&#x443;" horiz-adv-x="828" 
d="M228 3q-24 0 -49 13q-29 15 -29 37q0 6 152 281q-46 62 -140 185q-30 34 -87 104q-75 97 -75 141q0 23 21 54.5t38 31.5q16 0 39 -37l30 -52q107 -173 230 -329q105 184 170 288q23 40 73 118q21 29 60 29q52 0 77 -35q8 -12 8 -24q0 -14 -41 -68q-22 -28 -64 -85
q-189 -261 -311 -512q-12 -29 -37 -87q-23 -53 -65 -53z" />
    <glyph glyph-name="ch300" unicode="&#x444;" horiz-adv-x="1311" 
d="M714 280q-2 -62 0 -105q1 -44 1 -82l-1 -54q0 -25 -54 -32q-59 7 -59 33q0 25 2 68q1 49 2 69q0 41 -3 101q-111 -14 -199 -11q-86 2 -160 21q-203 52 -203 219q0 110 90 207q121 131 275 131q58 0 120 -20q68 -22 128 -69q63 50 134 73q62 20 120 20q153 0 275 -131
q90 -97 90 -207q0 -166 -203 -219q-74 -19 -159 -21q-89 -3 -196 9zM1146 512q0 70 -74 135q-66 57 -141 76q-25 6 -50 6q-83 0 -174 -65v-35q-1 -26 -1 -33v-52q0 -74 4 -150q138 -30 230 -30q103 0 148 38q58 49 58 110zM166 508q0 -61 58 -110q45 -38 148 -38
q92 0 230 30q4 76 4 150v61q0 -6 2 62q-93 62 -175 62q-96 0 -192 -82q-75 -64 -75 -135z" />
    <glyph glyph-name="ch301" unicode="&#x445;" horiz-adv-x="721" 
d="M382 425q89 -113 146 -171q26 -21 74 -74q11 -17 11 -32q0 -27 -18 -57q-22 -35 -44 -35q-19 0 -70 67q-35 45 -105 137l-52 68q-75 -125 -113 -210q-9 -21 -43 -93q-14 -24 -47 -24q-25 0 -49 13q-28 14 -28 37q0 16 206 374q-63 79 -184 240l-42 58q-24 37 -24 64
q0 26 15 53q18 31 43 31q16 0 40 -37q16 -27 48 -80q79 -124 160 -231l44 75q19 34 47 80q58 98 99 158q20 29 59 29q28 0 54 -15q31 -18 31 -44q0 -12 -21 -41q-16 -20 -31 -39q-104 -138 -206 -301z" />
    <glyph glyph-name="ch302" unicode="&#x446;" horiz-adv-x="898" 
d="M679 96q-123 -10 -164 -19q-42 -10 -85 -16q-246 -37 -312 -37q-57 0 -58 41q-1 14 -1 31v52q0 86 -9.5 257.5t-9.5 256.5q0 94 4 134q3 32 34 51q28 16 62 16q46 0 46 -29q0 -21 -5 -61l-5 -33q-2 -12 -2 -16q-13 -101 -13 -267q0 -252 16 -275q4 -7 19 -7q69 0 189 15
q75 9 171 24v1q21 2 42 6q-7 126 -16 507q-1 47 3 66q6 35 31.5 58.5t62.5 23.5q47 0 47 -37q0 -22 -6 -92l-5 -50q-1 -13 -3 -30q-7 -123 -7 -293q0 -31 1 -78q0 -31 2 -58v-1q16 3 19 3l45 3q67 -5 67 -41q0 -34 -3 -51q-32 -91 -84 -207q-14 -11 -50 -21q-14 0 -31 -5
q-40 2 -45 20q-6 23 33 87q25 41 31 61q2 10 -11 10z" />
    <glyph glyph-name="ch303" unicode="&#x447;" horiz-adv-x="716" 
d="M665 323q3 -39 8 -118q2 -35 2 -123v-6q0 -21 -33 -36q-28 -13 -52 -13q-28 0 -36 22q-3 10 -3 47q0 32 2 70l3 77q1 38 0 66q-111 -6 -260 -43q-3 -1 -27 -8l-169 -51q-25 0 -41 21t-16 47q0 12 5 25q-8 250 -8 359v46q0 16 1 21q1 32 25 53.5t56 21.5q39 0 39 -31
q0 -36 -6 -107q-9 -106 -9 -154v-47q0 -68 3 -107q177 54 402 70q1 101 2 176v121q0 55 13 78q18 33 68 33q38 0 38 -28q0 -19 -7 -94q-2 -11 -2 -20q-6 -141 -6 -165q0 -40 3 -102q4 -85 5 -101z" />
    <glyph glyph-name="ch304" unicode="&#x448;" horiz-adv-x="907" 
d="M791 74q-129 -15 -260 -20q-23 -32 -74 -32q-46 0 -54 28q-9 8 -75 0q-41 2 -78 -1q-44 -4 -71 -5q-31 -1 -54 -1q-49 0 -65 14q-20 16 -18 63q1 29 1 83q-1 41 -1 95t2 125q2 50 6 169t17 151q10 27 46.5 53t60.5 26q30 0 30 -40q0 -10 -2 -23q-32 -228 -30 -453
q0 -72 4 -143q80 2 155 2q36 2 66 6q-6 156 -5 307q0 169 10 261q4 44 43 96q23 12 39 12q43 0 43 -87v-285q0 -148 4 -296q108 0 210 17q-7 156 -16 517q-1 47 3 66q6 35 31.5 58.5t62.5 23.5q47 0 47 -37q0 -22 -6 -92l-5 -50q-1 -13 -3 -30q-7 -103 -7 -273q0 -31 1 -78
q0 -41 4 -88l9 -65q4 -30 -10 -50q-21 -16 -61 -24z" />
    <glyph glyph-name="ch305" unicode="&#x449;" horiz-adv-x="987" 
d="M531 54q-23 -32 -74 -32q-46 0 -54 28q-9 8 -75 0q-41 2 -78 -1q-44 -4 -71 -5q-31 -1 -54 -1q-49 0 -65 14q-20 16 -18 63q1 29 1 83q-1 41 -1 95t2 125q2 50 6 169t17 151q10 27 46.5 53t60.5 26q30 0 30 -40q0 -10 -2 -23q-32 -228 -30 -453q0 -72 4 -143q80 2 155 2
q36 2 66 6q-6 156 -5 307q0 169 10 261q4 44 43 96q23 12 39 12q43 0 43 -87v-285q0 -148 4 -296q108 0 210 17q-7 156 -16 517q-1 47 3 66q6 35 31.5 58.5t62.5 23.5q47 0 47 -37q0 -22 -6 -92l-5 -50q-1 -13 -3 -30q-7 -103 -7 -273q0 -31 1 -78q0 -41 4 -88l41 1
q67 -5 67 -41q0 -34 -3 -51q-32 -91 -84 -207q-14 -11 -50 -21q-14 0 -31 -5q-40 2 -45 20q-6 23 33 87q25 41 31 61q2 10 -3 14.5t-18 2.5q-129 -15 -260 -20z" />
    <glyph glyph-name="ch306" unicode="&#x44a;" horiz-adv-x="1149" 
d="M507 567q164 44 294 44q39 0 76 -4q214 -24 214 -197q0 -119 -94 -234q-91 -110 -209 -157q-69 -28 -141 -28q-69 0 -133 26q-79 30 -121 78q-22 25 -22 48q0 36 18 67l6 368q2 132 4 159q-230 -36 -283 -36q-28 0 -50.5 27.5t-22.5 55.5q0 29 27 35q-8 0 106 6
q10 1 54 4q33 3 54 3q37 3 127 30l61 18q25 8 27 7q33 0 53 -58q7 -22 6 -41q-2 -19 -16 -22l-21 -4l-4 -98q-2 -60 -10 -97zM974 395q0 67 -63 110q-32 22 -92 22q-110 0 -313 -75q-5 -68 -5 -160q0 -67 4 -131q75 -45 147 -45q121 0 241 122q81 83 81 157z" />
    <glyph glyph-name="ch307" unicode="&#x44b;" horiz-adv-x="1004" 
d="M180 552q143 43 265 43q36 0 60 -3q201 -25 201 -196q0 -118 -87.5 -225.5t-185.5 -152.5q-66 -26 -134 -26q-66 0 -123 24q-72 31 -113 78q-20 24 -20 48q0 34 16 66q10 587 20 627q5 22 32 31q20 11 50 9q44 -3 44 -28q0 -43 -13 -171q-12 -121 -12 -124zM604 364
q0 57 -60 117q-32 12 -81 12q-97 20 -284 -63q-4 -80 -4 -146t3 -127q63 -44 133 -44q120 0 225 109q68 69 68 142zM944 68q0 -32 -32 -52q-26 -16 -61 -16q-31 0 -36 63q-1 25 0 55v49q0 103 -6 283q-9 200 -10 281q-1 48 3 66q6 35 30 57q27 25 63 25q48 0 48 -39
q0 -9 -7 -90l-5 -50q-1 -14 -3 -31q-7 -84 -7 -242q0 -104 8 -221q1 -5 3 -23l5 -41q7 -67 7 -74z" />
    <glyph glyph-name="ch308" unicode="&#x44c;" horiz-adv-x="817" 
d="M176 554q160 43 287 43q38 0 74 -4q209 -24 209 -193q0 -116 -91 -227t-205 -155q-68 -26 -139 -26q-69 0 -129 24q-76 30 -118 77q-21 23 -21 47q0 34 16 65q11 579 21 619q6 21 34 30q21 11 52 9q35 -3 35 -28q0 -42 -13 -169q-12 -109 -12 -112zM630 395q0 58 -62 90
q-33 22 -83 22q-110 10 -313 -65q-4 -72 -4 -150q0 -68 3 -131q75 -45 147 -45q123 0 242 122q80 82 70 157z" />
    <glyph glyph-name="ch309" unicode="&#x44d;" horiz-adv-x="933" 
d="M45 76q4 54 30 66q10 4 87 0q56 -3 88 -3q48 -1 72 1q104 9 179 46q84 42 159 122q59 64 69 122l-64 -1q-22 -1 -35 -2.5t-105 -20.5l-100 -27q-90 -24 -91 -24q-22 -3 -30 18q-7 15 -4 39q6 61 48 74q54 17 190 37q97 13 195 26q-4 62 -92 124q-59 41 -150 41t-214 -41
q-56 -27 -83 -28q-28 -1 -35 40l2 33q2 32 21 52q14 14 48 31q161 80 291 80q81 0 149 -31q182 -84 174 -290l22 1q18 1 25 -21q5 -16 4 -37q-4 -59 -36 -72q-7 -1 -33 0q-10 -72 -65 -164q-73 -121 -206 -188q-126 -65 -272 -65q-77 0 -160 20q-24 5 -48 11q-31 11 -30 31z
" />
    <glyph glyph-name="ch310" unicode="&#x44e;" horiz-adv-x="1357" 
d="M1317 499q0 -190 -147 -326.5t-338 -136.5q-107 0 -199 49.5t-146 139.5q-35 58 -48 140q-50 -5 -80 -3t-62 3h-66q-34 -1 -69 -15q5 -122 17 -189l2 -11q0 4 8 -42q6 -41 6 -53q0 -20 -29 -33.5t-51 -13.5q-34 0 -39 44q-1 27 -3 82l-21 276q-12 161 -12 338v37
q0 27 31 48q27 17 60 17q41 0 41 -33q0 -5 -1 -18l-2 -27q-10 -196 -10 -295q78 -2 143 0q64 1 133 5q16 146 147 268q146 135 336 135q167 0 281 -110q118 -114 118 -276zM1165 440q0 134 -83 229q-87 100 -219 100q-130 0 -218 -101q-85 -96 -85 -228t85 -228
q88 -99 219 -99q129 0 217 100q84 96 84 227z" />
    <glyph glyph-name="ch311" unicode="&#x44f;" horiz-adv-x="821" 
d="M155 37q0 21 70 60q37 23 96 60q47 34 78 60l71 54q-33 -3 -72 -3q-120 0 -206 30q-159 56 -159 201q10 122 102 232q84 83 209 121q60 18 117 18q160 20 294 -103q28 -26 28 -50q0 -25 -16.5 -53.5t-38.5 -39.5q0 -33 -8 -278l-4 -123q-2 -141 -10 -181q-7 -34 -66 -39
t-59 31q0 19 9 67q10 123 10 131q-114 -107 -266 -179q-111 -55 -124 -60q-55 13 -55 44zM149 518q0 -69 71 -117q42 -23 141 -33q103 0 239 45q15 83 15 140q10 67 -14 141q-66 60 -149 60q-112 10 -226 -79q-67 -73 -77 -157z" />
    <glyph glyph-name="ch312" unicode="&#x451;" 
d="M142 375q4 -120 23 -246h9q93 0 212 23q55 11 209 48q21 5 33 5q39 0 39 -34q0 -22 -16 -48.5t-36 -36.5q-87 -45 -218 -72q-118 -24 -227 -24q-46 0 -60 2q-53 7 -62 99q-6 51 -6 130q-1 65 -1 130q-41 14 -41 65q0 44 37 59h1q-1 5 -1 33l-1 74q-1 41 -1 79l-1 51
q0 50 13 64.5t62 30.5l125 41q63 20 138 20q97 0 130 -7q26 -6 51 -35q27 -32 27 -55q0 -35 -62 -39q-143 -9 -190 -18q-71 -13 -184 -61q-5 -88 -5 -146q232 67 449 67q37 0 75 -13q53 -19 53 -55q0 -28 -68 -35q-317 -32 -506 -96zM206 1016q0 -9 -14 -63q-5 -25 -18 -73
q-8 -24 -56 -24q-44 0 -44 30q0 38 8 123q2 27 71 27q53 0 53 -20zM484 1086q0 -5 -4 -26l-10 -36q-5 -26 -17 -73q-9 -25 -57 -25q-44 0 -44 31q0 52 8 123q3 27 72 27q52 0 52 -21z" />
    <glyph glyph-name="mdash" unicode="&#x2014;" horiz-adv-x="830" 
d="M103 316q-38 0 -50.5 25t-12.5 55q0 31 31 34q37 0 95 2q78 4 96 4q38 1 47 1q46 3 129 13l43 9q125 23 201 41l41 9q27 0 42.5 -30t15.5 -57q0 -23 -22 -29q-11 -3 -57 -9l-115 -16q-135 -18 -284 -34q-44 -6 -87 -11q-79 -7 -113 -7z" />
    <glyph glyph-name="asciicircum" unicode="^" horiz-adv-x="540" 
d="M47.5 346q-7.5 20 -2.5 40.5t20 32t50 13.5q46 4 84 1t108 8t115 19q40 -1 49.5 -21t9.5 -47q-10 -33 -47 -38l-68 -6q-81 2 -170 -14q-25 -6 -51 -11q-47 -7 -68.5 -2t-29 25z" />
    <glyph glyph-name="quot1" unicode="&#x263a;" horiz-adv-x="740" 
d="M168 393q166 -125 348 -270l42 -32q25 -18 38 -37q12 -17 12 -34q0 -19 -12 -46t-25 -27q-9 0 -46 35l-56 56q-185 168 -338 258q-21 10 -40 20q-24 14 -37.5 27t-13.5 27q0 22 12 52l30 31q95 93 362 339q16 15 46 45q41 38 61 38q17 0 40.5 -21t23.5 -39q0 -14 -40 -45
q-19 -12 -52 -38q-195 -143 -355 -339zM371 405q125 -94 262 -203q16 -12 31 -24q18 -14 29 -28q8 -13 8 -25q0 -14 -8.5 -34.5t-18.5 -20.5q-7 0 -35 27q-14 14 -42 41q-138 126 -253 194q-16 8 -31 15q-17 10 -27.5 20t-10.5 20q0 17 10 39l22 23q71 71 271 255
q12 11 35 34q31 28 46 28q12 0 30 -15.5t18 -29.5q0 -10 -30 -34q-14 -8 -39 -28q-147 -107 -267 -254z" />
    <glyph glyph-name="quot2" unicode="&#x263b;" horiz-adv-x="740" 
d="M224 732q-33 26 -52 38q-40 31 -40 45q0 18 23.5 39t40.5 21q20 0 61 -38q30 -30 46 -45q267 -246 362 -339l30 -31q12 -30 12 -52q0 -14 -13.5 -27t-37.5 -27q-19 -10 -40 -20q-153 -90 -338 -258l-56 -56q-37 -35 -46 -35q-13 0 -25 27t-12 46q0 17 12 34q13 19 38 37
l42 32q182 145 348 270q-160 196 -355 339zM109 659q-25 20 -39 28q-30 24 -30 34q0 14 18 29.5t30 15.5q15 0 46 -28q23 -23 35 -34q200 -184 271 -255l22 -23q10 -22 10 -39q0 -10 -10.5 -20t-27.5 -20q-15 -7 -31 -15q-115 -68 -253 -194q-28 -27 -42 -41
q-28 -27 -35 -27q-10 0 -18.5 20.5t-8.5 34.5q0 12 8 25q11 14 29 28q15 12 31 24q137 109 262 203q-120 147 -267 254z" />
    <glyph glyph-name="lowquote" unicode="&#x201e;" horiz-adv-x="502" 
d="M284 -217q-21 0 -38 11q-20 12 -20 32q0 24 26 80l39 82q13 39 45 115q17 31 53 31q25 0 46 -12q26 -14 26 -37q0 -3 -9 -23l-23 -48q-29 -61 -62 -124q-13 -28 -42 -80q-18 -27 -41 -27zM96 -156q-21 0 -38.5 12t-17.5 32q0 25 25 81q19 40 38 81q14 43 46 116
q19 31 54 31q23 0 46.5 -13.5t23.5 -35.5q0 -5 -32 -71l-30 -62q-33 -69 -57 -115q-8 -15 -16 -28q-16 -28 -42 -28z" />
    <glyph glyph-name="quot4" unicode="&#x2666;" horiz-adv-x="502" 
d="M284 -217q-21 0 -38 11q-20 12 -20 32q0 24 26 80l39 82q13 39 45 115q17 31 53 31q25 0 46 -12q26 -14 26 -37q0 -3 -9 -23l-23 -48q-29 -61 -62 -124q-13 -28 -42 -80q-18 -27 -41 -27zM96 -156q-21 0 -38.5 12t-17.5 32q0 25 25 81q19 40 38 81q14 43 46 116
q19 31 54 31q23 0 46.5 -13.5t23.5 -35.5q0 -5 -32 -71l-30 -62q-33 -69 -57 -115q-8 -15 -16 -28q-16 -28 -42 -28z" />
    <glyph glyph-name="quot5" unicode="&#x2663;" horiz-adv-x="502" 
d="M284 553q-21 0 -38 11q-20 12 -20 32q0 24 26 80l39 82q13 39 45 115q17 31 53 31q25 0 46 -12q26 -14 26 -37q0 -3 -9 -23l-23 -48q-29 -61 -62 -124q-13 -28 -42 -80q-18 -27 -41 -27zM96 614q-21 0 -38.5 12t-17.5 32q0 25 25 81q19 40 38 81q14 43 46 116
q19 31 54 31q23 0 46.5 -13.5t23.5 -35.5q0 -5 -32 -71l-30 -62q-33 -69 -57 -115q-8 -15 -16 -28q-16 -28 -42 -28z" />
    <glyph glyph-name="yatcpt" unicode="&#x462;" horiz-adv-x="900" 
d="M360 487q141 38 253 38q33 0 65 -4q184 -21 184 -170q0 -102 -80.5 -199.5t-179.5 -136.5q-60 -23 -123 -23q-61 0 -113 21q-67 26 -104 68q-19 20 -19 41q0 30 14 58l11 285q13 126 2 279q-3 66 6 100q5 19 30 27q18 10 45 8q32 -3 32 -25q0 -37 -12 -268
q-11 -97 -11 -99zM748 333q0 57 -53 93q-27 18 -78 18q-93 0 -265 -63q-3 -69 -3 -135q0 -58 2 -111q64 -38 125 -38q104 0 204 103q68 69 68 133zM101 602q-30 0 -50 25t-20 45q0 31 24 34q29 0 75 2q61 4 104.5 11t108.5 17l34 9q84 23 144 41l32 9q21 0 40 -30t19 -57
q0 -23 -17 -29q-9 -3 -45 -9l-90 -16q-106 -18 -223 -34q-34 -6 -68 -11q-42 -7 -68 -7z" />
    <glyph glyph-name="yatsmall" unicode="&#x463;" horiz-adv-x="900" 
d="M360 487q141 38 253 38q33 0 65 -4q184 -21 184 -170q0 -102 -80.5 -199.5t-179.5 -136.5q-60 -23 -123 -23q-61 0 -113 21q-67 26 -104 68q-19 20 -19 41q0 30 14 58l11 285q13 126 2 279q-3 66 6 100q5 19 30 27q18 10 45 8q32 -3 32 -25q0 -37 -12 -268
q-11 -97 -11 -99zM748 333q0 57 -53 93q-27 18 -78 18q-93 0 -265 -63q-3 -69 -3 -135q0 -58 2 -111q64 -38 125 -38q104 0 204 103q68 69 68 133zM101 602q-30 0 -50 25t-20 45q0 31 24 34q29 0 75 2q61 4 104.5 11t108.5 17l34 9q84 23 144 41l32 9q21 0 40 -30t19 -57
q0 -23 -17 -29q-9 -3 -45 -9l-90 -16q-106 -18 -223 -34q-34 -6 -68 -11q-42 -7 -68 -7z" />
    <glyph glyph-name="yat" unicode="&#x2665;" horiz-adv-x="900" 
d="M360 487q141 38 253 38q33 0 65 -4q184 -21 184 -170q0 -102 -80.5 -199.5t-179.5 -136.5q-60 -23 -123 -23q-61 0 -113 21q-67 26 -104 68q-19 20 -19 41q0 30 14 58l11 285q13 126 2 279q-3 66 6 100q5 19 30 27q18 10 45 8q32 -3 32 -25q0 -37 -12 -268
q-11 -97 -11 -99zM748 333q0 57 -53 93q-27 18 -78 18q-93 0 -265 -63q-3 -69 -3 -135q0 -58 2 -111q64 -38 125 -38q104 0 204 103q68 69 68 133zM101 602q-30 0 -50 25t-20 45q0 31 24 34q29 0 75 2q61 4 104.5 11t108.5 17l34 9q84 23 144 41l32 9q21 0 40 -30t19 -57
q0 -23 -17 -29q-9 -3 -45 -9l-90 -16q-106 -18 -223 -34q-34 -6 -68 -11q-42 -7 -68 -7z" />
    <glyph glyph-name="I" unicode="&#x406;" horiz-adv-x="613" 
d="M332 725q-9 -115 -9 -222q0 -194 27 -366q-8 0 90 23q88 20 99 20q29 0 29 -24q0 -19 -15 -43.5t-31 -33.5q-72 -39 -184 -61q-101 -20 -194 -20q-52 0 -70 8q-31 14 -31 62q0 50 43 50q11 0 31.5 -1t31.5 -1q46 0 88 4q-14 163 -18 574q-32 -14 -65 -28q-49 -21 -63 -21
q-23 0 -38 30q-13 24 -13 56q0 55 37 74q142 72 304 72q61 0 87 -5q46 -8 77 -36q26 -24 26 -58t-73 -43q-55 -3 -166 -10z" />
    <glyph glyph-name="i" unicode="&#x456;" horiz-adv-x="613" 
d="M332 725q-9 -115 -9 -222q0 -194 27 -366q-8 0 90 23q88 20 99 20q29 0 29 -24q0 -19 -15 -43.5t-31 -33.5q-72 -39 -184 -61q-101 -20 -194 -20q-52 0 -70 8q-31 14 -31 62q0 50 43 50q11 0 31.5 -1t31.5 -1q46 0 88 4q-14 163 -18 574q-32 -14 -65 -28q-49 -21 -63 -21
q-23 0 -38 30q-13 24 -13 56q0 55 37 74q142 72 304 72q61 0 87 -5q46 -8 77 -36q26 -24 26 -58t-73 -43q-55 -3 -166 -10z" />
    <glyph glyph-name="ie" unicode="&#x404;" horiz-adv-x="933" 
d="M786 87q-27 -12 -54 -22q-95 -38 -176 -54q-155 -30 -269 11q-120 42 -160 153q-30 84 -18 157q-28 -6 -35 -7q-30 7 -16 68q6 21 16 39q14 25 33 27l23 4q56 213 276 338q82 47 168 63q138 28 284 -22q31 -11 41 -23q14 -16 6 -49l-8 -34q-20 -34 -50 -39
q-28 -5 -117.5 17t-186.5 3q-96 -19 -182 -84q-93 -93 -116 -169q100 7 199 14q128 18 190 21q41 -5 38 -57q-4 -24 -17 -41q-25 -24 -47 -25q-1 -1 -89 -4q-190 -13 -203.5 -14t-36.5 -4l-67 -3q-8 -58 15 -122q65 -78 141 -104q68 -23 186 9q24 3 76 14q34 7 94 21
q83 21 93 19q24 -7 11 -63q-5 -21 -42 -38z" />
    <glyph glyph-name="uni0454" unicode="&#x454;" horiz-adv-x="933" 
d="M786 87q-27 -12 -54 -22q-95 -38 -176 -54q-155 -30 -269 11q-120 42 -160 153q-30 84 -18 157q-28 -6 -35 -7q-30 7 -16 68q6 21 16 39q14 25 33 27l23 4q56 213 276 338q82 47 168 63q138 28 284 -22q31 -11 41 -23q14 -16 6 -49l-8 -34q-20 -34 -50 -39
q-28 -5 -117.5 17t-186.5 3q-96 -19 -182 -84q-93 -93 -116 -169q100 7 199 14q128 18 190 21q41 -5 38 -57q-4 -24 -17 -41q-25 -24 -47 -25q-1 -1 -89 -4q-190 -13 -203.5 -14t-36.5 -4l-67 -3q-8 -58 15 -122q65 -78 141 -104q68 -23 186 9q24 3 76 14q34 7 94 21
q83 21 93 19q24 -7 11 -63q-5 -21 -42 -38z" />
    <glyph glyph-name="uni0407" unicode="&#x407;" horiz-adv-x="613" 
d="M332 725q-9 -115 -9 -222q0 -194 27 -366q-8 0 90 23q88 20 99 20q29 0 29 -24q0 -19 -15 -43.5t-31 -33.5q-72 -39 -184 -61q-101 -20 -194 -20q-52 0 -70 8q-31 14 -31 62q0 50 43 50q11 0 31.5 -1t31.5 -1q46 0 88 4q-14 163 -18 574q-32 -14 -65 -28q-49 -21 -63 -21
q-23 0 -38 30q-13 24 -13 56q0 55 37 74q142 72 304 72q61 0 87 -5q46 -8 77 -36q26 -24 26 -58t-73 -43q-55 -3 -166 -10zM206 1016q0 -9 -14 -63q-5 -25 -18 -73q-8 -24 -56 -24q-44 0 -44 30q0 38 8 123q2 27 71 27q53 0 53 -20zM484 1086q0 -5 -4 -26l-10 -36
q-5 -26 -17 -73q-9 -25 -57 -25q-44 0 -44 31q0 52 8 123q3 27 72 27q52 0 52 -21z" />
    <glyph glyph-name="uni040E" unicode="&#x40e;" horiz-adv-x="828" 
d="M228 3q-24 0 -49 13q-29 15 -29 37q0 6 152 281q-46 62 -140 185q-30 34 -87 104q-75 97 -75 141q0 23 21 54.5t38 31.5q16 0 39 -37l30 -52q107 -173 230 -329q105 184 170 288q23 40 73 118q21 29 60 29q52 0 77 -35q8 -12 8 -24q0 -14 -41 -68q-22 -28 -64 -85
q-189 -261 -311 -512q-12 -29 -37 -87q-23 -53 -65 -53zM321 735q-21 0 -39 12t-18 32q0 25 26 81q19 40 38 81q13 39 47 114q17 31 51 31q25 0 46 -12q26 -14 26 -37q0 -7 -62 -132q-23 -50 -74 -143q-17 -27 -41 -27z" />
    <glyph glyph-name="uni045E" unicode="&#x45e;" horiz-adv-x="828" 
d="M228 3q-24 0 -49 13q-29 15 -29 37q0 6 152 281q-46 62 -140 185q-30 34 -87 104q-75 97 -75 141q0 23 21 54.5t38 31.5q16 0 39 -37l30 -52q107 -173 230 -329q105 184 170 288q23 40 73 118q21 29 60 29q52 0 77 -35q8 -12 8 -24q0 -14 -41 -68q-22 -28 -64 -85
q-189 -261 -311 -512q-12 -29 -37 -87q-23 -53 -65 -53zM321 735q-21 0 -39 12t-18 32q0 25 26 81q19 40 38 81q13 39 47 114q17 31 51 31q25 0 46 -12q26 -14 26 -37q0 -7 -62 -132q-23 -50 -74 -143q-17 -27 -41 -27z" />
    <glyph glyph-name="uni0457" unicode="&#x457;" horiz-adv-x="613" 
d="M332 725q-9 -115 -9 -222q0 -194 27 -366q-8 0 90 23q88 20 99 20q29 0 29 -24q0 -19 -15 -43.5t-31 -33.5q-72 -39 -184 -61q-101 -20 -194 -20q-52 0 -70 8q-31 14 -31 62q0 50 43 50q11 0 31.5 -1t31.5 -1q46 0 88 4q-14 163 -18 574q-32 -14 -65 -28q-49 -21 -63 -21
q-23 0 -38 30q-13 24 -13 56q0 55 37 74q142 72 304 72q61 0 87 -5q46 -8 77 -36q26 -24 26 -58t-73 -43q-55 -3 -166 -10zM206 1016q0 -9 -14 -63q-5 -25 -18 -73q-8 -24 -56 -24q-44 0 -44 30q0 38 8 123q2 27 71 27q53 0 53 -20zM484 1086q0 -5 -4 -26l-10 -36
q-5 -26 -17 -73q-9 -25 -57 -25q-44 0 -44 31q0 52 8 123q3 27 72 27q52 0 52 -21z" />
    <glyph glyph-name="fitacpt" unicode="&#x472;" horiz-adv-x="949" 
d="M927 478q0 -200 -156 -344q-152 -141 -353 -141q-127 0 -230 64q-106 66 -155 180q-33 74 -33 161q0 197 156 343q153 143 352 143q174 0 296.5 -117.5t122.5 -288.5zM776 431q0 139 -88 240q-92 105 -229 105q-135 0 -229 -106q-89 -101 -89 -239q0 -139 89 -239
q93 -104 230 -104q135 0 227 105q89 101 89 238zM247.5 374q-7.5 20 -2.5 40.5t20 32t50 13.5q46 4 89 -0.5t108 8t110 20.5q40 -1 49.5 -21t9.5 -47q-10 -37 -53 -39l-53 1q-103 3 -179 -20q-25 -6 -58 -16q-40 -10 -61.5 -1t-29 29z" />
    <glyph glyph-name="fitasmall" unicode="&#x473;" horiz-adv-x="950" 
d="M927 478q0 -200 -156 -344q-152 -141 -353 -141q-127 0 -230 64q-106 66 -155 180q-33 74 -33 161q0 197 156 343q153 143 352 143q174 0 296.5 -117.5t122.5 -288.5zM776 431q0 139 -88 240q-92 105 -229 105q-135 0 -229 -106q-89 -101 -89 -239q0 -139 89 -239
q93 -104 230 -104q135 0 227 105q89 101 89 238zM247.5 374q-7.5 20 -2.5 40.5t20 32t50 13.5q46 4 89 -0.5t108 8t110 20.5q40 -1 49.5 -21t9.5 -47q-10 -37 -53 -39l-53 1q-103 3 -179 -20q-25 -6 -58 -16q-40 -10 -61.5 -1t-29 29z" />
    <glyph glyph-name="fita" unicode="&#x2660;" horiz-adv-x="949" 
d="M927 478q0 -200 -156 -344q-152 -141 -353 -141q-127 0 -230 64q-106 66 -155 180q-33 74 -33 161q0 197 156 343q153 143 352 143q174 0 296.5 -117.5t122.5 -288.5zM776 431q0 139 -88 240q-92 105 -229 105q-135 0 -229 -106q-89 -101 -89 -239q0 -139 89 -239
q93 -104 230 -104q135 0 227 105q89 101 89 238zM247.5 374q-7.5 20 -2.5 40.5t20 32t50 13.5q46 4 89 -0.5t108 8t110 20.5q40 -1 49.5 -21t9.5 -47q-10 -37 -53 -39l-53 1q-103 3 -179 -20q-25 -6 -58 -16q-40 -10 -61.5 -1t-29 29z" />
    <glyph glyph-name="minorspace" unicode="&#x2022;" horiz-adv-x="300" 
 />
    <glyph glyph-name="accent" unicode="`" horiz-adv-x="451" 
d="M67 889q-11 0 -21 6.5t-10 17.5q0 14 14 45q11 22 21 45q7 21 26 62q10 18 28 18q14 0 26 -7q14 -8 14 -21q0 -3 -34 -72q-13 -28 -41 -79q-9 -15 -23 -15z" />
    </font>
</defs>
</svg>
