<?xml version="1.0" standalone="no"?>
<!DOCTYPE svg PUBLIC "-//W3C//DTD SVG 1.1//EN" "http://www.w3.org/Graphics/SVG/1.1/DTD/svg11.dtd" >
<svg>
<metadata>
Created by FontForge 20120731 at Sat Nov  1 01:06:08 2014
 By Orthosie Webhosting
(c) 2013 Dmitri Poguliayev / WinKiller Studio. Free for non-commercial use.
http://wks.arai-kibou.ru/
</metadata>
<defs>
<font id="dspfetcher" horiz-adv-x="875" >
  <font-face 
    font-family="dspfetcher"
    font-weight="400"
    font-stretch="normal"
    units-per-em="2048"
    panose-1="2 0 0 0 0 0 0 0 0 0"
    ascent="1638"
    descent="-410"
    x-height="875"
    cap-height="1250"
    bbox="-250 -376 1750 1875"
    underline-thickness="150"
    underline-position="-142"
    unicode-range="U+0020-266B"
  />
<missing-glyph horiz-adv-x="1000" 
d="M0 0v1250l1000 1v-1251h-1000zM125 125h750v1000h-750v-1000zM375 750h-125v250h125v-250zM750 1000v-250h-125v250h125zM749 500v-125h-125v-125h-250v125h-125v125h500z" />
    <glyph glyph-name=".notdef" horiz-adv-x="1000" 
d="M0 0v1250l1000 1v-1251h-1000zM125 125h750v1000h-750v-1000zM375 750h-125v250h125v-250zM750 1000v-250h-125v250h125zM749 500v-125h-125v-125h-250v125h-125v125h500z" />
    <glyph glyph-name=".null" horiz-adv-x="0" 
 />
    <glyph glyph-name="nonmarkingreturn" horiz-adv-x="500" 
 />
    <glyph glyph-name="space" unicode=" " horiz-adv-x="500" 
 />
    <glyph glyph-name="space" unicode="&#xa0;" horiz-adv-x="500" 
 />
    <glyph glyph-name="exclam" unicode="!" horiz-adv-x="375" 
d="M0 1250v-1000h250v1000h-250zM0 125v-125h250v125h-250z" />
    <glyph glyph-name="quotedbl" unicode="&#x22;" horiz-adv-x="500" 
d="M125 1250h-125v-250h125v250zM375 1250h-125v-250h125v250z" />
    <glyph glyph-name="glyph6" unicode="#" horiz-adv-x="1000" 
d="M500 376v125h-125v-125h125zM625 500v-125h250v-125h-374v-250h-125l-1 249h-125v-249h-125v250h-125v125h250v125h-250l1 125h374v251l125 -1v-250h125v251l125 -1v-250h125v-125h-250z" />
    <glyph glyph-name="dollar" unicode="$" 
d="M750 875v125h-250v125h-125v-125h-250v-125h-125v-250h125v-125h125v-375h-250v-125h250v-125h125v125h250v125h125v375h-125v125h-125v250h250zM250 625v250h125v-250h-125zM500 375v-250h-125v250h125z" />
    <glyph glyph-name="percent" unicode="%" horiz-adv-x="1250" 
d="M375 -1v376h125v500h125v376l125 -1v-375h-125v-501h-125v-375h-125zM375 1250v-125h125v-250h-125v-125h-250v125h-125v250h125v125h250zM125 875h250v250h-250v-250zM1000 500v-125h125v-250h-125v-125h-250v125h-125v250h125v125h250zM750 125h250v250h-250v-250z" />
    <glyph glyph-name="ampersand" unicode="&#x26;" horiz-adv-x="1000" 
d="M125 0v125h-125v500h125v125h-125v375h125v125h375v-125h125v-375h-125v-125h125v-125h125v125h125v-250h-125v-125h125v-250h-125v125h-125v-125h-500zM250 750h125v125h125l1 250h-251v-375zM250 625v-500h125v125h125v250h-125v125h-125z" />
    <glyph glyph-name="quotesingle" unicode="'" horiz-adv-x="250" 
d="M125 1250h-125v-250h125v250z" />
    <glyph glyph-name="parenleft" unicode="(" horiz-adv-x="500" 
d="M375 1250h-125v-125h-125v-250h-125v-500h125v-250h125v-125h125v125h-125v250h-125v500h125v250h125v125z" />
    <glyph glyph-name="parenright" unicode=")" horiz-adv-x="500" 
d="M0 1125h125v-250h125v-500h-125v-250h-125v-125h125v125h125v250h125v500h-125v250h-125v125h-125v-125z" />
    <glyph glyph-name="asterisk" unicode="*" horiz-adv-x="750" 
d="M500 1125h125v125h-125v-125zM125 1125v125h-125v-125h125zM625 875v125h-125v125h-125v125h-125v-125h-125v-125h-125v-125h125v-125h-124v-125h124l1 125h124v-125h125v125h124l1 -125h124v125h-124v125h125z" />
    <glyph glyph-name="plus" unicode="+" horiz-adv-x="750" 
d="M250 875v-250h-250v-125h250v-250h125v250h250v125h-250v250h-125z" />
    <glyph glyph-name="comma" unicode="," horiz-adv-x="375" 
d="M0 125v-125h125v-125h-125v-125h125v125h125v250h-250z" />
    <glyph glyph-name="hyphen" unicode="-" horiz-adv-x="500" 
d="M0 625v-125h375v125h-375z" />
    <glyph glyph-name="hyphen" unicode="&#xad;" horiz-adv-x="500" 
d="M0 625v-125h375v125h-375z" />
    <glyph glyph-name="period" unicode="." horiz-adv-x="375" 
d="M0 125v-125h250v125h-250z" />
    <glyph glyph-name="slash" unicode="/" horiz-adv-x="500" 
d="M0 0v375h125v500h125v376l125 -1v-375h-125v-501h-125v-374h-125z" />
    <glyph glyph-name="zero" unicode="0" 
d="M0 250h125v-125h125v-125h250v125h125v125h125v500h-125v125h-125v125h-250v-125h-125v-125h-125v-500zM250 875h250v-750h-250v750z" />
    <glyph glyph-name="one" unicode="1" 
d="M250 1000v-125h-125v-125h-125v-125h250v-500h-250v-125h750v125h-250v875h-250z" />
    <glyph glyph-name="two" unicode="2" 
d="M0 0v250v125h125v125h125v125h125h125l1 250h-250l-1 -125h-250l1 125h125v125h500v-125h125l-1 -250h-125l1 -125h-126v-125h-125h-125v-125v-125h500v-125h-750z" />
    <glyph glyph-name="three" unicode="3" 
d="M0 875h125v125h500v-125h125v-250h-125v-125h125v-375h-124l-1 -125h-500v125h-125v125h250v-125h250v375h-250v125h250v250h-250v-125h-250v125z" />
    <glyph glyph-name="four" unicode="4" 
d="M250 875v-125h-125v-125h-125v-250h500v-375h250v1000h-375v-125h-125zM500 875v-375h-250v250h125v125h125z" />
    <glyph glyph-name="five" unicode="5" 
d="M750 1000h-750v-500h500v-375h-250l1 125h-251v-125h126l-1 -125h500v125h125v375h-125v125h-375v250h500v125z" />
    <glyph glyph-name="six" unicode="6" 
d="M0 875h125v125h500v-125h125v-125h-250v125h-250v-250h375v-125h125v-375h-125v-125h-500v125h-125v750zM250 125h250v375h-250v-375z" />
    <glyph glyph-name="seven" unicode="7" 
d="M0 1000h750v-250h-125v-250h-125v-250h-125v-250h-250v250h125v250h125v250h125v125h-500v125z" />
    <glyph glyph-name="eight" unicode="8" 
d="M0 875h125v125h500v-125h125v-250h-125v-125h125v-375h-125v-125h-500v125h-125v375h125v125h-125v250zM250 875v-250h250v250h-250zM250 500v-375h250v375h-250z" />
    <glyph glyph-name="nine" unicode="9" 
d="M750 125h-125v-125h-500v125h-125v125h250v-125h250v250h-375v125h-125v375h125v125h500v-125h125v-750zM500 875h-250v-375h250v375z" />
    <glyph glyph-name="colon" unicode=":" horiz-adv-x="375" 
d="M0 125v-125h250v125h-250zM0 875v-125h250v125h-250z" />
    <glyph glyph-name="semicolon" unicode=";" horiz-adv-x="375" 
d="M0 875v-125h250v125h-250zM0 125v-125h125v-125h-125v-125h125v125h125v250h-250z" />
    <glyph glyph-name="semicolon" unicode="&#x37e;" horiz-adv-x="375" 
d="M0 875v-125h250v125h-250zM0 125v-125h125v-125h-125v-125h125v125h125v250h-250z" />
    <glyph glyph-name="less" unicode="&#x3c;" horiz-adv-x="750" 
d="M0 625h125v125h125v125h125v125h126v125h125v-125h-125l-1 -125h-125l1 -125h-126v-125h-125v-125h126l-1 -125h125l1 -125h125v-125h125v-125h-125v125h-125l-1 125l-124 -1v126h-126v125h-125v125z" />
    <glyph glyph-name="equal" unicode="=" horiz-adv-x="750" 
d="M625 875v-125h-625v125h625zM625 250h-625v125h625v-125z" />
    <glyph glyph-name="greater" unicode="&#x3e;" horiz-adv-x="750" 
d="M626 500h-125v-125h-125v-126l-125 1l-1 -125h-124l-1 -125h-125v125h125l1 125h124l1 125h125l-1 125h126v125h-125v125h-126l1 125h-125l-1 125h-125v125h126v-125h125v-125h125v-125h125v-125h125v-125z" />
    <glyph glyph-name="question" unicode="?" 
d="M250 250v375l124 1v125l126 -1l1 375h-250l-1 -125h-250l1 125h125v125h500v-125h125l-1 -375h-125l-1 -125l-124 1v-375zM499 125l1 -125h-250l-1 125h250z" />
    <glyph glyph-name="at" unicode="@" horiz-adv-x="1375" 
d="M251 251v375h125v125h125v125l375 -1v-124h125v-625h125l-1 875l-1000 -1v-1124l1001 -1v-124l-1001 -1l1 125l-125 1l-1 1125h125v124h1001v-124l125 -1v-874h-125v-125h-625v125h-125v125h-125zM501 751v-501h125v-125h125v626h-250z" />
    <glyph glyph-name="A" unicode="A" 
d="M250 0h-250v875h125v250h125v125h500v-1250h-250v375h-250v-375zM500 500v625h-125v-125h-125v-500h250z" />
    <glyph glyph-name="B" unicode="B" 
d="M0 0h500v125h125v125h125v375h-125v125h125v250h-125v125h-125v125h-500v-1250zM500 1125v-375h-250v375h250zM500 125h-250v500h250v-500z" />
    <glyph glyph-name="C" unicode="C" 
d="M250 0v125h-125v125h-125v750h125v125h125v125h375v-125h125v-250h-250v250h-250v-1000h250v250h250v-250h-125v-125h-375z" />
    <glyph glyph-name="D" unicode="D" 
d="M0 0h500v125h125v125h125v750h-125v125h-125v125h-500v-1250zM500 1125v-1000h-250v1000h250z" />
    <glyph glyph-name="E" unicode="E" 
d="M750 1125h-500v-375h375v-125h-375v-500h500v-125h-750v1250h750v-125z" />
    <glyph glyph-name="F" unicode="F" 
d="M750 1250h-750v-1250h250v625h375v125h-375v375h500v125z" />
    <glyph glyph-name="G" unicode="G" 
d="M250 0v125h-125v125h-125v750h125v125h125v125h375v-125h125v-250h-250v250h-250v-1000h250v375h-125v125h375v-500h-125v-125h-375z" />
    <glyph glyph-name="H" unicode="H" 
d="M250 1250h-250v-1250h250v625h250v-625h250v1250h-250v-500h-250v500z" />
    <glyph glyph-name="I" unicode="I" horiz-adv-x="375" 
d="M0 1250v-1250h250v1250h-250z" />
    <glyph glyph-name="J" unicode="J" 
d="M0 250v-125h125v-125h500v125h125l1 1125h-250l-1 -1125h-250v125h-250z" />
    <glyph glyph-name="K" unicode="K" 
d="M250 1250h-250v-1250h250v625h125v-125h125v-500h250v500h-125v125h-125v125h125v125h125v375h-250v-375h-125v-125h-125v500z" />
    <glyph glyph-name="L" unicode="L" horiz-adv-x="750" 
d="M250 1250h-250v-1250h625v125h-375v1125z" />
    <glyph glyph-name="M" unicode="M" horiz-adv-x="1000" 
d="M250 0h-250v1250h250v-250h125v-250h125v250h125v250h250v-1250h-250v750h-125v-250h-125v250h-125v-750z" />
    <glyph glyph-name="N" unicode="N" 
d="M0 1250v-1250h250v625h125v-375h125v-250h250v1250h-250v-625h-125v375h-125v250h-250z" />
    <glyph glyph-name="O" unicode="O" 
d="M0 1000h125v125h125v125h250v-125h125v-125h125v-750h-125v-125h-125v-125h-250v125h-125v125h-125v750zM250 1125v-1000h250v1000h-250z" />
    <glyph glyph-name="P" unicode="P" 
d="M0 1250v-1250h250v375h250v125h125v125h125v375h-125v125h-125v125h-500zM250 1125h250v-500h-125v-125h-125v625z" />
    <glyph glyph-name="Q" unicode="Q" 
d="M0 1000h125v125h125v125h250v-125h125v-125h125v-750h-125v-125h125v-125h-125v125h-125v-125h-250v125h-125v125h-125v750zM250 1125v-1000h250v125h-125v125h125v750h-250z" />
    <glyph glyph-name="R" unicode="R" 
d="M250 1125h250v-500h-125v-125h-125v625zM500 0h250v374l-125 1v250h125v375h-125v125h-125v125h-500v-1250h250v375h250v-375z" />
    <glyph glyph-name="S" unicode="S" 
d="M750 1250h-625v-125h-125v-375h125v-125h250v-125h125v-375h-500v-125h625v125h125v500h-125v125h-250h-125v125v250h500v125z" />
    <glyph glyph-name="T" unicode="T" 
d="M0 1250v-125h250v-1125h250v1125h250v125h-750z" />
    <glyph glyph-name="U" unicode="U" 
d="M250 0v125h-125v125h-125v1000h250v-1000h125v-125h125v1125h250v-1250h-500z" />
    <glyph glyph-name="V" unicode="V" 
d="M0 375v874h250v-999h125v-125h125v1124h250v-999h-125v-125h-125v-125h-249v125h-125l-1 250h-125z" />
    <glyph glyph-name="W" unicode="W" horiz-adv-x="1375" 
d="M250 125h-125v250h-125v875h250v-1000h125v-125h125v-125h-250v125zM875 125h125v1125h250v-1250h-500v125h-250v1125h250v-1000h125v-125z" />
    <glyph glyph-name="X" unicode="X" 
d="M0 875v375h250v-500h250v500h250v-375h-125v-375h125v-500h-250v625h-250v-625h-250v500h125v375h-125z" />
    <glyph glyph-name="Y" unicode="Y" 
d="M0 1250v-375h125v-375h125v-500h250v500h125v375h125v375h-250v-625h-250v625h-250z" />
    <glyph glyph-name="Z" unicode="Z" 
d="M0 1250v-125h500v-125h-125v-250h-125l1 -250h-125l-1 -250h-125v-250h750v125h-500v125h125l1 250h125l-1 250h125v250h125v250h-750z" />
    <glyph glyph-name="bracketleft" unicode="[" horiz-adv-x="375" 
d="M250 1375h-250v-1500h250v125h-125v1250h125v125z" />
    <glyph glyph-name="backslash" unicode="\" horiz-adv-x="500" 
d="M250 0v374h-125v501h-125v375h125v-375h125v-500h125v-375h-125z" />
    <glyph glyph-name="bracketright" unicode="]" horiz-adv-x="375" 
d="M0 1250h125v-1250h-125v-125h250v1500h-250v-125z" />
    <glyph glyph-name="asciicircum" unicode="^" 
d="M250 1375v-125h-125v-125h-125v-125h125v125h125v125h250v-125h125v-125h125v125h-125v125h-125v125h-250z" />
    <glyph glyph-name="underscore" unicode="_" horiz-adv-x="750" 
d="M0 0v-125h750v125h-750z" />
    <glyph glyph-name="grave" unicode="`" horiz-adv-x="375" 
d="M0 1250h250v-250h-125v125h-125v125z" />
    <glyph glyph-name="a" unicode="a" 
d="M0 250v375h125v125h125v125h500v-875h-500v125h-125v125h-125zM250 750v-501h125v-125h125v626h-250z" />
    <glyph glyph-name="b" unicode="b" 
d="M0 0v1250h250v-375h250v-125h125v-125h125v-375h-125v-125h-125v-125h-500zM250 750v-625h125v125h125v375h-125v125h-125z" />
    <glyph glyph-name="c" unicode="c" horiz-adv-x="750" 
d="M0 250v375h125v125h125v125h375v-125h-250v-125h-125v-375h125v-125h250v-125h-375v125h-125v125h-125z" />
    <glyph glyph-name="d" unicode="d" 
d="M0 250v375h125v125h125v125h250v375h250v-1250h-500v125h-125v125h-125zM250 750v-625h250v625h-250z" />
    <glyph glyph-name="e" unicode="e" 
d="M0 250v375h125v125h125v125h375v-125h125v-375h-500v-125h125v-125h250v-125h-375v125h-125v125h-125zM250 500h250v250h-250v-250z" />
    <glyph glyph-name="f" unicode="f" horiz-adv-x="750" 
d="M250 0v750h-250v125h250v250h125v125h250v-125h-125v-250h125v-125h-125v-750h-250z" />
    <glyph glyph-name="g" unicode="g" 
d="M625 -250v-125h-500l1 125h-126l1 125h250l-1 -125h250v375h-125v-125h-250v125h-125v625h125v125h625l1 -1125h-126zM500 750h-250v-625h125l1 125h124v500z" />
    <glyph glyph-name="h" unicode="h" 
d="M250 0v750h125v-125h125v-625h250v625h-125v125h-125v125h-250v375h-250v-1250h250z" />
    <glyph glyph-name="i" unicode="i" horiz-adv-x="375" 
d="M0 0v750h250v-750h-250zM0 1000h250v-125h-250v125z" />
    <glyph glyph-name="j" unicode="j" horiz-adv-x="375" 
d="M125 -250l1 -125h-250l-1 125h125v1000h250v-1000h-125zM0 1000h250v-125h-250v125z" />
    <glyph glyph-name="k" unicode="k" 
d="M0 0v1250h250v-750h125v125h125v250h250v-250h-125v-125h-125v-125h125v-125h124l1 -250h-250v250h-125v125h-125v-375h-250z" />
    <glyph glyph-name="l" unicode="l" horiz-adv-x="500" 
d="M250 1250h-250v-1125h125v-125h250v125h-125v1125z" />
    <glyph glyph-name="m" unicode="m" horiz-adv-x="1375" 
d="M875 750v125h250v-125h125v-750h-250v750h-125zM750 750h125v-125h-125v-625h-250v750h-125v125h375v-125zM375 750v-125h-125v-625h-250v875h250v-125h125z" />
    <glyph glyph-name="n" unicode="n" 
d="M0 0v875h250v-125h125v125h250v-125h125v-750h-250v750h-125v-125h-125v-625h-250z" />
    <glyph glyph-name="o" unicode="o" 
d="M0 250v375h125v125h125v125h250v-125h125v-125h125v-375h-125v-125h-125v-125h-250v125h-125v125h-125zM250 750v-625h250v625h-250z" />
    <glyph glyph-name="p" unicode="p" 
d="M0 -375v1250h250v-125h125v125h250v-125h125v-625h-125v-125h-375v-375h-250zM250 625v-500h125v125h125v500h-125v-125h-125z" />
    <glyph glyph-name="q" unicode="q" 
d="M500 -375v375h-375v125h-125v625h125v125h625v-1250h-250zM500 750h-250v-625h125v125h125v500z" />
    <glyph glyph-name="r" unicode="r" horiz-adv-x="750" 
d="M0 0v875h250v-125h125v125h250v-125h-250v-125h-125v-625h-250z" />
    <glyph glyph-name="s" unicode="s" horiz-adv-x="750" 
d="M0 0v125h375v250h-250v125h-125v250h125v125h500v-125h-375v-250h250v-125h125v-250h-125v-125h-500z" />
    <glyph glyph-name="t" unicode="t" horiz-adv-x="750" 
d="M0 750h250v-625h125v-125h250v125h-125v625h125v125h-125v125h-250v-125h-250v-125z" />
    <glyph glyph-name="u" unicode="u" 
d="M250 0v125h-125v125h-125v625h250v-750h250v750h250v-875h-500z" />
    <glyph glyph-name="v" unicode="v" 
d="M0 375v500h250v-750h125v125h125v625h250v-625h-125v-125h-125v-125h-250v125h-125v250h-125z" />
    <glyph glyph-name="w" unicode="w" horiz-adv-x="1375" 
d="M250 125h-125v250h-125v500h250v-625h125v-125h125v-125h-250v125zM875 125h125v750h250v-875h-500v125h-250v750h250v-625h125v-125z" />
    <glyph glyph-name="x" unicode="x" 
d="M0 500v375h250v-375h250v375h250v-375h-125v-125h125v-375h-250v375h-250v-375h-250v375h125v125h-125z" />
    <glyph glyph-name="y" unicode="y" 
d="M0 875h250v-625h125v-125h125v750h250v-1000h-125v-125h-125v-125h-375v125h250v125h125v125h-250v125h-125v125h-125v625z" />
    <glyph glyph-name="z" unicode="z" 
d="M0 875v-125h500v-125h-125v-125h-125v-125h-125v-125h-125v-250h750v125h-500v125h125v125h125v125h125v125h125v250h-750z" />
    <glyph glyph-name="braceleft" unicode="{" horiz-adv-x="500" 
d="M375 1250h-125v-125h-125v-375h-125v-250h125v-375h125v-125h125v125h-125v375h-125v250h125v375h125v125z" />
    <glyph glyph-name="bar" unicode="|" horiz-adv-x="250" 
d="M1 1251l-1 -1251h125l1 1250z" />
    <glyph glyph-name="braceright" unicode="}" horiz-adv-x="500" 
d="M1 1125h125l-1 -375h125v-250h-125v-375h-125v-125h125v125h125v375h125v250h-125l1 375h-125v125h-125v-125z" />
    <glyph glyph-name="asciitilde" unicode="~" 
d="M125 375h-125v125h125v125h250v-125h250v125h125v-125h-125v-125l-250 -1v126h-250v-125z" />
    <glyph glyph-name="Adieresis" unicode="&#xc4;" 
d="M250 0h-250v875h125v250h125v125h500v-1250h-250v375h-250v-375zM500 500v625h-125v-125h-125v-500h250zM125 1500v-125h250v125h-250zM499 1500v-125h250v125h-250z" />
    <glyph glyph-name="Aring" unicode="&#xc5;" 
d="M250 0h-250v875h125v250h125v125h500v-1250h-250v375h-250v-375zM500 500v625h-125v-125h-125v-500h250zM500 1750v-125h126v-125h-125v-125h-126v125h-125v125h125v125h125zM375 1500h126l-1 125h-125v-125z" />
    <glyph glyph-name="Ccedilla" unicode="&#xc7;" 
d="M250 0v125h-125v125h-125v750h125v125h125v125h375v-125h125v-250h-250v250h-250v-1000h250v250h250v-250h-125v-125h-375zM125 -125h250v125h125v-250h-375v125z" />
    <glyph glyph-name="Eacute" unicode="&#xc9;" 
d="M750 1125h-500v-375h375v-125h-375v-500h500v-125h-750v1250h750v-125zM500 1500h-125v-125h-125v250h250v-125z" />
    <glyph glyph-name="Ntilde" unicode="&#xd1;" 
d="M0 1250v-1250h250v625h125v-375h125v-250h250v1250h-250v-625h-125v375h-125v250h-250zM125 1375h-125v125h125v125h250v-125l250 -1v125h125v-125h-125v-124h-250v125h-250v-125z" />
    <glyph glyph-name="Odieresis" unicode="&#xd6;" 
d="M0 1000h125v125h125v125h250v-125h125v-125h125v-750h-125v-125h-125v-125h-250v125h-125v125h-125v750zM250 1125v-1000h250v1000h-250zM125 1500v-125h250v125h-250zM499 1500v-125h250v125h-250z" />
    <glyph glyph-name="Udieresis" unicode="&#xdc;" 
d="M250 0v125h-125v125h-125v1000h250v-1000h125v-125h125v1125h250v-1250h-500zM125 1500v-125h250v125h-250zM499 1500v-125h250v125h-250z" />
    <glyph glyph-name="aacute" unicode="&#xe1;" 
d="M0 250v375h125v125h125v125h500v-875h-500v125h-125v125h-125zM250 750v-501h125v-125h125v626h-250zM500 1125h-125v-125h-125v250h250v-125z" />
    <glyph glyph-name="agrave" unicode="&#xe0;" 
d="M0 250v375h125v125h125v125h500v-875h-500v125h-125v125h-125zM250 750v-501h125v-125h125v626h-250zM250 1250h250v-250h-125v125h-125v125z" />
    <glyph glyph-name="acircumflex" unicode="&#xe2;" 
d="M0 250v375h125v125h125v125h500v-875h-500v125h-125v125h-125zM250 750v-501h125v-125h125v626h-250zM250 1126h250v-125h125v125h-125v251h-250v-251l-125 1v-125l125 -1v125z" />
    <glyph glyph-name="adieresis" unicode="&#xe4;" 
d="M0 250v375h125v125h125v125h500v-875h-500v125h-125v125h-125zM250 750v-501h125v-125h125v626h-250zM125 1126v-125h250v125h-250zM499 1126v-125h250v125h-250z" />
    <glyph glyph-name="atilde" unicode="&#xe3;" 
d="M0 250v375h125v125h125v125h500v-875h-500v125h-125v125h-125zM250 750v-501h125v-125h125v626h-250zM125 1001h-125v125h125v125h250v-125l250 -1v125h125v-125h-125v-124h-250v125h-250v-125z" />
    <glyph glyph-name="aring" unicode="&#xe5;" 
d="M0 250v375h125v125h125v125h500v-875h-500v125h-125v125h-125zM250 750v-501h125v-125h125v626h-250zM500 1376v-125h126v-125h-125v-125h-126v125h-125v125h125v125h125zM375 1126h126l-1 125h-125v-125z" />
    <glyph glyph-name="ccedilla" unicode="&#xe7;" horiz-adv-x="750" 
d="M0 250v375h125v125h125v125h375v-125h-250v-125h-125v-375h125v-125h250v-125h-375v125h-125v125h-125zM125 -125h250v125h125v-250h-375v125z" />
    <glyph glyph-name="eacute" unicode="&#xe9;" 
d="M0 250v375h125v125h125v125h375v-125h125v-375h-500v-125h125v-125h250v-125h-375v125h-125v125h-125zM250 500h250v250h-250v-250zM500 1125h-125v-125h-125v250h250v-125z" />
    <glyph glyph-name="egrave" unicode="&#xe8;" 
d="M0 250v375h125v125h125v125h375v-125h125v-375h-500v-125h125v-125h250v-125h-375v125h-125v125h-125zM250 500h250v250h-250v-250zM250 1250h250v-250h-125v125h-125v125z" />
    <glyph glyph-name="ecircumflex" unicode="&#xea;" 
d="M0 250v375h125v125h125v125h375v-125h125v-375h-500v-125h125v-125h250v-125h-375v125h-125v125h-125zM250 500h250v250h-250v-250zM250 1126h250v-125h125v125h-125v251h-250v-251l-125 1v-125l125 -1v125z" />
    <glyph glyph-name="edieresis" unicode="&#xeb;" 
d="M0 250v375h125v125h125v125h375v-125h125v-375h-500v-125h125v-125h250v-125h-375v125h-125v125h-125zM250 500h250v250h-250v-250zM125 1126v-125h250v125h-250zM499 1126v-125h250v125h-250z" />
    <glyph glyph-name="iacute" unicode="&#xed;" horiz-adv-x="375" 
d="M1 0v750h250v-750h-250zM250 1000h-125v-125h-125v250h250v-125z" />
    <glyph glyph-name="igrave" unicode="&#xec;" horiz-adv-x="375" 
d="M0 0v750h250v-750h-250zM0 1126h250v-250h-125v125h-125v125z" />
    <glyph glyph-name="icircumflex" unicode="&#xee;" horiz-adv-x="375" 
d="M0 0v750h250v-750h-250zM0 1000h250v-125h125v125h-125v251h-250v-251l-125 1v-125l125 -1v125z" />
    <glyph glyph-name="idieresis" unicode="&#xef;" horiz-adv-x="375" 
d="M1 0v750h250v-750h-250zM-124 1000v-125h250v125h-250zM250 1000v-125h250v125h-250z" />
    <glyph glyph-name="ntilde" unicode="&#xf1;" 
d="M0 0v875h250v-125h125v125h250v-125h125v-750h-250v750h-125v-125h-125v-625h-250zM125 1000h-125v125h125v125h250v-125l250 -1v125h125v-125h-125v-124h-250v125h-250v-125z" />
    <glyph glyph-name="oacute" unicode="&#xf3;" 
d="M0 250v375h125v125h125v125h250v-125h125v-125h125v-375h-125v-125h-125v-125h-250v125h-125v125h-125zM250 750v-625h250v625h-250zM500 1125h-125v-125h-125v250h250v-125z" />
    <glyph glyph-name="ograve" unicode="&#xf2;" 
d="M0 250v375h125v125h125v125h250v-125h125v-125h125v-375h-125v-125h-125v-125h-250v125h-125v125h-125zM250 750v-625h250v625h-250zM250 1250h250v-250h-125v125h-125v125z" />
    <glyph glyph-name="ocircumflex" unicode="&#xf4;" 
d="M0 250v375h125v125h125v125h250v-125h125v-125h125v-375h-125v-125h-125v-125h-250v125h-125v125h-125zM250 750v-625h250v625h-250zM250 1126h250v-125h125v125h-125v251h-250v-251l-125 1v-125l125 -1v125z" />
    <glyph glyph-name="odieresis" unicode="&#xf6;" 
d="M0 250v375h125v125h125v125h250v-125h125v-125h125v-375h-125v-125h-125v-125h-250v125h-125v125h-125zM250 750v-625h250v625h-250zM125 1125v-125h250v125h-250zM499 1125v-125h250v125h-250z" />
    <glyph glyph-name="otilde" unicode="&#xf5;" 
d="M0 250v375h125v125h125v125h250v-125h125v-125h125v-375h-125v-125h-125v-125h-250v125h-125v125h-125zM250 750v-625h250v625h-250zM125 1000h-125v125h125v125h250v-125l250 -1v125h125v-125h-125v-124h-250v125h-250v-125z" />
    <glyph glyph-name="uacute" unicode="&#xfa;" 
d="M250 0v125h-125v125h-125v625h250v-750h250v750h250v-875h-500zM500 1125h-125v-125h-125v250h250v-125z" />
    <glyph glyph-name="ugrave" unicode="&#xf9;" 
d="M250 0v125h-125v125h-125v625h250v-750h250v750h250v-875h-500zM250 1250h250v-250h-125v125h-125v125z" />
    <glyph glyph-name="ucircumflex" unicode="&#xfb;" 
d="M250 0v125h-125v125h-125v625h250v-750h250v750h250v-875h-500zM250 1125h250v-125h125v125h-125v251h-250v-251l-125 1v-125l125 -1v125z" />
    <glyph glyph-name="udieresis" unicode="&#xfc;" 
d="M250 0v125h-125v125h-125v625h250v-750h250v750h250v-875h-500zM125 1126v-125h250v125h-250zM499 1126v-125h250v125h-250z" />
    <glyph glyph-name="degree" unicode="&#xb0;" horiz-adv-x="625" 
d="M375 1250v-125h125v-250h-125v-125h-250v125h-125v250h125v125h250zM125 875h250v250h-250v-250z" />
    <glyph glyph-name="section" unicode="&#xa7;" 
d="M0 750v-250h124l2 -125h373v-250h-250v125h-249v-125h124v-125h500v125h125v250h-125v125h126v250h-125v125h-375v250h250v-125h250v125h-125v125h-500v-125h-125v-250h125v-125h-125zM250 500l-1 250h252l-1 -250h-250z" />
    <glyph glyph-name="bullet" unicode="&#x2022;" horiz-adv-x="625" 
d="M0 750v-250h125v-125h250v125h125v250h-125v125h-250v-125h-125z" />
    <glyph glyph-name="paragraph" unicode="&#xb6;" 
d="M125 1250v-125h-125v-500h125v-625h250v1125h125v-1125h250v1250h-625z" />
    <glyph glyph-name="germandbls" unicode="&#xdf;" 
d="M250 -375h-250v1500h125v125h375v-125h125v-125h125v-250h-125v-125h125v-500h-125v-125h-250v125h125v500h-125v125h125v250h-125v125h-125v-1500z" />
    <glyph glyph-name="registered" unicode="&#xae;" horiz-adv-x="1000" 
d="M0 0v1250l1000 1v-1251h-1000zM375 1000h-125v-250h125v250zM625 1000v-250h125v250h-125zM375 375h250v-125h125v125h-125v124h-250v-124h-125v-125h125v125z" />
    <glyph glyph-name="copyright" unicode="&#xa9;" horiz-adv-x="1000" 
d="M0 0v1250l1000 1v-1251h-1000zM125 125h750v1000h-750v-1000zM375 750h-125v250h125v-250zM750 1000v-250h-125v250h125zM375 250h-125v125h125v124h250v-124h125v-125h-125v125h-250v-125z" />
    <glyph glyph-name="trademark" unicode="&#x2122;" horiz-adv-x="1000" 
d="M0 1250v-125h125v-250h125v250h125v125h-375zM500 1250v-375h125v125h125v-125h125v375h-125v-125h-125v125h-125z" />
    <glyph glyph-name="acute" unicode="&#xb4;" horiz-adv-x="375" 
d="M250 1125h-125v-125h-125v250h250v-125z" />
    <glyph glyph-name="dieresis" unicode="&#xa8;" horiz-adv-x="1000" 
d="M125 1500v-125h250v125h-250zM499 1500v-125h250v125h-250z" />
    <glyph glyph-name="notequal" unicode="&#x2260;" horiz-adv-x="750" 
d="M625 875v-125h-625v125h625zM625 250h-625v125h625v-125zM125 -59v375h125v500h125v376l125 -1v-375h-125v-501h-125v-374h-125z" />
    <glyph glyph-name="AE" unicode="&#xc6;" horiz-adv-x="1375" 
d="M250 0h-250v875h125v250h125v125h500v-1250h-250v375h-250v-375zM500 500v625h-125v-125h-125v-500h250zM1250 1125h-500v-375h375v-125h-375v-500h500v-125h-750v1250h750v-125z" />
    <glyph glyph-name="Oslash" unicode="&#xd8;" 
d="M1 1000h125v125h125v125h250v-125h125v-125h125v-750h-125v-125h-125v-125h-250v125h-125v125h-125v750zM251 1125v-1000h250v1000h-250zM375 624l-1 251h125v250h125v125h125v-125h-125v-250h-125v-250h-124v-251h-125v-249h-125v-125h-125v125h125v249h125v125v125h125
z" />
    <glyph glyph-name="plusminus" unicode="&#xb1;" horiz-adv-x="750" 
d="M250 875v-250h-250v-125h250v-250h125v250h250v125h-250v250h-125zM0 125v-125h625v125h-625z" />
    <glyph glyph-name="lessequal" unicode="&#x2264;" horiz-adv-x="750" 
d="M0 750h125v125h125v125h125v125h126v125h125v-125h-125l-1 -125h-125l1 -125h-126v-125h-125v-125h126l-1 -125h125l1 -125h125v-125h125v-125h-125v125h-125l-1 125l-124 -1v126h-126v125h-125v125zM0 125v-125h625v125h-625z" />
    <glyph glyph-name="greaterequal" unicode="&#x2265;" horiz-adv-x="750" 
d="M626 625h-125v-125h-125v-126l-125 1l-1 -125h-124l-1 -125h-125v125h125l1 125h124l1 125h125l-1 125h126v125h-125v125h-126l1 125h-125l-1 125h-125v125h126v-125h125v-125h125v-125h125v-125h125v-125zM1 125v-125h625v125h-625z" />
    <glyph glyph-name="yen" unicode="&#xa5;" 
d="M625 250v125h-125v125h250v125h-125v250h125v375h-250v-625h-250v625h-250v-375h125v-250h-125v-125h250v-125h-125v-125h125v-250h250v250h125z" />
    <glyph glyph-name="mu" unicode="&#xb5;" 
d="M250 0v-375h-250v1250h250v-750h125v125h125v625h250v-751l-125 1v-125h-375z" />
    <glyph glyph-name="ae" unicode="&#xe6;" horiz-adv-x="1375" 
d="M0 250v375h125v125h125v125h500v-875h-500v125h-125v125h-125zM250 750v-501h125v-125h125v626h-250zM500 250v375h125v125h125v125h375v-125h125v-375h-500v-125h125v-125h250v-125h-375v125h-125v125h-125zM750 500h250v250h-250v-250z" />
    <glyph glyph-name="oslash" unicode="&#xf8;" 
d="M0 250v375h125v125h125v125h250v-125h125v-125h125v-375h-125v-125h-125v-125h-250v125h-125v125h-125zM250 750v-625h250v625h-250zM375 500v125h125v125h125v125h125v-125h-125v-125h-125v-250h-125v-125h-125v-125h-125v-125h-125v125h125v125h125v125v125h125z" />
    <glyph glyph-name="questiondown" unicode="&#xbf;" 
d="M501 625v-375l-124 -1v-125l-126 1l-1 -374h250l1 125h250l-1 -125h-125v-125h-500v125h-125l1 374h125l1 125l124 -1v375zM252 750l-1 125h250l1 -125h-250z" />
    <glyph glyph-name="exclamdown" unicode="&#xa1;" horiz-adv-x="375" 
d="M250 -374v999h-250v-999h250zM250 750v125h-250v-125h250z" />
    <glyph glyph-name="guillemotleft" unicode="&#xab;" 
d="M0 625h125v125h125v125h125v125h126l-1 -125h-125l1 -125h-126v-125h-125v-125h126l-1 -125h125l1 -125h125v-125h-125l-1 125l-124 -1v126h-126v125h-125v125zM250 625h125v125h125v125h125v125h126l-1 -125h-125l1 -125h-126v-125h-125v-125h126l-1 -125h125l1 -125
h125v-125h-125l-1 125l-124 -1v126h-126v125h-125v125z" />
    <glyph glyph-name="guillemotright" unicode="&#xbb;" 
d="M501 500h-125v-125h-126v-126l-124 1l-1 -125h-125v125h125l1 125h125l-1 125h126v125h-125v125h-126l1 125h-125l-1 125h126v-125h125v-125h125v-125h125v-125zM751 500h-125v-125h-126v-126l-124 1l-1 -125h-125v125h125l1 125h125l-1 125h126v125h-125v125h-126l1 125
h-125l-1 125h126v-125h125v-125h125v-125h125v-125z" />
    <glyph glyph-name="ellipsis" unicode="&#x2026;" horiz-adv-x="1125" 
d="M0 125v-125h250v125h-250zM375 125v-125h250v125h-250zM750 125v-125h250v125h-250z" />
    <glyph glyph-name="Agrave" unicode="&#xc0;" 
d="M250 0h-250v875h125v250h125v125h500v-1250h-250v375h-250v-375zM500 500v625h-125v-125h-125v-500h250zM250 1625h250v-250h-125v125h-125v125z" />
    <glyph glyph-name="Atilde" unicode="&#xc3;" 
d="M250 0h-250v875h125v250h125v125h500v-1250h-250v375h-250v-375zM500 500v625h-125v-125h-125v-500h250zM125 1375h-125v125h125v125h250v-125l250 -1v125h125v-125h-125v-124h-250v125h-250v-125z" />
    <glyph glyph-name="Otilde" unicode="&#xd5;" 
d="M0 1000h125v125h125v125h250v-125h125v-125h125v-750h-125v-125h-125v-125h-250v125h-125v125h-125v750zM250 1125v-1000h250v1000h-250zM125 1375h-125v125h125v125h250v-125l250 -1v125h125v-125h-125v-124h-250v125h-250v-125z" />
    <glyph glyph-name="OE" unicode="&#x152;" horiz-adv-x="1375" 
d="M0 1000h125v125h125v125h250v-125h125v-125h125v-750h-125v-125h-125v-125h-250v125h-125v125h-125v750zM250 1125v-1000h250v1000h-250zM1250 1125h-500v-375h375v-125h-375v-500h500v-125h-750v1250h750v-125z" />
    <glyph glyph-name="oe" unicode="&#x153;" horiz-adv-x="1375" 
d="M0 250v375h125v125h125v125h250v-125h125v-125h125v-375h-125v-125h-125v-125h-250v125h-125v125h-125zM250 750v-625h250v625h-250zM500 250v375h125v125h125v125h375v-125h125v-375h-500v-125h125v-125h250v-125h-375v125h-125v125h-125zM750 500h250v250h-250v-250z
" />
    <glyph glyph-name="endash" unicode="&#x2013;" horiz-adv-x="750" 
d="M0 625v-125h750v125h-750z" />
    <glyph glyph-name="emdash" unicode="&#x2014;" horiz-adv-x="1000" 
d="M0 625v-125h1000v125h-1000z" />
    <glyph glyph-name="quotedblleft" unicode="&#x201c;" horiz-adv-x="625" 
d="M250 1000h-250v250h125v-125h125v-125zM500 1000h-250v250h125v-125h125v-125z" />
    <glyph glyph-name="quotedblright" unicode="&#x201d;" horiz-adv-x="625" 
d="M0 1250h250v-250h-125v125h-125v125zM250 1250h250v-250h-125v125h-125v125z" />
    <glyph glyph-name="quoteleft" unicode="&#x2018;" horiz-adv-x="375" 
d="M250 1000h-250v250h125v-125h125v-125z" />
    <glyph glyph-name="quoteright" unicode="&#x2019;" horiz-adv-x="375" 
d="M0 1250h250v-250h-125v125h-125v125z" />
    <glyph glyph-name="divide" unicode="&#xf7;" horiz-adv-x="750" 
d="M0 625v-125h625v125h-625zM192 250v-125h250v125h-250zM192 1000v-125h250v125h-250z" />
    <glyph glyph-name="ydieresis" unicode="&#xff;" 
d="M0 875h250v-625h125v-125h125v750h250v-1000h-125v-125h-125v-125h-375v125h250v125h125v125h-250v125h-125v125h-125v625zM125 1125v-125h250v125h-250zM499 1125v-125h250v125h-250z" />
    <glyph glyph-name="Ydieresis" unicode="&#x178;" 
d="M0 1250v-375h125v-375h125v-500h250v500h125v375h125v375h-250v-625h-250v625h-250zM125 1500v-125h250v125h-250zM499 1500v-125h250v125h-250z" />
    <glyph glyph-name="guilsinglleft" unicode="&#x2039;" horiz-adv-x="625" 
d="M0 625h125v125h125v125h125v125h126l-1 -125h-125l1 -125h-126v-125h-125v-125h126l-1 -125h125l1 -125h125v-125h-125l-1 125l-124 -1v126h-126v125h-125v125z" />
    <glyph glyph-name="guilsinglright" unicode="&#x203a;" horiz-adv-x="625" 
d="M501 500h-125v-125h-126v-126l-124 1l-1 -125h-125v125h125l1 125h125l-1 125h126v125h-125v125h-126l1 125h-125l-1 125h126v-125h125v-125h125v-125h125v-125z" />
    <glyph glyph-name="periodcentered" unicode="&#xb7;" 
d="M500 627v-251h-250v251h250z" />
    <glyph glyph-name="periodcentered" unicode="&#x2219;" 
d="M500 627v-251h-250v251h250z" />
    <glyph glyph-name="quotesinglbase" unicode="&#x201a;" horiz-adv-x="375" 
d="M0 124h250v-250h-125v125h-125v125z" />
    <glyph glyph-name="quotedblbase" unicode="&#x201e;" horiz-adv-x="625" 
d="M0 124h250v-250h-125v125h-125v125zM250 125h250v-250h-125v125h-125v125z" />
    <glyph glyph-name="perthousand" unicode="&#x2030;" horiz-adv-x="1875" 
d="M375 -1v376h125v500h125v376l125 -1v-375h-125v-501h-125v-375h-125zM375 1250v-125h125v-250h-125v-125h-250v125h-125v250h125v125h250zM125 875h250v250h-250v-250zM1000 500v-125h125v-250h-125v-125h-250v125h-125v250h125v125h250zM750 125h250v250h-250v-250z
M1625 500v-125h125v-250h-125v-125h-250v125h-125v250h125v125h250zM1375 125h250v250h-250v-250z" />
    <glyph glyph-name="Acircumflex" unicode="&#xc2;" 
d="M250 0h-250v875h125v250h125v125h500v-1250h-250v375h-250v-375zM500 500v625h-125v-125h-125v-500h250zM250 1500h250v-125h125v125h-125v251h-250v-251l-125 1v-125l125 -1v125z" />
    <glyph glyph-name="Ecircumflex" unicode="&#xca;" 
d="M750 1125h-500v-375h375v-125h-375v-500h500v-125h-750v1250h750v-125zM250 1500h250v-125h125v125h-125v251h-250v-251l-125 1v-125l125 -1v125z" />
    <glyph glyph-name="Aacute" unicode="&#xc1;" 
d="M250 0h-250v875h125v250h125v125h500v-1250h-250v375h-250v-375zM500 500v625h-125v-125h-125v-500h250zM500 1499h-125v-125h-125v250h250v-125z" />
    <glyph glyph-name="Edieresis" unicode="&#xcb;" 
d="M750 1125h-500v-375h375v-125h-375v-500h500v-125h-750v1250h750v-125zM125 1500v-125h250v125h-250zM499 1500v-125h250v125h-250z" />
    <glyph glyph-name="Egrave" unicode="&#xc8;" 
d="M750 1125h-500v-375h375v-125h-375v-500h500v-125h-750v1250h750v-125zM250 1625h250v-250h-125v125h-125v125z" />
    <glyph glyph-name="Iacute" unicode="&#xcd;" horiz-adv-x="375" 
d="M1 1250v-1250h250v1250h-250zM250 1500h-125v-125h-125v250h250v-125z" />
    <glyph glyph-name="Icircumflex" unicode="&#xce;" horiz-adv-x="375" 
d="M0 1250v-1250h250v1250h-250zM0 1500h250v-125h125v125h-125v251h-250v-251l-125 1v-125l125 -1v125z" />
    <glyph glyph-name="Idieresis" unicode="&#xcf;" horiz-adv-x="375" 
d="M1 1250v-1250h250v1250h-250zM-124 1500v-125h250v125h-250zM250 1500v-125h250v125h-250z" />
    <glyph glyph-name="Igrave" unicode="&#xcc;" horiz-adv-x="375" 
d="M0 1250v-1250h250v1250h-250zM0 1625h250v-250h-125v125h-125v125z" />
    <glyph glyph-name="Oacute" unicode="&#xd3;" 
d="M0 1000h125v125h125v125h250v-125h125v-125h125v-750h-125v-125h-125v-125h-250v125h-125v125h-125v750zM250 1125v-1000h250v1000h-250zM500 1500h-125v-125h-125v250h250v-125z" />
    <glyph glyph-name="Ocircumflex" unicode="&#xd4;" 
d="M0 1000h125v125h125v125h250v-125h125v-125h125v-750h-125v-125h-125v-125h-250v125h-125v125h-125v750zM250 1125v-1000h250v1000h-250zM250 1500h250v-125h125v125h-125v251h-250v-251l-125 1v-125l125 -1v125z" />
    <glyph glyph-name="Ograve" unicode="&#xd2;" 
d="M0 1000h125v125h125v125h250v-125h125v-125h125v-750h-125v-125h-125v-125h-250v125h-125v125h-125v750zM250 1125v-1000h250v1000h-250zM250 1625h250v-250h-125v125h-125v125z" />
    <glyph glyph-name="Uacute" unicode="&#xda;" 
d="M250 0v125h-125v125h-125v1000h250v-1000h125v-125h125v1125h250v-1250h-500zM500 1499h-125v-125h-125v250h250v-125z" />
    <glyph glyph-name="Ucircumflex" unicode="&#xdb;" 
d="M250 0v125h-125v125h-125v1000h250v-1000h125v-125h125v1125h250v-1250h-500zM250 1500h250v-125h125v125h-125v251h-250v-251l-125 1v-125l125 -1v125z" />
    <glyph glyph-name="Ugrave" unicode="&#xd9;" 
d="M250 0v125h-125v125h-125v1000h250v-1000h125v-125h125v1125h250v-1250h-500zM250 1625h250v-250h-125v125h-125v125z" />
    <glyph glyph-name="dotlessi" unicode="&#x131;" horiz-adv-x="375" 
d="M0 0v750h250v-750h-250z" />
    <glyph glyph-name="circumflex" unicode="&#x2c6;" 
d="M250 1500h250v-125h125v125h-125v251h-250v-251l-125 1v-125l125 -1v125z" />
    <glyph glyph-name="tilde" unicode="&#x2dc;" 
d="M125 1375h-125v125h125v125h250v-125l250 -1v125h125v-125h-125v-124h-250v125h-250v-125z" />
    <glyph glyph-name="uni02C9" unicode="&#x2c9;" 
d="M125 1500v-125h500v125h-500z" />
    <glyph glyph-name="breve" unicode="&#x2d8;" 
d="M251 1625h-125v-125h125v-125h250v125h125v125h-125v-125h-250v125z" />
    <glyph glyph-name="dotaccent" unicode="&#x2d9;" 
d="M500 1626v-251h-250v251h250z" />
    <glyph glyph-name="ring" unicode="&#x2da;" 
d="M500 1750v-125h126v-125h-125v-125h-126v125h-125v125h125v125h125zM375 1500h126l-1 125h-125v-125z" />
    <glyph glyph-name="cedilla" unicode="&#xb8;" 
d="M250 -126h250v125h125v-250h-375v125z" />
    <glyph glyph-name="hungarumlaut" unicode="&#x2dd;" 
d="M249 1376h-125v250h250v-125h-125v-125zM500 1375h-125v250h250v-125h-125v-125z" />
    <glyph glyph-name="ogonek" unicode="&#x2db;" 
d="M750 -250h-375v250h125v-125h250v-125z" />
    <glyph glyph-name="caron" unicode="&#x2c7;" 
d="M250 1751l-125 -1v-125l125 1v-251h250v251h125v125h-125v-125h-250v125z" />
    <glyph glyph-name="Lslash" unicode="&#x141;" 
d="M499 874v125h125v-125h-125zM375 874h124l1 -124h-125v-625h375v-125h-625v374h-125v125h125v751h250v-376zM0 374v-125h-125v125h125z" />
    <glyph glyph-name="lslash" unicode="&#x142;" horiz-adv-x="625" 
d="M249 624h1v1h-1v-1zM499 875v125h125v-125h-125zM375 875h124v-124h-124v-626h125v-125h-250v125h-125v250h-125v125h125v750h250v-375zM0 375v-125h-125v125h125z" />
    <glyph glyph-name="Scaron" unicode="&#x160;" 
d="M750 1250h-625v-125h-125v-375h125v-125h250v-125h125v-375h-500v-125h625v125h125v500h-125v125h-250h-125v125v250h500v125zM250 1751l-125 -1v-125l125 1v-251h250v251h125v125h-125v-125h-250v125z" />
    <glyph glyph-name="scaron" unicode="&#x161;" horiz-adv-x="750" 
d="M0 0v125h375v250h-250v125h-125v250h125v125h500v-125h-375v-250h250v-125h125v-250h-125v-125h-500zM250 1375l-125 -1v-125l125 1v-251h250v251h125v125h-125v-125h-250v125z" />
    <glyph glyph-name="Zcaron" unicode="&#x17d;" 
d="M0 1250v-125h500v-125h-125v-250h-125l1 -250h-125l-1 -250h-125v-250h750v125h-500v125h125l1 250h125l-1 250h125v250h125v250h-750zM250 1751l-125 -1v-125l125 1v-251h250v251h125v125h-125v-125h-250v125z" />
    <glyph glyph-name="zcaron" unicode="&#x17e;" 
d="M0 875v-125h500v-125h-125v-125h-125v-125h-125v-125h-125v-250h750v125h-500v125h125v125h125v125h125v125h125v250h-750zM250 1377l-125 -1v-125l125 1v-251h250v251h125v125h-125v-125h-250v125z" />
    <glyph glyph-name="brokenbar" unicode="&#xa6;" horiz-adv-x="250" 
d="M1 500l-1 -500h125l1 500h-125zM126 750l-1 500l-124 1v-501h125z" />
    <glyph glyph-name="Eth" unicode="&#xd0;" horiz-adv-x="1000" 
d="M625 125h124v125h125v750h-125v125h-124v-1000zM500 625v125h-125v375h249v125h-500v-500h-124v-125h124v-625h500v125h-249v500h125z" />
    <glyph glyph-name="eth" unicode="&#xf0;" horiz-adv-x="1139" 
 />
    <glyph glyph-name="Yacute" unicode="&#xdd;" 
d="M0 1250v-375h125v-375h125v-500h250v500h125v375h125v375h-250v-625h-250v625h-250zM500 1500h-125v-125h-125v250h250v-125z" />
    <glyph glyph-name="yacute" unicode="&#xfd;" 
d="M0 875h250v-625h125v-125h125v750h250v-1000h-125v-125h-125v-125h-375v125h250v125h125v125h-250v125h-125v125h-125v625zM500 1125h-125v-125h-125v250h250v-125z" />
    <glyph glyph-name="Thorn" unicode="&#xde;" 
d="M250 1250v375h-250v-1625h250v375h250v125h125v125h125v375h-125v125h-125v125h-250zM250 1125h250v-500h-125v-125h-125v625z" />
    <glyph glyph-name="thorn" unicode="&#xfe;" 
d="M0 -375v1625h250v-500h125v125h250v-125h125v-625h-125v-125h-375v-375h-250zM250 625v-500h125v125h125v500h-125v-125h-125z" />
    <glyph glyph-name="minus" unicode="&#x2212;" horiz-adv-x="750" 
d="M0 625v-125h625v125h-625z" />
    <glyph glyph-name="multiply" unicode="&#xd7;" horiz-adv-x="750" 
d="M0 875v-125h125v-125h125v-125h-125v-125h-125v-125h125v125h125v125h125v-125h125v-125h125v125h-125v125h-125v125h125v125h125v125h-125v-125h-125v-125h-125v125h-125v125h-125z" />
    <glyph glyph-name="Gbreve" unicode="&#x11e;" 
d="M250 0v125h-125v125h-125v750h125v125h125v125h375v-125h125v-250h-250v250h-250v-1000h250v375h-125v125h375v-500h-125v-125h-375zM250 1625h-125v-125h125v-125h250v125h125v125h-125v-125h-250v125z" />
    <glyph glyph-name="gbreve" unicode="&#x11f;" 
d="M625 -250v-125h-500l1 125h-126l1 125h250l-1 -125h250v375h-125v-125h-250v125h-125v625h125v125h625l1 -1125h-126zM500 750h-250v-625h125l1 125h124v500zM250 1250h-125v-125h125v-125h250v125h125v125h-125v-125h-250v125z" />
    <glyph glyph-name="Idotaccent" unicode="&#x130;" horiz-adv-x="375" 
d="M0 1250v-1250h250v1250h-250zM250 1626v-251h-250v251h250z" />
    <glyph glyph-name="Scedilla" unicode="&#x15e;" 
d="M750 1250h-625v-125h-125v-375h125v-125h250v-125h125v-375h-500v-125h625v125h125v500h-125v125h-250h-125v125v250h500v125zM125 -125h250v125h125v-250h-375v125z" />
    <glyph glyph-name="scedilla" unicode="&#x15f;" horiz-adv-x="750" 
d="M0 0v125h375v250h-250v125h-125v250h125v125h500v-125h-375v-250h250v-125h125v-250h-125v-125h-500zM126 -125h250v125h125v-250h-375v125z" />
    <glyph glyph-name="Cacute" unicode="&#x106;" 
d="M250 0v125h-125v125h-125v750h125v125h125v125h375v-125h125v-250h-250v250h-250v-1000h250v250h250v-250h-125v-125h-375zM500 1499h-125v-125h-125v250h250v-125z" />
    <glyph glyph-name="cacute" unicode="&#x107;" horiz-adv-x="750" 
d="M0 250v375h125v125h125v125h375v-125h-250v-125h-125v-375h125v-125h250v-125h-375v125h-125v125h-125zM500 1125h-125v-125h-125v250h250v-125z" />
    <glyph glyph-name="Ccaron" unicode="&#x10c;" 
d="M250 0v125h-125v125h-125v750h125v125h125v125h375v-125h125v-250h-250v250h-250v-1000h250v250h250v-250h-125v-125h-375zM250 1751l-125 -1v-125l125 1v-251h250v251h125v125h-125v-125h-250v125z" />
    <glyph glyph-name="ccaron" unicode="&#x10d;" horiz-adv-x="750" 
d="M0 250v375h125v125h125v125h375v-125h-250v-125h-125v-375h125v-125h250v-125h-375v125h-125v125h-125zM250 1376l-125 -1v-125l125 1v-251h250v251h125v125h-125v-125h-250v125z" />
    <glyph glyph-name="dcroat" unicode="&#x111;" 
d="M250 750v-625h250v625h-250zM750 1000v-1000h-500v125h-125v125h-125v375h125v125h125v125h250v125h-250v125h250v125h250v-125h125v-125h-125z" />
    <glyph glyph-name="currency" unicode="&#xa4;" 
d="M250 250h-125v-125h125v125zM250 625v-375h375v375h-375zM625 625h125v125h-125v-125zM250 625v125h-125v-125h125zM625 250v-125h125v125h-125zM375 500h125v-125h-125v125z" />
    <glyph glyph-name="macron" unicode="&#xaf;" 
d="M0 1500v-125h750v125h-750z" />
    <glyph glyph-name="Amacron" unicode="&#x100;" 
d="M250 0h-250v875h125v250h125v125h500v-1250h-250v375h-250v-375zM500 500v625h-125v-125h-125v-500h250zM125 1500v-125h500v125h-500z" />
    <glyph glyph-name="amacron" unicode="&#x101;" 
d="M0 250v375h125v125h125v125h500v-875h-500v125h-125v125h-125zM250 750v-501h125v-125h125v626h-250zM125 1126v-125h500v125h-500z" />
    <glyph glyph-name="Abreve" unicode="&#x102;" 
d="M250 0h-250v875h125v250h125v125h500v-1250h-250v375h-250v-375zM500 500v625h-125v-125h-125v-500h250zM251 1625h-125v-125h125v-125h250v125h125v125h-125v-125h-250v125z" />
    <glyph glyph-name="abreve" unicode="&#x103;" 
d="M0 250v375h125v125h125v125h500v-875h-500v125h-125v125h-125zM250 750v-501h125v-125h125v626h-250zM250 1251h-125v-125h125v-125h250v125h125v125h-125v-125h-250v125z" />
    <glyph glyph-name="Aogonek" unicode="&#x104;" 
d="M250 0h-250v875h125v250h125v125h500v-1250h-250v375h-250v-375zM500 500v625h-125v-125h-125v-500h250zM875 -249h-375v250h125v-125h250v-125z" />
    <glyph glyph-name="aogonek" unicode="&#x105;" 
d="M0 250v375h125v125h125v125h500v-875h-500v125h-125v125h-125zM250 750v-501h125v-125h125v626h-250zM875 -249h-375v250h125v-125h250v-125z" />
    <glyph glyph-name="Ccircumflex" unicode="&#x108;" 
d="M250 0v125h-125v125h-125v750h125v125h125v125h375v-125h125v-250h-250v250h-250v-1000h250v250h250v-250h-125v-125h-375zM250 1500h250v-125h125v125h-125v251h-250v-251l-125 1v-125l125 -1v125z" />
    <glyph glyph-name="ccircumflex" unicode="&#x109;" horiz-adv-x="750" 
d="M0 250v375h125v125h125v125h375v-125h-250v-125h-125v-375h125v-125h250v-125h-375v125h-125v125h-125zM250 1126h250v-125h125v125h-125v251h-250v-251l-125 1v-125l125 -1v125z" />
    <glyph glyph-name="Cdotaccent" unicode="&#x10a;" 
d="M250 0v125h-125v125h-125v750h125v125h125v125h375v-125h125v-250h-250v250h-250v-1000h250v250h250v-250h-125v-125h-375zM500 1627v-251h-250v251h250z" />
    <glyph glyph-name="cdotaccent" unicode="&#x10b;" horiz-adv-x="750" 
d="M0 250v375h125v125h125v125h375v-125h-250v-125h-125v-375h125v-125h250v-125h-375v125h-125v125h-125zM500 1252v-251h-250v251h250z" />
    <glyph glyph-name="Dcaron" unicode="&#x10e;" 
d="M0 0h500v125h125v125h125v750h-125v125h-125v125h-500v-1250zM500 1125v-1000h-250v1000h250zM250 1751l-125 -1v-125l125 1v-251h250v251h125v125h-125v-125h-250v125z" />
    <glyph glyph-name="dcaron" unicode="&#x10f;" horiz-adv-x="1250" 
d="M0 250v375h125v125h125v125h250v375h250v-1250h-500v125h-125v125h-125zM250 750v-625h250v625h-250zM875 1250h250v-250h-125v125h-125v125z" />
    <glyph glyph-name="Dcroat" unicode="&#x110;" horiz-adv-x="1000" 
d="M625 125h124v125h125v750h-125v125h-124v-1000zM500 625v125h-125v375h249v125h-500v-500h-124v-125h124v-625h500v125h-249v500h125z" />
    <glyph glyph-name="Emacron" unicode="&#x112;" 
d="M750 1125h-500v-375h375v-125h-375v-500h500v-125h-750v1250h750v-125zM125 1501v-125h500v125h-500z" />
    <glyph glyph-name="emacron" unicode="&#x113;" 
d="M0 250v375h125v125h125v125h375v-125h125v-375h-500v-125h125v-125h250v-125h-375v125h-125v125h-125zM250 500h250v250h-250v-250zM125 1126v-125h500v125h-500z" />
    <glyph glyph-name="Ebreve" unicode="&#x114;" 
d="M750 1125h-500v-375h375v-125h-375v-500h500v-125h-750v1250h750v-125zM251 1625h-125v-125h125v-125h250v125h125v125h-125v-125h-250v125z" />
    <glyph glyph-name="ebreve" unicode="&#x115;" 
d="M0 250v375h125v125h125v125h375v-125h125v-375h-500v-125h125v-125h250v-125h-375v125h-125v125h-125zM250 500h250v250h-250v-250zM251 1250h-125v-125h125v-125h250v125h125v125h-125v-125h-250v125z" />
    <glyph glyph-name="Edotaccent" unicode="&#x116;" 
d="M750 1125h-500v-375h375v-125h-375v-500h500v-125h-750v1250h750v-125zM500 1626v-251h-250v251h250z" />
    <glyph glyph-name="edotaccent" unicode="&#x117;" 
d="M0 250v375h125v125h125v125h375v-125h125v-375h-500v-125h125v-125h250v-125h-375v125h-125v125h-125zM250 500h250v250h-250v-250zM500 1252v-251h-250v251h250z" />
    <glyph glyph-name="Eogonek" unicode="&#x118;" 
d="M750 1125h-500v-375h375v-125h-375v-500h500v-125h-750v1250h750v-125zM875 -249h-375v250h125v-125h250v-125z" />
    <glyph glyph-name="eogonek" unicode="&#x119;" 
d="M0 250v375h125v125h125v125h375v-125h125v-375h-500v-125h125v-125h250v-125h-375v125h-125v125h-125zM250 500h250v250h-250v-250zM750 -250h-375v250h125v-125h250v-125z" />
    <glyph glyph-name="Ecaron" unicode="&#x11a;" 
d="M750 1125h-500v-375h375v-125h-375v-500h500v-125h-750v1250h750v-125zM250 1751l-125 -1v-125l125 1v-251h250v251h125v125h-125v-125h-250v125z" />
    <glyph glyph-name="ecaron" unicode="&#x11b;" 
d="M0 250v375h125v125h125v125h375v-125h125v-375h-500v-125h125v-125h250v-125h-375v125h-125v125h-125zM250 500h250v250h-250v-250zM250 1375l-125 -1v-125l125 1v-251h250v251h125v125h-125v-125h-250v125z" />
    <glyph glyph-name="Gcircumflex" unicode="&#x11c;" 
d="M250 0v125h-125v125h-125v750h125v125h125v125h375v-125h125v-250h-250v250h-250v-1000h250v375h-125v125h375v-500h-125v-125h-375zM250 1500h250v-125h125v125h-125v251h-250v-251l-125 1v-125l125 -1v125z" />
    <glyph glyph-name="gcircumflex" unicode="&#x11d;" 
d="M625 -250v-125h-500l1 125h-126l1 125h250l-1 -125h250v375h-125v-125h-250v125h-125v625h125v125h625l1 -1125h-126zM500 750h-250v-625h125l1 125h124v500zM250 1126h250v-125h125v125h-125v251h-250v-251l-125 1v-125l125 -1v125z" />
    <glyph glyph-name="Gdotaccent" unicode="&#x120;" 
d="M250 0v125h-125v125h-125v750h125v125h125v125h375v-125h125v-250h-250v250h-250v-1000h250v375h-125v125h375v-500h-125v-125h-375zM500 1626v-251h-250v251h250z" />
    <glyph glyph-name="gdotaccent" unicode="&#x121;" 
d="M625 -250v-125h-500l1 125h-126l1 125h250l-1 -125h250v375h-125v-125h-250v125h-125v625h125v125h625l1 -1125h-126zM500 750h-250v-625h125l1 125h124v500zM500 1252v-251h-250v251h250z" />
    <glyph glyph-name="Gcommaaccent" unicode="&#x122;" 
d="M250 0v125h-125v125h-125v750h125v125h125v125h375v-125h125v-250h-250v250h-250v-1000h250v375h-125v125h375v-500h-125v-125h-375zM250 -125h250v-250h-125v125h-125v125z" />
    <glyph glyph-name="gcommaaccent" unicode="&#x123;" 
d="M625 -250v-125h-500l1 125h-126l1 125h250l-1 -125h250v375h-125v-125h-250v125h-125v625h125v125h625l1 -1125h-126zM500 750h-250v-625h125l1 125h124v500zM500 1000h-250v250h125v-125h125v-125z" />
    <glyph glyph-name="Hcircumflex" unicode="&#x124;" 
d="M250 1250h-250v-1250h250v625h250v-625h250v1250h-250v-500h-250v500zM250 1500h250v-125h125v125h-125v251h-250v-251l-125 1v-125l125 -1v125z" />
    <glyph glyph-name="hcircumflex" unicode="&#x125;" 
d="M250 0v750h125v-125h125v-625h250v625h-125v125h-125v125h-250v375h-250v-1250h250zM250 1500h250v-125h125v125h-125v251h-250v-251l-125 1v-125l125 -1v125z" />
    <glyph glyph-name="Hbar" unicode="&#x126;" 
d="M250 1250h-250v-1250h250v625h250v-625h250v1250h-250v-500h-250v500zM0 1125v-125h750v125h-750z" />
    <glyph glyph-name="hbar" unicode="&#x127;" horiz-adv-x="1000" 
d="M500 0v750h125v-125h125v-625h250v625h-125v125h-125v125h-250v375h-250v-1250h250zM0 1125v-125h750v125h-750z" />
    <glyph glyph-name="Itilde" unicode="&#x128;" horiz-adv-x="375" 
d="M0 1250v-1250h250v1250h-250zM-125 1375h-125v125h125v125h250v-125l250 -1v125h125v-125h-125v-124h-250v125h-250v-125z" />
    <glyph glyph-name="itilde" unicode="&#x129;" horiz-adv-x="375" 
d="M1 0v750h250v-750h-250zM-124 875h-125v125h125v125h250v-125l250 -1v125h125v-125h-125v-124h-250v125h-250v-125z" />
    <glyph glyph-name="Imacron" unicode="&#x12a;" horiz-adv-x="375" 
d="M1 1250v-1250h250v1250h-250zM-124 1500v-125h500v125h-500z" />
    <glyph glyph-name="imacron" unicode="&#x12b;" horiz-adv-x="375" 
d="M1 0v750h250v-750h-250zM-124 1000v-125h500v125h-500z" />
    <glyph glyph-name="Ibreve" unicode="&#x12c;" horiz-adv-x="375" 
d="M0 1250v-1250h250v1250h-250zM0 1625h-125v-125h125v-125h250v125h125v125h-125v-125h-250v125z" />
    <glyph glyph-name="ibreve" unicode="&#x12d;" horiz-adv-x="375" 
d="M0 0v750h250v-750h-250zM0 1125h-125v-125h125v-125h250v125h125v125h-125v-125h-250v125z" />
    <glyph glyph-name="Iogonek" unicode="&#x12e;" horiz-adv-x="375" 
d="M0 1250v-1250h250v1250h-250zM375 -249h-375v250h125v-125h250v-125z" />
    <glyph glyph-name="iogonek" unicode="&#x12f;" horiz-adv-x="375" 
d="M0 0v750h250v-750h-250zM0 1000h250v-125h-250v125zM376 -250h-375v250h125v-125h250v-125z" />
    <glyph glyph-name="IJ" unicode="&#x132;" horiz-adv-x="1250" 
d="M0 1250v-1250h250v1250h-250zM374 250v-125h125v-125h500v125h125l1 1125h-250l-1 -1125h-250v125h-250z" />
    <glyph glyph-name="ij" unicode="&#x133;" horiz-adv-x="750" 
d="M0 0v750h250v-750h-250zM0 1000h250v-125h-250v125zM500 -250l1 -125h-250l-1 125h125v1000h250v-1000h-125zM375 1000h250v-125h-250v125z" />
    <glyph glyph-name="Jcircumflex" unicode="&#x134;" 
d="M0 250v-125h125v-125h500v125h125l1 1125h-250l-1 -1125h-250v125h-250zM500 1500h250v-125h125v125h-125v251h-250v-251l-125 1v-125l125 -1v125z" />
    <glyph glyph-name="jcircumflex" unicode="&#x135;" horiz-adv-x="375" 
d="M126 -250l1 -125h-250l-1 125h125v1000h250v-1000h-125zM0 1000h250v-125h125v125h-125v251h-250v-251l-125 1v-125l125 -1v125z" />
    <glyph glyph-name="Kcommaaccent" unicode="&#x136;" 
d="M250 1250h-250v-1250h250v625h125v-125h125v-500h250v500h-125v125h-125v125h125v125h125v375h-250v-375h-125v-125h-125v500zM250 -125h250v-250h-125v125h-125v125z" />
    <glyph glyph-name="kcommaaccent" unicode="&#x137;" 
d="M0 0v1250h250v-750h125v125h125v250h250v-250h-125v-125h-125v-125h125v-125h124l1 -250h-250v250h-125v125h-125v-375h-250zM250 -125h250v-250h-125v125h-125v125z" />
    <glyph glyph-name="kgreenlandic" unicode="&#x138;" 
d="M0 0v875h250v-375h125v125h125v250h250v-250h-125v-125h-125v-125h125v-125h124l1 -250h-250v250h-125v125h-125v-375h-250z" />
    <glyph glyph-name="Lacute" unicode="&#x139;" horiz-adv-x="750" 
d="M251 1250h-250v-1250h625v125h-375v1125zM250 1500h-125v-125h-125v250h250v-125z" />
    <glyph glyph-name="lacute" unicode="&#x13a;" horiz-adv-x="500" 
d="M251 1250h-250v-1125h125v-125h250v125h-125v1125zM250 1499h-125v-125h-125v250h250v-125z" />
    <glyph glyph-name="Lcommaaccent" unicode="&#x13b;" horiz-adv-x="750" 
d="M250 1250h-250v-1250h625v125h-375v1125zM250 -125h250v-250h-125v125h-125v125z" />
    <glyph glyph-name="lcommaaccent" unicode="&#x13c;" horiz-adv-x="500" 
d="M250 1250h-250v-1125h125v-125h250v125h-125v1125zM125 -125h250v-250h-125v125h-125v125z" />
    <glyph glyph-name="Lcaron" unicode="&#x13d;" horiz-adv-x="750" 
d="M250 1250h-250v-1250h625v125h-375v1125zM0 1751l-125 -1v-125l125 1v-251h250v251h125v125h-125v-125h-250v125z" />
    <glyph glyph-name="lcaron" unicode="&#x13e;" horiz-adv-x="500" 
d="M250 1250h-250v-1125h125v-125h250v125h-125v1125zM0 1751l-125 -1v-125l125 1v-251h250v251h125v125h-125v-125h-250v125z" />
    <glyph glyph-name="Ldot" unicode="&#x13f;" horiz-adv-x="750" 
d="M250 1250h-250v-1250h625v125h-375v1125zM624 752v-251h-250v251h250z" />
    <glyph glyph-name="ldot" unicode="&#x140;" horiz-adv-x="750" 
d="M250 1250h-250v-1125h125v-125h250v125h-125v1125zM625 752v-251h-250v251h250z" />
    <glyph glyph-name="Nacute" unicode="&#x143;" 
d="M0 1250v-1250h250v625h125v-375h125v-250h250v1250h-250v-625h-125v375h-125v250h-250zM500 1499h-125v-125h-125v250h250v-125z" />
    <glyph glyph-name="nacute" unicode="&#x144;" 
d="M0 0v875h250v-125h125v125h250v-125h125v-750h-250v750h-125v-125h-125v-625h-250zM500 1125h-125v-125h-125v250h250v-125z" />
    <glyph glyph-name="Ncommaaccent" unicode="&#x145;" 
d="M0 1250v-1250h250v625h125v-375h125v-250h250v1250h-250v-625h-125v375h-125v250h-250zM250 -125h250v-250h-125v125h-125v125z" />
    <glyph glyph-name="ncommaaccent" unicode="&#x146;" 
d="M0 0v875h250v-125h125v125h250v-125h125v-750h-250v750h-125v-125h-125v-625h-250zM250 -124h250v-250h-125v125h-125v125z" />
    <glyph glyph-name="Ncaron" unicode="&#x147;" 
d="M0 1250v-1250h250v625h125v-375h125v-250h250v1250h-250v-625h-125v375h-125v250h-250zM250 1751l-125 -1v-125l125 1v-251h250v251h125v125h-125v-125h-250v125z" />
    <glyph glyph-name="ncaron" unicode="&#x148;" 
d="M0 0v875h250v-125h125v125h250v-125h125v-750h-250v750h-125v-125h-125v-625h-250zM250 1375l-125 -1v-125l125 1v-251h250v251h125v125h-125v-125h-250v125z" />
    <glyph glyph-name="napostrophe" unicode="&#x149;" horiz-adv-x="1000" 
d="M0 1125h250v-250h-125v125h-125v125zM250 0v875h250v-125h125v125h250v-125h125v-750h-250v750h-125v-125h-125v-625h-250z" />
    <glyph glyph-name="Eng" unicode="&#x14a;" 
d="M375 1125v-250h-125v-875h-250v1250h250v-125h125zM500 1125h-125v125h250v-125h125v-1249h-125v-126h-376v125h251v1250z" />
    <glyph glyph-name="eng" unicode="&#x14b;" 
d="M375 750v-125h-125v-625h-250v875h250v-125h125zM500 750h-125v125h250v-125h125v-874h-125v-126h-376v125h251v875z" />
    <glyph glyph-name="Omacron" unicode="&#x14c;" 
d="M0 1000h125v125h125v125h250v-125h125v-125h125v-750h-125v-125h-125v-125h-250v125h-125v125h-125v750zM250 1125v-1000h250v1000h-250zM125 1501v-125h500v125h-500z" />
    <glyph glyph-name="omacron" unicode="&#x14d;" 
d="M0 250v375h125v125h125v125h250v-125h125v-125h125v-375h-125v-125h-125v-125h-250v125h-125v125h-125zM250 750v-625h250v625h-250zM125 1126v-125h500v125h-500z" />
    <glyph glyph-name="Obreve" unicode="&#x14e;" 
d="M0 1000h125v125h125v125h250v-125h125v-125h125v-750h-125v-125h-125v-125h-250v125h-125v125h-125v750zM250 1125v-1000h250v1000h-250zM251 1625h-125v-125h125v-125h250v125h125v125h-125v-125h-250v125z" />
    <glyph glyph-name="obreve" unicode="&#x14f;" 
d="M0 250v375h125v125h125v125h250v-125h125v-125h125v-375h-125v-125h-125v-125h-250v125h-125v125h-125zM250 750v-625h250v625h-250zM250 1250h-125v-125h125v-125h250v125h125v125h-125v-125h-250v125z" />
    <glyph glyph-name="Ohungarumlaut" unicode="&#x150;" 
d="M0 1000h125v125h125v125h250v-125h125v-125h125v-750h-125v-125h-125v-125h-250v125h-125v125h-125v750zM250 1125v-1000h250v1000h-250zM250 1376h-125v250h250v-125h-125v-125zM501 1375h-125v250h250v-125h-125v-125z" />
    <glyph glyph-name="ohungarumlaut" unicode="&#x151;" 
d="M0 250v375h125v125h125v125h250v-125h125v-125h125v-375h-125v-125h-125v-125h-250v125h-125v125h-125zM250 750v-625h250v625h-250zM250 1001h-125v250h250v-125h-125v-125zM501 1000h-125v250h250v-125h-125v-125z" />
    <glyph glyph-name="Racute" unicode="&#x154;" 
d="M250 1125h250v-500h-125v-125h-125v625zM500 0h250v374l-125 1v250h125v375h-125v125h-125v125h-500v-1250h250v375h250v-375zM500 1499h-125v-125h-125v250h250v-125z" />
    <glyph glyph-name="racute" unicode="&#x155;" horiz-adv-x="750" 
d="M0 0v875h250v-125h125v125h250v-125h-250v-125h-125v-625h-250zM500 1125h-125v-125h-125v250h250v-125z" />
    <glyph glyph-name="Rcommaaccent" unicode="&#x156;" 
d="M250 1125h250v-500h-125v-125h-125v625zM500 0h250v374l-125 1v250h125v375h-125v125h-125v125h-500v-1250h250v375h250v-375zM250 -125h250v-250h-125v125h-125v125z" />
    <glyph glyph-name="rcommaaccent" unicode="&#x157;" horiz-adv-x="750" 
d="M0 0v875h250v-125h125v125h250v-125h-250v-125h-125v-625h-250zM0 -126h250v-250h-125v125h-125v125z" />
    <glyph glyph-name="Rcaron" unicode="&#x158;" 
d="M250 1125h250v-500h-125v-125h-125v625zM500 0h250v374l-125 1v250h125v375h-125v125h-125v125h-500v-1250h250v375h250v-375zM250 1751l-125 -1v-125l125 1v-251h250v251h125v125h-125v-125h-250v125z" />
    <glyph glyph-name="rcaron" unicode="&#x159;" horiz-adv-x="750" 
d="M0 0v875h250v-125h125v125h250v-125h-250v-125h-125v-625h-250zM250 1376l-125 -1v-125l125 1v-251h250v251h125v125h-125v-125h-250v125z" />
    <glyph glyph-name="Sacute" unicode="&#x15a;" 
d="M750 1250h-625v-125h-125v-375h125v-125h250v-125h125v-375h-500v-125h625v125h125v500h-125v125h-250h-125v125v250h500v125zM500 1500h-125v-125h-125v250h250v-125z" />
    <glyph glyph-name="sacute" unicode="&#x15b;" horiz-adv-x="750" 
d="M0 0v125h375v250h-250v125h-125v250h125v125h500v-125h-375v-250h250v-125h125v-250h-125v-125h-500zM500 1125h-125v-125h-125v250h250v-125z" />
    <glyph glyph-name="Scircumflex" unicode="&#x15c;" 
d="M750 1250h-625v-125h-125v-375h125v-125h250v-125h125v-375h-500v-125h625v125h125v500h-125v125h-250h-125v125v250h500v125zM250 1500h250v-125h125v125h-125v251h-250v-251l-125 1v-125l125 -1v125z" />
    <glyph glyph-name="scircumflex" unicode="&#x15d;" horiz-adv-x="750" 
d="M0 0v125h375v250h-250v125h-125v250h125v125h500v-125h-375v-250h250v-125h125v-250h-125v-125h-500zM250 1126h250v-125h125v125h-125v251h-250v-251l-125 1v-125l125 -1v125z" />
    <glyph glyph-name="Tcommaaccent" unicode="&#x162;" 
d="M0 1250v-125h250v-1125h250v1125h250v125h-750zM250 -125h250v-250h-125v125h-125v125z" />
    <glyph glyph-name="tcommaaccent" unicode="&#x163;" horiz-adv-x="750" 
d="M0 750h250v-625h125v-125h250v125h-125v625h125v125h-125v125h-250v-125h-250v-125zM375 -125h250v-250h-125v125h-125v125z" />
    <glyph glyph-name="Tcaron" unicode="&#x164;" 
d="M0 1250v-125h250v-1125h250v1125h250v125h-750zM250 1751l-125 -1v-125l125 1v-251h250v251h125v125h-125v-125h-250v125z" />
    <glyph glyph-name="tcaron" unicode="&#x165;" horiz-adv-x="1000" 
d="M0 750h250v-625h125v-125h250v125h-125v625h125v125h-125v125h-250v-125h-250v-125zM625 1000h250v-250h-125v125h-125v125z" />
    <glyph glyph-name="Tbar" unicode="&#x166;" 
d="M0 1250v-125h250v-1125h250v1125h250v125h-750zM0 875v-125h750v125h-750z" />
    <glyph glyph-name="tbar" unicode="&#x167;" horiz-adv-x="750" 
d="M0 750h250v-625h125v-125h250v125h-125v625h125v125h-125v125h-250v-125h-250v-125zM100 625v-125h525.009v125h-525.009z" />
    <glyph glyph-name="Utilde" unicode="&#x168;" 
d="M250 0v125h-125v125h-125v1000h250v-1000h125v-125h125v1125h250v-1250h-500zM125 1375h-125v125h125v125h250v-125l250 -1v125h125v-125h-125v-124h-250v125h-250v-125z" />
    <glyph glyph-name="utilde" unicode="&#x169;" 
d="M250 0v125h-125v125h-125v625h250v-750h250v750h250v-875h-500zM125 1001h-125v125h125v125h250v-125l250 -1v125h125v-125h-125v-124h-250v125h-250v-125z" />
    <glyph glyph-name="Umacron" unicode="&#x16a;" 
d="M250 0v125h-125v125h-125v1000h250v-1000h125v-125h125v1125h250v-1250h-500zM125 1500v-125h500v125h-500z" />
    <glyph glyph-name="umacron" unicode="&#x16b;" 
d="M250 0v125h-125v125h-125v625h250v-750h250v750h250v-875h-500zM125 1126v-125h500v125h-500z" />
    <glyph glyph-name="Ubreve" unicode="&#x16c;" 
d="M250 0v125h-125v125h-125v1000h250v-1000h125v-125h125v1125h250v-1250h-500zM250 1625h-125v-125h125v-125h250v125h125v125h-125v-125h-250v125z" />
    <glyph glyph-name="ubreve" unicode="&#x16d;" 
d="M250 0v125h-125v125h-125v625h250v-750h250v750h250v-875h-500zM250 1250h-125v-125h125v-125h250v125h125v125h-125v-125h-250v125z" />
    <glyph glyph-name="Uring" unicode="&#x16e;" 
d="M250 0v125h-125v125h-125v1000h250v-1000h125v-125h125v1125h250v-1250h-500zM500 1751v-125h126v-125h-125v-125h-126v125h-125v125h125v125h125zM375 1501h126l-1 125h-125v-125z" />
    <glyph glyph-name="uring" unicode="&#x16f;" 
d="M250 0v125h-125v125h-125v625h250v-750h250v750h250v-875h-500zM500 1376v-125h126v-125h-125v-125h-126v125h-125v125h125v125h125zM375 1126h126l-1 125h-125v-125z" />
    <glyph glyph-name="Uhungarumlaut" unicode="&#x170;" 
d="M250 0v125h-125v125h-125v1000h250v-1000h125v-125h125v1125h250v-1250h-500zM250 1377h-125v250h250v-125h-125v-125zM501 1376h-125v250h250v-125h-125v-125z" />
    <glyph glyph-name="uhungarumlaut" unicode="&#x171;" 
d="M250 0v125h-125v125h-125v625h250v-750h250v750h250v-875h-500zM250 1001h-125v250h250v-125h-125v-125zM501 1000h-125v250h250v-125h-125v-125z" />
    <glyph glyph-name="Uogonek" unicode="&#x172;" 
d="M250 0v125h-125v125h-125v1000h250v-1000h125v-125h125v1125h250v-1250h-500zM875 -249h-375v250h125v-125h250v-125z" />
    <glyph glyph-name="uogonek" unicode="&#x173;" 
d="M250 0v125h-125v125h-125v625h250v-750h250v750h250v-875h-500zM750 -249h-375v250h125v-125h250v-125z" />
    <glyph glyph-name="Wcircumflex" unicode="&#x174;" horiz-adv-x="1375" 
d="M250 125h-125v250h-125v875h250v-1000h125v-125h125v-125h-250v125zM875 125h125v1125h250v-1250h-500v125h-250v1125h250v-1000h125v-125zM500 1500h250v-125h125v125h-125v251h-250v-251l-125 1v-125l125 -1v125z" />
    <glyph glyph-name="wcircumflex" unicode="&#x175;" horiz-adv-x="1375" 
d="M250 125h-125v250h-125v500h250v-625h125v-125h125v-125h-250v125zM875 125h125v750h250v-875h-500v125h-250v750h250v-625h125v-125zM500 1125h250v-125h125v125h-125v251h-250v-251l-125 1v-125l125 -1v125z" />
    <glyph glyph-name="Ycircumflex" unicode="&#x176;" 
d="M0 1250v-375h125v-375h125v-500h250v500h125v375h125v375h-250v-625h-250v625h-250zM250 1500h250v-125h125v125h-125v251h-250v-251l-125 1v-125l125 -1v125z" />
    <glyph glyph-name="ycircumflex" unicode="&#x177;" 
d="M0 875h250v-625h125v-125h125v750h250v-1000h-125v-125h-125v-125h-375v125h250v125h125v125h-250v125h-125v125h-125v625zM250 1126h250v-125h125v125h-125v251h-250v-251l-125 1v-125l125 -1v125z" />
    <glyph glyph-name="Zacute" unicode="&#x179;" 
d="M0 1250v-125h500v-125h-125v-250h-125l1 -250h-125l-1 -250h-125v-250h750v125h-500v125h125l1 250h125l-1 250h125v250h125v250h-750zM500 1500h-125v-125h-125v250h250v-125z" />
    <glyph glyph-name="zacute" unicode="&#x17a;" 
d="M0 875v-125h500v-125h-125v-125h-125v-125h-125v-125h-125v-250h750v125h-500v125h125v125h125v125h125v125h125v250h-750zM499 1125h-125v-125h-125v250h250v-125z" />
    <glyph glyph-name="Zdotaccent" unicode="&#x17b;" 
d="M0 1250v-125h500v-125h-125v-250h-125l1 -250h-125l-1 -250h-125v-250h750v125h-500v125h125l1 250h125l-1 250h125v250h125v250h-750zM500 1626v-251h-250v251h250z" />
    <glyph glyph-name="zdotaccent" unicode="&#x17c;" 
d="M0 875v-125h500v-125h-125v-125h-125v-125h-125v-125h-125v-250h750v125h-500v125h125v125h125v125h125v125h125v250h-750zM500 1252v-251h-250v251h250z" />
    <glyph glyph-name="longs" unicode="&#x17f;" horiz-adv-x="500" 
d="M250 0h-250v875h125v125h250v-125h-125v-875z" />
    <glyph glyph-name="Aringacute" unicode="&#x1fa;" 
d="M250 0h-250v875h125v250h125v125h500v-1250h-250v375h-250v-375zM500 500v625h-125v-125h-125v-500h250zM500 1625v-125h126v-125h-125v-125h-126v125h-125v125h125v125h125zM375 1375h126l-1 125h-125v-125zM625 1750h-125v-125h-125v250h250v-125z" />
    <glyph glyph-name="aringacute" unicode="&#x1fb;" 
d="M0 250v375h125v125h125v125h500v-875h-500v125h-125v125h-125zM250 750v-501h125v-125h125v626h-250zM500 1375v-125h126v-125h-125v-125h-126v125h-125v125h125v125h125zM375 1125h126l-1 125h-125v-125zM625 1624h-125v-125h-125v250h250v-125z" />
    <glyph glyph-name="AEacute" unicode="&#x1fc;" horiz-adv-x="1375" 
d="M250 0h-250v875h125v250h125v125h500v-1250h-250v375h-250v-375zM500 500v625h-125v-125h-125v-500h250zM1250 1125h-500v-375h375v-125h-375v-500h500v-125h-750v1250h750v-125zM750 1499h-125v-125h-125v250h250v-125z" />
    <glyph glyph-name="aeacute" unicode="&#x1fd;" horiz-adv-x="1375" 
d="M0 250v375h125v125h125v125h500v-875h-500v125h-125v125h-125zM250 750v-501h125v-125h125v626h-250zM500 250v375h125v125h125v125h375v-125h125v-375h-500v-125h125v-125h250v-125h-375v125h-125v125h-125zM750 500h250v250h-250v-250zM750 1125h-125v-125h-125v250
h250v-125z" />
    <glyph glyph-name="Oslashacute" unicode="&#x1fe;" 
d="M1 1000h125v125h125v125h250v-125h125v-125h125v-750h-125v-125h-125v-125h-250v125h-125v125h-125v750zM251 1125v-1000h250v1000h-250zM375 624l-1 251h125v250h125v125h125v-125h-125v-250h-125v-250h-124v-251h-125v-249h-125v-125h-125v125h125v249h125v125v125h125
zM500 1500h-125v-125h-125v250h250v-125z" />
    <glyph glyph-name="oslashacute" unicode="&#x1ff;" 
d="M0 250v375h125v125h125v125h250v-125h125v-125h125v-375h-125v-125h-125v-125h-250v125h-125v125h-125zM250 750v-625h250v625h-250zM375 500v125h125v125h125v125h125v-125h-125v-125h-125v-250h-125v-125h-125v-125h-125v-125h-125v125h125v125h125v125v125h125z
M500 1125h-125v-125h-125v250h250v-125z" />
    <glyph glyph-name="afii10023" unicode="&#x401;" 
d="M750 1125h-500v-375h375v-125h-375v-500h500v-125h-750v1250h750v-125zM126 1500v-125h250v125h-250zM500 1500v-125h250v125h-250z" />
    <glyph glyph-name="afii10051" unicode="&#x402;" horiz-adv-x="1125" 
d="M0 1250v-125h250v-1125h250v625h125v-125h125v-375l-125 -1v-124h250v125h125v500h-125v125h-125h-250v375h250v125h-750z" />
    <glyph glyph-name="afii10052" unicode="&#x403;" horiz-adv-x="750" 
d="M0 1250v-1250h250v1125h375v125h-625zM500 1500h-125v-125h-125v250h250v-125z" />
    <glyph glyph-name="afii10053" unicode="&#x404;" 
d="M750 1000h-250l1 125h-251v-375h376v-125h-376l1 -500h249v125h250v-125h-125v-125h-500v125h-125v1000h125v125h500v-125h125v-125z" />
    <glyph glyph-name="afii10054" unicode="&#x405;" 
d="M750 1250h-625v-125h-125v-375h125v-125h250v-125h125v-375h-500v-125h625v125h125v500h-125v125h-250h-125v125v250h500v125z" />
    <glyph glyph-name="afii10055" unicode="&#x406;" horiz-adv-x="569" 
d="M0 1250v-1250h250v1250h-250z" />
    <glyph glyph-name="afii10056" unicode="&#x407;" horiz-adv-x="375" 
d="M1 1250v-1250h250v1250h-250zM-124 1500v-125h250v125h-250zM250 1500v-125h250v125h-250z" />
    <glyph glyph-name="afii10057" unicode="&#x408;" 
d="M0 250v-125h125v-125h500v125h125l1 1125h-250l-1 -1125h-250v125h-250z" />
    <glyph glyph-name="afii10058" unicode="&#x409;" horiz-adv-x="1375" 
d="M0 0h250v625h125v500h125v-1125h250v1250h-500v-125h-125v-500h-125v-625zM1000 0v125h125v125h125v375h-125v125h-125v125h-250v375h-250v-1250h500zM875 750v-125h125v-375h-125v-125h-125v625h125z" />
    <glyph glyph-name="afii10059" unicode="&#x40a;" horiz-adv-x="1375" 
d="M250 1250h-250v-1250h250v625h250v-625h250v1250h-250v-500h-250v500zM1000 0v125h125v125h125v375h-125v125h-125v125h-250v375h-250v-1250h500zM875 750v-125h125v-375h-125v-125h-125v625h125z" />
    <glyph glyph-name="afii10060" unicode="&#x40b;" horiz-adv-x="1125" 
d="M0 1250v-125h250v-1125h250v625h125v-125h125v-500h250v625h-125v125h-125h-250v375h250v125h-750z" />
    <glyph glyph-name="afii10061" unicode="&#x40c;" 
d="M250 1250h-250v-1250h250v625h125v-125h125v-500h250v500h-125v125h-125v125h125v125h125v375h-250v-375h-125v-125h-125v500zM500 1500h-125v-125h-125v250h250v-125z" />
    <glyph glyph-name="afii10062" unicode="&#x40e;" 
d="M626 125v-125h-500v125h-125l1 125h249v-125h250v375h-125l-1 -125h-249v125h-125l-1 750h251v-750h125v125h125v625h250v-1125h-125zM251 1625h-125v-125h125v-125h250v125h125v125h-125v-125h-250v125z" />
    <glyph glyph-name="afii10145" unicode="&#x40f;" 
d="M250 1250h-250v-1250h250v-125h250v125h250v1250h-250v-1125h-250v1125z" />
    <glyph glyph-name="afii10017" unicode="&#x410;" 
d="M250 0h-250v875h125v250h125v125h500v-1250h-250v375h-250v-375zM500 500v625h-125v-125h-125v-500h250z" />
    <glyph glyph-name="afii10018" unicode="&#x411;" 
d="M750 1250h-750v-1250h500v125h125v125h125v375h-125v125h-125v125h-250v250h500v125zM500 125h-250v625h250v-625z" />
    <glyph glyph-name="afii10019" unicode="&#x412;" 
d="M0 0h500v125h125v125h125v375h-125v125h125v250h-125v125h-125v125h-500v-1250zM500 1125v-375h-250v375h250zM500 125h-250v500h250v-500z" />
    <glyph glyph-name="afii10020" unicode="&#x413;" horiz-adv-x="750" 
d="M0 1250v-1250h250v1125h375v125h-625z" />
    <glyph glyph-name="afii10021" unicode="&#x414;" horiz-adv-x="1125" 
d="M625 126v999h-125v-125h-125v-874h250zM250 0v-124h-250v249h125v750h125v250h125v125h500v-1125h125v-250h-250v125h-125v1h-250v-1h-125z" />
    <glyph glyph-name="afii10022" unicode="&#x415;" 
d="M750 1125h-500v-375h375v-125h-375v-500h500v-125h-750v1250h750v-125z" />
    <glyph glyph-name="afii10024" unicode="&#x416;" horiz-adv-x="1375" 
d="M749 1251h-250v-500h-125v125h-125v375h-249v-375h124v-125h125v-125h-125v-125h-124v-500h249v500h125v125h125v-625h1v-1h250v625h125v-125h125v-500h250v500h-125v125h-125v125h125v125h125v375h-250v-375h-125v-125h-125v500h-1v1z" />
    <glyph glyph-name="afii10025" unicode="&#x417;" 
d="M0 1125h125v125h500v-125h125v-375h-125v-125h125v-500h-124l-1 -125h-500v125h-125v125h250v-125h249l1 500h-250v125h250v375h-250v-125h-250v125z" />
    <glyph glyph-name="afii10026" unicode="&#x418;" 
d="M500 1250v-250h-125v-375h-125v625h-250v-1250h250v250h125v375h125v-625h250v1250h-250z" />
    <glyph glyph-name="afii10027" unicode="&#x419;" 
d="M251 1625h-125v-125h125v-125h250v125h125v125h-125v-125h-250v125zM500 1250v-250h-125v-375h-125v625h-250v-1250h250v250h125v375h125v-625h250v1250h-250z" />
    <glyph glyph-name="afii10028" unicode="&#x41a;" 
d="M250 1250h-250v-1250h250v625h125v-125h125v-500h250v500h-125v125h-125v125h125v125h125v375h-250v-375h-125v-125h-125v500z" />
    <glyph glyph-name="afii10029" unicode="&#x41b;" 
d="M0 0h250v625h125v500h125v-1125h250v1250h-500v-125h-125v-500h-125v-625z" />
    <glyph glyph-name="afii10030" unicode="&#x41c;" horiz-adv-x="1000" 
d="M250 0h-250v1250h250v-250h125v-250h125v250h125v250h250v-1250h-250v750h-125v-250h-125v250h-125v-750z" />
    <glyph glyph-name="afii10031" unicode="&#x41d;" 
d="M250 1250h-250v-1250h250v625h250v-625h250v1250h-250v-500h-250v500z" />
    <glyph glyph-name="afii10032" unicode="&#x41e;" 
d="M0 1000h125v125h125v125h250v-125h125v-125h125v-750h-125v-125h-125v-125h-250v125h-125v125h-125v750zM250 1125v-1000h250v1000h-250z" />
    <glyph glyph-name="afii10033" unicode="&#x41f;" 
d="M0 1250v-1250h250v1125h250v-1125h250v1250h-750z" />
    <glyph glyph-name="afii10034" unicode="&#x420;" 
d="M0 1250v-1250h250v375h250v125h125v125h125v375h-125v125h-125v125h-500zM250 1125h250v-500h-125v-125h-125v625z" />
    <glyph glyph-name="afii10035" unicode="&#x421;" 
d="M250 0v125h-125v125h-125v750h125v125h125v125h375v-125h125v-250h-250v250h-250v-1000h250v250h250v-250h-125v-125h-375z" />
    <glyph glyph-name="afii10036" unicode="&#x422;" 
d="M0 1250v-125h250v-1125h250v1125h250v125h-750z" />
    <glyph glyph-name="afii10037" unicode="&#x423;" 
d="M626 125v-125h-500v125h-125l1 125h249v-125h250v375h-125l-1 -125h-249v125h-125l-1 750h251v-750h125v125h125v625h250v-1125h-125z" />
    <glyph glyph-name="afii10038" unicode="&#x424;" horiz-adv-x="1375" 
d="M750 1125h250v-500h-125v-125h-125v625zM500 499l-124 1h-126v500h125v125h125v-626zM250 1249v-124l-125 -1v-125h-125v-375h125v-125h125v-125h250v-374h250v375h250l1 125h124v125h125v375h-125v125h-125v125h-500v-1h-250z" />
    <glyph glyph-name="afii10039" unicode="&#x425;" 
d="M0 875v375h250v-500h250v500h250v-375h-125v-375h125v-500h-250v625h-250v-625h-250v500h125v375h-125z" />
    <glyph glyph-name="afii10040" unicode="&#x426;" horiz-adv-x="1000" 
d="M250 0v125h-125v125h-125v1000h250v-1000h125v-125h125v1125h250v-1125h125v-125v-125h-250v125h-375z" />
    <glyph glyph-name="afii10041" unicode="&#x427;" 
d="M0 499l1 751h250l-1 -626h125v-124h125l1 750h250v-1250h-250l-1 375l-375 -1v125h-125z" />
    <glyph glyph-name="afii10042" unicode="&#x428;" horiz-adv-x="1375" 
d="M125 0v125h-125v1124h250v-999h125v-125h126l-1 1125h250v-1000h125v-125h125v1125h250v-1250h-1125z" />
    <glyph glyph-name="afii10043" unicode="&#x429;" horiz-adv-x="1500" 
d="M1125 0h-1000v125h-125v1124h250v-999h125v-125h126l-1 750v375h250v-1000h125v-125h125v1125h250v-1124l125 -1v-249l-250 -1v125z" />
    <glyph glyph-name="afii10044" unicode="&#x42a;" horiz-adv-x="1000" 
d="M125 0l1 1125l-126 -1l1 126h374v-375h250v-125h125v-125h125v-375h-125v-125h-125v-125h-500zM375 750v-625h125v125h125v375h-125v125h-125z" />
    <glyph glyph-name="afii10045" unicode="&#x42b;" horiz-adv-x="1250" 
d="M0 0v1250h250v-375h250v-125h125v-125h125v-375h-125v-125h-125v-125h-500zM250 750v-625h125v125h125v375h-125v125h-125zM1125 0h-250v1249h250v-1249z" />
    <glyph glyph-name="afii10046" unicode="&#x42c;" 
d="M500 0v125h125v125h125v375h-125v125h-125v125h-250v375h-250v-1250h500zM375 750v-125h125v-375h-125v-125h-125v625h125z" />
    <glyph glyph-name="afii10047" unicode="&#x42d;" 
d="M0 1125h125v125h500v-125h125v-1000h-124l-1 -125h-500v125h-125v125h250v-125h249l1 500h-375v125h375v375h-250v-125h-250v125z" />
    <glyph glyph-name="afii10048" unicode="&#x42e;" horiz-adv-x="1250" 
d="M625 1126v-1001h250v1001h-250zM375 750v250h125v125h125v125h250v-125h125v-125h125v-750h-125v-125h-125v-125h-250v125h-125v125h-125v374h-124v-624h-250v1250h250v-500h124z" />
    <glyph glyph-name="afii10049" unicode="&#x42f;" 
d="M500 625h-125v-125h-125v625h250v-500zM250 375h250v-375h250v1250h-500v-125h-125v-125h-125v-375h125v-250l-125 -1v-374h250v375z" />
    <glyph glyph-name="afii10065" unicode="&#x430;" 
d="M0 250v375h125v125h125v125h500v-875h-500v125h-125v125h-125zM250 750v-501h125v-125h125v626h-250z" />
    <glyph glyph-name="afii10066" unicode="&#x431;" 
d="M251 125h124v125h125v375h-125v125h-125zM250 1125v125h375v-125h-375zM0 1000h126l-1 125h125v-250h251l-1 -125h126v-125h125v-375h-125v-125h-125v-125h-251h-250v1000z" />
    <glyph glyph-name="afii10067" unicode="&#x432;" 
d="M0 875h625v-125h125v-250h-125v-125h125v-250h-124v-125h-626v875zM250 500h250v250h-250v-250zM251 125h249l1 250h-250v-250z" />
    <glyph glyph-name="afii10068" unicode="&#x433;" horiz-adv-x="747" 
d="M0 875v-875h250v750h375v125h-625z" />
    <glyph glyph-name="afii10069" unicode="&#x434;" 
d="M625 -250v-125h-500l1 125h-126l1 125h250l-1 -125h250v375h-125v-125h-250v125h-125v625h125v125h625l1 -1125h-126zM500 750h-250v-625h125l1 125h124v500z" />
    <glyph glyph-name="afii10070" unicode="&#x435;" 
d="M0 250v375h125v125h125v125h375v-125h125v-375h-500v-125h125v-125h250v-125h-375v125h-125v125h-125zM250 500h250v250h-250v-250z" />
    <glyph glyph-name="afii10072" unicode="&#x436;" horiz-adv-x="1375" 
d="M750 500h125v125h125v250h250v-250h-125v-125h-125v-125h125v-125h124l1 -250h-250v250h-125v125h-125v-375h-250v374h-125v-125h-125v-249h-250l1 249h124v125h125v125h-125v125h-125v250h250v-250h125v-125h125v376h250v-375z" />
    <glyph glyph-name="afii10073" unicode="&#x437;" 
d="M0 750h125v125h500v-125h125v-250h-125v-125h125v-250h-124l-1 -125h-500v125h-125l1 125h124v-125h375v250h-250v125h250v250h-376l1 -125h-125v125z" />
    <glyph glyph-name="afii10074" unicode="&#x438;" 
d="M0 875v-875h250v250h125v125h125v-375h250v875h-250v-250h-125v-125h-125v375h-250z" />
    <glyph glyph-name="afii10075" unicode="&#x439;" 
d="M0 875v-875h250v250h125v125h125v-375h250v875h-250v-250h-125v-125h-125v375h-250zM250 1251h-125v-125h125v-125h250v125h125v125h-125v-125h-250v125z" />
    <glyph glyph-name="afii10076" unicode="&#x43a;" 
d="M0 0v875h250v-375h125v125h125v250h250v-250h-125v-125h-125v-125h125v-125h124l1 -250h-250v250h-125v125h-125v-375h-250z" />
    <glyph glyph-name="afii10077" unicode="&#x43b;" 
d="M0 500h125v250h125v125h500v-875h-250v750h-125v-250h-125v-500h-250v500z" />
    <glyph glyph-name="afii10078" unicode="&#x43c;" horiz-adv-x="1000" 
d="M0 0v875h125v-125h125v-125h125v-125h125v125h125v125h125v125h125v-875h-250v500h-125v-125h-125v125h-125v-500h-250z" />
    <glyph glyph-name="afii10079" unicode="&#x43d;" 
d="M250 875v-375h250v375h250v-875h-250v375h-250v-375h-250v875h250z" />
    <glyph glyph-name="afii10080" unicode="&#x43e;" 
d="M0 250v375h125v125h125v125h250v-125h125v-125h125v-375h-125v-125h-125v-125h-250v125h-125v125h-125zM250 750v-625h250v625h-250z" />
    <glyph glyph-name="afii10081" unicode="&#x43f;" 
d="M0 0v875h250v-125h125v125h250v-125h125v-750h-250v750h-125v-125h-125v-625h-250z" />
    <glyph glyph-name="afii10082" unicode="&#x440;" 
d="M0 -375v1250h250v-125h125v125h250v-125h125v-625h-125v-125h-375v-375h-250zM250 625v-500h125v125h125v500h-125v-125h-125z" />
    <glyph glyph-name="afii10083" unicode="&#x441;" horiz-adv-x="750" 
d="M0 250v375h125v125h125v125h375v-125h-250v-125h-125v-375h125v-125h250v-125h-375v125h-125v125h-125z" />
    <glyph glyph-name="afii10084" unicode="&#x442;" 
d="M0 875v-125h250v-750h250v750h250v125h-750z" />
    <glyph glyph-name="afii10085" unicode="&#x443;" 
d="M626 -250v-125h-500v125h-125l1 125h249v-125h250v375h-125l-1 -125h-249v125h-125l-1 750h251v-750h125v125h125v625h250v-1125h-125z" />
    <glyph glyph-name="afii10086" unicode="&#x444;" horiz-adv-x="1375" 
d="M874 750v125h250v-125h125v-625h-125v-125h-375v-375h-250v500h-124v-125h-250v125h-125v625h125v125h375v375h250v-500h124zM499 250v500h-124v-125h-125v-500h125v125h124zM750 625v-500h124v125h125v500h-125v-125h-124z" />
    <glyph glyph-name="afii10087" unicode="&#x445;" 
d="M0 500v375h250v-375h250v375h250v-375h-125v-125h125v-375h-250v375h-250v-375h-250v375h125v125h-125z" />
    <glyph glyph-name="afii10088" unicode="&#x446;" horiz-adv-x="1000" 
d="M250 0v125h-125v125h-125v625h250v-750h250v750h250v-750h125v-125v-125h-250v125h-375z" />
    <glyph glyph-name="afii10089" unicode="&#x447;" 
d="M0 375l1 500h250l-1 -500h250l1 500h250v-875h-250l-1 250h-375v125h-125z" />
    <glyph glyph-name="afii10090" unicode="&#x448;" horiz-adv-x="1375" 
d="M125 0v125h-125l1 750h249v-750h251l-1 750h250v-750h250v750h250v-875h-1125z" />
    <glyph glyph-name="afii10091" unicode="&#x449;" horiz-adv-x="1500" 
d="M125 0v125h-125l1 750h249v-750h251l-1 750h250v-750h250v750h250v-749l125 -1v-125v-124l-250 -1v126z" />
    <glyph glyph-name="afii10092" unicode="&#x44a;" horiz-adv-x="1000" 
d="M125 0l1 750h-126l1 126l374 -2v-250h375v-125h125v-375h-124v-124h-626zM375 499v-375h250v375h-250z" />
    <glyph glyph-name="afii10093" unicode="&#x44b;" horiz-adv-x="1250" 
d="M0 0v875h250v-250h375v-125h125v-375h-125v-125h-625zM250 500v-375h250v375h-250zM1125 875v-875h-250v875h250z" />
    <glyph glyph-name="afii10094" unicode="&#x44c;" 
d="M0 0v875h250v-250h375v-125h125v-375h-125v-125h-625zM250 500v-375h250v375h-250z" />
    <glyph glyph-name="afii10095" unicode="&#x44d;" 
d="M0 750h125v125h500v-125h125v-625h-124l-1 -125h-500v125h-125l1 125h124v-125h375v250h-250v125h250v250h-376l1 -125h-125v125z" />
    <glyph glyph-name="afii10096" unicode="&#x44e;" horiz-adv-x="1250" 
d="M625 749v-624h250v624h-250zM375 500v125h125v125h125v125h250v-125h125v-125h125v-375h-125v-125h-125v-125h-250v125h-125v125h-125v125h-125v-375h-250v875h250v-375h125z" />
    <glyph glyph-name="afii10097" unicode="&#x44f;" 
d="M500 376h-250l1 374h249v-374zM250 251h250v-251h250v875h-625v-125h-125v-374h125v-125l-125 -1v-250h250v251z" />
    <glyph glyph-name="afii10071" unicode="&#x451;" 
d="M0 250v375h125v125h125v125h375v-125h125v-375h-500v-125h125v-125h250v-125h-375v125h-125v125h-125zM250 500h250v250h-250v-250zM125 1125v-125h250v125h-250zM499 1125v-125h250v125h-250z" />
    <glyph glyph-name="afii10099" unicode="&#x452;" horiz-adv-x="1125" 
d="M0 875v-125h250v-750h250v500h125l1 -125h124l1 -500l-251 -1v-124h376v126h125l-1 624h-125v125h-375v125h125v125h-124l-1 125h-250v-125h-250z" />
    <glyph glyph-name="afii10100" unicode="&#x453;" horiz-adv-x="747" 
d="M0 875v-875h250v750h375v125h-625zM500 1125h-125v-125h-125v250h250v-125z" />
    <glyph glyph-name="afii10101" unicode="&#x454;" 
d="M750 625h-124v125h-376v-250h250v-125h-250l1 -250h374v125h125v-125h-125v-125h-500v125h-125v625h125v125h500l1 -125h124v-125z" />
    <glyph glyph-name="afii10102" unicode="&#x455;" horiz-adv-x="750" 
d="M0 0v125h375v250h-250v125h-125v250h125v125h500v-125h-375v-250h250v-125h125v-250h-125v-125h-500z" />
    <glyph glyph-name="afii10103" unicode="&#x456;" horiz-adv-x="375" 
d="M0 0v750h250v-750h-250zM0 1000h250v-125h-250v125z" />
    <glyph glyph-name="afii10104" unicode="&#x457;" horiz-adv-x="375" 
d="M1 0v750h250v-750h-250zM-123 1000v-125h250v125h-250zM251 1000v-125h250v125h-250z" />
    <glyph glyph-name="afii10105" unicode="&#x458;" horiz-adv-x="375" 
d="M125 -250l1 -125h-250l-1 125h125v1000h250v-1000h-125zM0 1000h250v-125h-250v125z" />
    <glyph glyph-name="afii10106" unicode="&#x459;" horiz-adv-x="1375" 
d="M0 500h125v250h125v125h500v-875h-250v750h-125v-250h-125v-500h-250v500zM500 0v875h250v-250h375v-125h125v-375h-125v-125h-625zM750 500v-375h250v375h-250z" />
    <glyph glyph-name="afii10107" unicode="&#x45a;" horiz-adv-x="1664" 
d="M250 875v-375h250v375h250v-875h-250v375h-250v-375h-250v875h250zM500 0v875h250v-250h375v-125h125v-375h-125v-125h-625zM750 500v-375h250v375h-250z" />
    <glyph glyph-name="afii10108" unicode="&#x45b;" horiz-adv-x="1125" 
d="M0 875v-125h250v-750h250v500h125l1 -125h124v-375h250v500h-125v125h-375v125h125v125h-124l-1 125h-250v-125h-250z" />
    <glyph glyph-name="afii10109" unicode="&#x45c;" 
d="M0 0v875h250v-375h125v125h125v250h250v-250h-125v-125h-125v-125h125v-125h124l1 -250h-250v250h-125v125h-125v-375h-250zM500 1125h-125v-125h-125v250h250v-125z" />
    <glyph glyph-name="afii10110" unicode="&#x45e;" 
d="M0 875h250v-625h125v-125h125v750h250v-1000h-125v-125h-125v-125h-375v125h250v125h125v125h-250v125h-125v125h-125v625zM250 1250h-125v-125h125v-125h250v125h125v125h-125v-125h-250v125z" />
    <glyph glyph-name="afii10193" unicode="&#x45f;" 
d="M250 875h-250v-875h250v-125h250v125h250v875h-250v-750h-250v750z" />
    <glyph glyph-name="afii10050" unicode="&#x490;" 
d="M0 1250v-1250h250v1125h500v249l-250 1v-125h-500z" />
    <glyph glyph-name="afii10098" unicode="&#x491;" 
d="M0 875l1 -875h250l-1 750h500v249l-250 1v-125h-500z" />
    <glyph glyph-name="Wgrave" unicode="&#x1e80;" horiz-adv-x="1375" 
d="M250 125h-125v250h-125v875h250v-1000h125v-125h125v-125h-250v125zM875 125h125v1125h250v-1250h-500v125h-250v1125h250v-1000h125v-125zM500 1625h250v-250h-125v125h-125v125z" />
    <glyph glyph-name="wgrave" unicode="&#x1e81;" horiz-adv-x="1375" 
d="M250 125h-125v250h-125v500h250v-625h125v-125h125v-125h-250v125zM875 125h125v750h250v-875h-500v125h-250v750h250v-625h125v-125zM500 1250h250v-250h-125v125h-125v125z" />
    <glyph glyph-name="Wacute" unicode="&#x1e82;" horiz-adv-x="1375" 
d="M250 125h-125v250h-125v875h250v-1000h125v-125h125v-125h-250v125zM875 125h125v1125h250v-1250h-500v125h-250v1125h250v-1000h125v-125zM750 1499h-125v-125h-125v250h250v-125z" />
    <glyph glyph-name="wacute" unicode="&#x1e83;" horiz-adv-x="1375" 
d="M250 125h-125v250h-125v500h250v-625h125v-125h125v-125h-250v125zM875 125h125v750h250v-875h-500v125h-250v750h250v-625h125v-125zM750 1125h-125v-125h-125v250h250v-125z" />
    <glyph glyph-name="Wdieresis" unicode="&#x1e84;" horiz-adv-x="1375" 
d="M250 125h-125v250h-125v875h250v-1000h125v-125h125v-125h-250v125zM875 125h125v1125h250v-1250h-500v125h-250v1125h250v-1000h125v-125zM375 1500v-125h250v125h-250zM749 1500v-125h250v125h-250z" />
    <glyph glyph-name="wdieresis" unicode="&#x1e85;" horiz-adv-x="1375" 
d="M250 125h-125v250h-125v500h250v-625h125v-125h125v-125h-250v125zM875 125h125v750h250v-875h-500v125h-250v750h250v-625h125v-125zM375 1125v-125h250v125h-250zM749 1125v-125h250v125h-250z" />
    <glyph glyph-name="Ygrave" unicode="&#x1ef2;" 
d="M0 1250v-375h125v-375h125v-500h250v500h125v375h125v375h-250v-625h-250v625h-250zM250 1625h250v-250h-125v125h-125v125z" />
    <glyph glyph-name="ygrave" unicode="&#x1ef3;" 
d="M0 875h250v-625h125v-125h125v750h250v-1000h-125v-125h-125v-125h-375v125h250v125h125v125h-250v125h-125v125h-125v625zM250 1250h250v-250h-125v125h-125v125z" />
    <glyph glyph-name="horizontalbar" unicode="&#x2015;" horiz-adv-x="750" 
d="M0 624v-125h750v125h-750z" />
    <glyph glyph-name="underscoredbl" unicode="&#x2017;" horiz-adv-x="750" 
d="M0 0v-125h750v125h-750zM0 -250v-125h750v125h-750z" />
    <glyph glyph-name="quotereversed" unicode="&#x201b;" horiz-adv-x="375" 
d="M250 1125h-125v-125h-125v250h250v-125z" />
    <glyph glyph-name="minute" unicode="&#x2032;" horiz-adv-x="250" 
d="M125 1250h-125v-250h125v250z" />
    <glyph glyph-name="second" unicode="&#x2033;" horiz-adv-x="500" 
d="M125 1250h-125v-250h125v250zM375 1250h-125v-250h125v250z" />
    <glyph glyph-name="exclamdbl" unicode="&#x203c;" horiz-adv-x="750" 
d="M0 1250v-1000h250v1000h-250zM0 125v-125h250v125h-250zM375 1250v-1000h250v1000h-250zM375 125v-125h250v125h-250z" />
    <glyph glyph-name="overline" unicode="&#x203e;" horiz-adv-x="750" 
d="M0 1875v-125h750v125h-750z" />
    <glyph glyph-name="numbersign" unicode="&#x2116;" horiz-adv-x="1500" 
d="M0 1250v-1250h250v625h125v-375h125v-250h250v1250h-250v-625h-125v375h-125v250h-250zM875 1125v-250h125v-125h250v125h125v250h-125v125h-250v-125h-125zM1000 1125h250v-250h-250v250zM875 625h500v-125h-500v125z" />
    <glyph glyph-name="arrowleft" unicode="&#x2190;" 
d="M125 749v-125h-125v-125h125v-125h125v125l625 1v125l-625 -1v125h-125z" />
    <glyph glyph-name="arrowup" unicode="&#x2191;" 
d="M625 750h-125v125h-125v-125h-125v-125h125l-1 -625h126v625h125v125z" />
    <glyph glyph-name="arrowright" unicode="&#x2192;" 
d="M624 750v-125l-624 -1v-125l624 1v-125h125v125h125v125h-125v125h-125z" />
    <glyph glyph-name="arrowdown" unicode="&#x2193;" 
d="M251 124l124 1l1 -125h124v125l125 -1v126h-124v625h-126v-625h-125z" />
    <glyph glyph-name="arrowboth" unicode="&#x2194;" 
d="M125 749v-125h-125v-125h125v-125h125v125l375 1v-125h125v125h125v125h-125v125h-125v-125h-375v124h-125z" />
    <glyph glyph-name="arrowupdn" unicode="&#x2195;" 
d="M251 125h124v-125h126v125h125v125h-125v375h125v125h-125v124l-126 1v-126l-125 1l1 -125h125l-1 -375h-124v-125z" />
    <glyph glyph-name="arrowupdnbse" unicode="&#x21a8;" 
d="M250 251h124v-125h126v125h125v125h-125v375l125 -1v126h-125v124l-126 1v-126h-125l1 -124h125l-1 -375h-124v-125zM250 0v-124h375v124h-375z" />
    <glyph glyph-name="triagup" unicode="&#x25b2;" 
d="M0 0v250h125l1 250h125v250h125l-1 125h125l1 -125h125l-1 -250h125v-250h125v-250h-875z" />
    <glyph glyph-name="triagrt" unicode="&#x25ba;" 
d="M0 875h250v-125h250v-125h250v-125h125v-125h-125v-125h-250v-125h-250v-125h-250v875z" />
    <glyph glyph-name="triagdn" unicode="&#x25bc;" 
d="M875 875v-251h-125v-250h-125l1 -249h-125l-1 -125h-125l1 124h-125v250h-125l-1 250h-125v251h875z" />
    <glyph glyph-name="triaglf" unicode="&#x25c4;" 
d="M875 0h-251v125h-250v125h-250v125h-124v125h125v125h249v125h250v125h251v-875z" />
    <glyph glyph-name="smileface" unicode="&#x263a;" horiz-adv-x="1000" 
d="M0 0v1250l1000 1v-1251h-1000zM125 125h750v1000h-750v-1000zM375 750h-125v250h125v-250zM750 1000v-250h-125v250h125zM374 375h250v125h125v-125h-125v-125h-250v125h-125v125h125v-125z" />
    <glyph glyph-name="invsmileface" unicode="&#x263b;" horiz-adv-x="1000" 
d="M0 0v1250l1000 1v-1251h-1000zM375 1000h-125v-250h125v250zM625 1000v-250h125v250h-125zM374 500h-125v-125h125v-125h250v125h125v125h-125v-125h-250v125z" />
    <glyph glyph-name="sun" unicode="&#x263c;" 
d="M125 125h-125v-125h125v125zM500 750v125h-125v-125h-250v-250h-125v-125h125v-250h250v-125h125v125h250v250h125v125h-125v250h-250zM750 750h125v125h-125v-125zM125 750v125h-125v-125h125zM750 125v-125h125v125h-125zM250 625h375v-375h-375v375z" />
    <glyph glyph-name="female" unicode="&#x2640;" 
d="M250 0v125h-125v125h125v250h-125v125h-125v499l126 1l-1 124h500v-125h125v-499h-125v-125h-125v-250h125v-125h-125v-125h-250zM250 624l250 1v499h-249z" />
    <glyph glyph-name="male" unicode="&#x2642;" 
d="M251 124l249 1v498h-249v-499zM624 750h1v-125l125 -1v-500h-124l-1 -124h-500l1 125l-126 -1v500h126l-1 125h249v126h125l1 375h375v-375h-251v-125z" />
    <glyph glyph-name="spade" unicode="&#x2660;" 
d="M500 875v-125h125v-125h125v-125h125v-250h-249l-1 -124h125v-126h-624l-1 124l126 1l-1 125h-250v250h125v125h125v125h125v125h125z" />
    <glyph glyph-name="club" unicode="&#x2663;" 
d="M625 875v-250h250v-375h-249l-1 -124h125v-126h-624l-1 124l126 1l-1 125h-250v375h250v250h375z" />
    <glyph glyph-name="heart" unicode="&#x2665;" 
d="M375 0v125h-125v125h-125v125h-125v375h125v125h250v-125h125v125h250v-125h125v-375h-125v-125h-125v-125h-125v-125h-125z" />
    <glyph glyph-name="diamond" unicode="&#x2666;" 
d="M375 0v125h-125v125h-125v125h-125v125h125v125h125v125h125v125h125v-125h125v-125h125v-125h125v-125h-125v-125h-125v-125h-125v-125h-125z" />
    <glyph glyph-name="musicalnote" unicode="&#x266a;" 
d="M250 750v-500h-125v-250h250v124l125 1v625h250v250h-125v-125l-250 -1v-125z" />
    <glyph glyph-name="musicalnotedbl" unicode="&#x266b;" 
d="M625 375h-125v-250h250l-1 125h126v875h-125v-125h-250v-125h-250v-125h-125v-500h-125v-250h250v125h125v500h125v125h125v-375z" />
  </font>
</defs>
</svg>
