<svg xmlns="http://www.w3.org/2000/svg"><defs><font id="main" horiz-adv-x="692"><font-face font-family="KBLuckyCloverCyr" font-weight="500" panose-1="2 0 6 3 0 0 0 0 0 0" ascent="800" descent="-200" x-height="610" cap-height="777" bbox="-98.2222 -248.8 1177 1014.17" underline-thickness="50" underline-position="-100" unicode-range="U+0020-3000"/><glyph glyph-name=".notdef" horiz-adv-x="364" d="M66 33h199v600H66V33zM33 0v666h265V0H33z"/><glyph glyph-name=".null" horiz-adv-x="0"/><glyph glyph-name="nonmarkingreturn" horiz-adv-x="333"/><glyph glyph-name="space" horiz-adv-x="300"/><glyph glyph-name="exclam" unicode="!" horiz-adv-x="280" d="M100 745q-3 0-7-1l-1-6q4 4 8 7zm80-786l-77 18-8 2q2-14 3-26 18 1 57 4 16 1 25 2zm-34 676q1 45 2 109-11 1-21 1 15-8 16-25zm2-393q-9-10-21-10t-21 8-9 20q-6 251-10 397 0-8-1-17-2-102-2-108 0-7-2.5-61T78 403l-2-59q-1-44-.5-67t1.5-58 3-65q27 4 63 6-5 9-4 19 5 31 9 63zm141 497q-7-26-8.5-55t-1-72 .5-60q-1-45-6.5-181T268 161q0-14-13-19-1-7-6.5-12.5T236 124q-14-1-43-1.5t-45-1.5-39.5-3.5T66 110q-8-1-15 3t-9 13v8q-3 32-4.5 69.5t-2 61.5 1 72.5T38 399t3 72 3 63q0 6 2 107 2 65 7 108 0 3 2 6-2 3-2 6-1 8 4.5 14.5T71 783q37 3 87 1 8 8 21 8 14 0 22-11 39-3 56-4 14-1 18-14 8-2 12-9t2-15zM267 55q3-37-7-111-2-11-12-15-6-8-16-8-23 0-74-4t-77-4q-8 0-14 6t-6 14v1q-2 4-2 8-1 18-6 51-6 39-8 54v10q0 8 6 14t14 6q30 0 88.5-1.5T242 74q3 0 6-1 8-1 13-6t6-12zm-53 616q15-200-4-396 0-9 1-18 1-10-5-19-4-34-9-67-1-5-3-8 24 0 34 1 0 73 5.5 208.5T240 552q0 14-.5 54.5t1 72T248 737q-16 1-42 3 0-28-1-50 8-8 9-19zM115 33l87-20q11-3 17.5-13t3.5-22q-3-11-12-17h11q6 47 6 73-25 0-72 1.5T87 37q0-5 1-12 12 12 27 8z"/><glyph glyph-name="quotedbl" unicode="&quot;" horiz-adv-x="383" d="M217 655q-10-44-14.5-65.5T192 531t-5-66.5 8-57.5q2-8-2-15t-12-9q-3-1-5-1-4-2-8-2-86-4-110-3-8 0-13.5 6.5T39 398t6 13q0 189 16 281 2 8 8.5 12.5T85 708q1 0 1-1 5 1 9 1 12-2 57-12 31-7 51-7 8 0 14-6t6-14-6-14zm168 2q10-8 8-20-27-117-27-244 0-8-6-14t-14-6q-4-2-9-2-15 0-46-.5t-46-.5q-8 0-13.5 5.5T225 388q-3 5-3 11 0 47 7 139t7 136q0 8 6 14t14 6q4 0 7-1 1 0 3-1 18-5 50-11 41-7 55-11 11-2 14-13zM124 508v-65q0-18-16-26 9 0 44 2-7 41-3 91-8-5-18-4-4 1-7 2zm185 90l2 14q2 11 10.5 17.5T340 636q-2 0-31 6h-1q4-7 3-15zm-12-155q-8-6-18-6-9 0-16 5-1-17-1-32 9 0 31 .5t33 .5v3q-12 0-20.5 8.5T297 443z"/><glyph glyph-name="numbersign" unicode="#" horiz-adv-x="749" d="M339 244q34-1 62 0-11 1-30 3l-30 3q0-3-2-6zm117 117q-40 7-77 7-2 0-5 1-4-16-12-44t-10-36q6 0 24-2t28-3q13-1 23-2 14 42 29 79zm16-72l-3-9h2zm-15 402q-19-60-31-130 12-1 23-3l18 59q13 44 18 75 2 8 8.5 12.5T509 708q3-1 7-3 20 0 50-1 8 5 18 5t18-7q39-2 64-2 8 0 14-6t6-14q0-3-1-6 2-6 0-11-2-8-11-47t-16-60q25 2 58 2 10 0 16-9 8-5 9-13 3-20 8-93 4-58 11-89 1-8-3.5-15t-12.5-9q-11-2-18 6-13 1-66 3-32 1-51 3-1-11-5-27l-4-20h4q19 0 30-1 38-2 62-17 7-4 8.5-12.5T702 249q0-106 3-143 1-9-4.5-15T687 84h-3q-5-4-11-4l-93-4q-1-98-9-164-1-7-6.5-12t-12.5-5q-5-13-19-13-10 0-21.5-.5T486-119t-22-1q-43-1-72 2-8 1-13.5 7.5T374-96q0 3 2 7 0 3-2.5 84t1.5 88q-17 5-41 5-11-118-4-166 1-9-4-15.5t-13-7.5q-7-1-12 2h-4q-104 0-160-5-9-1-15 4.5T115-86v4q-2 5-2 11 1 16 15 166H82q-10 0-16 8-15 5-14 21 2 18 3 70 0 47 4 75 1 8 7.5 13t15.5 4q1 0 3-1 3 1 6 1h58q2 9 5 30 2 13 4 22H93q-8 0-14 6t-6 14q0 4 1 7v157q0 8 6 14 4 12 16 14 69 10 121 7 2 6 22 79 17 62 38 96 8 14 24 9 7 5 15 4 11-2 41.5-7t50-7.5T446 728q8 0 14-6t6-14q0-11-9-17zM285 246l20-1q-4 7-2 15 5 23 19 72l21 73q-18 1-34 2-16-76-22-139zm147-59l28-2v3q-15-1-28-1zm158 199q25-6 71-7 39 0 54-2-3 24-6 63-4 58-6 78-37-1-65-5h-5q-7-3-14.5 1T608 525.5t1 15.5q6 12 11 28t8 28l8 32q5 20 7 31-14 1-32 1-4-67-29-170l-1-3q44-2 78-1 12 0 21-8t9-20-8-21-20-9h-34q1-4 1-8 0-12-8.5-20.5T599 392q-20 0-42 1-11-43-17-80-5-30-9-60 22 2 40 3-16 4-15 20 0 4 2 7 1 9 7 40 4 19 5 30-6 8-4 17 2 8 9 12.5t15 3.5zM458 514q-18 7-54 7-8 0-14 6t-6 14v11q12 74 31 137-23 2-59 9v-4q18-11 13-31l-39-166q41 0 99-2 16-1 73-4 11 88 14 156-4-18-11-41l-21-68q2-6 0-12-3-8-10.5-11.5T458 514zM133 245q35 2 80 2 7 44 16 88l15 74q-47 1-88-2-12-1-21 7t-10 20 7 21 20 10q10 1 21 1 4 20 24 23 30 4 66 7l5 20q21 99 29 167-9-22-19-58-21-75-25-86v-5q-2-14-15-17-8-4-15-1-1 1-2 1-46 3-107-5V378q47 0 72-1 8 0 13.5-6.5T205 356q0-7-6-13-2-11-5-34-3-17-5-26 6-5 7-13t-4.5-14.5T178 248q-24-2-81-2-2-20-2-52-1-44-2-59h40q5 13 20 12 8-1 13.5-7t4.5-15l-1-5q1-3 1-5 0-4-2-8-1-15-6-76l-9-93q50 3 134 3-3 43 7 158 1 6 4 10 0 8 6 13.5t14 5.5q44 0 68-7 3 0 5-2 4 1 8 1 8-1 13-7.5t4-15.5q-4-25-4-52.5t1.5-67.5 1.5-56q19-1 47-1 8 1 22 1t25.5.5 21.5.5q8 64 8 163-3 5-3 11 0 8 6 14 5 10 17 10 7 0 12-4 27 0 92 4-2 33-2 129-7 2-16 4 12-9 12-24 0-12-8.5-20.5T629 200q-37 0-104-6l-1-10q14-1 29-1 12 0 20-9t8-21-9-20-21-8q-16 0-31 1-7-98-15-151-2-12-12-19t-21-6q-11 2-18 10t-7 19q-12 9-15 25-2 10 2 25 1 8 3 13.5t2.5 8 .5 5.5q0 13 11 22 1 13 3 31l1 19q-98 3-176 12l-1-20q-4-101-9-151-1-12-10.5-19.5T237-57t-19.5 10.5T211-25q1 6 1 12h-9q-11 2-18.5 12T179 21l20 129q-37 5-73 13-11 2-18 12t-4 22q1 5 4 10-2 3-2 7-1 12 7 21t20 10z"/><glyph glyph-name="dollar" unicode="$" horiz-adv-x="606" d="M429 458q-13-8-24 3-14 14-20 17-3 2-7 3 1-15 3-32 109-51 151-92 34-32 57-77t29-92Q633 75 554 6q-69-60-185-80l-2-18q-2-13-15-16-3-1-5-2-94-14-156-8-8 1-13.5 7.5T173-96q0 2 1 4l-1 1q-4 22-5 38-6 4-26.5 16.5T110-16L82 3Q65 15 53 26q-70 61-70 135v3q-2 14 10 21 18 10 76 41 47 25 72 41 7 4 15 2.5t13-8.5q6-9 1-19l14-25q0 4 1 16 0 30 1 47-33 14-59.5 28.5T72 344t-48.5 49.5T-8 455q-13 46-2.5 94.5T30 641q25 37 60 62.5t75 29.5q-1 4-2 7 0 1-1 24-1 14 12 19 5 5 12 6l58 6q8 5 17 5 4 0 8-1 19 2 39 6 10 11 25 9 6-1 11-4 14-2 17-16v-6q5-4 6-11 3-23 6-57 93-41 133-113 2-3 2-5 3-1 5-2 7-3 10.5-10.5T523 574q-19-45-85-111-4-4-9-5zm-224 18q0 14 1 42t1 41q-16-8-26-23-18-29 2-48 7-6 22-12zm-18 118q-30-10-48-40-15-27-9-46 2-8 5-15-8 32 13 64 15 24 39 37zm286-420q-4-26-22-46-32-34-98-44h-4q-1-7-6-12 23 4 44 11 48 15 69.5 37.5T474 170q-1 2-1 4zm-61 57l-62 30q0-30-1-137 51 8 72 31 17 18 11 41-4 18-20 35zM225 409q-1 8-1 16-2 0-4 1-5 3-14 6l-16 6q-21 9-33 19 14-16 32-32 16-8 36-16zm307-263q-3-28-21-52 21 22 23 45 0 2-2 7zM95 97q-17 20-36 48-10 15-1 30l-35-19q2-53 56-100 13-12 30-24l-7 11-6 11q-3 6-5 8-11 19 4 35zm222-29h3q-1 1-3 2v-2zm-28 623l8 71-8-1q-2-36-3-69zm-7-741q-8-3-15-2-11 2-18 10-23 1-43 5 2-4 2-8 1-20 4-34 48-3 117 7l1 5q-2 3-3 8-1 8 4 14.5t14 7.5q82 10 145 46-37-19-83-32-51-14-103-18-9-9-21-9h-1zm-55 345q-2-20-3-63 0-44-2-66v-1q6-6 5-14.5t-7-14-14.5-4.5-13.5 7q-31 35-54 79-20-12-51-27l-1-1q14-2 21-13 27-40 54-65.5T224 73q10-4 26-5-2 20-4 46-13 123-14 138-3 36-4 74-42 25-72 50-7 4-14 9-75 45-89 120-11 60 13 103t72 65q40 19 90 21l2 59q-14-1-27-3v-6q0-1 1.5-5.5T208 727q1-2 1-5 2-5 2-11-1-8-7.5-13.5T189 693q-34 3-67.5-17T63 619t-34-78 1-74q17-52 61.5-87.5T202 316q3 1 7 1 8-1 13.5-7.5T227 295zm139 227q24 0 40-9 7-4 14-11 45 45 61 77-6 2-9 8-35 63-120 99-2 1-5 3l-1-14q14-6 28-14.5t30.5-20T426 626q10-6 12.5-18t-4.5-22q-6-9-17-12t-21 2q8-8 7-19.5t-9-19.5-20-8-21 9q-7 7-16 15-4-79-6-166v-15q62-23 107-52t71-77q10-6 18-13 29-20 44-39l7-9q-5 41-25 80t-49 67q-17 17-46 34.5T410 390l-55 28h-1q-9 5-11 15-5 37-5 66 0 8 5 13.5t12 6.5q5 3 11 3z"/><glyph glyph-name="percent" unicode="%" horiz-adv-x="860" d="M712 158q-2 1-5 2t-6 1q-19-6-29.5-23T660 103q0-14 6-19t20 1q26 12 33 36 0 18-5 31zM148 569q-24-5-36-24-15-25 10-40 14-9 26.5-4t18.5 20q11 28-19 48zm17 161q49-17 90-62 30-32 46.5-70t14.5-84q-3-46-33-86-26-35-55-55-28-20-68-24-91-9-141 48-45 49-43 129 2 50 23.5 99T58 706q2 4 4 6 17 19 43 24 17 8 36 13 8 1 15-3t9-13v-3zm504-407q-1 3-1 6 0 8 6.5 13.5T689 348q106-5 154-74 41-59 26-147-13-81-69-143-56-64-131-68-88-5-134 65-39 60-28 146 8 70 50.5 126T669 323zM321 136q-26-60-30-109-1-12-10.5-19.5T259 1q-16 2-23 17L207-85l122-40 16 40q-13-10-28-3-7 3-11.5 8t-5.5 9v4q-1 3-1 7-18 11-13 32 13 53 35 164zm257 481q-23-70-78.5-224.5T419 155q-8-24-21.5-74.5T376 4l16 50 60 196q19 60 43 121.5t62 150T607 640l-10 5v-1zm-42 41l9 14q-28 12-53 20-13-19-23.5-41t-25-56.5T423 548q-64-143-121-314 46 102 91 188l15 46q60 176 61 181 4 11 14.5 16.5T506 668q17-6 20-23 3 8 10 13zm-413-23q-48-30-62-87-11-44 7-75 21-34 73-42 16-3 29 18 6 10 10 25-38-30-80-3-27 17-32 45t10 49q14 24 40 36v2q3 8 10.5 11.5t15.5.5q6-3 12-5h4q-16 20-37 25zm85 7q5 4 10 6l-12 12q-4-3-8-5 5-6 10-13zm29-179q-6-24-17-43-2-4-5-7 17 14 36 39 44 58 13 130 4-40-4-95-3-21-23-24zM708 30q3 13 5 24-6-3-11-5-37-16-62 4-20 17-20 51 1 33 21 61-3 14 10 21 12 7 23 11l-19 11q-16-12-25-27-25-41-10-99t57-68q8-2 31 16zm54 172q-14 18-28 42l-18-6q39-28 52-65 7-18 9-40 1 25-12 54-4 7-3 15zm65-15q4-13 6-26 2 54-23 90-12 17-29 29 3-6 7-12.5t5-8.5 3-5 4-5.5 4-6 8-10.5l11-16q10-13 4-29zm-175 87q7 3 14 7l-16-6zm-48-34q-1 2-2 3-46-47-56-121-8-71 23-119 33-50 98-47h5q-5 1-9 2-39 9-64 39.5T564 67q-10 35-6 74.5t22 69.5q10 16 24 29zM494 733q63-18 146-66 12-7 10-21 1-6-1-12l-52-122q-37-85-62-149t-45-125L431 42q-37-117-70-194-1-3-4-6-3-7-10-10t-15-1q-30 11-87 29l-69 23q-8 3-12 10t-1 15q1 3 3 6 99 381 221 650l19 46q15 35 27 59t25 45q5 7 13 9 7 15 23 10z"/><glyph glyph-name="ampersand" unicode="&amp;" horiz-adv-x="635" d="M264 180q-14 19-24 37-16-11-24.5-23t-8-19 1.5-11q3-6 14-5 18 3 41 21zm28 350q23 16 31 30 3 5 3.5 8t-.5 4v1q-2 2-6.5 3t-12-2-13.5-13q-5-8-3-26 0-2 1-5zM101 405q-40 72-41.5 148.5t41 142T225 794q10 4 22 6.5t25.5 3.5 22 1.5 24.5 0 20-.5q145 0 194-103 42-88 1-223-24-80-73-126l56-34q40-24 63-36 5-3 7-7 7-4 8.5-12t-2.5-15l-29-44 34-34q27-28 45-43 5-4 7-12 9-12 0-24-44-56-116-105-6-15-22-13-34 5-72 46-39-33-93-54-55-20-113-25-68-6-129 12Q45-29 6 15q-54 60-45 161 8 92 59 156 25 30 81 73zm71 227q-3-7-5-14 3 7 5 14zm188-483q-43 38-81 80 11-19 30-41 6-6 5-14.5t-7-13.5q-5-4-11-5-36-31-67-35-38-6-55 24-15 27 1 59.5t55 54.5q4 7 11 10 2 0 3 1-17 20-33 41-42-27-67.5-56T110 187q-12-58 35-91 48-34 112-23 38 6 87 58zm-98 257q62 34 96.5 61t52.5 63q12 25 5.5 57.5t-27.5 60-48 36.5-55-2q-44-20-65-87-26-80 41-189zm149-174q9 16 15 37 4 11 14.5 16.5t22 2 17-14T482 251q-5-15-11-29 2-6 2-13l9 6q9 6 20 4.5t18-9.5q1 3 3 5 0 1 1 3l24 36-52 31q-48 29-63 37-8 5-10 14-3 2-5 5-6 7-5 15t7 13q51 43 74 116-34-55-74.5-85.5T328 351q-10-4-22-8 44-54 105-111zm11-136q-23-19-41-31Q291 2 213 0q-33-1-70 10-36 11-65 29-27 17-45 49-19 33-26 70-3 17-4 35l-2-20Q-6 89 36 41 67 6 118.5-9T230-19q58 5 111 27t86 54q6 6 14 6t14-6l4-4q2-2 5-4 28-31 43-37 62 41 102 88-15 13-40 38-35 36-43 42-2-11-12-18l-14-10 24-19q10-7 11.5-19T530 98q-2-3-5-5l1-1q10-6 12.5-17.5t-4-22-18-13T494 44q-33 21-72 52zM173 366q-73 117-71 211-8-83 40-163 3-4 3-9 5-13-7-22-50-38-70-59 2 1 33 15 34 15 72 27zm84 126q0 6-2 17-3 16-4 22-4 32 9 52 18 27 48.5 32t48.5-17q20-25 1-57-17-29-63-57-5-10-17-11-8 0-14.5 5.5T257 492z"/><glyph glyph-name="quotesingle" unicode="'" horiz-adv-x="174" d="M137 407q-3-7-9-12 6 1 11 3zm23 256q0-10-.5-46t0-49.5 1.5-44 3.5-48.5 7.5-42 12-44q3-8-1-15.5T172 363q-5-2-11-1-2-1-4-1-16-4-35-7t-42.5-5-33.5-3q-5-1-11 2-7 0-13 5.5T16 367q-1 29-7.5 98T1 566.5 3 669q-1 3-1 7 0 8 6 14t14 6q20 0 60.5-1t60.5-1q8 0 14-6t6-14q0-6-3-11zM82 447q-10-12-26-10-2 1-5 1 3-29 4-51 8 1 22.5 2.5T98 391q-18 8-17 28 0 14 1 28z"/><glyph glyph-name="parenleft" unicode="(" horiz-adv-x="339" d="M153 635q-19-30-29-54-3-6-13-29l-12-31-12-27q-8-20-11.5-31T66 435t-9.5-31.5T50 373Q28 266 61 122.5T160-110q21-28 72-75l23 28q-11 0-19 7-81 73-125 172T61.5 226t18 210.5T153 635zm65-1q11-1 18-8 8-7 9-18 38 57 86 93l-56 66q-8-4-17-11 5-1 9-4 10-8 11-20t-6-21q-29-36-54-77zm46-731l10-9q7-7 9-16l22 24q-3 2-17 18t-17 20-15.5 18T239-22 225-3t-15 22-12.5 21T184 64t-11 24q-40 102-27.5 232T216 560q-40-54-59.5-134T141 257q3-100 34-186.5T257-66q14-13 7-31zm35 892l69-82q5-6 4-13.5t-6-12.5q-1-1-3-1-1-7-6-10-56-41-97.5-113T198 411.5 179.5 249 207 102q5-13 12-26l12-24q5-9 15-23l15-21q5-6 18-22l17-20 19-22q16-17 19-21 8 0 14-6 4-6 3.5-13.5T346-109q-15-13-30-30t-33-40.5-29-36.5q-1-1-2-1-1-4-4-7-5-6-12.5-6t-12.5 5q-4 4-18 17l-20 18-18 17q-11 11-19.5 21T132-132Q60-37 25.5 114T14 381l8 31q4 16 9.5 33.5T41 475l13 32 11 29 14 30q9 23 11 29 23 55 73 117 56 69 103 91 10 5 18-1 9 0 15-7z"/><glyph glyph-name="parenright" unicode=")" horiz-adv-x="288" d="M147 374q-4 40-11 77-9 41-42 115l-13 29q12-31 29.5-91t20.5-69q10-30 16-61zM29-148q1 3 3 7 6 11 19 31.5T72.5-74 87-45q8 17 14 35-33-67-84-125zm105 927q60-103 96-189.5T285.5 408 296 214q-8-98-44-207-29-88-63-145-42-71-93-99l-4-6q-8-8-19-4l-2-1q-7-2-14 1t-9 10 0 13l-26 29q-27 32-42 46-5 6-5 13t5 13l4 2q1 3 2 5Q86-2 114 140q29 139-17 285l-21 71q-17 56-25.5 79t-26 62-38.5 69q-3 2-6 6-3 6-1 13.5t8 11.5q76 44 122 62 7 2 14-1t10-9q2-5 1-10zm-23-106q4 5 9 7 13 8 27 1-19 36-43 77-33-15-81-42 18-28 33-60-6 17-11 33-3 11 2.5 22t17 14 22.5-2.5 14-17.5q4-15 10-32zM89-160l-7-11q-7-12-21-14l19-20q41 24 78 85 32 54 60 139 45 143 44.5 259T220 515q34-126 32-263-2-119-33-225t-93-180q-7-9-17.5-10.5T89-160z"/><glyph glyph-name="asterisk" unicode="*" horiz-adv-x="368" d="M105 715h-2v-1q1 1 2 1zm203-91l-6 20-24-11q17 5 30-9zm-38-229l28 21q-18 24-61 56l30-66q3-5 3-11zm-59-5q-4-15-19-20l6-7 15-17q9 10 21 20-14 3-19 16zm-61 25q-32-41-60-82-3-5-8-8 9-5 17-8 1 3 10 20.5t16 28.5 15 21h1q1 5 6 9 2 2 6 3-2 8-3 16zm-40 153q-5 18-8 34-5-2-10 0-10 2-28 5-12 1-16 2-3-9-12-28.5t-14.5-33T13 521l20-5q-7 8-8 19-1 12 7.5 20.5T53 565q48 2 57 3zm114-65l2-6q1 2 3 4 0 1 1 2 4 6 11 8 9 3 28 10.5t35.5 12.5 32.5 7q-4 17-17 51l-5 12q0-12-10-21-41-36-81-80zM46 371h-1q-10 9-11 22l-16-28 19-12q1 6 5 12zm74 140q-16-2-52-3l9-3q7-2 10.5-8.5T89 483t-8-11q-1-3-3-6l-15-25q36 46 57 70zm-19-235q-17 7-35 17t-44.5 27T-9 340q-5 2-7 7-12 9-5 23 18 32 64 107-44 10-46 11-4-1-9-1-7 1-11.5 7t-3.5 14q3 19 10.5 39.5T3 596l15 34v3q2 7 8 11t14 3q8-2 25-4 2 18 2 79 0 4 2 8-1 3-1 7 1 7 7 12t13 4q24-3 69.5-4.5T208 747t9-3q12-4 12-17 0-28 7-72 20 7 63 27 3 2 6 2 3 2 7 3 8 1 14-3.5t7-11.5q3-21 20-67 17-45 22-69 4-5 4-11 0-7-5.5-12.5T361 507t-13-.5-13-2.5l-10-2q-5-1-12-4l-11-3q-3-1-12-4.5t-12-4.5q34-28 53-55 4-1 6-4 5-5 5-12.5t-6-12.5q-9-9-57-46-34-26-48-46-4-5-11-7-14-8-23 5-9 12-26 31l-12 14q-6-10-16-30l-16-30-1-1q0-3-1-6-3-6-10-9t-14-1zm88 399q-3-44 8-92 17 14 35 25 8 5 18 4l17 15q2 2 4 2-18-6-32-11-4-9-14-11-8-1-14 3.5t-7 11.5q-9 63-11 90-9 0-28.5.5T136 714q6-5 9-12 8 5 17 4 12-1 20-10t7-21z"/><glyph glyph-name="plus" unicode="+" horiz-adv-x="493" d="M19 149q0-5 1-10h13l-6 3q-5 2-8 7zM242-29q-7-12-21-14-16-4-27 10v-39q11 0 34.5-.5T265-73h3q-15 4-20 20-3 11-6 24zm-21 516l2 4h-3q1-2 1-4zm57-12q3 1 7 1 12 1 20.5-7.5T315 448q2-52 10-143 1 0 2 1 0 20 2 58.5t2 67.5-4 55q-26 2-51 3 3-6 2-13v-2zm13-456q6-29 13-56 3-11-2.5-21.5T284-73q27 0 48 2 0 30-5 81v6q-7-5-16-5-12 0-20 8zm45 143q24 3 52 8 12 2 22-5t12-19q2-16-10-27 25-2 50-2 2 16 2.5 35t0 32.5-1 36.5-.5 35q-12 1-34.5 4t-25.5 3q-41 5-67 5-4 0-8 2l2-24v-2q11 1 31 3t37 3.5 32 2.5q12 1 21-7t10-20-7-21-20-10q-14-1-31-2.5t-37-3.5-32-3q1-13 2-24zm-64 77v2l-1 13v-15h1zm6-83q-1 12-1 25h-4l2-25h3zm3-57l-1-1q1-8 1-16v17zm-180 76q31-10 67-15-1 8-1 17-43 0-66-2zm-61 22q-1 11 6 20.5T64 229q38 6 102 6-1 18-1 37-3-1-7-1-16 0-82 3-41 2-63 1 2-22 3-73v-17q9 12 24 12zM-5 314q30 3 83 0 57-3 60-3v183q0 6 3 10-1 3-1 5 0 8 5.5 14.5T159 530q95 4 198-5 8-1 13.5-7.5T375 503t-8-14q4-27 4-57.5t-2-69.5-2-55q14-1 40-4 65-8 69-8 8-1 13-7 14-4 14-19 0-13 1-50.5t.5-64.5-4.5-53q-2-13-15-16-6-8-16-8-52 0-108 7 1-9 6-70 5-57 5-92 0-8-5-13 0-8-5.5-13t-12.5-6q-35-3-85-3-12 0-39.5.5t-42.5.5q-5 0-9 2-8 0-13.5 6T154-90q0 112-7 191-19 0-66.5-1T7 99q-7 0-13 5-10 4-12 14-5 30-6 84t-4 77q-1 9 5 16 0 8 5.5 13t12.5 6z"/><glyph glyph-name="comma" unicode="," horiz-adv-x="212" d="M90 94q-6-2-12-3 9-21 14-47 0 22-2 44v6zm45-188q-3-10-12-15t-20-4q-12 2-19 12t-5 22q-12-21-29-34 22-13 84-42 18 22 29 41-21 0-28 20zM51 125q17 0 35.5 6t29.5 11.5 36 19.5q4 2 8 2h1q7 2 13.5-1.5T183 152q5-16 14-46l12-47q5-16 9.5-38.5T224-20q2-79-62-158 0-4-2-9-3-6-10-8.5t-14 .5q-8 4-29.5 13.5t-33 15-29 15T12-133q-4 2-6 6-9 4-11 13-1 8 3 14t11 8q44 9 50 75 3 30-4 61-6 30-18 48-3 4-3 9-1 3-1 6 0 7 5.5 12.5T51 125z"/><glyph glyph-name="hyphen" unicode="-" horiz-adv-x="347" d="M61 289q-17 7-18 25-1 12 7 21t20 10q150 10 173 12-106 12-207 0 4-30 7-72zm128-39q79-2 116-2h3q1 7 1 14-2-1-5-1-79-7-115-11zm-40-5q-56-7-101-18l2-26q39-3 99-2-12 9-12 24 0 14 12 22zM10 394q71 11 157 8.5T325 385h1q9 1 15-4l2-1q8-2 12-9t2-15q-1-6-6-10 6-76-16-163-3-13-16-15-6-10-18-9-25 1-132 0-77-1-123 2-5-5-12-6-8-1-14.5 4.5T12 173q-2 22-5 60-4 5-6 12-3 12 3 22-4 57-9 93v5l-2 6q-1 8 4 15t13 8z"/><glyph glyph-name="period" unicode="." horiz-adv-x="159" d="M133 13q-9-5-19-4l-43 6q-5 1-10 4 0-9-.5-26.5T60-35q9 0 34 1t39 1v46zm30 78q6-6 6-14 0-105-1-129 0-7-5.5-12T149-69q-2 0-5 1-2-1-5-1-16 0-48.5-1T42-71q-7 0-12.5 5.5T24-53V81q0 4 1 7 0 7 5.5 12t12.5 5q83 0 106-3 10-2 14-11zm-59-22l18-2q6-1 11-4v4q-13 2-29 2z"/><glyph glyph-name="slash" unicode="/" horiz-adv-x="426" d="M377 623q-16-30-31-71 21 45 31 71zm-80 168q22-6 44-17t53.5-33 35.5-24q6-4 7.5-11t-2.5-13q-6-38-23.5-81t-41-92-32.5-73Q271 279 180 75q-8-20-23-65-15-46-24-66 2-5 2-10-1-8-6.5-13T116-83q-20 2-44 8T31.5-63.5-12-48l-36 14q-6 2-9 8-13 5-11 18 6 42 30 95l39 85q46 119 72 174 12 25 24.5 55.5T118 454l22 58 20 55q52 141 106 219 4 6 11.5 7.5T291 791h6zm5-108q-17-41-53-114-37-77-52-111Q105 245 56 18 54 6 44-.5t-22-4T3.5 8 0 30q11 54 25 106-5-12-15.5-33.5T-5 72Q-25 29-30-2L2-14l34-12q12-5 30-10.5T98-44l1 1q10 21 24 64 16 49 25 68l126 296q-10-3-19 1t-14 12q-69-165-102-297-3-12-13-18t-22-3-18 13-3 22q9 38 21.5 78t23.5 72 29 77l28 71q10 25 33 75l30 69 34 74q26 55 33 69 5 11 16 15t22-1q19-8 17-29 5-1 10-4 9-6 12-16 4 15 7 29-5 3-26.5 18t-30 20-24.5 12.5-29 10.5q-11-15-20-33 9 2 17-1 11-5 15.5-16t.5-22z"/><glyph glyph-name="zero" unicode="0" horiz-adv-x="681" d="M176 628q-37-43-68-103 9 16 20 32 41 62 48 71zM148-41l-11 11Q61 47 41 119q8-34 22-62 29-58 85-98zm200 809q4 6 12 8 129 29 212-61 56-61 100-197 26-81 20.5-184.5T651 132Q613 27 544-44q-68-72-163-89-105-18-205.5 29.5T27 39Q-7 107-9 203.5T14 388q24 95 70 176 45 81 102 129 70 58 162 75zm36-249q-39 1-73-34-41-45-62-126-21-80-10-154 11-76 51-106 30-23 68 6 37 27 53 70 36 96 36 186 0 111-61 156zm45 14q58-59 58-172 0-98-38-200-20-54-67-88-62-47-116-6-53 40-66 132-12 82 10 170 24 91 72 143 59 62 132 42 17-4 15-21zm-29 88q-66-19-121-75t-89-134q-37-85-41.5-171.5T176 87q16-33 43.5-55.5T280 4q58-10 106 31.5T468 158q30 74 41 160 11 84 0 133-11 51-40 95-29 45-69 75zm41 76q-109-14-190-76-11-8-22-21t-16-19.5-19.5-29T176 525q-57-85-79-186t-2-198q3-12 9-26-20 77-11 159.5T136 435q38 85 99 149t138 90q6 9 17 12t21-3l1 1q12 2 21.5-5t12.5-19v-1q45-37 76.5-88.5T565 463q13-59 2-149.5T524 143q31 48 40 77 19 58 22 123.5t-9 128T533 590q-31 54-80 88-10 7-12 19zm71 8q50-43 82-106.5T637 467t6.5-136.5T620 202q-6-16-16.5-37t-16-30.5T564 98l-17-26Q458-67 359-96q8 1 16 3 81 14 142 78t97 161q33 91 38 190 6 97-18 170-42 128-91 182-12 12-25 22-2-2-6-5z"/><glyph glyph-name="one" unicode="1" horiz-adv-x="343" d="M218 685q1 2 2 5-37 5-59 6-8-60-11-123t-3-155q0-83-1-125-5-211-5-340 16 0 46-.5t44-.5q-3 6-3 13v10q-9-10-22-10-12 0-20.5 8.5T177-6q0 76-1.5 227.5T174 449q0 13-1 62.5t0 84 5 66.5q2 12 11.5 19t21.5 6q4-1 7-2zm68-671v-49q0-5-2-10 7 1 13 2v54q-6 0-11 3zm-52 442q-1 11-2 24v-30zm114 241q5-28 5.5-59.5t-1-72T351 510q0-93-7-278t-7-278q0-5-2-10 1-8-3.5-15T319-80q-30-6-68-7.5t-68-.5-64 0q-8 0-14.5 5.5T98-69q0 6 3 12 0 133 5 350 1 43 1 127 0 96 3.5 161.5T122 710q1 9 10 14 5 12 18 12 28 0 91-9 56-8 85-8 7 0 13-5t7-12q1-2 2-5zm-73-20q0-45 7-116 10-104 11-119 1-14 4.5-84t7.5-108q6 168 6 260 0 19 1.5 55t1 63-3.5 51q-16 1-35 3v-5z"/><glyph glyph-name="two" unicode="2" horiz-adv-x="696" d="M162 478q-13-9-27-3l15-14zM69-2q35 70 120 145l49 41 56 48q23 20 43 42 15 16 28 33.5t34 49.5 26 39q4 6 13 18.5t13 19.5l9 16q6 9 9 16.5t4 15.5q6 36-25 75-32 38-71 47-17 3-43.5-1T285 591q-42-16-92-76 23 22 47 35 47 24 87.5 24.5T396 550q27-24 29.5-65.5T407 396q-11-27-61-76-38-37-104-92l-71-59-73-59Q68 85 53 70q-4-3-9-4 7-30 25-68zm381 156q122 6 242-12 15-2 17-18 4-37 0-94-4-72-4-89 0-8-6-14t-14-6q-3-1-6-1-243 0-373-8-23-1-68.5-5t-82-6-69.5-2q-8 0-13.5 5T66-84v1Q11 12 2 74q-1 9 4 15.5T19 97h4q1 1 2 3l46 39 73 61 73 59q64 54 101 90 44 43 53 63 16 44 14.5 69.5T369 521q-10 9-24 12t-37-1-50-18q-39-20-84-90-5-8-15-9-13-6-23 3L10 540q-12 12-3 26-6 12 3 22 109 122 220 176 58 25 124 19t132-37 114.5-80T662 560q11-55 2.5-107t-35-101-60-88-72.5-70q-8-6-25-21zM347 663q24 1 42-3 60-13 104-67 29-35 37-74-1 5-1 12-2 28-3 34-13 56-74 82-48 22-105 16zM110-50q-4-7-11-10v-1q31 0 65 2.5t75 6 65 4.5q18 1 38 2h-67q-94 1-151-6-7-1-14 2zm166 62q115 0 152 2 31 2 91 16 59 14 81 18-47 1-105 0t-101-9q-42-7-118-27zM81 566q42 58 106.5 99T327 719t149-18q87-39 106-124 2-9 5-42 1-15 1-26 0-16-2-24-25-90-192-253L264 110l-59-56 46 12q89 23 133 31 27 4 60.5 6.5t51 3 63 0 51.5-.5q12 0 20.5-8.5T639 77q0-18-16-26 10 0 18-7.5T651 26q1-12-6-21.5T626-7q-26-3-93-19-48-12-79-16 81 2 211 2 1 8 4 73 3 43 1 71-157 22-292 3-8-1-15 4t-8 13q-2 4-3 8-1 8 4 15t13 8q22 3 51 26 8 6 26 22 17 16 27 23 78 61 124 150.5T624 550q-11 47-53 89.5T469 710t-118.5 33T248 728Q143 677 43 565l76-75q-6 16 4 30 37 49 68 77-37-29-62-65-7-10-19-12t-22 5-12 19 5 22z"/><glyph glyph-name="three" unicode="3" horiz-adv-x="662" d="M62 78q0 8 3 14l-7-5q2-4 4-9zM262-92l-20 10Q157-33 83 46q20-27 54-57 55-48 86-67 16-9 39-14zm323 443q1 0 2-1 17-9 36-34 46-59 50-147.5T636 16Q526-154 323-141q-80 5-120 29-34 19-92 71Q27 34 13 96q-1 8 3.5 15t12.5 9h6q67 57 141 74 14 3 22-10 3-2 5-5 42-48 76-70 47-29 87-17 16 5 32.5 17t25.5 26q8 13 7 23-2 11-18 21-21 14-61 9-15-2-38-7-3 0-16.5-3t-19.5-5q-8-1-14.5 3t-8.5 11q-6 4-8 11-21 69-60 163-6 14 5 24 4 6 11 9l64 24q19 7 52 24.5t53 37.5q21 18 16 37-4 18-15 20-15 2-42-10-16-8-33.5-19t-35-24-22.5-16q-3-2-6-2-14-8-25 4-15 17-55 48-41 33-59 55-11 13 0 26-6 13 4 23l56 51q21 18 57.5 42t70.5 37q59 22 119 11t109.5-43 84.5-83 46-108q13-77-29-145-3-5-11-14l-14-15zM192 638q4 4 16.5 15t16.5 14l16 10q10 7 22 11 11 5 26 9 22 6 45 5 14 2 28 2 61 1 111-29t71-92q6-19 10-45 5-36 0-56-3-11-8-22 0-10-1-20-7-54-50-112 8 1 15-2 97-41 113-137 13-81-34-170l13 19q34 53 31 128.5T591 292q-14 18-23 23-1 0-6 1-19 4-23 20-4 12 6 28 4 7 13 18l14 15 7 7q34 56 23 117-9 50-39.5 94t-73 71-93 37-99.5-9q-30-11-61.5-32T183 643.5 129 595q15-18 50-45 34-27 49-42 57 41 87 55 38 18 64 13 38-6 49-51 9-40-28-75-23-20-55.5-38.5T290 384t-60-23q34-82 53-146l23 6 6 1q-3 10 2 19.5t14 14.5q26 11 51 30h-4q-8 0-16 4l-33-21q-10-7-22-4.5T285.5 277t-4 22 12.5 18q7 5 35 22l48 31q20 13 40 29 50 39 70 73-6 61-55 115-46 52-97 57-37-6-69.5-25T214 572q-7-10-18.5-12.5T174 564t-12.5 18.5T166 604q8 12 18 24 3 6 8 10zM113 99q71-81 157-130 105-60 177-34 36 13 68 69-24-17-54-27-90-29-156-11-30 9-62 29t-51.5 37T145 75q-8 9-8 21t8.5 20.5T166 125t21-8q37-38 68.5-62T321 22q49-14 122 11 54 17 72.5 57t4.5 86q-18 62-74 93-24-24-50-42 22-3 39-14 31-20 35-49 4-25-12-51-14-20-36-36.5T378 54q-58-18-120 22-39 24-84 76-46-13-88-44 16 4 27-9z"/><glyph glyph-name="four" unicode="4" horiz-adv-x="585" d="M561 375v10h-10q6-4 10-10zM69 292q-7 0-14 3 1-28 3-53h16q-2 4-2 8-1 20-3 42zm44 388l2 20v2q-36-1-62-5-5-48 0-167 1-37 1-151v-33q5 3 11 4h1q-4 92-9 320 0 12 8 21t20 9q22 0 28-20zm25-319q-2 33-5 61-2 21-8 66l-8 67q3-116 7-197zm3-66l-1 7-13-2v-8zm221 99q-10 250-10 255t1 10l-3-1q0-173 6-241 1-11-8-18-1-4-4-7zm119 4l23-2q-2 4-2 9 0 3 1 6v5q21 140 9 244H408q2-4 2-9 0-7 10-253 2 0 3 1-1 126-7 229-1 12 7 21t20 10 21-7 10-20q6-104 7-234zm-116-81l-1 19q-24-2-53-6-45-6-113-18v-9q50 6 114 11 23 1 53 3zm59 4v20l-2-1 1-19h1zm-57-62q-29-2-51-3-66-5-116-11v-2q80-1 136-8 8-1 13-7.5t4-14.5v-3q0-51 2-146.5T357-75h24q-13 9-13 25 4 133-1 309zm58-319q-4-10-13-16 72-2 91-2 0 215-6 291-1 16 14 21 5 4 12 4h33q0 18 3 78 1 20 1 28-11-18-32-12-19 6-46 8v-15l23 2q12 1 21-7t10-20-7-21-20-10l-28-2q0-34-1-144t-1-169q0-12-8.5-20.5T450-75q-17 0-25 15zM36 735q19 3 41.5 4.5t37 2 41.5 0 36-.5q8 0 13.5-5t6.5-12q13-3 16-17 15-92 15-283 10 1 34.5 2t37.5 1q-5 62-5 241 0 3 1 7-1 9 4.5 15t13.5 7q37 3 197 3 8 0 14-6t6-14v-1q4-4 5-10 13-102-6-244h17q7 0 12-4 2 1 5 1 8 0 14.5-5.5T600 403q2-30-1-89-3-64-3-85 0-13-12-19-6-12-19-12h-27q5-69 5-283 0-7-4-12v-1q0-8-6-14t-14-6q-29 0-87.5 1.5T344-115h-1q-3-1-6-1-8 0-14 6t-6 14q0 51-2 149t-2 144q-52 6-128 6-5-3-12-3t-14 3q-12 0-51.5-.5T47 202q-11 0-17 9-10 5-11 16-5 58-5 152 0 113-1 149-5 124 0 176 1 8 7 13 2 15 16 18zm137-41q-5-22-2.5-65.5t4.5-65 8-66.5l8-69q3-26 4-58 62 11 101 16-67-2-76-2-8 0-14 6t-6 14q0 6 3 11 0 197-15 286h-15v-7z"/><glyph glyph-name="five" unicode="5" horiz-adv-x="585" d="M89 274q-8 26-12 58v-63zm512 470v-3q0-64-10-180-1-8-7-13.5t-15-4.5q-3 0-7 2-195 0-289 7 2-34-1-61 80-4 152-37 45-20 79-53.5t53.5-73 29-85 9-91T585 61q-1-3-3.5-20t-6-30.5T566-13q-29-54-79-88t-107-44.5-115-5T155-125q-37 16-65 31T31.5-51-13 11q-6 14 6 24 1 4 4 8 70 80 119 112 7 4 14.5 2.5T143 150q8-1 14-8 31-40 88-60 49-18 77 7 26 24 21 67-5 46-48.5 77.5T169 254q-15-2-31-6-4-3-9-4-5-2-11-2-24-8-46-19-7-4-15-1t-12 10q-2 4-2 8-6 6-6 14 0 80-2.5 241.5T32 737v2q-7 6-7 15 0 8 6 14t14 6q49 0 165.5 5t206 3T585 766q7-2 12-8.5t4-13.5zm-47-14q4-4 7-9v8zm-379 5q0 1 1 2-63-2-104-3v-9q10 7 22 6 5-1 10-3 33 5 71 7zm53 2q31 1 74 0 169-4 212-2-99 11-287 4 1-1 1-2zm-68-78l3 17q-24-2-47-5v-17q21 3 44 5zm-32-181l21 122q-16-2-30-4l8-92q1-12 1-26zm33-155v-5q-3-17-18-23l1-4q10 2 19 3 75 10 129-14-59 31-119 38-6 1-12 5zm59-378Q159-31 77 38q-10 9-10 23L28 18l1-3q8 9 20 10t21-7l35-30q11-9 30.5-21.5T172-51q13-5 48-4zM380 3q20 17 34 54 35 93-50 173-15 14-34 27 47-38 53-97 7-63-34-100-46-42-118-16-65 24-103 70-16-11-32-25 11 0 19-7 76-64 129-84 34-13 121 2 8 1 15 3zM232 366q101-28 171-94 6-5 12-11-58 75-125 97-26 9-58 8zm306 313q-28-2-62.5-3t-55-.5-65 2T300 679q-44 1-77 0l-3-17q78 2 81 2 14 1 102 6.5t134 5.5q13 0 22-10 1 14 1 27-8-13-22-14zm-1-61q-46 0-132-6l-102-6q-19-1-54-1.5t-40-.5l-28-162q76 6 120-11 42-17 87-55.5t80-87.5q33-47 50-94 2-6 4-11 27-87-5-150-10-20-26-36-68-93-231-108 85-10 159 19T530 5q5 8 7 17t4.5 23.5T545 69q13 51 9.5 104.5T536 273t-48 84.5-80 60.5q-76 34-168 34-8 0-14 6t-6 14q0 13 12 18 4 29 0 71 0 6 2 11v4q1 8 7.5 13.5T256 594q98-9 297-9 2 23 3 40-8-7-19-7z"/><glyph glyph-name="six" unicode="6" horiz-adv-x="646" d="M305-36Q252-23 203 7q-43 27-77.5 66T80 159q-13 62-2.5 144T118 469q50 140 123 212-63-54-107.5-136T72 372q-14-68-8-133t27-118 65-92.5T261-27q22-5 44-9zm112 257q-63-6-106-72 42-16 71 3 30 21 35 69zm66-135q-16-11-33-21-87-48-160-36 56-19 98-12 20 3 35 12.5T459 59q14 13 24 27zm-267-8q-2-4-6-6 11-8 23-15l3-2q-11 10-20 23zm361 121q4-104-78-182l-3-3q26 22 55 55 48 55 61 115.5T608 294t-55 84q-37 34-85 47t-98 0q70-2 133-47 46-33 69-80.5t5-98.5zM146 306q-5 1-9 4-13-86-1-137 7-29 30-58 1 9 2 17-22 40-25 102-2 33 3 72zm181 309q-2-6-6-10l-22-25q-10-16-20-35-37-68-59-153-21-83-19-149l6 11q15 27 30 48-4 2-7 5-8 7-9.5 18t3.5 19q-2 2-4 3-6 6-6 14.5t5 14.5l4 3q25 78 79.5 145T430 618q-7 13-27 63-18 44-31 67v1q-33-8-66-24 22 3 31-17 6-11 1-23 12-2 19-13 6-10 3-22t-13-18-20-17zM288 90q3-1 5-2 54-13 128 28 34 19 60 43.5t37 48.5q-5 59-45 98-43 43-96 32-66-15-120-112-14-27-22-55 6-5 9-13 4-14 8-24l6-2q4-1 8-3-3 5-3 11 0 5 2 9 25 46 65 77.5t90 34.5q7 0 13-4 2 1 5 1 8 0 14-6t6-14q0-83-54-119-51-35-119-2 9-13 3-27zm120 678q13-26 32-72 20-50 30-69 3-5 2-11l2-6q2-8-2-15t-12-9q-52-14-96.5-55.5T289 433q82 46 158 37t133-62q46-43 66-101.5t5-129.5-70-134Q505-44 433-68q-76-25-182 3-58 15-102 48-45 33-71 76.5t-41 97-14 109T33 379q18 97 63.5 183T216 711.5 377 791q8 1 15-3.5t9-12.5q4-3 7-7z"/><glyph glyph-name="seven" unicode="7" horiz-adv-x="660" d="M577 601l42-3q3 0 6-1-1 31 2 55h-2q-104 14-282 21l-60 2q172-19 278-22 12 0 20-9t8-21q0-14-12-22zm-94-167q-75-149-173-308-8-14-48-73-29-43-44-70 0-1-9-22l-16-37-2-4q23-13 41-25l21 34q-10 0-18 5-10 6-12.5 18t4.5 22q23 35 47 76l50 91 43 78q7 13 25 43l26 46 22 39 24 45q10 21 19 42zm180 62L504 250q-14-22-53-92-34-62-57-94L352 5l-50-74q-21-31-39-61-3-7-11-9l-2-4q-5-7-13.5-8t-14.5 4q-25 19-64 39-11 0-19 8-2 1-3 3-48 23-68 34-7 4-9.5 11.5T61-36q0 1 1 2 0 6 3 11 22 33 52 91 40 76 51 96l90 150q66 106 98 165-178 24-309 19-8 0-14.5 5.5T26 517q0 10 7 16v6q14 94 6 149-1 6 2 11-2 5-2 10 1 8 7 13.5t15 4.5q64-5 284-14 179-7 286-21 7-1 12-7 6 2 11 1 8-2 12.5-9t3.5-15q-5-22-5.5-45.5T666 561t2-50q0-6-3-11zM146 611q77 4 168 2l-91 11q-64 7-98 10-12 1-19.5 10.5T99 666q1 10 8 17l-27 2q6-57-6-146 130 2 307-23 7-1 12-7h1q8-4 10.5-12t-1.5-15q-35-66-107-182l-94-156q-12-21-50-94-32-61-48-87l31-16 8 27q4 12 16 17 7 16 9 20 16 29 46 75 37 55 46 70 126 204 215 393-200 11-325 4-12-1-21 7t-10 20 7 21 20 10zm435-81q-9-31-22-64l-22-54q-9-22-29-60l-28-52q-6-12-32.5-57.5T417 191L353 74l9 12q21 31 54 91 42 76 54 95l158 244q0 10-1 26-6-2-12-2l-33 2q1-6-1-12z"/><glyph glyph-name="eight" unicode="8" horiz-adv-x="647" d="M567 401q52-67 81-154 32-95-41-217-31-52-75-94-45-44-96-64-69-26-143.5-21.5T154-112Q86-77 45.5-17T5 122q0 88 22 140 36 84 99 140-22 46-24 102t19 101q23 52 59 87.5t75.5 51 83.5 18 84-11.5q86-26 139.5-98.5T604 486q-4-28-37-85zM337 253q-37-6-61.5-29.5T244 170q-7-33 8-56 18-26 59-29 35-3 60 17t31 51q6 30-9.5 57.5T337 253zm14 267q-12-2-19.5-7t-9-8.5-1.5-6.5q0-6 6.5-11t21.5-2q16 4 15 17-2 12-13 18zm36 22q15-16 16-37 2-20-10-36.5T357 447q-31-8-53.5 8T281 498q0 23 16.5 39.5T343 559q6 3 13 2h11q8 0 14-5.5t6-13.5zm69 135q29-33 36-91 8 10 22 11 12 0 20.5-8t9.5-20q3-27 1.5-68.5T534 426q-2-4-3-8 2 4 8.5 15t8.5 16l7 13q4 8 6 15t3 13q8 61-18 112t-75 83q-7-7-15-8zm-250-95q-9-13-11-22-6-23-2-49 2 30 9 58 2 7 4 13zm242-197q19 23 30 59 6 18 8 41-12-58-40-99zm-235-20q-43 41-64 91 7-28 21-49 4-7 2.5-15t-8.5-13q-3-2-6-2-62-52-95-131-18-43-18-124Q45 7 143-59q-39 35-55 87-17 52-12 108 6 70 42 132 37 63 95 97zm161 354l2 1h-2v-1zM273-55q-8 4-17 9-36 21-62 61t-39 89q-11 36-13 73-6-23-8-46-7-69 25.5-120T261-54q6-1 12-1zm173 79q23 28 33 68t2 83q-13 76-46 130l-12-4q-27-9-57-7 11-4 13-17 38-22 54-58t9-74q-9-45-46-74.5T307 45q-58 5-86 44 25-62 65-85 80-47 141 1 10 9 19 19zm16-65q-60-54-128-68 47 3 88 19 43 16 83 55t68 85q63 107 37 185-28 85-80 148-8 9-4 19v3q-11-26-25-47 15-10 26-21 40-40 50.5-94.5t-3.5-106T529 37q-16-26-37-49-8-9-16-17-6-6-14-12zm-89 682q-38 16-69-9t-46-78q-15-54-2-99.5t47-59.5q18-7 39-8t32 6q21 14 39 53t22 87q8 85-32 113-14-11-30-5zm-81-336q-36-11-54.5-20T211 259q-17-39-9-100 1 10 3 20 9 40 40.5 71.5T324 292q8 5 17 2 6 1 12 1-26 3-53 14-4-3-8-4z"/><glyph glyph-name="nine" unicode="9" horiz-adv-x="516" d="M264 486q2 16 6 45-40 15-66 4-22-10-29-36-7-24 5-43 10-17 33-14 31 3 49 41 1 1 2 3zm71 106q-64 49-127 30-31-9-57.5-34T109 530t-15-64.5 14-53.5q37-56 152-43 34 3 79 29-5 81-4 194zm72 7q8 55 19 107 0 2 1 4l-6 1q-42 7-63 8-6-5-15-4-53 8-91.5 9.5t-83.5-7T86 687q-34-21-65-80-15-28-22-58 22 55 73 94t121 53q75 15 150 2 9 12 24 12 12 0 20-9t8-21v-4q5-10 2-20-1-4-3-7v-30l5-5q7-6 8-15zm-2-18q-2-5-5-8t-7-5q0-68 2-122 3 70 10 135zM142 320q51-31 92-20 13 4 29 11-70-7-121 9zm169 219q-6-51-9-71-2-10-10-14-28-47-75-52t-71 33q-21 33-10 74 12 44 51 62 44 20 105-6 5-2 8-6 13-7 11-20zM296-37q5 56-1 150-7 115-8 132-86-31-156.5-12T11 311q-51 62-59.5 145T-15 625q36 69 81 96 39 24 86.5 34.5t87 9.5 89.5-7q4 2 9 2 31 0 89-9t83-9q8 0 14-6t6-14q0-7-4-12 4-27 7-55t2.5-63-.5-53.5-2.5-61.5-2.5-53q-2-43 1-223 2-142-6-226-1-8-8-14-1-7-7-11.5T496-54q-32 3-84 1-73-4-87-4-5-2-11-2-8 1-13.5 7T296-37zm186 731q-19-96-26-199-7-106-4.5-196.5T463 95q1-12-7-21t-20-10l2-29q0-12-8-20.5t-20-9-20.5 7.5-9.5 20q-2 50-15 142-15 105-16 117l-24-14q2-5 2-10 0-21 8-152 5-82 2-133 6 0 73 4 46 2 76 0 7 79 5 213-3 179-1 226 0 10 2.5 53.5t2.5 61 .5 51.5-2 60-7.5 51h-3q0-4-1-9z"/><glyph glyph-name="colon" unicode=":" horiz-adv-x="222" d="M179 84v-4q0-21-.5-61.5T178-43q0-6-4-11-5-10-16-10-8 0-29.5-.5T90-65t-32 2q-8 1-12.5 7T42-43q0 2 1 3-1 5-1 9 6 37 6 116-1 3-1 6 0 7 5.5 12.5T65 109q16 0 48-1.5t48-1.5q7 0 12.5-5.5T179 88v-4zm-51-13V36q0-12-8.5-20.5T99 7q-9 0-16 5-1-6-1-11l29 2q12 1 21-7t10-20q0 14 1 44v50q-7 0-15 1zm101 381q0-79-3-113-1-7-6.5-11.5T207 323q-4-2-8-3-75-8-126 2-7 2-11 8t-3 14l2 4v2q0 64 1 80-2 6 0 13 1 15 2 28 1 7 6.5 12t13.5 4q5-1 9-4 19 0 59.5-1t62.5-1q7 0 12.5-5.5T233 463q0-6-4-11zm-41-7l5-17v17h-5zm-71 0l6-16q3-8 3.5-9t2.5-5.5 3-6 5-9.5l10-17q7-15-1-29 21 0 45 2 1 10 1 21-5-5-12-7-11-3-21.5 2.5T144 389l-14 47q-1 5-1 10-7 1-12 1v-2z"/><glyph glyph-name="semicolon" unicode=";" horiz-adv-x="240" d="M193 465q5-5 5-12 5-101 9-133 1-7-3.5-13t-12.5-7h-6q-5-3-11-3-17 1-50.5 3.5T74 304q-8 0-13 7-10 5-10 16 0 25-1 43-2 8 0 15-2 34-7 62-2 13 10 19 3 12 15 13 21 2 107 2 7 0 12-5t6-11zm-56-360l-18-6 2-27zm-26 286q11-8 12-9 1 0 3-1t10.5-3.5T157 370q5-2 10-6-2 18-5 81h-30l3-2q10-6 12.5-17.5T143 403q-11-18-32-12zm-4-488q-8 7-9.5 17.5T101-60q8 12 14 25-4 0-9 2-1 1-2 1-15-36-45-62l30-18 6-3q2 10 9 16zm82 168l3 15-6-14q2 0 3-1zM89 127q12 4 56 20 37 13 61 17 12 2 19-9 14-5 12-20 9-4 14-13t3-20q-12-65-15-78-11-89-100-192-5-5-12.5-5.5T113-170l-2 2q-13 10-40 25-31 18-44 27-10 7-8 19-5 13 6 21Q95-24 83 95q-5 4-6 10-2 7 1.5 13.5T89 127z"/><glyph glyph-name="less" unicode="&lt;" horiz-adv-x="645" d="M293 198l70-18q46-11 56-13-2 1-6 2t-8 2.5-8 2.5q-20 6-26 8-45 14-78 16zm319-93l4 15-157 37q83-22 142-45 7-2 11-7zM488 62q-7-5-16-5-76 0-215 22l-45 8 117-37q47-14 137-33 85-19 122-29 5 32 13 70-10-4-20 0l-46 16q-5-10-14.5-14.5T500 58zM42 154q-5 8-5 17 0 12 8.5 20.5T66 200h25l-25 7q-12 3-17.5 14T46 243q1 4 4 8l-18-12q-1-1-2-1 0-14-7-94 0-2-1-5l8-2q3 11 12 17zm148 74q27-9 48-15l36-10q-3 2-4 5-3 7-1 14t9 10q19 9 40 21-68-23-128-25zm48 64q33 6 66 17.5t83 32.5l71 31q20 8 34-9 66 47 115 88-10 12-39 51-24 31-40 46-31-18-98-64-72-49-111-72l-153-88q34 14 159 60 126 46 196 84 11 5 22.5 1.5t17-14 2-22T549 417q-68-36-204-86zm-106-42q-16 2-23 17-5 10-1 22l-40-26q7 2 14 0 22-6 51-16-1 2-1 3zm523-119Q630 28 622-30q-1-5-4-9-2-7-8.5-10.5T596-51q-40 10-138 32-89 19-139 35L160 65Q67 93 1 106q-7 2-11 8t-3 14q1 4 4 7-5 6-4 13 0 4 3.5 35.5t3 33.5-.5 33q-1 8 4 13.5T9 270h4q96 65 288 175 38 21 108 70 74 50 111 72 13 7 23-4 3-1 5-3 21-19 49-56 31-41 42-54 3-2 4-6 1-1 3-2 4-6 3.5-13.5T644 436q-57-50-141-108.5T344 227q16-4 37-10 74-22 83-24l166-39q2-1 3-2 5 2 9 0 8-1 11.5-7.5T655 131z"/><glyph glyph-name="equal" unicode="=" horiz-adv-x="601" d="M599 381q3-4 3-9 0-2 4.5-51t2.5-75q2-4 2-8 0-7-5.5-12.5T593 220h-3q-20 0-119 4-74 3-119 1-11 0-61-3t-71-3.5-60.5-1T88 219t-62 6h-7q-7 1-12 7t-4 13q2 18 6 73 2 42 6 69-1 3-1 6 0 7 5.5 12.5T32 411q279 0 400-5 10 0 50-2.5t49-2 48 1.5q8 1 13.5-4t6.5-12v-6zM41 54q-7 6-10 14 0-7-1-14h11zm44 100H32v-23q6 17 24 20 14 2 29 3zm457 28q30-1 53-3 7-1 12-7t4-13q-1-5-3-8 3-51-3-79 4-4 5-10 1-8-4-13.5T594 42Q480 30 261 24T11 17q-8 0-13.5 5T-8 34q0 6 3 11-1 3-1 7 2 20 2 120 0 7 5.5 12.5T14 190h1q238 0 414-9h2q46 4 90 8 12 1 21-7zM60 298q-10 4-16 13-2-38-3-51 66-8 157-6-19 2-56.5 7T86 268q-11 1-18.5 9.5T60 298zm120-198q66-4 101.5-5.5t90.5 0 100 8.5q12 1 21.5-6T505 78v-8l64 6q5 23 3 69-11 0-24 1-8-14-23-15-54-4-141-14-93-11-136-14-25-2-68-3zm-139 0q-6 5-9 13V88q3 7 9 12zm27 254q47 3 133 0 89-2 129 0 18 1 83.5 5.5T515 364q12 0 20.5-8.5T544 335q0-22-21-28-6-15-23-18-25-4-78-17-27-7-43-10 37 0 94-2 79-4 101-4 1 20-3 60l-5 50q-34-1-46-.5t-45.5 2.5-44.5 2q-121 5-380 5-2-15-4-33 9 11 22 12z"/><glyph glyph-name="greater" unicode="&gt;" horiz-adv-x="755" d="M338 376q-99 56-228 144-6 4-10 11l-22-47q163-65 260-108zm375-82q8-5 11-14 3-12-2.5-22.5T705 243q-102-32-260-115l-78-42 161 56q128 44 196 71 2 0 3 1-1 26-1 145-30 15-82 35-86 33-99 39l-157 73 41-24q22-12 108-53.5T666 358l14 5q11 3 22-2t15-17q4-13-4-25 6-12 0-25zm-115 38q-30 17-96.5 48.5T401 432q-52 29-217 138-9 6-12 17t2 20q-9 5-17 9-4 3-6 7-15-23-29-50 11 1 20-5 270-180 440-243zm64-42l-4 3-23-9q0-2-1-4zM175 648q21-12 59-28 45-20 62-28 169-84 263-127 24-10 97-38 63-23 99-42 7-4 9-11t-1-13q0-1-1-2 0-133 3-170 1-7-4-12.5t-13-6.5q-9-1-15 7-71-28-209-74.5T322 31q-29-11-108-47-70-32-111-47-7-2-13.5 1T80-52q-1 2-1 5-2 2-4 5-49 94-52 145 0 6 3 11 1 8 7 14 137 100 357 185-119 55-339 143-7 3-9.5 10t-.5 14q1 2 3 5-3 7 1 14 45 95 79 149 4 6 11 7.5t14-2.5q4-2 6-7 9 8 20 2zM162 51q25 10 50.5 22t54.5 27l48 24 54 28q35 19 49 27 102 53 170 82l-5 2q-42-18-150-69-176-83-274-112-11-3-21.5 2.5t-14 17 2 22T143 138q97 28 266 108l98 47q-25 10-51 22 3-15-12-20-236-86-385-193 3-43 47-126 24 9 53 22-9 5-13 15-4 11 .5 22T162 51z"/><glyph glyph-name="question" unicode="?" horiz-adv-x="608" d="M209-73l14 2q-8-1-15 3zm157 306v-10l4 7q-2 2-4 3zM176 611q38 31 74 48 97 46 180-2 11-7 21-15-16 28-53 38-68 20-155-16-34-13-67-53zm59-439q-5-1-11-1-11 2-18 10 0-21 2-43 85 0 138-2 1 22 6 43-4-2-9-3-12-1-21.5 6T310 201v2q-11-17-23-36-6-10-17.5-13t-22.5 3q-9 5-12 15zm32 71l30 40 19 25q1 5 3 11-37-32-52-76zm261 317q-9-26-20-48-11-29-35-61-21-56-68-121l-36-48v-2q18 20 54 56t54 57.5 31 44.5q31 53 20 122zM288-43q-3-17-19-23 49 5 81 7v20h-1q-29-3-61-4zm-87 22q-1 3-1 6 0 10 6 18-5-1-10-1l4-24zm-30 421q-10 4-35 13l-40 15q-14 5-34.5 15T24 463q-4 3-7 8-6-1-12 2-7 4-10 12v2l-1 1v7l1 1v2l1 2q2 5 8 16 16 35 25.5 54T58 621.5t35.5 53 41 43.5 50.5 38l14 6q7 3 13.5 5.5t15 4.5 13.5 3.5 15 3 14 2 14.5 1.5 13.5 1 14 1 13 1q134 10 206-40 81-57 87-194 2-35-5-66.5T596.5 432t-29-44.5-32-35.5-37.5-33q-29-26-43.5-40.5t-34-40.5-27.5-56-8-67q0-8-6-14t-14-6h-4q-60 3-177 3-8 0-14 6t-6 14q0 7 4 13-14 169 62 261 8 10 22 23l32 31 30 26q26 24 39 42 15 19 16 31 1 7-1 16-3 9-6 11-5 1-23-1-52-6-86-55-12-18-29-51-21-43-29-56zM390 27v-86q0-8-6-14 1-2 1-4 0-8-5.5-14.5T366-98q-11-1-175-17-8-1-14.5 4.5T169-97q0 5 2 10-1 1-1 2-2 18-8 50.5T155 4q-1 5 1 10-1 4-1 8 0 8 6 14t14 6q30 0 94 5t96 5q10 0 16-9 9-6 9-16zM88 588q65 102 133 130 106 43 193 18 56-16 84-60 5 21 26 22-7 8-16 14-60 42-181 33-33-2-46-3.5t-36.5-7T205 720q-29-15-53-38.5t-45-57-34-58T40 499q3 0 6-2 11-7 21.5-13t26-12 22-9 28-10.5T169 444q2 5 20 39 18 36 31 56 44 63 115 72 27 3 40-2 24-8 31-38 4-16 3-30-3-24-24-52-15-20-44-46-11-12-30-28.5t-31-28-20-20.5q-31-37-44-94 22 57 75 99 15 12 41 29 25 17 44 32.5t36 35.5l10 12q9 28 13 56 7 47-35 71-56 32-125-1-53-25-119-92-9-8-21-8t-21 8q-12 13-7 29-6 1-11 5-10 6-12.5 17.5T88 588z"/><glyph glyph-name="at" unicode="@" horiz-adv-x="893" d="M598 433q12-5 16-18-1 10-2 18h-14zM711 70q-16-5-69-20-4-9-14-9-29 0-87-1t-87-1q-7 0-11.5 4.5T438 55q0 3 1 6-1 3-1 6v1q-80-9-133 42-52 51-55 133-3 51 16 96t63.5 77T436 451q4 7 12 9 27 5 55.5 6t71.5 0 53-1q7 0 11.5-4.5T644 449q0-8 10-100 5-46 2-76 41 24 44 92 2 39-9 79-11 39-31 62-31 39-72.5 57t-83 15-85.5-22q-64-29-114-84.5T237 353q-35-130 10-214 46-87 172-114 98-21 175-3 56 12 117 48zM507 256q-2 6-5 19-17 4-24 5-17 3-22 0-10-3-12-14t5-22q7-9 19-9 17 1 39 21zm59 172q4 4 9 6h-13zm50-54q3-8 3-16-1-13-1-26 1-22 4-66 6 30 0 79-1 10-3.5 29.5T615 404q0-15 1-30zm-44-236q-1 2-2 5l-2-28q-1-12-10.5-19.5T536 89q-11 1-19 10t-7 21q-10-6-21-8-16-4-34-1-5-4-11-5h-3q-1 0-3.5-1t-5.5-2q-17-5-31-1-55 15-96 83-16 27-23 55 4-66 46-107 47-45 122-31h3q13 0 16-13v-3l1-15q24 0 71.5 1t70.5 1q3 2 6 3 9 3 36 10.5T693 98t32 11.5 35 16 28 19.5q90 77 91 210l-3-13q-29-103-77-156-66-73-169-60v-10q0-12-8.5-20.5T601 87t-20.5 8.5T572 116v22zm-450-30q-44 85-46 183-3 165 105 300-37-34-62-70-48-72-65-155-10-50-2-114 9-64 32-129 24-67 59-119 35-53 75-77 55-33 133-47 79-15 164-8 24 1 48 5-61-9-124 5-86 1-144 30-115 57-173 196zm681 199q9 23 17 51 19 69 13 101-10 45-44 90 5-13 9-26 14-45 16-102 1-57-11-114zm16-358q-51-47-131-75t-171-34q-89-7-172.5 8.5T202-101q-47 29-85 85-37 56-63 128-25 71-34 137-8 68 2 123 17 88 71 167 32 47 81.5 89T275 694q35 17 64 29 47 23 101 32 123 28 228-18 46-21 103.5-67t79.5-85q30-55 45.5-116.5t15-124-27-121.5T808 121q-4-4-8-7 3-2 5-5 9-12 0-24 30-68 23-116-1-5-4-9 0-6-5-11zm-23 24q6 37-17 92-96-64-177-83-86-19-191 3-145 31-200 135-52 99-12 243 20 73 76 135 56 63 128 94 50 23 99.5 26t100-18 89.5-68q24-30 37.5-76.5T740 363q-2-51-26.5-89.5T640 224q-8-1-15 3 2-21 3-39 80 5 112 106 16 54 16 111t-14 102q-10 32-24 62-18 37-32 48-58 47-178 36-110-9-187-54-55-33-119-116-41-55-53-131.5t6-152.5q7-34 20-66Q235 23 364-32q45-19 82-28 33 0 70 4 99 13 205 51 11 4 22-.5t15-16-.5-22.5T741-59q-12-5-25-9-4-4-8-6-76-39-142-49 152 23 230 95v1zM508 346q-58 11-94-6-37-18-45-69-2-9 0-32 0-11 2-19 0-4 1-6 5-7 20-16 13-8 32-17 36-16 53-13 11 3 30 26l6 8v8q-22-14-43-15-33-2-53 25-10 14-13 33t6 37.5 30 27.5q16 6 44 1 5 0 10-1 1 14 15 17v10z"/><glyph glyph-name="A" unicode="A" horiz-adv-x="738" d="M399 355q-17 45-33 108-25-70-45-110 34 0 78 2zM198 167q-21-78-35-121-4-12-15-17t-22-2q-17 6-20 24-12-13-29-8-11 3-17 13.5T57 79l13 42Q47 70 25 42q17-13 35.5-24.5T106-8l41-22q14 31 39 93 27 71 43 105v2q-16-2-31-3zm285 153q-40 113-116 287l-29-63-31-68-27-60q-14-35-27-69-8-22-15-44h34q41-1 66 1 20 1 123 13zm22-62l-2 5q-16-1-36-3-103-12-125-14-27-2-70-1h-52l-5-18 86 11q70 9 115 13.5t89 6.5zm-94 386l-6 14q-4 11 .5 22t15.5 15.5 22 0 16-15.5l12-29q-9 32-13 60-56 33-123 48-54-98-122-282l-19-49 75 164q4 8 12 26l11 26q4 8 9 21.5t8 26.5q3 12 13 18t22 3 18-13 3-22l-1-4h1q16-8 17-25 16 6 29-5zm173-318h5l-36 102-9 24q21-62 40-126zm17-56q22-77 41-158 3-12-3-22t-18-13q-3-1-5-1 2-11-4.5-21T593 43q-11-3-21.5 3.5T559 65q-15 65-36 135-29 0-60-3l4-4q38-62 101-202 20 7 65 29 44 21 61 28l-86 227q-4-3-7-5zM340 799q83-18 149-60 12-8 8-23 7-41 22-85.5T557 529t34-87q74-215 142-383 10-2 14-12 3-8-.5-15.5T735 21q-26-9-84-37-56-27-90-38-8-3-15.5 1T536-41q-1 4-1 8-61 135-92 189-27-3-56.5-4t-66.5-2-56-1q-11-24-41-100-29-74-47-112-4-7-11.5-10T149-72q-1 1-2 1-7-1-13 3-12 7-41 22T41-18Q18-4-1 12q-6 5-7 14-3 1-6 3-6 6-6 14.5t5 14.5Q-3 70 8 88.5t18 33T44 161q10 24 16 38 34 74 115 292 71 190 126 291 7 11 20 10 7 9 19 7zm56-290q23-99 46-154 2-5 2-10 2-4 2-8 0-8-5.5-14.5T427 316q-73-3-122-3-12 0-18 11-2 0-4 2-7 4-9.5 11.5T276 353q23 41 67 164 3 8 10.5 11.5t15.5.5l6-4q8 1 14-3.5t7-12.5z"/><glyph glyph-name="B" unicode="B" horiz-adv-x="687" d="M280 216q1-7 4-52 60-16 125-14 39 1 52 11 4 2 4 6 0 7-6 19-17 30-81 33-23 2-60 0-37-3-38-3zm-4 311q5-71 5-77 32 7 52 20t21 24q0 9-15 18-22 12-63 15zm-27-136q20 5 38 11 47 15 76 33 28 18 32 34 0 1-2 18-4-29-39-51-32-20-83-29-4-2-8-2-8 0-14 5v-19zm-67 154q-9 3-14 11-3 4-4 9v-52q1-108 2-140 12 2 25 5 0 95-9 167zm6-307q-7-2-14 0l6-61q3-34 5-59 0 27 3 120zm152 116q25 12 44 26-29-16-69-30zm-150-55q1 10 1 20l-23-4 2-23 4 2zm30 322l2-2q61 22 118 8 44-10 74-42.5t36-84.5q3-32 2-39 9 18 15 38 14 50-7 82-19 29-66 44-43 13-90 11.5T220 621zm-40-8q-11 4-16 14l-2 6q1-25 2-55 2 11 11 18 0 9 5 17zm15-581q-4 3-6 7v-5zm45 14q-4-12-15-17 81-8 169 7l7 1q-88 1-161 9zm3 58q71-8 158-9 89-1 114 43 21 36-8 85-18 31-49 50t-77.5 17.5T287 257q5 0 14.5.5T316 259q39 2 64 0 86-4 113-53 13-24 12-43-2-21-20-34-23-18-75-19-37-1-78 5-42 6-62 12-7 2-11 8-13 4-14 18l-1 12q-1-35-1-61zM82 692q20-133 11-372 0-8-1.5-44.5t-2-47.5-1.5-43.5-1-46.5V95q0-28 .5-47t2-42.5T92-40q20-3 40.5-3.5t54 .5 43.5 1l1 11v1q-41 3-68 10-2 1-5 2-11 1-19 9.5T131 11q0 57-9 161-11 127-13 165-2 46-3 176-1 119-6 172-1 18 13 27-14-3-35-11 3-4 4-9zm184-124q59-3 92-22 18-9 27-23-16 38-59 48-42 10-87-8v-6q6 7 15 8 6 3 12 3zm-79 175q27-6 78-1 69 8 90 7 124-5 198-80 83-83 55-207-4-18-18-44-8-16-10-23 50-28 81-82 32-54 38-116 7-68-18-129t-83-96q-42-26-104-35t-115.5-5T269-52v-3q-1-13-14-17-5-10-17-10-10 0-47.5-1.5t-64.5 0T75-78q-12 3-15 15-6 5-7 13-2 23-3.5 48t-2 44.5T47 91v44q0 15 1 48.5t1.5 44.5 2 48.5T53 322q9 235-11 364 0 5 1 9-7 4-10 11-3 8 .5 15.5T45 732q48 17 68 21 44 9 70-9 2 0 4-1zm-10-77q48 24 112 28 65 4 122-14 67-21 97-67 36-54 15-130-22-76-79-129 129-17 170-129 27-74 3-131-21-48-86-79-51-24-127-36-19-3-36-5Q506-38 578 6q46 28 66.5 78.5T659 193q-6 57-34.5 104T551 365q-5 3-8 8-10 8-6 20 4 15 18 43 11 22 13 34 24 104-43 171-62 62-172 68-19 1-84-6-56-6-90 1-10-1-17 5-8 8-25 7 19-5 21-25 2-23 3-47 2 15 16 22z"/><glyph glyph-name="C" unicode="C" horiz-adv-x="763" d="M579 213q1-1 2-1 31-16 77-51 53-41 69-51 7-5 8.5-13T733 82q-2-3-5-5 0-6-4-12-66-93-126-131-63-39-147.5-40.5T292-79Q213-52 146.5-3T45 106q-55 92-48 241 6 121 60 221t141 156q60 38 127 50.5t142-4.5q76-17 148-66 62-42 100-80 38-39 63-97 4-8 .5-15.5T768 501q-1-1-3-1-3-7-9-10-29-15-74-43-63-39-75-46-7-4-15-2t-12 9q-5 8-2 17-22 44-65 70.5T420 526q-51 4-96-18t-69-69q-19-36-14-101 5-58 24-107 16-41 56.5-70t88.5-36q48-6 84.5 14t49.5 67q2 8 9 12t15 2q7-2 11-7zM210 544q62 48 142 70 34 10 68 13-66 0-115-19-57-22-95-64zm-31-439q17-18 46-33-59 50-90 114 13-49 44-81zm425-36q9 3 19 5 11 3 21.5-3T658 53q1-4 1-8 14 17 31 41-11 8-57 44-35 27-60 41-22-51-68-72T405 86q-58 7-107.5 42.5T227 217q-20 54-25 118-6 77 17 122 14 26 33 47-67-48-85-108-19-63 8-153 21-70 88-127 36-31 71-46t81-17q57-3 113 4 15 9 29 22 9 9 21 8t20-9q4-4 6-9zm9 444q-33 39-88.5 52T404 567q10 0 20-1 57-5 108-35t79-81l50 31q44 28 74 44-21 45-54 77-32 30-88 68-67 45-134 60-69 16-128 5t-111-45q-79-50-129-142-49-90-54-203-7-138 42-219 31-52 92-97 60-44 134-71 72-26 145-24 74 1 126 34 31 19 59 49-43-11-88-16-71-40-178-28Q208-8 137 65q-70 73-70 203 0 309 216 394 75 29 186 22 114-7 209-97 9-8 9-20t-8-21q-6-7-16-8 4-17-9-28-9-8-21-7t-20 10z"/><glyph glyph-name="D" unicode="D" horiz-adv-x="754" d="M377 720q48-8 95-25 63-23 118-59.5t89-81.5q-30 53-71 86-52 41-107 58.5T377 720zm-119 42h57q27 0 55-1.5t54-4 53-9.5 52.5-16.5 52-24.5 50.5-34q72-57 107.5-155.5t26.5-203T705 134Q659 66 599 12q-74-67-247-96-141-24-265-14-8 1-13.5 7T69-76q1 5 4 10l-8 221q-4 100-9 213-2 39 1 177 2 105-3 166-6 4-9 10-3 8 .5 15.5T57 747q37 13 90 26 34 9 56 11 13 2 23 1 15-1 23-8 7-6 9-15zm28-616q86 22 128 55 50 38 72.5 89t16 101-41.5 89q-36 40-97 58-50 15-80 15 3-23 3.5-49.5T287 444t-1-46V146zM153-48q-3-1-6-1-12 0-21 8t-9 20q-2 51-1 144.5t0 143.5q0 9-1.5 69t-2 76.5-1 66 0 76.5 1.5 66.5 3 73.5q1 12 10 20t21 7 20-10 7-21q33 23 79 31h-11q-8-1-15 4t-8 13v6q-5 0-12-1-19-2-50-10-30-7-64-17 6-64 4-173-3-139-1-174 3-69 9-212l8-217q113-6 233 14 161 27 227 87 55 51 100 114 37 55 49.5 130.5T720 434q3-109-67-234-38-68-90.5-120.5T453 6q-30-11-70-20-41-10-67.5-15T236-42t-63-10q-11-1-20 4zm484 350q34 92 22 159-9 50-66 99t-141 80q-66 24-125 28-60 4-100-14 92 14 181-17t150-94q48-50 69.5-112t9.5-129zM509 109q-41-24-102-43-87-27-186-38-10-1-18 4v-8q0-7-3-13 173 27 233 49 38 14 76 49zM261 592q47 4 115-16 72-21 115-69.5T542 396q8-61-19-121.5T438 169q-50-39-149-63-2-1-4-1-3-7-9-11 62 11 114 28 106 33 140 78 40 55 49.5 112T572 416t-56 86q-57 60-142.5 85T202 590q-2-77-2.5-156t1.5-196 2-156q5 3 12 4 23 2 48 6-8 2-12.5 7.5T246 112v286q0 14 1 53.5t0 64.5-6 49q-2 9 4 17 6 9 16 10z"/><glyph glyph-name="E" unicode="E" horiz-adv-x="655" d="M74-31Q62-24 60-9q-7 58-9 125-3-83-3-147h26zm551 716q1-31 1-119 0-8-6-14t-14-6h-8q-63 6-183 6-24 0-80.5-1.5T248 549q1-52 0-72 94 0 146-5 8-1 14-7 12-6 12-19 0-80 4-163 10-6 10-18 0-8-6-14t-14-6q-31 0-85-5-56-4-72-5 0-50-2-75 33 0 95-2t74-2q109-2 180 4 11 1 18-7 7-5 9-13 9-33 8-87-1-63 1-80 1-7-3.5-13.5T625-48q-5-6-13-7-35-3-74-5l-66-5q-29-2-76.5-3T328-69.5t-76-1-67-.5H40q-14 0-19 13Q8-53 8-39q0 60 2 125t6 151q2 73 4 125 7 247-8 397-1 8 4.5 14.5T30 781h5q6 8 16 8 31 0 101 .5t122 .5q48 0 102-2 32-1 113-8 70-5 111-5 8 0 14-6t6-14v-4q1-2 1-5 2-17 3-37 3-6 3-13 0-6-2-11zm-455 0q101 23 196 31.5t217 8.5q-1 5-1 10-37 1-96 6-80 6-112 7-53 2-100 2-51 0-121-.5T53 749q2-15 3-30 7 16 25 17 12 1 20.5-7.5T111 708q0-10 1-20 0 16 1 32 0 12 9 20t21 8 20-9 8-21q-1-17-1-33zM121 80q-1 68-4.5 194.5T112 448q-1-16-2-49t-1-49q-5-179 3-286 2 9 9 16zm339-42q14-9 14-25 0-12-8.5-20.5T445-16q-23 0-98-.5t-125 0-98 2.5q-4 0-7 1-3-12-13-18 327 0 495 15-1 18 0 49-4-1-8-1-63 4-131 6zm-344 4q-2 3-3 6v-6h3zm113 547q35 0 99.5 1.5T414 592q113 0 172-5 0 54-1 80h-29q8-9 8-20 0-12-8.5-20.5T535 618q-225 0-367-20 0-79 2-186 62 6 167 13 12 1 21-7t10-20-7-21-20-10l-49-3q15-1 28-3 12-2 19-12t5-22-12-19-22-5q-27 5-73 3-48-1-64-1 5-148 5-215 216 13 417 0h3q-1 16-3 29-69-5-172-3-21 1-58 2t-67.5 1.5-57.5.5q-8 0-14 6t-6 14v3q-6 7-5 16 2 22 2 91 0 8 6 14 5 10 16 10 22 1 86 6 42 3 59 4-4 76-4 149-48 4-143 4-4 0-7 1h-7q-8 1-13 7.5t-4 15.5q2 15 2.5 31.5t0 41-.5 34.5q0 9 6 15t15 6z"/><glyph glyph-name="F" unicode="F" horiz-adv-x="631" d="M624 772q10-5 11-16 11-115 2-179-1-6-6-11-3-15-19-15-60 0-175.5 1T266 553v-23h138q8 0 14-6t6-14q0-7-4-12 0-89 12-166 1-8-3.5-14.5T416 309q-6-8-16-8-29 0-82-2t-72-3q0-29 4-149 4-109 1-165 0-5-2-9v-4q0-8-6-14t-14-6q-21 0-99-5-64-5-104-1-8 1-13.5 7.5T8-35q-2 4-2 9 0 67 10 177 12 135 14 174 2 55 3 209 1 145 6 211 1 8 7 13.5t15 4.5h2q5 9 15 11 44 6 99 8.5t86.5 3 103 0 89.5-.5q19 0 49-2.5t51.5-2T598 787q8 3 15.5-1t9.5-12q0-1 1-2zM126 31q-9-11-23-11-12 0-20.5 8.5T74 49q0 44-4 274-2-45-14-176Q46 38 46-18q31-2 81 1l13 1q-16 9-15 27 1 10 1 20zm4 347q-1 1-2 1 0-12 2-156 1 43 0 155zm4 300q-1 1-1 2-6-26-7.5-54t0-73.5T127 491v-43q1 3 3 5 0 15-.5 53t-.5 59.5 1 54 4 58.5zm92-159v44q0 7 4 12 1 8 6.5 13t13.5 5q60 0 176.5-1t171.5-1q7 57-2 154-22-4-46.5-4t-53 2-40.5 2q-19 0-90 .5t-102 0-84.5-3T84 734h-6q-1-22-3-45 2 8 4 15 3 11 13.5 17t22.5 3q15-4 20-19 1 2 3 5v3q2 12 11.5 19t21.5 6q16-3 23-18 29 1 86.5 8t72.5 9q128 13 207-22 11-5 15-16.5t0-22.5q-3-6-9-11-2-10-10-17.5t-18-7.5q-35-1-98.5-7t-73.5-7q-29-2-96-4-53-1-82-3-1-25 0-152 90 6 136 18 11 3 21.5-3t13.5-17.5-3-22-18-13.5l-3-1q0-10-6.5-18.5T312 399q-45-10-124-17 1-257-5-373-1-14-12-22 23 1 40 2 2 50-1 157-4 123-4 156-6 6-6 14t6 14 14 6q30 0 87 2.5t83 2.5q-9 70-10 149H248q-8 0-14 6t-6 14q-2 4-2 9z"/><glyph glyph-name="G" unicode="G" horiz-adv-x="736" d="M449 364l-25-1q1-10 1-23 4 20 24 24zM149 231q1 21 6 68 9 81 44.5 159.5T291 593q11 11 23 21-18-11-34-23-68-49-98-120-21-51-29-115-9-64-4-125zm458 43q-46 2-75 2 3-3 5-6 4-8 3-21-1-7-3-17-3-14-6-25-19-63-66-91.5T361 95q-49 6-91 37t-63 79q0-57 25-99 35-61 110-82.5T479 38q3 3 6 5 42 36 87 134 1 4 4 11l6 25q2 11 10 17l11 30zm72 54h12q15 0 23-13v14q0 3 1 15t1 18-1 10h-35q-19-1-46-1 5-1 10-3 24-7 32-27 2-6 3-13zm-185-22h-40q-21 0-28 20v-1q2-24 3-38l2 1q22 3 35 3 19 2 32 0-4 7-4 14v1zm-85 96q166 7 169 7 64 2 101 3h45q3-1 5-1 5 0 10-4 10-7 14-23 3-9 3-23 0-7-1-19t-1-13q0-49-3.5-88T736 156.5t-29.5-81T655 7t-78-54q-5-2-9-2-52-24-95-35t-97-11Q203-95 114 2 34 89 17 263q-9 90 13 180t69.5 165T225 735.5 398 800q113 14 168-7 14-6 27.5-13t28.5-18l24-16q9-7 26-22l22-20q5-4 23-21.5t20-18.5q6-6 6-14.5t-5-14.5q-3-3-7-5l-3-3q-63-76-118-118-6-5-14.5-4t-13.5 7.5-4 15.5q-34 27-76.5 30.5T419 546t-79-49q-61-53-91-123-29-72-11-132 14-44 50-73t78.5-34.5 77 15T493 219q3 9 5 21 1 6 2 10-2 1-4 1-10 2-27 0-11 0-32-3t-26-3q-17-1-20 15-2 4-2 8 0 18-2 54-3 38-3 57 0 15 14 19 5 4 11 4zm174 207q-140 53-251-57-17-17-33-38 7 7 15 13 43 37 91 56.5T507 598t99-41q40 34 88 92-29 28-46.5 43t-45 34.5T552 755q-46 18-148 5-86-11-156.5-58t-114-115.5-64-152T57 267q16-160 87-238 77-84 232-84 52 0 93.5 11.5T567-5q4 2 8 2 109 60 132 213Q669 95 557-3q-17-14-35-2-7-4-15-8-80-55-192-33-56 11-103.5 41T137 70q-33 55-43 134.5T94 359t34 134q35 86 118 146 92 66 188 88 138 31 202-60 7-10 5-22t-12-19q-5-3-11-4-5-10-15-13.5t-20 .5zm-12-241q-48-1-113-4 48 0 108 3 3 1 5 1z"/><glyph glyph-name="H" unicode="H" horiz-adv-x="669" d="M226 755q1-1 1-3 9-60 2-169-7-105-4-144 83 11 209 22 4 94 11 273 0 8 6.5 13.5T466 753h1q4 2 9 2 129 0 188-15 8-2 12-9t2-15q-1-5-5-9 0-24 1-71.5t.5-85T673 479q-1-29-6.5-127T660 208.5t1.5-121T674-48q1-9-5-16-5-12-18-12-33 0-98.5-1.5T454-79q-8 0-14 6t-6 14q0 3 1 6-2 4-2 8 0 48-2.5 138.5T428 225q-84-9-196-23 0-103 22-247 1-8-4-15t-13-8q-6-1-11 2-4-2-8-2-112 0-174-3-8 0-14.5 5.5T23-52q0 4 1 8-3 5-4 10Q5 79 4.5 224T11 481q1 23-4 136-3 88 7 142 2 8 8.5 12.5T37 775q5 6 14 6h156q8 0 14-6t6-14q0-3-1-6zm280-384v12l-76-24zM150 697q-3-31-3.5-63.5t2-67.5 5-63.5 6.5-69 7-66.5q21 4 62 9 52 6 74 10 53 11 131 35-135-12-224-25-8-1-14 3.5t-8 11.5q-2 3-2 6-4 45 3 169 6 101-1 155H90q4-6 4-12l1-16q9 18 29 16 12-1 19.5-10.5T150 697zm460-28q2-114-12-324-15-225-15-321 0-21-20-28-1-10-8-17t-17-9q-12-1-21.5 6T505-5q-6 48-7.5 109t0 99 5.5 109l-112-18q-35-5-98.5-10T177 281q-3 0-5 1 3-72 3-214 0-11-7.5-19.5T149 39l1-12q1-12-7-21T123-4t-21 7-10 20Q56 448 52 508q0-16-1-29-7-113-6.5-255T60-28v-2q57 2 151 2-19 132-19 232v4q-2 4-3 8-1 9 4 15.5t13 7.5q149 19 234 27h8q8 0 14-6t6-14q0-48 2.5-143.5T473-39q26 0 79 1.5t80 1.5q-9 60-11 134.5t-.5 121T627 359t6 122q1 33 1.5 70t-.5 84.5-1 70.5q-48 9-149 9-6-169-11-261 3-4 4-9 0-6-2-11l33 10q1 44-1 124.5T505 683q0 12 8.5 20.5T534 712q22 0 28-21 8 7 19 7 12 0 20.5-8.5T610 669z"/><glyph glyph-name="I" unicode="I" horiz-adv-x="643" d="M618 767q2 1 4 1 8 0 14.5-5.5T643 749q8-171 11-199 1-8-4.5-14.5T636 528h-4q-5-3-11-3-41 0-179-7-4-50-4.5-109t1.5-100.5 6.5-112T451 91q12-1 74-4 59-3 95-8 8-1 12.5-7t4.5-13q2-4 3-8 4-31 6-80 3-59 5-76 1-8-4.5-14.5T633-127h-1q-5-3-11-3-52 0-267-5t-267 0q-11 0-17 11-14 4-14 19 0 27-2.5 80T51 54q0 8 6 14t14 6h2q4 2 9 3 104 10 129 11 1 156 14 443-14 0-55.5-2t-72-1.5T40 532q-8 1-13 8t-4 15q1 4 3 8v1q6 60 2 162v2l-2 6q-1 9 4 15.5t13 7.5q87 11 175 14 89 3 222 0t173-3q3 0 5-1zm-508-59q48 10 119.5 12t114.5.5 138.5-7.5 107.5-7q8-1 15-6l-1 28q-40 0-165.5 3t-208 .5T68 720q4-92-1-151 9-3 80.5-.5T232 571q6 0 11-3h4q8 0 13.5-6.5T266 547q-15-315-15-476 0-8-5-13.5T234 51q-5-3-11-3-31 0-132-10l2-48q1 9 8 16 9 9 21 9 53 0 154 4 0 104-.5 195t5.5 197.5T300 608q-95-4-175 1-12 1-20 10t-7 21q1 7 5 14-14 6-16 21-3 11 4 21t19 12zM94-21v-7q2-44 2-67 99-4 283.5.5T610-90q-1 11-3 60-3 44-6 71-30 4-78 6-71 4-94 6-8 1-13.5 7.5T411 75q0 2 1 4-2 37-6.5 108.5T399 304t-1.5 108 5.5 116q0 3 1 5v3q0 8 5.5 14.5T423 557q165 8 189 8-3 37-5 90-9-8-21-7-15 1-33 2-2-9-9-16t-17-8q-102-10-152-13-1-101-10-298T355 21q121 3 202-2 12-1 20-10t7-21-10-20-21-7q-29 2-59 3 4-7 4-15 0-12-8.5-20.5T469-80q-292 0-343 1-12 0-20 9t-8 21q0 7 4 14-6 6-8 14z"/><glyph glyph-name="J" unicode="J" horiz-adv-x="761" d="M564 75Q533-1 465-59q-43-37-110-54 92 9 138 53 47 43 71 135zM395-37q18 10 32 22 39 34 65.5 78t32.5 90q2 10 2 22-14-56-42-104-34-60-90-108zm194 618q55 4 124-1 16 75 19 135-17 4-47 8 5-8 5-17-1-17-16-25v-1q3-12-3.5-22T652 646q-53-11-121-19 54-237 56-392 7 122-9 311-6 5-7 13-1 9 4.5 15t13.5 7zM244 763q74 12 260 10 87-1 151-7 74-6 102-18 14-6 12-21 3-5 3-12-3-67-22-153v-6q-1-8-7.5-13.5T728 538q-62 6-110 5 17-192 8-321Q610-5 521-90q-37-35-96-50.5T311-155q-112 3-184 50.5T21 24q-31 81-30 169t28 183q2 8 9.5 12.5T43 390q4-1 6-3 4 1 7 1 28-3 81-14 54-11 76-13 8-1 13.5-7.5T231 339q0-2-1-4 2-6 0-12-14-35-14-98t16-107q16-43 39-47 30-4 79 50 52 59 51 214-1 103-24 222-101 1-145-5-9-1-15.5 4t-7.5 13q-1 6 2 11-1 3-1 6 0 12-1.5 37t-1.5 37q0 50 13 80 2 6 8 9 4 12 16 14zm44-44q65-5 183 6 56 6 73 7-20 1-41 1-169 2-247-9-9-22-9-64 0-12 1.5-34.5T250 594q39 4 135 3l4 2q7 1 13-2h5q8 0 14-6t6-14q0-11-10-17 23-120 24-224 1-171-61-241-63-71-115-63-47 8-71 73-16 47-17.5 111T188 324q-20 3-60 11-50 11-76 13-27-106-20-199 2 57 20 105 4 12 15 16.5t22 .5q10-4 15.5-13.5T107 238q4-5 5-12 3-18 7-50l6-50q3-19 9-44.5T148 36q24-59 61-76 32-13 76 3 42 16 83.5 54.5T435 99q58 102 51 266-2 38-13 145-7 68-8 111-103-9-143-15-12-1-21.5 6T289 631q-2 19 14 29-10 0-19 1-12 1-20 10t-7 21 10 20 21 7z"/><glyph glyph-name="K" unicode="K" horiz-adv-x="694" d="M249 755q1-3 1-6 0-13 .5-45t.5-50.5-1-46-4-50.5l32 28q40 35 55 50 106 110 164 160 6 6 14.5 5t13.5-7q1-1 2-3 2 0 3-1 61-40 127-128 12-16-4-28-1-1-3-2l-4-6-88-85-111-104q-47-44-95-80 39-23 105-82.5t71-64.5q23-19 74-55 53-38 76-56 4-3 6-7 6 0 11-3 7-4 9-12t-2-15q-17-30-56-83t-55-78q-4-7-12-9t-15 2q-2 1-4 3-7 1-11 7-25 32-160 137-60 47-105 77-23 15-38 24 1-144-8-204-2-8-8.5-13T215-80q-2 1-3 1h-2Q84-79 28-74q-8 1-13.5 7.5T10-52q1 6 5 11v2q0 92 11 383 9 238 3 381 0 9 6 15 2 14 15 17 59 16 180 28 8 1 14.5-4.5T252 767q1-7-3-12zm23-395q17-10 34-22-7 10-2 21-1 11 8 17 49 36 96 78t115 109l91 88q-17 22-35 42 5-18-10-30-87-73-210-207zm-70 13l-10-7v-8l5 5q0 2 1 5 2 3 4 5zm60-75q-15 10-30 18l-2-2q16-7 32-16zm-60 229q3 20 5 40.5t2.5 45.5 1 40.5 0 47-.5 42.5q-90-9-141-22 6-143-3-378Q55 54 55-36q47-3 146-3 3 23 4.5 51.5T207 60t-.5 54.5-.5 50.5v1q-3 7-1 15t9.5 12 15.5 1q22-7 76-44 48-33 108-78Q526-15 569-60l45 62q29 40 43 62-2 1-3 2-16 12-75 55-50 36-77 58-22 18-57.5 51.5t-65.5 58-60 40.5q42-29 86-67l94-84 77-68q17-15 7-35l7-5q9-7 10.5-19T595 29.5t-19-11-22 5.5q-22 17-65 45-49 32-68 46l-56 42-58 43q-22 16-54 36t-61 32V41q0-12-8.5-20.5T163 12q-10 0-17.5 6T135 33q-4-1-8-1-12-1-20.5 7.5T97 60q-5 102-3 314 2 206-4 310-1 12 7 21t20 10q11 1 19-5t11-16q3 1 5 1 12 1 21-7t10-20q6-105 8-232 45 33 123.5 103.5T429 639q14 11 30 3 38 36 74 65 12 10 27 6-26 25-50 41-51-47-149-147-17-18-57-53-37-31-54-50-6-6-14.5-6t-14.5 5v1h-2q-8 2-13 8.5t-4 14.5z"/><glyph glyph-name="L" unicode="L" horiz-adv-x="699" d="M250 750q4-4 6-10 6-32 6.5-72t-1.5-84q-1-44 0-68 8-193 8-336 64 0 196.5-3t200.5-3q8 0 14-6t6-14h1q6-5 7-13 16-123 16-176 0-12-10-17-7-8-17-7-99 10-307-1-211-11-312-3-8 1-13.5 7T46-41q0 3 2 7 0 127-1 381.5T46 729q0 6 4 12-1 1-1 2-1 8 4 15t13 8q27 4 85 1 50-2 75 3 9 1 15.5-3.5T250 754v-4zM224 66q-21 1-40 2-2-3-5-6 20 2 45 4zm-40 637q-4-44-3.5-62t3-63 2.5-67q2-86 1-385 57-5 179 4 52 6 119.5 5T608 121q11-3 17.5-13t3.5-22q-2-11-11.5-17T597 64q-2-10-10-17.5T568 39q-40 0-102-8-101-12-105-13-9-1-118-9-71-5-114-13-12-2-21.5 5T95 20q-2 11 4 20-2 6-1 12 8 70 9 157t-1.5 149.5T97 517q-1 14-4.5 56.5t-4 58.5.5 60q1 12 10 20t21 7q4 0 8-2 2 6 7 11-31 1-49 0 0-127 1-378t1-375q91-5 286 5 202 10 296 2-1 48-16 152-64 0-196 3t-200 3q-11 0-17 10-12 5-12 18 0 114-8 346-1 29 .5 71t1 77.5T217 728q-18-2-40-2 8-9 7-23z"/><glyph glyph-name="M" unicode="M" horiz-adv-x="882" d="M391 233l-70 122 61-135 1 1zm13-57q-1 0-3 1l2-4zm449 543q4-28 5-62t.5-57.5-2-63.5-1.5-56q-3-143-3-514 8-6 8-16 0-8-6-14t-14-6q-1 0-96 2-56 2-93-2-8-1-14.5 4.5T629-52v3q-2 4-2 9 0 31-2 97t-2 104.5 2 104.5q-52-92-94-181-2-4-6-7-2-9-11-14-52-27-101-76-5-6-13-6t-14 5q-12 0-18 9-17 26-39 71l-36 69-34 54q20-133 18-201 12-5 12-18 0-8-6-14t-14-6q-34 0-111-11Q82-72 40-70q-8 0-13.5 6.5T21-49v6q0 77 3.5 224T28 349q4 234-9 389-1 11 7 17 0 8 5.5 13.5T45 774q141 7 170 7 3 0 6-1 14 4 22-9 14-22 28-47l24-46q10-19 25-51.5t22-46.5 23.5-52.5T385 481t21.5-52.5T427 380l28 54q28 52 47 81 95 145 127 209 1 2 3 4v3q1 8 7.5 13.5T654 749q25-2 85-2 57 1 90-3 10-2 15-11 8-5 9-14zm-97-73q0-54 12-169 13-125 15-174 2-55-3-139-8-132-8-135 0-12-9-20t-21-8q-15 0-23 13-12 0-20.5 8.5T690 43q0 46-5.5 251.5T685 550L449 137q-8-14-25-14l5-12q4-11-.5-22T413 73.5t-22 0T375 89Q274 329 204 458l-18 30q2-41 3-68 1-39 2-121.5t3-146T200 31q1-12-7-21T173 0t-21 7q-7-13-22-15-12-1-21.5 6.5T98 18q-6 68-6 175 0 124-2 170-1 18-5 78.5t-5 90 0 78 6 87.5q2 10 8.5 16.5T111 722q0 8 5 16l-56-3q12-155 8-387 0-28-3.5-166.5T61-30q32 0 91 9t85 11q1 29-2 68.5t-7 67.5l-11 76-11 66q0 4 1 8-4 15 10 22 7 4 15 1.5t12-10.5q12-24 40-65 31-47 43-68 10-16 37-71 19-36 32-58 47 45 98 72 0 2 1 4 61 127 140 257l2 4q2 8 9 12.5t15 3 12.5-8.5 3.5-15q-8-40-11.5-93t-3-93T665 66t2-94q32 2 78 0 11 0 33-.5t34-1.5q0 366 3 510 0 18 1.5 56t2 60-.5 53-4 56q-26 3-75 2-52 0-73 1-1-1-1-2-35-70-129-213-16-24-45-78-33-62-45-81-1-2-3-4-2-10-11-13-8-4-15.5-.5T406 327l-35 82-37 90-35 79q-21 47-41.5 86.5T215 741q-24 0-52-1l4-6q9-22 22.5-44.5t32-49.5 29.5-46l174-304 10 17q37 67 51 90 25 41 55 84l72 100 59 82q6 8 16 11l6 10q6 10 18 13t22-3q16-10 14-28 8-8 8-20z"/><glyph glyph-name="N" unicode="N" horiz-adv-x="720" d="M662 712q3-6 4-12 9-86 14-161 0 94 3 169zm-432 26q2-1 3-3 52-63 137-210 65-112 100-162 0 9-2 42-5 62-4 97 0 12 6 119 4 71 2 116-1 14 13 20 6 8 16 8 110 0 206-21 10-3 14-12 3-5 3-11-2-53-3.5-116.5T719 498t.5-119.5.5-110.5q0-25-.5-84t-.5-91.5 2.5-80.5 8.5-87q1-8-4-15t-13-8q-4 0-8 1-6-5-13-5-14 0-74-5-41-3-67-1-13-6-23 4-64 69-156 214-84 132-114 172l7-76q6-64 7.5-89t1.5-73-4-85q0-1-1-2 1-2 1-3 1-8-4.5-14.5T252-68q-32-3-97.5-7T55-82q-8-1-14.5 4.5T33-64t4 14v2q0 89-3.5 252t-4 252.5T34 709q0 8 6 14v1q-1 8 4 15t13 8q49 7 156 2 11-1 17-11zm-91-109l-7 10q4-16 7-33v23zM614-19q-1 0-3-1v-6q0-12-8.5-20.5T582-55q-8 0-14 4-19-11-35 4-3 2-5 5l22-26q24-2 65 1 59 5 73 5-11 83-8 271-2-16-3-32-3-27-10.5-84.5T657 5q-1-12-10-20t-21-7q-6 1-12 3zm-60 45q-3 4-42 67l-16 26q32-69 58-102v9zm65 170v-13q16 175 0 392 3-275 0-379zm-4 520l2 2-3 1q1-1 1-3zM471 295q-51 64-135 210-81 141-133 204h-1q-86 4-128 0v-2q-5-163-4.5-249.5t4-248.5T77-40q25 2 76.5 5t77.5 5q5 36 3.5 91t-5 90.5T221 243t-7 94q0 8 5.5 14.5T233 358q5 0 10-2 7-1 12-7 9-10 17-21l16-20q7-9 16-22l16-22q5-7 15-22l14-21 15-23q11-17 13.5-21.5T392 153t14-21q54-85 88-131-24 37-53 100-10 20-33 75t-36 79q-68 131-174 288 1-31 2.5-97t2.5-100q3-188-6-312-1-12-10-20t-21-7q-14 1-22 12-8-13-24-13-12 0-20.5 8.5T91 35v350q0 10 .5 48t0 53-2 44-5 51-8.5 44q-3 11 3 21.5T97 660t23-4q-6 10-3.5 21t11.5 18q10 7 22 5t19-12l2-4q11-1 18.5-9.5T197 655l3-3q41-45 79.5-94T359 447l65-100 72-115 62-103q2 43 3 69 4 23 1.5 253T560 704q0 11 7 19-26 2-55 2 1-42-2-106-6-95-6-117-1-34 3-94 5-75 5-97 0-12-10-17-1-2-3-3-6-5-14-4t-14 8z"/><glyph glyph-name="O" unicode="O" horiz-adv-x="877" d="M425 534q-68-14-117.5-76.5T249 317q-12-95 44-154 65-68 206-59 91 6 132 75 37 63 21 152t-75 148.5T437 531q-6-1-12 3zM45 251q-1 9-1 21v48q-2 59 0 77-12-69 1-146zm330 525q4 3 9 4 20 2 39 2.5t38.5-2 34.5-5 36-9.5l33-10q12-3 34-11 7-3 11-4 79-27 153-85 73-59 114-130 16-28 24-66 9-37 10-61.5t1-65.5q0-155-43-236Q814-3 716-65t-212-67q-74-3-141.5 6T225-84Q156-52 110 3 31 99 7 240q-25 141 26 257 24 50 66 99t89 85q102 78 187 95zM340 16q7 0 35 3 15 1 47.5 2.5t53 4.5T516 36q67 22 111 76-49-43-126-48-159-11-237 72-69 73-55 186 6 49 28.5 96.5T294 503t83 57.5T479 576q8-1 14-7 77-15 130.5-81T691 338l4-23q0 24-3 48-17 158-153 217-9 5-19 7.5t-18 4-20 1-18.5-.5-21.5-2-20.5-2.5T398 584l-23-5q-12-2-22 5t-12 19v8q-61-50-108-123-40-63-59.5-128.5T161 239q5-44 46-113 50-84 133-110zM219 568q-17-16-37-38-55-61-71-95-9-20-10-51.5t1-61.5v-34q7 113 83 231 16 25 34 49zm533-220q9-150-68-258 44 51 69 127 6 19 10 38-1 49-11 93zM431 741q-58 0-110-23-51-24-109-69-44-34-83-79-38-45-60-91v-1q19 34 69 90 42 46 83 75.5t94 44.5q18 5 40 7 0 12 8.5 20t20.5 8h38q11 3 25 4.5t21 1.5 23.5-.5 19.5-.5q12 0 20-9t8-21v-4q59-30 124-83 106-88 144-165 39-78 14-196v-26q-2-76-20-111-22-40-79-88-89-74-172-93.5T354-57q-20 6-38 14-64-1-110 26-58 33-96 125-38 49-57 105 26-111 87-184 59-71 155-99 96-27 207-22 104 5 193 61t138 148q39 71 39 216 0 39-1 63t-8 55.5-20 54.5q-37 64-105 118t-140 79l-59 19q-16 6-46 12.5t-55 7.5q-3-1-7-1z"/><glyph glyph-name="P" unicode="P" d="M260 558q2-23 5.5-68.5T271 422q88-1 120 7 30 8 44 23 15 16 14 45 0 7-8 18t-17 17q-18 12-49.5 18.5t-53.5 7-61 .5zm4-362q0-14 4-126 3-84 1-136-1-15-15-18-5-12-18-12H61q-8 0-14 6t-6 14q0 5 2 9-6 64-6 186 0 22 1.5 86t1.5 99q0 27-3.5 213.5T38 730q0 6 3 10v2q-1 8 4.5 14.5T59 764q23 2 73.5 7.5T215 780t80.5 5.5 85.5-.5 79.5-9.5 80-22.5 70.5-39q53-37 76-97.5T704 489q-5-64-35.5-122.5T589 272q-33-24-72.5-39.5T428 210t-79.5-9.5T264 196zM132 475l2-70q0 31-2 70zm60-145l62 12q61 13 101 24 114 34 136 81 3 7 4 24.5t-1 29.5q-6 41-39.5 67.5T367 605q-50 8-99 1.5T185 581q7-137 7-176v-75zm279 21q77 34 107 87 29 52 12 114-30 111-165 125-78 8-178-14 62 11 131-1 67-12 115.5-50T552 509q3-13 1-41.5T543 423q-19-41-72-72zM246 598h47q6 0 24.5-.5t28-2 26-3.5 27.5-5.5 24-9 23-11.5q15-10 28.5-29t14.5-38q2-46-25-75-22-23-63-33-13-4-27.5-6t-31.5-2.5-27-.5h-55q-4-1-7-1-8 0-14.5 5.5T232 400q-1 29-6.5 88t-6.5 89q0 8 5.5 14.5T238 598h8zm-37 55q-13-3-26-7v-2q13 5 26 9zm27-419l-16-3q-19-3-29 13-2-141 3-223 1-12-7-21t-20-10q-10-1-17 4-6-3-13-4-12-1-21.5 6.5T105 16Q86 204 80 304q0-35-1.5-99.5T77 119Q77 2 82-56h147q2 47-1 125-4 104-4 135 0 3 1 5-1 3-1 5 0 8 5 14 3 4 7 6zm9 1q6 0 15 1 54 2 83.5 4t75.5 9 82 21q35 13 64 34 42 30 68 81t31 108q5 58-14 108t-63 81q-29 20-60 34-32 14-72 20t-70 9.5-79 .5-74-5-80.5-8-73.5-7q-3-62-2-140 2 57 7 116 1 12 10.5 19.5T115 728q10-1 17-8 9 9 21 9 10 0 18-6.5t10-16.5q143 40 250 29 175-18 215-167 23-86-18-158-50-89-190-133-21-7-44-13t-49-11l-42-8q-15-3-46-8z"/><glyph glyph-name="Q" unicode="Q" horiz-adv-x="830" d="M778 100q39-48 51-96 1-2 1-4 5-6 4-14t-7-13q-63-52-149-100-16-8-26 6-4 2-6 5-20 24-57 84-34-19-80-24.5t-93 .5-95 22Q243-9 179 33.5T87 125q-30 57-41 135-10 77 1 153 12 81 41 150 31 70 78 115 48 45 111 71.5T406 781q138 10 242-52t157-171q51-100 45-225t-72-233zM258 695q31 13 103 27 118 24 220-36 102-61 161-170 38-70 50.5-146.5T788 216q27 85 22 168-5 84-41 157-48 98-141 153-94 56-220 47-80-6-150-46zM154 187l-13 18q-31 42-41 112.5t1 133.5q5 36 13 69-19-53-27-112-10-72-1-143t37-120q22-41 79.5-79.5T333 4q71-24 138.5-23.5T577 8l1 1q-68-12-146 5-29 6-59 16-11 2-24 5-45 9-88.5 30.5T191 120q-23 30-37 67zm328 476l2-2 53-18q-27 13-55 20zM594 12h-2q1 0 2-1v1zM364 96q12-5 24-9 89-14 151 7l-26 37q-1-7-7-11-3-2-6-3-7-5-15-4-43 7-75 14.5t-72 28-65 50.5q-39 49-44.5 112t17 118 63.5 93q71 65 155 44 95-24 167-153 12-21 17.5-45t6-38.5-.5-43-1-37.5q0-11-10-17l21-27q6 12 11 27 40 110 25 189-2 8-5.5 14.5t-13 20T668 483q-10 15-21.5 27.5t-21.5 22-27 19.5l-27 14q-10 6-32 14l-31 12q-10 3-37 12l-36 11q-1 1-3 1-35 2-64-8-54-20-96.5-74T208 409q-6-21-10-42v-5q-3-107 30-159 13-21 33-40 39-30 82-42 19-6 21-25zm339 62q16 27 25 58-11-30-26-56zM216 607q-30-39-47-108 19 42 54 81 8 9 20 10 43 47 96 69-71-15-106-45-7-6-17-7zM680-19l7-13q5-10 1.5-21.5T674-71q-5-2-10-3l7-10q68 38 119 79-4 16-12 33-2-14-15-21-10-6-22-3t-17 14q-12 22-26 44l-6-4 23-33q7-10 4.5-22T708-16q-13-9-28-3zm-85 225l33-51 3 3zm-61 93q1 12 11 20-16 15-34 29-13-10-28.5-23.5T458 303l-28-27-25-25q58-51 77-70-19 30-33 58-5 11-1.5 22t14.5 17q9 5 19 2-1 17 13 27 10 7 21.5 4.5T534 299zm-171-32q9 8 38.5 37t51 47.5T496 386q9 6 18 3 8 1 14-4 51-39 86-82 2 32-1 53t-16 44q-65 114-142 134-64 16-119-35t-66-127q-12-77 35-140 40-50 141-71-10 10-74 66-4 3-6 8-2 1-4 3-5 6-5 14.5t6 14.5z"/><glyph glyph-name="R" unicode="R" horiz-adv-x="683" d="M223 531q3-41 4-63 60 7 96 17 34 10 52 22 16 12 17 25 1 21-17 23-10 2-20.5 2t-22-1-20.5-2.5-23-5.5l-20-5-24-6q-15-4-22-6zm353 99q8-37-2-79-13-59-55-116.5T420 331q64 18 115.5 58t65.5 90q9 33-10 107-6 23-15 44zM166 338q5 2 41 15l49 18q13 5 38 16t44 22q97 53 121 132 7 23-3 40-11 18-39 30-27 13-60 17t-56 0q-57-10-151-65l2-14q9-99 11-132 2-37 3-79zm-23 345q23 16 48 29-16-1-20 14l-1 1-66-6h-4q12-4 18-15 21-2 25-23zm376-111q8 41-10 70-17 28-58 44-41 15-90 15t-88-15q-17-7-34-15 26 10 52 15 29 6 72 0t78-22q43-20 64-52 12-19 14-40zM203 286q1 2 3 5l-36-13q-1-1-3-1v-2zm80 27v7l-41-16q4-2 7-4 18 6 34 13zm47 25l14 8-16-7q1-1 2-1zM540 0l16-16q8-9 8-21t-8.5-20.5T535-66t-21 8L394 67l41-47 44-49 33-34q20-20 33-31 34 44 104 106-15 21-33.5 39.5T567 95l-43 37-47 48q-31 30-55.5 52T371 271q23-35 50-71l69-88 57-70q7-10 5.5-21.5T542 1q-1-1-2-1zM360 185q-29 41-51 76l-16-6zM196 565l34 9q23 7 35.5 10t37.5 8 39 4.5 39-1.5q24-4 38-22t13-43q-1-33-34-56-24-16-64-27.5T220 427q-6-4-12-4-8 0-14 6t-6 14q0 28-6 93v5q-2 8 2 15t12 9zm16-347q36-8 86-53l2-1-68 70-65-20q0-27-.5-88.5T166 32q0-12-8.5-20.5T137 3h-5q1-13 1-25t-8-21-20-9-21 8-9 20q-2 65-7.5 175t-9 186-3 175.5T63 696q2 15 15 22-22-2-40-5 7-27 8-60t0-72 0-55q10-288 5-412 0-9-3-60.5t-2.5-59T47-64q25 3 66 6 68 5 85 7-5 143-14 245-1 11 7 18 8 9 21 6zM19 750q31 6 81 11 58 5 72 7 3 2 6 3 8 3 15.5-1t9.5-12l2-7q122 27 172 29 112 4 179-55 52-46 73-129 22-84 10-127-18-67-82-115-65-47-141-66 30-23 80.5-72.5T552 162q7-7 44-38.5t59-55T693 17q4-7 2-15t-9-12q-2-2-5-2-86-76-116-124-5-7-13-8.5t-15 3-9 12.5q-3 1-6 3-16 12-38 34t-37 40L401-1l-43 48q-52 58-86 88-26 23-46 34 7-86 12-222 0-14-12-19-2-16-18-18-28-3-92-8t-89-9q-8-1-15 4T4-90t4 15Q6-53 5.5-25.5t.5 46 2.5 50T11 116q5 122-5 408-1 22 .5 62t0 69.5T-2 711q-3 11 5 19 0 16 16 20z"/><glyph glyph-name="S" unicode="S" horiz-adv-x="635" d="M333 417l2-2q17-22 61-64 47-45 67-70 45-54 90-127 29-47 44-81l6-16q-3 79-70 166l-22 27q-11 14-25 29l-24 25q-10 9-28 26l-25 22-27 24q-20 18-23 20l-25 21h-1zM553 20q-3-12-7-23 5 7 7 16 1 2 0 7zM262-79q-30 12-50 26-61 42-96 163-5 17 8 29-15-6-27-13 45-178 174-236 46-20 135-9 39 5 74 15-28-5-60-5-11 1-22 1-74-7-136 29zm-24 290q10-15 27-44l27-44q31-48 63-60 16-7 37 1 9 3 11 7 3 3 1 9-2 8-21 26-17 17-47 41l-92 70q-74 59-119 141T74 532q-9 128 67 198 70 65 198 65 4 0 19.5.5t26 .5 25-2.5T435 786q25-11 48.5-29.5T523 721t36-44.5 30-44.5l28-48q18-31 25-42 2-2 2-5 1-2 2-3 3-8-.5-15.5T634 508q-26-9-76-34-52-27-80-37-8-3-15.5.5T452 449q-1 3-1 6-1 2-2 5-6 28-33.5 55.5T357 555q-28 11-41 3-13-9-8-43 3-23 26-46 9-8 25-21l26-22q3-3 23.5-20.5t27-24 25-23T489 332l25-26q15-15 28-30l23-28q98-128 73-245-7-33-28.5-67T560-114q-55-33-149-44-100-13-156 12Q109-81 59 114q-7 3-11 9-4 8-1.5 16t9.5 12q29 15 73 34 69 29 72 30 5 3 12 2 15 8 25-6zm259 320q-60 75-109 104-66 39-123 5-23-14-25-28-4-27 27-89-3 49 28 69 29 18 76 1 35-14 67.5-44.5T484 483q19 8 56 26 38 20 59 28-4 6-19 31t-19.5 33-18.5 29.5-22 30.5l-21 26q-14 17-25 26t-25.5 19.5T419 750q-8 3-17.5 4.5T384 756t-22.5-.5-22.5-.5q-112 0-171-54-62-57-54-167 6-82 47-157t107-128l93-71q31-25 50-44 26-25 31-42 7-25-5-43-10-16-31-23-35-13-67-1-42 18-80 76-10 14-28 46l-18 30q-10-5-21-9l-26-11-21-9-3-1q9 1 16-4 5 4 10 6 12 3 22.5-2.5T205 130q3-12 11-38.5t12-38 12.5-28T261-4q11-13 27-22 51-19 109-24 3 1 7 1 39 7 64.5 31T498 46q4 41-37 96-28 37-107 112-33 30-42 40l-39 38q-29 29-41 46l-30 44q-18 26-27 50t-12 49q-10 85 31 140.5T304 731q65 13 130.5-15.5T535 622q11-21-8-36l16-19q7-9 6-21t-10.5-19.5T517 520t-20 11z"/><glyph glyph-name="T" unicode="T" horiz-adv-x="704" d="M628 672q14-1 28-3l6-2q-3 33-7 55-171 0-276 4 132-8 226-27 10-2 16.5-9.5T628 672zM356-9q-1-29-1-56 0-6-3-12 32 2 71 5-3 29-3 72-1 80-1 90-5 131-20 453 0 4 1 7-1 3-1 6 0 8 6 14t14 6q134 0 253 11-2 13-4 29-9-6-20-5-112 15-278 13 1-24 4-59l5-45 5-53q17-203 17-452 0-12-8.5-20.5T372-14q-9 0-16 5zm-93 574q2-46 1-130-1-90 0-127 4-139 16-388 10 0 21 1-4 6-4 14 0 32 1.5 70.5t3 65 5 71.5 4.5 67q11 173-21 413-156-4-205-4-12 0-20.5 8.5T56 647t8.5 20.5T85 676q30 0 65 1-15 0-30 1-12 1-20 10t-7 21 10 20 21 7q10-1 175-7-21 2-41 3-1 0-111 9-64 5-92 6-2-27-3-71-2-77-2-81 119-11 178-11 4 0 7-1 4 1 7 1 8 0 14.5-5.5T263 565zM39 787q39 0 112-6l109-9q146-10 407-10 8 0 14-6t6-14v-1q7-5 8-13 4-25 9.5-75t9.5-75v-3q1-2 1-4 1-8-4.5-14.5T697 549q-122-12-258-13 15-315 20-444 0-11 1-92 0-54 5-87 1-9-4-15.5t-13-7.5h-3q-110-10-186-10-8 0-14 6t-6 14q0 5 3 10-2 3-2 7-12 251-16 389-1 39 0 130 1 76 0 108-57 0-198 13-8 1-13.5 7.5T8 579q0 4 2 8v5q1 12 2 84 1 54 4 87 1 5 4 10 4 14 19 14z"/><glyph glyph-name="U" unicode="U" horiz-adv-x="738" d="M147 652q10-11 8-25-21-122 12.5-270.5T272 104q35-51 90-71 58-21 98 13 19 16 33 32-9-7-17-12-60-36-133 9-30 18-52.5 45.5T258 177q-73 219-35 537-29 11-82 15 15-10 13-27zm457-497Q570 63 498 2q-11-9-22-16 42 7 74 41 33 38 54 128zm32 525q1 0 2 1 12 2 21.5-5t12.5-19q10-59 14-149t-2-191Q668 72 592-11q-33-37-70.5-50.5T433-74q-29 1-42 1.5T352.5-67 307-52Q200 1 130 199q-27 78-42.5 160T72 502q0 31 4.5 67t11 77 8.5 62q2 17 17 23-10 1-18 2-24-92-31.5-180T62 384q7-80 27-182 23-119 59-171 54-77 136.5-114.5T461-113q42 4 71 12t51 28q38 35 64 81t37.5 95 18 104.5T708 317l-2 109v158q1 79-4 129-53 7-131 4-1-178-24-455-1-12-1-33-1-22-2-33-2-32-9-54 36 72 44 187 4 60 1 173-3 127 0 171 1 12 10 20t21 7q19-1 25-20zM96 773q6-1 33-3t40-3.5 35-6 38-10.5q8-3 11-10 13-6 11-20-40-316 32-531 7-21 25.5-43t42.5-37q52-32 92-9 22 14 36 42 10 20 12 57 1 10 2 33 0 22 1 34 24 281 24 460 0 4 1 7v2q0 8 5.5 14.5T551 756q107 5 174-5 8-1 13-8t4-15q0-2-1-3 1-2 1-4 5-54 4-138V448q0-8 1-27 0-54 1-108t-6-112.5-20-111-41.5-103T609-103q-28-26-63-36t-81-14q-105-9-197.5 33T116 9Q74 69 49 194 19 334 19 470t39 277q4 14 18 15 6 12 20 11z"/><glyph glyph-name="V" unicode="V" horiz-adv-x="767" d="M370 85l113 217q94 181 170 283 7 10 19 11.5t21-5.5q4-3 7-7l1 3q35 68 39 94-84 40-125 56 0-1-1-1-38-55-77-127t-63-125l-61-137q-6-15-25-51-16-31-23-48-3-8-10.5-11.5T339 236q-9 4-12 13-3 2-4 6l-4 8q11-30 22-71l2 4 67 112 39 72 44 80 40 69q24 42 48 77.5t49 68.5q7 10 19 11.5t21.5-5.5 11-19-5.5-21l-47-67q-22-34-46-75l-40-68-43-78-40-73q-20-36-67-114l-31-53q4-15 8-28zm-36-63q-1 0-1 1l-1 2q-1-14-13-22-10-7-21.5-4.5T279 11q-22 32-36 85-17 64-22 76l-74 200Q88 531 51 615q-4 11 0 22.5t15 16 22.5.5 16.5-15l23-57q-6 23-10 45-3 12 3.5 22t18.5 12.5 22-4 12-18.5q9-42 25-89t29-78l38-86 36-82q-32 80-70 211l-13 47-14 48q-5 17-14.5 41T170 695v1q-97 0-144-19 23-68 74.5-237.5t95-287.5T294-73q1 1 2 1 95 13 105 13 0 3 2 5 24 40 48 86l40 78q16 31 42 94l35 80q8 19 39 96t34 86q-46-74-106-190l-36-70-40-78-36-68q-21-38-42-73-6-10-18-13t-22 3-13 18 3 22zm-35 99l-3 15q-19 77-31 105-14 34-57 131l67-178q8-20 22-77zM413-98q-15-1-111-14-8-1-14 3-16-6-25 10-58 111-104 236T60.5 434.5-16 678q-3 7 .5 14.5T-4 703q3 7 10 9 27 12 63 17.5t57.5 6 61.5.5q8 0 14-6t6-14q0-2-1-5 12-21 22-47t15-44l14-49q9-32 12-44 41-142 76-225l6 13q19 34 25 48l61 139q24 52 64 126t80 130q2 4 5 6 0 2 1 4 3 8 10.5 11.5t15.5.5q47-17 154-68 13-6 11-20 1-4 1-8-2-33-43-115l-32-62q-17-32-23-49-8-18-35-87l-39-95-36-86q-25-58-43-94l-42-82q-25-48-50-88-2-4-5-6-1-7-6.5-12.5T413-98z"/><glyph glyph-name="W" unicode="W" horiz-adv-x="904" d="M317 50q3 0 5 1v1q-2-1-5-2zm-82 162l-29 91q-37 106-59 180l13-57q38-162 63-230zm-34-99l-2 2q-12 9-12 23-6 5-9 12-31 76-74 263-34 146-62 220l10-43q7-35 11-52l31-126 34-137q13-49 35-120.5T208 26q72 21 106 24-20 0-28 18l-13 33q-15-15-32-30-9-8-21-7t-20 10q-7 9-7 20t8 19zm401 1l-83 117-55 82-54-54q-18-18-80-94l-13-15q11-33 23-60 0-1 1-3 13 24 38 61 53 80 61 93 4 7 12 9t15-2q3-2 6-5 5-2 9-7 57-89 85-168 0-2 1-4 15-3 29.5-7.5T630 45t28-11l30-14q22-9 27-12l37 142 40 150q14 58 32 139t29 150Q797 326 690 79q-3-5-7-9-4-6-9-9-9-6-20-4.5T636 66q-13-5-25 1-10 5-14 16.5t1 22.5zm218 562q10 7 21.5 4.5T860 668t4-21l-3-20q1 5 7 25 6 22 8 34-95 37-151 37v-2q-26-64-51-200.5T649 312q0-8-6-14t-14-6q-5 0-10 3-10 2-14 12-14 40-71 97l-35 32q-2-9-8-14l-9-8h4q16 4 28-7 10-9 9-23 56-73 113-161l3 17q26 123 33 148 8 29 44 129 37 101 46 159 2 12 12 19.5t21 5.5q10-2 16.5-9t8.5-16zM707 281q38 110 66 221-38-106-45-130-10-34-21-91zM335 11q-12 0-24.5-1.5t-27.5-5T258.5-1 230-8l-27-8q-8-2-15 2t-9 12q-1 2-1 4-5 4-8 10-23 58-45 130.5t-35 122T56 403L25 528q-6 21-15.5 64.5t-18 74.5-19.5 59q-4 8-.5 15.5T-18 752q4 2 9 2 3 3 7 5 116 43 188 34 7-1 12-6 12-5 12-18 0-18 3-34.5t10.5-44T233 653q6-23 34-160 16-78 29-126l18 23q15 20 20 26l19 24q13 16 21 25l20 21 23 24q7 6 16 5 11 10 23 2 52-31 106-85 30-30 51-57 8 88 30 196.5T687 735q1 3 3 5-1 8 4.5 14.5T708 762q71 6 192-42 8-1 13.5-7.5T918 698q-2-21-12-56-10-37-12-51-15-92-36-185t-59-236L751-13q0-3-2-6 0-4-1-8-4-7-11.5-10.5T721-38q-12 6-54 24.5T598.5 14 545 28q-8 2-12.5 9T529 52l1 1-1 1q-23 68-70 143l-47-71q-37-57-55-95-1-2-2-3-1-8-7-12.5T335 11zM156 704q24-151 104-381l18-54q71 92 129 152 2 13 14 19 4 3 8 3l22 21q3 3 6 5l-14 9q-24-22-47-50l-52-64-45-57q-5-6-13-7t-15 5q-11 8-6 22-17 60-37 158-27 134-33 158-2 9-9 32.5t-10.5 42T171 754q-60 3-155-31 6-17 12-36 4 12 15 17 11 4 22.5 0T82 689q22-51 40-114-14 62-24 119-2 12 5.5 22t19 12 21.5-5.5 12-18.5z"/><glyph glyph-name="X" unicode="X" horiz-adv-x="797" d="M536 279l26-39q54-81 86-140l26-54 29-56q11 5 20 10-5 19-28 57-22 38-61 92zm211 382q4-7 4-15l6 6zM455 399q132 164 247 269 15 13 32 5-54 47-107 67-1-6-6-10-36-32-110.5-122T416 480q-3-6-9-9l10-15 192 221q8 9 20 10t21-7 10-20-7-21L450 406zm34-51l19-29q-1 6 2 12-8 10-2 21 20 39 46 76zm-38-48l-5-7L603 40q6-11 3-22.5T592.5 0t-22-3T553 10L408 244l-38-50q-11-15-55-79 39 49 67 89 4 6 12.5 7.5T410 208q5-4 7-10 28-39 92-139 55-86 90-132l54 33q-11 20-29.5 58T596 72q-30 57-82 136zm-34 51l-5 8-6-7 6-8zM218 753q22-34 97-120 56-65 82-107 35 51 100 128t98 106q2 2 4 3 0 3 1 7 2 8 9.5 12t15.5 1q48-14 95-48t84-75q5-6 4.5-14t-6.5-14q-5-5-13-5-1-1-2-3-88-81-145-146.5T544 334l122-162q39-53 63-94 30-51 35-77 0-4-1-9 5-17-11-23-18-8-40-20-3-8-11-13t-17-4l-7-4q-55-35-78-46-7-4-15-1t-12 10q-2 4-2 9-33 43-94 137l-79 120q-31-43-85-109L210-81q-12-16-28-4-4 3-6 6l-6 4q-19 19-59 44Q57 3 44 13q-7 5-8 13t4 15q2 3 5 5 1 1 1 2 68 144 204 311-38 56-102 134Q65 594 33 614q-7 4-9 12t2 15 11 9q1 3 3 5 10 9 30 29l34 32q14 13 33.5 29t37.5 28q7 4 15 2.5t13-8.5q1-3 2-5 8-2 13-9zM188 47q23 24 45 53t48 67.5 43 60.5l50 67-6 9q-53-69-96-135-8-13-21-31l-23-32q-9-14-16-29-5-11-16.5-14.5T173 64t-14.5 16.5T160 103q8 16 20 33l24 37 20 28q48 74 110 154-108 159-210 284-7 9-6 21t10.5 19.5T150 686t20-11q101-126 202-273l6 8Q257 594 170 697q-6 8-7 17-14-11-27-24l-34-31-27-27q38-34 104-113 71-87 108-143l2-2q6-5 7-13t-5-15Q152 177 84 34q4-3 48-31 38-24 59-43l33 42q-19-11-35 4-9 8-9 20t8 21z"/><glyph glyph-name="Y" unicode="Y" horiz-adv-x="730" d="M267 269q-41 97-115 240l47-101q6-13 19.5-46t24.5-54.5 24-38.5zm-74 516q8-1 14-7 82-102 159-288 134 178 193 280 4 7 12 9t15-2q5-3 8-7 7-5 32-18l38-20q12-7 31-19.5t34-24.5q2-1 5-2 7-3 10.5-10.5T744 660q-16-38-40-80l-40-68q-16-27-53-76l-48-64q-11-14-58.5-71T454 239v-4q0-11 .5-88.5t0-106T451-44q-3-55-8-100-1-9-7.5-14t-14.5-4q-7 1-11 5-32 3-90.5 6t-86.5 5q-8 1-13.5 7t-4.5 15q0 4 2 8v5q1 14 3 69l4 78q1 23 2 66.5t1 78.5-2 70q0 4 1 7-12 18-23 41t-23.5 52.5T163 392Q87 560 17 676q-6 10 0 20 2 4 5 7 72 60 150 87 13 4 21-5zM69 689l-9-7 18-31-8 15q-6 11-1 23zm36 18q0 4 1 7l-10-6q4 0 9-1zm328-382l16-29 74 90 62 81q41 54 67.5 99.5T700 659l-8 7Q502 422 433 325zm-112 67l-98 134-61 88q93-177 132-262zm277 248q-21-19-40-42l-43-54-39-50-84-103 8-12zm10 11l35 46-61 33-43-67 23 22q9 8 21 7t20-10q12-13 5-31zM331 282v20l-3-5v-20zm10-292q-1 45-4.5 127.5T332 226l-2 2h-1q2-32 5-99 6-91 7-139zm0-36q0-12-8.5-20T312-74t-20.5 8.5T283-45q0 57-6 170-5 101-6 128-2-6-6-10 4-95-8-351 19-1 70-3.5t79-4.5q4 40 6 90.5t2.5 80 0 96.5-.5 84q-5 10 1 19-12 4-18 15l-2 3-5-8q0-40 4.5-149T399-53q0-12-8.5-20.5T370-82t-20.5 8.5T341-53v7zM158 725l54-81 57-84 56-74q-72 170-147 263-18-6-34-14 8-3 14-10z"/><glyph glyph-name="Z" unicode="Z" horiz-adv-x="772" d="M432 588q-45 0-113 3-114 5-147 5 1 0 83-5 111-6 177-3zm102 4q-29-2-47-3-22-1-47-1 13-2 16-15h1q5-6 5-14.5t-6-14.5q-57-53-137-148-126-151-131-156-7-8-58-76-30-41-57-64 0-10 1-54 26 50 67 98t95.5 101 76.5 79q23 26 63 77l57 73zM172 57l142 183q-15-16-46-46l-47-48q-17-17-39.5-43.5T143 51q14 4 29 6zm517 1q10-1 17.5-8.5T715 31q1-12-7-21T688 0Q563-8 499-19q-21-3-47-8 16 1 32 1 27 1 143-1 84-1 125 2 0 82-4 130h-63q14-8 14-24 0-14-10-23zM388 20q-39-6-69-9-22-2-60-4t-55-4l-9-13q63 4 193 30zM138-11q5-1 7-1-1 2-2 3zm-19 0q-6 1-10 5-14-9-29-2-4 1-6 3-1-24-2-44h24q-1 5-1 10 0 10 7 18t17 10zM93 788q75-3 213-11l192-11q39-2 118-2t118-2q13-1 18-13 9-6 9-17 0-20 1.5-56t2.5-50q1-1 2-1 6-6 6-14.5t-5-14.5q-41-44-112-128l-99-113-110-121q-50-55-82-95 161 6 402 6 8 0 14-6t6-14v-6q5-54 5-152 0-6-3-11 0-7-5-13t-13-7q-52-5-145-3-114 2-142 1-43-1-208-13Q142-89 66-89q-6 0-11 4-4-1-7-1-9 1-14 7.5T30-64q2 18 3 39.5T34 12t-.5 42-.5 39q-1 0-1 1-12 16 4 28 29 22 62 66 52 69 60 78l130 156q64 76 113 125-57-1-149 4-147 8-182 8-5 0-10 3 0-1-5-.5t-6 .5q-8 2-12 9.5T36 587q7 25 11.5 53t8.5 65 7 57q2 10 11 15 6 11 19 11zm31-61q55-1 176-3t213.5-4 176.5-7q12-1 20-10t7-21-10-20-21-7h-5q3-4 5-9 8-8 8-20t-8.5-20.5T665 597q-61-88-227-296L250 65q49 2 63 4 18 2 176 24 55 7 96 11-144-2-262-7-8 0-14.5 5.5T302 116q0 10 7 17l2 2q40 54 106 126l110 120 95 110q66 78 103 118v1q0 20-2 58t-2 54q-35 2-110.5 2T496 726q-55 3-188.5 11T102 748q-2-14-5-37 8 16 27 16zm30-73q41 0 167-5 113-4 164-2l51 3q34 2 46 2l5 8q-91 3-260.5 5.5T122 669q-10 0-17.5 6.5T95 691q-7-59-15-92 30 0 66-2-21 6-21 28 0 12 8.5 20.5T154 654z"/><glyph glyph-name="bracketleft" unicode="[" horiz-adv-x="339" d="M129 731q73-16 177-9-87 13-177 9zm-16-203Q97 399 94 294l3 42q4 51 8 96zM71-4Q51 0 48 20q-5 36-8 74 0-8 1-51 1-28 1-46 14-1 29-1zm6 697q-6 11-3 22 2 7 7 13l-25-4q0-121-1-188 9 69 22 157zM143-6h9q-2 4-2 9 8 163 10 388l-5-59Q139 126 143-6zM85-5v1q-2 0-4-1h4zM66-62q-13 0-24 1-1-34-3-64 57 1 183 7-94 0-147-1-12 0-21 8t-9 20q0 23 21 29zm145 724l2-6q3-12-3.5-22T192 621l-7-2q58 8 122 3 0 8-.5 23.5T306 664q-54-3-95-2zM43 759q124 20 268-1 6 11 19 9 7-1 11.5-7t3.5-14q-3-19-3.5-38.5t.5-50 1-41.5q8-6 7-16-1-7-7-12t-13-4q-70 8-134 0 0-376-10-573 26 2 66.5 2T321 5q3-1 6-3 15-4 13-19-4-30-4-101v-2q4-4 4-10 0-7-5-13t-12-6Q94-161 21-161q-5 0-9 2-12 6-11 19Q7-86 5 42 3 171 7 228q13 185 13 502 0 10 9 15 2 12 14 14zm188-877l69 4q0 61 2 87-4 1-9 1 1-4 1-8 0-12-8.5-20.5T265-63h-26q16-8 16-26 0-12-8-21-7-6-16-8z"/><glyph glyph-name="backslash" unicode="\" horiz-adv-x="445" d="M218 78q10-20 23.5-52T267-30.5 293-74l21 10-4 4Q264 1 218 78zM70 521q88-220 177-378l-24 60zM-81 696q14 11 34.5 19.5t35.5 13T29 739t32 8 13.5-1 8.5-10q22-33 42-72.5t42-89.5q21-45 35-74L442 11q5-1 9-5 5-5 5-12.5T450-19q-14-14-34.5-27.5T380-68l-39-22q-25-13-35-19-6-3-13-2-12-5-21 6-19 22-34 52t-30.5 66T184 66q-57 111-82 168-13 32-30 65l-43 81-36 65q-70 133-91 226-1 7 2.5 13t10.5 8q2 3 4 4zm136-12l220-457q13-26 29.5-70.5T336 80t36-58q7-10 5.5-21.5T367-19q-5-4-11-5 5-6 6-14 29 17 49 32L170 484l-35 73-40 84q-18 37-38 68-3-1-24-6t-28-7-22-7-24.5-10-17.5-11l-1-1q21-84 85-205l25-46Q5 523-39 643q-4 11 1 22t16 15q12 5 23-1 3 13 16 19 10 5 21.5 1T55 684z"/><glyph glyph-name="bracketright" unicode="]" horiz-adv-x="298" d="M33-87H19v-9q6 7 14 9zm109 7q-1 1-2 1-31-6-70-7 31 0 72 6zm112 727v23q-78-5-157-12 98 0 138-2 11-1 19-9zM65 601H35q-12 0-20 9t-8 21q0 11 9 20l-22-3q3-44 3-63 8 12 23 13 22 1 45 3zM187-72q-1 12-1 19-2 34-5 57-3 24-17 85-7 28-10 47 0-4 9-184 3-3 4-7 2-11-7-18-2-3-5-4zM49-144h-9q-11 1-18 7 1-29 1-51 7-1 14-1-5 7-6 16-1 21 18 29zm202-11q-4-3-7-4-61-24-115-33 85 1 144 13l-2 31q-8-7-19-7h-1zM227 71q1 51 1 89-1 69-11 216t-10 220v3q-7 1-15 1 6-69 6-198 0-145 7-216 3-31 15-84zm60-284q-54-11-132-14t-136 3q-5-11-18-10-7 1-12 6.5t-4 13.5q3 29-3 130-7 6-7 15 0 7 5.5 12.5T-7-51q97 0 134 6-1 13-4 69l-4 74q-1 19-3 70l-3 75q-1 25-2 69.5t-1 75.5.5 68.5T113 528q-6 0-25-2t-28.5-2.5-25.5-1-29.5 1T-21 527q-4 1-7 4-14 4-13 19 3 29-1 100v3q-3 4-4 9-1 7 4 13t12 7q152 17 300 25 9 0 15-6t6-15q-3-59 4-182 7-128 6-185-4-256 8-502 1-11-9-16-2-11-13-14z"/><glyph glyph-name="asciicircum" unicode="^" horiz-adv-x="547" d="M248 585l-48-104q-59-131-82-215-3-11-13.5-17t-22-3T65 259.5 62 282q22 80 86 223l41 91q-26-44-48.5-94T91 383L49 279q-5-11-16.5-15t-22.5.5-15 16 0 22.5q14 31 39 93l38 94-38-74q-12-25-28.5-67T-19 272q24-11 70-27l64-22q2 5 20 38l22 41 18 37q15 28 21 42l15 37q10 24 16.5 43.5T240 502q1 7 7.5 10.5T262 514q9-2 12-12 1-1 2-1-17 47-28 84zm-4 143q4 4 8 6h-58v-1q-27-36-68-130 30 55 66 101 13 17 33 9 6 12 19 15zm302-459q-25-8-67-33-49-28-71-38-7-2-14 0-13-2-19 10-81 153-115 237-7-20-17-43l-16-40q-8-17-21-42l-19-38-22-42q-16-28-20-37 1-6-1-11-3-7-10-9.5t-14-.5q-18 8-81 29-52 18-83 33-10 5-10 17-3 5-2 12 8 36 24 78.5t29.5 71T35 498l35 67q9 18 25.5 57.5t32 71T162 751v1q0 7 5.5 12.5T180 770h117q7 0 13-5 9-1 14-9 25-43 93-187 4-8 58.5-109T547 303q7-3 10-11 2-7-1-14t-10-9zM307 699q21-58 86-187 63-125 86-196 3-12-2.5-22.5t-17-14-22 2T423 298q-20 65-74 171 38-99 53-147 3-12-2.5-22.5T383 285q-4-1-7-1l25-49q18 8 60 32 31 19 51 27-16 54-67 148-51 92-60 111-67 140-90 181h-17q11-6 15-18 11-5 14-17z"/><glyph glyph-name="underscore" unicode="_" horiz-adv-x="732" d="M-65-170l18 120 66-10h65l70-5 60-2 65-3h122l75-1h122l78 4h66v-122h-62l-78-4H476l-75 1H277l-67 3-62 2-68 5H9z"/><glyph glyph-name="grave" unicode="`" horiz-adv-x="214" d="M92 752q1-1 3-2 3-4 24-28l29-33 24-28q16-19 27-35l22-31q4-6 2.5-13.5T216 570h-1q-2-4-6-6-11-7-23-16 0-14-13-23-11-8-25-4-38-27-65-40-7-3-13-1-12-4-20 5-9 11-49 68-28 39-52 56-7 6-7 15 0 7 3 12 43 58 122 119 6 5 13.5 4t11.5-7zm-27-45q4-2 7-5 47-49 98-121l12 8q-28 39-106 127zm30-132q8-14 0-29-6-10-17-13t-21 2q8-11 15-19 21 11 51 32l-24 32q-1-1-2-2.5t-2-2.5zM3 639q0 5 1 11l-9-10q4 0 8-1z"/><glyph glyph-name="a" unicode="a" horiz-adv-x="612" d="M529 633q11-2 18-10t7-19q0-45 1-118 2 79 2 142-13 3-28 5zm-95-99q-1 50-4 96 0 5 1 10l-17 1q-1-8-8-59-1-8-8-13t-15-4q-7 1-12 6-93 52-195 12-63-25-90-46-42-35-63-90T3 327q0-26 4-52 0 30 6 72 12 86 60 140t119 73q117 32 242-26zM545 45q-3-27-7-54l-2-6q3 0 6-1 4 30 6 64zm-60-15q-47-7-98-7 4-5 6-11 4-24 4-26 6 0 37 .5t47 .5q-2 7-1 14 3 14 5 29zM364 499q-85 25-157 5-54-15-90.5-55.5T71 339q-13-89 4-132 34-88 190-116 83-15 172-8v4q-86 3-150 18-128 30-184 115-47 71-22 139 21 58 88 98 42 24 94 35.5t101 6.5zm40 182q131-6 181-17 9-2 13-9t3-15q-1-5-4-8 0-34-8-402-1-46 0-84t-.5-86-7.5-86q-2-9-9-14-1-8-8-13t-15-4q-24 3-49.5 4T436-53t-52-1h-5q-8 0-14.5 5.5T358-35q-1 20-3 32-87-10-170 14-81 24-129 72-44 44-68 109t-25 135q-2 72 23 136 24 64 74 104 32 26 102 54 109 42 209-5 3 20 3 33 0 11 10 17 4 16 20 15zm-3-303q11-76-10-161-1-8-8.5-12t-15.5-2q-6-4-12-4-111 0-159 49-22 22-26.5 51.5T176 353q10 24 31 42.5t47.5 27 59 2T376 394q1 1 2 1 8 1 15-4t8-13zm-42-21q-23 20-47.5 27t-43.5 1-33.5-18.5T213 338q-14-36 12-62 36-37 130-37 13 60 8 115-2 1-4 3zm129 277q8-148 7-490h1q4 67 4 143.5t-2 171-2 145.5q0 12 8.5 20.5T525 633q-35 4-37 4v-3zm-74-208q-44 21-105 15t-111-35q-49-28-63-67-15-40 16-87 44-66 150-91 56-13 136-16 1 204 0 280-12-4-23 1z"/><glyph glyph-name="b" unicode="b" horiz-adv-x="678" d="M265 260q2-61 5-83 2 0 8-2 72-20 105-15 21 3 40.5 17.5T454 213q23 45-12 76-29 25-85 10-36-9-92-39zm233 220q108-40 136-169 19-88-13-150-52-96-180-145-37-14-107-34l-22-6Q433-40 510-3q105 50 134 145 27 90-16 203-11 29-17 45-7 15-20.5 34.5T561 454q-28 18-63 26zM217 301q5-141 12-234 120 21 202 57 141 62 121 146-9 36-48 61.5T409 364t-104-7.5-69-44.5q-7-9-19-11zm330 71q-38 56-112 64-66 8-142-23 58 16 123 9 78-10 131-50zM211 5q-8-1-15-2-11-1-20 5v-31q0-12-8.5-20.5T147-52t-20.5 8.5T118-23q0 139-14 398.5T88 681q0 12 8 21t20 9q17 1 26-14 0 18 1 35 0 3 1 7-31 1-62 1 4-109-2-398-5-261 6-400 63 0 134-3v11q-18 2-24 19-4 11 .5 21.5T211 5zm30 288q65 34 105 45 77 20 122-19 30-26 34-61.5T489 195q-14-29-41.5-50T389 120q-8-3-25-1.5t-25 2-24.5 4T291 130t-22.5 6-20.5 6q-12 3-14 14-2 3-3 7-3 22-7 108-1 16 14 20 1 1 3 2zm-5-395q-91 4-169 4-8 0-14 6t-6 14v3Q35 72 40 343q6 299 1 414 0 8 5.5 14.5T60 778h4q4 2 9 2 81 0 174-8 8-1 13.5-7t4.5-14v-3q-3-67-3-246 197 63 321-14 16-10 29.5-25t24.5-37 15.5-32.5T666 359q47-126 16-228Q648 18 528-39q-42-20-91-26t-87.5-3T260-56v-15q0-6-3-11v-1q0-8-6.5-13.5T236-102zm-35 830q-3-43 3-113 7-101 8-118 1-26 2-58 13 8 28 15-14 0-19 13-2 5-1 11v4q0 198 2 252-12 1-24 1 1-3 1-7z"/><glyph glyph-name="c" unicode="c" horiz-adv-x="589" d="M588 192q-98 41-150 45-40-101-99-105-29-1-52 18-23 20-38 51-32 65-17 128 9 35 33.5 58.5T330 417q67 9 130-39 12 12 28 24l26 20q9 7 30.5 21.5T571 462q-6 8-12.5 15.5T542 495l-14 14-20 17q-14 12-16 14-55 48-114 60t-109-6.5-94-61.5q-66-65-96-160.5T71 188Q98 85 179.5 30T374-25h8q64 0 89 12 44 21 73.5 78T585 186q1 3 3 6zM482 99q-40-46-108-46-33 0-70 13 32-12 62-15 54-5 87 17 18 11 29 31zm-51 179q62-3 179-52 7-3 10.5-10.5T620 200q0-2-1-3 8-8 6-19-6-30-16-61.5T583 52 542.5-8 489-49q-7-3-15-5l-14-5q-6-2-16-3l-14-2q-5 0-15.5-.5T400-65h-26Q249-65 156-2 64 60 33 178 7 278 40 383q34 106 107 177 51 49 109.5 71t128.5 8.5T518 570q4-3 15-12.5t16-14.5 15-14 16-15.5 13.5-15.5 13.5-17q8-2 13-8 12-16-4-28t-46-32.5-51.5-37T480 341q-8-8-19-6-9-1-17 5-54 44-108 37-53-7-65-58-12-49 14-101 11-23 25-35t26-11q15 1 32.5 20.5T403 259q3 8 11 11 7 8 17 8zm28 194q-61 62-128 50-36-7-70-34 64 31 137 18 12-3 19-12.5t4.5-21.5-12-19-21.5-5q-32 6-56 2.5T279 432q-110-57-112-135-1-67 68-127 32-27 69.5-43t70.5-16q67 0 83 68 3 11 13 17.5t22 3.5q10-2 16-10t6-18q6 1 12 1 12-1 19.5-10.5T553 141q-9-83-68-122-50-33-125-26-65 7-128 42t-96 84q-35 53-39 120.5T114 368q20 61 59 112 64 83 148 99 97 17 180-65 8-9 8-21t-8.5-20.5T480 464t-21 8z"/><glyph glyph-name="d" unicode="d" horiz-adv-x="607" d="M135 374q47 49 113 83.5T372 501q-73 6-135-29t-102-98zM604 53q-2-54-8-94l-2-6q7 0 14 1 0 23-3 86-1 7-1 13zm12 585q0-202-4-334 11 214 4 334zm-74-203q5-229 6-272 10 189 10 562 0 7 3 13-18 1-32 2 9-9 9-21 0-99 3-239 15-12 10-31-3-8-9-14zm-52-320q-1 83-4 245-75 11-113 3-69-15-131-63-67-52-55-102 16-63 117-82 79-15 180-1h6zm1-85q-72-20-160-19-69 1-121.5 21.5T113 102q-8 9-15 19l4-10Q146 16 273-9q101-19 162 5 10 4 19-3 11-3 14-15 5-24 6-31 24 2 65 3l2 1q-4 8-3 16l4 25q-9-10-22-10-12 0-20.5 8.5T491 11v19zm-8 467q-3 128-3 222 0 13 9 21-9 0-18-1 0-164-6-230-1-5-3-9 10-1 21-3zM134 173q-2 5-3 11-21 87 75 162 71 56 155 73 48 10 123-1v19q-56 13-104 6-51-7-110-39t-99-76q-43-46-49-92-4-33 12-63zm512 571q10-71 12-157.5t0-145-7.5-162.5-7.5-147q-1-27 2-90 3-67 3-92 0-10-8-16 0-7-5.5-12.5T622-85q-19-2-82-4-51-2-79-6-8-1-14.5 4T439-77v2q-6 22-7 27-67-20-167-1Q118-21 66 94q-46 101-4 223 19 54 53.5 99.5t82 78.5T303 538t124-7q4 52 4 225 0 9 7 15 5 6 13 7 20 2 45 2t40.5-.5T584 777t40-2 13.5-6.5T643 754v-2q2-4 3-8zM453 308q2-16 3-35t1-32.5-.5-34.5-.5-31q0-8-6-14t-14-6q-3 0-6 1-59-37-127-17-54 15-63 66-8 44 19 87 27 45 73 57 53 14 104-24 15-2 17-17zm-40-16q-36 28-70 18-31-8-50-39-19-30-14-58 5-27 34-36 32-8 54-4t49 22q1 71-1 96-1 0-2 1z"/><glyph glyph-name="e" unicode="e" horiz-adv-x="576" d="M250 227q2-56 20-79 14-18 42-13 59 10 144 91 2 2 4 3-6 0-30-1t-36-1q-87-3-144 0zm30 186q37 0 77 4-20 13-42 10-16-2-35-14zm262-45q4-4 7-9 1 60-13 100-2 7-6 13.5T519 486l-11 12q-4 4-15 13.5T479 524q-46 42-114 54 70-21 118.5-78.5T542 368zm-63-56q33 2 58 3 5 0 9-1 1 9 2 17-8-12-22-14zM135 461q7 29 16 49-3-4-6-9-43-62-59-182v-5h4q9 85 45 147zM475 28q1-1 2-3l4 4q19 18 77 84l-85 75q-88-81-154-93-51-8-80 28t-29 116q0 6 3 11-13 0-36 2 3-41 9-74 10-54 27-75 21-27 75-39.5t81 4.5q8 5 42 42 8 8 20 8.5t21-7.5q4-4 7-9l21 30q7 9 19 11.5t21.5-4.5 12-19-4.5-22q-27-38-53-70zM362-37q-38-1-80 5-63 10-108 56t-65 105.5T88 256q-4 0-7 1-3-78 13-127Q123 42 198.5-6T363-39q-1 1-1 2zm135 257l99-88q10-9 6-21 0-8-5-14l-25-29-33-38-30-30q-61-59-116-73-109-29-205.5 27T56 118q-26 80-9 207 17 128 64 198 42 61 116 85.5t150 8.5 128-63q2-2 13-11.5t16.5-15T549 512t15-19.5 10-19.5q25-73 6-217-1-9-9-14-5-11-18-11-31 0-74-1 3-2 5-4l1-1q7 0 12-5zM228 416q43 41 82 47 48 7 90-35 6-6 5-15 3-4 4-9 1-7-3.5-13t-12.5-7q-85-10-157-6-7 0-12 6t-5 13q0 5 3 9 1 6 6 10zm235-35q-8 12-22 35.5T416.5 454 394 477q-41 32-102 29-63-3-103-67-8-36-11-83 112-3 297 14-7 4-12 11z"/><glyph glyph-name="f" unicode="f" horiz-adv-x="573" d="M341 537q-5-4-13-15-26-35-40-112 7-1 22.5-2t24.5-2q7-1 12-6.5t4-13.5q0-2-1-3 1-2 1-4 7-71 7-161 0-7-5.5-12.5T340 200h-2q-4-2-9-2t-57-1q1-20 10-110 7-81 1-129-1-7-6-11-3-12-15-13-19-2-88-3-52 0-82-7-7-2-13.5 1.5T71-63q-1 3-1 7-2 3-3 8-5 47-3 127 1 77 1 101-4-1-4.5-1t-1.5-1l-14-8q-7-3-14-1t-11 8q-3 6-2 13-5 30-8 89-2 55-6 81-6 4-7 11-1 8 3.5 14t11.5 7l25 2 21 3q1 10 6 22 8 22 9 26 2 7 9.5 35.5T93 519l11 36q8 26 13 37l14 36q10 23 18 36l22 30q13 19 26 31.5t30 26 36 24.5q39 21 86.5 26t89.5-10q118-43 141-174 16-95-19-227-2-10-12-12-6-5-14-4-22 4-45.5 4.5t-58-.5-48.5-1q-8 0-13 6-4 3-5 8-2 8-6 50-3 42-8 64-3 16-6 25-2 4-4 6zM115 292v1q-28-1-60-1-5 0-9 2v-13q5 2 10 3zm-8-60q-21-2-43-6-7-1-14 2 0-7 1-14 1 0 19 3 5 5 11 5 7 0 13-5t6-12q1-18 1-39 2 33 6 66zm196 405q52 27 95-2 34-23 61-93-3 24-6 38-7 42-23 61-35 42-88 20-20-9-39-24zm-52-230q16 93 47 137 15 19 28 26 19 10 35-1 10-8 17-25 5-12 9-31 4-24 8-68 2-26 3-31 103 2 132-2 28 117 14 199-19 111-117 147-34 12-74 8t-72-22q-26-14-47-32t-37-42.5-27-44.5-22-53-17-52.5-16-57.5q-5-18-8-27-1-4-9-28-5-13-6-24 1-15-13-18-14-4-39-6l2-12q6 3 13 3 38 0 70 2 29 144 84 258 16 33 45.5 61.5T320 714q26 11 52 12.5t53.5-10.5 48.5-37q26-31 36-89 3-15 7-43 3-27 5-38 2-12-5-22t-19-12-22 5-12 19q0 5-1 10-5-11-16-16-11-4-22 .5T409 509l-6 15q-4 10-5.5 14.5t-5 12T387 562l-6 10q-4 5-7.5 8.5T366 587q-22 15-57-17-36-32-52-71-28-69-39-138 23 3 45 7 12 3 22-4t12.5-18.5T293 324t-18-12q-32-7-63-11 30 2 58 3 12 0 21-8t9-20-8-21-20-9q-30-1-61-3 2-61 18-187 1-12-6-21.5t-19-11-21.5 5.5T171 48q-9 73-12 110-5-76-3-153 0-12-8-21t-20-9q-21-1-28 18l2-31q28 5 71 5 63 1 75 2 5 41-2 114-9 95-10 119-5 6-5 13t5.5 12.5T249 233q13 0 37.5.5t35.5.5q-1 75-7 137-36 3-45 4-7 1-11.5 6.5T254 394q-4 6-3 13z"/><glyph glyph-name="g" unicode="g" horiz-adv-x="593" d="M171 261q-19 17-44 52-18 24-28 53 9-56 45-87 10-9 27-18zm207 214q-32 2-47-2-9-3-27-15t-29-26q-11-12-11-19 1-4 14-8 18-6 51-3 2 0 30 2 12 1 21 2 1 48-2 69zm27-523q-28-18-69-21 45-4 69 21zm-63 624q-65 16-103 1-44-17-69-59t-24-90q9 22 24 43 25 33 60.5 59.5T299 567q21 8 43 9zM42 206q25 0 76 5 43 5 65 6-42 16-63 34-60 53-60 161 0 124 85.5 201T355 687q27-1 40-2t34.5-8 37.5-22h2q58 0 97-7 8-2 12-8 2-3 3-7 5-1 9-5t5-9 5-9q17-111 10-295.5T575 22q-8-34-33.5-74.5T488-115q-80-60-187.5-52T117-96Q67-53 36.5 26.5T14 171q1 10 10 14v3q0 7 5.5 12.5T42 206zm187-11q1-9 5-29l5-31q6-35 16-50 9-15 39-21 23-5 39 5 14 10 24 33 13 32 17 87-82-9-149 13 3-3 4-7zm184 294q3-23 3-101 0-7-5.5-12.5T398 370q-2 0-4 1-3-1-5-1-10 0-27-2-28-2-31-2-40-3-65 5-36 12-38 40-1 21 19 45 15 17 37 32t37 19q20 6 67 4 9 0 14-9 9-4 11-13zm142 85q0-170-15-325-24-231-75-315-19-31-49.5-46.5t-61.5-15-63 7.5q-45 12-87 38t-65 57Q109 15 95 87q-3 12 4 22t18.5 12.5T139 117t12-18q12-60 34-88 6-8 15-17 10 8 22 6 67-11 89-12 48-1 71 18 21 16 35 85 10 54 16 143-20-4-42-7 6-2 11-6 10-6 9-17-4-74-21-116-14-33-37-49-28-19-67-11-44 10-61 37-14 22-22 63-2 10-5 28-2 19-3 25-25 0-74-5-50-5-71-6v-3q-7-56 20-127.5T141-68q66-56 161.5-63T466-87q22 18 44.5 53.5T541 30q26 106 33 286.5T564 604q-3 4-4 8-36 7-91 7-4 0-7 1-9-1-16 5-16 17-35 21t-56 5q-44 1-83-10 53 3 105-14 30-10 80-44 4 9 13 14t19 2q8-2 14-7 9 11 23 11 12 0 20.5-8.5T555 574zm-114-79q-74 34-124 18-23-8-52-29.5T217 436q-41-56-8-93 31-35 106-30 45 3 123 24 4 121 6 156-2 1-3 2z"/><glyph glyph-name="h" unicode="h" horiz-adv-x="622" d="M256 732q4-6 4-12 5-93 4-151 96 48 197 19 122-35 155-188 6-29 9-65.5t3.5-61.5 1-65 .5-54q3-135 3-202 0-7-4-12-4-13-17-14-38-3-103-4-68-1-99-4-9-1-15 4.5T388-64q-1 15 12 20 0 23 2.5 81t2.5 89q2 118-10 164-13 47-44 50-30 3-56-40-28-47-22-159l3-45q2-31 3-50t1-43.5-2-43.5q-1-5-5-10 2-4 2-8 0-8-6-14t-14-6q-135 0-195-8-9-1-15.5 4T37-70q0 5 1 9-1 1-1 3-5 63-6.5 138.5T31 210l4 142q2 85 3 130 1 42-1 118-2 77-2 107 0 8 5 13v1q0 8 6 14t14 6 88 3q55 1 92-2 10-1 16-10zM144 392l-2 4v-42q1 25 2 38zm2 33q1 16 1 30 1 28-1 64-2-52-3-100 1 3 3 6zm393-122q-8 27-19 50-29 59-68.5 90T368 479q-87 9-165-77-1-19-3-49 47 57 105.5 83T416 447q59-17 95-83 17-30 28-61zm29-247q-1-53-1-68 0-17-15-25 23 0 41 2 0 39-1 86-4-1-8-1-9 0-16 6zM238-35l3 52q0 10-3.5 58.5T233 139q-6 123 28 181 18 30 42.5 46t51.5 14q28-3 48.5-24t29.5-56q15-51 12-175 0-31-2.5-87T440-40q22 1 69 2h16q-16 8-16 26t.5 63 .5 63.5-2.5 54.5-7.5 58.5-15 52-24 56.5q-25 45-61 56-32 9-71-8.5t-73.5-55T206 250q-3-10-12-15-3-113 14-193 3-11-3.5-21.5t-18-13-22 4T152 30l-6 28q1-31 5-57 1-12-6-21.5t-19-11-21.5 5.5T93-7q-5 42-6 121-1 104-1 117-7 193 12 462 0 5 2 9-14-1-25-1 0-27 2-103 2-74 1-116-1-53-3-130l-4-138q-2-52-1-125t6-134q56 6 162 6v4zm-44 705q1-25 7-106 4-54 4-81 81 63 169 53 61-6 112.5-46.5T572 379q6-12 11-24-3 19-7 36-27 130-127 159-95 27-189-29-4-2-8-3-5-2-10-2-8 0-13.5 6.5T223 537q3 65-2 166-28 2-68 1 2-4 2-8 5 2 9 2 12 0 21-8t9-20z"/><glyph glyph-name="i" unicode="i" horiz-adv-x="259" d="M117-21q-10 8-11 20-12 139-28 388V-21h39zm48 752q-51-1-82 6 0-14 1-35 5 19 25 21 44 5 56 8zm55-15v16h-13q9-6 13-16zm-1-20q-6-14-21-17l-20-5q-11-2-12-2.5t-7.5-1.5-8-1-12.5-1q-10-2-23-3-22-2-30 19 1-19 1-31 98 0 132 3 0 19 1 40zm43-156q5-27 5.5-59.5t0-70.5-.5-57q6-254-8-399-1-8-7.5-13.5T237-64q-5 1-9 3H64q-3-1-6-1t-6 1H42q-8 0-14 6t-6 14q0 16 16 20v565q0 15 14 19 6 9 16 9 67 3 172 3 8 0 14-6t6-14q0-4-1-7 2-3 3-8zM82 778q14-4 32.5-6t32.5-1.5 37.5 1 36.5.5q8 0 13-5 4 1 8 1 8 0 13.5-6.5T261 747q-3-53-3-94 5-4 6-11 1-8-4-15t-13-8h-4q-2-1-5-1-38-5-164-5-12 0-18 10-10 6-10 18 0 17-1.5 52T43 745q0 14 14 19v1q2 8 9.5 12t15.5 1zm115-279q-24-248 10-473 1-12-6-21.5T182-7q-10-1-18 4-2-11-11-18h68q12 136 6 374-1 22 0 59t.5 66-5.5 56v1q-85 0-144-3v-34q8 10 21 11 12 1 21-7t10-20l3-51 6 74q1 12 10.5 19.5T171 531t19.5-10.5T197 499z"/><glyph glyph-name="j" unicode="j" horiz-adv-x="449" d="M411 717q-8-16-26-16-1 0-46.5 1t-46.5-1q-8 0-14 3v-17q85 0 131 6 0 9 2 24zM238 604q-2 3-3 7-2 8 2 15t12 9q75 19 185-3 7-2 12-8t4-14q5-5 5-13 0-19 2.5-145.5T460 243q0-120-6-201-7-100-24-132-24-47-70-74t-101-33q-55-5-106.5 11.5T65-132Q29-93 3 9q-22 88-22 151 0 17 16 20 5 4 11 5 10 1 36 5.5t39.5 6.5 41 4 40.5-1q10-2 15-10 9-5 10-16 1-5 1.5-10t.5-8v-3q5-5 6-11 0-3 2-20.5t5-33.5 7-30q6-23 14-31 2-2 3-2 0 3 1 7 3 14 5 38 5 46 5 66v415q0 33-2 53zm115-34q7 6 16 8 12 1 21.5-6t11.5-19l16-107q-3 131-3 149-35 6-66 8 6-9 5-19-1-7-1-14zm9-437q10 50 12 104 2 44-2 91-4 50-8 80l-13 91q0-49 3-121 7-168 7-210 0-9 1-35zM107-30Q97-13 87 11l-4 11-5 12q-2 7-3 11-7 18-12 28.5t-1 22T76.5 112t22 1T115 99l14-34q2-4 4-10.5t4-12 4-9.5q13-34 28-50 44-47 78-29 38 20 53 87 3 17 4 36t0 49-1 42q0 41-7 208-6 135 0 212 1 8 5 15-12-1-22-3 1-18 1-47V136q0-22-5-70l-5-42q-2-10-4-16l-4-8q-4-7-10-10-32-16-55 10-15 15-24 47-7 26-12 69-1 1-1 3-7 25-9 42-8 2-30.5 0T88 158l-33-6q-24-4-34-6 3-56 21-127 23-92 53-123 28-30 71-43.5t89-9.5q46 5 83.5 27T394-72q13 26 20 116 2 33 4 73-20-97-59-159-44-69-108-83-72-16-157 42-10 7-12.5 18.5T86-43q8 11 21 13zm340 793q0-15-3-44-2-19-3-27 5-4 6-11 1-6-3-11.5t-11-6.5l-7-1q-52-7-156-7-4-2-8-2-7 0-11.5 4.5T246 669q0 56-5 92-4 4-5 10-1 7 3 12t11 6q28 4 56 5 30 0 71.5-1t54.5-1q7 0 11.5-4.5T448 776q0-4-1-7v-6zm-159-4h97q22 0 28-21 1 12 1 22-114 1-140-1l1-4q6 4 13 4z"/><glyph glyph-name="k" unicode="k" horiz-adv-x="616" d="M185 165q1-70 5-128 1-11-6.5-20T165 6l2-24q1-12-7-21t-20-10-21 7-10 20Q82 357 82 697q0 10 6 18-7 1-13 2 5-52 4-130-2-118-2-138 8-357 0-523 16-3 36-3.5t32.5-.5 39 1 35.5 2q0 23-2.5 72.5T215 72q0 10 7 16 1 0 1 1 6 6 14.5 6t14.5-5Q340 6 500-97q11 12 22 28-15-6-27 4Q356 47 185 165zM68 758q31-5 84-7 65-4 88-6 8-1 13-7t5-14q5-5 5-13 0-35-2.5-131.5T260 430q58 48 141 94 13 7 23-2 8 0 13-5 54-47 113-138 4-7 2.5-15t-8.5-13q-6-4-14-3-114-73-160-115 42-32 121.5-97.5T611 40q3-1 5-2 4-3 7-7 9-13 0-25-3-4-8-6-2-4-17-28l-21-32-18-26q-12-18-23-31t-23-25q-6-6-14-6t-14 6q-5 4-6 11Q338-40 256 32q4-107 4-111v-1q7-6 7-15 0-8-6-14t-14-6q-13 0-58.5-2t-79-.5T48-110q-9 2-13 9t-3 15q2 5 5 9v2q8 166 0 524 0 20 2 139 1 82-5 135-2 14 12 20 2 7 8 11.5t14 3.5zm105-82q-1-31 7-89 10-73 10-99 1-49-3-211l16 15q47 44 65 58l57 40q39 28 59 44 10 7 21.5 5.5t19-11 6-21T420 388l-23-17q14-3 20-16 4-11 0-22.5T402 316q-42-18-106-69l-17-13q41-29 109-84 91-74 126-97 9-7 11.5-19T521 12q-6-8-16-11l26-20q11-9 11-22l36 56-116 93q-81 67-127 101-7 6-8 15-11 14 2 27 53 49 173 127-47 69-89 107-93-52-153-109-11-10-24-2-14 3-15 18-4 17-1 157t3 157q-17 2-73 5h-14q2-2 3-5h6q12 0 20-9t8-21z"/><glyph glyph-name="l" unicode="l" horiz-adv-x="235" d="M102 74q-10 3-16 11.5T81 105q11 102 6 299-5 218 0 306 0 5 2 9-13-1-22-3 0-119-4.5-356.5T58 3q23-1 53 0-10 9-10 22 0 24 1 49zm42 643q4 2 9 3h-11q1-2 2-3zm-96 35q26 10 91 8 45-1 90-7 8-1 13-7.5t4-15.5-9-14q0-25 3-88 3-60 2-98-1-44-3.5-133T235 255t-1-128.5T237-13q0-8-5.5-14.5T218-34h-2q-3-1-6-1-13 0-27.5-.5t-32-1T123-37q-53-1-89 2-8 1-13.5 7.5T16-13q0 3 2 7 0 122 4.5 367.5T27 730q0 8 5 13.5t12 6.5zm138-60q1-26 3.5-74.5T192 559q4-80 0-136-3-36-20-201-13-126-13-197 0-13-9-21 31 1 46 1-2 61-2 134t1 125.5 3.5 137.5 3.5 128q1 36-2 96-3 64-3 90-16 2-32 3 20-6 21-27z"/><glyph glyph-name="m" unicode="m" horiz-adv-x="809" d="M371 429q-10 19-22 31-28 28-77 19-39-6-62-18t-41-38v-4q48 36 103 40 58 4 99-30zm46 37q59 46 142 68 79 21 133-13 47-29 68-95 16-47 18-110 1 13 1 20 2 48 0 77-7 83-55 127-50 45-106 45-50 0-87.5-15T456 520q-12-10-25-2-10 0-16 8-45 59-93 61-45 2-107-46-6-5-14.5-4t-13.5 8q-10 6-11 17v6h-70q6-7 7-16l4-53q2 19 4 36 2 12 11.5 19.5t21 6 19-11T179 529l-2-21q32 20 85 29 79 13 128-36 15-15 27-35zm38-141q3-30 3.5-60.5t0-71.5-.5-43q0-12-8.5-20.5T429 121t-20.5 8.5T400 150v19q-20 4-23 24-1 12-5 80-2 44-10 68-23 65-86 60-29-2-58.5-19T170 338l-5-5-1-18-9-217q-1-12-10-20t-21-7q-10 1-17 7-8-5-17-5-12 0-20.5 8.5T61 102q0 40 1 115t2 109q0 121-9 220-1 11 5 20-3-1-6-1-2-18-1-51 2-42 1-60-1-37-5.5-125.5T42 175 40 49q94-5 150-5 4 31-5 107-10 83 2 129 4 18 20.5 44.5T243 368q27 25 51 23 32-4 42-48 9-35 9.5-74.5t-3-93T338 105q89 0 137-4 1 20 0 58-1 63-1 84 5 109 64 155l6 4q-27-9-50.5-28.5T458 330q-1-3-3-5zm257 59q-3 11-7 24-15 46-44 64-33 21-88 6-79-21-133-68l1-6q44 44 102 58 47 12 90.5-3.5T704 398zm38-217q0-11-1.5-41T746 79q0-12-9-20t-21-8-20 9-8 21l4 64q2 45 1.5 63t-3 50.5-11.5 58-25 51.5q-18 31-49 39 9-9 15-28 4-16 7-42 5-44 6-116 1-84-4-188 24-1 70-6 43-4 64-5 4 17 7 36.5t4 33.5 2 39 1 35-.5 40-.5 36q-2-27-6-53-3-17-20-22zM34 603q18 2 41 3.5t37 1.5h78q7 0 13-5 9-3 11-13 59 39 110 37 62-3 115-67 40 34 82.5 49.5T618 625q72 0 132-55 61-55 68-154 3-31 1-82-3-77-3-79 0-11 .5-45t0-52.5-1.5-47-4.5-52.5-9.5-47V9q1-3 1-7 0-8-6-14t-14-6q-30 0-87 6-56 5-83 5-8 0-14 6t-6 14q-3 6-3 12 5 108 4 195-1 71-5 112-3 23-7 36-1 4-2 7-1-1-3-1-7-3-14-8-44-34-48-125 0-20 1-81 1-52-2-78-2-13-15-16-7-7-16-6-49 5-165 5-8 0-14 6t-6 14q0 3 1 7v2q0 29 4 79t4 88.5-8 71.5q-4 15-9 18-6 0-19-12-15-14-28.5-35.5T225 270q-9-39-1-114 11-88 5-127-1-4-3-8-1-7-6.5-12T206 4Q142 4 9 10q-8 0-13.5 6.5T-10 31q1 11 10 16 0 62 2 127t6.5 155T14 456q1 16-1 57-1 38 1 61 0 4 3 9 0 7 5 13t12 7z"/><glyph glyph-name="n" unicode="n" horiz-adv-x="590" d="M277 550q74 18 148-21t108-113q20-42 28-90 1 55-7 97-14 69-54 105-47 41-131 39-58-1-92-17zm-72-37q12 10 25 18-12 3-14 14l-2 6h-33q-17 0-32.5-1t-31-3.5T89 539l-1-19q8 10 21 11 12 1 21-7t10-20q2-26 3-54l4 71q1 12 10 20t21 7 20-10 7-21v-4zm227-56q-47 39-104.5 39.5T226 454q39 22 85 27 69 8 121-24zm51-372q-12-13-28-9-12 2-18.5 12t-3.5 22q20 91 22 144 4 84-25 126-17 25-47 36t-66 7q-35-4-64.5-21T208 360q-4-7-11-11-3-130 1-271 0-12-8-21t-20-9q-10 0-18 6-7-19-26-20-12-1-21 7T95 61q-5 74-7 221-2 140-3 170-1-10-3-52.5T79 343t-2.5-52-2-56.5-1.5-52-1-56.5.5-51.5T74 21q20 1 74 2 49 0 78 4-1 10-2.5 37.5T221 107q-4 78-1 131 6 77 30 118 33 57 97 48 23-4 36-28 9-17 14-46 7-45 2-123-5-77-23-190 68 2 128-3 0 10 2 22-4 0-7 1-12 4-17.5 14.5T479 73zM66 573q10 5 21 8t23.5 5 21 3 23.5 1.5 21 .5h42q3 0 6-1h1q16 4 23-10 45 25 121 27 99 2 157-49 51-45 67-127 23-114-19-307-4-15-10-34-1-4-5-15t-6-17q-11-34-9-56V0q3-6 2-11-1-9-7.5-14T524-29q-75 9-163 5-14-1-19 12-9 8-8 19 20 133 25 203 5 74-2 114-3 22-9 33-4 7-7 7-37 6-56-28-20-33-25-101-3-50 1-126l5-95q0-16-15-19-5-6-12-7-34-5-91-5-63-1-86-3-15-1-20 12-7 6-7 14-4 43-2.5 133T36 276t7 138l6 133q0 7 6 13 2 10 11 13z"/><glyph glyph-name="o" unicode="o" horiz-adv-x="663" d="M357 464q-35-9-58-36t-31-63q-9-43 4.5-75.5T317 249q52-11 85 17 32 26 38 74 6 45-16 81t-67 43zm50 26q42-21 60.5-65t12.5-91q-9-62-52-98-49-42-119-25-52 12-72 60t-8 102q10 44 38.5 79t71.5 49q6 5 14 4h1q16 3 33 3 8 0 13.5-5t6.5-13zM248 680q4 5 10 8 154 62 277-22 53-36 90-94 38-58 56-127 14-54 16-110t-11.5-110-40-99.5-72.5-80T467-3q-68-17-168-4Q190 8 139 45q-75 55-99.5 154.5T38 406q21 96 76 171.5T248 680zm136-149q-43 1-69-2t-50-16q-45-25-70.5-77T171 324q1-59 30-102.5t81-55.5q44-10 89 7.5t79 55 45.5 82.5-3.5 90q-7 17-16.5 31.5T461 453t-25 25.5-27 25.5q-6 7-14 16zm-10-418q71-3 109 22 34 23 56 68 23 44 30 103 7 56-2 108-8 54-29 89-23 38-61.5 62T392 596q10-5 19-12 5-4 40-38 6-7 20-21l22-21q8-8 19-21.5t19-28.5 15-33q21-65 6-124t-59-107q-51-57-119-77zm-34 511q-95-18-156-91t-69-164q8 62 39.5 114.5T237 563q36 20 81 25 3 9 10.5 15t17.5 6q-5 7-6 15zm149 1q64-33 99-92 27-45 37-108 9-62 1-127-8-68-36-124t-75-87q-58-38-162-31-113 8-184.5 61T70 251q16-118 93-174 42-31 142-44 91-12 152 2 51 13 90.5 42.5t63.5 69 36 87.5 10.5 99T642 434q-16 64-49.5 116T512 633q-5 4-11 7-3-10-12-15z"/><glyph glyph-name="p" unicode="p" horiz-adv-x="602" d="M269 283q49 0 75 11 17 7 23 17 8 12 4 31-1 10-10 21.5T343 379q-14 7-41 3l-27-6-11-2q0-3 2-50 1-26 3-41zm130 278l1-1q36-13 68.5-48.5T518 439q27-57 27.5-108.5T525 240q-20-38-59-68-73-56-195-80 66-7 128 13t105 60.5 62 98.5 0 127q-27 95-93 138-33 22-74 32zm-242 30q2 0 31.5 4.5t34.5 5 32.5 4 36 3 33.5.5 36.5-1 33-5 36-8.5T463 580q17-7 32-17 79-52 109-162 23-81 1.5-147.5t-70.5-113T418 70 278 51q2-10 6.5-35t6.5-38 5-39 0-39q-1-13-14-17-4-8-13-10-94-21-182-21-8 0-14 6t-6 14q-2 4-3 8Q46 6 45 220q-1 250-8 336 0 4 1 7-2 3-3 5-3 8 .5 15.5T47 594q3 1 14.5 5.5t21.5 8 19 5.5q19 3 34-3 13-6 21-19zm55-53q28 11 46 17 33 10 60 13-41 0-107-9 2-6 2-12zm1-455q4-39 11-76 2-12-5-22t-19-12h-10q3-22 8-41 3-10-2-19.5T182-101q38 4 75 13 0 20-2.5 42.5T246 7t-9 47q0 4 1 8-5 7-4 15 1 5 4 10zm-60 432l2 36q-3 0-6 1h-6q1-3 1-7l3-32zm138-359q88 22 139 62 73 56 55 143-3-43-23-76-49-82-171-129zm-49 255q8 1 25 5 19 4 29 5 39 6 65-6 18-9 32-28t18-39q3-19-1-36l2 3q17 33 15 68t-24.5 64-56.5 34q-29 5-68.5-9.5T206 433q-6-140-1-245 99 28 153 69-34-14-93-14-4-4-9-5-9-1-15.5 3.5T232 254q-4 25-5.5 69t-4.5 63q-2 14 10 21 5 3 10 4zM77 560q7-87 8-340 1-207 18-328 30 1 62 4-18 4-23 22-7 24-10 50t-5 65-3 47L86 541q-1 11 7 20.5t20 10.5q5 0 10-1-2 1-3 2-4 2-12 0-9-1-31-11v-2z"/><glyph glyph-name="q" unicode="q" horiz-adv-x="549" d="M316 295q-7 47-9 90-25 3-40-8t-20-29q-5-20 4.5-36t32.5-18q20-2 26-1 3 0 6 2zm30 107q2-47 9-99 12-13 0-27-18-18-37-22-12-3-38 0-43 5-62 36.5t-9 67.5q9 37 42 56.5t80 6.5q14-4 15-18v-1zm108-294q9-127 36-213 3-13-3-24 24 3 43 5 0 40-1 83-1 0-2-1-12-3-22.5 2.5T490-23q-20 64-36 131zm-60 29q-86-36-146-26-65 12-108 49.5T76 251q17-66 39-92 32-38 104-51 44-8 129-8 10 0 16-7 6-6 7-14 2-25 3-71.5t4.5-81T392-137q14 1 48 4-4 5-6 10-30 100-40 260zm-26 338q-76 12-123-24.5T193 361q-5-54 34-86 47-39 141-24 11 1 20-4v3q-1 19-13 145-5 46-7 80zm-157 22q-11-4-21-10-53-32-68-104-10-47 1-92 12-45 47-79t88-43q44-8 120 24-120-19-188 37-31 25-44.5 61T135 366q8 82 76 131zm340-659q-35-4-100-9.5t-79-7.5q-8-1-14.5 4.5T350-161q-1 7 4 14-10 29-14 62T334.5-.5 332 60q-73 0-120 9-86 16-127 64-29 34-48 112-21 80-10 159 12 78 54 133 43 57 109 77 66 19 156-5 5 13 19 13 86 0 146 3 7 0 13-4 12-4 14-16 5-38 6-99 1-81 2-95 24-384 24-546 0-5-2-9-2-16-17-18zm-72 679q-27-185 47-454-4 90-20 346-1 21-2 97-1 48-4 78-54-2-127-2-1-1-1-2-3-8-10-12t-15-1q-55 19-100 16t-78-21-56-49q-30-40-42-96 24 81 89 120 86 51 202 5l4-2v4q0 12 8.5 20.5T395 573t20.5-8.5T424 544v-10q9 19 30 16 12-2 19-11.5t6-21.5z"/><glyph glyph-name="r" unicode="r" horiz-adv-x="522" d="M195 419l-2-4q-1-4-4-7 6-47 7-71 1-21 3-66.5t4-79.5 7-66q1-12-6-21.5T185 92q-8-1-15 2l1-24q1-12-7.5-20.5T143 40t-20.5 7.5T113 68Q96 421 88 519q-1 12 7 21t20 10q10 1 18.5-5t11.5-15q4 1 8 1 12 0 20.5-8.5T182 502v-12q30 24 71 36 79 24 142-3 7-3 17-11l15-12 24-21q9-8 10-20t-7-21q-14-16-34-7l1-2q5-10 1.5-21.5t-14-17-22-2T369 403q-25 50-81 47-44-2-93-31zM66 540q0-11 8-88 3-29 3-77-1-58 0-74 1-35 14-287 71 2 154 14 2 20-3 71-8 81-10 98-3 60 3 97 10 52 40 74 29 21 58 9 16-6 33-24 15 4 61 19 41 14 67 20-9 48-33.5 86.5T401 538q-81 50-172-9-7-4-15-2.5t-13 8.5q-2 3-2 6-4 3-5 8l-3 10q-69-1-125-17v-2zm-35 33q70 26 164 26 5 0 9-2 16 2 21-14l3-8q102 54 194-2 45-28 75-77t38-108q1-10-5-17-3-13-16-16-28-5-75-21-55-18-77-23-8-2-15 2t-9 11q-12 13-20 16-8 4-19-4-18-13-24-49-6-33-3-87 1-17 9-97 6-58 4-81-1-15-16-18-3-14-17-16Q152-26 68-26q-8 0-14 6T48-6q0 6 3 10-13 270-14 295-1 18 0 76 0 45-3 73-8 75-8 90-5 3-7 9-3 8 .5 15.5T31 573z"/><glyph glyph-name="s" unicode="s" horiz-adv-x="565" d="M24 243q2 5 6 7 30 20 76 33 3 1 29.5 8t41.5 12q-60 32-88 74-39 59-33 149 5 64 43.5 113t97.5 75q54 25 119.5 23T434 702q68-43 118-142l3-3q5-6 4-13t-6-11q-11-9-62-54l-34-30-11-9-3-3-1-1q-1-1-1.5-1t-.5-1l-6-2q-11-2-26 6-10 5-23 16-7 5-23.5 19T335 494q-28 22-45 27-14 4-22-8-4-7 7-18 13-15 47-33 23-11 63-28 39-16 46-20 110-64 137-165 28-105-48-210-14-19-38.5-33t-42-19T396-24q-120-25-198 3-86 32-146 135l-20 35q-6 11-13.5 34.5T11 227q0 13 13 16zm250 363q-25-11-36-40-3-9-6-28-2-19-1-25 1-3 2-5 0 12 7 23 20 33 59 23 23-7 57-33l26-21 24-20q11-8 18-12 1-1 2-1l9 8 34 30 50 44-13 25q-2-5-6-10-7-9-19-10t-22 7q-2 2-5 4-3-6-7-10-9-8-21-7.5t-20 8.5q-21 23-57 36.5T274 606zm156-258q47-20 75-44-32 47-90 80-6 3-43 19-41 17-65 29l-27 15q18-14 91-59 37-23 59-40zM317 27q-67 0-125.5 20.5T108 108q-19 28-20 76 0 13 1 35t1 24q-23-9-42-21-1-1-3-2 2-30 37-90 53-92 127-119 69-25 179-1 81 17 104 49 12 16 21 33-21-21-53-36-10-6-20-11-60-28-123-18zm83 271q-20 8-47 17-10 3-34 11l-38 12q-14 5-34 12.5T212 365q-81 38-106 97-18 44-13 82-2-10-3-20-6-79 27-128 25-36 80-65l50-24q33-16 49-25 57-32 73-77 15-41-15-62-24-17-63-7-37 11-69 44.5T177 268q-12-4-31-9 2-5 2-11v-18q18 1 27-15 49-88 121-122 11-6 26-8 10 0 21 1 51 3 88 20 45 30 39 76-8 66-70 116zM183 585q-15-10-24-23-19-30 1-78 13-31 54-55-29 32-39 70-4 16 0 47 3 24 8 39zm81 79q33 11 75 7 71-8 134-49-25 31-57 52-44 28-100.5 29.5T211 683q-68-31-100-89 30 47 99 63 26 6 54 7zm-55-381q10-49 36-77.5t55-36.5q23-6 35 2 8 6 2 22-12 34-58 60-15 9-46 23l-27 12q2-2 3-5z"/><glyph glyph-name="t" unicode="t" horiz-adv-x="417" d="M345 691q1-3 1-6 0-49-5-185h65q8 0 14-6t6-14q0-3-1-6 1-2 1-5 0-151 1-171 0-8-5.5-14.5T408 277h-64q3-41 1-125-2-82 2-123 8-6 8-16 0-8-6-14t-14-6q-15 0-59.5-1T198-8.5 136-4q-8 1-13 8t-4 15l2 6q-2 4-2 8v246q-28 1-52 5-10 2-14 12-5 5-6 12-7 78-7 158 0 8 6 14t14 6h2q4 5 11 6 9 1 26 4l23 4q0 28-2.5 90t-2.5 95q0 12 10 18 6 10 18 10 18 0 91-2 61-2 88 0 8 0 14.5-5.5T345 692v-1zm-124-94q2 28 4 53 2 13 13 21h-3q-3 0-29 1 1-2 1-4 8-33 14-71zm-46-171q-2 120-17 195 4-116 4-136 0-10-7-16-5-6-13-7-11-1-32-4.5T80 452q0-21 1-43 8 9 19 10 41 4 75 7zm108 218q-9-88-5-206l69 10q12 1 21.5-6t11.5-19q3-20-16-30 1-1 2-3 4-11-.5-22T350 352q-33-13-67-19 8-157 8-225 0-12-8.5-20.5T262 79q-5 0-10 2 0-12-7.5-20.5T225 51t-21 7-10 20q-2 24-8.5 91.5T178 274q-1 23-1 52-13 0-39.5 1.5T97 329q-6 0-12 3l1-10q21-3 48-3h5q8 0 14-6t6-14V34q33-4 147-1-2 41-1 119 1 101-2 136-2 4-2 9 0 8 6 14t14 6h65v143h-63q-10 0-16 7-7 7-7 17 6 154 6 186h-35q14-10 12-26z"/><glyph glyph-name="u" unicode="u" horiz-adv-x="556" d="M50 373q-1-31-1-61 3-178 49-240 20-28 48.5-41T222 8q57-13 98-1 2 3 5 5-5-2-10-3-46-7-84.5 7T165 61.5t-46 68T85 210q-22 71-35 163zm106-187Q212 51 305 67q19 3 47 14-42-5-90 18-67 31-106 87zM62 610q75 10 157-4 7-2 12-8t4-14q6-6 6-14 0-6-1.5-50t-2-83 1.5-96q3-81 15-121 6-21 13-28 3-3 5-2h1q1 1 3 4t4 7q7 14 14 40 12 46 23 126 5 37 22 225 1 13 14 17 5 4 11 5 88 9 176 0 8-1 13.5-7.5T558 592v-2q6-30 7.5-74.5t.5-78-4-86.5l-4-70q-2-57 1-152 4-127 4-155 0-5-2-9 7-6 6-16-1-8-7-13.5T545-69q-29 3-60.5 3t-75.5-.5-61-.5q-4 0-8 2-2-1-5-1-8 0-14 6t-6 14v10q-44-8-101 4-34 8-55 14.5T111 6 66 48Q13 120 9 312q-1 77 7 151t22 117q2 6 7 10 0 7 5 13t12 7zm442-71q-3-19-4.5-39.5t-2-39-.5-40.5v-44q0-17-1.5-74.5t-2-84 0-71T497 65q1-12-7-21t-20-10-21 7-10 20q-2 31-3 66l-1-1q-1-23-1-43v-2q4-11-1-21V11q0-12-8.5-20.5T404-18t-20.5 8.5T375 11v17q-24-9-40-14 8 0 14-6t6-14v-21q151 1 168 0v1q0 24-4 153-3 97-1 156 1 19 4 69.5t4 82 0 72.5-6 69q-72 5-142-1-12-141-21-213-11-83-24-132-9-30-18-47-12-25-30-31l1-1q54-25 92 2 0 20 1.5 57.5T381 265q5 156 1 252-1 12 7.5 20.5T410 547t20.5-7.5T440 519q0-11 1-23 2 29 7 53 2 12 12 19t21.5 4.5T500 560t4-21zm-348-21q-1-64-1-119t15.5-108.5T218 201q-1 4-3 7-13 46-16 131-2 59-1.5 95t2 82.5T201 568q-65 10-124 3 0-2-1-3-2-7-4-15 9-2 15.5-9.5T94 526q1-25 3-52 0 10 .5 27t.5 19q0 12 9 20t21 8 20-9 8-21z"/><glyph glyph-name="v" unicode="v" horiz-adv-x="633" d="M82 484l-8 24-64-33H9Q54 289 231-6q15 0 43.5 1T317-4q28 43 71 123 56 104 75 135l76 123q-63-80-104-140-3-4-52-86-34-57-67-87-6-5-13-7 4-10 .5-20.5T291 21q-11-6-22.5-3T251 31q-41 71-106 208Q72 393 44 444q-6 10-3 21.5T55 483q13 8 27 1zM332-43q-37-3-107-3-9 0-15 7-7 2-11 9Q11 282-33 476q-1 8 3 14.5t12 8.5q3 8 10 12l79 41q48 24 83 38 8 3 15.5-.5T180 578q1-3 1-6 0-1 1-1l102-250q68 165 152 274 7 8 17 8 9 12 23 7 34-13 94.5-48t62.5-36q8-4 10.5-12t-1.5-15q-1-1-1-2 3-7-1-15-13-30-32-66t-35-60l-40-64-36-58q-17-28-74-134-45-83-74-129-4-13-17-14zM129 527q25-81 84-204l55-113q33 45 80 119l111 174q7 10 19 12t22-5 12-19-5-22q-22-31-110-171-58-92-102-147l8-16q13 18 30 46 50 83 54 90 47 67 126 166 8 9 20 10.5t21-5.5q10-9 11-22 23 41 38 77-16 8-43.5 25t-49 28.5T467 570q-46-60-89.5-142.5T305 264q-3-8-10.5-11.5T279 252q-6 3-10 8-5 4-8 10L149 545l-24-11q2-3 4-7z"/><glyph glyph-name="w" unicode="w" horiz-adv-x="816" d="M222 164l-49 121 22-60q6-14 13.5-37.5T219 157zm30-76q-3 3-5 6 2-19-14-29-10-6-21.5-3T193 75q-11 19-20.5 41T153 167l-12 38-60 164 1-5q46-147 124-335l33 9q23 7 29 8-1 3-2 5zm173 383q16 13 33 3 1 0 2-1l-28 57q-21 3-48 6-1-2-2-3-57-94-98-176-4-7-12-10t-15 1q-8 4-10 13l-1 1q-2 6-18.5 50T205 474.5 189.5 527 177 587q-20-6-56.5-15T66 557q2-2 3-5 31-68 70-175-29 87-42 161-2 12 5 22t19 12 22-5 12-19q9-52 26-108 17-57 32-98l42-105q66 142 121 233 7 10 18.5 13t21.5-3q6-4 9-9zm263-23l12 24q5 11 16 15t22-1 15-16-1-22l-36-76-39-82q-13-29-31.5-72.5t-31-82.5T593 57q-2-12-12.5-18.5t-22-4-18 13T537 69v3q-15 3-20 17-45 116-63 149-2 6-19 36l-25 47-26-54q-50-105-79-155l15-41q2-6 2-12h1q6 16 16 37l20 40q22 47 26 76 1 9 7.5 14t14.5 4q12-2 16-12 7-6 8-14 2-21 18-72 14-44 17-70 80-32 141-45 20 76 61 187l71 192q5 15 16 44l16 44q5 16 10 39.5t6 43.5q-80 39-149 52l-27-83-30-100q-13-43-23-84-1-11-12-16-7-4-15-1t-11 11l-47 101q-1-7-4-12 38-69 85-180 14 39 40 103 11 25 39 109 25 70 45 112 5 10 16.5 14t22-1 14.5-16.5-1-22.5q-19-38-42-105zM427 48q-1 25-16 71l-6 20q-4-9-10-20l-20-41q-10-22-16-38-2-5-6-8-4-11-16-12-24-2-70-15l-56-16q-3-4-7-5-8-4-15.5-.5T178-6Q92 197 44 352q-2 6-29 82t-35 117q-1 8 3.5 14.5T-5 574q1 1 2 1 25 11 55 20t65.5 18 53.5 14q8 3 15.5-1t9.5-12q8 0 13.5-5t6.5-13q7-58 53-180 35 65 79 137 2 4 6 7v1q1 8 8 13t15 4q36-6 63-8 5-1 9-3 10-2 15-11l69-143q12 44 36 123l33 103q1 2 2 5 1 8 8 13t15 4q84-12 181-60 8-4 10-12 9-6 9-17 0-24-5.5-52T810 474l-17-48q-12-32-16-42-4-13-71-194Q663 73 643-3q0-2-1-4v-2q-1-8-8-13t-15-4q-66 10-169 51-4 2-7 4-15 3-16 19z"/><glyph glyph-name="x" unicode="x" horiz-adv-x="581" d="M287 333l-5 7-2-2 6-7zm36-48l-1-1 27-37zm-77 103l-14 16 13-17zm-91-237l39 56 55 77-6 7q-56-74-88-140zm-37-50q-8-1-16 2-11 5-15.5 16t-.5 22q39 92 121 199-50 69-85 124-7 11-4.5 22.5T130 504q8 5 17 5l-21 28-2 2-10-6q-46-27-66-38 10-15 33.5-55.5t40.5-66 38-46.5q5-6 5-14.5t-6-14.5q-2-1-3-2t-2-3l-9-12Q57 156 24 87l51-21q33-14 58.5-23.5T182 26q47 62 90 144 3 6 8 9 2 1 4 3 6 5 14.5 4t13.5-8q18-22 65-78 34-40 52-63 10 9 21 17.5T476 73l22 15 27 16q20 13 22 14-3 3-66 92-45 63-82 96-6 5-7 13.5t5 14.5q3 3 7 5 71 97 137 164l-2 2q-55 66-111 98-39-37-123-137-2-4-6-7-7-5-15-3.5t-13 7.5q-51 70-91 108l-5-3q15-21 33-44l41-49 35-42 107 124q7 9 19 10t21.5-6.5T442 541t-7-22L320 386l6-7 120 126q8 9 20 9t21-8 9-20-8-21Q386 360 361 331l42-59q70-99 103-139 8-9 7-21t-10.5-19.5T481 86t-19 11l-27 33 6-8q7-10 4.5-22t-12-19-21.5-4.5T393 88q-36 53-108 147l-43-62q-46-65-74-100-8-9-20-10.5T127 68q-17 14-9 33zM6 518q29 15 87 49 65 38 90 51 7 4 15 1t12-10q3-6 2-12 35-35 76-89 71 85 113 125 7 6 17 5 10 11 23 4 32-17 67-48 35-32 61-63 7-8 5-17 2-1 3-3 6-6 6-14t-6-14q-65-66-136-161 33-32 72-89 65-91 76-104 7-9 4-19-1-10-9-16-12-7-37-22l-38-25q-14-9-32.5-23T446-4q-4-4-10-5-16-9-26 5-15 20-64 78l-49 58Q257 59 214 1q-1-1-2-3l-1-1q-2-8-9-12t-15-2q-28 7-57.5 18T61 28.5 8 50Q-4 55-5 67q-1 0-1 1-8 3-11 11t1 15q17 37 42.5 80T67 240l52 72q-20 23-38.5 51.5t-39.5 65T10 481q-9 2-13 10-4 7-1 15t10 12z"/><glyph glyph-name="y" unicode="y" horiz-adv-x="561" d="M249 250q-16-1-26 12Q120 405 52 527q-6 10-3 21.5T62.5 566t22 3 17.5-14l17-29-24 50q-4 7-3 15-47-21-75-44 21-49 58.5-110t60.5-93l76-102q15-9 9-25-35-93-111-273l31-13q-10 13-4 29zm31-398q-93 13-200 62-6 2-9 8-10 10-4 22 78 187 112 275l-77 105q-24 34-64 98.5T-23 538q-4 10 1 19 0 9 7 15 23 20 49 35 27 15 64.5 31t50.5 23q10 5 20-1 13 0 18-12 14-32 53-100 27-46 40-73 12 28 38 71 51 85 61 106 1 3 4 5 7 13 22 9 74-20 157-70 11-6 10-19 4-7 3-15-7-27-17.5-54T529 443t-23-47q-2-6-22-50t-24-54l-22-49q-17-40-22-54l-21-50q-15-36-21-54l-19-51q-12-32-19-54l-16-52q-8-28-15-54 0-3-2-6-2-8-8.5-12.5T280-148zm227 695l-36-68-39-77-32-66-37-78q-26-56-33-70-11-24-37-71-25-46-35-66-9-20-30-17l-37-96q-6-14-21-17 52-19 99-27 7 27 15 55l16 51q8 23 20 54l18 52q7 19 22 54l20 49q6 15 23 53t21.5 49 23 52 22.5 49q6 14 22.5 48.5t26.5 58 15 47.5q-66 39-124 57-9-17-58-97-38-64-50-106-2-8-9.5-12.5T278 406q-11 3-14 13-6 4-8 10-13 36-50 99-39 66-50 92l-18-9q6-4 9-11 42-89 140-254 51 125 98 223 5 11 16.5 15t22-1 14.5-16.5-1-21.5l-21-46 41 76q5 11 17 14t22.5-2.5T510 569t-3-22z"/><glyph glyph-name="z" unicode="z" horiz-adv-x="604" d="M549 616q9-5 10-14t8-79q5-46 12-75 3-16-12-22l-63-70-78-84-66-66q136-2 232-15 11-2 15-12 6-6 6-14 0-12 1-54t0-71-4-56q-1-9-7.5-14T588-34q-7 1-12 5-144 13-357-1-10-1-82-10-54-7-88-5-8 0-13.5 6.5T30-24q0 2 1 5l-1 1Q12 79 12 138q0 12 10 18l3 3q13 15 49 60l56 69q19 23 50.5 57.5T240 407q-96 1-167 8-4 1-8 3-12 5-12 18 0 27 9 92 8 56 5 85-1 14 11 20 6 11 18 11 14 0 83 .5t95.5 0 80-2 96-5T534 628q11-2 15-12zM318 82q27 0 50 2 20 1 65 8t69 8q12 1 21-7t10-20-7-21-20-10q-23-1-65-7-52-7-69-9-42-3-114-1t-80 2l-8-13q-5-7-12-10 38 5 59 6 210 13 355 2 2 21 1 141-39 5-82 8 20-5 22-26 1-12-7-21t-20-10q-57-5-168-22zm158 409q-25-52-61.5-108T330 261t-69-98l-21-34q24 3 64 10 123 19 176 23-67 4-163 4-13 0-18 12-6 7-5 15t7 13q38 34 75 72l91 98 70 76q-5 27-10 67-7 67-7 70-32 5-69.5 8t-64.5 4.5-73 2-65 .5H108q1-29-6-81t-8-70q77-6 195-6 8 0 14-6t6-14q0-9-7-15-1-3-4-5-32-28-68-66.5T176 280l-65-78-56-69q-1-2-3-3Q53 78 69-5q24 0 62 5l11 1q-7 1-12 5-14 9-13 26-11-1-20 5-9 7-11.5 19T90 78l171 237q7 9 56 70 50 62 72 96-108-8-238-8-12 0-20.5 8.5T122 502q0 22 21 28-10 2-16.5 10.5T121 560q1 12 10 20t21 7q50-3 101-3.5t132.5 0 101.5.5q12 0 20.5-8.5T516 555t-8.5-20.5T487 526h-8l-1-2q2-3 2-6 0-6-1-11 1-8-3-16z"/><glyph glyph-name="braceleft" unicode="{" horiz-adv-x="441" d="M-10 272v-10q12-4 23-9-1 1-5 4l-10 7zm43 103q-18-9-48-13 0-7 1.5-19t1.5-15q5 6 13 11 9 6 10 5v1q18 20 21 27 1 1 1 3zm277 353v5h-12q6-1 12-5zm60-820q2-4 2-8 2-22-18-30 26 3 53 8-23 60-25 96-70-27-118-5-8 3-14 7 12-17 25-25 24-15 60-5 12 3 22.5-3T371-74q3-10-1-18zM106 158l-11 15q7-19 9-44 1-15 1.5-52t5-64.5T127-43q33-71 128-86 29-4 62-3-79 3-139.5 57.5T111 61q-1 19-2.5 51t-2.5 46zm239 593q1-12 2-53t3-64q0-6-3-11v-4q-1-7-6.5-12t-13.5-4q-56 6-79-11-17-13-19-45-2-17 2-74 4-53-4-78-3-10-15-27-9-12-23-28l-21-23 12-11 17-15q9-8 10-10 5-6 9-15t5.5-15 3.5-16 2-12q7-27 5-70 0-8-1-21t-1.5-24-.5-20q0-33 10.5-53.5T278 1q12-5 25-6.5T330-4t25.5 7T384 14q8 3 15-1h4q7-1 12-6.5T419-7q-2-17 2-38t8-34l15-40q6-4 7-11 2-7-2-13.5t-11-7.5q-106-26-188-14Q136-147 95-57 80-27 75 5.5t-5.5 72T68 125q-3 38-21 60-21 26-71 44-5-1-9-1-7 1-11.5 7t-3.5 14q2 29 2 38.5t-3 40.5l-3 43q-1 9 7 15 4 9 14 10 19 2 26.5 3.5t18 6T30 418q15 20 18 59 1 6 2 36 1 23 3 37 16 107 88 164.5T320 769q2 0 5-1h1q8 0 13.5-5t5.5-12zm-75-79q-20-5-34-14.5T205 628q-28-32-36.5-57.5T160 515q0-4 .5-27t.5-35-4-34-12-42q-16-40-58-75 52-32 68-91 5-14 7-33 6-9 11-19 9-18 20-50 1 7 2 22.5t1 23.5q2 37-3 60-2 5-4 13l-3 13q-1 4-3 9t-4 9l-7 6-16 15q-11 10-17 16-4 4-6 8-2 2-3 4-3 5-3 11 0 4 2 7 0 1 1 2l2 2q1 1 2 3l7 8 21 23 21 25q8 12 10 16 5 20 2 65-4 60-2 80 4 48 34 70 30 23 86 20-1 17-2 41-9-7-21-6-5 1-10 1-5-3-10-4z"/><glyph glyph-name="bar" unicode="|" horiz-adv-x="206" d="M67 669q1 8 2 17-24-3-43-9l-1-8q9 9 21 9 13 0 21-9zm48-183q-1-28-2-89t-2-93q-1-19-7.5-91.5T102 101q7-11 4-23 1-4 2.5-6.5t3-4.5 5.5-6.5 8-11.5q8-10 6-21.5t-12-19T97.5 3 79 15L59 42q-8 14-12 37-10 14-15 23 0-6-1-21-1-59 1-89 9 1 76 8 43 4 71 3 0 89-7 236l-4-41q-5-51-4-81 0-12-8-21t-20-9-21 8-9 20q-1 33 4 88 6 67 7 83 4 81-2 200zM-4-18Q-6 16-5 82t0 97q-12 372-5 510 1 10 10 15 3 5 9 6 39 11 98 16 7 7 17 8 12 1 21-6l25 1q9 0 15-7 8-6 7-16-2-22 1-62 3-52 3-67 0-98 9.5-291T215-3q10-6 8-18-1-7-7-11.5T202-36q-33 5-90 0-78-8-98-8-7 0-12.5 5.5T-4-26q0 2 1 4-1 2-1 4z"/><glyph glyph-name="braceright" unicode="}" horiz-adv-x="417" d="M358 271l1-1q10-7 14-12 4-3 7-7t4-9q1 30 5 52-58 29-82 65-21 32-20 80 0 13 3.5 50t1.5 64-13 57q-27 73-120 96-44 11-98 10 8-2 17-5 95-10 148-93 55-83 50-204 0-9-2-21 0-2-1-8.5t-2-10.5q0-5-1-9 11-12 28-26 13-11 33-25l12-8q3-2 5-4 2-1 3-3 8-7 8-19 0-5-1-9zm-77-139q-5-22-6-49 6 43 23 67 7 11 15 19-18-17-32-37zM61-107q-10 8-11 22-1 20 18 28-16-1-34 2 0-46-4-91 114-10 180 59-4-2-9-4-3-3-6-5-35-31-102-39-12-1-21 6.5T61-109v2zm152 452q-15 21-18 42-2 15-2 32-5-36-1-60 1-6 2-15l1-12q1-5 2.5-10t3.5-8l6-6 15-16q10-11 16-17 4-5 6-9 5-8 4-15l-4-9q0-1-1.5-2t-3.5-3l-7-7-23-21q-15-14-23-24-10-10-11-14-6-22-8-71-2-58-7-79-10-46-41-65-12-7-26-10 46 3 74 12 9 12 14 34 3 12 7 33 5 33 6 39 10 52 30 87l2 3q5 21 13 40 4 9 16 27l22 30 4 5q-22 17-36 31-25 25-30 47-1 5-2 11zM66 654q-14 1-28 0-10-1-18 5 4-23 3-43 73 20 119-6 33-19 48-48-14 29-49 55-33 23-75 37zm-45 54q3 4 7 6-10-1-19-2l3-13q4 6 9 9zM-8-160q6 56 6 115 0 6 4 11v4q2 7 8 11t14 3q52-11 76 3 18 11 25 41 4 19 6 74 2 53 10 79 3 12 18 28 9 11 25 26l23 21-11 11-15 15q-8 9-10 12-4 7-7 16t-4 15.5-2 16-2 11.5q-4 29 2 71 1 8 3 21t3 23.5 2 19.5q3 32-6 53.5T124 578q-15 9-33.5 10.5T58 587t-40-10q-8-3-15 2H0q-7 1-11.5 7.5T-15 600q2 11 2 23t-1 20.5-4 23.5-4.5 21.5T-29 714q-5 4-6 10-1 8 3.5 14t11.5 7q107 16 188-4 112-28 145-119 12-33 14.5-65t-1-72-3.5-46q-1-37 14-60 19-29 68-53 5 2 10 0 7-1 10.5-7.5T427 304q-3-13-4.5-29.5t-2-27 0-33.5.5-31q0-10-9-15-5-9-14-9-29-1-43.5-6.5T328 130t-17-52q-1-2-4-32-3-20-5-32-25-106-102.5-156.5T16-181q-2 0-4 1H8q-7 1-12 6.5T-8-160zm332 337q5 4 11 7 21 9 50 10v14q0 7-1 14-7-20-32-30-4-1-7-2t-4-2h-2q-1-1-2-1-7-5-13-10z"/><glyph glyph-name="asciitilde" unicode="~" horiz-adv-x="695" d="M200 342q15-4 31-11 23-10 51-28-25 22-42 30-16 7-40 9zm350-141q10 6 17 16 12 18 15 54 1 12 10.5 19.5T614 297t19.5-10.5T640 265q-2-23-7-41 17 22 33 49-27 20-116 60-34-78-100-93-48-11-101 16 48-36 68-48 7-4 15-7 55-2 84 56 5 11 16.5 14.5T555 270t14.5-16.5T568 231q-8-16-18-30zm-464-1q-2-4-3-9-4-12-14.5-17.5t-22-2-17 14T27 207q4 13 9 24 25 71 67 98-40-13-62-32-30-25-59-87l48-37 38-31q29 48 66 63t86-1q23-7 84-38 53-26 84-35 63-15 116 0-42-2-84 12-52 4-152 51-95 43-127 46-21 2-34-7-10-8-17-24l-1-3q-1-3-3-6zM66 99q-14 10-58 46-36 28-58 43-6 4-7.5 11.5T-55 213q0 4 2 8 34 73 70 104 41 35 114 48 76 15 125-8 13-6 25.5-15.5t27-22T328 311q61-48 114-36t79 83q1 3 3 6l1 1q3 6 10 8.5t14-.5l33-15 40-18q14-7 34-18t36-22q3-3 5-7h1q6-4 8-11t-1-14Q579 47 380 97q-34 9-92 37-59 29-79 36-36 12-61 2-29-12-53-56 1-7-4-14-4-6-11.5-7T66 99z"/><glyph glyph-name="quoteleft" unicode="" horiz-adv-x="284" d="M100 513q-6-3-14-2-10 2-17 9t-8 17q-13-45-11-91 34 2 37 2v7q6 31 13 58zm73 137q17 10 32-2 10-7 11.5-19t-5.5-21q-50-68-66-159h13q3 51 29.5 96.5T259 614l-16 23-18 24q-5 8-15 18.5T191 697q-18-10-34-22 3-1 6-4 10-8 10-21zm39 81q17-12 32-29t33-43.5 22-31.5q10-13-1-25 1-14-12-20-40-16-63.5-55.5T198 441q8-7 7-18-1-8-7.5-13t-15.5-4q-16 2-37 2.5t-32.5.5-40.5-2-36-2q-15-1-20 14-4 5-5 11-9 96 37 180t131 126q10 5 20-1 7 0 13-4z"/><glyph glyph-name="quoteright" unicode="" horiz-adv-x="197" d="M191 670q10-4 14.5-13t2.5-20l-4-20q22-131-57-254-5-7-13-8.5t-15 2.5q-5 3-7 9-1 1-3 1l-31 28q-21 20-35 29t-31 14q-8 2-12 9t-2 15q1 6 7 11 2 5 6 8 39 28 44 39 12 23 3 62-9 37-29 58-6 7-5 16-1 2-2 5-1 8 3.5 15t12.5 9q9 1 19 4l23 7 19 5q41 10 69 9 8 0 13.5-6.5T187 689q0-2-1-4 3-8 5-15zm-91-11l-29-8q14-19 22-44v33q0 11 7 19zm51-14l1 4q0 3 2 7-2 7-5 14-7-1-15-3 15-6 17-22z"/><glyph glyph-name="quotedblleft" unicode="" horiz-adv-x="383" d="M217 655q-10-44-14.5-65.5T192 531t-5-66.5 8-57.5q2-8-2-15t-12-9q-3-1-5-1-4-2-8-2-86-4-110-3-8 0-13.5 6.5T39 398t6 13q0 189 16 281 2 8 8.5 12.5T85 708q1 0 1-1 5 1 9 1 12-2 57-12 31-7 51-7 8 0 14-6t6-14-6-14zm-111 10l-8 2-1-6q4 3 9 4zm279-8q10-8 8-20-27-117-27-244 0-8-6-14t-14-6q-4-2-9-2-15 0-46-.5t-46-.5q-8 0-13.5 5.5T225 388q-3 5-3 11 0 47 7 139t7 136q0 8 6 14t14 6q4 0 7-1 1 0 3-1 18-5 50-11 41-7 55-11 11-2 14-13zm-88-13q-12 2-21 4-1-29-4-67l15 49q3 8 10 14zM92 504h-6q-1-31-1-88 18 1 67 3-5 33-4 70l-2-14q-2-12-11.5-19t-21.5-5.5-19 11-6 21.5zm52 136q2 0 3-1 15-2 21-16l7 28q-13 2-32 6l-8 2q8-8 9-19zm175-107q7 0 13-2 1-1 2-1 6 54 17 104-5 1-11 2 7-11 3-24-13-38-24-79zm-32-94q-10-7-23-4h-1q-1-13-1-25 9 0 31 .5t33 .5q0 17 1 35-13-18-34-10-3 1-6 3z"/><glyph glyph-name="quotedblright" unicode="" horiz-adv-x="357" d="M244 655l5 11-7-1zm-36-230q9 57 8.5 126.5T197 672q-3 8 .5 15.5T209 698q2 0 4 1 3 2 7 3 74 14 109 17 8 1 14.5-4.5T351 701t-4-14q25-169 21-280 0-8-6-13.5t-15-5.5h-3q-3-1-7-1-12 0-59 4-33 3-52 0-8-1-15 4t-8 13q-1 10 5 17zm95 4q15-2 25-2 1 45-3 98-12-48-22-96zM73 595q2 31 5 57l-10-1q3-28 5-56zM42 398q-11 7-10 20 11 123-6 245-1 9 4 15.5t13 7.5h1q4 2 8 3 17 2 47 7l44 6q8 1 14.5-4t8.5-13q3-4 4-10 3-35 10-138 7-96 12-135 1-9-4-15.5t-13-7.5h-11q-18 4-51 5-39 2-56 4-10 2-15 10zm73 42q-6-4-14-4-19 0-26 17l-2-26q11-2 41-3 1 8 1 16zm154 98q-5-6-13-9 0-25-3-57 7 33 16 66zm22 77q-3-8-4-11-2-4-4-14v-3zm6 15q5 8 16 11l-3 23q0-1-1-2z"/><glyph glyph-name="uni3000" horiz-adv-x="1000"/><glyph glyph-name="afii10023" unicode="" horiz-adv-x="646" d="M74-31Q62-24 60-9q-7 58-9 125-3-83-3-147h26zm551 716q1-31 1-119 0-8-6-14t-14-6h-8q-63 6-183 6-24 0-80.5-1.5T248 549q1-52 0-72 94 0 146-5 8-1 14-7 12-6 12-19 0-80 4-163 10-6 10-18 0-8-6-14t-14-6q-31 0-85-5-56-4-72-5 0-50-2-75 33 0 95-2t74-2q109-2 180 4 11 1 18-7 7-5 9-13 9-33 8-87-1-63 1-80 1-7-3.5-13.5T625-48q-5-6-13-7-35-3-74-5l-66-5q-29-2-76.5-3T328-69.5t-76-1-67-.5H40q-14 0-19 13Q8-53 8-39q0 60 2 125t6 151q2 73 4 125 7 247-8 397-1 8 4.5 14.5T30 781h5q6 8 16 8 31 0 101 .5t122 .5q48 0 102-2 32-1 113-8 70-5 111-5 8 0 14-6t6-14v-4q1-2 1-5 2-17 3-37 3-6 3-13 0-6-2-11zm-455 0q101 23 196 31.5t217 8.5q-1 5-1 10-37 1-96 6-80 6-112 7-53 2-100 2-51 0-121-.5T53 749q2-15 3-30 7 16 25 17 12 1 20.5-7.5T111 708q0-10 1-20 0 16 1 32 0 12 9 20t21 8 20-9 8-21q-1-17-1-33zM121 80q-1 68-4.5 194.5T112 448q-1-16-2-49t-1-49q-5-179 3-286 2 9 9 16zm339-42q14-9 14-25 0-12-8.5-20.5T445-16q-23 0-98-.5t-125 0-98 2.5q-4 0-7 1-3-12-13-18 327 0 495 15-1 18 0 49-4-1-8-1-63 4-131 6zm-344 4q-2 3-3 6v-6h3zm113 547q35 0 99.5 1.5T414 592q113 0 172-5 0 54-1 80h-29q8-9 8-20 0-12-8.5-20.5T535 618q-225 0-367-20 0-79 2-186 62 6 167 13 12 1 21-7t10-20-7-21-20-10l-49-3q15-1 28-3 12-2 19-12t5-22-12-19-22-5q-27 5-73 3-48-1-64-1 5-148 5-215 216 13 417 0h3q-1 16-3 29-69-5-172-3-21 1-58 2t-67.5 1.5-57.5.5q-8 0-14 6t-6 14v3q-6 7-5 16 2 22 2 91 0 8 6 14 5 10 16 10 22 1 86 6 42 3 59 4-4 76-4 149-48 4-143 4-4 0-7 1h-7q-8 1-13 7.5t-4 15.5q2 15 2.5 31.5t0 41-.5 34.5q0 9 6 15t15 6zm321 396v-4q0-21-.5-61.5T549 858q0-6-4-11-5-10-16-10-8 0-29.5-.5T461 836t-32 2q-8 1-12.5 7t-3.5 13q0 2 1 3-1 5-1 9 6 37 6 116-1 3-1 6 0 7 5.5 12.5t12.5 5.5q16 0 48-1.5t48-1.5q7 0 12.5-5.5T550 989v-4zm-51-13v-35q0-12-8.5-20.5T470 908q-9 0-16 5-1-6-1-11l29 2q12 1 21-7t10-20q0 14 1 44v50q-7 0-15 1zm-244 7q0-79-3-113-1-7-6.5-11.5T233 850q-4-2-8-3-75-8-126 2-7 2-11 8t-3 14l2 4v2q0 64 1 80-2 6 0 13 1 15 2 28 1 7 6.5 12t13.5 4q5-1 9-4 19 0 59.5-1t62.5-1q7 0 12.5-5.5T259 990q0-6-4-11zm-41-7l5-17v17h-5zm-71 0l6-16q3-8 3.5-9t2.5-5.5 3-6 5-9.5l10-17q7-15-1-29 21 0 45 2 1 10 1 21-5-5-12-7-11-3-21.5 2.5T170 916l-14 47q-1 5-1 10-7 1-12 1v-2z"/><glyph glyph-name="afii10017" unicode="" horiz-adv-x="738" d="M399 355q-17 45-33 108-25-70-45-110 34 0 78 2zM198 167q-21-78-35-121-4-12-15-17t-22-2q-17 6-20 24-12-13-29-8-11 3-17 13.5T57 79l13 42Q47 70 25 42q17-13 35.5-24.5T106-8l41-22q14 31 39 93 27 71 43 105v2q-16-2-31-3zm285 153q-40 113-116 287l-29-63-31-68-27-60q-14-35-27-69-8-22-15-44h34q41-1 66 1 20 1 123 13zm22-62l-2 5q-16-1-36-3-103-12-125-14-27-2-70-1h-52l-5-18 86 11q70 9 115 13.5t89 6.5zm-94 386l-6 14q-4 11 .5 22t15.5 15.5 22 0 16-15.5l12-29q-9 32-13 60-56 33-123 48-54-98-122-282l-19-49 75 164q4 8 12 26l11 26q4 8 9 21.5t8 26.5q3 12 13 18t22 3 18-13 3-22l-1-4h1q16-8 17-25 16 6 29-5zm173-318h5l-36 102-9 24q21-62 40-126zm17-56q22-77 41-158 3-12-3-22t-18-13q-3-1-5-1 2-11-4.5-21T593 43q-11-3-21.5 3.5T559 65q-15 65-36 135-29 0-60-3l4-4q38-62 101-202 20 7 65 29 44 21 61 28l-86 227q-4-3-7-5zM340 799q83-18 149-60 12-8 8-23 7-41 22-85.5T557 529t34-87q74-215 142-383 10-2 14-12 3-8-.5-15.5T735 21q-26-9-84-37-56-27-90-38-8-3-15.5 1T536-41q-1 4-1 8-61 135-92 189-27-3-56.5-4t-66.5-2-56-1q-11-24-41-100-29-74-47-112-4-7-11.5-10T149-72q-1 1-2 1-7-1-13 3-12 7-41 22T41-18Q18-4-1 12q-6 5-7 14-3 1-6 3-6 6-6 14.5t5 14.5Q-3 70 8 88.5t18 33T44 161q10 24 16 38 34 74 115 292 71 190 126 291 7 11 20 10 7 9 19 7zm56-290q23-99 46-154 2-5 2-10 2-4 2-8 0-8-5.5-14.5T427 316q-73-3-122-3-12 0-18 11-2 0-4 2-7 4-9.5 11.5T276 353q23 41 67 164 3 8 10.5 11.5t15.5.5l6-4q8 1 14-3.5t7-12.5z"/><glyph glyph-name="afii10018" unicode="" d="M421 159q9 6 17 17t8 18q1 29-14 45-14 15-44 23-32 8-120 7-2-22-5.5-67.5T257 133q39 0 61 .5t53.5 7T421 159zM131 286l-2-70q2 39 2 70zm58 0q0-39-7-176 34-19 83-25.5t99 1.5q54 10 87.5 36.5T491 190q2 12 1 29.5t-4 24.5q-22 47-136 81-40 11-101 24l-62 12v-75zm351-18q8-16 10-44.5t-1-41.5q-10-65-58.5-103T375 29q-69-12-131-1Q344 6 422 14q135 14 165 125 17 62-12 114-30 53-107 87 53-31 72-72zM235 93q-8 0-13.5 6.5T216 114q1 30 6.5 89t6.5 88q0 8 6.5 13.5T250 310q3 0 7-1h55q10 0 27-.5t31.5-2.5 27.5-6q41-10 63-33 27-29 25-75-1-19-14.5-38T443 125q-10-6-23-11.5t-24-9-27.5-5.5-26-3.5-28-2T290 93h-55zm-55-46v-2q13-4 26-7-13 4-26 9zm74 407q31-5 46-8l42-8q26-5 49-11t44-13q140-44 190-133 41-72 18-158Q603-26 428-44 321-55 178-15q-2-10-10-16.5T150-38q-12 0-21 9-7-7-17-8-12-1-21.5 6.5T80-11q-5 59-7 116-1-78 2-140 18-1 73.5-7t80.5-8 74-5 79 .5 70 9.5 72 20q31 14 60 34 44 31 63 81t14 108q-5 57-31 108t-68 81q-29 21-64 34-36 14-82 21t-75.5 9-83.5 4q-9 1-15 1zm-32 95v16q0 9 6 15t15 6q35 0 99.5 1.5T428 589q113 0 172-5 0 54-1 80h-29q8-9 8-20 0-12-8.5-20.5T549 615q-206 0-361-19-1-64 0-149 10 16 29 13l16-3q-4 2-7 6-5 6-5 14 0 2 1 5-1 2-1 5 0 18 1 62zM79 747q-5-58-5-175 0-21 1.5-85.5T77 387q6 100 25 288 1 12 10.5 19.5T134 701q7-1 13-4 7 5 17 4 3 0 5-1 121 5 211 14 95 8 217 8-1 5-1 10-37 1-96 6-80 6-112 7-53 2-100 2H79zm184-201q-2-42-2-51 54-2 84.5-4.5T425 481t88.5-22.5T586 419q49-36 79.5-94.5T701 202q6-67-17-127.5T608-23q-33-23-70.5-39t-80-22.5T378-94t-85.5-.5T212-89t-82.5 8.5T56-73q-8 1-13.5 7.5T38-51v2q-3 4-3 10-5 26-1.5 212.5T37 387q0 35-1.5 99T34 572q0 122 6 186-2 4-2 9 0 8 6 14t14 6h230q48 0 102-2 32-1 113-8 70-5 111-5 8 0 14-6t6-14v-4q1-2 1-5 2-17 3-37 3-6 3-13 0-6-2-11 1-31 1-119 0-8-6-14t-14-6h-8q-63 6-183 6-24 0-80-1-56-2-86-2z"/><glyph glyph-name="afii10019" unicode="" horiz-adv-x="687" d="M277 216q1-7 4-52 60-16 125-14 39 1 52 11 4 2 4 6 0 7-6 19-17 30-81 33-23 2-60 0-37-3-38-3zm-4 311q5-71 5-77 32 7 52 20t21 24q0 9-15 18-22 12-63 15zm-27-136q20 5 38 11 47 15 76 33 28 18 32 34 0 1-2 18-4-29-39-51-32-20-83-29-4-2-8-2-8 0-14 5v-19zm-67 154q-9 3-14 11-3 4-4 9v-52q1-108 2-140 12 2 25 5 0 95-9 167zm6-307q-7-2-14 0l6-61q3-34 5-59 0 27 3 120zm152 116q25 12 44 26-29-16-69-30zm-150-55q1 10 1 20l-23-4 2-23 4 2zm30 322l2-2q61 22 118 8 44-10 74-42.5t36-84.5q3-32 2-39 9 18 15 38 14 50-7 82-19 29-66 44-43 13-90 11.5T217 621zm-40-8q-11 4-16 14l-2 6q1-25 2-55 2 11 11 18 0 9 5 17zm15-581q-4 3-6 7v-5zm45 14q-4-12-15-17 81-8 169 7l7 1q-88 1-161 9zm3 58q71-8 158-9 89-1 114 43 21 36-8 85-18 31-49 50t-77.5 17.5T284 257q5 0 14.5.5T313 259q39 2 64 0 86-4 113-53 13-24 12-43-2-21-20-34-23-18-75-19-37-1-78 5-42 6-62 12-7 2-11 8-13 4-14 18l-1 12q-1-35-1-61zM79 692q20-133 11-372 0-8-1.5-44.5t-2-47.5-1.5-43.5-1-46.5V95q0-28 .5-47t2-42.5T89-40q20-3 40.5-3.5t54 .5 43.5 1l1 11v1q-41 3-68 10-2 1-5 2-11 1-19 9.5T128 11q0 57-9 161-11 127-13 165-2 46-3 176-1 119-6 172-1 18 13 27-14-3-35-11 3-4 4-9zm184-124q59-3 92-22 18-9 27-23-16 38-59 48-42 10-87-8v-6q6 7 15 8 6 3 12 3zm-79 175q27-6 78-1 69 8 90 7 124-5 198-80 83-83 55-207-4-18-18-44-8-16-10-23 50-28 81-82 32-54 38-116 7-68-18-129t-83-96q-42-26-104-35t-115.5-5T266-52v-3q-1-13-14-17-5-10-17-10-10 0-47.5-1.5t-64.5 0T72-78q-12 3-15 15-6 5-7 13-2 23-3.5 48t-2 44.5T44 91v44q0 15 1 48.5t1.5 44.5 2 48.5T50 322q9 235-11 364 0 5 1 9-7 4-10 11-3 8 .5 15.5T42 732q48 17 68 21 44 9 70-9 2 0 4-1zm-10-77q48 24 112 28 65 4 122-14 67-21 97-67 36-54 15-130-22-76-79-129 129-17 170-129 27-74 3-131-21-48-86-79-51-24-127-36-19-3-36-5Q503-38 575 6q46 28 66.5 78.5T656 193q-6 57-34.5 104T548 365q-5 3-8 8-10 8-6 20 4 15 18 43 11 22 13 34 24 104-43 171-62 62-172 68-19 1-84-6-56-6-90 1-10-1-17 5-8 8-25 7 19-5 21-25 2-23 3-47 2 15 16 22z"/><glyph glyph-name="afii10020" unicode="" horiz-adv-x="631" d="M624 772q10-5 11-16 11-115 2-179-1-6-6-11-3-15-19-15-60 0-175.5 1T266 553v-23q-20-263-16-383 4-109 1-165 0-5-2-9v-4q0-8-6-14t-14-6q-21 0-99-5-64-5-104-1-8 1-13.5 7.5T8-35q-2 4-2 9 0 67 10 177 12 135 14 174 2 55 3 209 1 145 6 211 1 8 7 13.5t15 4.5h2q5 9 15 11 44 6 99 8.5t86.5 3 103 0 89.5-.5q19 0 49-2.5t51.5-2T598 787q8 3 15.5-1t9.5-12q0-1 1-2zM126 31q-9-11-23-11-12 0-20.5 8.5T74 49q0 44-4 274-2-45-14-176Q46 38 46-18q31-2 81 1l13 1q-16 9-15 27 1 10 1 20zm4 347q-1 1-2 1 0-12 2-156 1 43 0 155zm4 300q-1 1-1 2-6-26-7.5-54t0-73.5T127 491v-43q1 3 3 5 0 15-.5 53t-.5 59.5 1 54 4 58.5zm92-115q0 7 4 12 1 8 6.5 13t13.5 5q60 0 176.5-1t171.5-1q7 57-2 154-22-4-46.5-4t-53 2-40.5 2q-19 0-90 .5t-102 0-84.5-3T84 734h-6q-1-22-3-45 2 8 4 15 3 11 13.5 17t22.5 3q15-4 20-19 1 2 3 5v3q2 12 11.5 19t21.5 6q16-3 23-18 29 1 86.5 8t72.5 9q128 13 207-22 11-5 15-16.5t0-22.5q-3-6-9-11-2-10-10-17.5t-18-7.5q-35-1-98.5-7t-73.5-7q-29-2-96-4-53-1-82-3-1-25 0-152v-85q1-257-5-373-1-14-12-22 23 1 40 2 2 50-1 157-4 123 16 417z"/><glyph glyph-name="afii10021" unicode="" horiz-adv-x="983" d="M464 782l86-19q79-23 79-35l11-26q22-46 45-125l55-180 58-174 16-49 11-3h41q111-3 111-17 3 0 3-10l-8-38-9-18-46-105-65-144 1-2v-2q-8-32-30-32 0-1-19-2l-13 1-104-7h-47l-15-3q-19 3-19 19v3q0 7 15 27l57 139 5 11-30-1h-15q-122 0-171 8l-75 2q-26 0-56-4h-20v-1q41-79 44-90 23-48 31-55 16-5 16-19 0-18-24-22-8 0-14 5-29-8-107-8l-17-1h-34l-5 1-6-1h-1q-11 0-15 8l-1-2h-6q-15 0-21 21-11 14-32 65Q81-15 48 63l-30 54Q6 139 6 146v5q0 20 27 20l19-1 104 1h38l94 218 84 197q72 165 72 169 0 27 20 27zm15-43l-46-108v-1h1q16 43 34 43h6l1-1h2q7 34 20 34v1l-3 18 3 11h-1zm61-14v-1l14-41h1v1l-2 16v3q0 8 5 15v1q0 4-18 6zm62-33v-2q13-43 66-241l68-201q37-95 44-120l42-4 5 9q-32 0-44 19-6 6-90 270l-65 208-25 62h-1zm-86-46l-53-133q-86-240-154-382l-5-17h46l286 21h58v1q-20 62-60 154-8 43-39 122-52 171-76 234h-3zm-5-135q16 0 20-21 3-1 33-64l43-177 16-45q3 0 3-9v-5l-1-1v-1q11 0 13-18 0-13-15-19l-198-3q-33 1-33 10-4 1-4 11 1 9 3 9l-1 10v2q1 14 20 74l49 140 35 98q6 9 17 9zm-83-319v-6l98 2h19l43 1q-24 67-42 150-18 78-30 99v1h-1q-5-3-30-79-30-81-51-148-2-14-6-20zm-192-15q0-6-7-19v-3h1l7 19v3h-1zm-34-44h-44l-104-1q33-54 68-144 29-54 50-104l18-37h4l27-4h19v1q-10 0-22 41Q169 7 147 38q-28 41-32 41-19 6-19 23 3 23 23 23h8l90-7 7 22q-8-7-22-7zm689-1v-1q7 0 10-18v-6q0-10-11-21L842-43q-15-36-32-112l-3-2h4q4 4 30 66 57 120 73 163l24 57h-2l-43 3h-2zM268 37q-6-11-14-11v-1q31-49 47-106l14-38v-2q-3-23-23-23-18 3-18 10h-1q0-13-11-22l13 1h36l34 3v3Q268 4 268 8v7q8 22 36 22l12-3h15q25 4 63 4 118-3 118-8l109-3 92 2q15-6 15-19V8l-1-7 3-2q-20-40-60-143l-8-17-2-2v-4h22l84 6h10v1q-7 0-10 18v11q18 67 36 110l5 16v1h-1q-21-38-59-138-9-17-23-17-23 4-23 24l24 66q27 65 58 121-80 8-131 8-150 0-384-23z"/><glyph glyph-name="afii10022" unicode="" horiz-adv-x="668" d="M90-31Q78-24 76-9q-7 58-9 125-3-83-3-147h26zm551 716q1-31 1-119 0-8-6-14t-14-6h-8q-63 6-183 6-24 0-80.5-1.5T264 549q1-52 0-72 94 0 146-5 8-1 14-7 12-6 12-19 0-80 4-163 10-6 10-18 0-8-6-14t-14-6q-31 0-85-5-56-4-72-5 0-50-2-75 33 0 95-2t74-2q109-2 180 4 11 1 18-7 7-5 9-13 9-33 8-87-1-63 1-80 1-7-3.5-13.5T641-48q-5-6-13-7-35-3-74-5l-66-5q-29-2-76.5-3T344-69.5t-76-1-67-.5H56q-14 0-19 13-13 5-13 19 0 60 2 125t6 151q2 73 4 125 7 247-8 397-1 8 4.5 14.5T46 781h5q6 8 16 8 31 0 101 .5t122 .5q48 0 102-2 32-1 113-8 70-5 111-5 8 0 14-6t6-14v-4q1-2 1-5 2-17 3-37 3-6 3-13 0-6-2-11zm-455 0q101 23 196 31.5t217 8.5q-1 5-1 10-37 1-96 6-80 6-112 7-53 2-100 2-51 0-121-.5T69 749q2-15 3-30 7 16 25 17 12 1 20.5-7.5T127 708q0-10 1-20 0 16 1 32 0 12 9 20t21 8 20-9 8-21q-1-17-1-33zM137 80q-1 68-4.5 194.5T128 448q-1-16-2-49t-1-49q-5-179 3-286 2 9 9 16zm339-42q14-9 14-25 0-12-8.5-20.5T461-16q-23 0-98-.5t-125 0-98 2.5q-4 0-7 1-3-12-13-18 327 0 495 15-1 18 0 49-4-1-8-1-63 4-131 6zm-344 4q-2 3-3 6v-6h3zm113 547q35 0 99.5 1.5T430 592q113 0 172-5 0 54-1 80h-29q8-9 8-20 0-12-8.5-20.5T551 618q-225 0-367-20 0-79 2-186 62 6 167 13 12 1 21-7t10-20-7-21-20-10l-49-3q15-1 28-3 12-2 19-12t5-22-12-19-22-5q-27 5-73 3-48-1-64-1 5-148 5-215 216 13 417 0h3q-1 16-3 29-69-5-172-3-21 1-58 2t-67.5 1.5-57.5.5q-8 0-14 6t-6 14v3q-6 7-5 16 2 22 2 91 0 8 6 14 5 10 16 10 22 1 86 6 42 3 59 4-4 76-4 149-48 4-143 4-4 0-7 1h-7q-8 1-13 7.5t-4 15.5q2 15 2.5 31.5t0 41-.5 34.5q0 9 6 15t15 6z"/><glyph glyph-name="afii10024" unicode="" horiz-adv-x="1113" d="M928 796q6 0 29-23 42-29 101-102 11-17 11-24 0-12-22-29-74-66-123-113-121-108-152-153 48-38 83-56l83-61q25-26 68-56 3 0 65-49 20-7 38-39v-5q0-10-16-34-38-59-73-108 0-4-14-20 0-15-19-18-31 9-31 19-34 26-48 48-50 43-60 47l-137 94-42 35v-3l-6-168-15-42q-5 0-5-3l-27 2h-45q-68 0-105-3-7 0-16 16-12 5-12 18v30q0 84 5 160-24-27-155-156-31-35-60-75-3 0-14-11l-8-1q-18 0-51 35-49 34-83 70-21 5-21 21 0 13 34 54 25 43 79 97l50 45q82 70 93 73 18 16 29 21l1 1v1q-74 52-90 57-54 35-125 97-36 35-79 95l-22 26-1 8q0 13 29 42 75 90 106 123 0 2 12 2 2 6 12 6 15 0 21-19 123-125 152-144 63-53 84-66l2 24v149q2 33 23 33 23 0 119 17 20 5 38 5h11q11 0 13-6l6 1h2q19-2 19-19l-2-8q3-11 3-30v-40q0-49-5-120 167 171 228 215 17 17 35 17zM647 501q-20 0-20 34v23l5 131v30q0 28-4 28h-4q-57-5-142-21h-6V549q0-41-17-41h-15q-9 0-26 16-5 0-95 74-44 36-151 144-21-22-62-73-44-47-44-52 0-8 49-68 23-32 61-60 51-44 105-75l55-35 32-23q9 0 14-15l32 31h2v1q-46 28-123 93-74 67-106 107-35 37-35 51v2q0 15 15 24-10 16-10 25v3q5 26 26 26h3q18 0 26-22 38-42 87-76 52-40 107-88 62-52 114-85h3q0 151-11 251v4q5 25 26 25h3q26-4 26-25l12 2h3q30 0 30-64v-64l-3-136h1q110 95 135 123l96 94q9 11 21 11h3q22 0 25-29l58 53q17 18 28 18h4l7-2q-41 45-65 59-34-21-198-180 0-12-24-30-44-42-50-42h-3zm358 174q0-23-13-30-78-75-133-121-56-53-84-74l-108-96q-4-6-8-6v-3q10-9 68-40 100-62 162-107 37-25 106-83 6-10 6-16v-3q-5-26-26-26h-3v-1q11-14 11-23v-3q-5-26-26-26h-3q-16 0-28 23-27 26-49 44-40 28-110 68L616 263q0-9-8-21l4-131V74q-5-26-26-26h-3q-8 0-15 6-9-15-23-15h-3q-26 4-26 26v12q0 123 6 222l-6 4h-1q-41-22-82-57-58-52-149-145-30-46-48-46h-2q-7 0-14 4 0-19-27-28-9-15-23-15h-3q-26 4-26 26v2q0 19 60 96 27 37 94 110 6 8 9 8v3q-56-43-145-131-21-25-47-65L99 50q5-18 77-72l28-23h1q1 13 77 92 147 145 153 159 7 14 19 14 26 0 26-23l1-2-5-205v-19l81 2h65q4 14 7 157l2 33v4l1 1v1q-5 2-5 13 2 19 19 19h2q25 0 71-45 30-25 78-55l88-59q67-57 73-67 0-5 22-21 45 62 89 132-26 15-70 52-25 14-61 45-66 60-148 107l-41 32-11-3q-19 2-19 19 0 21 105 127l148 137 53 48v1l-19 24h-1zM293 541v-3l56-48q47-39 74-55v1q-43 31-123 101z"/><glyph glyph-name="afii10025" unicode="" horiz-adv-x="662" d="M62 78q0 8 3 14l-7-5q2-4 4-9zM262-92l-20 10Q157-33 83 46q20-27 54-57 55-48 86-67 16-9 39-14zm323 443q1 0 2-1 17-9 36-34 46-59 50-147.5T636 16Q526-154 323-141q-80 5-120 29-34 19-92 71Q27 34 13 96q-1 8 3.5 15t12.5 9h6q67 57 141 74 14 3 22-10 3-2 5-5 42-48 76-70 47-29 87-17 16 5 32.5 17t25.5 26q8 13 7 23-2 11-18 21-21 14-61 9-15-2-38-7-3 0-16.5-3t-19.5-5q-8-1-14.5 3t-8.5 11q-6 4-8 11-21 69-60 163-6 14 5 24 4 6 11 9l64 24q19 7 52 24.5t53 37.5q21 18 16 37-4 18-15 20-15 2-42-10-16-8-33.5-19t-35-24-22.5-16q-3-2-6-2-14-8-25 4-15 17-55 48-41 33-59 55-11 13 0 26-6 13 4 23l56 51q21 18 57.5 42t70.5 37q59 22 119 11t109.5-43 84.5-83 46-108q13-77-29-145-3-5-11-14l-14-15zM192 638q4 4 16.5 15t16.5 14l16 10q10 7 22 11 11 5 26 9 22 6 45 5 14 2 28 2 61 1 111-29t71-92q6-19 10-45 5-36 0-56-3-11-8-22 0-10-1-20-7-54-50-112 8 1 15-2 97-41 113-137 13-81-34-170l13 19q34 53 31 128.5T591 292q-14 18-23 23-1 0-6 1-19 4-23 20-4 12 6 28 4 7 13 18l14 15 7 7q34 56 23 117-9 50-39.5 94t-73 71-93 37-99.5-9q-30-11-61.5-32T183 643.5 129 595q15-18 50-45 34-27 49-42 57 41 87 55 38 18 64 13 38-6 49-51 9-40-28-75-23-20-55.5-38.5T290 384t-60-23q34-82 53-146l23 6 6 1q-3 10 2 19.5t14 14.5q26 11 51 30h-4q-8 0-16 4l-33-21q-10-7-22-4.5T285.5 277t-4 22 12.5 18q7 5 35 22l48 31q20 13 40 29 50 39 70 73-6 61-55 115-46 52-97 57-37-6-69.5-25T214 572q-7-10-18.5-12.5T174 564t-12.5 18.5T166 604q8 12 18 24 3 6 8 10zM113 99q71-81 157-130 105-60 177-34 36 13 68 69-24-17-54-27-90-29-156-11-30 9-62 29t-51.5 37T145 75q-8 9-8 21t8.5 20.5T166 125t21-8q37-38 68.5-62T321 22q49-14 122 11 54 17 72.5 57t4.5 86q-18 62-74 93-24-24-50-42 22-3 39-14 31-20 35-49 4-25-12-51-14-20-36-36.5T378 54q-58-18-120 22-39 24-84 76-46-13-88-44 16 4 27-9z"/><glyph glyph-name="afii10026" unicode="" horiz-adv-x="720" d="M683-53q-3 75-3 169-5-75-14-161-1-6-4-12zM213-94q-107-5-156 2-8 1-13 8t-4 15v1q-6 6-6 14-5 163-4.5 252.5t4 252.5T37 703v2q-5 6-4 14t7.5 13.5T55 737q34-3 99.5-7t97.5-7q8-1 13.5-7.5T270 701q0-1-1-3 1-1 1-2 4-37 4-85t-1.5-73-7.5-89l-7-76q30 40 114 172 92 145 156 214 10 10 23 4 26 2 67-1 60-5 74-5 7 0 13-5 4 1 8 1 8-1 13-8t4-15q-6-39-8.5-87t-2.5-80.5.5-91.5.5-84q0-34-.5-110.5T719 157t1.5-106.5T724-66q0-6-3-11-4-9-14-12-96-21-206-21-10 0-16 8-14 6-13 20 2 45-2 116-6 107-6 119-1 35 4 97 2 33 2 42-35-50-100-162Q285-17 233-80q-1-2-3-3-6-10-17-11zM139 49q-3-17-7-33l7 10v23zm487 628q12 1 21-7t10-20q2-30 9.5-87.5T677 478q1-16 3-32-3 188 8 271-14 0-73 5-41 3-65 1l-22-26q2 3 5 5 16 15 35 4 6 4 14 4 12 0 20.5-8.5T611 681v-6q2-1 3-1 6 2 12 3zm-72-39q-26-33-58-102l16 26q39 63 42 67v9zm65-558q16 217 0 392v-13q3-104 0-379zm-5-144l3 1-2 2q0-2-1-3zM485 368q8 1 14-4 2-1 3-3 10-5 10-17 0-22-5-97-4-60-3-94 0-22 6-117 3-64 2-106 29 0 55 2-7 8-7 19 0 23 2.5 253T561 457q-1 26-3 69l-62-103-72-115-65-100q-41-62-79.5-111T200 3l-3-3q0-11-7.5-19.5T171-29l-2-4q-7-10-19-12t-22 5q-9 7-11.5 18T120-1q-11-7-23-4T79 8.5 76 30q5 22 8.5 44t5 51 2 44 0 53-.5 48v350q0 12 8.5 20.5T120 649q16 0 24-13 8 11 22 12 12 1 21-7t10-20q9-124 6-312-1-34-2.5-100t-2.5-97q106 157 174 288 13 24 36 79t33 75q29 63 53 100-34-46-88-131-2-2-14-21t-14.5-23.5T364 457l-15-23-14-21q-10-15-15-22l-16-22q-9-13-16-22l-16-20q-8-11-17-21-5-6-12-7-5-2-10-2-8 0-13.5 6.5T214 318q2 38 7 94t8.5 91.5 5 90.5-3.5 91q-26 2-77.5 5T77 695q0-87-3.5-249t-4-248.5T74-52v-2q42-4 128 0h1q52 63 133 204 84 146 135 210 6 7 14 8z"/><glyph glyph-name="afii10027" unicode="" horiz-adv-x="747" d="M683-53q-3 75-3 169-5-75-14-161-1-6-4-12zM213-94q-107-5-156 2-8 1-13 8t-4 15v1q-6 6-6 14-5 163-4.5 252.5t4 252.5T37 703v2q-5 6-4 14t7.5 13.5T55 737q34-3 99.5-7t97.5-7q8-1 13.5-7.5T270 701q0-1-1-3 1-1 1-2 4-37 4-85t-1.5-73-7.5-89l-7-76q30 40 114 172 92 145 156 214 10 10 23 4 26 2 67-1 60-5 74-5 7 0 13-5 4 1 8 1 8-1 13-8t4-15q-6-39-8.5-87t-2.5-80.5.5-91.5.5-84q0-34-.5-110.5T719 157t1.5-106.5T724-66q0-6-3-11-4-9-14-12-96-21-206-21-10 0-16 8-14 6-13 20 2 45-2 116-6 107-6 119-1 35 4 97 2 33 2 42-35-50-100-162Q285-17 233-80q-1-2-3-3-6-10-17-11zM139 49q-3-17-7-33l7 10v23zm487 628q12 1 21-7t10-20q2-30 9.5-87.5T677 478q1-16 3-32-3 188 8 271-14 0-73 5-41 3-65 1l-22-26q2 3 5 5 16 15 35 4 6 4 14 4 12 0 20.5-8.5T611 681v-6q2-1 3-1 6 2 12 3zm-72-39q-26-33-58-102l16 26q39 63 42 67v9zm65-558q16 217 0 392v-13q3-104 0-379zm-5-144l3 1-2 2q0-2-1-3zM485 368q8 1 14-4 2-1 3-3 10-5 10-17 0-22-5-97-4-60-3-94 0-22 6-117 3-64 2-106 29 0 55 2-7 8-7 19 0 23 2.5 253T561 457q-1 26-3 69l-62-103-72-115-65-100q-41-62-79.5-111T200 3l-3-3q0-11-7.5-19.5T171-29l-2-4q-7-10-19-12t-22 5q-9 7-11.5 18T120-1q-11-7-23-4T79 8.5 76 30q5 22 8.5 44t5 51 2 44 0 53-.5 48v350q0 12 8.5 20.5T120 649q16 0 24-13 8 11 22 12 12 1 21-7t10-20q9-124 6-312-1-34-2.5-100t-2.5-97q106 157 174 288 13 24 36 79t33 75q29 63 53 100-34-46-88-131-2-2-14-21t-14.5-23.5T364 457l-15-23-14-21q-10-15-15-22l-16-22q-9-13-16-22l-16-20q-8-11-17-21-5-6-12-7-5-2-10-2-8 0-13.5 6.5T214 318q2 38 7 94t8.5 91.5 5 90.5-3.5 91q-26 2-77.5 5T77 695q0-87-3.5-249t-4-248.5T74-52v-2q42-4 128 0h1q52 63 133 204 84 146 135 210 6 7 14 8zm-280 638h30l22-3h32q29-2 29-22 12-49 24-49 31-13 47-13h10q38 0 51 31v19q-6 6-6 14 3 19 19 19h30q20 0 37-4l67 1q18 0 25-18l2-5q0-51-11-72-8-23-56-68-27-28-109-50l-53-6h-32q-89 0-165 53-38 34-45 57-18 30-23 64v8q0 11 8 15l-1 2v5q0 19 27 19zm-37-41v-5q0-11 15-41 14-43 55-67l34-16h2l-27 18q-41 34-41 83v5q7 22 22 22h6q19 0 21-27l8 2h6q14 0 26-26l21-13h5q-33 28-33 50-4 15-7 15h-5l-25-1-22 4h-19zm320-1v-13q0-12-12-36l-9-10h2q10 10 23 34l14 6h5l14-6 13 6h6q21-7 21-22v-6q-7-22-39-53-45-25-67-31v-1q19 0 64 24 39 34 42 45 17 14 17 45l2 3v12l-50-1h-5zm-53-139v-1h9l2 1v1z"/><glyph glyph-name="afii10028" unicode="" horiz-adv-x="694" d="M249 755q1-3 1-6 0-13 .5-45t.5-50.5-1-46-4-50.5l32 28q40 35 55 50 106 110 164 160 6 6 14.5 5t13.5-7q1-1 2-3 2 0 3-1 61-40 127-128 12-16-4-28-1-1-3-2l-4-6-88-85-111-104q-47-44-95-80 39-23 105-82.5t71-64.5q23-19 74-55 53-38 76-56 4-3 6-7 6 0 11-3 7-4 9-12t-2-15q-17-30-56-83t-55-78q-4-7-12-9t-15 2q-2 1-4 3-7 1-11 7-25 32-160 137-60 47-105 77-23 15-38 24 1-144-8-204-2-8-8.5-13T215-80q-2 1-3 1h-2Q84-79 28-74q-8 1-13.5 7.5T10-52q1 6 5 11v2q0 92 11 383 9 238 3 381 0 9 6 15 2 14 15 17 59 16 180 28 8 1 14.5-4.5T252 767q1-7-3-12zm23-395q17-10 34-22-7 10-2 21-1 11 8 17 49 36 96 78t115 109l91 88q-17 22-35 42 5-18-10-30-87-73-210-207zm-70 13l-10-7v-8l5 5q0 2 1 5 2 3 4 5zm60-75q-15 10-30 18l-2-2q16-7 32-16zm-60 229q3 20 5 40.5t2.5 45.5 1 40.5 0 47-.5 42.5q-90-9-141-22 6-143-3-378Q55 54 55-36q47-3 146-3 3 23 4.5 51.5T207 60t-.5 54.5-.5 50.5v1q-3 7-1 15t9.5 12 15.5 1q22-7 76-44 48-33 108-78Q526-15 569-60l45 62q29 40 43 62-2 1-3 2-16 12-75 55-50 36-77 58-22 18-57.5 51.5t-65.5 58-60 40.5q42-29 86-67l94-84 77-68q17-15 7-35l7-5q9-7 10.5-19T595 29.5t-19-11-22 5.5q-22 17-65 45-49 32-68 46l-56 42-58 43q-22 16-54 36t-61 32V41q0-12-8.5-20.5T163 12q-10 0-17.5 6T135 33q-4-1-8-1-12-1-20.5 7.5T97 60q-5 102-3 314 2 206-4 310-1 12 7 21t20 10q11 1 19-5t11-16q3 1 5 1 12 1 21-7t10-20q6-105 8-232 45 33 123.5 103.5T429 639q14 11 30 3 38 36 74 65 12 10 27 6-26 25-50 41-51-47-149-147-17-18-57-53-37-31-54-50-6-6-14.5-6t-14.5 5v1h-2q-8 2-13 8.5t-4 14.5z"/><glyph glyph-name="afii10029" unicode="" horiz-adv-x="767" d="M393 584L280 367Q186 186 110 84q-7-10-19-11.5T70 78q-4 3-7 7l-1-3Q27 14 23-11q84-40 125-56 0 1 1 1 38 55 77 126.5T289 185l61 137q6 15 25 51 16 31 23 48 3 8 10.5 11.5t15.5.5q9-4 12-13 3-2 4-6l4-8q-11 30-22 71l-2-4-67-112-39-72-44-80-40-69q-24-42-48-77.5T133-5q-7-10-19-11.5T92.5-11t-11 18.5T87 28l47 67q22 34 46 75l40 68 43 78 40 73q20 36 67 114l31 53q-4 15-8 28zm36 63q1 0 1-1l1-2q1 14 13 22 10 7 21.5 4.5T484 658q22-32 36-85 17-64 22-76l74-200q59-159 96-243 4-11 0-22.5t-15-16-22.5-.5T658 30l-23 57q6-23 10-45 3-12-3.5-22T623 7.5t-22 4T589 30q-9 42-25 89t-29 78l-38 86-36 82q32-80 70-211l13-47 14-48q5-17 14.5-40.5T593-25v-1q97 0 144 19-23 67-74.5 236.5t-95 287.5T469 742q-1-1-2-1-95-13-105-13 0-3-2-5-24-40-48-86l-40-78q-16-31-42-94l-35-80q-8-19-39-96t-34-86q46 74 106 190l36 70 40 78 36 68q21 38 42 73 6 10 18 13t22-3 13-18-3-22zm35-99l3-15q19-77 31-105 14-34 57-131l-67 178q-8 20-22 77zM350 767q15 1 111 14 8 1 14-3 16 6 25-10 58-111 104-236t98.5-297.5T779-8q3-7-.5-14.5T767-33q-3-7-10-9-27-12-63-17.5t-57.5-6T575-66q-8 0-14 6t-6 14q0 2 1 5-12 21-22 46.5T519 49l-14 49q-9 32-12 44-41 142-76 225l-6-13q-19-34-25-48l-61-139q-24-52-64-125.5T181-88q-2-4-5-6 0-2-1-4-3-8-10.5-11.5T149-110Q102-93-5-42q-13 6-11 20-1 4-1 8 2 32 43 114l32 62q17 32 23 49 8 18 35 87l39 95 36 86q25 58 43 94l42 82q25 48 50 88 2 4 5 6 1 7 6.5 12.5T350 767z"/><glyph glyph-name="afii10030" unicode="" horiz-adv-x="849" d="M390 233l-70 122 61-135 1 1zm13-57q-1 0-3 1l2-4zm449 543q4-28 5-62t.5-57.5-2-63.5-1.5-56q-3-143-3-514 8-6 8-16 0-8-6-14t-14-6q-1 0-96 2-56 2-93-2-8-1-14.5 4.5T628-52v3q-2 4-2 9 0 31-2 97t-2 104.5 2 104.5q-52-92-94-181-2-4-6-7-2-9-11-14-52-27-101-76-5-6-13-6t-14 5q-12 0-18 9-17 26-39 71l-36 69-34 54q20-133 18-201 12-5 12-18 0-8-6-14t-14-6q-34 0-111-11Q81-72 39-70q-8 0-13.5 6.5T20-49v6q0 77 3.5 224T27 349q4 234-9 389-1 11 7 17 0 8 5.5 13.5T44 774q141 7 170 7 3 0 6-1 14 4 22-9 14-22 28-47l24-46q10-19 25-51.5t22-46.5 23.5-52.5T384 481t21.5-52.5T426 380l28 54q28 52 47 81 95 145 127 209 1 2 3 4v3q1 8 7.5 13.5T653 749q25-2 85-2 57 1 90-3 10-2 15-11 8-5 9-14zm-97-73q0-54 12-169 13-125 15-174 2-55-3-139-8-132-8-135 0-12-9-20t-21-8q-15 0-23 13-12 0-20.5 8.5T689 43q0 46-5.5 251.5T684 550L448 137q-8-14-25-14l5-12q4-11-.5-22T412 73.5t-22 0T374 89Q273 329 203 458l-18 30q2-41 3-68 1-39 2-121.5t3-146T199 31q1-12-7-21T172 0t-21 7q-7-13-22-15-12-1-21.5 6.5T97 18q-6 68-6 175 0 124-2 170-1 18-5 78.5t-5 90 0 78 6 87.5q2 10 8.5 16.5T110 722q0 8 5 16l-56-3q12-155 8-387 0-28-3.5-166.5T60-30q32 0 91 9t85 11q1 29-2 68.5t-7 67.5l-11 76-11 66q0 4 1 8-4 15 10 22 7 4 15 1.5t12-10.5q12-24 40-65 31-47 43-68 10-16 37-71 19-36 32-58 47 45 98 72 0 2 1 4 61 127 140 257l2 4q2 8 9 12.5t15 3 12.5-8.5 3.5-15q-8-40-11.5-93t-3-93T664 66t2-94q32 2 78 0 11 0 33-.5t34-1.5q0 366 3 510 0 18 1.5 56t2 60-.5 53-4 56q-26 3-75 2-52 0-73 1-1-1-1-2-35-70-129-213-16-24-45-78-33-62-45-81-1-2-3-4-2-10-11-13-8-4-15.5-.5T405 327l-35 82-37 90-35 79q-21 47-41.5 86.5T214 741q-24 0-52-1l4-6q9-22 22.5-44.5t32-49.5 29.5-46l174-304 10 17q37 67 51 90 25 41 55 84l72 100 59 82q6 8 16 11l6 10q6 10 18 13t22-3q16-10 14-28 8-8 8-20z"/><glyph glyph-name="afii10031" unicode="" horiz-adv-x="669" d="M226 755q1-1 1-3 9-60 2-169-7-105-4-144 83 11 209 22 4 94 11 273 0 8 6.5 13.5T466 753h1q4 2 9 2 129 0 188-15 8-2 12-9t2-15q-1-5-5-9 0-24 1-71.5t.5-85T673 479q-1-29-6.5-127T660 208.5t1.5-121T674-48q1-9-5-16-5-12-18-12-33 0-98.5-1.5T454-79q-8 0-14 6t-6 14q0 3 1 6-2 4-2 8 0 48-2.5 138.5T428 225q-84-9-196-23 0-103 22-247 1-8-4-15t-13-8q-6-1-11 2-4-2-8-2-112 0-174-3-8 0-14.5 5.5T23-52q0 4 1 8-3 5-4 10Q5 79 4.5 224T11 481q1 23-4 136-3 88 7 142 2 8 8.5 12.5T37 775q5 6 14 6h156q8 0 14-6t6-14q0-3-1-6zm280-384v12l-76-24zM150 697q-3-31-3.5-63.5t2-67.5 5-63.5 6.5-69 7-66.5q21 4 62 9 52 6 74 10 53 11 131 35-135-12-224-25-8-1-14 3.5t-8 11.5q-2 3-2 6-4 45 3 169 6 101-1 155H90q4-6 4-12l1-16q9 18 29 16 12-1 19.5-10.5T150 697zm460-28q2-114-12-324-15-225-15-321 0-21-20-28-1-10-8-17t-17-9q-12-1-21.5 6T505-5q-6 48-7.5 109t0 99 5.5 109l-112-18q-35-5-98.5-10T177 281q-3 0-5 1 3-72 3-214 0-11-7.5-19.5T149 39l1-12q1-12-7-21T123-4t-21 7-10 20Q56 448 52 508q0-16-1-29-7-113-6.5-255T60-28v-2q57 2 151 2-19 132-19 232v4q-2 4-3 8-1 9 4 15.5t13 7.5q149 19 234 27h8q8 0 14-6t6-14q0-48 2.5-143.5T473-39q26 0 79 1.5t80 1.5q-9 60-11 134.5t-.5 121T627 359t6 122q1 33 1.5 70t-.5 84.5-1 70.5q-48 9-149 9-6-169-11-261 3-4 4-9 0-6-2-11l33 10q1 44-1 124.5T505 683q0 12 8.5 20.5T534 712q22 0 28-21 8 7 19 7 12 0 20.5-8.5T610 669z"/><glyph glyph-name="afii10032" unicode="" horiz-adv-x="877" d="M401 534q-68-14-117.5-76.5T225 317q-12-95 44-154 65-68 206-59 91 6 132 75 37 63 21 152t-75 148.5T413 531q-6-1-12 3zM21 251q-1 9-1 21v48q-2 59 0 77-12-69 1-146zm330 525q4 3 9 4 20 2 39 2.5t38.5-2 34.5-5 36-9.5l33-10q12-3 34-11 7-3 11-4 79-27 153-85 73-59 114-130 16-28 24-66 9-37 10-61.5t1-65.5q0-155-43-236Q790-3 692-65t-212-67q-74-3-141.5 6T201-84Q132-52 86 3 7 99-17 240-42 381 9 497q24 50 66 99t89 85q102 78 187 95zM316 16q7 0 35 3 15 1 47.5 2.5t53 4.5T492 36q67 22 111 76-49-43-126-48-159-11-237 72-69 73-55 186 6 49 28.5 96.5T270 503t83 57.5T455 576q8-1 14-7 77-15 130.5-81T667 338l4-23q0 24-3 48-17 158-153 217-9 5-19 7.5t-18 4-20 1-18.5-.5-21.5-2-20.5-2.5T374 584l-23-5q-12-2-22 5t-12 19v8q-61-50-108-123-40-63-59.5-128.5T137 239q5-44 46-113 50-84 133-110zM195 568q-17-16-37-38-55-61-71-95-9-20-10-51.5t1-61.5v-34q7 113 83 231 16 25 34 49zm533-220q9-150-68-258 44 51 69 127 6 19 10 38-1 49-11 93zM407 741q-58 0-110-23-51-24-109-69-44-34-83-79-38-45-60-91v-1q19 34 69 90 42 46 83 75.5t94 44.5q18 5 40 7 0 12 8.5 20t20.5 8h38q11 3 25 4.5t21 1.5 23.5-.5 19.5-.5q12 0 20-9t8-21v-4q59-30 124-83 106-88 144-165 39-78 14-196v-26q-2-76-20-111-22-40-79-88-89-74-172-93.5T330-57q-20 6-38 14-64-1-110 26-58 33-96 125-38 49-57 105 26-111 87-184 59-71 155-99 96-27 207-22 104 5 193 61t138 148q39 71 39 216 0 39-1 63t-8 55.5-20 54.5q-37 64-105 118t-140 79l-59 19q-16 6-46 12.5t-55 7.5q-3-1-7-1z"/><glyph glyph-name="afii10033" unicode="" horiz-adv-x="720" d="M610 777l11-3h27q21 0 21-30 10 0 19-216 11-253 11-317V91q0-7-5-12 4-1 7-10l-4-153q-4-16-19-16-9 0-19 11h-18l-54 4h-60l-26-2q-11 0-16 24-10 0-10 73-5 44-12 315v93q0 62-12 140h-20l-113-13h-27l-6-136h-1l2-8q-9-111-9-220v-11l3-131V4q0-35-4-52l2-11q0-25-35-25l-8-1h-41q-78 0-118-3L53-78q-6 5-6 13l-4 315v174l5 202v81q3 19 18 19l-1 2v5q0 23 50 23 246 21 472 21h23zM85 714l2-1v-93l-6-201V256l4-304 95 1h57q5 27 5 57v24l-3 131v21q0 136 16 380 3 0 8 11 7 6 15 6h33l106 13h33q16 0 35-14 5 0 16-130V331q7-265 15-378h76l55-4h12q2 129 8 129-7 3-7 13v114q0 99-19 479-7 52-12 52h-22l-10 3q-214 0-447-18zm433 7q50-5 50-12h8l11 2h4q37-14 37-31v-4l-4-14q4-44 9-216 12-175 12-285V91q0-20-4-39l3-62q-8-19-22-19h-4q-20 0-24 36v5l1 23-3 7q-10-8-16-8h-4q-23 0-23 45-5 0-8 220v278q-2 64-7 64-68-7-182-28l-139-21q8-49 8-136v-94l-3-174V44q-3-32-23-32h-12l-1 2h-2q0-23-19-28h-6l-9 2q-6-21-21-21h-4q-20 0-22 27-6 25-6 192v21l14 294v107q-10 11-10 18v4q0 14 18 20l-1 1v9q0 30 81 34 173 27 323 27zM172 438l-1-68V260h1l2 109v69h-2z"/><glyph glyph-name="afii10034" unicode="" d="M257 558q2-23 5.5-68.5T268 422q88-1 120 7 30 8 44 23 15 16 14 45 0 7-8 18t-17 17q-18 12-49.5 18.5t-53.5 7-61 .5zm4-362q0-14 4-126 3-84 1-136-1-15-15-18-5-12-18-12H58q-8 0-14 6t-6 14q0 5 2 9-6 64-6 186 0 22 1.5 86t1.5 99q0 27-3.5 213.5T35 730q0 6 3 10v2q-1 8 4.5 14.5T56 764q23 2 73.5 7.5T212 780t80.5 5.5 85.5-.5 79.5-9.5 80-22.5 70.5-39q53-37 76-97.5T701 489q-5-64-35.5-122.5T586 272q-33-24-72.5-39.5T425 210t-79.5-9.5T261 196zM129 475l2-70q0 31-2 70zm60-145l62 12q61 13 101 24 114 34 136 81 3 7 4 24.5t-1 29.5q-6 41-39.5 67.5T364 605q-50 8-99 1.5T182 581q7-137 7-176v-75zm279 21q77 34 107 87 29 52 12 114-30 111-165 125-78 8-178-14 62 11 131-1 67-12 115.5-50T549 509q3-13 1-41.5T540 423q-19-41-72-72zM243 598h47q6 0 24.5-.5t28-2 26-3.5 27.5-5.5 24-9 23-11.5q15-10 28.5-29t14.5-38q2-46-25-75-22-23-63-33-13-4-27.5-6t-31.5-2.5-27-.5h-55q-4-1-7-1-8 0-14.5 5.5T229 400q-1 29-6.5 88t-6.5 89q0 8 5.5 14.5T235 598h8zm-37 55q-13-3-26-7v-2q13 5 26 9zm27-419l-16-3q-19-3-29 13-2-141 3-223 1-12-7-21t-20-10q-10-1-17 4-6-3-13-4-12-1-21.5 6.5T102 16Q83 204 77 304q0-35-1.5-99.5T74 119Q74 2 79-56h147q2 47-1 125-4 104-4 135 0 3 1 5-1 3-1 5 0 8 5 14 3 4 7 6zm9 1q6 0 15 1 54 2 83.5 4t75.5 9 82 21q35 13 64 34 42 30 68 81t31 108q5 58-14 108t-63 81q-29 20-60 34-32 14-72 20t-70 9.5-79 .5-74-5-80.5-8-73.5-7q-3-62-2-140 2 57 7 116 1 12 10.5 19.5T112 728q10-1 17-8 9 9 21 9 10 0 18-6.5t10-16.5q143 40 250 29 175-18 215-167 23-86-18-158-50-89-190-133-21-7-44-13t-49-11l-42-8q-15-3-46-8z"/><glyph glyph-name="afii10035" unicode="" horiz-adv-x="763" d="M572 213q1-1 2-1 31-16 77-51 53-41 69-51 7-5 8.5-13T726 82q-2-3-5-5 0-6-4-12-66-93-126-131-63-39-147.5-40.5T285-79Q206-52 139.5-3T38 106q-55 92-48 241 6 121 60 221t141 156q60 38 127 50.5t142-4.5q76-17 148-66 62-42 100-80 38-39 63-97 4-8 .5-15.5T761 501q-1-1-3-1-3-7-9-10-29-15-74-43-63-39-75-46-7-4-15-2t-12 9q-5 8-2 17-22 44-65 70.5T413 526q-51 4-96-18t-69-69q-19-36-14-101 5-58 24-107 16-41 56.5-70t88.5-36q48-6 84.5 14t49.5 67q2 8 9 12t15 2q7-2 11-7zM203 544q62 48 142 70 34 10 68 13-66 0-115-19-57-22-95-64zm-31-439q17-18 46-33-59 50-90 114 13-49 44-81zm425-36q9 3 19 5 11 3 21.5-3T651 53q1-4 1-8 14 17 31 41-11 8-57 44-35 27-60 41-22-51-68-72T398 86q-58 7-107.5 42.5T220 217q-20 54-25 118-6 77 17 122 14 26 33 47-67-48-85-108-19-63 8-153 21-70 88-127 36-31 71-46t81-17q57-3 113 4 15 9 29 22 9 9 21 8t20-9q4-4 6-9zm9 444q-33 39-88.5 52T397 567q10 0 20-1 57-5 108-35t79-81l50 31q44 28 74 44-21 45-54 77-32 30-88 68-67 45-134 60-69 16-128 5t-111-45q-79-50-129-142-49-90-54-203-7-138 42-219 31-52 92-97 60-44 134-71 72-26 145-24 74 1 126 34 31 19 59 49-43-11-88-16-71-40-178-28Q201-8 130 65q-70 73-70 203 0 309 216 394 75 29 186 22 114-7 209-97 9-8 9-20t-8-21q-6-7-16-8 4-17-9-28-9-8-21-7t-20 10z"/><glyph glyph-name="afii10036" unicode="" horiz-adv-x="704" d="M627 672q14-1 28-3l6-2q-3 33-7 55-171 0-276 4 132-8 226-27 10-2 16.5-9.5T627 672zM355-9q-1-29-1-56 0-6-3-12 32 2 71 5-3 29-3 72-1 80-1 90-5 131-20 453 0 4 1 7-1 3-1 6 0 8 6 14t14 6q134 0 253 11-2 13-4 29-9-6-20-5-112 15-278 13 1-24 4-59l5-45 5-53q17-203 17-452 0-12-8.5-20.5T371-14q-9 0-16 5zm-93 574q2-46 1-130-1-90 0-127 4-139 16-388 10 0 21 1-4 6-4 14 0 32 1.5 70.5t3 65 5 71.5 4.5 67q11 173-21 413-156-4-205-4-12 0-20.5 8.5T55 647t8.5 20.5T84 676q30 0 65 1-15 0-30 1-12 1-20 10t-7 21 10 20 21 7q10-1 175-7-21 2-41 3-1 0-111 9-64 5-92 6-2-27-3-71-2-77-2-81 119-11 178-11 4 0 7-1 4 1 7 1 8 0 14.5-5.5T262 565zM38 787q39 0 112-6l109-9q146-10 407-10 8 0 14-6t6-14v-1q7-5 8-13 4-25 9.5-75t9.5-75v-3q1-2 1-4 1-8-4.5-14.5T696 549q-122-12-258-13 15-315 20-444 0-11 1-92 0-54 5-87 1-9-4-15.5t-13-7.5h-3q-110-10-186-10-8 0-14 6t-6 14q0 5 3 10-2 3-2 7-12 251-16 389-1 39 0 130 1 76 0 108-57 0-198 13-8 1-13.5 7.5T7 579q0 4 2 8v5q1 12 2 84 1 54 4 87 1 5 4 10 4 14 19 14z"/><glyph glyph-name="afii10037" unicode="" horiz-adv-x="748" d="M243 810q15 0 21-27 39-67 67-135 2 0 12-28 12-25 19-55l15-39h2q0 14 81 162l52 98q1 21 19 21l39-14 151-45q37-12 37-37v-10q-38-76-90-163-34-51-73-126-13-18-60-115l-42-99q-29-61-67-173-2 0-15-38l-12-33q-8-30-23-30h-6q0-15-19-18h-24q-55 0-122 22-51 12-56 15-2-5-12-5-20 2-20 19 20 65 59 162 6 12 20 53 4 0 4 11 5 0 21 55 0 10 7 16l-30 68q-33 58-87 190l-32 68q0 6-43 89-5 0-8 26-3 0-3 9 0 18 35 27 37 23 72 37 32 21 96 39 5 3 15 3zM66 693q51-96 51-106 37-75 71-160l53-108 18-46 1-8q0-5-7-12 6-6 6-14v-3q0-19-37-104-3-14-20-51L165-20q0-5 56-15 0-5 76-19l35-2h23l41 115q33 92 79 195 25 66 84 175 55 97 86 146 41 69 63 113l9 19q-8 6-109 32 0 3-15 6h-1v-1q7 0 10-18 0-7-7-19h1q7 5 15 5 23-3 23-23-5-25-58-107-113-188-166-332l15-42v-4q-3-23-23-23h-6l2-7v-7q0-14-17-23-2-6-15-12 0-20-16-32-39-111-42-128-9-11-21-11-23 3-23 23v3q0 9 9 33v1h-2q0-6-18-9-23 3-23 23 30 126 63 201-66 151-103 276-18 68-43 125-17 36-17 43 6 39 26 39h2q20 0 26-27l14-30h4q-8 13-12 33-7 0-10 17 3 23 23 23 17 0 23-19 8 0 14-28 18-36 41-113l36-102q37-92 43-99 0 7 133 247 49 84 68 121l15 7q-2 4-29 11l-1 1h-3q-2-1-52-96l-63-120q-24-58-41-68-6-10-17-10-19 3-19 20v8q-7 0-35 92l-19 46q-15 28-35 77-32 53-32 58-62-19-89-39-7 0-72-36h-3zm253-515L278 38v-2h1l48 135q-3 6-6 7h-2z"/><glyph glyph-name="afii10038" unicode="" horiz-adv-x="1057" d="M599 756q18 0 28-18 4-5 4-12v-67h2l75 4h65q27 0 90-21 0-5 30-7l24-13q41-24 79-68 43-58 52-115 2-5 2-15 0-7-2-7 2-11 2-30v-22q0-39-17-84-6-30-71-107-5-4-12-4h-3q-4-21-94-59-92-30-181-30h-24V47l2-46-1-23q1-38 3-38 11-6 11-17 0-18-21-19-58 0-167-7h-22q-24 4-24 21l3 15-2 165h-8q-31-7-65-7h-8q-83 0-136 19l-53 20q-24 13-36 23l-58 55q-39 57-47 121l-5 57v16q0 45 22 108 18 35 32 50l41 39q0 13 37 28 24 15 87 28 40 8 77 8h30q55 0 85-7v56q4 36 35 36h38l65 2h22q6 6 14 6zm-10-37q0-7-12-7h-8l-65-2h-41v-15l1-75-19-6q-64 11-84 11h-45q-61 0-129-22l-22-13q-14 0-72-59-35-49-41-126v-14q0-55 23-125 12-22 18-27 17 0 22-19 41-51 58-52 18-15 101-34 31-5 80-5 31 0 63 7h13q34 0 34-10 0-9 3-12l3-179h1l141 7-2 141 2 8v9q0 14 7 18 164 0 248 41 31 14 57 35h8q0 5 29 37 36 49 42 84 6 0 9 56v11q0 44-17 100-29 67-96 105 0 5-38 15 0 4-24 7 0 3-34 11l-36 5h-54l-82-4h-8l-11-3h-10l-2 2h-1l1 1v4q-7 7-7 22v72h-4zm-68-43q23-4 23-24l13 3q27 0 27-58h1q49 20 125 20 117 0 249-101 31-38 31-74l2-17q0-20-6-45l3-10v-11q0-64-33-102-49-49-104-70-28-2-46-11l-13 2q-104-32-130-32h-27l-41 2q-2-118-7-129-5-14-20-14-24 3-24 23v3l4 132-14 8v-1l-3-205q-5-21-23-21-23 4-23 22l2 217q-43-22-68-22h-23q-54-12-79-12-57 0-92 34-38 11-76 49-41 44-56 89-10 29-10 40v9q0 110 45 167 16 23 53 49 58 31 131 31 111 0 188-38v3l-2 73q5 21 23 21zM130 365q0-34 44-93h2v1q-26 72-26 109v35q0 87 63 131v1h-2q-47-25-71-88-10-36-10-96zm458 149l1-2v-16l4-163v-14q18 0 22-23 0-15-20-34v-22q22-15 41-15h19q87 0 186 86l12 3q18-3 18-10 37 43 37 74v6q0 61-52 108-41 37-118 37h-11q-139-8-139-15zM196 412v-14q0-50 17-86 17-62 28-62 42-12 74-12h13q78 0 127 28 17 16 28 16h4l2-1h1l7 186 1 2q-13 0-30 27-29 30-114 30h-60q-23 0-58-18-40-30-40-96zm728 72l18-36h1v2q-11 34-19 34zm-253 0h54q35-4 63-22 41-35 50-56l12-31v-18q0-41-76-77-51-22-57-22 0-3-27-3h-16q-52 0-52 22v1q0 10 4 11-4 0-5 127l-6 30v2q0 19 27 33zm-282-2h25q46-4 46-21v-2l3-149 1-19q0-7-20-21 0-3-12-7l-5 2-49-3h-4q-40 0-84 20l-19 13q-22 18-23 32-10 15-10 30v8q0 33 13 52 36 45 47 45 19 12 67 19zm153-36l-6-169h2l10 7-4 155-1 7h-1zm113-3v-1q5-12 6-140l2-9h21q35 0 48 13 29 8 53 23 27 20 27 27v14q-20 51-64 70l-28 6h-44zm-379-80q14-39 41-51 31-15 41-15h29q38 4 38 6l-3 140-14 1h-13q-52 0-90-21-29-28-29-52v-8z"/><glyph glyph-name="afii10039" unicode="" horiz-adv-x="797" d="M534 279l26-39q54-81 86-140l26-54 29-56q11 5 20 10-5 19-28 57-22 38-61 92zm211 382q4-7 4-15l6 6zM453 399q132 164 247 269 15 13 32 5-54 47-107 67-1-6-6-10-36-32-110.5-122T414 480q-3-6-9-9l10-15 192 221q8 9 20 10t21-7 10-20-7-21L448 406zm34-51l19-29q-1 6 2 12-8 10-2 21 20 39 46 76zm-38-48l-5-7L601 40q6-11 3-22.5T590.5 0t-22-3T551 10L406 244l-38-50q-11-15-55-79 39 49 67 89 4 6 12.5 7.5T408 208q5-4 7-10 28-39 92-139 55-86 90-132l54 33q-11 20-29.5 58T594 72q-30 57-82 136zm-34 51l-5 8-6-7 6-8zM216 753q22-34 97-120 56-65 82-107 35 51 100 128t98 106q2 2 4 3 0 3 1 7 2 8 9.5 12t15.5 1q48-14 95-48t84-75q5-6 4.5-14t-6.5-14q-5-5-13-5-1-1-2-3-88-81-145-146.5T542 334l122-162q39-53 63-94 30-51 35-77 0-4-1-9 5-17-11-23-18-8-40-20-3-8-11-13t-17-4l-7-4q-55-35-78-46-7-4-15-1t-12 10q-2 4-2 9-33 43-94 137l-79 120q-31-43-85-109L208-81q-12-16-28-4-4 3-6 6l-6 4q-19 19-59 44Q55 3 42 13q-7 5-8 13t4 15q2 3 5 5 1 1 1 2 68 144 204 311-38 56-102 134Q63 594 31 614q-7 4-9 12t2 15 11 9q1 3 3 5 10 9 30 29l34 32q14 13 33.5 29t37.5 28q7 4 15 2.5t13-8.5q1-3 2-5 8-2 13-9zM186 47q23 24 45 53t48 67.5 43 60.5l50 67-6 9q-53-69-96-135-8-13-21-31l-23-32q-9-14-16-29-5-11-16.5-14.5T171 64t-14.5 16.5T158 103q8 16 20 33l24 37 20 28q48 74 110 154-108 159-210 284-7 9-6 21t10.5 19.5T148 686t20-11q101-126 202-273l6 8Q255 594 168 697q-6 8-7 17-14-11-27-24l-34-31-27-27q38-34 104-113 71-87 108-143l2-2q6-5 7-13t-5-15Q150 177 82 34q4-3 48-31 38-24 59-43l33 42q-19-11-35 4-9 8-9 20t8 21z"/><glyph glyph-name="afii10040" unicode="" horiz-adv-x="854" d="M432 790l27-2h38l109-2h41q19 0 20-28 4 0 4-10l3-202V421l8-174V146l-1-12 1-4 83 2q38 0 48-15 11-11 11-24 7-3 7-13t-3-10l1-4 3-41v-223q-4-5-4-11-15-7-22-7l-15 1-7-3q-78 6-118 6h-29l-5-1-5 1h-21q-15 11-15 15-3 66-8 118-32 0-321-17H141q-42 0-61 12-6-15-19-15-18 0-21 23-6 4-6 11L20 757q9 26 19 26l20-1 145 1h46q19-2 19-19 0-7-4-12 4-3 5-76v-17l-4-177v-81l8-214-2-11v-47h6l153 8v5q-6 6-6 14 0 7 4 12l-6 252 1 261q-3 57-7 82 0 20 15 27zm26-40l4-68-1-261 6-241 2-16-2-7 7-38q0-20-34-20l-156-8h-8q-6-6-14-6-9 0-19 11-9 0-9 18l-2 113q0 7 3 7l-1 1-6 160v93l4 177v5l-3 75h-24l-143-1-4-5L72-65q8 15 20 15 26-8 54-8h98q124 5 286 16l79 3q15-6 15-19l-3-13q6-53 7-103h35v1q-4 7-4 14 1 12 4 12l-8 135h-5l-41 1v2q-10-7-18-7t-19 8l-68 3-268-2h-11v-16q-3-23-23-23-25 0-30 41h-2l-21-7q-19 0-31 29v3q0 10 7 16l-2 2v1q-19 263-19 499-5 118-11 144 5 21 24 21 17-3 17-10 11 21 26 21 24 0 29-26 0-9-9-19 6-37 6-68V470q0-278 20-303 8-63 14-84h87q120 0 188-9l-2 2v1l-2 41 1 14q-8 64-8 104v14q0 104 15 381v27l-3 53q3 27 24 27 24 0 24-30 2 0 4-9l-2-19v-2h2q0 7 17 10 23 0 23-29 8 0 9-139V303q0-104 11-237l1-1h39q6 16 22 16 18-3 18-9h1q6 16 22 16 24 0 24-34l7-29q15-6 15-21-3-18-9-18l8-152q0-4-6-12h2l42-1V20l-4 56 1 9q-6 8-24 8l-90-1q-34 0-34 37l1 39v74l-8 174v125l-3 207h-32l-109 2h-34zm88-123v-13l-1-408 7-114q0-4-6-12V69h14q-10 140-10 228v218l-2 112h-2zM704-65v-7h1v7h-1zm4-99l-1-10h5l-2 10h-2z"/><glyph glyph-name="afii10041" unicode="" d="M180 774l6-1h7q51-1 51-14 3 0 4-12l-1-19q0-112 33-197 30-61 79-61 47 0 72 66v13l-2 6h2l-2 2v4h2l-2 9v29q0 112-8 156 0 11 15 18l14-1 79 1h35q99 0 99-16v-4l-4-33v-30l17-645V-63q-8-19-17-19L477-96q-17 0-34 18-4 0-8 315h-2q-40-8-72-8-205 0-292 178-18 37-41 163-8 49-8 90v80q0 14 15 22 0 11 86 11h54zM58 724v-9l-1-43q0-87 38-227 17-49 47-83 20-26 59-50 68-42 164-42h2q49 0 96 18h2l7-6q5-337 9-337l1-1v-1l9 1 146 11v69q0 81-16 665v45l-54 1h-60l-44-1q4-72 4-134v-23q6-7 6-13 0-75-68-120-24-12-46-12-117 0-143 202-4 28-7 101l-37 1q-113-1-113-6zm101 1h1q25 0 25-31l-2-1v-2q0-117 68-216 54-62 116-62h5q62 0 116 68l-6 190-1 5q4 26 23 26h7l11-4q3 27 20 27h7q20-3 20-16h7q16 0 23-19l-1-15q0-224 30-651-7-21-26-21-14 0-26 21-15 0-17 39l-2 21 3 9q-4 92-18 276h-1v-11l15-379q-7-19-21-19h-8q-20 0-21 36l-2 7 2 26-13 297h-1q-64-43-136-43h-8q-131 0-222 136-36 74-41 109l-11 55q4 23 19 23-4 26-4 53v23q0 30 23 30l2 1h1q8 0 19-9h2q0 18 23 21zm-17-115v-4q0-38 36-117 17-36 69-82l8-4v1q-44 37-64 73-29 48-45 115l-2 18h-2z"/><glyph glyph-name="afii10042" unicode="" horiz-adv-x="955" d="M716 798h15q191-6 191-17 6-7 6-16h-2l5-11-3-13q4-612 8-738v-13q0-20-3-20l2-1-2-10v-38q-7-10-13-10-352 0-811 11-54 12-54 21-3 42-6 47-24 540-31 760 0 9 20 25l10 2 5-1q99 8 173 8h14q13 0 19-28l-2-7q9-174 17-525l2-8v-10q0-43 6-65v-10l75 3h9q2 94 4 114-8 210-12 448l1 60 13 25q0 9 43 9 80 5 140 5 18 0 26-18 4-5 4-12v-1q0-579 16-644h10l77 2q-8 358-10 639 2 12 10 18 0 19 28 19zm0-38l8-538q3 0 5-9l-1-68-1-11 5-14-5-16h20l3 3-4 318q0 307 15 307 8 10 19 10h1q21 0 26-27v-3q0-8-7-16l-3-61v-7h2q2 83 16 83 0 2 9 4h9q21-6 21-27-4 0-10-128-6-140-6-332l1-125h9q24-5 24-21v-8q-5-19-18-19v-1q30 0 30-22v-7q0-18-28-20h-17q-4-30-21-30h-4l-14 2q-3-22-22-22h-7q-21 0-21 42v5Q602-4 551-4q-11-23-28-23-13 0-28 20l-236-5Q151-12 134 2q-11 10-11 21v4q0 7 4 12l-4 43v7l1 2Q86 402 86 629v56q4 26 24 26h2q22 0 27-29l-4-16v-38q0-78 5-192h2v9l-3 145q0 142 14 142 6 10 17 10h4q25-4 25-25-10-22-10-38l-1-89q0-225 30-510 149 13 174 13v2l-14 1h-20l-103-4q-22 0-22 22l4 11 1 58q-5 76-12 420-6 143-8 143-62 0-162-8 8-248 29-669 2 0 2-10V-41l4 1q499-10 804-10l3 77q-4 0-7 689l-1 27 1 8q-114 9-162 9h-13zm-319-9l-1-54 14-525q0-9-6-26v-17q7 0 10-14v-5q0-10-11-14v-1h1l26 1h3l3 205q0 232-9 411 7 22 22 22h6q16 0 24-22h3q0 7 17 10h2q22 0 31-37v-2q0-5-8-16v-79q0-145 23-487h16q-14 70-16 574l-1 82zM142 433v-19h1v19h-1zm1-31v-7h1v7h-1zm341-93l-2-210h7l9 1q-8 110-12 209h-2zm66-257v-6l1-2v-1l4 1 188 6q8 0 8 7h-1q-102 0-200-5zm-70-2h-1v-8h23l-1 1v8zM287 37v-1h11l123 3 6 1v7z"/><glyph glyph-name="afii10043" unicode="" horiz-adv-x="1038" d="M476 778q48 0 86-5l8 1q17-6 17-16v-6q0-5-6-12v-5q15-96 23-442 0-79 4-129l-1-6 1-15-1-9h26l50-2q-3 6-3 15l3 17 3 331q0 214-7 256v8q0 11 15 15h7q7 0 7-3l20 2q192-6 192-19l2-8-1-14q4-57 4-241V321l-1-89 1-5-7-103q115 0 115-11l4-16q-6-51-44-269l-3-18 2-1v-1q0-14-29-32-116-5-164-15-26 0-26 41l3 108h-2l-35 2-19-2Q151-87 79-79q-7-4-13-4-19 0-19 38-17 145-33 768 0 34 27 34 101 17 169 17h9q34 0 34-56 9-145 25-590h15l7 2v-2l1 2h77q-14 603-27 603l-1 4v6q4 27 16 27 27 8 110 8zm-84-42q10-85 22-480l3-136q2 0 5-11 0-18-27-23l-15 5h-36l-91-2q-13 6-13 22l1 4-1 4h1l-1 4q-18 519-27 613h-2q-69 0-156-16l-3-4Q66 243 75 67q3 0 7-11l-1-9V34l1-6h-1l1-2V11l3-16-2-23 3-13q63-8 596-11l23 3 80-3 8 3h6q26-9 26-22v-6q0-7-11-16l-3-105 27 3v1l-1 11 15 165h-3q-11-17-20-17h-10q-12 0-19 18h-15q-172 0-600-19h-5q-22 0-29 31h-16q-22 4-22 22v6q0 6 7 14-22 477-22 596v61q4 26 23 26h6q11 0 20-12 4 17 21 20h8q16-3 20-20l-4-270q0-162 7-381l1-6q184 13 257 13-16 320-16 605 6 18 22 18h7q5 0 12-5h1q6 15 22 15 17 0 24-21l-1-17q16-417 16-593l55 1h137v1l-1 11q13 319 13 539v71q6 23 21 23h8q21 0 23-37v-3l-3-12v-34q0-150-12-560h15l6 565v17l-2 28q6 25 22 25h8q17 0 20-26l-1-6 1-13v-4l-5-589 57 1h4q52 0 57-19l3-11v-1l-18-50q-17-58-28-106l1-5q-12-60-19-60h3l45 1v2q8 63 45 268l-82 3h-16q-15 0-21 26v12l2 19q-3 5-3 15v3q8 9 8 168v170l-3 222q0 8-54 8-61 6-110 6v-2q4-109 4-219l-1-333-2-5 2-4h-2l2-2v-1l-2-1 2-2v-1l-2-4 2-4h-2l2-2v-1l-2-4 2-4h-2l2-1v-2l-2-1 2-2v-1l-2-1 2-2v-1l-2-1 2-2v-4l-2-1q3-6 3-19-5-14-16-14l-17-1-65 3-38-2q-19 0-19 42l-1 19 1 10q-10 510-29 572l-72 3q-76-1-76-4zM903 15l-2-30v-2h1l10 32h-9z"/><glyph glyph-name="afii10044" unicode="" horiz-adv-x="832" d="M129 762h100l19-3 45 2q137 0 137-27 4 0 4-13l-4-221 1-17-1-4q26 6 50 6h22q95 0 193-55 128-88 128-238v-2q0-83-53-176-43-58-83-69-115-41-292-41-70 0-183 13-8 6-10 13l1 21v69l-1 10v3h1l-1 173v351l-156-6q-20 5-20 19 2 11 4 11-8 89-8 153 10 25 42 25 19 3 65 3zm-69-49l7-124 115 6 39-1 5 1q13-7 14-10V264l1-282 1-14-1-16h1q85-9 153-9 182 0 287 42 58 30 88 119 10 33 12 54l-1 8 3 24v17l-2 17h2q0 27-29 91h-1v-2q23-53 23-91v-4q0-115-125-186-56-30-147-54-78-16-153-16l-51-10h-4q-25 5-25 20v7q0 8 7 17l-7 14 2 23v14q0 204-22 563l-123 11-16-2q-23 6-23 21v7q0 6 5 15-24 4-24 23v6q0 15 22 21 216-14 258-26 14-10 14-22t-10-22q18-8 18-23 0-16-18-27 8-115 8-175l2-6q30 7 72 7h3q179 0 277-88l8 2h8q6 0 15-8-40 69-134 102-65 21-113 21h-21q-25 0-58-9-13 0-21 20-10 7-10 17 4 135 4 241-21 4-96 7l-78-2h-15l-4 3h-71q-68 0-68-5zm242-109v-1q10-158 10-211h1l3 3q-7 209-12 209h-2zm11-240l1-28h2l1 17v7zm218-3v-1q65-10 127-67 32-39 32-73v-18q0-47-53-99 80 52 80 103v18q0 51-71 99-42 23-102 37l-11 1h-2zm-215-37v-2l7-219h1v19q-4 202-7 202h-1zm51-12q6-123 6-237V60q168 23 231 81 37 31 37 66v10q0 55-104 91-51 15-106 15h-12q-50 0-50-10zm47-3h34q91 0 147-51 17-25 17-48 0-80-160-98h-12q-8 0-17 11-19 0-19 49l-7 101v4l-2 11v5q0 14 19 16zm21-38v-1q7-118 11-118l10-2q36 0 94 26 24 17 24 34 0 45-111 61h-28z"/><glyph glyph-name="afii10045" unicode="" horiz-adv-x="935" d="M134 784h60q62 0 62-24 0-8-7-15 6-99 6-176v-68l1-9q32 5 55 5 90 0 187-48 47-23 94-82 56-79 56-164v-8q0-70-40-125-4 0-28-30-82-73-161-92-105-33-217-33-51 0-132 11l-8-1q-4 0-19 10-15 6-15 17 2 96 2 276v187l-4 315-1 1v1l1 4-1 2q3 42 20 42 42 4 89 4zm700 0q46 0 46-18 9-11 9-15l-2-15q7-121 19-766 0-27-16-30l-144-1-6-2v2l-1-2h-38q-20 0-20 33l-2 5 2 10q-6 146-6 212l7 526-1 1v2l1 5v19q0 21 28 29 38 4 124 5zM63 735l1-4h-1l1-1v-2q5-192 5-327V235L67-15l-1-7 1-11v-3q91-10 138-10 161 0 285 64 84 51 114 132 6 25 6 45v8q0 113-105 198-93 58-196 58-47 0-47-10 0-4-23-12h-6q-14 0-16 19v119q0 68-6 170l-6 1h-70q-71 0-71-5zm658 7l-2-14 1-1-1-6 1-50q-7-297-7-470 0-105 7-226l143 3 5 15q-13 658-19 748l-11 5zm48-22h8q20-4 20-24h2q6 12 16 12h7q22-5 22-19l2-184v-35q-3-453-12-453-10-15-23-15h-1q-22 0-25 27h-1q0-36-23-36h-7q-13 0-20 20l-3 239v87l3 329q0 13 13 21 4 31 22 31zm-612-1q15 0 24-21l-1-24q0-58 11-272 59 11 114 11 146 0 235-79 47-54 47-103l1-15q0-86-98-154-31-24-110-49-122-32-234-32-69 0-69 32 0 22 30 28v3Q89 610 82 674q5 23 23 23h4q14 0 21-14h1q0 36 26 36zm639-125q0-166-9-506 5 2 5 8l5 345v153h-1zM194 315l9-222q7-1 14-15 52 0 162 46 92 54 92 105v12q0 41-87 77-49 16-97 16h-16q-53 0-69-18zm288 3v-2q38-34 38-79v-11q0-61-80-121-42-30-117-55h-6v-2h4q84 21 123 42 95 57 95 127 0 62-57 101zm-245-2h34q91 0 147-51 17-25 17-48 0-80-160-98h-12q-8 0-17 11-19 0-19 49l-7 101v4l-2 11v5q0 14 19 16zm21-38v-1q7-118 11-118l10-2q36 0 94 26 24 17 24 34 0 45-111 61h-28z"/><glyph glyph-name="afii10046" unicode="" d="M321 133.5q22 .5 53.5 7T424 159q9 6 17 17t8 18q1 29-14 45-14 15-44 23-32 8-120 7-2-22-5.5-67.5T260 133q39 0 61 .5zm27.5 357Q379 488 428 481t88.5-22.5T589 419q49-36 79.5-94.5T704 202q6-67-17-127.5T611-23q-33-23-70.5-39t-80-22.5T381-94t-85.5-.5T215-89t-82.5 8.5T59-73q-8 1-13.5 7.5T41-51v2q-3 4-3 10-5 26-1.5 212.5T40 387q0 35-1.5 99T37 572q0 122 6 186-2 4-2 9 0 8 6 14t14 6h175q13 0 18-12 14-3 15-18 2-52-1-136-4-112-4-126 54-2 84.5-4.5zM134 286l-2-70q2 39 2 70zm58 0q0-39-7-176 34-19 83-25.5t99 1.5q54 10 87.5 36.5T494 190q2 12 1 29.5t-4 24.5q-22 47-136 81-40 11-101 24l-62 12v-75zm351-18q8-16 10-44.5t-1-41.5q-10-65-58.5-103T378 29q-69-12-131-1Q347 6 425 14q135 14 165 125 17 62-12 114-30 53-107 87 53-31 72-72zM243 93h-5q-8 0-13.5 6.5T219 114q1 30 6.5 89t6.5 88q0 8 6.5 13.5T253 310q3 0 7-1h55q10 0 27-.5t31.5-2.5 27.5-6q41-10 63-33 27-29 25-75-1-19-14.5-38T446 125q-10-6-23-11.5t-24-9-27.5-5.5-26-3.5-28-2T293 93h-50zm-60-46v-2q13-4 26-7-13 4-26 9zm46 416q-5 6-5 14 0 2 1 5-1 2-1 5 0 31 4 135 3 78 1 125H82q-5-58-5-175 0-21 1.5-85.5T80 387q6 100 25 288 1 12 10.5 19.5T137 701q7-1 13-4 7 5 17 4 12-1 20-10t7-21q-5-82-3-223 10 16 29 13l16-3q-4 2-7 6zm28-9q31-5 46-8l42-8q26-5 49-11t44-13q140-44 190-133 41-72 18-158Q606-26 431-44 324-55 181-15q-2-10-10-16.5T153-38q-12 0-21 9-7-7-17-8-12-1-21.5 6.5T83-11q-5 59-7 116-1-78 2-140 18-1 73.5-7t80.5-8 74-5 79 .5 70 9.5 72 20q31 14 60 34 44 31 63 81t14 108q-5 57-31 108t-68 81q-29 21-64 34-36 14-82 21t-75.5 9-83.5 4q-9 1-15 1z"/><glyph glyph-name="afii10047" unicode="" horiz-adv-x="750" d="M373 786q113 0 225-70 85-58 123-178 29-89 29-176 0-203-138-351-47-50-169-78-70-14-121-14Q170-81 69 7 13 71 10 99v6q0 7 8 14l-1 1v4q0 15 40 40 76 65 90 66 19-4 19-17v-6l-3-9q43-54 149-81 38-8 67-8 46 0 53 15 28 5 61 36 28 34 37 81v1l-96 2H305q-14 0-20 7-6-9-15-9-16 0-20 21l-3 99 3 56q0 13 18 21l7 7 41-1q92 0 148 4l82-3q-5 40-58 98-42 33-90 33t-123-32h-5l-9 1-11-1h-3q-10 0-45 56-57 77-65 106 0 13 15 22 0 7 26 11 103 46 195 46zm-190-84q5-16 37-59l21 13q-6 11-6 17 0 31 88 41h34q112 0 200-88 67-77 85-148 20-63 20-98l1-1q11-3 11-11v-6q0-32 15-32l2-1v-12q-5-21-24-21h-5v-1q0-51-46-148Q513-17 308-17 149-17 98 88l-4 22v3q5 19 17 19v3l-10 15q-28-19-41-34l-10-6 3-11-2-1v-2Q91 16 185-19q67-23 140-23 115 0 223 52 42 27 51 48 6 3 16 22 14 0 52 78 27 51 39 138l1 11q4 37 7 40-4 68-12 91-21 114-45 155-50 91-160 131-68 23-127 23-78 0-187-45zm66-101l11-16 25 4q59 26 114 26 41 0 78-19h1v1q-57 33-131 33-66 0-98-29zm55-195h-12l-2 1h-1v-11l-2-13q103-2 270-9l-4 10 1 15v8l-51 2zm3-120l-18 2v-4l1-2v-1l7 3 33-2 246-1 3 12q-158-7-272-7zM205 116v-2l7-2h1v1l-7 3h-1zm16-9v-1l7-3h2v2l-7 2h-2zm-65-20q42-55 159-55l35 1v2q-126 0-192 52h-2zm212-50v-1h5v1h-5zm-13-1v-1h7v1h-7z"/><glyph glyph-name="afii10048" unicode="" horiz-adv-x="1148" d="M727 792h18q105 0 205-54 2-4 25-17 66-67 96-143 62-130 62-244v-21q0-91-40-181l-23-34q-35-47-95-92-52-35-95-54-41-18-104-31-4-9-12-9h-18Q595-88 476-6q-54 46-78 78-43 61-70 153-6 27-11 27l-63-4v-18l4-281q-3-23-16-23h-7q-5 0-11 6h-5q0 3-162 6-9 0-21 8-13 8-13 18l1 83-1 20 1 20Q12 464 12 629v95q0 42 10 42l14 16q7 6 54 6h95q57 0 57-25 4-1 8-11l3-167V472l70 4q8 71 77 170 66 88 152 113 77 33 175 33zM352 440h-1l-120-7q-6 0-16 11v153l-3 145q-3 0-12 8H87l-34-2-3-13-1-76Q54 306 65 0l-4-9v-12l3-3q156-3 156-6-4 128-4 290l1 2h2l1-2h1v11q0 11 15 15l89 4 5 1v-1l2 1h1l1-1 2 1h1q15 0 15-10l20-74Q423 64 534 2q54-33 154-47 0-2 37-4 0 5 49 8 73 17 104 35 152 74 196 193 21 67 21 128v17q0 150-105 316-31 40-68 62-89 44-178 44h-15q-77 0-149-23-92-27-155-113-48-74-63-135-5 0-10-43zM90 724q22 0 27-37-1-8-3-8l3-41h2v44l-1 7h1l-1 1q3 27 23 27h7q17 0 20-27h-1l1-1-1-7q0-108 10-280h1q153 24 222 24 28 130 89 190 82 83 181 83h30q98 0 200-62 30-23 37-48 53-47 72-89 38-73 38-151v-26q0-97-53-196-32-48-52-48-78-62-219-62h-1q-97 0-122 23-110 39-164 130-43 82-43 168h-2l-210-28q15-230 15-266 0-22-28-26l-4 1 2-9V0q-6-21-21-21h-8q-22 0-24 53-3 55-23 278-3 0-3 6l1 22-24 361q0 20 26 25zm485-102l10-10q37 15 91 28 18 8 51 8v1l-45 3q-57 0-107-29v-1zm-457 3v-9h1v9h-1zm380-234q14-9 14-19v-8q0-9-13-20 0-40 45-106 60-70 149-70 85 0 158 60 63 65 63 138v19q0 47-37 123-21 34-35 34-60 26-130 26h-12q-133 0-188-119-14-40-14-58zm218 148h2l18-1 12 1q62-15 91-52 35-41 35-92v-17q0-59-53-118-45-39-94-39-74 0-134 84-23 44-23 87 0 107 112 144zM608 389q0-79 85-123 20-7 36-7 52 0 89 60 20 39 20 69 0 46-33 80-4 0-35 22-30 11-55 11-72 0-103-75zm353-38v-5h3v1l-1 4h-2zm-13-61q-36-95-117-136-70-35-139-35-128 0-203 114h-1v-1q25-65 98-102 38-18 96-32l9-8q72 0 174 53 85 50 85 136v2l-1 9h-1z"/><glyph glyph-name="afii10049" unicode="" horiz-adv-x="701" d="M424 534l-24 5-21 4q-14 3-23 4t-20.5 1.5-22 0T293 545q-18-3-16-24 2-13 19-24 18-11 53-19 36-8 96-12 0 22 1 63-7 2-22 5zM76 565q-15-75-5-108 17-49 70.5-86T260 319q-60 43-104.5 98.5T95 531q-13 41-7 79-7-22-12-45zm436-147q0 34 4 133l1 14q-96 50-154 57-23 3-56-3t-59-20q-27-14-37-32-9-18-1-40 28-78 128-126 19-10 44.5-19.5T422 368l49-16q37-11 42-13-1 42-1 79zm30 291q5 12 17 16h-4l-66 3-1-1q-3-16-19-15 25-12 49-27 3 21 24 24zM160 595q20 33 61 56 35 17 77.5 25.5T370 680q26-3 53-12-18 7-35 13-40 13-89 10.5T210 672q-40-18-55-47-17-30-7-70 1 21 12 40zm355-319v2q-2 0-3 1l-36 11q2-3 3-4zm-83 21q3 2 7 4l-42 14 1-7q16-6 34-11zm-81 35l-16 6 14-7q1 0 2 1zM155-16q-9 7-11 18.5t4 21.5l53 73 65 91q25 38 46 74-25-19-48.5-42T211 165l-45-50-41-39Q97 49 79.5 29.5T48-11q73-58 109-100 13 11 32 32l31 36 41 51 39 49L186-74q-8-8-20-8.5T145-75t-9.5 20 6.5 21l15 17q-1 0-2 1zm236 266l-17 5q-20-36-47-79zm92.5 306q4.5-7 3.5-15v-5q-3-65-1-93 0-8-5.5-14t-13.5-7q-6 0-12 3-75 5-115.5 14T274 463q-34 21-37 54-2 25 11 44t37 24q25 2 39 3.5t39-2.5 38-6 36-8l34-7q8-2 12.5-9zM495 212q8-6 8-17-4-103-1-245 17-1 85-3 41-1 66-2-2 51-1.5 58T646 61.5t-6 60.5q-12 123-17 411 0 16-3 55t-3.5 72 4.5 61q-18 2-40 2 13-6 16-21 12-83 17.5-182.5t6-175.5 1-186T623-17q1-12-8-20.5t-21-9-20 8-9 20.5 0 25l-5-1q-12 0-21 8t-10 20q-2 32-5.5 93.5T519 216l-66 16-65-73 2 1q48 47 83 57 13 4 22-5zm160 527q9-7 6-18-5-27-5-56.5t3.5-69T663 534q5-287 17-408 1-14 4.5-45.5t5-50T692-15t1-49q5-7 4.5-15T690-92.5 675-97q-25 2-89 4t-92 3q-17 1-19 17-13 5-13 19-2 135 0 222-19-13-44-37-33-32-81-92l-41-50-43-53q-14-19-35-42t-36-36q-3-2-6-3-2-8-8.5-13t-14.5-4-14 8Q107-108 17-37q-3 0-5 2-7 4-9.5 12T4-8q14 28 35 52.5t56 58 42 40.5q5 5 52.5 57t76.5 76q-77 15-144 59-67 45-88 110-14 43 3 128 17 84 66 132 64 63 176 65 50 0 174-20l1 7q2 8 9 12.5t15 1.5q4-1 7-2 14-2 72-4 50-2 81-6 17-4 17-20z"/><glyph glyph-name="afii10065" unicode="" horiz-adv-x="589" d="M529 633q11-2 18-10t7-19q0-45 1-118 2 79 2 142-13 3-28 5zm-95-99q-1 50-4 96 0 5 1 10l-17 1q-1-8-8-59-1-8-8-13t-15-4q-7 1-12 6-93 52-195 12-63-25-90-46-42-35-63-90T3 327q0-26 4-52 0 30 6 72 12 86 60 140t119 73q117 32 242-26zM545 45q-3-27-7-54l-2-6q3 0 6-1 4 30 6 64zm-60-15q-47-7-98-7 4-5 6-11 4-24 4-26 6 0 37 .5t47 .5q-2 7-1 14 3 14 5 29zM364 499q-85 25-157 5-54-15-90.5-55.5T71 339q-13-89 4-132 34-88 190-116 83-15 172-8v4q-86 3-150 18-128 30-184 115-47 71-22 139 21 58 88 98 42 24 94 35.5t101 6.5zm40 182q131-6 181-17 9-2 13-9t3-15q-1-5-4-8 0-34-8-402-1-46 0-84t-.5-86-7.5-86q-2-9-9-14-1-8-8-13t-15-4q-24 3-49.5 4T436-53t-52-1h-5q-8 0-14.5 5.5T358-35q-1 20-3 32-87-10-170 14-81 24-129 72-44 44-68 109t-25 135q-2 72 23 136 24 64 74 104 32 26 102 54 109 42 209-5 3 20 3 33 0 11 10 17 4 16 20 15zm-3-303q11-76-10-161-1-8-8.5-12t-15.5-2q-6-4-12-4-111 0-159 49-22 22-26.5 51.5T176 353q10 24 31 42.5t47.5 27 59 2T376 394q1 1 2 1 8 1 15-4t8-13zm-42-21q-23 20-47.5 27t-43.5 1-33.5-18.5T213 338q-14-36 12-62 36-37 130-37 13 60 8 115-2 1-4 3zm129 277q8-148 7-490h1q4 67 4 143.5t-2 171-2 145.5q0 12 8.5 20.5T525 633q-35 4-37 4v-3zm-74-208q-44 21-105 15t-111-35q-49-28-63-67-15-40 16-87 44-66 150-91 56-13 136-16 1 204 0 280-12-4-23 1z"/><glyph glyph-name="afii10066" unicode="" horiz-adv-x="706" d="M399 824l204-11h11l27 1q33 0 33-19 57-103 71-153-42-23-139-23-27 0-237 17l-24 2q-40-2-57-6v-3q25-14 143-50 80-35 108-62 67-63 67-87 50-106 50-209v-2q0-136-99-220-64-59-197-86l-37-3h-16q-24 0-31 11-109 33-168 95-84 83-84 197v18q0 135 91 224 13 12 45 33-91 37-122 105-14 31-14 58 0 119 192 153 92 20 183 20zM62 647q0-38 42-81 47-42 106-54 32-4 32-20v-3q0-18-45-34-28-12-78-65-57-76-57-155v-11q0-109 68-177 52-50 114-75 53-21 87-21 13 0 49 8l10-1 12 3v1h-1l-14-1Q224-39 125 68q-48 60-48 122v23q0 84 75 176 79 87 173 87h23q27 0 58-8v2q-25 0-125 37-32 20-84 39-85 38-85 101 0 48 53 90 30 19 79 26 12 0 18-8 76 19 192 19 141-7 141-29 3 0 3-7v-9l20-2h10q20-5 20-20v-8q0-18-28-21-13 0-150 21-30 4-75 4-106 0-175-37-4-7-6-23 0-38 58-73 128-40 172-59l21-5q5 8 9 8v3q-50 27-121 47-107 29-107 67v4q0 27 28 37 10 1 10 2l7-1 58 3 250-19h8q51 0 87 8-2 3-2 15l-51 96-20-1h-18q-28 0-155 12l-55 3q-183 0-293-67-38-27-38-76zm105 21l-6-22 4-18h2v1l-2 11 3 26v2h-1zm344-176l-1-5q57-59 69-94 13-33 22-86 11-32 11-73 0-83-47-158l-9-23h2q41 51 52 94 8 38 8 73v3q0 120-47 211-24 30-60 58zM163 209q0-80 77-132 40-21 78-21h15q86 0 156 70 40 43 40 112 0 73-64 130l-15-2q-10 0-22 15-28 19-71 19-107 0-171-101-23-45-23-90zm194 151h6q51 0 58-19 0-7 15-15 40-38 40-91 0-89-85-139-23-8-37-8h-12q-63 0-113 82-15 36-15 65v1q0 82 89 116 28 8 54 8zM252 236q0-67 67-104 16-6 25-6h9q44 0 76 67 8 18 8 47 0 40-39 66-26 13-52 13l-8-1-9 1q-42-10-57-31-20-20-20-52zM372 11V9h6q45 0 83 15-3 3-3 17-53-28-86-30z"/><glyph glyph-name="afii10067" unicode="" horiz-adv-x="649" d="M264 713h32q143 0 200-99 11-26 11-49 0-76-102-143v-1q104-17 176-75 61-57 61-123 0-33-25-89-22-73-95-124-86-57-173-65-62-10-127-10L64-59l-14-4Q22-63 22 3L8 634q3 21 11 27 38 20 143 41 56 11 102 11zM46 625l7-305h1l11 287q0 16 31 23 57 29 162 29 125 0 191-44h1q-50 60-155 60h-30q-94 0-215-42zm310-25q49-33 49-80 0-19-16-51 54 41 54 73 0 33-72 54zm-196-20V396q92 27 138 56 58 39 58 69 0 49-125 64h-22q-23 0-49-5zm22-6h7q7 0 9-5 8 2 29 2 58 0 92-29 14-16 14-29v-4q0-52-139-95h-2q-18 0-22 38-5 92-7 92 5 30 19 30zm22-42q2-73 7-73 73 29 81 46l3 3v4q-20 21-72 21zm298-181v-1q60-38 87-124l4-35v-14h1q10 31 10 48 0 73-101 126h-1zm-343-26l-4-274q4 0 9-13l14 3q22-6 22-16 79 12 121 26 96 37 115 69 30 34 30 68v7q0 97-160 137-27 6-67 7l-1-1h-2q-11 0-21 9-33 0-47-19-9-1-9-3zm280 4v-1q76-55 76-131v-6q0-95-111-157v-1h1q94 32 125 94 14 30 14 56v6q0 75-83 130l-21 10h-1zm-200-28h26q76 0 140-42 31-28 31-55v-8q0-52-155-121-33-12-73-22l-4-1h-7q-11 0-16 18l1 27q0 88-9 179 6 18 20 18 8 7 46 7zm-9-38l-17-7 9-147-2-12h2q91 23 163 81 13 16 13 22v2q0 37-102 58l-42 4z"/><glyph glyph-name="afii10068" unicode="" horiz-adv-x="565" d="M573 205q0-20-7.5-43.5T552 127l-20-35Q472-11 386-43q-78-28-198-3-26 6-43.5 11t-42 19T64 17q-76 105-48 210 27 101 137 165 7 4 46 20 40 17 63 28 34 18 47 33 11 11 7 18-8 12-22 8-17-5-45-27-10-7-26.5-21T199 432q-13-11-23-16-15-8-26-6l-6 2q0 1-.5 1t-1.5 1l-1 1-3 3-11 9-34 30q-51 45-62 54-5 4-6 11t4 13l3 3q50 99 118 142 52 33 117.5 35T387 692q59-26 97.5-75T528 504q6-90-33-149-28-42-88-74 15-5 41.5-12t29.5-8q46-13 76-33 4-2 6-7 13-3 13-16zM235 570.5Q199 557 178 534q-8-8-20-8.5t-21 7.5q-4 4-7 10-3-2-5-4-10-8-22-7t-19 10q-4 5-6 10l-13-25 50-44 34-30 9-8q1 0 2 1 7 4 18 12l24 20 26 21q34 26 57 33 39 10 59-23 7-11 7-23 1 2 2 5 1 6-1 25-3 19-6 28-11 29-36 40-39 0-75-13.5zM213 366q73 45 91 59l-27-15q-24-12-65-29-37-16-43-19-58-33-90-80 28 24 75 44 22 17 59 40zM144 23q-10 5-20 11-32 15-53 36 9-17 21-33 23-32 104-49 110-24 179 1 74 27 127 119 35 60 37 90-2 1-3 2-19 12-42 21 0-2 1-24t1-35q-1-48-20-76-25-40-83.5-60.5T267 5Q204-5 144 23zm-30 137q-6-46 39-76 37-17 88-20 11-1 21-1 15 2 26 8 72 34 121 122 9 16 27 15v18q0 6 2 11-19 5-31 9-13-54-45-87.5T293 114q-39-10-63 7-30 21-15 62 16 45 73 77 16 9 49 25l50 24q55 29 80 65 33 49 27 128-1 10-3 20 5-38-13-82-25-59-106-97-15-7-35-14.5T303 316l-38-12q-24-8-34-11-27-9-47-17-62-50-70-116zm295 364q4-31 0-47-10-38-39-70 41 24 54 55 20 48 1 78-9 13-24 23 5-15 8-39zm-35 111q69-16 99-63-32 58-100 89-48 22-104.5 20.5T168 652q-32-21-57-52 63 41 134 49 42 4 75-7 28-1 54-7zm4-369l-27-12q-31-14-46-23-46-26-58-60-6-16 2-22 12-8 35-2 29 8 55 36.5t36 77.5q1 3 3 5z"/><glyph glyph-name="afii10069" unicode="" horiz-adv-x="593" d="M171 261q-19 17-44 52-18 24-28 53 9-56 45-87 10-9 27-18zm207 214q-32 2-47-2-9-3-27-15t-29-26q-11-12-11-19 1-4 14-8 18-6 51-3 2 0 30 2 12 1 21 2 1 48-2 69zm27-523q-28-18-69-21 45-4 69 21zm-63 624q-65 16-103 1-44-17-69-59t-24-90q9 22 24 43 25 33 60.5 59.5T299 567q21 8 43 9zM42 206q25 0 76 5 43 5 65 6-42 16-63 34-60 53-60 161 0 124 85.5 201T355 687q27-1 40-2t34.5-8 37.5-22h2q58 0 97-7 8-2 12-8 2-3 3-7 5-1 9-5t5-9 5-9q17-111 10-295.5T575 22q-8-34-33.5-74.5T488-115q-80-60-187.5-52T117-96Q67-53 36.5 26.5T14 171q1 10 10 14v3q0 7 5.5 12.5T42 206zm187-11q1-9 5-29l5-31q6-35 16-50 9-15 39-21 23-5 39 5 14 10 24 33 13 32 17 87-82-9-149 13 3-3 4-7zm184 294q3-23 3-101 0-7-5.5-12.5T398 370q-2 0-4 1-3-1-5-1-10 0-27-2-28-2-31-2-40-3-65 5-36 12-38 40-1 21 19 45 15 17 37 32t37 19q20 6 67 4 9 0 14-9 9-4 11-13zm142 85q0-170-15-325-24-231-75-315-19-31-49.5-46.5t-61.5-15-63 7.5q-45 12-87 38t-65 57Q109 15 95 87q-3 12 4 22t18.5 12.5T139 117t12-18q12-60 34-88 6-8 15-17 10 8 22 6 67-11 89-12 48-1 71 18 21 16 35 85 10 54 16 143-20-4-42-7 6-2 11-6 10-6 9-17-4-74-21-116-14-33-37-49-28-19-67-11-44 10-61 37-14 22-22 63-2 10-5 28-2 19-3 25-25 0-74-5-50-5-71-6v-3q-7-56 20-127.5T141-68q66-56 161.5-63T466-87q22 18 44.5 53.5T541 30q26 106 33 286.5T564 604q-3 4-4 8-36 7-91 7-4 0-7 1-9-1-16 5-16 17-35 21t-56 5q-44 1-83-10 53 3 105-14 30-10 80-44 4 9 13 14t19 2q8-2 14-7 9 11 23 11 12 0 20.5-8.5T555 574zm-114-79q-74 34-124 18-23-8-52-29.5T217 436q-41-56-8-93 31-35 106-30 45 3 123 24 4 121 6 156-2 1-3 2z"/><glyph glyph-name="afii10070" unicode="" horiz-adv-x="576" d="M250 227q2-56 20-79 14-18 42-13 59 10 144 91 2 2 4 3-6 0-30-1t-36-1q-87-3-144 0zm30 186q37 0 77 4-20 13-42 10-16-2-35-14zm262-45q4-4 7-9 1 60-13 100-2 7-6 13.5T519 486l-11 12q-4 4-15 13.5T479 524q-46 42-114 54 70-21 118.5-78.5T542 368zm-63-56q33 2 58 3 5 0 9-1 1 9 2 17-8-12-22-14zM135 461q7 29 16 49-3-4-6-9-43-62-59-182v-5h4q9 85 45 147zM475 28q1-1 2-3l4 4q19 18 77 84l-85 75q-88-81-154-93-51-8-80 28t-29 116q0 6 3 11-13 0-36 2 3-41 9-74 10-54 27-75 21-27 75-39.5t81 4.5q8 5 42 42 8 8 20 8.5t21-7.5q4-4 7-9l21 30q7 9 19 11.5t21.5-4.5 12-19-4.5-22q-27-38-53-70zM362-37q-38-1-80 5-63 10-108 56t-65 105.5T88 256q-4 0-7 1-3-78 13-127Q123 42 198.5-6T363-39q-1 1-1 2zm135 257l99-88q10-9 6-21 0-8-5-14l-25-29-33-38-30-30q-61-59-116-73-109-29-205.5 27T56 118q-26 80-9 207 17 128 64 198 42 61 116 85.5t150 8.5 128-63q2-2 13-11.5t16.5-15T549 512t15-19.5 10-19.5q25-73 6-217-1-9-9-14-5-11-18-11-31 0-74-1 3-2 5-4l1-1q7 0 12-5zM228 416q43 41 82 47 48 7 90-35 6-6 5-15 3-4 4-9 1-7-3.5-13t-12.5-7q-85-10-157-6-7 0-12 6t-5 13q0 5 3 9 1 6 6 10zm235-35q-8 12-22 35.5T416.5 454 394 477q-41 32-102 29-63-3-103-67-8-36-11-83 112-3 297 14-7 4-12 11z"/><glyph glyph-name="afii10072" unicode="" horiz-adv-x="820" d="M670 604q16-4 16-17l-1-4q24-12 98-97 12-22 12-30v-3q-1-11-20-19-130-132-139-138h-2l40-55Q756 109 806 0q5-4 4-16l-6-12q9 0 12-15v-6q-1-19-50-16l-130 2q-5-8-12-7h-7q-9 1-33 45l-57 93v-83q-6-31-16-30-177-8-187-10h-6q-12 1-18 19l2 16-1 107h-1q-24-40-76-116-1-21-51-18-70-8-135-8-22 1-32 17-8 6-7 14v6q0 4 17 26 39 59 144 204 31 41 47 69l-52 52q-49 49-95 86l-5-1q-19 6-18 18v6q0 9 20 20l121 129q1 14 25 15l3-1q5 0 30-26 10-5 75-81v1l-2 70v7q6 17 19 17l3-1 12-3 123-3q30-3 30-6 7 4 14 3 19-1 17-39l1-57q116 118 137 117h5zM510 421h-4q-15 1-17 24l2 7-2 93-27 3-116 3 7-105v-3q-6-18-17-17h-7q-12 1-81 88l-46 45-23-23v-1l8 2h9q12-1 39-49 36-56 92-126 18-26 23-29h1l11 19-1 2 2 68v11l4 13 2 75q5 17 22 19h8l12-5q7 8 19 7 20-1 22-28-2-137 4-138v-5l-4-11-1-16v-53h2q1 20 60 89 9 1 57 64 42 54 85 99l11 5v2l-8 7h-1q-66-59-138-134zm186 102v-2q13-13 12-24 0-9-41-56L562 304q4-1 19-29 36-47 118-198 43-80 42-97l-2-7 38 1q-45 91-87 167-41 71-83 127-9 8-9 15v7q1 11 13 14l-2 13q1 8 65 69 34 37 78 76-15 24-56 61zm-538-10l8-2v5l2 7zm-30-30l-37-41q53-40 145-138 13-5 12-15v-7q-6-28-125-187l-22-32h1q98 117 178 235v1q-59 82-138 168-14 7-13 16h-1zm325-296l-1-147q-7-19-21-18l-8 1-9 3-1-2q-5-24-24-23h-4q-24 2-22 49l3 184Q273 129 231 75q-23-3-24-7-32-48-63-72l-13-2q-17 6-17 10-14-8-21-8-25 5-24 21h-2L46-15l5-2q144 4 145 13 44 64 99 154 6 5 11 5h6q11-1 16-17 14-1 11-54l2-99 146 8 3 8q-1 126-9 126l1 8q0 14 21 16l28-10q42-80 98-165l42-2v1q-16 8-30 49-50 84-131 208v1h-2q-2 0-45-42-10-2-10-4z"/><glyph glyph-name="afii10073" unicode="" horiz-adv-x="574" d="M157 704l4-2 9 2 6-2 4 2 18-3 1 1h2q73-5 111-19 83-30 120-83 12-19 20-47h-1q3-4 4-29 0-66-60-135l32-13q86-49 121-129l9-30h-1l5-25-1-1v-2l1-8v-1l-1-1 1-2v-1q0-30-12-67l1-17-17-32q-61-73-86-73-25-17-79-35v1q-23-8-52-13v1l-38-8-1 1h-1l-11-2v1l-13-3v2l-13-3v1l-12-3-2 2h-1l-8-2-4 2-8-2-5 2-8-2-7 2-4-2q-67 6-115 22-18 11-33 14-8 8-8 20 6 9 22 81 4 11 12 53 13 9 29 9 30-11 46-11l5 1 6-1 9 1v-1l11 2 1-1h2l23 5v-1l39 12v-1q78 30 90 52 3 3 4 19 0 17-31 43-22 14-59 22l-44 5-6-1-4 1-37-5v1l-9-2q-19 0-25 28l-6 41 1 1v2l-3 9h2q-10 27-10 42l1 2v1l-2 8h1l-1 2v8q3 35 28 35l19 4h14l5 2 2-2h1l10 3 1-1h1q64 14 64 39v1q0 26-60 38h-12q-43-1-54-17 0-4-11-6h-2q-14 0-20 15l-1 6h1l-4 12 1 1v2l-5 24h1l-5 25h1l-12 53h1l-5 21q0 16 18 26 0 3 13 6l1-2h2q0 3 49 7v-1l1 1h15zm-43-43v2l-23-4 4-18h1q0 12 44 20l-2 2v1zm28 3v-1h7v1h-7zm127-9q0-3 24-9 58-26 82-51 36-41 41-74h1v2l-1 11h1q-3 31-35 66-47 41-112 55h-1zm-121-72v1q-19-2-40-16l2-9h1q21 7 50 10l10-1 4 1q44-7 64-20 35-29 35-49h-1l3-11q0-34-45-60l-8-3v-1h1l8 2v-1q82 26 82 80 0 41-72 68-16 7-64 11l-2-1h-1l-7 1-7-1-1 1h-1zm211-51v-1l4-12h-2l3-10q-4-37-10-43v-5h2q12 24 12 30v4q0 27-9 37zM184 325v2l-25-6v2l-17-7q3-8 6-8 9 0 15 3l1-2 10 2h6q116 0 166-66 15-26 15-43 0-44-38-67-23-21-90-42-19-7-62-15v1l-14-2v1l-1-1h-19q-33 0-45 6h-1q-3 0-7-20l27-5 1 1 6-1h3v1l9-1h7l12 1 4-1 10 1v-1l11 2 1-1 26 4v-1q15 0 90 27 52 23 95 58 31 36 31 60 0 59-88 98-63 22-108 22v1l-1-1h-7l-4 1zm308-57v-1l3-3v2zm4-6v-3q9-28 12-63l-1-5 1-4q0-60-61-117-55-44-105-60L306-3v1q-8-4-64-15v2l-13-3v1l-24-4-1 2-10-2h-11q-24 0-38 4l-4-1-1 1q-12-2-44-2v-2q68-13 102-13l7 1 5-1 6 1h2l2-1 12 2 1-1h2q58 7 61 9l1-1h2q89 17 141 53v5q3 22 19 22 40 28 56 73 5 21 8 49l-1 8h1q-5 39-26 77h-1zm-60-130l-1-4h1l1 2v2h-1zm-11-12l-1-4h1l2 1v3h-2z"/><glyph glyph-name="afii10074" unicode="" horiz-adv-x="590" d="M339-5q-74-18-148 21T83 129q-20 42-28 90-1-55 7-97 14-69 54-105 47-41 131-39 58 1 92 17zm72 37q-12-10-25-18 12-3 14-14l2-6h33q17 0 32.5 1t31 3.5T527 6l1 19q-8-10-21-11-12-1-21 7t-10 20q-2 26-3 54l-4-71q-1-12-10-20t-21-7-20 10-7 21v4zM184 88q47-39 104.5-39.5T390 91q-39-22-85-27-69-8-121 24zm-51 372q12 13 28 9 12-2 18.5-12t3.5-22q-20-91-22-144-4-84 25-126 17-25 47-36t66-7q35 4 64.5 21t44.5 42q4 7 11 11 3 130-1 271 0 12 8 21t20 9q10 0 18-6 7 19 26 20 12 1 21-7t10-20q5-74 7-221 2-140 3-170 1 10 3 52.5t3 56.5 2.5 52 2 56.5 1.5 52 1 56.5-.5 51.5T542 524q-20-1-74-2-49 0-78-4 1-10 2.5-37.5T395 438q4-78 1-131-6-77-30-118-33-57-97-48-23 4-36 28-9 17-14 46-7 45-2 123 5 77 23 190-68-2-128 3 0-10-2-22 4 0 7-1 12-4 17.5-14.5T137 472zM550-28q-10-5-21-8t-23.5-5-21-3-23.5-1.5-21-.5h-42q-3 0-6 1h-1q-16-4-23 10-45-25-121-27-99-2-157 49-51 45-67 127Q0 228 42 421q4 15 10 34 1 4 5 15t6 17q11 34 9 56v2q-3 6-2 11 1 9 7.5 14t14.5 4q75-9 163-5 14 1 19-12 9-8 8-19-20-133-25-203-5-74 2-114 3-22 9-33 4-7 7-7 37-6 56 28 20 33 25 101 3 50-1 126l-5 95q0 16 15 19 5 6 12 7 34 5 91 5 63 1 86 3 15 1 20-12 7-6 7-14 4-43 2.5-133T580 269t-7-138L567-2q0-7-6-13-2-10-11-13z"/><glyph glyph-name="afii10075" unicode="" horiz-adv-x="601" d="M147 849h30l21-3h33q29-2 29-22 12-49 24-49 31-13 46-13h11q38 0 51 31v19q-6 6-6 14 2 19 19 19h30q20 0 37-4l66 1q19 0 26-18l2-5q0-51-11-72-8-23-56-68-27-28-109-50l-53-6h-33q-88 0-164 53-38 34-45 57-19 30-23 64v8q0 11 8 15l-1 2v5q0 19 27 19zm-37-41v-5q0-11 15-41 14-43 54-67l34-16h3l-27 18q-41 34-41 83v5q6 22 22 22h5q20 0 22-27l8 2h6q14 0 25-26l22-13h4q-32 28-32 50-4 15-7 15h-6l-24-1-22 4h-19zm320-1v-13q0-12-13-36l-8-10h2q10 10 23 34l13 6h6l13-6 14 6h5q22-7 22-22v-6q-7-22-39-53-46-25-67-31v-1q19 0 64 24 39 34 42 45 16 14 16 45l3 3v12l-50-1h-6zm-53-139v-1h9l1 1v1zM339-5q-74-18-148 21T83 129q-20 42-28 90-1-55 7-97 14-69 54-105 47-41 131-39 58 1 92 17zm72 37q-12-10-25-18 12-3 14-14l2-6h33q17 0 32.5 1t31 3.5T527 6l1 19q-8-10-21-11-12-1-21 7t-10 20q-2 26-3 54l-4-71q-1-12-10-20t-21-7-20 10-7 21v4zM184 88q47-39 104.5-39.5T390 91q-39-22-85-27-69-8-121 24zm-51 372q12 13 28 9 12-2 18.5-12t3.5-22q-20-91-22-144-4-84 25-126 17-25 47-36t66-7q35 4 64.5 21t44.5 42q4 7 11 11 3 130-1 271 0 12 8 21t20 9q10 0 18-6 7 19 26 20 12 1 21-7t10-20q5-74 7-221 2-140 3-170 1 10 3 52.5t3 56.5 2.5 52 2 56.5 1.5 52 1 56.5-.5 51.5T542 524q-20-1-74-2-49 0-78-4 1-10 2.5-37.5T395 438q4-78 1-131-6-77-30-118-33-57-97-48-23 4-36 28-9 17-14 46-7 45-2 123 5 77 23 190-68-2-128 3 0-10-2-22 4 0 7-1 12-4 17.5-14.5T137 472zM550-28q-10-5-21-8t-23.5-5-21-3-23.5-1.5-21-.5h-42q-3 0-6 1h-1q-16-4-23 10-45-25-121-27-99-2-157 49-51 45-67 127Q0 228 42 421q4 15 10 34 1 4 5 15t6 17q11 34 9 56v2q-3 6-2 11 1 9 7.5 14t14.5 4q75-9 163-5 14 1 19-12 9-8 8-19-20-133-25-203-5-74 2-114 3-22 9-33 4-7 7-7 37-6 56 28 20 33 25 101 3 50-1 126l-5 95q0 16 15 19 5 6 12 7 34 5 91 5 63 1 86 3 15 1 20-12 7-6 7-14 4-43 2.5-133T580 269t-7-138L567-2q0-7-6-13-2-10-11-13z"/><glyph glyph-name="afii10076" unicode="" horiz-adv-x="616" d="M185 165q1-70 5-128 1-11-6.5-20T165 6l2-24q1-12-7-21t-20-10-21 7-10 20Q82 357 79 499q0 10 6 18-7 1-13 2 5-52 9-239.5T77-74q16-3 36-3.5t32.5-.5 39 1 35.5 2q0 23-2.5 72.5T215 72q0 10 7 16 1 0 1 1 6 6 14.5 6t14.5-5Q340 6 500-97q11 12 22 28-15-6-27 4Q356 47 185 165zM65 560q31-5 84-7 65-4 88-6 8-1 13-7t5-14q5-5 5-13-2-30 0-83 58 48 141 94 13 7 23-2 8 0 13-5 54-47 113-138 4-7 2.5-15t-8.5-13q-6-4-14-3-114-73-160-115 42-32 121.5-97.5T611 40q3-1 5-2 4-3 7-7 9-13 0-25-3-4-8-6-2-4-17-28l-21-32-18-26q-12-18-23-31t-23-25q-6-6-14-6t-14 6q-5 4-6 11Q338-40 256 32q4-107 4-111v-1q7-6 7-15 0-8-6-14t-14-6q-13 0-58.5-2t-79-.5T48-110q-9 2-13 9t-3 15q2 5 5 9v2q8 166 4 356.5T31 525q-2 14 12 20 2 7 8 11.5t14 3.5zm105-82q-1-31 17-201l16 15q47 44 65 58l57 40q39 28 59 44 10 7 21.5 5.5t19-11 6-21T420 388l-23-17q14-3 20-16 4-11 0-22.5T402 316q-42-18-106-69l-17-13q41-29 109-84 91-74 126-97 9-7 11.5-19T521 12q-6-8-16-11l26-20q11-9 11-22l36 56-116 93q-81 67-127 101-7 6-8 15-11 14 2 27 53 49 173 127-47 69-89 107-93-52-153-109-11-10-24-2-14 3-15 18-4 17-2.5 58t1.5 58q-17 2-73 5h-14q2-2 3-5h6q12 0 20-9t8-21z"/><glyph glyph-name="afii10077" unicode="" horiz-adv-x="633" d="M544 50l8-24 64 33h1q-45 186-222 481-15 0-43.5-1t-42.5-1q-28-43-71-123-56-104-75-135L87 157q63 80 104 140 3 4 52 86 34 57 67 87 6 5 13 7-4 10-.5 20.5T335 513q11 6 22.5 3t17.5-13q41-71 106-208 73-154 101-205 6-10 3-21.5T571 51q-13-8-27-1zM294 577q37 3 107 3 9 0 15-7 7-2 11-9Q615 252 659 58q1-8-3-14.5T644 35q-3-8-10-12l-79-40q-48-24-83-38-8-3-15.5.5T446-43q-1 3-1 6 0 1-1 1L342 213Q274 48 190-60q-7-8-17-8-9-12-23-7-34 13-94.5 47.5T-7 8q-8 4-10.5 12t1.5 15q1 1 1 2-3 7 1 15 13 30 32 66t35 60l40 64 36 58q17 28 74 134 45 83 74 129 4 13 17 14zM497 7q-25 81-84 204l-55 113q-33-45-80-119L167 31q-7-10-19-12t-22 5-12 19 5 22q22 31 110 171 58 92 102 147l-8 16q-13-18-30-46-50-83-54-90-47-67-126-166-8-9-20-10.5T72 92q-10 9-11 22-23-41-38-77 16-8 43.5-24.5t49-28T159-35q46 59 89.5 141.5T321 270q3 8 10.5 11.5t15.5.5q6-3 10-8 5-4 8-10L477-10l24 10q-2 3-4 7z"/><glyph glyph-name="afii10078" unicode="" horiz-adv-x="816" d="M602 426l49-121-22 60q-6 14-13.5 37.5T605 433zm-30 76q3-3 5-6-2 19 14 29 10 6 21.5 3t18.5-13q11-19 20.5-41t19.5-51l12-38 60-164-1 5q-46 147-124 335l-33-9q-23-7-29-8 1-3 2-5zM399 119q-16-13-33-3-1 0-2 1l28-57q21-3 48-6 1 2 2 3 57 94 98 176 4 7 12 10t15-1q8-4 10-13l1-1q2-6 18.5-50t22.5-62.5T634.5 63 647 3q20 6 56.5 15T758 33q-2 2-3 5-31 68-70 175 29-87 42-161 2-12-5-22t-19-12-22 5-12 19q-9 52-26 108-17 57-32 98l-42 105q-66-142-121-233-7-10-18.5-13t-21.5 3q-6 4-9 9zm-263 23l-12-24q-5-11-16-15t-22 1-15 16 1 22l36 76 39 82q13 29 31.5 72.5t31 82.5 21.5 78q2 12 12.5 18.5t22 4 18-13T287 521v-3q15-3 20-17 45-116 63-149 2-6 19-36l25-47 26 54q50 105 79 155l-15 41q-2 6-2 12h-1q-6-16-16-37l-20-40q-22-47-26-76-1-9-7.5-14t-14.5-4q-12 2-16 12-7 6-8 14-2 21-18 72-14 44-17 70-80 32-141 45-20-76-61-187L85 194q-5-15-16-44l-16-44q-5-16-10-39.5T37 23q80-39 149-52l27 83 30 100q13 43 23 84 1 11 12 16 7 4 15 1t11-11l47-101q1 7 4 12-38 69-85 180-14-39-40-103-11-25-39-109-25-70-45-112-5-10-16.5-14t-22 1T93 14.5 94 37q19 38 42 105zm261 400q1-25 16-71l6-20q4 9 10 20l20 41q10 22 16 38 2 5 6 8 4 11 16 12 24 2 70 15l56 16q3 4 7 5 8 4 15.5.5T646 596q86-203 134-358 2-6 29-82t35-117q1-8-3.5-14.5T829 16q-1-1-2-1-25-11-55-20t-65.5-18T653-37q-8-3-15.5 1T628-24q-8 0-13.5 5T608-6q-7 58-53 180-35-65-79-137-2-4-6-7v-1q-1-8-8-13t-15-4q-36 6-63 8-5 1-9 3-10 2-15 11l-69 143q-12-44-36-123L222-49q-1-2-2-5-1-8-8-13t-15-4Q113-59 16-11 8-7 6 1q-9 6-9 17 0 24 5.5 52T14 116l17 48q12 32 16 42 4 13 71 194 43 117 63 193 0 2 1 4v2q1 8 8 13t15 4q66-10 169-51 4-2 7-4 15-3 16-19z"/><glyph glyph-name="afii10079" unicode="" horiz-adv-x="672" d="M431 626h186q16-4 16-15v-5l-1-8q4 0 17-491 2 0 5-97-5-17-17-17h-9l-2 1q0-9-151-9 0-4-12-7l-27 1q-4-7-11-7h-5q-18 0-18 37-7 109-7 151v6q0 6-42 6l-87-1 5-173q-3-16-16-16h-8l-1 1h-2q0-2-9-5l-124-1H44Q23-23 20 9l-2 8v3l3 16 3 237q0 148-6 303-5 2-5 9v7q0 18 45 18 95 7 143 7h26l5-2 5 2q19 0 19-32l14-208h25q42 0 96-7v2q-9 167-9 217v9q0 25 20 25l4-1q6 4 25 4zm-11-41q0-44 11-238 0-9-15-16-92 8-123 8h-1l-11-3h-8q0-11-15-14h-7q-19 0-19 48-10 129-12 209h-18q-43 0-145-7 5-148 5-309 0-123-4-249h60l115 2-1 5-4 150q4 39 18 39l17-1 93 1 50-3 8 3h2q12 0 19-14l-2-27v-15l6-134q5 2 15 2h27q-7 9-12 59 1 8 6 16l-8 144h-1l-6-1q-130-7-201-7h-61l1-117q0-71-12-71-6-6-18-6l-12 4q-4-25-20-25h-8q-17 3-21 21l-4 219q-39 0-39 27 5 23 23 23h8l7-1-2 156v71q4 30 22 30h8q5 0 13-6 8 6 15 6h4q16 0 24-24v-12q0-7-3-7 6-70 11-213 220 8 267 12-7 112-7 172v34q0 28 23 32h6q6 0 15-5 5 21 20 21h8q17 0 22-25l-3-11 11-238h4q29-5 29-27 0-24-30-26l8-173q7-6 7-18 0-18-26-23h-2q-10 0-20 11 0-17-4-22l14 2q37 0 78 4l-19 560H426q-6 0-6-3z"/><glyph glyph-name="afii10080" unicode="" horiz-adv-x="663" d="M357 464q-35-9-58-36t-31-63q-9-43 4.5-75.5T317 249q52-11 85 17 32 26 38 74 6 45-16 81t-67 43zm50 26q42-21 60.5-65t12.5-91q-9-62-52-98-49-42-119-25-52 12-72 60t-8 102q10 44 38.5 79t71.5 49q6 5 14 4h1q16 3 33 3 8 0 13.5-5t6.5-13zM248 680q4 5 10 8 154 62 277-22 53-36 90-94 38-58 56-127 14-54 16-110t-11.5-110-40-99.5-72.5-80T467-3q-68-17-168-4Q190 8 139 45q-75 55-99.5 154.5T38 406q21 96 76 171.5T248 680zm136-149q-43 1-69-2t-50-16q-45-25-70.5-77T171 324q1-59 30-102.5t81-55.5q44-10 89 7.5t79 55 45.5 82.5-3.5 90q-7 17-16.5 31.5T461 453t-25 25.5-27 25.5q-6 7-14 16zm-10-418q71-3 109 22 34 23 56 68 23 44 30 103 7 56-2 108-8 54-29 89-23 38-61.5 62T392 596q10-5 19-12 5-4 40-38 6-7 20-21l22-21q8-8 19-21.5t19-28.5 15-33q21-65 6-124t-59-107q-51-57-119-77zm-34 511q-95-18-156-91t-69-164q8 62 39.5 114.5T237 563q36 20 81 25 3 9 10.5 15t17.5 6q-5 7-6 15zm149 1q64-33 99-92 27-45 37-108 9-62 1-127-8-68-36-124t-75-87q-58-38-162-31-113 8-184.5 61T70 251q16-118 93-174 42-31 142-44 91-12 152 2 51 13 90.5 42.5t63.5 69 36 87.5 10.5 99T642 434q-16 64-49.5 116T512 633q-5 4-11 7-3-10-12-15z"/><glyph glyph-name="afii10081" unicode="" horiz-adv-x="590" d="M277 550q74 18 148-21t108-113q20-42 28-90 1 55-7 97-14 69-54 105-47 41-131 39-58-1-92-17zm-72-37q12 10 25 18-12 3-14 14l-2 6h-33q-17 0-32.5-1t-31-3.5T89 539l-1-19q8 10 21 11 12 1 21-7t10-20q2-26 3-54l4 71q1 12 10 20t21 7 20-10 7-21v-4zm227-56q-47 39-104.5 39.5T226 454q39 22 85 27 69 8 121-24zm51-372q-12-13-28-9-12 2-18.5 12t-3.5 22q20 91 22 144 4 84-25 126-17 25-47 36t-66 7q-35-4-64.5-21T208 360q-4-7-11-11-3-130 1-271 0-12-8-21t-20-9q-10 0-18 6-7-19-26-20-12-1-21 7T95 61q-5 74-7 221-2 140-3 170-1-10-3-52.5T79 343t-2.5-52-2-56.5-1.5-52-1-56.5.5-51.5T74 21q20 1 74 2 49 0 78 4-1 10-2.5 37.5T221 107q-4 78-1 131 6 77 30 118 33 57 97 48 23-4 36-28 9-17 14-46 7-45 2-123-5-77-23-190 68 2 128-3 0 10 2 22-4 0-7 1-12 4-17.5 14.5T479 73zM66 573q10 5 21 8t23.5 5 21 3 23.5 1.5 21 .5h42q3 0 6-1h1q16 4 23-10 45 25 121 27 99 2 157-49 51-45 67-127 23-114-19-307-4-15-10-34-1-4-5-15t-6-17q-11-34-9-56V0q3-6 2-11-1-9-7.5-14T524-29q-75 9-163 5-14-1-19 12-9 8-8 19 20 133 25 203 5 74-2 114-3 22-9 33-4 7-7 7-37 6-56-28-20-33-25-101-3-50 1-126l5-95q0-16-15-19-5-6-12-7-34-5-91-5-63-1-86-3-15-1-20 12-7 6-7 14-4 43-2.5 133T36 276t7 138l6 133q0 7 6 13 2 10 11 13z"/><glyph glyph-name="afii10082" unicode="" horiz-adv-x="602" d="M269 283q49 0 75 11 17 7 23 17 8 12 4 31-1 10-10 21.5T343 379q-14 7-41 3l-27-6-11-2q0-3 2-50 1-26 3-41zm130 278l1-1q36-13 68.5-48.5T518 439q27-57 27.5-108.5T525 240q-20-38-59-68-73-56-195-80 66-7 128 13t105 60.5 62 98.5 0 127q-27 95-93 138-33 22-74 32zm-242 30q2 0 31.5 4.5t34.5 5 32.5 4 36 3 33.5.5 36.5-1 33-5 36-8.5T463 580q17-7 32-17 79-52 109-162 23-81 1.5-147.5t-70.5-113T418 70 278 51q2-10 6.5-35t6.5-38 5-39 0-39q-1-13-14-17-4-8-13-10-94-21-182-21-8 0-14 6t-6 14q-2 4-3 8Q46 6 45 220q-1 250-8 336 0 4 1 7-2 3-3 5-3 8 .5 15.5T47 594q3 1 14.5 5.5t21.5 8 19 5.5q19 3 34-3 13-6 21-19zm55-53q28 11 46 17 33 10 60 13-41 0-107-9 2-6 2-12zm1-455q4-39 11-76 2-12-5-22t-19-12h-10q3-22 8-41 3-10-2-19.5T182-101q38 4 75 13 0 20-2.5 42.5T246 7t-9 47q0 4 1 8-5 7-4 15 1 5 4 10zm-60 432l2 36q-3 0-6 1h-6q1-3 1-7l3-32zm138-359q88 22 139 62 73 56 55 143-3-43-23-76-49-82-171-129zm-49 255q8 1 25 5 19 4 29 5 39 6 65-6 18-9 32-28t18-39q3-19-1-36l2 3q17 33 15 68t-24.5 64-56.5 34q-29 5-68.5-9.5T206 433q-6-140-1-245 99 28 153 69-34-14-93-14-4-4-9-5-9-1-15.5 3.5T232 254q-4 25-5.5 69t-4.5 63q-2 14 10 21 5 3 10 4zM77 560q7-87 8-340 1-207 18-328 30 1 62 4-18 4-23 22-7 24-10 50t-5 65-3 47L86 541q-1 11 7 20.5t20 10.5q5 0 10-1-2 1-3 2-4 2-12 0-9-1-31-11v-2z"/><glyph glyph-name="afii10083" unicode="" horiz-adv-x="589" d="M588 192q-98 41-150 45-40-101-99-105-29-1-52 18-23 20-38 51-32 65-17 128 9 35 33.5 58.5T330 417q67 9 130-39 12 12 28 24l26 20q9 7 30.5 21.5T571 462q-6 8-12.5 15.5T542 495l-14 14-20 17q-14 12-16 14-55 48-114 60t-109-6.5-94-61.5q-66-65-96-160.5T71 188Q98 85 179.5 30T374-25h8q64 0 89 12 44 21 73.5 78T585 186q1 3 3 6zM482 99q-40-46-108-46-33 0-70 13 32-12 62-15 54-5 87 17 18 11 29 31zm-51 179q62-3 179-52 7-3 10.5-10.5T620 200q0-2-1-3 8-8 6-19-6-30-16-61.5T583 52 542.5-8 489-49q-7-3-15-5l-14-5q-6-2-16-3l-14-2q-5 0-15.5-.5T400-65h-26Q249-65 156-2 64 60 33 178 7 278 40 383q34 106 107 177 51 49 109.5 71t128.5 8.5T518 570q4-3 15-12.5t16-14.5 15-14 16-15.5 13.5-15.5 13.5-17q8-2 13-8 12-16-4-28t-46-32.5-51.5-37T480 341q-8-8-19-6-9-1-17 5-54 44-108 37-53-7-65-58-12-49 14-101 11-23 25-35t26-11q15 1 32.5 20.5T403 259q3 8 11 11 7 8 17 8zm28 194q-61 62-128 50-36-7-70-34 64 31 137 18 12-3 19-12.5t4.5-21.5-12-19-21.5-5q-32 6-56 2.5T279 432q-110-57-112-135-1-67 68-127 32-27 69.5-43t70.5-16q67 0 83 68 3 11 13 17.5t22 3.5q10-2 16-10t6-18q6 1 12 1 12-1 19.5-10.5T553 141q-9-83-68-122-50-33-125-26-65 7-128 42t-96 84q-35 53-39 120.5T114 368q20 61 59 112 64 83 148 99 97 17 180-65 8-9 8-21t-8.5-20.5T480 464t-21 8z"/></font>
</defs>
</svg>
