<?xml version="1.0" standalone="no"?>
<!DOCTYPE svg PUBLIC "-//W3C//DTD SVG 1.1//EN" "http://www.w3.org/Graphics/SVG/1.1/DTD/svg11.dtd" >
<svg>
<metadata>
Created by FontForge 20120731 at Sun Apr 28 16:04:52 2019
 By www-data
Original font (c) Khrys Bosland.
Cyrillic glyphs (c) 2019 dsp2003.
</metadata>
<defs>
<font id="KBLuckyCloverCyr" horiz-adv-x="692" >
  <font-face 
    font-family="KBLuckyCloverCyr"
    font-weight="500"
    font-stretch="normal"
    units-per-em="1000"
    panose-1="2 0 6 3 0 0 0 0 0 0"
    ascent="800"
    descent="-200"
    x-height="610"
    cap-height="777"
    bbox="-98.2222 -248.8 1177 1014.17"
    underline-thickness="50"
    underline-position="-100"
    unicode-range="U+0020-3000"
  />
<missing-glyph horiz-adv-x="364" 
d="M66 33h199v600h-199v-600zM33 0v666h265v-666h-265z" />
    <glyph glyph-name=".notdef" horiz-adv-x="364" 
d="M66 33h199v600h-199v-600zM33 0v666h265v-666h-265z" />
    <glyph glyph-name=".null" horiz-adv-x="0" 
 />
    <glyph glyph-name="nonmarkingreturn" horiz-adv-x="333" 
 />
    <glyph glyph-name="space" unicode=" " horiz-adv-x="300" 
 />
    <glyph glyph-name="exclam" unicode="!" horiz-adv-x="280" 
d="M100 745q-3 0 -7 -1l-1 -6q4 4 8 7zM180 -41l-77 18l-8 2q2 -14 3 -26q18 1 57 4q16 1 25 2zM146 635q1 45 2 109q-11 1 -21 1q15 -8 16 -25zM148 242q-9 -10 -21 -10t-21 8t-9 20q-6 251 -10 397q0 -8 -1 -17q-2 -102 -2 -108q0 -7 -2.5 -61t-3.5 -68l-2 -59
q-1 -44 -0.5 -67t1.5 -58t3 -65q27 4 63 6q-5 9 -4 19q5 31 9 63zM289 739q-7 -26 -8.5 -55t-1 -72t0.5 -60q-1 -45 -6.5 -181t-5.5 -210q0 -14 -13 -19q-1 -7 -6.5 -12.5t-12.5 -5.5q-14 -1 -43 -1.5t-45 -1.5t-39.5 -3.5t-42.5 -7.5q-8 -1 -15 3t-9 13v7v1
q-3 32 -4.5 69.5t-2 61.5t1 72.5t1.5 61.5t3 72t3 63q0 6 2 107q2 65 7 108q0 3 2 6q-2 3 -2 6q-1 8 4.5 14.5t13.5 7.5q37 3 87 1q8 8 21 8q14 0 22 -11q39 -3 56 -4q14 -1 18 -14q8 -2 12 -9t2 -15zM267 55q3 -37 -7 -111q-2 -11 -12 -15q-6 -8 -16 -8q-23 0 -74 -4
t-77 -4q-8 0 -14 6t-6 14v1q-2 4 -2 8q-1 18 -6 51q-6 39 -8 54v6v4q0 8 6 14t14 6q30 0 88.5 -1.5t88.5 -1.5q3 0 6 -1q8 -1 13 -6t6 -12zM214 671q15 -200 -4 -396q0 -9 1 -18q1 -10 -5 -19q-4 -34 -9 -67q-1 -5 -3 -8q24 0 34 1q0 73 5.5 208.5t6.5 179.5q0 14 -0.5 54.5
t1 72t7.5 58.5q-16 1 -42 3q0 -28 -1 -50q8 -8 9 -19zM115 33l87 -20q11 -3 17.5 -13t3.5 -22q-3 -11 -12 -17h11q6 47 6 73q-25 0 -72 1.5t-69 1.5q0 -5 1 -12q12 12 27 8z" />
    <glyph glyph-name="quotedbl" unicode="&#x22;" horiz-adv-x="383" 
d="M217 655q-10 -44 -14.5 -65.5t-10.5 -58.5t-5 -66.5t8 -57.5q2 -8 -2 -15t-12 -9q-3 -1 -5 -1q-4 -2 -8 -2q-86 -4 -110 -3q-8 0 -13.5 6.5t-5.5 14.5t6 13q0 189 16 281q2 8 8.5 12.5t15.5 3.5q1 0 1 -1q5 1 9 1q12 -2 57 -12q31 -7 51 -7q8 0 14 -6t6 -14t-6 -14z
M385 657q10 -8 8 -20q-27 -117 -27 -244q0 -8 -6 -14t-14 -6q-4 -2 -9 -2q-15 0 -46 -0.5t-46 -0.5q-8 0 -13.5 5.5t-6.5 12.5q-3 5 -3 11q0 47 7 139t7 136q0 8 6 14t14 6q4 0 7 -1q1 0 3 -1q18 -5 50 -11q41 -7 55 -11q11 -2 14 -13zM124 508v-28v-37q0 -18 -16 -26
q9 0 44 2q-7 41 -3 91q-8 -5 -18 -4q-4 1 -7 2zM309 598l2 14q2 11 10.5 17.5t18.5 6.5q-2 0 -31 6h-1q4 -7 3 -15zM297 443q-8 -6 -18 -6q-9 0 -16 5q-1 -17 -1 -32q9 0 31 0.5t33 0.5v3q-12 0 -20.5 8.5t-8.5 20.5z" />
    <glyph glyph-name="numbersign" unicode="#" horiz-adv-x="749" 
d="M339 244q34 -1 62 0q-11 1 -30 3l-30 3q0 -3 -2 -6zM456 361q-40 7 -77 7q-2 0 -5 1q-4 -16 -12 -44t-10 -36q6 0 24 -2t28 -3q13 -1 23 -2q14 42 29 79zM472 289l-3 -9h2zM457 691q-19 -60 -31 -130q12 -1 23 -3l18 59q13 44 18 75q2 8 8.5 12.5t15.5 3.5q3 -1 7 -3
q20 0 50 -1q8 5 18 5t18 -7q39 -2 64 -2q8 0 14 -6t6 -14q0 -3 -1 -6q2 -6 0 -11q-2 -8 -11 -47t-16 -60q25 2 58 2q10 0 16 -9q8 -5 9 -13q3 -20 8 -93q4 -58 11 -89q1 -8 -3.5 -15t-12.5 -9q-11 -2 -18 6q-13 1 -66 3q-32 1 -51 3q-1 -11 -5 -27l-4 -20h4q19 0 30 -1
q38 -2 62 -17q7 -4 8.5 -12.5t-2.5 -15.5q0 -106 3 -143q1 -9 -4.5 -15t-13.5 -7h-3q-5 -4 -11 -4l-93 -4q-1 -98 -9 -164q-1 -7 -6.5 -12t-12.5 -5q-5 -13 -19 -13q-10 0 -21.5 -0.5t-25.5 -0.5t-22 -1q-43 -1 -72 2q-8 1 -13.5 7.5t-4.5 14.5q0 3 2 7q0 3 -2.5 84t1.5 88
q-17 5 -41 5q-11 -118 -4 -166q1 -9 -4 -15.5t-13 -7.5q-7 -1 -12 2h-4q-104 0 -160 -5q-9 -1 -15 4.5t-7 13.5v4q-2 5 -2 11q1 16 15 166h-46q-10 0 -16 8q-15 5 -14 21q2 18 3 70q0 47 4 75q1 8 7.5 13t15.5 4q1 0 3 -1q3 1 6 1h58q2 9 5 30q2 13 4 22h-65q-8 0 -14 6
t-6 14q0 4 1 7v4v153q0 8 6 14q4 12 16 14q69 10 121 7q2 6 22 79q17 62 38 96q8 14 24 9q7 5 15 4q11 -2 41.5 -7t50 -7.5t38.5 -2.5q8 0 14 -6t6 -14q0 -11 -9 -17zM285 246l20 -1q-4 7 -2 15q5 23 19 72l21 73q-18 1 -34 2q-16 -76 -22 -139zM432 187l28 -2v3
q-15 -1 -28 -1zM590 386q25 -6 71 -7q39 0 54 -2q-3 24 -6 63q-4 58 -6 78q-37 -1 -65 -5h-5q-7 -3 -14.5 1t-10.5 11.5t1 15.5q6 12 11 28t8 28l8 32q5 20 7 31q-14 1 -32 1q-4 -67 -29 -170l-1 -3q44 -2 78 -1q12 0 21 -8t9 -20t-8 -21t-20 -9h-34q1 -4 1 -8
q0 -12 -8.5 -20.5t-20.5 -8.5q-20 0 -42 1q-11 -43 -17 -80q-5 -30 -9 -60q22 2 40 3q-16 4 -15 20q0 4 2 7q1 9 7 40q4 19 5 30q-6 8 -4 17q2 8 9 12.5t15 3.5zM458 514q-18 7 -54 7q-8 0 -14 6t-6 14v4v7q12 74 31 137q-23 2 -59 9v-4q18 -11 13 -31l-39 -166q41 0 99 -2
q16 -1 73 -4q11 88 14 156q-4 -18 -11 -41l-21 -68q2 -6 0 -12q-3 -8 -10.5 -11.5t-15.5 -0.5zM133 245q35 2 80 2q7 44 16 88l15 74q-47 1 -88 -2q-12 -1 -21 7t-10 20t7 21t20 10q10 1 21 1q4 20 24 23q30 4 66 7l5 20q21 99 29 167q-9 -22 -19 -58q-21 -75 -25 -86v-5
q-2 -14 -15 -17q-8 -4 -15 -1q-1 1 -2 1q-46 3 -107 -5v-134q47 0 72 -1q8 0 13.5 -6.5t5.5 -14.5q0 -7 -6 -13q-2 -11 -5 -34q-3 -17 -5 -26q6 -5 7 -13t-4.5 -14.5t-13.5 -7.5q-24 -2 -81 -2q-2 -20 -2 -52q-1 -44 -2 -59h40q5 13 20 12q8 -1 13.5 -7t4.5 -15l-1 -5
q1 -3 1 -5q0 -4 -2 -8q-1 -15 -6 -76l-9 -93q50 3 134 3q-3 43 7 158q1 6 4 10q0 8 6 13.5t14 5.5q44 0 68 -7q3 0 5 -2q4 1 8 1q8 -1 13 -7.5t4 -15.5q-4 -25 -4 -52.5t1.5 -67.5t1.5 -56q19 -1 47 -1q8 1 22 1t25.5 0.5t21.5 0.5q8 64 8 163q-3 5 -3 11q0 8 6 14
q5 10 17 10q7 0 12 -4q27 0 92 4q-2 33 -2 129q-7 2 -16 4q12 -9 12 -24q0 -12 -8.5 -20.5t-20.5 -8.5q-37 0 -104 -6l-1 -10q14 -1 29 -1q12 0 20 -9t8 -21t-9 -20t-21 -8q-16 0 -31 1q-7 -98 -15 -151q-2 -12 -12 -19t-21 -6q-11 2 -18 10t-7 19q-12 9 -15 25q-2 10 2 25
q1 8 3 13.5t2.5 8t0.5 5.5q0 13 11 22q1 13 3 31l1 19q-98 3 -176 12l-1 -20q-4 -101 -9 -151q-1 -12 -10.5 -19.5t-21.5 -6.5t-19.5 10.5t-6.5 21.5q1 6 1 12h-4h-5q-11 2 -18.5 12t-5.5 22l20 129q-37 5 -73 13q-11 2 -18 12t-4 22q1 5 4 10q-2 3 -2 7q-1 12 7 21t20 10z
" />
    <glyph glyph-name="dollar" unicode="$" horiz-adv-x="606" 
d="M429 458q-13 -8 -24 3q-14 14 -20 17q-3 2 -7 3q1 -15 3 -32q109 -51 151 -92q34 -32 57 -77t29 -92q15 -113 -64 -182q-69 -60 -185 -80l-2 -18q-2 -13 -15 -16q-3 -1 -5 -2q-94 -14 -156 -8q-8 1 -13.5 7.5t-4.5 14.5q0 2 1 4l-1 1q-4 22 -5 38q-6 4 -26.5 16.5
t-31.5 20.5l-28 19q-17 12 -29 23q-70 61 -70 135v3q-2 14 10 21q18 10 76 41q47 25 72 41q7 4 15 2.5t13 -8.5q6 -9 1 -19l14 -25q0 4 1 16q0 30 1 47q-33 14 -59.5 28.5t-54.5 35.5t-48.5 49.5t-31.5 61.5q-13 46 -2.5 94.5t40.5 91.5q25 37 60 62.5t75 29.5q-1 4 -2 7
q0 1 -1 24q-1 14 12 19q5 5 12 6l58 6q8 5 17 5q4 0 8 -1q19 2 39 6q10 11 25 9q6 -1 11 -4q14 -2 17 -16v-6q5 -4 6 -11q3 -23 6 -57q93 -41 133 -113q2 -3 2 -5q3 -1 5 -2q7 -3 10.5 -10.5t-0.5 -15.5q-19 -45 -85 -111q-4 -4 -9 -5zM205 476q0 14 1 42t1 41
q-16 -8 -26 -23q-18 -29 2 -48q7 -6 22 -12zM187 594q-30 -10 -48 -40q-15 -27 -9 -46q2 -8 5 -15q-8 32 13 64q15 24 39 37zM473 174q-4 -26 -22 -46q-32 -34 -98 -44h-4q-1 -7 -6 -12q23 4 44 11q48 15 69.5 37.5t17.5 49.5q-1 2 -1 4zM412 231l-62 30q0 -30 -1 -137
q51 8 72 31q17 18 11 41q-4 18 -20 35zM225 409q-1 8 -1 16q-2 0 -4 1q-5 3 -14 6l-16 6q-21 9 -33 19q14 -16 32 -32q16 -8 36 -16zM532 146q-3 -28 -21 -52q21 22 23 45q0 2 -2 7zM95 97q-17 20 -36 48q-10 15 -1 30l-35 -19q2 -53 56 -100q13 -12 30 -24l-7 11l-6 11
q-3 6 -5 8q-11 19 4 35zM317 68h3q-1 1 -3 2v-2zM289 691l8 71l-8 -1q-2 -36 -3 -69zM282 -50q-8 -3 -15 -2q-11 2 -18 10q-23 1 -43 5q2 -4 2 -8q1 -20 4 -34q48 -3 117 7l1 5q-2 3 -3 8q-1 8 4 14.5t14 7.5q82 10 145 46q-37 -19 -83 -32q-51 -14 -103 -18q-9 -9 -21 -9
h-1zM227 295q-2 -20 -3 -63q0 -44 -2 -66v-1q6 -6 5 -14.5t-7 -14t-14.5 -4.5t-13.5 7q-31 35 -54 79q-20 -12 -51 -27l-1 -1q14 -2 21 -13q27 -40 54 -65.5t63 -38.5q10 -4 26 -5q-2 20 -4 46q-13 123 -14 138q-3 36 -4 74q-42 25 -72 50q-7 4 -14 9q-75 45 -89 120
q-11 60 13 103t72 65q40 19 90 21l2 59q-14 -1 -27 -3v-2v-2v-2q0 -1 1.5 -5.5t3.5 -11.5q1 -2 1 -5q2 -5 2 -11q-1 -8 -7.5 -13.5t-14.5 -4.5q-34 3 -67.5 -17t-58.5 -57t-34 -78t1 -74q17 -52 61.5 -87.5t110.5 -63.5q3 1 7 1q8 -1 13.5 -7.5t4.5 -14.5zM366 522
q24 0 40 -9q7 -4 14 -11q45 45 61 77q-6 2 -9 8q-35 63 -120 99q-2 1 -5 3l-1 -14q14 -6 28 -14.5t30.5 -20t21.5 -14.5q10 -6 12.5 -18t-4.5 -22q-6 -9 -17 -12t-21 2q8 -8 7 -19.5t-9 -19.5t-20 -8t-21 9q-7 7 -16 15q-4 -79 -6 -166v-15q62 -23 107 -52t71 -77
q10 -6 18 -13q29 -20 44 -39l7 -9q-5 41 -25 80t-49 67q-17 17 -46 34.5t-48 26.5l-55 28h-1q-9 5 -11 15q-5 37 -5 66q0 8 5 13.5t12 6.5q5 3 11 3z" />
    <glyph glyph-name="percent" unicode="%" horiz-adv-x="860" 
d="M712 158q-2 1 -5 2t-6 1q-19 -6 -29.5 -23t-11.5 -35q0 -14 6 -19t20 1q26 12 33 36q0 18 -5 31zM148 569q-24 -5 -36 -24q-15 -25 10 -40q14 -9 26.5 -4t18.5 20q11 28 -19 48zM165 730q49 -17 90 -62q30 -32 46.5 -70t14.5 -84q-3 -46 -33 -86q-26 -35 -55 -55
q-28 -20 -68 -24q-91 -9 -141 48q-45 49 -43 129q2 50 23.5 99t58.5 81q2 4 4 6q17 19 43 24q17 8 36 13q8 1 15 -3t9 -13v-3zM669 323q-1 3 -1 6q0 8 6.5 13.5t14.5 5.5q106 -5 154 -74q41 -59 26 -147q-13 -81 -69 -143q-56 -64 -131 -68q-88 -5 -134 65q-39 60 -28 146
q8 70 50.5 126t111.5 70zM321 136q-26 -60 -30 -109q-1 -12 -10.5 -19.5t-21.5 -6.5q-16 2 -23 17l-29 -103l122 -40l16 40q-13 -10 -28 -3q-7 3 -11.5 8t-5.5 9v4q-1 3 -1 7q-18 11 -13 32q13 53 35 164zM578 617q-23 -70 -78.5 -224.5t-80.5 -237.5q-8 -24 -21.5 -74.5
t-21.5 -76.5l16 50l60 196q19 60 43 121.5t62 150t50 118.5l-10 5v-1zM536 658l9 14q-28 12 -53 20q-13 -19 -23.5 -41t-25 -56.5t-20.5 -46.5q-64 -143 -121 -314q46 102 91 188l15 46q60 176 61 181q4 11 14.5 16.5t22.5 2.5q17 -6 20 -23q3 8 10 13zM123 635
q-48 -30 -62 -87q-11 -44 7 -75q21 -34 73 -42q16 -3 29 18q6 10 10 25q-38 -30 -80 -3q-27 17 -32 45t10 49q14 24 40 36v2q3 8 10.5 11.5t15.5 0.5q6 -3 12 -5h4q-16 20 -37 25zM208 642q5 4 10 6l-12 12q-4 -3 -8 -5q5 -6 10 -13zM237 463q-6 -24 -17 -43q-2 -4 -5 -7
q17 14 36 39q44 58 13 130q4 -40 -4 -95q-3 -21 -23 -24zM708 30q3 13 5 24q-6 -3 -11 -5q-37 -16 -62 4q-20 17 -20 51q1 33 21 61q-3 14 10 21q12 7 23 11l-19 11q-16 -12 -25 -27q-25 -41 -10 -99t57 -68q8 -2 31 16zM762 202q-14 18 -28 42l-18 -6q39 -28 52 -65
q7 -18 9 -40q1 25 -12 54q-4 7 -3 15zM827 187q4 -13 6 -26q2 54 -23 90q-12 17 -29 29q3 -6 7 -12.5t5 -8.5t3 -5t4 -5.5t4 -6t8 -10.5l11 -16q10 -13 4 -29zM652 274q7 3 14 7l-16 -6zM604 240q-1 2 -2 3q-46 -47 -56 -121q-8 -71 23 -119q33 -50 98 -47h5q-5 1 -9 2
q-39 9 -64 39.5t-35 69.5q-10 35 -6 74.5t22 69.5q10 16 24 29zM494 733q63 -18 146 -66q12 -7 10 -21q1 -6 -1 -12l-52 -122q-37 -85 -62 -149t-45 -125l-59 -196q-37 -117 -70 -194q-1 -3 -4 -6q-3 -7 -10 -10t-15 -1q-30 11 -87 29l-69 23q-8 3 -12 10t-1 15q1 3 3 6
q99 381 221 650l19 46q15 35 27 59t25 45q5 7 13 9q7 15 23 10z" />
    <glyph glyph-name="ampersand" unicode="&#x26;" horiz-adv-x="635" 
d="M264 180q-14 19 -24 37q-16 -11 -24.5 -23t-8 -19t1.5 -11q3 -6 14 -5q18 3 41 21zM292 530q23 16 31 30q3 5 3.5 8t-0.5 4v1q-2 2 -6.5 3t-12 -2t-13.5 -13q-5 -8 -3 -26q0 -2 1 -5zM101 405q-40 72 -41.5 148.5t41 142t124.5 98.5q10 4 22 6.5t25.5 3.5t22 1.5t24.5 0
t20 -0.5q145 0 194 -103q42 -88 1 -223q-24 -80 -73 -126l56 -34q40 -24 63 -36q5 -3 7 -7q7 -4 8.5 -12t-2.5 -15l-29 -44l34 -34q27 -28 45 -43q5 -4 7 -12q9 -12 0 -24q-44 -56 -116 -105q-6 -15 -22 -13q-34 5 -72 46q-39 -33 -93 -54q-55 -20 -113 -25q-68 -6 -129 12
q-60 18 -99 62q-54 60 -45 161q8 92 59 156q25 30 81 73zM172 632q-3 -7 -5 -14q3 7 5 14zM360 149q-43 38 -81 80q11 -19 30 -41q6 -6 5 -14.5t-7 -13.5q-5 -4 -11 -5q-36 -31 -67 -35q-38 -6 -55 24q-15 27 1 59.5t55 54.5q4 7 11 10q2 0 3 1q-17 20 -33 41
q-42 -27 -67.5 -56t-33.5 -67q-12 -58 35 -91q48 -34 112 -23q38 6 87 58zM262 406q62 34 96.5 61t52.5 63q12 25 5.5 57.5t-27.5 60t-48 36.5t-55 -2q-44 -20 -65 -87q-26 -80 41 -189zM411 232q9 16 15 37q4 11 14.5 16.5t22 2t17 -14t2.5 -22.5q-5 -15 -11 -29
q2 -6 2 -13l9 6q9 6 20 4.5t18 -9.5q1 3 3 5q0 1 1 3l24 36l-52 31q-48 29 -63 37q-8 5 -10 14q-3 2 -5 5q-6 7 -5 15t7 13q51 43 74 116q-34 -55 -74.5 -85.5t-91.5 -48.5q-10 -4 -22 -8q44 -54 105 -111zM422 96q-23 -19 -41 -31q-90 -63 -168 -65q-33 -1 -70 10
q-36 11 -65 29q-27 17 -45 49q-19 33 -26 70q-3 17 -4 35l-2 -20q-7 -84 35 -132q31 -35 82.5 -50t111.5 -10q58 5 111 27t86 54q6 6 14 6t14 -6l4 -4q2 -2 5 -4q28 -31 43 -37q62 41 102 88q-15 13 -40 38q-35 36 -43 42q-2 -11 -12 -18l-14 -10l24 -19q10 -7 11.5 -19
t-5.5 -21q-2 -3 -5 -5l1 -1q10 -6 12.5 -17.5t-4 -22t-18 -13t-22.5 4.5q-33 21 -72 52zM173 366q-73 117 -71 211q-8 -83 40 -163q3 -4 3 -9q5 -13 -7 -22q-50 -38 -70 -59q2 1 33 15q34 15 72 27zM257 492q0 6 -2 17q-3 16 -4 22q-4 32 9 52q18 27 48.5 32t48.5 -17
q20 -25 1 -57q-17 -29 -63 -57q-5 -10 -17 -11q-8 0 -14.5 5.5t-6.5 13.5z" />
    <glyph glyph-name="quotesingle" unicode="'" horiz-adv-x="174" 
d="M137 407q-3 -7 -9 -12q6 1 11 3zM160 663q0 -10 -0.5 -46t0 -49.5t1.5 -44t3.5 -48.5t7.5 -42t12 -44q3 -8 -1 -15.5t-11 -10.5q-5 -2 -11 -1q-2 -1 -4 -1q-16 -4 -35 -7t-42.5 -5t-33.5 -3q-5 -1 -11 2q-7 0 -13 5.5t-6 13.5q-1 29 -7.5 98t-7.5 101.5t2 102.5
q-1 3 -1 7q0 8 6 14t14 6q20 0 60.5 -1t60.5 -1q8 0 14 -6t6 -14q0 -6 -3 -11zM82 447q-10 -12 -26 -10q-2 1 -5 1q3 -29 4 -51q8 1 22.5 2.5t20.5 1.5q-18 8 -17 28q0 14 1 28z" />
    <glyph glyph-name="parenleft" unicode="(" horiz-adv-x="339" 
d="M153 635q-19 -30 -29 -54q-3 -6 -13 -29l-12 -31l-12 -27q-8 -20 -11.5 -31t-9.5 -28t-9.5 -31.5t-6.5 -30.5q-22 -107 11 -250.5t99 -232.5q21 -28 72 -75l23 28q-11 0 -19 7q-81 73 -125 172t-49.5 204t18 210.5t73.5 198.5zM218 634q11 -1 18 -8q8 -7 9 -18
q38 57 86 93l-56 66q-8 -4 -17 -11q5 -1 9 -4q10 -8 11 -20t-6 -21q-29 -36 -54 -77zM264 -97l10 -9q7 -7 9 -16l22 24q-3 2 -17 18t-17 20t-15.5 18t-16.5 20t-14 19t-15 22t-12.5 21t-13.5 24t-11 24q-40 102 -27.5 232t70.5 240q-40 -54 -59.5 -134t-15.5 -169
q3 -100 34 -186.5t82 -136.5q14 -13 7 -31zM299 795l69 -82q5 -6 4 -13.5t-6 -12.5q-1 -1 -3 -1q-1 -7 -6 -10q-56 -41 -97.5 -113t-61.5 -151.5t-18.5 -162.5t27.5 -147q5 -13 12 -26l12 -24q5 -9 15 -23l15 -21q5 -6 18 -22l17 -20l19 -22q16 -17 19 -21q8 0 14 -6
q4 -6 3.5 -13.5t-5.5 -12.5q-15 -13 -30 -30t-33 -40.5t-29 -36.5q-1 -1 -2 -1q-1 -4 -4 -7q-5 -6 -12.5 -6t-12.5 5q-4 4 -18 17l-20 18l-18 17q-11 11 -19.5 21t-15.5 20q-72 95 -106.5 246t-11.5 267l8 31q4 16 9.5 33.5t9.5 29.5l13 32l11 29l14 30q9 23 11 29
q23 55 73 117q56 69 103 91q10 5 18 -1q9 0 15 -7z" />
    <glyph glyph-name="parenright" unicode=")" horiz-adv-x="288" 
d="M147 374q-4 40 -11 77q-9 41 -42 115l-13 29q12 -31 29.5 -91t20.5 -69q10 -30 16 -61zM29 -148q1 3 3 7q6 11 19 31.5t21.5 35.5t14.5 29q8 17 14 35q-33 -67 -84 -125zM134 779q60 -103 96 -189.5t55.5 -181.5t10.5 -194q-8 -98 -44 -207q-29 -88 -63 -145
q-42 -71 -93 -99l-4 -6q-8 -8 -19 -4l-2 -1q-7 -2 -14 1t-9 10t0 13l-26 29q-27 32 -42 46q-5 6 -5 13t5 13l4 2q1 3 2 5q100 114 128 256q29 139 -17 285l-21 71q-17 56 -25.5 79t-26 62t-38.5 69q-3 2 -6 6q-3 6 -1 13.5t8 11.5q76 44 122 62q7 2 14 -1t10 -9q2 -5 1 -10z
M111 673q4 5 9 7q13 8 27 1q-19 36 -43 77q-33 -15 -81 -42q18 -28 33 -60q-6 17 -11 33q-3 11 2.5 22t17 14t22.5 -2.5t14 -17.5q4 -15 10 -32zM89 -160l-7 -11q-7 -12 -21 -14l19 -20q41 24 78 85q32 54 60 139q45 143 44.5 259t-42.5 237q34 -126 32 -263
q-2 -119 -33 -225t-93 -180q-7 -9 -17.5 -10.5t-19.5 3.5z" />
    <glyph glyph-name="asterisk" unicode="*" horiz-adv-x="368" 
d="M105 715h-2v-1q1 1 2 1zM308 624l-6 20l-24 -11q17 5 30 -9zM270 395l28 21q-18 24 -61 56l30 -66q3 -5 3 -11zM211 390q-4 -15 -19 -20l6 -7l15 -17q9 10 21 20q-14 3 -19 16zM150 415q-32 -41 -60 -82q-3 -5 -8 -8q9 -5 17 -8q1 3 10 20.5t16 28.5t15 21h1q1 5 6 9
q2 2 6 3q-2 8 -3 16zM110 568q-5 18 -8 34q-5 -2 -10 0q-10 2 -28 5q-12 1 -16 2q-3 -9 -12 -28.5t-14.5 -33t-8.5 -26.5l20 -5q-7 8 -8 19q-1 12 7.5 20.5t20.5 9.5q48 2 57 3zM224 503l2 -6q1 2 3 4q0 1 1 2q4 6 11 8q9 3 28 10.5t35.5 12.5t32.5 7q-4 17 -17 51l-5 12
q0 -12 -10 -21q-41 -36 -81 -80zM46 371h-1q-10 9 -11 22l-16 -28l19 -12q1 6 5 12zM120 511q-16 -2 -52 -3l9 -3q7 -2 10.5 -8.5t1.5 -13.5t-8 -11q-1 -3 -3 -6l-15 -25q36 46 57 70zM101 276q-17 7 -35 17t-44.5 27t-30.5 20q-5 2 -7 7q-12 9 -5 23q18 32 64 107
q-44 10 -46 11q-4 -1 -9 -1q-7 1 -11.5 7t-3.5 14q3 19 10.5 39.5t19.5 48.5l15 34v3q2 7 8 11t14 3q8 -2 25 -4q2 18 2 79q0 4 2 8q-1 3 -1 7q1 7 7 12t13 4q24 -3 69.5 -4.5t50.5 -1.5t9 -3q12 -4 12 -17q0 -28 7 -72q20 7 63 27q3 2 6 2q3 2 7 3q8 1 14 -3.5t7 -11.5
q3 -21 20 -67q17 -45 22 -69q4 -5 4 -11q0 -7 -5.5 -12.5t-12.5 -5.5t-13 -0.5t-13 -2.5l-10 -2q-5 -1 -12 -4l-11 -3q-3 -1 -12 -4.5t-12 -4.5q34 -28 53 -55q4 -1 6 -4q5 -5 5 -12.5t-6 -12.5q-9 -9 -57 -46q-34 -26 -48 -46q-4 -5 -11 -7q-14 -8 -23 5q-9 12 -26 31
l-12 14q-6 -10 -16 -30l-16 -30l-1 -1q0 -3 -1 -6q-3 -6 -10 -9t-14 -1zM189 675q-3 -44 8 -92q17 14 35 25q8 5 18 4l17 15q2 2 4 2q-18 -6 -32 -11q-4 -9 -14 -11q-8 -1 -14 3.5t-7 11.5q-9 63 -11 90q-9 0 -28.5 0.5t-28.5 1.5q6 -5 9 -12q8 5 17 4q12 -1 20 -10t7 -21z
" />
    <glyph glyph-name="plus" unicode="+" horiz-adv-x="493" 
d="M19 149q0 -5 1 -10h13l-6 3q-5 2 -8 7zM242 -29q-7 -12 -21 -14q-16 -4 -27 10v-39q11 0 34.5 -0.5t36.5 -0.5h3q-15 4 -20 20q-3 11 -6 24zM221 487l2 4h-3q1 -2 1 -4zM278 475q3 1 7 1q12 1 20.5 -7.5t9.5 -20.5q2 -52 10 -143q1 0 2 1q0 20 2 58.5t2 67.5t-4 55
q-26 2 -51 3q3 -6 2 -13v-2zM291 19q6 -29 13 -56q3 -11 -2.5 -21.5t-17.5 -14.5q27 0 48 2q0 30 -5 81v6q-7 -5 -16 -5q-12 0 -20 8zM336 162q24 3 52 8q12 2 22 -5t12 -19q2 -16 -10 -27q25 -2 50 -2q2 16 2.5 35t0 32.5t-1 36.5t-0.5 35q-12 1 -34.5 4t-25.5 3
q-41 5 -67 5q-4 0 -8 2l2 -24v-2q11 1 31 3t37 3.5t32 2.5q12 1 21 -7t10 -20t-7 -21t-20 -10q-14 -1 -31 -2.5t-37 -3.5t-32 -3q1 -13 2 -24zM272 239v2l-1 13v-15h1zM278 156q-1 12 -1 25h-4l2 -25h3zM281 99l-1 -1q1 -8 1 -16v17zM101 175q31 -10 67 -15q-1 8 -1 17
q-43 0 -66 -2zM40 197q-1 11 6 20.5t18 11.5q38 6 102 6q-1 18 -1 37q-3 -1 -7 -1q-16 0 -82 3q-41 2 -63 1q2 -22 3 -73v-17q9 12 24 12zM-5 314q30 3 83 0q57 -3 60 -3v183q0 6 3 10q-1 3 -1 5q0 8 5.5 14.5t13.5 6.5q95 4 198 -5q8 -1 13.5 -7.5t4.5 -14.5t-8 -14
q4 -27 4 -57.5t-2 -69.5t-2 -55q14 -1 40 -4q65 -8 69 -8q8 -1 13 -7q14 -4 14 -19q0 -13 1 -50.5t0.5 -64.5t-4.5 -53q-2 -13 -15 -16q-6 -8 -16 -8q-52 0 -108 7q1 -9 6 -70q5 -57 5 -92q0 -8 -5 -13q0 -8 -5.5 -13t-12.5 -6q-35 -3 -85 -3q-12 0 -39.5 0.5t-42.5 0.5
q-5 0 -9 2q-8 0 -13.5 6t-5.5 14q0 112 -7 191q-19 0 -66.5 -1t-73.5 -1q-7 0 -13 5q-10 4 -12 14q-5 30 -6 84t-4 77q-1 9 5 16q0 8 5.5 13t12.5 6z" />
    <glyph glyph-name="comma" unicode="," horiz-adv-x="212" 
d="M90 94q-6 -2 -12 -3q9 -21 14 -47q0 22 -2 44v6zM135 -94q-3 -10 -12 -15t-20 -4q-12 2 -19 12t-5 22q-12 -21 -29 -34q22 -13 84 -42q18 22 29 41q-21 0 -28 20zM51 125q17 0 35.5 6t29.5 11.5t36 19.5q4 2 8 2h1q7 2 13.5 -1.5t8.5 -10.5q5 -16 14 -46l12 -47
q5 -16 9.5 -38.5t5.5 -40.5q2 -79 -62 -158q0 -4 -2 -9q-3 -6 -10 -8.5t-14 0.5q-8 4 -29.5 13.5t-33 15t-29 15t-32.5 18.5q-4 2 -6 6q-9 4 -11 13q-1 8 3 14t11 8q44 9 50 75q3 30 -4 61q-6 30 -18 48q-3 4 -3 9q-1 3 -1 6q0 7 5.5 12.5t12.5 5.5z" />
    <glyph glyph-name="hyphen" unicode="-" horiz-adv-x="347" 
d="M61 289q-17 7 -18 25q-1 12 7 21t20 10q150 10 173 12q-106 12 -207 0q4 -30 7 -72zM189 250q79 -2 116 -2h3q1 7 1 14q-2 -1 -5 -1q-79 -7 -115 -11zM149 245q-56 -7 -101 -18l2 -26q39 -3 99 -2q-12 9 -12 24q0 14 12 22zM10 394q71 11 157 8.5t158 -17.5h1q9 1 15 -4
l2 -1q8 -2 12 -9t2 -15q-1 -6 -6 -10q6 -76 -16 -163q-3 -13 -16 -15q-6 -10 -18 -9q-25 1 -132 0q-77 -1 -123 2q-5 -5 -12 -6q-8 -1 -14.5 4.5t-7.5 13.5q-2 22 -5 60q-4 5 -6 12q-3 12 3 22q-4 57 -9 93v5l-2 6q-1 8 4 15t13 8z" />
    <glyph glyph-name="period" unicode="." horiz-adv-x="159" 
d="M133 13q-9 -5 -19 -4l-43 6q-5 1 -10 4q0 -9 -0.5 -26.5t-0.5 -27.5q9 0 34 1t39 1v46zM163 91q6 -6 6 -14q0 -105 -1 -129q0 -7 -5.5 -12t-13.5 -5q-2 0 -5 1q-2 -1 -5 -1q-16 0 -48.5 -1t-48.5 -1q-7 0 -12.5 5.5t-5.5 12.5v1v1v132q0 4 1 7q0 7 5.5 12t12.5 5
q83 0 106 -3q10 -2 14 -11zM104 69l18 -2q6 -1 11 -4v4q-13 2 -29 2z" />
    <glyph glyph-name="slash" unicode="/" horiz-adv-x="426" 
d="M377 623q-16 -30 -31 -71q21 45 31 71zM297 791q22 -6 44 -17t53.5 -33t35.5 -24q6 -4 7.5 -11t-2.5 -13q-6 -38 -23.5 -81t-41 -92t-32.5 -73q-67 -168 -158 -372q-8 -20 -23 -65q-15 -46 -24 -66q2 -5 2 -10q-1 -8 -6.5 -13t-12.5 -4q-20 2 -44 8t-40.5 11.5
t-43.5 15.5l-36 14q-6 2 -9 8q-13 5 -11 18q6 42 30 95l39 85q46 119 72 174q12 25 24.5 55.5t20.5 52.5l22 58l20 55q52 141 106 219q4 6 11.5 7.5t13.5 -2.5h6zM302 683q-17 -41 -53 -114q-37 -77 -52 -111q-92 -213 -141 -440q-2 -12 -12 -18.5t-22 -4t-18.5 12.5
t-3.5 22q11 54 25 106q-5 -12 -15.5 -33.5t-14.5 -30.5q-20 -43 -25 -74l32 -12l34 -12q12 -5 30 -10.5t32 -7.5l1 1q10 21 24 64q16 49 25 68l126 296q-10 -3 -19 1t-14 12q-69 -165 -102 -297q-3 -12 -13 -18t-22 -3t-18 13t-3 22q9 38 21.5 78t23.5 72t29 77l28 71
q10 25 33 75l30 69l34 74q26 55 33 69q5 11 16 15t22 -1q19 -8 17 -29q5 -1 10 -4q9 -6 12 -16q4 15 7 29q-5 3 -26.5 18t-30 20t-24.5 12.5t-29 10.5q-11 -15 -20 -33q9 2 17 -1q11 -5 15.5 -16t0.5 -22z" />
    <glyph glyph-name="zero" unicode="0" horiz-adv-x="681" 
d="M176 628q-37 -43 -68 -103q9 16 20 32q41 62 48 71zM148 -41l-11 11q-76 77 -96 149q8 -34 22 -62q29 -58 85 -98zM348 768q4 6 12 8q129 29 212 -61q56 -61 100 -197q26 -81 20.5 -184.5t-41.5 -201.5q-38 -105 -107 -176q-68 -72 -163 -89q-105 -18 -205.5 29.5
t-148.5 142.5q-34 68 -36 164.5t23 184.5q24 95 70 176q45 81 102 129q70 58 162 75zM384 519q-39 1 -73 -34q-41 -45 -62 -126q-21 -80 -10 -154q11 -76 51 -106q30 -23 68 6q37 27 53 70q36 96 36 186q0 111 -61 156zM429 533q58 -59 58 -172q0 -98 -38 -200
q-20 -54 -67 -88q-62 -47 -116 -6q-53 40 -66 132q-12 82 10 170q24 91 72 143q59 62 132 42q17 -4 15 -21zM400 621q-66 -19 -121 -75t-89 -134q-37 -85 -41.5 -171.5t27.5 -153.5q16 -33 43.5 -55.5t60.5 -27.5q58 -10 106 31.5t82 122.5q30 74 41 160q11 84 0 133
q-11 51 -40 95q-29 45 -69 75zM441 697q-109 -14 -190 -76q-11 -8 -22 -21t-16 -19.5t-19.5 -29t-17.5 -26.5q-57 -85 -79 -186t-2 -198q3 -12 9 -26q-20 77 -11 159.5t43 160.5q38 85 99 149t138 90q6 9 17 12t21 -3l1 1q12 2 21.5 -5t12.5 -19v-1q45 -37 76.5 -88.5
t42.5 -107.5q13 -59 2 -149.5t-43 -170.5q31 48 40 77q19 58 22 123.5t-9 128t-44 118.5q-31 54 -80 88q-10 7 -12 19zM512 705q50 -43 82 -106.5t43 -131.5t6.5 -136.5t-23.5 -128.5q-6 -16 -16.5 -37t-16 -30.5t-23.5 -36.5l-17 -26q-89 -139 -188 -168q8 1 16 3
q81 14 142 78t97 161q33 91 38 190q6 97 -18 170q-42 128 -91 182q-12 12 -25 22q-2 -2 -6 -5z" />
    <glyph glyph-name="one" unicode="1" horiz-adv-x="343" 
d="M218 685q1 2 2 5q-37 5 -59 6q-8 -60 -11 -123t-3 -155q0 -83 -1 -125q-5 -211 -5 -340q16 0 46 -0.5t44 -0.5q-3 6 -3 13v10q-9 -10 -22 -10q-12 0 -20.5 8.5t-8.5 20.5q0 76 -1.5 227.5t-1.5 227.5q0 13 -1 62.5t0 84t5 66.5q2 12 11.5 19t21.5 6q4 -1 7 -2zM286 14
v-49q0 -5 -2 -10q7 1 13 2v54q-6 0 -11 3zM234 456q-1 11 -2 24v-30zM348 697q5 -28 5.5 -59.5t-1 -72t-1.5 -55.5q0 -93 -7 -278t-7 -278q0 -5 -2 -10q1 -8 -3.5 -15t-12.5 -9q-30 -6 -68 -7.5t-68 -0.5t-64 0q-8 0 -14.5 5.5t-6.5 13.5q0 6 3 12q0 133 5 350q1 43 1 127
q0 96 3.5 161.5t11.5 128.5q1 9 10 14q5 12 18 12q28 0 91 -9q56 -8 85 -8q7 0 13 -5t7 -12q1 -2 2 -5zM275 677q0 -45 7 -116q10 -104 11 -119q1 -14 4.5 -84t7.5 -108q6 168 6 260q0 19 1.5 55t1 63t-3.5 51q-16 1 -35 3v-5z" />
    <glyph glyph-name="two" unicode="2" horiz-adv-x="696" 
d="M162 478q-13 -9 -27 -3l15 -14zM69 -2q35 70 120 145l49 41l56 48q23 20 43 42q15 16 28 33.5t34 49.5t26 39q4 6 13 18.5t13 19.5l9 16q6 9 9 16.5t4 15.5q6 36 -25 75q-32 38 -71 47q-17 3 -43.5 -1t-48.5 -12q-42 -16 -92 -76q23 22 47 35q47 24 87.5 24.5t68.5 -24.5
q27 -24 29.5 -65.5t-18.5 -88.5q-11 -27 -61 -76q-38 -37 -104 -92l-71 -59l-73 -59q-30 -25 -45 -40q-4 -3 -9 -4q7 -30 25 -68zM450 154q122 6 242 -12q15 -2 17 -18q4 -37 0 -94q-4 -72 -4 -89q0 -8 -6 -14t-14 -6q-3 -1 -6 -1q-243 0 -373 -8q-23 -1 -68.5 -5t-82 -6
t-69.5 -2q-8 0 -13.5 5t-6.5 12v1q-55 95 -64 157q-1 9 4 15.5t13 7.5h4q1 1 2 3l46 39l73 61l73 59q64 54 101 90q44 43 53 63q16 44 14.5 69.5t-16.5 39.5q-10 9 -24 12t-37 -1t-50 -18q-39 -20 -84 -90q-5 -8 -15 -9q-13 -6 -23 3l-126 122q-12 12 -3 26q-6 12 3 22
q109 122 220 176q58 25 124 19t132 -37t114.5 -80t61.5 -106q11 -55 2.5 -107t-35 -101t-60 -88t-72.5 -70q-8 -6 -25 -21zM347 663q24 1 42 -3q60 -13 104 -67q29 -35 37 -74q-1 5 -1 12q-2 28 -3 34q-13 56 -74 82q-48 22 -105 16zM110 -50q-4 -7 -11 -10v-1q31 0 65 2.5
t75 6t65 4.5q18 1 38 2h-37h-30q-94 1 -151 -6q-7 -1 -14 2zM276 12q115 0 152 2q31 2 91 16q59 14 81 18q-47 1 -105 0t-101 -9q-42 -7 -118 -27zM81 566q42 58 106.5 99t139.5 54t149 -18q87 -39 106 -124q2 -9 5 -42q1 -15 1 -26q0 -16 -2 -24q-25 -90 -192 -253
l-130 -122l-59 -56l46 12q89 23 133 31q27 4 60.5 6.5t51 3t63 0t51.5 -0.5q12 0 20.5 -8.5t8.5 -20.5q0 -18 -16 -26q10 0 18 -7.5t10 -17.5q1 -12 -6 -21.5t-19 -11.5q-26 -3 -93 -19q-48 -12 -79 -16q81 2 211 2q1 8 4 73q3 43 1 71q-157 22 -292 3q-8 -1 -15 4t-8 13
q-2 4 -3 8q-1 8 4 15t13 8q22 3 51 26q8 6 26 22q17 16 27 23q78 61 124 150.5t27 173.5q-11 47 -53 89.5t-102 70.5t-118.5 33t-102.5 -15q-105 -51 -205 -163l76 -75q-6 16 4 30q37 49 68 77q-37 -29 -62 -65q-7 -10 -19 -12t-22 5t-12 19t5 22z" />
    <glyph glyph-name="three" unicode="3" horiz-adv-x="662" 
d="M62 78q0 8 3 14l-7 -5q2 -4 4 -9zM262 -92l-20 10q-85 49 -159 128q20 -27 54 -57q55 -48 86 -67q16 -9 39 -14zM585 351q1 0 2 -1q17 -9 36 -34q46 -59 50 -147.5t-37 -152.5q-110 -170 -313 -157q-80 5 -120 29q-34 19 -92 71q-84 75 -98 137q-1 8 3.5 15t12.5 9h6
q67 57 141 74q14 3 22 -10q3 -2 5 -5q42 -48 76 -70q47 -29 87 -17q16 5 32.5 17t25.5 26q8 13 7 23q-2 11 -18 21q-21 14 -61 9q-15 -2 -38 -7q-3 0 -16.5 -3t-19.5 -5q-8 -1 -14.5 3t-8.5 11q-6 4 -8 11q-21 69 -60 163q-6 14 5 24q4 6 11 9l64 24q19 7 52 24.5t53 37.5
q21 18 16 37q-4 18 -15 20q-15 2 -42 -10q-16 -8 -33.5 -19t-35 -24t-22.5 -16q-3 -2 -6 -2q-14 -8 -25 4q-15 17 -55 48q-41 33 -59 55q-11 13 0 26q-6 13 4 23l56 51q21 18 57.5 42t70.5 37q59 22 119 11t109.5 -43t84.5 -83t46 -108q13 -77 -29 -145q-3 -5 -11 -14
l-14 -15zM192 638q4 4 16.5 15t16.5 14l16 10q10 7 22 11q11 5 26 9q22 6 45 5q14 2 28 2q61 1 111 -29t71 -92q6 -19 10 -45q5 -36 0 -56q-3 -11 -8 -22q0 -10 -1 -20q-7 -54 -50 -112q8 1 15 -2q97 -41 113 -137q13 -81 -34 -170l13 19q34 53 31 128.5t-42 125.5
q-14 18 -23 23q-1 0 -6 1q-19 4 -23 20q-4 12 6 28q4 7 13 18l14 15l7 7q34 56 23 117q-9 50 -39.5 94t-73 71t-93 37t-99.5 -9q-30 -11 -61.5 -32t-52.5 -38.5t-54 -48.5q15 -18 50 -45q34 -27 49 -42q57 41 87 55q38 18 64 13q38 -6 49 -51q9 -40 -28 -75
q-23 -20 -55.5 -38.5t-54.5 -27.5t-60 -23q34 -82 53 -146l23 6l6 1q-3 10 2 19.5t14 14.5q26 11 51 30h-4q-8 0 -16 4l-33 -21q-10 -7 -22 -4.5t-18.5 12.5t-4 22t12.5 18q7 5 35 22l48 31q20 13 40 29q50 39 70 73q-6 61 -55 115q-46 52 -97 57q-37 -6 -69.5 -25
t-51.5 -47q-7 -10 -18.5 -12.5t-21.5 4.5t-12.5 18.5t4.5 21.5q8 12 18 24q3 6 8 10zM113 99q71 -81 157 -130q105 -60 177 -34q36 13 68 69q-24 -17 -54 -27q-90 -29 -156 -11q-30 9 -62 29t-51.5 37t-46.5 43q-8 9 -8 21t8.5 20.5t20.5 8.5t21 -8q37 -38 68.5 -62
t65.5 -33q49 -14 122 11q54 17 72.5 57t4.5 86q-18 62 -74 93q-24 -24 -50 -42q22 -3 39 -14q31 -20 35 -49q4 -25 -12 -51q-14 -20 -36 -36.5t-44 -22.5q-58 -18 -120 22q-39 24 -84 76q-46 -13 -88 -44q16 4 27 -9z" />
    <glyph glyph-name="four" unicode="4" horiz-adv-x="585" 
d="M561 375v10h-10q6 -4 10 -10zM69 292q-7 0 -14 3q1 -28 3 -53h16q-2 4 -2 8q-1 20 -3 42zM113 680l2 20v2q-36 -1 -62 -5q-5 -48 0 -167q1 -37 1 -151v-17v-16q5 3 11 4h1q-4 92 -9 320q0 12 8 21t20 9q22 0 28 -20zM138 361q-2 33 -5 61q-2 21 -8 66l-8 67
q3 -116 7 -197zM141 295l-1 7l-13 -2v-8zM362 394q-10 250 -10 255t1 10l-3 -1q0 -173 6 -241q1 -11 -8 -18q-1 -4 -4 -7zM481 398l23 -2q-2 4 -2 9q0 3 1 6v5q21 140 9 244h-104q2 -4 2 -9q0 -7 10 -253q2 0 3 1q-1 126 -7 229q-1 12 7 21t20 10t21 -7t10 -20
q6 -104 7 -234zM365 317l-1 19q-24 -2 -53 -6q-45 -6 -113 -18v-9q50 6 114 11q23 1 53 3zM424 321v20l-2 -1l1 -19h1zM367 259q-29 -2 -51 -3q-66 -5 -116 -11v-2q80 -1 136 -8q8 -1 13 -7.5t4 -14.5v-3q0 -51 2 -146.5t2 -138.5h24q-13 9 -13 25q4 133 -1 309zM425 -60
q-4 -10 -13 -16q72 -2 91 -2q0 215 -6 291q-1 16 14 21q5 4 12 4h33q0 18 3 78q1 20 1 28q-11 -18 -32 -12q-19 6 -46 8v-15l23 2q12 1 21 -7t10 -20t-7 -21t-20 -10l-28 -2q0 -34 -1 -144t-1 -169q0 -12 -8.5 -20.5t-20.5 -8.5q-17 0 -25 15zM36 735q19 3 41.5 4.5t37 2
t41.5 0t36 -0.5q8 0 13.5 -5t6.5 -12q13 -3 16 -17q15 -92 15 -283q10 1 34.5 2t37.5 1q-5 62 -5 241q0 3 1 7q-1 9 4.5 15t13.5 7q37 3 197 3q8 0 14 -6t6 -14v-1q4 -4 5 -10q13 -102 -6 -244h17q7 0 12 -4q2 1 5 1q8 0 14.5 -5.5t6.5 -13.5q2 -30 -1 -89q-3 -64 -3 -85
q0 -13 -12 -19q-6 -12 -19 -12h-27q5 -69 5 -283q0 -7 -4 -12v-1q0 -8 -6 -14t-14 -6q-29 0 -87.5 1.5t-87.5 1.5h-1q-3 -1 -6 -1q-8 0 -14 6t-6 14q0 51 -2 149t-2 144q-52 6 -128 6q-5 -3 -12 -3t-14 3q-12 0 -51.5 -0.5t-60.5 -0.5q-11 0 -17 9q-10 5 -11 16
q-5 58 -5 152q0 113 -1 149q-5 124 0 176q1 8 7 13q2 15 16 18zM173 694q-5 -22 -2.5 -65.5t4.5 -65t8 -66.5l8 -69q3 -26 4 -58q62 11 101 16q-67 -2 -76 -2q-8 0 -14 6t-6 14q0 6 3 11q0 197 -15 286h-15v-7z" />
    <glyph glyph-name="five" unicode="5" horiz-adv-x="585" 
d="M89 274q-8 26 -12 58v-63zM601 744v-3q0 -64 -10 -180q-1 -8 -7 -13.5t-15 -4.5q-3 0 -7 2q-195 0 -289 7q2 -34 -1 -61q80 -4 152 -37q45 -20 79 -53.5t53.5 -73t29 -85t9 -91t-9.5 -90.5q-1 -3 -3.5 -20t-6 -30.5t-9.5 -23.5q-29 -54 -79 -88t-107 -44.5t-115 -5
t-110 25.5q-37 16 -65 31t-58.5 43t-44.5 62q-6 14 6 24q1 4 4 8q70 80 119 112q7 4 14.5 2.5t12.5 -7.5q8 -1 14 -8q31 -40 88 -60q49 -18 77 7q26 24 21 67q-5 46 -48.5 77.5t-125.5 20.5q-15 -2 -31 -6q-4 -3 -9 -4q-5 -2 -11 -2q-24 -8 -46 -19q-7 -4 -15 -1t-12 10
q-2 4 -2 8q-6 6 -6 14q0 80 -2.5 241.5t-2.5 241.5v2q-7 6 -7 15q0 8 6 14t14 6q49 0 165.5 5t206 3t168.5 -16q7 -2 12 -8.5t4 -13.5zM554 730q4 -4 7 -9v8zM175 735q0 1 1 2q-63 -2 -104 -3v-4v-5q10 7 22 6q5 -1 10 -3q33 5 71 7zM228 737q31 1 74 0q169 -4 212 -2
q-99 11 -287 4q1 -1 1 -2zM160 659l3 17q-24 -2 -47 -5v-17q21 3 44 5zM128 478l21 122q-16 -2 -30 -4l8 -92q1 -12 1 -26zM161 323v-5q-3 -17 -18 -23l1 -4q10 2 19 3q75 10 129 -14q-59 31 -119 38q-6 1 -12 5zM220 -55q-61 24 -143 93q-10 9 -10 23l-39 -43l1 -3
q8 9 20 10t21 -7l35 -30q11 -9 30.5 -21.5t36.5 -17.5q13 -5 48 -4zM380 3q20 17 34 54q35 93 -50 173q-15 14 -34 27q47 -38 53 -97q7 -63 -34 -100q-46 -42 -118 -16q-65 24 -103 70q-16 -11 -32 -25q11 0 19 -7q76 -64 129 -84q34 -13 121 2q8 1 15 3zM232 366
q101 -28 171 -94q6 -5 12 -11q-58 75 -125 97q-26 9 -58 8zM538 679q-28 -2 -62.5 -3t-55 -0.5t-65 2t-55.5 1.5q-44 1 -77 0l-3 -17q78 2 81 2q14 1 102 6.5t134 5.5q13 0 22 -10q1 14 1 27q-8 -13 -22 -14zM537 618q-46 0 -132 -6l-102 -6q-19 -1 -54 -1.5t-40 -0.5
l-28 -162q76 6 120 -11q42 -17 87 -55.5t80 -87.5q33 -47 50 -94q2 -6 4 -11q27 -87 -5 -150q-10 -20 -26 -36q-68 -93 -231 -108q85 -10 159 19t111 97q5 8 7 17t4.5 23.5t3.5 23.5q13 51 9.5 104.5t-18.5 99.5t-48 84.5t-80 60.5q-76 34 -168 34q-8 0 -14 6t-6 14
q0 13 12 18q4 29 0 71q0 6 2 11v4q1 8 7.5 13.5t14.5 4.5q98 -9 297 -9q2 23 3 40q-8 -7 -19 -7z" />
    <glyph glyph-name="six" unicode="6" horiz-adv-x="646" 
d="M305 -36q-53 13 -102 43q-43 27 -77.5 66t-45.5 86q-13 62 -2.5 144t40.5 166q50 140 123 212q-63 -54 -107.5 -136t-61.5 -173q-14 -68 -8 -133t27 -118t65 -92.5t105 -55.5q22 -5 44 -9zM417 221q-63 -6 -106 -72q42 -16 71 3q30 21 35 69zM483 86q-16 -11 -33 -21
q-87 -48 -160 -36q56 -19 98 -12q20 3 35 12.5t36 29.5q14 13 24 27zM216 78q-2 -4 -6 -6q11 -8 23 -15l3 -2q-11 10 -20 23zM577 199q4 -104 -78 -182l-3 -3q26 22 55 55q48 55 61 115.5t-4 109.5t-55 84q-37 34 -85 47t-98 0q70 -2 133 -47q46 -33 69 -80.5t5 -98.5z
M146 306q-5 1 -9 4q-13 -86 -1 -137q7 -29 30 -58q1 9 2 17q-22 40 -25 102q-2 33 3 72zM327 615q-2 -6 -6 -10l-22 -25q-10 -16 -20 -35q-37 -68 -59 -153q-21 -83 -19 -149l6 11q15 27 30 48q-4 2 -7 5q-8 7 -9.5 18t3.5 19q-2 2 -4 3q-6 6 -6 14.5t5 14.5l4 3
q25 78 79.5 145t127.5 94q-7 13 -27 63q-18 44 -31 67v1q-33 -8 -66 -24q22 3 31 -17q6 -11 1 -23q12 -2 19 -13q6 -10 3 -22t-13 -18t-20 -17zM288 90q3 -1 5 -2q54 -13 128 28q34 19 60 43.5t37 48.5q-5 59 -45 98q-43 43 -96 32q-66 -15 -120 -112q-14 -27 -22 -55
q6 -5 9 -13q4 -14 8 -24l6 -2q4 -1 8 -3q-3 5 -3 11q0 5 2 9q25 46 65 77.5t90 34.5q7 0 13 -4q2 1 5 1q8 0 14 -6t6 -14q0 -83 -54 -119q-51 -35 -119 -2q9 -13 3 -27zM408 768q13 -26 32 -72q20 -50 30 -69q3 -5 2 -11l2 -6q2 -8 -2 -15t-12 -9q-52 -14 -96.5 -55.5
t-74.5 -97.5q82 46 158 37t133 -62q46 -43 66 -101.5t5 -129.5t-70 -134q-76 -87 -148 -111q-76 -25 -182 3q-58 15 -102 48q-45 33 -71 76.5t-41 97t-14 109t10 113.5q18 97 63.5 183t119.5 149.5t161 79.5q8 1 15 -3.5t9 -12.5q4 -3 7 -7z" />
    <glyph glyph-name="seven" unicode="7" horiz-adv-x="660" 
d="M577 601l42 -3q3 0 6 -1q-1 31 2 55h-2q-104 14 -282 21l-60 2q172 -19 278 -22q12 0 20 -9t8 -21q0 -14 -12 -22zM483 434q-75 -149 -173 -308q-8 -14 -48 -73q-29 -43 -44 -70q0 -1 -9 -22l-16 -37l-2 -4q23 -13 41 -25l21 34q-10 0 -18 5q-10 6 -12.5 18t4.5 22
q23 35 47 76l50 91l43 78q7 13 25 43l26 46l22 39l24 45q10 21 19 42zM663 496l-159 -246q-14 -22 -53 -92q-34 -62 -57 -94l-42 -59l-50 -74q-21 -31 -39 -61q-3 -7 -11 -9l-2 -4q-5 -7 -13.5 -8t-14.5 4q-25 19 -64 39q-11 0 -19 8q-2 1 -3 3q-48 23 -68 34
q-7 4 -9.5 11.5t2.5 15.5q0 1 1 2q0 6 3 11q22 33 52 91q40 76 51 96l90 150q66 106 98 165q-178 24 -309 19q-8 0 -14.5 5.5t-6.5 13.5q0 10 7 16v3v3q14 94 6 149q-1 6 2 11q-2 5 -2 10q1 8 7 13.5t15 4.5q64 -5 284 -14q179 -7 286 -21q7 -1 12 -7q6 2 11 1q8 -2 12.5 -9
t3.5 -15q-5 -22 -5.5 -45.5t1.5 -55.5t2 -50q0 -6 -3 -11zM146 611q77 4 168 2l-91 11q-64 7 -98 10q-12 1 -19.5 10.5t-6.5 21.5q1 10 8 17l-27 2q6 -57 -6 -146q130 2 307 -23q7 -1 12 -7h1q8 -4 10.5 -12t-1.5 -15q-35 -66 -107 -182l-94 -156q-12 -21 -50 -94
q-32 -61 -48 -87l31 -16l8 27q4 12 16 17q7 16 9 20q16 29 46 75q37 55 46 70q126 204 215 393q-200 11 -325 4q-12 -1 -21 7t-10 20t7 21t20 10zM581 530q-9 -31 -22 -64l-22 -54q-9 -22 -29 -60l-28 -52q-6 -12 -32.5 -57.5t-30.5 -51.5l-64 -117l9 12q21 31 54 91
q42 76 54 95l158 244q0 10 -1 26q-6 -2 -12 -2l-33 2q1 -6 -1 -12z" />
    <glyph glyph-name="eight" unicode="8" horiz-adv-x="647" 
d="M567 401q52 -67 81 -154q32 -95 -41 -217q-31 -52 -75 -94q-45 -44 -96 -64q-69 -26 -143.5 -21.5t-138.5 37.5q-68 35 -108.5 95t-40.5 139q0 88 22 140q36 84 99 140q-22 46 -24 102t19 101q23 52 59 87.5t75.5 51t83.5 18t84 -11.5q86 -26 139.5 -98.5t41.5 -165.5
q-4 -28 -37 -85zM337 253q-37 -6 -61.5 -29.5t-31.5 -53.5q-7 -33 8 -56q18 -26 59 -29q35 -3 60 17t31 51q6 30 -9.5 57.5t-55.5 42.5zM351 520q-12 -2 -19.5 -7t-9 -8.5t-1.5 -6.5q0 -6 6.5 -11t21.5 -2q16 4 15 17q-2 12 -13 18zM387 542q15 -16 16 -37q2 -20 -10 -36.5
t-36 -21.5q-31 -8 -53.5 8t-22.5 43q0 23 16.5 39.5t45.5 21.5q6 3 13 2h11q8 0 14 -5.5t6 -13.5zM456 677q29 -33 36 -91q8 10 22 11q12 0 20.5 -8t9.5 -20q3 -27 1.5 -68.5t-11.5 -74.5q-2 -4 -3 -8q2 4 8.5 15t8.5 16l7 13q4 8 6 15t3 13q8 61 -18 112t-75 83
q-7 -7 -15 -8zM206 582q-9 -13 -11 -22q-6 -23 -2 -49q2 30 9 58q2 7 4 13zM448 385q19 23 30 59q6 18 8 41q-12 -58 -40 -99zM213 365q-43 41 -64 91q7 -28 21 -49q4 -7 2.5 -15t-8.5 -13q-3 -2 -6 -2q-62 -52 -95 -131q-18 -43 -18 -124q0 -115 98 -181q-39 35 -55 87
q-17 52 -12 108q6 70 42 132q37 63 95 97zM374 719l2 1h-2v-1zM273 -55q-8 4 -17 9q-36 21 -62 61t-39 89q-11 36 -13 73q-6 -23 -8 -46q-7 -69 25.5 -120t101.5 -65q6 -1 12 -1zM446 24q23 28 33 68t2 83q-13 76 -46 130l-12 -4q-27 -9 -57 -7q11 -4 13 -17q38 -22 54 -58
t9 -74q-9 -45 -46 -74.5t-89 -25.5q-58 5 -86 44q25 -62 65 -85q80 -47 141 1q10 9 19 19zM462 -41q-60 -54 -128 -68q47 3 88 19q43 16 83 55t68 85q63 107 37 185q-28 85 -80 148q-8 9 -4 19v3q-11 -26 -25 -47q15 -10 26 -21q40 -40 50.5 -94.5t-3.5 -106t-45 -99.5
q-16 -26 -37 -49q-8 -9 -16 -17q-6 -6 -14 -12zM373 641q-38 16 -69 -9t-46 -78q-15 -54 -2 -99.5t47 -59.5q18 -7 39 -8t32 6q21 14 39 53t22 87q8 85 -32 113q-14 -11 -30 -5zM292 305q-36 -11 -54.5 -20t-26.5 -26q-17 -39 -9 -100q1 10 3 20q9 40 40.5 71.5t78.5 41.5
q8 5 17 2q6 1 12 1q-26 3 -53 14q-4 -3 -8 -4z" />
    <glyph glyph-name="nine" unicode="9" horiz-adv-x="516" 
d="M264 486q2 16 6 45q-40 15 -66 4q-22 -10 -29 -36q-7 -24 5 -43q10 -17 33 -14q31 3 49 41q1 1 2 3zM335 592q-64 49 -127 30q-31 -9 -57.5 -34t-41.5 -58t-15 -64.5t14 -53.5q37 -56 152 -43q34 3 79 29q-5 81 -4 194zM407 599q8 55 19 107q0 2 1 4l-6 1q-42 7 -63 8
q-6 -5 -15 -4q-53 8 -91.5 9.5t-83.5 -7t-82 -30.5q-34 -21 -65 -80q-15 -28 -22 -58q22 55 73 94t121 53q75 15 150 2q9 12 24 12q12 0 20 -9t8 -21v-4q5 -10 2 -20q-1 -4 -3 -7v-30l5 -5q7 -6 8 -15zM405 581q-2 -5 -5 -8t-7 -5q0 -68 2 -122q3 70 10 135zM142 320
q51 -31 92 -20q13 4 29 11q-70 -7 -121 9zM311 539q-6 -51 -9 -71q-2 -10 -10 -14q-28 -47 -75 -52t-71 33q-21 33 -10 74q12 44 51 62q44 20 105 -6q5 -2 8 -6q13 -7 11 -20zM296 -37q5 56 -1 150q-7 115 -8 132q-86 -31 -156.5 -12t-119.5 78q-51 62 -59.5 145t33.5 169
q36 69 81 96q39 24 86.5 34.5t87 9.5t89.5 -7q4 2 9 2q31 0 89 -9t83 -9q8 0 14 -6t6 -14q0 -7 -4 -12q4 -27 7 -55t2.5 -63t-0.5 -53.5t-2.5 -61.5t-2.5 -53q-2 -43 1 -223q2 -142 -6 -226q-1 -8 -8 -14q-1 -7 -7 -11.5t-14 -3.5q-32 3 -84 1q-73 -4 -87 -4q-5 -2 -11 -2
q-8 1 -13.5 7t-4.5 15zM482 694q-19 -96 -26 -199q-7 -106 -4.5 -196.5t11.5 -203.5q1 -12 -7 -21t-20 -10l2 -29q0 -12 -8 -20.5t-20 -9t-20.5 7.5t-9.5 20q-2 50 -15 142q-15 105 -16 117l-24 -14q2 -5 2 -10q0 -21 8 -152q5 -82 2 -133q6 0 73 4q46 2 76 0q7 79 5 213
q-3 179 -1 226q0 10 2.5 53.5t2.5 61t0.5 51.5t-2 60t-7.5 51h-3q0 -4 -1 -9z" />
    <glyph glyph-name="colon" unicode=":" horiz-adv-x="222" 
d="M179 84v-4q0 -21 -0.5 -61.5t-0.5 -61.5q0 -6 -4 -11q-5 -10 -16 -10q-8 0 -29.5 -0.5t-38.5 -0.5t-32 2q-8 1 -12.5 7t-3.5 13q0 2 1 3q-1 5 -1 9q6 37 6 116q-1 3 -1 6q0 7 5.5 12.5t12.5 5.5q16 0 48 -1.5t48 -1.5q7 0 12.5 -5.5t5.5 -12.5v-4zM128 71v-35
q0 -12 -8.5 -20.5t-20.5 -8.5q-9 0 -16 5q-1 -6 -1 -11l29 2q12 1 21 -7t10 -20q0 14 1 44v50q-7 0 -15 1zM229 452q0 -79 -3 -113q-1 -7 -6.5 -11.5t-12.5 -4.5q-4 -2 -8 -3q-75 -8 -126 2q-7 2 -11 8t-3 14l2 4v2q0 64 1 80q-2 6 0 13q1 15 2 28q1 7 6.5 12t13.5 4
q5 -1 9 -4q19 0 59.5 -1t62.5 -1q7 0 12.5 -5.5t5.5 -12.5q0 -6 -4 -11zM188 445l5 -17v17h-5zM117 445l6 -16q3 -8 3.5 -9t2.5 -5.5t3 -6t5 -9.5l10 -17q7 -15 -1 -29q21 0 45 2q1 10 1 21q-5 -5 -12 -7q-11 -3 -21.5 2.5t-14.5 17.5l-14 47q-1 5 -1 10q-7 1 -12 1v-2z" />
    <glyph glyph-name="semicolon" unicode=";" horiz-adv-x="240" 
d="M193 465q5 -5 5 -12q5 -101 9 -133q1 -7 -3.5 -13t-12.5 -7h-6q-5 -3 -11 -3q-17 1 -50.5 3.5t-49.5 3.5q-8 0 -13 7q-10 5 -10 16q0 25 -1 43q-2 8 0 15q-2 34 -7 62q-2 13 10 19q3 12 15 13q21 2 107 2q7 0 12 -5t6 -11zM137 105l-18 -6l2 -27zM111 391q11 -8 12 -9
q1 0 3 -1t10.5 -3.5t20.5 -7.5q5 -2 10 -6q-2 18 -5 81h-14h-16l3 -2q10 -6 12.5 -17.5t-4.5 -22.5q-11 -18 -32 -12zM107 -97q-8 7 -9.5 17.5t3.5 19.5q8 12 14 25q-4 0 -9 2q-1 1 -2 1q-15 -36 -45 -62l30 -18l6 -3q2 10 9 16zM189 71l3 15l-6 -14q2 0 3 -1zM89 127
q12 4 56 20q37 13 61 17q12 2 19 -9q14 -5 12 -20q9 -4 14 -13t3 -20q-12 -65 -15 -78q-11 -89 -100 -192q-5 -5 -12.5 -5.5t-13.5 3.5l-2 2q-13 10 -40 25q-31 18 -44 27q-10 7 -8 19q-5 13 6 21q70 52 58 171q-5 4 -6 10q-2 7 1.5 13.5t10.5 8.5z" />
    <glyph glyph-name="less" unicode="&#x3c;" horiz-adv-x="645" 
d="M293 198l70 -18q46 -11 56 -13q-2 1 -6 2t-8 2.5t-8 2.5q-20 6 -26 8q-45 14 -78 16zM612 105l4 15l-157 37q83 -22 142 -45q7 -2 11 -7zM488 62q-7 -5 -16 -5q-76 0 -215 22l-45 8l117 -37q47 -14 137 -33q85 -19 122 -29q5 32 13 70q-10 -4 -20 0l-46 16
q-5 -10 -14.5 -14.5t-20.5 -1.5zM42 154q-5 8 -5 17q0 12 8.5 20.5t20.5 8.5h25l-25 7q-12 3 -17.5 14t-2.5 22q1 4 4 8l-18 -12q-1 -1 -2 -1q0 -14 -7 -94q0 -2 -1 -5l8 -2q3 11 12 17zM190 228q27 -9 48 -15l36 -10q-3 2 -4 5q-3 7 -1 14t9 10q19 9 40 21
q-68 -23 -128 -25zM238 292q33 6 66 17.5t83 32.5l71 31q20 8 34 -9q66 47 115 88q-10 12 -39 51q-24 31 -40 46q-31 -18 -98 -64q-72 -49 -111 -72l-153 -88q34 14 159 60q126 46 196 84q11 5 22.5 1.5t17 -14t2 -22t-13.5 -17.5q-68 -36 -204 -86zM132 250q-16 2 -23 17
q-5 10 -1 22l-40 -26q7 2 14 0q22 -6 51 -16q-1 2 -1 3zM655 131q-25 -103 -33 -161q-1 -5 -4 -9q-2 -7 -8.5 -10.5t-13.5 -1.5q-40 10 -138 32q-89 19 -139 35l-159 49q-93 28 -159 41q-7 2 -11 8t-3 14q1 4 4 7q-5 6 -4 13q0 4 3.5 35.5t3 33.5t-0.5 33q-1 8 4 13.5
t12 6.5h4q96 65 288 175q38 21 108 70q74 50 111 72q13 7 23 -4q3 -1 5 -3q21 -19 49 -56q31 -41 42 -54q3 -2 4 -6q1 -1 3 -2q4 -6 3.5 -13.5t-5.5 -12.5q-57 -50 -141 -108.5t-159 -100.5q16 -4 37 -10q74 -22 83 -24l166 -39q2 -1 3 -2q5 2 9 0q8 -1 11.5 -7.5t1.5 -13.5
z" />
    <glyph glyph-name="equal" unicode="=" horiz-adv-x="601" 
d="M599 381q3 -4 3 -9q0 -2 4.5 -51t2.5 -75q2 -4 2 -8q0 -7 -5.5 -12.5t-12.5 -5.5h-3q-20 0 -119 4q-74 3 -119 1q-11 0 -61 -3t-71 -3.5t-60.5 -1t-71.5 1.5t-62 6h-1h-6q-7 1 -12 7t-4 13q2 18 6 73q2 42 6 69q-1 3 -1 6q0 7 5.5 12.5t12.5 5.5q279 0 400 -5
q10 0 50 -2.5t49 -2t48 1.5q8 1 13.5 -4t6.5 -12v-6zM41 54q-7 6 -10 14q0 -7 -1 -14h11zM85 154h-53v-12v-11q6 17 24 20q14 2 29 3zM542 182q30 -1 53 -3q7 -1 12 -7t4 -13q-1 -5 -3 -8q3 -51 -3 -79q4 -4 5 -10q1 -8 -4 -13.5t-12 -6.5q-114 -12 -333 -18t-250 -7
q-8 0 -13.5 5t-5.5 12q0 6 3 11q-1 3 -1 7q2 20 2 120q0 7 5.5 12.5t12.5 5.5h1q238 0 414 -9h2q46 4 90 8q12 1 21 -7zM60 298q-10 4 -16 13q-2 -38 -3 -51q66 -8 157 -6q-19 2 -56.5 7t-55.5 7q-11 1 -18.5 9.5t-7.5 20.5zM180 100q66 -4 101.5 -5.5t90.5 0t100 8.5
q12 1 21.5 -6t11.5 -19v-8l64 6q5 23 3 69q-11 0 -24 1q-8 -14 -23 -15q-54 -4 -141 -14q-93 -11 -136 -14q-25 -2 -68 -3zM41 100q-6 5 -9 13v-25q3 7 9 12zM68 354q47 3 133 0q89 -2 129 0q18 1 83.5 5.5t101.5 4.5q12 0 20.5 -8.5t8.5 -20.5q0 -22 -21 -28
q-6 -15 -23 -18q-25 -4 -78 -17q-27 -7 -43 -10q37 0 94 -2q79 -4 101 -4q1 20 -3 60l-5 50q-34 -1 -46 -0.5t-45.5 2.5t-44.5 2q-121 5 -380 5q-2 -15 -4 -33q9 11 22 12z" />
    <glyph glyph-name="greater" unicode="&#x3e;" horiz-adv-x="755" 
d="M338 376q-99 56 -228 144q-6 4 -10 11l-22 -47q163 -65 260 -108zM713 294q8 -5 11 -14q3 -12 -2.5 -22.5t-16.5 -14.5q-102 -32 -260 -115l-78 -42l161 56q128 44 196 71q2 0 3 1q-1 26 -1 145q-30 15 -82 35q-86 33 -99 39l-157 73l41 -24q22 -12 108 -53.5t129 -70.5
l14 5q11 3 22 -2t15 -17q4 -13 -4 -25q6 -12 0 -25zM598 332q-30 17 -96.5 48.5t-100.5 51.5q-52 29 -217 138q-9 6 -12 17t2 20q-9 5 -17 9q-4 3 -6 7q-15 -23 -29 -50q11 1 20 -5q270 -180 440 -243zM662 290l-4 3l-23 -9q0 -2 -1 -4zM175 648q21 -12 59 -28
q45 -20 62 -28q169 -84 263 -127q24 -10 97 -38q63 -23 99 -42q7 -4 9 -11t-1 -13q0 -1 -1 -2q0 -133 3 -170q1 -7 -4 -12.5t-13 -6.5q-9 -1 -15 7q-71 -28 -209 -74.5t-202 -71.5q-29 -11 -108 -47q-70 -32 -111 -47q-7 -2 -13.5 1t-9.5 10q-1 2 -1 5q-2 2 -4 5
q-49 94 -52 145q0 6 3 11q1 8 7 14q137 100 357 185q-119 55 -339 143q-7 3 -9.5 10t-0.5 14q1 2 3 5q-3 7 1 14q45 95 79 149q4 6 11 7.5t14 -2.5q4 -2 6 -7q9 8 20 2zM162 51q25 10 50.5 22t54.5 27l48 24l54 28q35 19 49 27q102 53 170 82l-5 2q-42 -18 -150 -69
q-176 -83 -274 -112q-11 -3 -21.5 2.5t-14 17t2 22t17.5 14.5q97 28 266 108l98 47q-25 10 -51 22q3 -15 -12 -20q-236 -86 -385 -193q3 -43 47 -126q24 9 53 22q-9 5 -13 15q-4 11 0.5 22t15.5 16z" />
    <glyph glyph-name="question" unicode="?" horiz-adv-x="608" 
d="M209 -73l14 2q-8 -1 -15 3zM366 233v-10l4 7q-2 2 -4 3zM176 611q38 31 74 48q97 46 180 -2q11 -7 21 -15q-16 28 -53 38q-68 20 -155 -16q-34 -13 -67 -53zM235 172q-5 -1 -11 -1q-11 2 -18 10q0 -21 2 -43q85 0 138 -2q1 22 6 43q-4 -2 -9 -3q-12 -1 -21.5 6t-11.5 19
v2q-11 -17 -23 -36q-6 -10 -17.5 -13t-22.5 3q-9 5 -12 15zM267 243l30 40l19 25q1 5 3 11q-37 -32 -52 -76zM528 560q-9 -26 -20 -48q-11 -29 -35 -61q-21 -56 -68 -121l-36 -48v-2q18 20 54 56t54 57.5t31 44.5q31 53 20 122zM288 -43q-3 -17 -19 -23q49 5 81 7v20h-1
q-29 -3 -61 -4zM201 -21q-1 3 -1 6q0 10 6 18q-5 -1 -10 -1l4 -24zM171 400q-10 4 -35 13l-40 15q-14 5 -34.5 15t-37.5 20q-4 3 -7 8q-6 -1 -12 2q-7 4 -10 12v1v1l-1 1v1v1v1v1v1v1v1l1 1v1v1l1 2q2 5 8 16q16 35 25.5 54t28.5 51.5t35.5 53t41 43.5t50.5 38l14 6
q7 3 13.5 5.5t15 4.5t13.5 3.5t15 3t14 2t14.5 1.5t13.5 1t14 1t13 1q134 10 206 -40q81 -57 87 -194q2 -35 -5 -66.5t-16.5 -52.5t-29 -44.5t-32 -35.5t-37.5 -33q-29 -26 -43.5 -40.5t-34 -40.5t-27.5 -56t-8 -67q0 -8 -6 -14t-14 -6h-1h-3q-60 3 -177 3q-8 0 -14 6t-6 14
q0 7 4 13q-14 169 62 261q8 10 22 23l32 31l30 26q26 24 39 42q15 19 16 31q1 7 -1 16q-3 9 -6 11q-5 1 -23 -1q-52 -6 -86 -55q-12 -18 -29 -51q-21 -43 -29 -56zM390 27v-86q0 -8 -6 -14q1 -2 1 -4q0 -8 -5.5 -14.5t-13.5 -6.5q-11 -1 -175 -17q-8 -1 -14.5 4.5t-7.5 13.5
q0 5 2 10q-1 1 -1 2q-2 18 -8 50.5t-7 38.5q-1 5 1 10q-1 4 -1 8q0 8 6 14t14 6q30 0 94 5t96 5q10 0 16 -9q9 -6 9 -16zM88 588q65 102 133 130q106 43 193 18q56 -16 84 -60q5 21 26 22q-7 8 -16 14q-60 42 -181 33q-33 -2 -46 -3.5t-36.5 -7t-39.5 -14.5
q-29 -15 -53 -38.5t-45 -57t-34 -58t-33 -67.5q3 0 6 -2q11 -7 21.5 -13t26 -12t22 -9t28 -10.5t25.5 -8.5q2 5 20 39q18 36 31 56q44 63 115 72q27 3 40 -2q24 -8 31 -38q4 -16 3 -30q-3 -24 -24 -52q-15 -20 -44 -46q-11 -12 -30 -28.5t-31 -28t-20 -20.5q-31 -37 -44 -94
q22 57 75 99q15 12 41 29q25 17 44 32.5t36 35.5l10 12q9 28 13 56q7 47 -35 71q-56 32 -125 -1q-53 -25 -119 -92q-9 -8 -21 -8t-21 8q-12 13 -7 29q-6 1 -11 5q-10 6 -12.5 17.5t4.5 22.5z" />
    <glyph glyph-name="at" unicode="@" horiz-adv-x="893" 
d="M598 433q12 -5 16 -18q-1 10 -2 18h-14zM711 70q-16 -5 -69 -20q-4 -9 -14 -9q-29 0 -87 -1t-87 -1q-7 0 -11.5 4.5t-4.5 11.5q0 3 1 6q-1 3 -1 6v1q-80 -9 -133 42q-52 51 -55 133q-3 51 16 96t63.5 77t106.5 35q4 7 12 9q27 5 55.5 6t71.5 0t53 -1q7 0 11.5 -4.5
t4.5 -11.5q0 -8 10 -100q5 -46 2 -76q41 24 44 92q2 39 -9 79q-11 39 -31 62q-31 39 -72.5 57t-83 15t-85.5 -22q-64 -29 -114 -84.5t-68 -118.5q-35 -130 10 -214q46 -87 172 -114q98 -21 175 -3q56 12 117 48zM507 256q-2 6 -5 19q-17 4 -24 5q-17 3 -22 0q-10 -3 -12 -14
t5 -22q7 -9 19 -9q17 1 39 21zM566 428q4 4 9 6h-13zM616 374q3 -8 3 -16q-1 -13 -1 -26q1 -22 4 -66q6 30 0 79q-1 10 -3.5 29.5t-3.5 29.5q0 -15 1 -30zM572 138q-1 2 -2 5l-2 -28q-1 -12 -10.5 -19.5t-21.5 -6.5q-11 1 -19 10t-7 21q-10 -6 -21 -8q-16 -4 -34 -1
q-5 -4 -11 -5h-3q-1 0 -3.5 -1t-5.5 -2q-17 -5 -31 -1q-55 15 -96 83q-16 27 -23 55q4 -66 46 -107q47 -45 122 -31h3q13 0 16 -13v-1v-2l1 -15q24 0 71.5 1t70.5 1q3 2 6 3q9 3 36 10.5t39 11.5t32 11.5t35 16t28 19.5q90 77 91 210l-3 -13q-29 -103 -77 -156
q-66 -73 -169 -60v-10q0 -12 -8.5 -20.5t-20.5 -8.5t-20.5 8.5t-8.5 20.5v22zM122 108q-44 85 -46 183q-3 165 105 300q-37 -34 -62 -70q-48 -72 -65 -155q-10 -50 -2 -114q9 -64 32 -129q24 -67 59 -119q35 -53 75 -77q55 -33 133 -47q79 -15 164 -8q24 1 48 5
q-61 -9 -124 5q-86 1 -144 30q-115 57 -173 196zM803 307q9 23 17 51q19 69 13 101q-10 45 -44 90q5 -13 9 -26q14 -45 16 -102q1 -57 -11 -114zM819 -51q-51 -47 -131 -75t-171 -34q-89 -7 -172.5 8.5t-142.5 50.5q-47 29 -85 85q-37 56 -63 128q-25 71 -34 137
q-8 68 2 123q17 88 71 167q32 47 81.5 89t100.5 66q35 17 64 29q47 23 101 32q123 28 228 -18q46 -21 103.5 -67t79.5 -85q30 -55 45.5 -116.5t15 -124t-27 -121.5t-76.5 -102q-4 -4 -8 -7q3 -2 5 -5q9 -12 0 -24q30 -68 23 -116q-1 -5 -4 -9q0 -6 -5 -11zM796 -27
q6 37 -17 92q-96 -64 -177 -83q-86 -19 -191 3q-145 31 -200 135q-52 99 -12 243q20 73 76 135q56 63 128 94q50 23 99.5 26t100 -18t89.5 -68q24 -30 37.5 -76.5t10.5 -92.5q-2 -51 -26.5 -89.5t-73.5 -49.5q-8 -1 -15 3q2 -21 3 -39q80 5 112 106q16 54 16 111t-14 102
q-10 32 -24 62q-18 37 -32 48q-58 47 -178 36q-110 -9 -187 -54q-55 -33 -119 -116q-41 -55 -53 -131.5t6 -152.5q7 -34 20 -66q60 -110 189 -165q45 -19 82 -28q33 0 70 4q99 13 205 51q11 4 22 -0.5t15 -16t-0.5 -22.5t-16.5 -15q-12 -5 -25 -9q-4 -4 -8 -6
q-76 -39 -142 -49q152 23 230 95v1zM508 346q-58 11 -94 -6q-37 -18 -45 -69q-2 -9 0 -32q0 -11 2 -19q0 -4 1 -6q5 -7 20 -16q13 -8 32 -17q36 -16 53 -13q11 3 30 26l6 8v8q-22 -14 -43 -15q-33 -2 -53 25q-10 14 -13 33t6 37.5t30 27.5q16 6 44 1q5 0 10 -1q1 14 15 17
v10z" />
    <glyph glyph-name="A" unicode="A" horiz-adv-x="738" 
d="M399 355q-17 45 -33 108q-25 -70 -45 -110q34 0 78 2zM198 167q-21 -78 -35 -121q-4 -12 -15 -17t-22 -2q-17 6 -20 24q-12 -13 -29 -8q-11 3 -17 13.5t-3 22.5l13 42q-23 -51 -45 -79q17 -13 35.5 -24.5t45.5 -25.5l41 -22q14 31 39 93q27 71 43 105v2q-16 -2 -31 -3z
M483 320q-40 113 -116 287l-29 -63l-31 -68l-27 -60q-14 -35 -27 -69q-8 -22 -15 -44h18h16q41 -1 66 1q20 1 123 13zM505 258l-2 5q-16 -1 -36 -3q-103 -12 -125 -14q-27 -2 -70 -1h-52l-5 -18l86 11q70 9 115 13.5t89 6.5zM411 644l-6 14q-4 11 0.5 22t15.5 15.5t22 0
t16 -15.5l12 -29q-9 32 -13 60q-56 33 -123 48q-54 -98 -122 -282l-19 -49l75 164q4 8 12 26l11 26q4 8 9 21.5t8 26.5q3 12 13 18t22 3t18 -13t3 -22l-1 -4h1q16 -8 17 -25q16 6 29 -5zM584 326h5l-36 102l-9 24q21 -62 40 -126zM601 270q22 -77 41 -158q3 -12 -3 -22
t-18 -13q-3 -1 -5 -1q2 -11 -4.5 -21t-18.5 -12q-11 -3 -21.5 3.5t-12.5 18.5q-15 65 -36 135q-29 0 -60 -3l4 -4q38 -62 101 -202q20 7 65 29q44 21 61 28l-86 227q-4 -3 -7 -5zM340 799q83 -18 149 -60q12 -8 8 -23q7 -41 22 -85.5t38 -101.5t34 -87q74 -215 142 -383
q10 -2 14 -12q3 -8 -0.5 -15.5t-11.5 -10.5q-26 -9 -84 -37q-56 -27 -90 -38q-8 -3 -15.5 1t-9.5 12q-1 4 -1 8q-61 135 -92 189q-27 -3 -56.5 -4t-66.5 -2t-56 -1q-11 -24 -41 -100q-29 -74 -47 -112q-4 -7 -11.5 -10t-15.5 1q-1 1 -2 1q-7 -1 -13 3q-12 7 -41 22t-52 28
q-23 14 -42 30q-6 5 -7 14q-3 1 -6 3q-6 6 -6 14.5t5 14.5q12 12 23 30.5t18 33t18 39.5q10 24 16 38q34 74 115 292q71 190 126 291q7 11 20 10q7 9 19 7zM396 509q23 -99 46 -154q2 -5 2 -10q2 -4 2 -8q0 -8 -5.5 -14.5t-13.5 -6.5q-73 -3 -122 -3q-12 0 -18 11q-2 0 -4 2
q-7 4 -9.5 11.5t2.5 15.5q23 41 67 164q3 8 10.5 11.5t15.5 0.5l6 -4q8 1 14 -3.5t7 -12.5z" />
    <glyph glyph-name="B" unicode="B" horiz-adv-x="687" 
d="M280 216q1 -7 4 -52q60 -16 125 -14q39 1 52 11q4 2 4 6q0 7 -6 19q-17 30 -81 33q-23 2 -60 0q-37 -3 -38 -3zM276 527q5 -71 5 -77q32 7 52 20t21 24q0 9 -15 18q-22 12 -63 15zM249 391q20 5 38 11q47 15 76 33q28 18 32 34q0 1 -2 18q-4 -29 -39 -51q-32 -20 -83 -29
q-4 -2 -8 -2q-8 0 -14 5v-19zM182 545q-9 3 -14 11q-3 4 -4 9v-52q1 -108 2 -140q12 2 25 5q0 95 -9 167zM188 238q-7 -2 -14 0l6 -61q3 -34 5 -59q0 27 3 120zM340 354q25 12 44 26q-29 -16 -69 -30zM190 299q1 10 1 20l-23 -4l2 -23l4 2zM220 621l2 -2q61 22 118 8
q44 -10 74 -42.5t36 -84.5q3 -32 2 -39q9 18 15 38q14 50 -7 82q-19 29 -66 44q-43 13 -90 11.5t-84 -15.5zM180 613q-11 4 -16 14l-2 6q1 -25 2 -55q2 11 11 18q0 9 5 17zM195 32q-4 3 -6 7v-5zM240 46q-4 -12 -15 -17q81 -8 169 7l7 1q-88 1 -161 9zM243 104q71 -8 158 -9
q89 -1 114 43q21 36 -8 85q-18 31 -49 50t-77.5 17.5t-93.5 -33.5q5 0 14.5 0.5t14.5 1.5q39 2 64 0q86 -4 113 -53q13 -24 12 -43q-2 -21 -20 -34q-23 -18 -75 -19q-37 -1 -78 5q-42 6 -62 12q-7 2 -11 8q-13 4 -14 18l-1 12q-1 -35 -1 -61zM82 692q20 -133 11 -372
q0 -8 -1.5 -44.5t-2 -47.5t-1.5 -43.5t-1 -46.5v-43q0 -28 0.5 -47t2 -42.5t2.5 -45.5q20 -3 40.5 -3.5t54 0.5t43.5 1l1 11v1q-41 3 -68 10q-2 1 -5 2q-11 1 -19 9.5t-8 19.5q0 57 -9 161q-11 127 -13 165q-2 46 -3 176q-1 119 -6 172q-1 18 13 27q-14 -3 -35 -11
q3 -4 4 -9zM266 568q59 -3 92 -22q18 -9 27 -23q-16 38 -59 48q-42 10 -87 -8v-6q6 7 15 8q6 3 12 3zM187 743q27 -6 78 -1q69 8 90 7q124 -5 198 -80q83 -83 55 -207q-4 -18 -18 -44q-8 -16 -10 -23q50 -28 81 -82q32 -54 38 -116q7 -68 -18 -129t-83 -96q-42 -26 -104 -35
t-115.5 -5t-109.5 16v-3q-1 -13 -14 -17q-5 -10 -17 -10q-10 0 -47.5 -1.5t-64.5 0t-51 5.5q-12 3 -15 15q-6 5 -7 13q-2 23 -3.5 48t-2 44.5t-0.5 48.5v44q0 15 1 48.5t1.5 44.5t2 48.5t1.5 45.5q9 235 -11 364q0 5 1 9q-7 4 -10 11q-3 8 0.5 15.5t11.5 10.5q48 17 68 21
q44 9 70 -9q2 0 4 -1zM177 666q48 24 112 28q65 4 122 -14q67 -21 97 -67q36 -54 15 -130q-22 -76 -79 -129q129 -17 170 -129q27 -74 3 -131q-21 -48 -86 -79q-51 -24 -127 -36q-19 -3 -36 -5q138 -12 210 32q46 28 66.5 78.5t14.5 108.5q-6 57 -34.5 104t-73.5 68
q-5 3 -8 8q-10 8 -6 20q4 15 18 43q11 22 13 34q24 104 -43 171q-62 62 -172 68q-19 1 -84 -6q-56 -6 -90 1q-10 -1 -17 5q-8 8 -25 7q19 -5 21 -25q2 -23 3 -47q2 15 16 22z" />
    <glyph glyph-name="C" unicode="C" horiz-adv-x="763" 
d="M579 213q1 -1 2 -1q31 -16 77 -51q53 -41 69 -51q7 -5 8.5 -13t-2.5 -15q-2 -3 -5 -5q0 -6 -4 -12q-66 -93 -126 -131q-63 -39 -147.5 -40.5t-158.5 27.5q-79 27 -145.5 76t-101.5 109q-55 92 -48 241q6 121 60 221t141 156q60 38 127 50.5t142 -4.5q76 -17 148 -66
q62 -42 100 -80q38 -39 63 -97q4 -8 0.5 -15.5t-10.5 -10.5q-1 -1 -3 -1q-3 -7 -9 -10q-29 -15 -74 -43q-63 -39 -75 -46q-7 -4 -15 -2t-12 9q-5 8 -2 17q-22 44 -65 70.5t-93 30.5q-51 4 -96 -18t-69 -69q-19 -36 -14 -101q5 -58 24 -107q16 -41 56.5 -70t88.5 -36
q48 -6 84.5 14t49.5 67q2 8 9 12t15 2q7 -2 11 -7zM210 544q62 48 142 70q34 10 68 13q-66 0 -115 -19q-57 -22 -95 -64zM179 105q17 -18 46 -33q-59 50 -90 114q13 -49 44 -81zM604 69q9 3 19 5q11 3 21.5 -3t13.5 -18q1 -4 1 -8q14 17 31 41q-11 8 -57 44q-35 27 -60 41
q-22 -51 -68 -72t-100 -13q-58 7 -107.5 42.5t-70.5 88.5q-20 54 -25 118q-6 77 17 122q14 26 33 47q-67 -48 -85 -108q-19 -63 8 -153q21 -70 88 -127q36 -31 71 -46t81 -17q57 -3 113 4q15 9 29 22q9 9 21 8t20 -9q4 -4 6 -9zM613 513q-33 39 -88.5 52t-120.5 2
q10 0 20 -1q57 -5 108 -35t79 -81l50 31q44 28 74 44q-21 45 -54 77q-32 30 -88 68q-67 45 -134 60q-69 16 -128 5t-111 -45q-79 -50 -129 -142q-49 -90 -54 -203q-7 -138 42 -219q31 -52 92 -97q60 -44 134 -71q72 -26 145 -24q74 1 126 34q31 19 59 49q-43 -11 -88 -16
q-71 -40 -178 -28q-161 19 -232 92q-70 73 -70 203q0 309 216 394q75 29 186 22q114 -7 209 -97q9 -8 9 -20t-8 -21q-6 -7 -16 -8q4 -17 -9 -28q-9 -8 -21 -7t-20 10z" />
    <glyph glyph-name="D" unicode="D" horiz-adv-x="754" 
d="M377 720q48 -8 95 -25q63 -23 118 -59.5t89 -81.5q-30 53 -71 86q-52 41 -107 58.5t-124 21.5zM258 762h57q27 0 55 -1.5t54 -4t53 -9.5t52.5 -16.5t52 -24.5t50.5 -34q72 -57 107.5 -155.5t26.5 -203t-61 -179.5q-46 -68 -106 -122q-74 -67 -247 -96q-141 -24 -265 -14
q-8 1 -13.5 7t-4.5 15q1 5 4 10l-8 221q-4 100 -9 213q-2 39 1 177q2 105 -3 166q-6 4 -9 10q-3 8 0.5 15.5t11.5 10.5q37 13 90 26q34 9 56 11q13 2 23 1q15 -1 23 -8q7 -6 9 -15zM286 146q86 22 128 55q50 38 72.5 89t16 101t-41.5 89q-36 40 -97 58q-50 15 -80 15
q3 -23 3.5 -49.5t-0.5 -59.5t-1 -46v-252zM153 -48q-3 -1 -6 -1q-12 0 -21 8t-9 20q-2 51 -1 144.5t0 143.5q0 9 -1.5 69t-2 76.5t-1 66t0 76.5t1.5 66.5t3 73.5q1 12 10 20t21 7t20 -10t7 -21q33 23 79 31h-6h-4h-1q-8 -1 -15 4t-8 13v6q-5 0 -12 -1q-19 -2 -50 -10
q-30 -7 -64 -17q6 -64 4 -173q-3 -139 -1 -174q3 -69 9 -212l8 -217q113 -6 233 14q161 27 227 87q55 51 100 114q37 55 49.5 130.5t-2.5 147.5q3 -109 -67 -234q-38 -68 -90.5 -120.5t-109.5 -73.5q-30 -11 -70 -20q-41 -10 -67.5 -15t-79.5 -13t-63 -10q-11 -1 -20 4z
M637 302q34 92 22 159q-9 50 -66 99t-141 80q-66 24 -125 28q-60 4 -100 -14q92 14 181 -17t150 -94q48 -50 69.5 -112t9.5 -129zM509 109q-41 -24 -102 -43q-87 -27 -186 -38q-10 -1 -18 4v-4v-4q0 -7 -3 -13q173 27 233 49q38 14 76 49zM261 592q47 4 115 -16
q72 -21 115 -69.5t51 -110.5q8 -61 -19 -121.5t-85 -105.5q-50 -39 -149 -63q-2 -1 -4 -1q-3 -7 -9 -11q62 11 114 28q106 33 140 78q40 55 49.5 112t-7.5 104t-56 86q-57 60 -142.5 85t-171.5 3q-2 -77 -2.5 -156t1.5 -196t2 -156q5 3 12 4q23 2 48 6q-8 2 -12.5 7.5
t-4.5 12.5v286q0 14 1 53.5t0 64.5t-6 49q-2 9 4 17q6 9 16 10z" />
    <glyph glyph-name="E" unicode="E" horiz-adv-x="655" 
d="M74 -31q-12 7 -14 22q-7 58 -9 125q-3 -83 -3 -147h26zM625 685q1 -31 1 -119q0 -8 -6 -14t-14 -6h-3h-5q-63 6 -183 6q-24 0 -80.5 -1.5t-86.5 -1.5q1 -52 0 -72q94 0 146 -5q8 -1 14 -7q12 -6 12 -19q0 -80 4 -163q10 -6 10 -18q0 -8 -6 -14t-14 -6q-31 0 -85 -5
q-56 -4 -72 -5q0 -50 -2 -75q33 0 95 -2t74 -2q109 -2 180 4q11 1 18 -7q7 -5 9 -13q9 -33 8 -87q-1 -63 1 -80q1 -7 -3.5 -13.5t-11.5 -7.5q-5 -6 -13 -7q-35 -3 -74 -5l-66 -5q-29 -2 -76.5 -3t-67.5 -1.5t-76 -1t-67 -0.5h-75h-70q-14 0 -19 13q-13 5 -13 19q0 60 2 125
t6 151q2 73 4 125q7 247 -8 397q-1 8 4.5 14.5t13.5 7.5h5q6 8 16 8q31 0 101 0.5t122 0.5q48 0 102 -2q32 -1 113 -8q70 -5 111 -5q8 0 14 -6t6 -14v-4q1 -2 1 -5q2 -17 3 -37q3 -6 3 -13q0 -6 -2 -11zM170 685q101 23 196 31.5t217 8.5q-1 5 -1 10q-37 1 -96 6
q-80 6 -112 7q-53 2 -100 2q-51 0 -121 -0.5t-100 -0.5q2 -15 3 -30q7 16 25 17q12 1 20.5 -7.5t9.5 -20.5q0 -10 1 -20q0 16 1 32q0 12 9 20t21 8t20 -9t8 -21q-1 -17 -1 -33zM121 80q-1 68 -4.5 194.5t-4.5 173.5q-1 -16 -2 -49t-1 -49q-5 -179 3 -286q2 9 9 16zM460 38
q14 -9 14 -25q0 -12 -8.5 -20.5t-20.5 -8.5q-23 0 -98 -0.5t-125 0t-98 2.5q-4 0 -7 1q-3 -12 -13 -18q327 0 495 15q-1 18 0 49q-4 -1 -8 -1q-63 4 -131 6zM116 42q-2 3 -3 6v-6h3zM229 589q35 0 99.5 1.5t85.5 1.5q113 0 172 -5q0 54 -1 80h-29q8 -9 8 -20
q0 -12 -8.5 -20.5t-20.5 -8.5q-225 0 -367 -20q0 -79 2 -186q62 6 167 13q12 1 21 -7t10 -20t-7 -21t-20 -10l-49 -3q15 -1 28 -3q12 -2 19 -12t5 -22t-12 -19t-22 -5q-27 5 -73 3q-48 -1 -64 -1q5 -148 5 -215q216 13 417 0h3q-1 16 -3 29q-69 -5 -172 -3q-21 1 -58 2
t-67.5 1.5t-57.5 0.5q-8 0 -14 6t-6 14v3q-6 7 -5 16q2 22 2 91q0 8 6 14q5 10 16 10q22 1 86 6q42 3 59 4q-4 76 -4 149q-48 4 -143 4q-4 0 -7 1h-7q-8 1 -13 7.5t-4 15.5q2 15 2.5 31.5t0 41t-0.5 34.5q0 9 6 15t15 6z" />
    <glyph glyph-name="F" unicode="F" horiz-adv-x="631" 
d="M624 772q10 -5 11 -16q11 -115 2 -179q-1 -6 -6 -11q-3 -15 -19 -15q-60 0 -175.5 1t-170.5 1v-23h138q8 0 14 -6t6 -14q0 -7 -4 -12q0 -89 12 -166q1 -8 -3.5 -14.5t-12.5 -8.5q-6 -8 -16 -8q-29 0 -82 -2t-72 -3q0 -29 4 -149q4 -109 1 -165q0 -5 -2 -9v-4q0 -8 -6 -14
t-14 -6q-21 0 -99 -5q-64 -5 -104 -1q-8 1 -13.5 7.5t-4.5 14.5q-2 4 -2 9q0 67 10 177q12 135 14 174q2 55 3 209q1 145 6 211q1 8 7 13.5t15 4.5h2q5 9 15 11q44 6 99 8.5t86.5 3t103 0t89.5 -0.5q19 0 49 -2.5t51.5 -2t41.5 6.5q8 3 15.5 -1t9.5 -12q0 -1 1 -2zM126 31
q-9 -11 -23 -11q-12 0 -20.5 8.5t-8.5 20.5q0 44 -4 274q-2 -45 -14 -176q-10 -109 -10 -165q31 -2 81 1l13 1q-16 9 -15 27q1 10 1 20zM130 378q-1 1 -2 1q0 -12 2 -156q1 43 0 155zM134 678q-1 1 -1 2q-6 -26 -7.5 -54t0 -73.5t1.5 -61.5v-43q1 3 3 5q0 15 -0.5 53
t-0.5 59.5t1 54t4 58.5zM226 519v44q0 7 4 12q1 8 6.5 13t13.5 5q60 0 176.5 -1t171.5 -1q7 57 -2 154q-22 -4 -46.5 -4t-53 2t-40.5 2q-19 0 -90 0.5t-102 0t-84.5 -3t-95.5 -8.5h-6q-1 -22 -3 -45q2 8 4 15q3 11 13.5 17t22.5 3q15 -4 20 -19q1 2 3 5v3q2 12 11.5 19
t21.5 6q16 -3 23 -18q29 1 86.5 8t72.5 9q128 13 207 -22q11 -5 15 -16.5t0 -22.5q-3 -6 -9 -11q-2 -10 -10 -17.5t-18 -7.5q-35 -1 -98.5 -7t-73.5 -7q-29 -2 -96 -4q-53 -1 -82 -3q-1 -25 0 -152q90 6 136 18q11 3 21.5 -3t13.5 -17.5t-3 -22t-18 -13.5l-3 -1
q0 -10 -6.5 -18.5t-16.5 -10.5q-45 -10 -124 -17q1 -257 -5 -373q-1 -14 -12 -22q23 1 40 2q2 50 -1 157q-4 123 -4 156q-6 6 -6 14t6 14t14 6q30 0 87 2.5t83 2.5q-9 70 -10 149h-132q-8 0 -14 6t-6 14q-2 4 -2 9z" />
    <glyph glyph-name="G" unicode="G" horiz-adv-x="736" 
d="M449 364l-25 -1q1 -10 1 -23q4 20 24 24zM149 231q1 21 6 68q9 81 44.5 159.5t91.5 134.5q11 11 23 21q-18 -11 -34 -23q-68 -49 -98 -120q-21 -51 -29 -115q-9 -64 -4 -125zM607 274q-46 2 -75 2q3 -3 5 -6q4 -8 3 -21q-1 -7 -3 -17q-3 -14 -6 -25q-19 -63 -66 -91.5
t-104 -20.5q-49 6 -91 37t-63 79q0 -57 25 -99q35 -61 110 -82.5t137 8.5q3 3 6 5q42 36 87 134q1 4 4 11l6 25q2 11 10 17l11 30zM679 328h12q15 0 23 -13v14q0 3 1 15t1 18t-1 10h-2h-33q-19 -1 -46 -1q5 -1 10 -3q24 -7 32 -27q2 -6 3 -13zM494 306h-40q-21 0 -28 20v-1
q2 -24 3 -38l2 1q22 3 35 3q19 2 32 0q-4 7 -4 14v1zM409 402q166 7 169 7q64 2 101 3h34h11q3 -1 5 -1q5 0 10 -4q10 -7 14 -23q3 -9 3 -23q0 -7 -1 -19t-1 -13q0 -49 -3.5 -88t-14.5 -84.5t-29.5 -81t-51.5 -68.5t-78 -54q-5 -2 -9 -2q-52 -24 -95 -35t-97 -11
q-173 0 -262 97q-80 87 -97 261q-9 90 13 180t69.5 165t125.5 127.5t173 64.5q113 14 168 -7q14 -6 27.5 -13t28.5 -18l24 -16q9 -7 26 -22l22 -20q5 -4 23 -21.5t20 -18.5q6 -6 6 -14.5t-5 -14.5q-3 -3 -7 -5l-3 -3q-63 -76 -118 -118q-6 -5 -14.5 -4t-13.5 7.5t-4 15.5
q-34 27 -76.5 30.5t-82.5 -12.5t-79 -49q-61 -53 -91 -123q-29 -72 -11 -132q14 -44 50 -73t78.5 -34.5t77 15t49.5 69.5q3 9 5 21q1 6 2 10q-2 1 -4 1q-10 2 -27 0q-11 0 -32 -3t-26 -3q-17 -1 -20 15q-2 4 -2 8q0 18 -2 54q-3 38 -3 57q0 15 14 19q5 4 11 4zM583 609
q-140 53 -251 -57q-17 -17 -33 -38q7 7 15 13q43 37 91 56.5t102 14.5t99 -41q40 34 88 92q-29 28 -46.5 43t-45 34.5t-50.5 28.5q-46 18 -148 5q-86 -11 -156.5 -58t-114 -115.5t-64 -152t-12.5 -167.5q16 -160 87 -238q77 -84 232 -84q52 0 93.5 11.5t97.5 38.5q4 2 8 2
q109 60 132 213q-38 -115 -150 -213q-17 -14 -35 -2q-7 -4 -15 -8q-80 -55 -192 -33q-56 11 -103.5 41t-74.5 75q-33 55 -43 134.5t0 154.5t34 134q35 86 118 146q92 66 188 88q138 31 202 -60q7 -10 5 -22t-12 -19q-5 -3 -11 -4q-5 -10 -15 -13.5t-20 0.5zM571 368
q-48 -1 -113 -4q48 0 108 3q3 1 5 1z" />
    <glyph glyph-name="H" unicode="H" horiz-adv-x="669" 
d="M226 755q1 -1 1 -3q9 -60 2 -169q-7 -105 -4 -144q83 11 209 22q4 94 11 273q0 8 6.5 13.5t14.5 5.5h1q4 2 9 2q129 0 188 -15q8 -2 12 -9t2 -15q-1 -5 -5 -9q0 -24 1 -71.5t0.5 -85t-1.5 -71.5q-1 -29 -6.5 -127t-6.5 -143.5t1.5 -121t12.5 -135.5q1 -9 -5 -16
q-5 -12 -18 -12q-33 0 -98.5 -1.5t-98.5 -1.5q-8 0 -14 6t-6 14q0 3 1 6q-2 4 -2 8q0 48 -2.5 138.5t-2.5 131.5q-84 -9 -196 -23q0 -103 22 -247q1 -8 -4 -15t-13 -8q-6 -1 -11 2q-4 -2 -8 -2q-112 0 -174 -3q-8 0 -14.5 5.5t-6.5 13.5q0 4 1 8q-3 5 -4 10
q-15 113 -15.5 258t6.5 257q1 23 -4 136q-3 88 7 142q2 8 8.5 12.5t14.5 3.5q5 6 14 6h156q8 0 14 -6t6 -14q0 -3 -1 -6zM506 371v12l-76 -24zM150 697q-3 -31 -3.5 -63.5t2 -67.5t5 -63.5t6.5 -69t7 -66.5q21 4 62 9q52 6 74 10q53 11 131 35q-135 -12 -224 -25
q-8 -1 -14 3.5t-8 11.5q-2 3 -2 6q-4 45 3 169q6 101 -1 155h-98q4 -6 4 -12l1 -16q9 18 29 16q12 -1 19.5 -10.5t6.5 -21.5zM610 669q2 -114 -12 -324q-15 -225 -15 -321q0 -21 -20 -28q-1 -10 -8 -17t-17 -9q-12 -1 -21.5 6t-11.5 19q-6 48 -7.5 109t0 99t5.5 109
l-112 -18q-35 -5 -98.5 -10t-115.5 -3q-3 0 -5 1q3 -72 3 -214q0 -11 -7.5 -19.5t-18.5 -9.5l1 -12q1 -12 -7 -21t-20 -10t-21 7t-10 20q-36 425 -40 485q0 -16 -1 -29q-7 -113 -6.5 -255t15.5 -252v-2q57 2 151 2q-19 132 -19 232v4q-2 4 -3 8q-1 9 4 15.5t13 7.5
q149 19 234 27h5h3q8 0 14 -6t6 -14q0 -48 2.5 -143.5t2.5 -141.5q26 0 79 1.5t80 1.5q-9 60 -11 134.5t-0.5 121t6.5 139.5t6 122q1 33 1.5 70t-0.5 84.5t-1 70.5q-48 9 -149 9q-6 -169 -11 -261q3 -4 4 -9q0 -6 -2 -11l33 10q1 44 -1 124.5t-2 114.5q0 12 8.5 20.5
t20.5 8.5q22 0 28 -21q8 7 19 7q12 0 20.5 -8.5t8.5 -20.5z" />
    <glyph glyph-name="I" unicode="I" horiz-adv-x="643" 
d="M618 767q2 1 4 1q8 0 14.5 -5.5t6.5 -13.5q8 -171 11 -199q1 -8 -4.5 -14.5t-13.5 -7.5h-4q-5 -3 -11 -3q-41 0 -179 -7q-4 -50 -4.5 -109t1.5 -100.5t6.5 -112t5.5 -105.5q12 -1 74 -4q59 -3 95 -8q8 -1 12.5 -7t4.5 -13q2 -4 3 -8q4 -31 6 -80q3 -59 5 -76
q1 -8 -4.5 -14.5t-13.5 -7.5h-1q-5 -3 -11 -3q-52 0 -267 -5t-267 0q-11 0 -17 11q-14 4 -14 19q0 27 -2.5 80t-2.5 79q0 8 6 14t14 6h2q4 2 9 3q104 10 129 11q1 156 14 443q-14 0 -55.5 -2t-72 -1.5t-57.5 4.5q-8 1 -13 8t-4 15q1 4 3 8v1q6 60 2 162v2l-2 6q-1 9 4 15.5
t13 7.5q87 11 175 14q89 3 222 0t173 -3q3 0 5 -1zM110 708q48 10 119.5 12t114.5 0.5t138.5 -7.5t107.5 -7q8 -1 15 -6l-1 28q-40 0 -165.5 3t-208 0.5t-162.5 -11.5q4 -92 -1 -151q9 -3 80.5 -0.5t84.5 2.5q6 0 11 -3h4q8 0 13.5 -6.5t5.5 -14.5q-15 -315 -15 -476
q0 -8 -5 -13.5t-12 -6.5q-5 -3 -11 -3q-31 0 -132 -10l2 -48q1 9 8 16q9 9 21 9q53 0 154 4q0 104 -0.5 195t5.5 197.5t19 196.5q-95 -4 -175 1q-12 1 -20 10t-7 21q1 7 5 14q-14 6 -16 21q-3 11 4 21t19 12zM94 -21v-7q2 -44 2 -67q99 -4 283.5 0.5t230.5 4.5q-1 11 -3 60
q-3 44 -6 71q-30 4 -78 6q-71 4 -94 6q-8 1 -13.5 7.5t-4.5 14.5q0 2 1 4q-2 37 -6.5 108.5t-6.5 116.5t-1.5 108t5.5 116q0 3 1 5v3q0 8 5.5 14.5t13.5 6.5q165 8 189 8q-3 37 -5 90q-9 -8 -21 -7q-15 1 -33 2q-2 -9 -9 -16t-17 -8q-102 -10 -152 -13q-1 -101 -10 -298
t-10 -294q121 3 202 -2q12 -1 20 -10t7 -21t-10 -20t-21 -7q-29 2 -59 3q4 -7 4 -15q0 -12 -8.5 -20.5t-20.5 -8.5q-292 0 -343 1q-12 0 -20 9t-8 21q0 7 4 14q-6 6 -8 14z" />
    <glyph glyph-name="J" unicode="J" horiz-adv-x="761" 
d="M564 75q-31 -76 -99 -134q-43 -37 -110 -54q92 9 138 53q47 43 71 135zM395 -37q18 10 32 22q39 34 65.5 78t32.5 90q2 10 2 22q-14 -56 -42 -104q-34 -60 -90 -108zM589 581q55 4 124 -1q16 75 19 135q-17 4 -47 8q5 -8 5 -17q-1 -17 -16 -25v-1q3 -12 -3.5 -22
t-18.5 -12q-53 -11 -121 -19q54 -237 56 -392q7 122 -9 311q-6 5 -7 13q-1 9 4.5 15t13.5 7zM244 763q74 12 260 10q87 -1 151 -7q74 -6 102 -18q14 -6 12 -21q3 -5 3 -12q-3 -67 -22 -153v-6q-1 -8 -7.5 -13.5t-14.5 -4.5q-62 6 -110 5q17 -192 8 -321q-16 -227 -105 -312
q-37 -35 -96 -50.5t-114 -14.5q-112 3 -184 50.5t-106 128.5q-31 81 -30 169t28 183q2 8 9.5 12.5t14.5 1.5q4 -1 6 -3q4 1 7 1q28 -3 81 -14q54 -11 76 -13q8 -1 13.5 -7.5t4.5 -14.5q0 -2 -1 -4q2 -6 0 -12q-14 -35 -14 -98t16 -107q16 -43 39 -47q30 -4 79 50
q52 59 51 214q-1 103 -24 222q-101 1 -145 -5q-9 -1 -15.5 4t-7.5 13q-1 6 2 11q-1 3 -1 6q0 12 -1.5 37t-1.5 37q0 50 13 80q2 6 8 9q4 12 16 14zM288 719q65 -5 183 6q56 6 73 7q-20 1 -41 1q-169 2 -247 -9q-9 -22 -9 -64q0 -12 1.5 -34.5t1.5 -31.5q39 4 135 3l4 2
q7 1 13 -2h5q8 0 14 -6t6 -14q0 -11 -10 -17q23 -120 24 -224q1 -171 -61 -241q-63 -71 -115 -63q-47 8 -71 73q-16 47 -17.5 111t11.5 108q-20 3 -60 11q-50 11 -76 13q-27 -106 -20 -199q2 57 20 105q4 12 15 16.5t22 0.5q10 -4 15.5 -13.5t2.5 -19.5q4 -5 5 -12
q3 -18 7 -50l6 -50q3 -19 9 -44.5t14 -45.5q24 -59 61 -76q32 -13 76 3q42 16 83.5 54.5t66.5 81.5q58 102 51 266q-2 38 -13 145q-7 68 -8 111q-103 -9 -143 -15q-12 -1 -21.5 6t-11.5 19q-2 19 14 29q-10 0 -19 1q-12 1 -20 10t-7 21t10 20t21 7z" />
    <glyph glyph-name="K" unicode="K" horiz-adv-x="694" 
d="M249 755q1 -3 1 -6q0 -13 0.5 -45t0.5 -50.5t-1 -46t-4 -50.5l32 28q40 35 55 50q106 110 164 160q6 6 14.5 5t13.5 -7q1 -1 2 -3q2 0 3 -1q61 -40 127 -128q12 -16 -4 -28q-1 -1 -3 -2l-4 -6l-88 -85l-111 -104q-47 -44 -95 -80q39 -23 105 -82.5t71 -64.5
q23 -19 74 -55q53 -38 76 -56q4 -3 6 -7q6 0 11 -3q7 -4 9 -12t-2 -15q-17 -30 -56 -83t-55 -78q-4 -7 -12 -9t-15 2q-2 1 -4 3q-7 1 -11 7q-25 32 -160 137q-60 47 -105 77q-23 15 -38 24q1 -144 -8 -204q-2 -8 -8.5 -13t-14.5 -4q-2 1 -3 1h-2q-126 0 -182 5
q-8 1 -13.5 7.5t-4.5 14.5q1 6 5 11v2q0 92 11 383q9 238 3 381q0 9 6 15q2 14 15 17q59 16 180 28q8 1 14.5 -4.5t7.5 -13.5q1 -7 -3 -12zM272 360q17 -10 34 -22q-7 10 -2 21q-1 11 8 17q49 36 96 78t115 109l91 88q-17 22 -35 42q5 -18 -10 -30q-87 -73 -210 -207z
M202 373l-10 -7v-8l5 5q0 2 1 5q2 3 4 5zM262 298q-15 10 -30 18l-2 -2q16 -7 32 -16zM202 527q3 20 5 40.5t2.5 45.5t1 40.5t0 47t-0.5 42.5q-90 -9 -141 -22q6 -143 -3 -378q-11 -289 -11 -379q47 -3 146 -3q3 23 4.5 51.5t1.5 47.5t-0.5 54.5t-0.5 50.5v1q-3 7 -1 15
t9.5 12t15.5 1q22 -7 76 -44q48 -33 108 -78q112 -87 155 -132l45 62q29 40 43 62q-2 1 -3 2q-16 12 -75 55q-50 36 -77 58q-22 18 -57.5 51.5t-65.5 58t-60 40.5q42 -29 86 -67l94 -84l77 -68q17 -15 7 -35l7 -5q9 -7 10.5 -19t-5.5 -21.5t-19 -11t-22 5.5q-22 17 -65 45
q-49 32 -68 46l-56 42l-58 43q-22 16 -54 36t-61 32v-114v-113q0 -12 -8.5 -20.5t-20.5 -8.5q-10 0 -17.5 6t-10.5 15q-4 -1 -8 -1q-12 -1 -20.5 7.5t-9.5 20.5q-5 102 -3 314q2 206 -4 310q-1 12 7 21t20 10q11 1 19 -5t11 -16q3 1 5 1q12 1 21 -7t10 -20q6 -105 8 -232
q45 33 123.5 103.5t114.5 99.5q14 11 30 3q38 36 74 65q12 10 27 6q-26 25 -50 41q-51 -47 -149 -147q-17 -18 -57 -53q-37 -31 -54 -50q-6 -6 -14.5 -6t-14.5 5v1h-2q-8 2 -13 8.5t-4 14.5z" />
    <glyph glyph-name="L" unicode="L" horiz-adv-x="699" 
d="M250 750q4 -4 6 -10q6 -32 6.5 -72t-1.5 -84q-1 -44 0 -68q8 -193 8 -336q64 0 196.5 -3t200.5 -3q8 0 14 -6t6 -14h1q6 -5 7 -13q16 -123 16 -176q0 -12 -10 -17q-7 -8 -17 -7q-99 10 -307 -1q-211 -11 -312 -3q-8 1 -13.5 7t-4.5 15q0 3 2 7q0 127 -1 381.5t-1 381.5
q0 6 4 12q-1 1 -1 2q-1 8 4 15t13 8q27 4 85 1q50 -2 75 3q9 1 15.5 -3.5t8.5 -12.5v-4zM224 66q-21 1 -40 2q-2 -3 -5 -6q20 2 45 4zM184 703q-4 -44 -3.5 -62t3 -63t2.5 -67q2 -86 1 -385q57 -5 179 4q52 6 119.5 5t122.5 -14q11 -3 17.5 -13t3.5 -22q-2 -11 -11.5 -17
t-20.5 -5q-2 -10 -10 -17.5t-19 -7.5q-40 0 -102 -8q-101 -12 -105 -13q-9 -1 -118 -9q-71 -5 -114 -13q-12 -2 -21.5 5t-12.5 19q-2 11 4 20q-2 6 -1 12q8 70 9 157t-1.5 149.5t-8.5 158.5q-1 14 -4.5 56.5t-4 58.5t0.5 60q1 12 10 20t21 7q4 0 8 -2q2 6 7 11q-31 1 -49 0
q0 -127 1 -378t1 -375q91 -5 286 5q202 10 296 2q-1 48 -16 152q-64 0 -196 3t-200 3q-11 0 -17 10q-12 5 -12 18q0 114 -8 346q-1 29 0.5 71t1 77.5t-5.5 65.5q-18 -2 -40 -2q8 -9 7 -23z" />
    <glyph glyph-name="M" unicode="M" horiz-adv-x="882" 
d="M391 233l-70 122l61 -135l1 1zM404 176q-1 0 -3 1l2 -4zM853 719q4 -28 5 -62t0.5 -57.5t-2 -63.5t-1.5 -56q-3 -143 -3 -514q8 -6 8 -16q0 -8 -6 -14t-14 -6q-1 0 -96 2q-56 2 -93 -2q-8 -1 -14.5 4.5t-7.5 13.5v3q-2 4 -2 9q0 31 -2 97t-2 104.5t2 104.5
q-52 -92 -94 -181q-2 -4 -6 -7q-2 -9 -11 -14q-52 -27 -101 -76q-5 -6 -13 -6t-14 5q-12 0 -18 9q-17 26 -39 71l-36 69l-34 54q20 -133 18 -201q12 -5 12 -18q0 -8 -6 -14t-14 -6q-34 0 -111 -11q-76 -12 -118 -10q-8 0 -13.5 6.5t-5.5 14.5v3v3q0 77 3.5 224t3.5 168
q4 234 -9 389q-1 11 7 17q0 8 5.5 13.5t13.5 5.5q141 7 170 7q3 0 6 -1q14 4 22 -9q14 -22 28 -47l24 -46q10 -19 25 -51.5t22 -46.5t23.5 -52.5t19.5 -46.5t21.5 -52.5t20.5 -48.5l28 54q28 52 47 81q95 145 127 209q1 2 3 4v3q1 8 7.5 13.5t14.5 4.5q25 -2 85 -2
q57 1 90 -3q10 -2 15 -11q8 -5 9 -14zM756 646q0 -54 12 -169q13 -125 15 -174q2 -55 -3 -139q-8 -132 -8 -135q0 -12 -9 -20t-21 -8q-15 0 -23 13q-12 0 -20.5 8.5t-8.5 20.5q0 46 -5.5 251.5t0.5 255.5l-236 -413q-8 -14 -25 -14l5 -12q4 -11 -0.5 -22t-15.5 -15.5t-22 0
t-16 15.5q-101 240 -171 369l-18 30q2 -41 3 -68q1 -39 2 -121.5t3 -146t6 -121.5q1 -12 -7 -21t-20 -10t-21 7q-7 -13 -22 -15q-12 -1 -21.5 6.5t-10.5 19.5q-6 68 -6 175q0 124 -2 170q-1 18 -5 78.5t-5 90t0 78t6 87.5q2 10 8.5 16.5t16.5 8.5q0 8 5 16l-56 -3
q12 -155 8 -387q0 -28 -3.5 -166.5t-3.5 -211.5q32 0 91 9t85 11q1 29 -2 68.5t-7 67.5l-11 76l-11 66q0 4 1 8q-4 15 10 22q7 4 15 1.5t12 -10.5q12 -24 40 -65q31 -47 43 -68q10 -16 37 -71q19 -36 32 -58q47 45 98 72q0 2 1 4q61 127 140 257l2 4q2 8 9 12.5t15 3
t12.5 -8.5t3.5 -15q-8 -40 -11.5 -93t-3 -93t2.5 -104t2 -94q32 2 78 0q11 0 33 -0.5t34 -1.5q0 366 3 510q0 18 1.5 56t2 60t-0.5 53t-4 56q-26 3 -75 2q-52 0 -73 1q-1 -1 -1 -2q-35 -70 -129 -213q-16 -24 -45 -78q-33 -62 -45 -81q-1 -2 -3 -4q-2 -10 -11 -13
q-8 -4 -15.5 -0.5t-10.5 10.5l-35 82l-37 90l-35 79q-21 47 -41.5 86.5t-42.5 76.5q-24 0 -52 -1l4 -6q9 -22 22.5 -44.5t32 -49.5t29.5 -46l174 -304l10 17q37 67 51 90q25 41 55 84l72 100l59 82q6 8 16 11l6 10q6 10 18 13t22 -3q16 -10 14 -28q8 -8 8 -20z" />
    <glyph glyph-name="N" unicode="N" horiz-adv-x="720" 
d="M662 712q3 -6 4 -12q9 -86 14 -161q0 94 3 169zM230 738q2 -1 3 -3q52 -63 137 -210q65 -112 100 -162q0 9 -2 42q-5 62 -4 97q0 12 6 119q4 71 2 116q-1 14 13 20q6 8 16 8q110 0 206 -21q10 -3 14 -12q3 -5 3 -11q-2 -53 -3.5 -116.5t-1.5 -106.5t0.5 -119.5
t0.5 -110.5q0 -25 -0.5 -84t-0.5 -91.5t2.5 -80.5t8.5 -87q1 -8 -4 -15t-13 -8q-4 0 -8 1q-6 -5 -13 -5q-14 0 -74 -5q-41 -3 -67 -1q-13 -6 -23 4q-64 69 -156 214q-84 132 -114 172l7 -76q6 -64 7.5 -89t1.5 -73t-4 -85q0 -1 -1 -2q1 -2 1 -3q1 -8 -4.5 -14.5t-13.5 -7.5
q-32 -3 -97.5 -7t-99.5 -7q-8 -1 -14.5 4.5t-7.5 13.5t4 14v2q0 89 -3.5 252t-4 252.5t4.5 252.5q0 8 6 14v1q-1 8 4 15t13 8q49 7 156 2q11 -1 17 -11zM139 629l-7 10q4 -16 7 -33v23zM614 -19q-1 0 -3 -1v-6q0 -12 -8.5 -20.5t-20.5 -8.5q-8 0 -14 4q-19 -11 -35 4
q-3 2 -5 5l22 -26q24 -2 65 1q59 5 73 5q-11 83 -8 271q-2 -16 -3 -32q-3 -27 -10.5 -84.5t-9.5 -87.5q-1 -12 -10 -20t-21 -7q-6 1 -12 3zM554 26q-3 4 -42 67l-16 26q32 -69 58 -102v9zM619 196v-13q16 175 0 392q3 -275 0 -379zM615 716l2 2l-3 1q1 -1 1 -3zM471 295
q-51 64 -135 210q-81 141 -133 204h-1q-86 4 -128 0v-2q-5 -163 -4.5 -249.5t4 -248.5t3.5 -249q25 2 76.5 5t77.5 5q5 36 3.5 91t-5 90.5t-8.5 91.5t-7 94q0 8 5.5 14.5t13.5 6.5q5 0 10 -2q7 -1 12 -7q9 -10 17 -21l16 -20q7 -9 16 -22l16 -22q5 -7 15 -22l14 -21l15 -23
q11 -17 13.5 -21.5t14.5 -23.5t14 -21q54 -85 88 -131q-24 37 -53 100q-10 20 -33 75t-36 79q-68 131 -174 288q1 -31 2.5 -97t2.5 -100q3 -188 -6 -312q-1 -12 -10 -20t-21 -7q-14 1 -22 12q-8 -13 -24 -13q-12 0 -20.5 8.5t-8.5 20.5v350q0 10 0.5 48t0 53t-2 44t-5 51
t-8.5 44q-3 11 3 21.5t18 13.5t23 -4q-6 10 -3.5 21t11.5 18q10 7 22 5t19 -12l2 -4q11 -1 18.5 -9.5t7.5 -19.5l3 -3q41 -45 79.5 -94t79.5 -111l65 -100l72 -115l62 -103q2 43 3 69q4 23 1.5 253t-2.5 253q0 11 7 19q-26 2 -55 2q1 -42 -2 -106q-6 -95 -6 -117
q-1 -34 3 -94q5 -75 5 -97q0 -12 -10 -17q-1 -2 -3 -3q-6 -5 -14 -4t-14 8z" />
    <glyph glyph-name="O" unicode="O" horiz-adv-x="877" 
d="M425 534q-68 -14 -117.5 -76.5t-58.5 -140.5q-12 -95 44 -154q65 -68 206 -59q91 6 132 75q37 63 21 152t-75 148.5t-140 51.5q-6 -1 -12 3zM45 251q-1 9 -1 21v25v23q-2 59 0 77q-12 -69 1 -146zM375 776q4 3 9 4q20 2 39 2.5t38.5 -2t34.5 -5t36 -9.5l33 -10
q12 -3 34 -11q7 -3 11 -4q79 -27 153 -85q73 -59 114 -130q16 -28 24 -66q9 -37 10 -61.5t1 -65.5q0 -155 -43 -236q-55 -100 -153 -162t-212 -67q-74 -3 -141.5 6t-137.5 42q-69 32 -115 87q-79 96 -103 237q-25 141 26 257q24 50 66 99t89 85q102 78 187 95zM340 16
q7 0 35 3q15 1 47.5 2.5t53 4.5t40.5 10q67 22 111 76q-49 -43 -126 -48q-159 -11 -237 72q-69 73 -55 186q6 49 28.5 96.5t56.5 84.5t83 57.5t102 15.5q8 -1 14 -7q77 -15 130.5 -81t67.5 -150l4 -23q0 24 -3 48q-17 158 -153 217q-9 5 -19 7.5t-18 4t-20 1t-18.5 -0.5
t-21.5 -2t-20.5 -2.5t-23.5 -3.5l-23 -5q-12 -2 -22 5t-12 19v8q-61 -50 -108 -123q-40 -63 -59.5 -128.5t-12.5 -120.5q5 -44 46 -113q50 -84 133 -110zM219 568q-17 -16 -37 -38q-55 -61 -71 -95q-9 -20 -10 -51.5t1 -61.5v-34q7 113 83 231q16 25 34 49zM752 348
q9 -150 -68 -258q44 51 69 127q6 19 10 38q-1 49 -11 93zM431 741q-58 0 -110 -23q-51 -24 -109 -69q-44 -34 -83 -79q-38 -45 -60 -91v-1q19 34 69 90q42 46 83 75.5t94 44.5q18 5 40 7q0 12 8.5 20t20.5 8h9h14h15q11 3 25 4.5t21 1.5t23.5 -0.5t19.5 -0.5q12 0 20 -9
t8 -21v-4q59 -30 124 -83q106 -88 144 -165q39 -78 14 -196v-26q-2 -76 -20 -111q-22 -40 -79 -88q-89 -74 -172 -93.5t-196 11.5q-20 6 -38 14q-64 -1 -110 26q-58 33 -96 125q-38 49 -57 105q26 -111 87 -184q59 -71 155 -99q96 -27 207 -22q104 5 193 61t138 148
q39 71 39 216q0 39 -1 63t-8 55.5t-20 54.5q-37 64 -105 118t-140 79l-59 19q-16 6 -46 12.5t-55 7.5q-3 -1 -7 -1z" />
    <glyph glyph-name="P" unicode="P" 
d="M260 558q2 -23 5.5 -68.5t5.5 -67.5q88 -1 120 7q30 8 44 23q15 16 14 45q0 7 -8 18t-17 17q-18 12 -49.5 18.5t-53.5 7t-61 0.5zM264 196q0 -14 4 -126q3 -84 1 -136q-1 -15 -15 -18q-5 -12 -18 -12h-175q-8 0 -14 6t-6 14q0 5 2 9q-6 64 -6 186q0 22 1.5 86t1.5 99
q0 27 -3.5 213.5t1.5 212.5q0 6 3 10v2q-1 8 4.5 14.5t13.5 7.5q23 2 73.5 7.5t82.5 8.5t80.5 5.5t85.5 -0.5t79.5 -9.5t80 -22.5t70.5 -39q53 -37 76 -97.5t17 -127.5q-5 -64 -35.5 -122.5t-79.5 -94.5q-33 -24 -72.5 -39.5t-88.5 -22.5t-79.5 -9.5t-84.5 -4.5zM132 475
l2 -70q0 31 -2 70zM192 330l62 12q61 13 101 24q114 34 136 81q3 7 4 24.5t-1 29.5q-6 41 -39.5 67.5t-87.5 36.5q-50 8 -99 1.5t-83 -25.5q7 -137 7 -176v-75zM471 351q77 34 107 87q29 52 12 114q-30 111 -165 125q-78 8 -178 -14q62 11 131 -1q67 -12 115.5 -50
t58.5 -103q3 -13 1 -41.5t-10 -44.5q-19 -41 -72 -72zM246 598h21h26q6 0 24.5 -0.5t28 -2t26 -3.5t27.5 -5.5t24 -9t23 -11.5q15 -10 28.5 -29t14.5 -38q2 -46 -25 -75q-22 -23 -63 -33q-13 -4 -27.5 -6t-31.5 -2.5t-27 -0.5h-28h-23h-4q-4 -1 -7 -1q-8 0 -14.5 5.5
t-6.5 13.5q-1 29 -6.5 88t-6.5 89q0 8 5.5 14.5t13.5 6.5h5h3zM209 653q-13 -3 -26 -7v-2q13 5 26 9zM236 234l-16 -3q-19 -3 -29 13q-2 -141 3 -223q1 -12 -7 -21t-20 -10q-10 -1 -17 4q-6 -3 -13 -4q-12 -1 -21.5 6.5t-10.5 19.5q-19 188 -25 288q0 -35 -1.5 -99.5
t-1.5 -85.5q0 -117 5 -175h147q2 47 -1 125q-4 104 -4 135q0 3 1 5q-1 3 -1 5q0 8 5 14q3 4 7 6zM245 235q6 0 15 1q54 2 83.5 4t75.5 9t82 21q35 13 64 34q42 30 68 81t31 108q5 58 -14 108t-63 81q-29 20 -60 34q-32 14 -72 20t-70 9.5t-79 0.5t-74 -5t-80.5 -8t-73.5 -7
q-3 -62 -2 -140q2 57 7 116q1 12 10.5 19.5t21.5 6.5q10 -1 17 -8q9 9 21 9q10 0 18 -6.5t10 -16.5q143 40 250 29q175 -18 215 -167q23 -86 -18 -158q-50 -89 -190 -133q-21 -7 -44 -13t-49 -11l-42 -8q-15 -3 -46 -8z" />
    <glyph glyph-name="Q" unicode="Q" horiz-adv-x="830" 
d="M778 100q39 -48 51 -96q1 -2 1 -4q5 -6 4 -14t-7 -13q-63 -52 -149 -100q-16 -8 -26 6q-4 2 -6 5q-20 24 -57 84q-34 -19 -80 -24.5t-93 0.5t-95 22q-78 25 -142 67.5t-92 91.5q-30 57 -41 135q-10 77 1 153q12 81 41 150q31 70 78 115q48 45 111 71.5t129 31.5
q138 10 242 -52t157 -171q51 -100 45 -225t-72 -233zM258 695q31 13 103 27q118 24 220 -36q102 -61 161 -170q38 -70 50.5 -146.5t-4.5 -153.5q27 85 22 168q-5 84 -41 157q-48 98 -141 153q-94 56 -220 47q-80 -6 -150 -46zM154 187l-13 18q-31 42 -41 112.5t1 133.5
q5 36 13 69q-19 -53 -27 -112q-10 -72 -1 -143t37 -120q22 -41 79.5 -79.5t130.5 -61.5q71 -24 138.5 -23.5t105.5 27.5l1 1q-68 -12 -146 5q-29 6 -59 16q-11 2 -24 5q-45 9 -88.5 30.5t-69.5 54.5q-23 30 -37 67zM482 663l2 -2l53 -18q-27 13 -55 20zM594 12h-2q1 0 2 -1
v1zM364 96q12 -5 24 -9q89 -14 151 7l-26 37q-1 -7 -7 -11q-3 -2 -6 -3q-7 -5 -15 -4q-43 7 -75 14.5t-72 28t-65 50.5q-39 49 -44.5 112t17 118t63.5 93q71 65 155 44q95 -24 167 -153q12 -21 17.5 -45t6 -38.5t-0.5 -43t-1 -37.5q0 -11 -10 -17l21 -27q6 12 11 27
q40 110 25 189q-2 8 -5.5 14.5t-13 20t-13.5 20.5q-10 15 -21.5 27.5t-21.5 22t-27 19.5l-27 14q-10 6 -32 14l-31 12q-10 3 -37 12l-36 11q-1 1 -3 1q-35 2 -64 -8q-54 -20 -96.5 -74t-63.5 -125q-6 -21 -10 -42v-5q-3 -107 30 -159q13 -21 33 -40q39 -30 82 -42
q19 -6 21 -25zM703 158q16 27 25 58q-11 -30 -26 -56zM216 607q-30 -39 -47 -108q19 42 54 81q8 9 20 10q43 47 96 69q-71 -15 -106 -45q-7 -6 -17 -7zM680 -19l7 -13q5 -10 1.5 -21.5t-14.5 -17.5q-5 -2 -10 -3l7 -10q68 38 119 79q-4 16 -12 33q-2 -14 -15 -21
q-10 -6 -22 -3t-17 14q-12 22 -26 44l-6 -4l23 -33q7 -10 4.5 -22t-11.5 -19q-13 -9 -28 -3zM595 206l33 -51l3 3zM534 299q1 12 11 20q-16 15 -34 29q-13 -10 -28.5 -23.5t-24.5 -21.5l-28 -27l-25 -25q58 -51 77 -70q-19 30 -33 58q-5 11 -1.5 22t14.5 17q9 5 19 2
q-1 17 13 27q10 7 21.5 4.5t18.5 -12.5zM363 267q9 8 38.5 37t51 47.5t43.5 34.5q9 6 18 3q8 1 14 -4q51 -39 86 -82q2 32 -1 53t-16 44q-65 114 -142 134q-64 16 -119 -35t-66 -127q-12 -77 35 -140q40 -50 141 -71q-10 10 -74 66q-4 3 -6 8q-2 1 -4 3q-5 6 -5 14.5t6 14.5
z" />
    <glyph glyph-name="R" unicode="R" horiz-adv-x="683" 
d="M223 531q3 -41 4 -63q60 7 96 17q34 10 52 22q16 12 17 25q1 21 -17 23q-10 2 -20.5 2t-22 -1t-20.5 -2.5t-23 -5.5l-20 -5l-24 -6q-15 -4 -22 -6zM576 630q8 -37 -2 -79q-13 -59 -55 -116.5t-99 -103.5q64 18 115.5 58t65.5 90q9 33 -10 107q-6 23 -15 44zM166 338
q5 2 41 15l49 18q13 5 38 16t44 22q97 53 121 132q7 23 -3 40q-11 18 -39 30q-27 13 -60 17t-56 0q-57 -10 -151 -65l2 -14q9 -99 11 -132q2 -37 3 -79zM143 683q23 16 48 29q-16 -1 -20 14l-1 1l-66 -6h-4q12 -4 18 -15q21 -2 25 -23zM519 572q8 41 -10 70q-17 28 -58 44
q-41 15 -90 15t-88 -15q-17 -7 -34 -15q26 10 52 15q29 6 72 0t78 -22q43 -20 64 -52q12 -19 14 -40zM203 286q1 2 3 5l-36 -13q-1 -1 -3 -1v-2zM283 313v7l-41 -16q4 -2 7 -4q18 6 34 13zM330 338l14 8l-16 -7q1 -1 2 -1zM540 0l16 -16q8 -9 8 -21t-8.5 -20.5t-20.5 -8.5
t-21 8l-120 125l41 -47l44 -49l33 -34q20 -20 33 -31q34 44 104 106q-15 21 -33.5 39.5t-48.5 43.5l-43 37l-47 48q-31 30 -55.5 52t-50.5 39q23 -35 50 -71l69 -88l57 -70q7 -10 5.5 -21.5t-10.5 -19.5q-1 -1 -2 -1zM360 185q-29 41 -51 76l-16 -6zM196 565l34 9
q23 7 35.5 10t37.5 8t39 4.5t39 -1.5q24 -4 38 -22t13 -43q-1 -33 -34 -56q-24 -16 -64 -27.5t-114 -19.5q-6 -4 -12 -4q-8 0 -14 6t-6 14q0 28 -6 93v4v1q-2 8 2 15t12 9zM212 218q36 -8 86 -53l2 -1l-68 70l-65 -20q0 -27 -0.5 -88.5t-0.5 -93.5q0 -12 -8.5 -20.5
t-20.5 -8.5h-5q1 -13 1 -25t-8 -21t-20 -9t-21 8t-9 20q-2 65 -7.5 175t-9 186t-3 175.5t7.5 183.5q2 15 15 22q-22 -2 -40 -5q7 -27 8 -60t0 -72t0 -55q10 -288 5 -412q0 -9 -3 -60.5t-2.5 -59t1.5 -58.5q25 3 66 6q68 5 85 7q-5 143 -14 245q-1 11 7 18q8 9 21 6zM19 750
q31 6 81 11q58 5 72 7q3 2 6 3q8 3 15.5 -1t9.5 -12l2 -7q122 27 172 29q112 4 179 -55q52 -46 73 -129q22 -84 10 -127q-18 -67 -82 -115q-65 -47 -141 -66q30 -23 80.5 -72.5t55.5 -53.5q7 -7 44 -38.5t59 -55t38 -51.5q4 -7 2 -15t-9 -12q-2 -2 -5 -2q-86 -76 -116 -124
q-5 -7 -13 -8.5t-15 3t-9 12.5q-3 1 -6 3q-16 12 -38 34t-37 40l-46 51l-43 48q-52 58 -86 88q-26 23 -46 34q7 -86 12 -222q0 -14 -12 -19q-2 -16 -18 -18q-28 -3 -92 -8t-89 -9q-8 -1 -15 4t-8 13t4 15q-2 22 -2.5 49.5t0.5 46t2.5 50t2.5 45.5q5 122 -5 408q-1 22 0.5 62
t0 69.5t-8.5 55.5q-3 11 5 19q0 16 16 20z" />
    <glyph glyph-name="S" unicode="S" horiz-adv-x="635" 
d="M333 417l2 -2q17 -22 61 -64q47 -45 67 -70q45 -54 90 -127q29 -47 44 -81l6 -16q-3 79 -70 166l-22 27q-11 14 -25 29l-24 25q-10 9 -28 26l-25 22l-27 24q-20 18 -23 20l-25 21h-1zM553 20q-3 -12 -7 -23q5 7 7 16q1 2 0 7zM262 -79q-30 12 -50 26q-61 42 -96 163
q-5 17 8 29q-15 -6 -27 -13q45 -178 174 -236q46 -20 135 -9q39 5 74 15q-28 -5 -60 -5q-11 1 -22 1q-74 -7 -136 29zM238 211q10 -15 27 -44l27 -44q31 -48 63 -60q16 -7 37 1q9 3 11 7q3 3 1 9q-2 8 -21 26q-17 17 -47 41l-92 70q-74 59 -119 141t-51 174q-9 128 67 198
q70 65 198 65q4 0 19.5 0.5t26 0.5t25 -2.5t25.5 -7.5q25 -11 48.5 -29.5t39.5 -35.5t36 -44.5t30 -44.5l28 -48q18 -31 25 -42q2 -2 2 -5q1 -2 2 -3q3 -8 -0.5 -15.5t-11.5 -10.5q-26 -9 -76 -34q-52 -27 -80 -37q-8 -3 -15.5 0.5t-10.5 11.5q-1 3 -1 6q-1 2 -2 5
q-6 28 -33.5 55.5t-58.5 39.5q-28 11 -41 3q-13 -9 -8 -43q3 -23 26 -46q9 -8 25 -21l26 -22q3 -3 23.5 -20.5t27 -24t25 -23t28.5 -26.5l25 -26q15 -15 28 -30l23 -28q98 -128 73 -245q-7 -33 -28.5 -67t-49.5 -50q-55 -33 -149 -44q-100 -13 -156 12q-146 65 -196 260
q-7 3 -11 9q-4 8 -1.5 16t9.5 12q29 15 73 34q69 29 72 30q5 3 12 2q15 8 25 -6zM497 531q-60 75 -109 104q-66 39 -123 5q-23 -14 -25 -28q-4 -27 27 -89q-3 49 28 69q29 18 76 1q35 -14 67.5 -44.5t45.5 -65.5q19 8 56 26q38 20 59 28q-4 6 -19 31t-19.5 33t-18.5 29.5
t-22 30.5l-21 26q-14 17 -25 26t-25.5 19.5t-29.5 17.5q-8 3 -17.5 4.5t-17.5 1.5t-22.5 -0.5t-22.5 -0.5q-112 0 -171 -54q-62 -57 -54 -167q6 -82 47 -157t107 -128l93 -71q31 -25 50 -44q26 -25 31 -42q7 -25 -5 -43q-10 -16 -31 -23q-35 -13 -67 -1q-42 18 -80 76
q-10 14 -28 46l-18 30q-10 -5 -21 -9l-26 -11l-21 -9l-3 -1q9 1 16 -4q5 4 10 6q12 3 22.5 -2.5t14.5 -16.5q3 -12 11 -38.5t12 -38t12.5 -28t20.5 -29.5q11 -13 27 -22q51 -19 109 -24q3 1 7 1q39 7 64.5 31t29.5 64q4 41 -37 96q-28 37 -107 112q-33 30 -42 40l-39 38
q-29 29 -41 46l-30 44q-18 26 -27 50t-12 49q-10 85 31 140.5t110 69.5q65 13 130.5 -15.5t100.5 -93.5q11 -21 -8 -36l16 -19q7 -9 6 -21t-10.5 -19.5t-21.5 -6.5t-20 11z" />
    <glyph glyph-name="T" unicode="T" horiz-adv-x="704" 
d="M628 672q14 -1 28 -3l6 -2q-3 33 -7 55q-171 0 -276 4q132 -8 226 -27q10 -2 16.5 -9.5t6.5 -17.5zM356 -9q-1 -29 -1 -56q0 -6 -3 -12q32 2 71 5q-3 29 -3 72q-1 80 -1 90q-5 131 -20 453q0 4 1 7q-1 3 -1 6q0 8 6 14t14 6q134 0 253 11q-2 13 -4 29q-9 -6 -20 -5
q-112 15 -278 13q1 -24 4 -59l5 -45l5 -53q17 -203 17 -452q0 -12 -8.5 -20.5t-20.5 -8.5q-9 0 -16 5zM263 565q2 -46 1 -130q-1 -90 0 -127q4 -139 16 -388q10 0 21 1q-4 6 -4 14q0 32 1.5 70.5t3 65t5 71.5t4.5 67q11 173 -21 413q-156 -4 -205 -4q-12 0 -20.5 8.5
t-8.5 20.5t8.5 20.5t20.5 8.5q30 0 65 1q-15 0 -30 1q-12 1 -20 10t-7 21t10 20t21 7q10 -1 175 -7q-21 2 -41 3q-1 0 -111 9q-64 5 -92 6q-2 -27 -3 -71q-2 -77 -2 -81q119 -11 178 -11q4 0 7 -1q4 1 7 1q8 0 14.5 -5.5t6.5 -13.5zM39 787q39 0 112 -6l109 -9
q146 -10 407 -10q8 0 14 -6t6 -14v-1q7 -5 8 -13q4 -25 9.5 -75t9.5 -75v-3q1 -2 1 -4q1 -8 -4.5 -14.5t-13.5 -7.5q-122 -12 -258 -13q15 -315 20 -444q0 -11 1 -92q0 -54 5 -87q1 -9 -4 -15.5t-13 -7.5h-3q-110 -10 -186 -10q-8 0 -14 6t-6 14q0 5 3 10q-2 3 -2 7
q-12 251 -16 389q-1 39 0 130q1 76 0 108q-57 0 -198 13q-8 1 -13.5 7.5t-4.5 14.5q0 4 2 8v5q1 12 2 84q1 54 4 87q1 5 4 10q4 14 19 14z" />
    <glyph glyph-name="U" unicode="U" horiz-adv-x="738" 
d="M147 652q10 -11 8 -25q-21 -122 12.5 -270.5t104.5 -252.5q35 -51 90 -71q58 -21 98 13q19 16 33 32q-9 -7 -17 -12q-60 -36 -133 9q-30 18 -52.5 45.5t-32.5 56.5q-73 219 -35 537q-29 11 -82 15q15 -10 13 -27zM604 155q-34 -92 -106 -153q-11 -9 -22 -16q42 7 74 41
q33 38 54 128zM636 680q1 0 2 1q12 2 21.5 -5t12.5 -19q10 -59 14 -149t-2 -191q-16 -245 -92 -328q-33 -37 -70.5 -50.5t-88.5 -12.5q-29 1 -42 1.5t-38.5 5.5t-45.5 15q-107 53 -177 251q-27 78 -42.5 160t-15.5 143q0 31 4.5 67t11 77t8.5 62q2 17 17 23q-10 1 -18 2
q-24 -92 -31.5 -180t-1.5 -169q7 -80 27 -182q23 -119 59 -171q54 -77 136.5 -114.5t176.5 -29.5q42 4 71 12t51 28q38 35 64 81t37.5 95t18 104.5t5.5 109.5l-2 109v22v136q1 79 -4 129q-53 7 -131 4q-1 -178 -24 -455q-1 -12 -1 -33q-1 -22 -2 -33q-2 -32 -9 -54
q36 72 44 187q4 60 1 173q-3 127 0 171q1 12 10 20t21 7q19 -1 25 -20zM96 773q6 -1 33 -3t40 -3.5t35 -6t38 -10.5q8 -3 11 -10q13 -6 11 -20q-40 -316 32 -531q7 -21 25.5 -43t42.5 -37q52 -32 92 -9q22 14 36 42q10 20 12 57q1 10 2 33q0 22 1 34q24 281 24 460q0 4 1 7
v2q0 8 5.5 14.5t13.5 6.5q107 5 174 -5q8 -1 13 -8t4 -15q0 -2 -1 -3q1 -2 1 -4q5 -54 4 -138v-135q0 -8 1 -27q0 -54 1 -108t-6 -112.5t-20 -111t-41.5 -103t-71.5 -89.5q-28 -26 -63 -36t-81 -14q-105 -9 -197.5 33t-151.5 129q-42 60 -67 185q-30 140 -30 276t39 277
q4 14 18 15q6 12 20 11z" />
    <glyph glyph-name="V" unicode="V" horiz-adv-x="767" 
d="M370 85l113 217q94 181 170 283q7 10 19 11.5t21 -5.5q4 -3 7 -7l1 3q35 68 39 94q-84 40 -125 56q0 -1 -1 -1q-38 -55 -77 -127t-63 -125l-61 -137q-6 -15 -25 -51q-16 -31 -23 -48q-3 -8 -10.5 -11.5t-15.5 -0.5q-9 4 -12 13q-3 2 -4 6l-4 8q11 -30 22 -71l2 4l67 112
l39 72l44 80l40 69q24 42 48 77.5t49 68.5q7 10 19 11.5t21.5 -5.5t11 -19t-5.5 -21l-47 -67q-22 -34 -46 -75l-40 -68l-43 -78l-40 -73q-20 -36 -67 -114l-31 -53q4 -15 8 -28zM334 22q-1 0 -1 1l-1 2q-1 -14 -13 -22q-10 -7 -21.5 -4.5t-18.5 12.5q-22 32 -36 85
q-17 64 -22 76l-74 200q-59 159 -96 243q-4 11 0 22.5t15 16t22.5 0.5t16.5 -15l23 -57q-6 23 -10 45q-3 12 3.5 22t18.5 12.5t22 -4t12 -18.5q9 -42 25 -89t29 -78l38 -86l36 -82q-32 80 -70 211l-13 47l-14 48q-5 17 -14.5 41t-20.5 44v1q-97 0 -144 -19
q23 -68 74.5 -237.5t95 -287.5t98.5 -225q1 1 2 1q95 13 105 13q0 3 2 5q24 40 48 86l40 78q16 31 42 94l35 80q8 19 39 96t34 86q-46 -74 -106 -190l-36 -70l-40 -78l-36 -68q-21 -38 -42 -73q-6 -10 -18 -13t-22 3t-13 18t3 22zM299 121l-3 15q-19 77 -31 105
q-14 34 -57 131l67 -178q8 -20 22 -77zM413 -98q-15 -1 -111 -14q-8 -1 -14 3q-16 -6 -25 10q-58 111 -104 236t-98.5 297.5t-76.5 243.5q-3 7 0.5 14.5t11.5 10.5q3 7 10 9q27 12 63 17.5t57.5 6t61.5 0.5q8 0 14 -6t6 -14q0 -2 -1 -5q12 -21 22 -47t15 -44l14 -49
q9 -32 12 -44q41 -142 76 -225l6 13q19 34 25 48l61 139q24 52 64 126t80 130q2 4 5 6q0 2 1 4q3 8 10.5 11.5t15.5 0.5q47 -17 154 -68q13 -6 11 -20q1 -4 1 -8q-2 -33 -43 -115l-32 -62q-17 -32 -23 -49q-8 -18 -35 -87l-39 -95l-36 -86q-25 -58 -43 -94l-42 -82
q-25 -48 -50 -88q-2 -4 -5 -6q-1 -7 -6.5 -12.5t-12.5 -5.5z" />
    <glyph glyph-name="W" unicode="W" horiz-adv-x="904" 
d="M317 50q3 0 5 1v1q-2 -1 -5 -2zM235 212l-29 91q-37 106 -59 180l13 -57q38 -162 63 -230zM201 113l-2 2q-12 9 -12 23q-6 5 -9 12q-31 76 -74 263q-34 146 -62 220l10 -43q7 -35 11 -52l31 -126l34 -137q13 -49 35 -120.5t45 -128.5q72 21 106 24q-20 0 -28 18l-13 33
q-15 -15 -32 -30q-9 -8 -21 -7t-20 10q-7 9 -7 20t8 19zM602 114l-83 117l-55 82l-54 -54q-18 -18 -80 -94l-13 -15q11 -33 23 -60q0 -1 1 -3q13 24 38 61q53 80 61 93q4 7 12 9t15 -2q3 -2 6 -5q5 -2 9 -7q57 -89 85 -168q0 -2 1 -4q15 -3 29.5 -7.5t32.5 -11.5t28 -11
l30 -14q22 -9 27 -12l37 142l40 150q14 58 32 139t29 150q-56 -263 -163 -510q-3 -5 -7 -9q-4 -6 -9 -9q-9 -6 -20 -4.5t-18 9.5q-13 -5 -25 1q-10 5 -14 16.5t1 22.5zM820 676q10 7 21.5 4.5t18.5 -12.5t4 -21l-3 -20q1 5 7 25q6 22 8 34q-95 37 -151 37v-2
q-26 -64 -51 -200.5t-25 -208.5q0 -8 -6 -14t-14 -6q-5 0 -10 3q-10 2 -14 12q-14 40 -71 97l-35 32q-2 -9 -8 -14l-9 -8h4q16 4 28 -7q10 -9 9 -23q56 -73 113 -161l3 17q26 123 33 148q8 29 44 129q37 101 46 159q2 12 12 19.5t21 5.5q10 -2 16.5 -9t8.5 -16zM707 281
q38 110 66 221q-38 -106 -45 -130q-10 -34 -21 -91zM335 11q-12 0 -24.5 -1.5t-27.5 -5t-24.5 -5.5t-28.5 -7l-27 -8q-8 -2 -15 2t-9 12q-1 2 -1 4q-5 4 -8 10q-23 58 -45 130.5t-35 122t-34 138.5l-31 125q-6 21 -15.5 64.5t-18 74.5t-19.5 59q-4 8 -0.5 15.5t10.5 10.5
q4 2 9 2q3 3 7 5q116 43 188 34q7 -1 12 -6q12 -5 12 -18q0 -18 3 -34.5t10.5 -44t9.5 -37.5q6 -23 34 -160q16 -78 29 -126l18 23q15 20 20 26l19 24q13 16 21 25l20 21l23 24q7 6 16 5q11 10 23 2q52 -31 106 -85q30 -30 51 -57q8 88 30 196.5t44 163.5q1 3 3 5
q-1 8 4.5 14.5t13.5 7.5q71 6 192 -42q8 -1 13.5 -7.5t4.5 -14.5q-2 -21 -12 -56q-10 -37 -12 -51q-15 -92 -36 -185t-59 -236l-48 -183q0 -3 -2 -6q0 -4 -1 -8q-4 -7 -11.5 -10.5t-15.5 -0.5q-12 6 -54 24.5t-68.5 27.5t-53.5 14q-8 2 -12.5 9t-3.5 15l1 1l-1 1
q-23 68 -70 143l-47 -71q-37 -57 -55 -95q-1 -2 -2 -3q-1 -8 -7 -12.5t-13 -4.5zM156 704q24 -151 104 -381l18 -54q71 92 129 152q2 13 14 19q4 3 8 3l22 21q3 3 6 5l-14 9q-24 -22 -47 -50l-52 -64l-45 -57q-5 -6 -13 -7t-15 5q-11 8 -6 22q-17 60 -37 158
q-27 134 -33 158q-2 9 -9 32.5t-10.5 42t-4.5 36.5q-60 3 -155 -31q6 -17 12 -36q4 12 15 17q11 4 22.5 0t16.5 -15q22 -51 40 -114q-14 62 -24 119q-2 12 5.5 22t19 12t21.5 -5.5t12 -18.5z" />
    <glyph glyph-name="X" unicode="X" horiz-adv-x="797" 
d="M536 279l26 -39q54 -81 86 -140l26 -54l29 -56q11 5 20 10q-5 19 -28 57q-22 38 -61 92zM747 661q4 -7 4 -15l6 6zM455 399q132 164 247 269q15 13 32 5q-54 47 -107 67q-1 -6 -6 -10q-36 -32 -110.5 -122t-94.5 -128q-3 -6 -9 -9l10 -15l192 221q8 9 20 10t21 -7t10 -20
t-7 -21l-203 -233zM489 348l19 -29q-1 6 2 12q-8 10 -2 21q20 39 46 76zM451 300l-5 -7l157 -253q6 -11 3 -22.5t-13.5 -17.5t-22 -3t-17.5 13l-145 234l-38 -50q-11 -15 -55 -79q39 49 67 89q4 6 12.5 7.5t15.5 -3.5q5 -4 7 -10q28 -39 92 -139q55 -86 90 -132l54 33
q-11 20 -29.5 58t-27.5 54q-30 57 -82 136zM417 351l-5 8l-6 -7l6 -8zM218 753q22 -34 97 -120q56 -65 82 -107q35 51 100 128t98 106q2 2 4 3q0 3 1 7q2 8 9.5 12t15.5 1q48 -14 95 -48t84 -75q5 -6 4.5 -14t-6.5 -14q-5 -5 -13 -5q-1 -1 -2 -3q-88 -81 -145 -146.5
t-98 -143.5l122 -162q39 -53 63 -94q30 -51 35 -77q0 -4 -1 -9q5 -17 -11 -23q-18 -8 -40 -20q-3 -8 -11 -13t-17 -4l-7 -4q-55 -35 -78 -46q-7 -4 -15 -1t-12 10q-2 4 -2 9q-33 43 -94 137l-79 120q-31 -43 -85 -109l-102 -129q-12 -16 -28 -4q-4 3 -6 6l-6 4
q-19 19 -59 44q-54 34 -67 44q-7 5 -8 13t4 15q2 3 5 5q1 1 1 2q68 144 204 311q-38 56 -102 134q-83 101 -115 121q-7 4 -9 12t2 15t11 9q1 3 3 5q10 9 30 29l34 32q14 13 33.5 29t37.5 28q7 4 15 2.5t13 -8.5q1 -3 2 -5q8 -2 13 -9zM188 47q23 24 45 53t48 67.5t43 60.5
l50 67l-6 9q-53 -69 -96 -135q-8 -13 -21 -31l-23 -32q-9 -14 -16 -29q-5 -11 -16.5 -14.5t-22.5 1.5t-14.5 16.5t1.5 22.5q8 16 20 33l24 37l20 28q48 74 110 154q-108 159 -210 284q-7 9 -6 21t10.5 19.5t21.5 6.5t20 -11q101 -126 202 -273l6 8q-121 184 -208 287
q-6 8 -7 17q-14 -11 -27 -24l-34 -31l-27 -27q38 -34 104 -113q71 -87 108 -143l2 -2q6 -5 7 -13t-5 -15q-139 -169 -207 -312q4 -3 48 -31q38 -24 59 -43l33 42q-19 -11 -35 4q-9 8 -9 20t8 21z" />
    <glyph glyph-name="Y" unicode="Y" horiz-adv-x="730" 
d="M267 269q-41 97 -115 240l47 -101q6 -13 19.5 -46t24.5 -54.5t24 -38.5zM193 785q8 -1 14 -7q82 -102 159 -288q134 178 193 280q4 7 12 9t15 -2q5 -3 8 -7q7 -5 32 -18l38 -20q12 -7 31 -19.5t34 -24.5q2 -1 5 -2q7 -3 10.5 -10.5t-0.5 -15.5q-16 -38 -40 -80l-40 -68
q-16 -27 -53 -76l-48 -64q-11 -14 -58.5 -71t-50.5 -62v-4q0 -11 0.5 -88.5t0 -106t-3.5 -84.5q-3 -55 -8 -100q-1 -9 -7.5 -14t-14.5 -4q-7 1 -11 5q-32 3 -90.5 6t-86.5 5q-8 1 -13.5 7t-4.5 15q0 4 2 8v5q1 14 3 69l4 78q1 23 2 66.5t1 78.5t-2 70q0 4 1 7q-12 18 -23 41
t-23.5 52.5t-16.5 40.5q-76 168 -146 284q-6 10 0 20q2 4 5 7q72 60 150 87q13 4 21 -5zM69 689l-9 -7l18 -31l-8 15q-6 11 -1 23zM105 707q0 4 1 7l-10 -6q4 0 9 -1zM433 325l16 -29l74 90l62 81q41 54 67.5 99.5t47.5 92.5l-8 7q-190 -244 -259 -341zM321 392l-98 134
l-61 88q93 -177 132 -262zM598 640q-21 -19 -40 -42l-43 -54l-39 -50l-84 -103l8 -12zM608 651l35 46l-61 33l-43 -67l23 22q9 8 21 7t20 -10q12 -13 5 -31zM331 282v20l-3 -5v-20zM341 -10q-1 45 -4.5 127.5t-4.5 108.5l-2 2h-1q2 -32 5 -99q6 -91 7 -139zM341 -46
q0 -12 -8.5 -20t-20.5 -8t-20.5 8.5t-8.5 20.5q0 57 -6 170q-5 101 -6 128q-2 -6 -6 -10q4 -95 -8 -351q19 -1 70 -3.5t79 -4.5q4 40 6 90.5t2.5 80t0 96.5t-0.5 84q-5 10 1 19q-12 4 -18 15l-2 3l-5 -8q0 -40 4.5 -149t4.5 -168q0 -12 -8.5 -20.5t-20.5 -8.5t-20.5 8.5
t-8.5 20.5v7zM158 725l54 -81l57 -84l56 -74q-72 170 -147 263q-18 -6 -34 -14q8 -3 14 -10z" />
    <glyph glyph-name="Z" unicode="Z" horiz-adv-x="772" 
d="M432 588q-45 0 -113 3q-114 5 -147 5q1 0 83 -5q111 -6 177 -3zM534 592q-29 -2 -47 -3q-22 -1 -47 -1q13 -2 16 -15h1q5 -6 5 -14.5t-6 -14.5q-57 -53 -137 -148q-126 -151 -131 -156q-7 -8 -58 -76q-30 -41 -57 -64q0 -10 1 -54q26 50 67 98t95.5 101t76.5 79
q23 26 63 77l57 73zM172 57l142 183q-15 -16 -46 -46l-47 -48q-17 -17 -39.5 -43.5t-38.5 -51.5q14 4 29 6zM689 58q10 -1 17.5 -8.5t8.5 -18.5q1 -12 -7 -21t-20 -10q-125 -8 -189 -19q-21 -3 -47 -8q16 1 32 1q27 1 143 -1q84 -1 125 2q0 82 -4 130h-63q14 -8 14 -24
q0 -14 -10 -23zM388 20q-39 -6 -69 -9q-22 -2 -60 -4t-55 -4l-9 -13q63 4 193 30zM138 -11q5 -1 7 -1q-1 2 -2 3zM119 -11q-6 1 -10 5q-14 -9 -29 -2q-4 1 -6 3q-1 -24 -2 -44h24q-1 5 -1 10q0 10 7 18t17 10zM93 788q75 -3 213 -11l192 -11q39 -2 118 -2t118 -2
q13 -1 18 -13q9 -6 9 -17q0 -20 1.5 -56t2.5 -50q1 -1 2 -1q6 -6 6 -14.5t-5 -14.5q-41 -44 -112 -128l-99 -113l-110 -121q-50 -55 -82 -95q161 6 402 6q8 0 14 -6t6 -14v-4v-2q5 -54 5 -152q0 -6 -3 -11q0 -7 -5 -13t-13 -7q-52 -5 -145 -3q-114 2 -142 1q-43 -1 -208 -13
q-134 -10 -210 -10q-6 0 -11 4q-4 -1 -7 -1q-9 1 -14 7.5t-4 14.5q2 18 3 39.5t1 36.5t-0.5 42t-0.5 39q-1 0 -1 1q-12 16 4 28q29 22 62 66q52 69 60 78l130 156q64 76 113 125q-57 -1 -149 4q-147 8 -182 8q-5 0 -10 3q0 -1 -5 -0.5t-6 0.5q-8 2 -12 9.5t-1 15.5
q7 25 11.5 53t8.5 65t7 57q2 10 11 15q6 11 19 11zM124 727q55 -1 176 -3t213.5 -4t176.5 -7q12 -1 20 -10t7 -21t-10 -20t-21 -7h-5q3 -4 5 -9q8 -8 8 -20t-8.5 -20.5t-20.5 -8.5q-61 -88 -227 -296l-188 -236q49 2 63 4q18 2 176 24q55 7 96 11q-144 -2 -262 -7
q-8 0 -14.5 5.5t-6.5 13.5q0 10 7 17l2 2q40 54 106 126l110 120l95 110q66 78 103 118v1q0 20 -2 58t-2 54q-35 2 -110.5 2t-114.5 2q-55 3 -188.5 11t-205.5 11q-2 -14 -5 -37q8 16 27 16zM154 654q41 0 167 -5q113 -4 164 -2l51 3q34 2 46 2l5 8q-91 3 -260.5 5.5
t-204.5 3.5q-10 0 -17.5 6.5t-9.5 15.5q-7 -59 -15 -92q30 0 66 -2q-21 6 -21 28q0 12 8.5 20.5t20.5 8.5z" />
    <glyph glyph-name="bracketleft" unicode="[" horiz-adv-x="339" 
d="M129 731q73 -16 177 -9q-87 13 -177 9zM113 528q-16 -129 -19 -234l3 42q4 51 8 96zM71 -4q-20 4 -23 24q-5 36 -8 74q0 -8 1 -51q1 -28 1 -46q14 -1 29 -1zM77 693q-6 11 -3 22q2 7 7 13l-25 -4q0 -121 -1 -188q9 69 22 157zM143 -6h9q-2 4 -2 9q8 163 10 388l-5 -59
q-16 -206 -12 -338zM85 -5v1q-2 0 -4 -1h4zM66 -62q-13 0 -24 1q-1 -34 -3 -64q57 1 183 7q-94 0 -147 -1q-12 0 -21 8t-9 20q0 23 21 29zM211 662l2 -6q3 -12 -3.5 -22t-17.5 -13l-7 -2q58 8 122 3q0 8 -0.5 23.5t-0.5 18.5q-54 -3 -95 -2zM43 759q124 20 268 -1q6 11 19 9
q7 -1 11.5 -7t3.5 -14q-3 -19 -3.5 -38.5t0.5 -50t1 -41.5q8 -6 7 -16q-1 -7 -7 -12t-13 -4q-70 8 -134 0q0 -376 -10 -573q26 2 66.5 2t68.5 -8q3 -1 6 -3q15 -4 13 -19q-4 -30 -4 -101v-2q4 -4 4 -10q0 -7 -5 -13t-12 -6q-229 -12 -302 -12q-5 0 -9 2q-12 6 -11 19
q6 54 4 182q-2 129 2 186q13 185 13 502q0 10 9 15q2 12 14 14zM231 -118l69 4q0 61 2 87q-4 1 -9 1q1 -4 1 -8q0 -12 -8.5 -20.5t-20.5 -8.5h-26q16 -8 16 -26q0 -12 -8 -21q-7 -6 -16 -8z" />
    <glyph glyph-name="backslash" unicode="\" horiz-adv-x="445" 
d="M218 78q10 -20 23.5 -52t25.5 -56.5t26 -43.5l21 10l-4 4q-46 61 -92 138zM70 521q88 -220 177 -378l-24 60zM-81 696q14 11 34.5 19.5t35.5 13t40 10.5t32 8t13.5 -1t8.5 -10q22 -33 42 -72.5t42 -89.5q21 -45 35 -74l240 -489q5 -1 9 -5q5 -5 5 -12.5t-6 -12.5
q-14 -14 -34.5 -27.5t-35.5 -21.5l-39 -22q-25 -13 -35 -19q-6 -3 -13 -2q-12 -5 -21 6q-19 22 -34 52t-30.5 66t-23.5 53q-57 111 -82 168q-13 32 -30 65l-43 81l-36 65q-70 133 -91 226q-1 7 2.5 13t10.5 8q2 3 4 4zM55 684l220 -457q13 -26 29.5 -70.5t31.5 -76.5t36 -58
q7 -10 5.5 -21.5t-10.5 -19.5q-5 -4 -11 -5q5 -6 6 -14q29 17 49 32l-241 490l-35 73l-40 84q-18 37 -38 68q-3 -1 -24 -6t-28 -7t-22 -7t-24.5 -10t-17.5 -11l-1 -1q21 -84 85 -205l25 -46q-45 107 -89 227q-4 11 1 22t16 15q12 5 23 -1q3 13 16 19q10 5 21.5 1t16.5 -15z
" />
    <glyph glyph-name="bracketright" unicode="]" horiz-adv-x="298" 
d="M33 -87h-14v-9q6 7 14 9zM142 -80q-1 1 -2 1q-31 -6 -70 -7q31 0 72 6zM254 647v23q-78 -5 -157 -12q98 0 138 -2q11 -1 19 -9zM65 601h-30q-12 0 -20 9t-8 21q0 11 9 20l-22 -3q3 -44 3 -63q8 12 23 13q22 1 45 3zM187 -72q-1 12 -1 19q-2 34 -5 57q-3 24 -17 85
q-7 28 -10 47q0 -4 9 -184q3 -3 4 -7q2 -11 -7 -18q-2 -3 -5 -4zM49 -144h-9q-11 1 -18 7q1 -29 1 -51q7 -1 14 -1q-5 7 -6 16q-1 21 18 29zM251 -155q-4 -3 -7 -4q-61 -24 -115 -33q85 1 144 13l-2 31q-8 -7 -19 -7h-1zM227 71q1 51 1 89q-1 69 -11 216t-10 220v3
q-7 1 -15 1q6 -69 6 -198q0 -145 7 -216q3 -31 15 -84zM287 -213q-54 -11 -132 -14t-136 3q-5 -11 -18 -10q-7 1 -12 6.5t-4 13.5q3 29 -3 130q-7 6 -7 15q0 7 5.5 12.5t12.5 5.5q97 0 134 6q-1 13 -4 69l-4 74q-1 19 -3 70l-3 75q-1 25 -2 69.5t-1 75.5t0.5 68.5t2.5 71.5
q-6 0 -25 -2t-28.5 -2.5t-25.5 -1t-29.5 1t-25.5 3.5q-4 1 -7 4q-14 4 -13 19q3 29 -1 100v3q-3 4 -4 9q-1 7 4 13t12 7q152 17 300 25q9 0 15 -6t6 -15q-3 -59 4 -182q7 -128 6 -185q-4 -256 8 -502q1 -11 -9 -16q-2 -11 -13 -14z" />
    <glyph glyph-name="asciicircum" unicode="^" horiz-adv-x="547" 
d="M248 585l-48 -104q-59 -131 -82 -215q-3 -11 -13.5 -17t-22 -3t-17.5 13.5t-3 22.5q22 80 86 223l41 91q-26 -44 -48.5 -94t-49.5 -119l-42 -104q-5 -11 -16.5 -15t-22.5 0.5t-15 16t0 22.5q14 31 39 93l38 94l-38 -74q-12 -25 -28.5 -67t-24.5 -77q24 -11 70 -27l64 -22
q2 5 20 38l22 41l18 37q15 28 21 42l15 37q10 24 16.5 43.5t12.5 40.5q1 7 7.5 10.5t14.5 1.5q9 -2 12 -12q1 -1 2 -1q-17 47 -28 84zM244 728q4 4 8 6h-58v-1q-27 -36 -68 -130q30 55 66 101q13 17 33 9q6 12 19 15zM546 269q-25 -8 -67 -33q-49 -28 -71 -38q-7 -2 -14 0
q-13 -2 -19 10q-81 153 -115 237q-7 -20 -17 -43l-16 -40q-8 -17 -21 -42l-19 -38l-22 -42q-16 -28 -20 -37q1 -6 -1 -11q-3 -7 -10 -9.5t-14 -0.5q-18 8 -81 29q-52 18 -83 33q-10 5 -10 17q-3 5 -2 12q8 36 24 78.5t29.5 71t37.5 75.5l35 67q9 18 25.5 57.5t32 71
t34.5 57.5v1q0 7 5.5 12.5t12.5 5.5h117q7 0 13 -5q9 -1 14 -9q25 -43 93 -187q4 -8 58.5 -109t71.5 -157q7 -3 10 -11q2 -7 -1 -14t-10 -9zM307 699q21 -58 86 -187q63 -125 86 -196q3 -12 -2.5 -22.5t-17 -14t-22 2t-14.5 16.5q-20 65 -74 171q38 -99 53 -147
q3 -12 -2.5 -22.5t-16.5 -14.5q-4 -1 -7 -1l25 -49q18 8 60 32q31 19 51 27q-16 54 -67 148q-51 92 -60 111q-67 140 -90 181h-17q11 -6 15 -18q11 -5 14 -17z" />
    <glyph glyph-name="underscore" unicode="_" horiz-adv-x="732" 
d="M-65 -170l18 120l66 -10h65l70 -5l60 -2l65 -3h60h62l75 -1h61h61l78 4h66v-122h-62l-78 -4h-65h-61l-75 1h-62h-62l-67 3l-62 2l-68 5h-71z" />
    <glyph glyph-name="grave" unicode="`" horiz-adv-x="214" 
d="M92 752q1 -1 3 -2q3 -4 24 -28l29 -33l24 -28q16 -19 27 -35l22 -31q4 -6 2.5 -13.5t-7.5 -11.5h-1q-2 -4 -6 -6q-11 -7 -23 -16q0 -14 -13 -23q-11 -8 -25 -4q-38 -27 -65 -40q-7 -3 -13 -1q-12 -4 -20 5q-9 11 -49 68q-28 39 -52 56q-7 6 -7 15q0 7 3 12q43 58 122 119
q6 5 13.5 4t11.5 -7zM65 707q4 -2 7 -5q47 -49 98 -121l12 8q-28 39 -106 127zM95 575q8 -14 0 -29q-6 -10 -17 -13t-21 2q8 -11 15 -19q21 11 51 32l-24 32q-1 -1 -2 -2.5t-2 -2.5zM3 639q0 5 1 11l-9 -10q4 0 8 -1z" />
    <glyph glyph-name="a" unicode="a" horiz-adv-x="612" 
d="M529 633q11 -2 18 -10t7 -19q0 -45 1 -118q2 79 2 142q-13 3 -28 5zM434 534q-1 50 -4 96q0 5 1 10l-17 1q-1 -8 -8 -59q-1 -8 -8 -13t-15 -4q-7 1 -12 6q-93 52 -195 12q-63 -25 -90 -46q-42 -35 -63 -90t-20 -120q0 -26 4 -52q0 30 6 72q12 86 60 140t119 73
q117 32 242 -26zM545 45q-3 -27 -7 -54l-2 -6q3 0 6 -1q4 30 6 64zM485 30q-47 -7 -98 -7q4 -5 6 -11q4 -24 4 -26q6 0 37 0.5t47 0.5q-2 7 -1 14q3 14 5 29zM364 499q-85 25 -157 5q-54 -15 -90.5 -55.5t-45.5 -109.5q-13 -89 4 -132q34 -88 190 -116q83 -15 172 -8v4
q-86 3 -150 18q-128 30 -184 115q-47 71 -22 139q21 58 88 98q42 24 94 35.5t101 6.5zM404 681q131 -6 181 -17q9 -2 13 -9t3 -15q-1 -5 -4 -8q0 -34 -8 -402q-1 -46 0 -84t-0.5 -86t-7.5 -86q-2 -9 -9 -14q-1 -8 -8 -13t-15 -4q-24 3 -49.5 4t-63.5 0t-52 -1h-3h-2
q-8 0 -14.5 5.5t-6.5 13.5q-1 20 -3 32q-87 -10 -170 14q-81 24 -129 72q-44 44 -68 109t-25 135q-2 72 23 136q24 64 74 104q32 26 102 54q109 42 209 -5q3 20 3 33q0 11 10 17q4 16 20 15zM401 378q11 -76 -10 -161q-1 -8 -8.5 -12t-15.5 -2q-6 -4 -12 -4q-111 0 -159 49
q-22 22 -26.5 51.5t6.5 53.5q10 24 31 42.5t47.5 27t59 2t62.5 -30.5q1 1 2 1q8 1 15 -4t8 -13zM359 357q-23 20 -47.5 27t-43.5 1t-33.5 -18.5t-21.5 -28.5q-14 -36 12 -62q36 -37 130 -37q13 60 8 115q-2 1 -4 3zM488 634q8 -148 7 -490h1q4 67 4 143.5t-2 171t-2 145.5
q0 12 8.5 20.5t20.5 8.5q-35 4 -37 4v-3zM414 426q-44 21 -105 15t-111 -35q-49 -28 -63 -67q-15 -40 16 -87q44 -66 150 -91q56 -13 136 -16q1 204 0 280q-12 -4 -23 1z" />
    <glyph glyph-name="b" unicode="b" horiz-adv-x="678" 
d="M265 260q2 -61 5 -83q2 0 8 -2q72 -20 105 -15q21 3 40.5 17.5t30.5 35.5q23 45 -12 76q-29 25 -85 10q-36 -9 -92 -39zM498 480q108 -40 136 -169q19 -88 -13 -150q-52 -96 -180 -145q-37 -14 -107 -34l-22 -6q121 -16 198 21q105 50 134 145q27 90 -16 203
q-11 29 -17 45q-7 15 -20.5 34.5t-29.5 29.5q-28 18 -63 26zM217 301q5 -141 12 -234q120 21 202 57q141 62 121 146q-9 36 -48 61.5t-95 32.5t-104 -7.5t-69 -44.5q-7 -9 -19 -11zM547 372q-38 56 -112 64q-66 8 -142 -23q58 16 123 9q78 -10 131 -50zM211 5q-8 -1 -15 -2
q-11 -1 -20 5v-31q0 -12 -8.5 -20.5t-20.5 -8.5t-20.5 8.5t-8.5 20.5q0 139 -14 398.5t-16 305.5q0 12 8 21t20 9q17 1 26 -14q0 18 1 35q0 3 1 7q-31 1 -62 1q4 -109 -2 -398q-5 -261 6 -400q63 0 134 -3v11q-18 2 -24 19q-4 11 0.5 21.5t14.5 14.5zM241 293q65 34 105 45
q77 20 122 -19q30 -26 34 -61.5t-13 -62.5q-14 -29 -41.5 -50t-58.5 -25q-8 -3 -25 -1.5t-25 2t-24.5 4t-23.5 5.5t-22.5 6t-20.5 6q-12 3 -14 14q-2 3 -3 7q-3 22 -7 108q-1 16 14 20q1 1 3 2zM236 -102q-91 4 -169 4q-8 0 -14 6t-6 14v3q-12 147 -7 418q6 299 1 414
q0 8 5.5 14.5t13.5 6.5h4q4 2 9 2q81 0 174 -8q8 -1 13.5 -7t4.5 -14v-3q-3 -67 -3 -246q197 63 321 -14q16 -10 29.5 -25t24.5 -37t15.5 -32.5t13.5 -34.5q47 -126 16 -228q-34 -113 -154 -170q-42 -20 -91 -26t-87.5 -3t-89.5 12v-15q0 -6 -3 -11v-1q0 -8 -6.5 -13.5
t-14.5 -5.5zM201 728q-3 -43 3 -113q7 -101 8 -118q1 -26 2 -58q13 8 28 15q-14 0 -19 13q-2 5 -1 11v4q0 198 2 252q-12 1 -24 1q1 -3 1 -7z" />
    <glyph glyph-name="c" unicode="c" horiz-adv-x="589" 
d="M588 192q-98 41 -150 45q-40 -101 -99 -105q-29 -1 -52 18q-23 20 -38 51q-32 65 -17 128q9 35 33.5 58.5t64.5 29.5q67 9 130 -39q12 12 28 24l26 20q9 7 30.5 21.5t26.5 18.5q-6 8 -12.5 15.5t-16.5 17.5l-14 14l-20 17q-14 12 -16 14q-55 48 -114 60t-109 -6.5
t-94 -61.5q-66 -65 -96 -160.5t-8 -183.5q27 -103 108.5 -158t194.5 -55h8q64 0 89 12q44 21 73.5 78t40.5 121q1 3 3 6zM482 99q-40 -46 -108 -46q-33 0 -70 13q32 -12 62 -15q54 -5 87 17q18 11 29 31zM431 278q62 -3 179 -52q7 -3 10.5 -10.5t-0.5 -15.5q0 -2 -1 -3
q8 -8 6 -19q-6 -30 -16 -61.5t-26 -64.5t-40.5 -60t-53.5 -41q-7 -3 -15 -5l-14 -5q-6 -2 -16 -3l-14 -2q-5 0 -15.5 -0.5t-14.5 -0.5h-14h-12q-125 0 -218 63q-92 62 -123 180q-26 100 7 205q34 106 107 177q51 49 109.5 71t128.5 8.5t133 -69.5q4 -3 15 -12.5t16 -14.5
t15 -14t16 -15.5t13.5 -15.5t13.5 -17q8 -2 13 -8q12 -16 -4 -28t-46 -32.5t-51.5 -37t-38.5 -34.5q-8 -8 -19 -6q-9 -1 -17 5q-54 44 -108 37q-53 -7 -65 -58q-12 -49 14 -101q11 -23 25 -35t26 -11q15 1 32.5 20.5t34.5 66.5q3 8 11 11q7 8 17 8zM459 472q-61 62 -128 50
q-36 -7 -70 -34q64 31 137 18q12 -3 19 -12.5t4.5 -21.5t-12 -19t-21.5 -5q-32 6 -56 2.5t-53 -18.5q-110 -57 -112 -135q-1 -67 68 -127q32 -27 69.5 -43t70.5 -16q67 0 83 68q3 11 13 17.5t22 3.5q10 -2 16 -10t6 -18q6 1 12 1q12 -1 19.5 -10.5t6.5 -21.5
q-9 -83 -68 -122q-50 -33 -125 -26q-65 7 -128 42t-96 84q-35 53 -39 120.5t17 128.5q20 61 59 112q64 83 148 99q97 17 180 -65q8 -9 8 -21t-8.5 -20.5t-20.5 -8.5t-21 8z" />
    <glyph glyph-name="d" unicode="d" horiz-adv-x="607" 
d="M135 374q47 49 113 83.5t124 43.5q-73 6 -135 -29t-102 -98zM604 53q-2 -54 -8 -94l-2 -6q7 0 14 1q0 23 -3 86q-1 7 -1 13zM616 638q0 -202 -4 -334q11 214 4 334zM542 435q5 -229 6 -272q10 189 10 562q0 7 3 13q-18 1 -32 2q9 -9 9 -21q0 -99 3 -239q15 -12 10 -31
q-3 -8 -9 -14zM490 115q-1 83 -4 245q-75 11 -113 3q-69 -15 -131 -63q-67 -52 -55 -102q16 -63 117 -82q79 -15 180 -1h6zM491 30q-72 -20 -160 -19q-69 1 -121.5 21.5t-96.5 69.5q-8 9 -15 19l4 -10q44 -95 171 -120q101 -19 162 5q10 4 19 -3q11 -3 14 -15q5 -24 6 -31
q24 2 65 3l2 1q-4 8 -3 16l4 25q-9 -10 -22 -10q-12 0 -20.5 8.5t-8.5 20.5v19zM483 497q-3 128 -3 222q0 13 9 21q-9 0 -18 -1q0 -164 -6 -230q-1 -5 -3 -9q10 -1 21 -3zM134 173q-2 5 -3 11q-21 87 75 162q71 56 155 73q48 10 123 -1v19q-56 13 -104 6q-51 -7 -110 -39
t-99 -76q-43 -46 -49 -92q-4 -33 12 -63zM646 744q10 -71 12 -157.5t0 -145t-7.5 -162.5t-7.5 -147q-1 -27 2 -90q3 -67 3 -92q0 -10 -8 -16q0 -7 -5.5 -12.5t-12.5 -6.5q-19 -2 -82 -4q-51 -2 -79 -6q-8 -1 -14.5 4t-7.5 14v1v1q-6 22 -7 27q-67 -20 -167 -1
q-147 28 -199 143q-46 101 -4 223q19 54 53.5 99.5t82 78.5t105.5 43t124 -7q4 52 4 225q0 9 7 15q5 6 13 7q20 2 45 2t40.5 -0.5t47.5 -2.5t40 -2t13.5 -6.5t5.5 -14.5v-2q2 -4 3 -8zM453 308q2 -16 3 -35t1 -32.5t-0.5 -34.5t-0.5 -31q0 -8 -6 -14t-14 -6q-3 0 -6 1
q-59 -37 -127 -17q-54 15 -63 66q-8 44 19 87q27 45 73 57q53 14 104 -24q15 -2 17 -17zM413 292q-36 28 -70 18q-31 -8 -50 -39q-19 -30 -14 -58q5 -27 34 -36q32 -8 54 -4t49 22q1 71 -1 96q-1 0 -2 1z" />
    <glyph glyph-name="e" unicode="e" horiz-adv-x="576" 
d="M250 227q2 -56 20 -79q14 -18 42 -13q59 10 144 91q2 2 4 3q-6 0 -30 -1t-36 -1q-87 -3 -144 0zM280 413q37 0 77 4q-20 13 -42 10q-16 -2 -35 -14zM542 368q4 -4 7 -9q1 60 -13 100q-2 7 -6 13.5t-11 13.5l-11 12q-4 4 -15 13.5t-14 12.5q-46 42 -114 54
q70 -21 118.5 -78.5t58.5 -131.5zM479 312q33 2 58 3q5 0 9 -1q1 9 2 17q-8 -12 -22 -14zM135 461q7 29 16 49q-3 -4 -6 -9q-43 -62 -59 -182v-5h4q9 85 45 147zM475 28q1 -1 2 -3l4 4q19 18 77 84l-85 75q-88 -81 -154 -93q-51 -8 -80 28t-29 116q0 6 3 11q-13 0 -36 2
q3 -41 9 -74q10 -54 27 -75q21 -27 75 -39.5t81 4.5q8 5 42 42q8 8 20 8.5t21 -7.5q4 -4 7 -9l21 30q7 9 19 11.5t21.5 -4.5t12 -19t-4.5 -22q-27 -38 -53 -70zM362 -37q-38 -1 -80 5q-63 10 -108 56t-65 105.5t-21 126.5q-4 0 -7 1q-3 -78 13 -127q29 -88 104.5 -136
t164.5 -33q-1 1 -1 2zM497 220l99 -88q10 -9 6 -21q0 -8 -5 -14l-25 -29l-33 -38l-30 -30q-61 -59 -116 -73q-109 -29 -205.5 27t-131.5 164q-26 80 -9 207q17 128 64 198q42 61 116 85.5t150 8.5t128 -63q2 -2 13 -11.5t16.5 -15t14.5 -15.5t15 -19.5t10 -19.5
q25 -73 6 -217q-1 -9 -9 -14q-5 -11 -18 -11q-31 0 -74 -1q3 -2 5 -4l1 -1q7 0 12 -5zM228 416q43 41 82 47q48 7 90 -35q6 -6 5 -15q3 -4 4 -9q1 -7 -3.5 -13t-12.5 -7q-85 -10 -157 -6q-7 0 -12 6t-5 13q0 5 3 9q1 6 6 10zM463 381q-8 12 -22 35.5t-24.5 37.5t-22.5 23
q-41 32 -102 29q-63 -3 -103 -67q-8 -36 -11 -83q112 -3 297 14q-7 4 -12 11z" />
    <glyph glyph-name="f" unicode="f" horiz-adv-x="573" 
d="M341 537q-5 -4 -13 -15q-26 -35 -40 -112q7 -1 22.5 -2t24.5 -2q7 -1 12 -6.5t4 -13.5q0 -2 -1 -3q1 -2 1 -4q7 -71 7 -161q0 -7 -5.5 -12.5t-12.5 -5.5h-2q-4 -2 -9 -2t-57 -1q1 -20 10 -110q7 -81 1 -129q-1 -7 -6 -11q-3 -12 -15 -13q-19 -2 -88 -3q-52 0 -82 -7
q-7 -2 -13.5 1.5t-7.5 11.5q-1 3 -1 7q-2 3 -3 8q-5 47 -3 127q1 77 1 101q-4 -1 -4.5 -1t-1.5 -1l-14 -8q-7 -3 -14 -1t-11 8q-3 6 -2 13q-5 30 -8 89q-2 55 -6 81q-6 4 -7 11q-1 8 3.5 14t11.5 7l25 2l21 3q1 10 6 22q8 22 9 26q2 7 9.5 35.5t10.5 38.5l11 36q8 26 13 37
l14 36q10 23 18 36l22 30q13 19 26 31.5t30 26t36 24.5q39 21 86.5 26t89.5 -10q118 -43 141 -174q16 -95 -19 -227q-2 -10 -12 -12q-6 -5 -14 -4q-22 4 -45.5 4.5t-58 -0.5t-48.5 -1q-8 0 -13 6q-4 3 -5 8q-2 8 -6 50q-3 42 -8 64q-3 16 -6 25q-2 4 -4 6zM115 292v1
q-28 -1 -60 -1q-5 0 -9 2v-13q5 2 10 3zM107 232q-21 -2 -43 -6q-7 -1 -14 2q0 -7 1 -14q1 0 19 3q5 5 11 5q7 0 13 -5t6 -12q1 -18 1 -39q2 33 6 66zM303 637q52 27 95 -2q34 -23 61 -93q-3 24 -6 38q-7 42 -23 61q-35 42 -88 20q-20 -9 -39 -24zM251 407q16 93 47 137
q15 19 28 26q19 10 35 -1q10 -8 17 -25q5 -12 9 -31q4 -24 8 -68q2 -26 3 -31q103 2 132 -2q28 117 14 199q-19 111 -117 147q-34 12 -74 8t-72 -22q-26 -14 -47 -32t-37 -42.5t-27 -44.5t-22 -53t-17 -52.5t-16 -57.5q-5 -18 -8 -27q-1 -4 -9 -28q-5 -13 -6 -24
q1 -15 -13 -18q-14 -4 -39 -6l2 -12q6 3 13 3q38 0 70 2q29 144 84 258q16 33 45.5 61.5t65.5 42.5q26 11 52 12.5t53.5 -10.5t48.5 -37q26 -31 36 -89q3 -15 7 -43q3 -27 5 -38q2 -12 -5 -22t-19 -12t-22 5t-12 19q0 5 -1 10q-5 -11 -16 -16q-11 -4 -22 0.5t-16 15.5l-6 15
q-4 10 -5.5 14.5t-5 12t-5.5 11.5l-6 10q-4 5 -7.5 8.5t-7.5 6.5q-22 15 -57 -17q-36 -32 -52 -71q-28 -69 -39 -138q23 3 45 7q12 3 22 -4t12.5 -18.5t-4.5 -21.5t-18 -12q-32 -7 -63 -11q30 2 58 3q12 0 21 -8t9 -20t-8 -21t-20 -9q-30 -1 -61 -3q2 -61 18 -187
q1 -12 -6 -21.5t-19 -11t-21.5 5.5t-11.5 19q-9 73 -12 110q-5 -76 -3 -153q0 -12 -8 -21t-20 -9q-21 -1 -28 18l2 -31q28 5 71 5q63 1 75 2q5 41 -2 114q-9 95 -10 119q-5 6 -5 13t5.5 12.5t12.5 5.5q13 0 37.5 0.5t35.5 0.5q-1 75 -7 137q-36 3 -45 4q-7 1 -11.5 6.5
t-4.5 12.5q-4 6 -3 13z" />
    <glyph glyph-name="g" unicode="g" horiz-adv-x="593" 
d="M171 261q-19 17 -44 52q-18 24 -28 53q9 -56 45 -87q10 -9 27 -18zM378 475q-32 2 -47 -2q-9 -3 -27 -15t-29 -26q-11 -12 -11 -19q1 -4 14 -8q18 -6 51 -3q2 0 30 2q12 1 21 2q1 48 -2 69zM405 -48q-28 -18 -69 -21q45 -4 69 21zM342 576q-65 16 -103 1q-44 -17 -69 -59
t-24 -90q9 22 24 43q25 33 60.5 59.5t68.5 36.5q21 8 43 9zM42 206q25 0 76 5q43 5 65 6q-42 16 -63 34q-60 53 -60 161q0 124 85.5 201t209.5 74q27 -1 40 -2t34.5 -8t37.5 -22h2q58 0 97 -7q8 -2 12 -8q2 -3 3 -7q5 -1 9 -5t5 -9q4 -4 5 -9q17 -111 10 -295.5t-35 -292.5
q-8 -34 -33.5 -74.5t-53.5 -62.5q-80 -60 -187.5 -52t-183.5 71q-50 43 -80.5 122.5t-22.5 144.5q1 10 10 14v3q0 7 5.5 12.5t12.5 5.5zM229 195q1 -9 5 -29l5 -31q6 -35 16 -50q9 -15 39 -21q23 -5 39 5q14 10 24 33q13 32 17 87q-82 -9 -149 13q3 -3 4 -7zM413 489
q3 -23 3 -101q0 -7 -5.5 -12.5t-12.5 -5.5q-2 0 -4 1q-3 -1 -5 -1q-10 0 -27 -2q-28 -2 -31 -2q-40 -3 -65 5q-36 12 -38 40q-1 21 19 45q15 17 37 32t37 19q20 6 67 4q9 0 14 -9q9 -4 11 -13zM555 574q0 -170 -15 -325q-24 -231 -75 -315q-19 -31 -49.5 -46.5t-61.5 -15
t-63 7.5q-45 12 -87 38t-65 57q-30 40 -44 112q-3 12 4 22t18.5 12.5t21.5 -4.5t12 -18q12 -60 34 -88q6 -8 15 -17q10 8 22 6q67 -11 89 -12q48 -1 71 18q21 16 35 85q10 54 16 143q-20 -4 -42 -7q6 -2 11 -6q10 -6 9 -17q-4 -74 -21 -116q-14 -33 -37 -49q-28 -19 -67 -11
q-44 10 -61 37q-14 22 -22 63q-2 10 -5 28q-2 19 -3 25q-25 0 -74 -5q-50 -5 -71 -6v-3q-7 -56 20 -127.5t71 -107.5q66 -56 161.5 -63t163.5 44q22 18 44.5 53.5t30.5 63.5q26 106 33 286.5t-10 287.5q-3 4 -4 8q-36 7 -91 7q-4 0 -7 1q-9 -1 -16 5q-16 17 -35 21t-56 5
q-44 1 -83 -10q53 3 105 -14q30 -10 80 -44q4 9 13 14t19 2q8 -2 14 -7q9 11 23 11q12 0 20.5 -8.5t8.5 -20.5zM441 495q-74 34 -124 18q-23 -8 -52 -29.5t-48 -47.5q-41 -56 -8 -93q31 -35 106 -30q45 3 123 24q4 121 6 156q-2 1 -3 2z" />
    <glyph glyph-name="h" unicode="h" horiz-adv-x="622" 
d="M256 732q4 -6 4 -12q5 -93 4 -151q96 48 197 19q122 -35 155 -188q6 -29 9 -65.5t3.5 -61.5t1 -65t0.5 -54q3 -135 3 -202q0 -7 -4 -12q-4 -13 -17 -14q-38 -3 -103 -4q-68 -1 -99 -4q-9 -1 -15 4.5t-7 13.5q-1 15 12 20q0 23 2.5 81t2.5 89q2 118 -10 164q-13 47 -44 50
q-30 3 -56 -40q-28 -47 -22 -159l3 -45q2 -31 3 -50t1 -43.5t-2 -43.5q-1 -5 -5 -10q2 -4 2 -8q0 -8 -6 -14t-14 -6q-135 0 -195 -8q-9 -1 -15.5 4t-7.5 13q0 5 1 9q-1 1 -1 3q-5 63 -6.5 138.5t0.5 129.5l4 142q2 85 3 130q1 42 -1 118q-2 77 -2 107q0 8 5 13v1q0 8 6 14
t14 6t88 3q55 1 92 -2q10 -1 16 -10zM144 392l-2 4v-42q1 25 2 38zM146 425q1 16 1 30q1 28 -1 64q-2 -52 -3 -100q1 3 3 6zM539 303q-8 27 -19 50q-29 59 -68.5 90t-83.5 36q-87 9 -165 -77q-1 -19 -3 -49q47 57 105.5 83t110.5 11q59 -17 95 -83q17 -30 28 -61zM568 56
q-1 -53 -1 -68q0 -17 -15 -25q23 0 41 2q0 39 -1 86q-4 -1 -8 -1q-9 0 -16 6zM238 -35l3 52q0 10 -3.5 58.5t-4.5 63.5q-6 123 28 181q18 30 42.5 46t51.5 14q28 -3 48.5 -24t29.5 -56q15 -51 12 -175q0 -31 -2.5 -87t-2.5 -78q22 1 69 2h16q-16 8 -16 26t0.5 63t0.5 63.5
t-2.5 54.5t-7.5 58.5t-15 52t-24 56.5q-25 45 -61 56q-32 9 -71 -8.5t-73.5 -55t-49.5 -78.5q-3 -10 -12 -15q-3 -113 14 -193q3 -11 -3.5 -21.5t-18 -13t-22 4t-12.5 18.5l-6 28q1 -31 5 -57q1 -12 -6 -21.5t-19 -11t-21.5 5.5t-11.5 19q-5 42 -6 121q-1 104 -1 117
q-7 193 12 462q0 5 2 9q-14 -1 -25 -1q0 -27 2 -103q2 -74 1 -116q-1 -53 -3 -130l-4 -138q-2 -52 -1 -125t6 -134q56 6 162 6v4zM194 670q1 -25 7 -106q4 -54 4 -81q81 63 169 53q61 -6 112.5 -46.5t85.5 -110.5q6 -12 11 -24q-3 19 -7 36q-27 130 -127 159
q-95 27 -189 -29q-4 -2 -8 -3q-5 -2 -10 -2q-8 0 -13.5 6.5t-5.5 14.5q3 65 -2 166q-28 2 -68 1q2 -4 2 -8q5 2 9 2q12 0 21 -8t9 -20z" />
    <glyph glyph-name="i" unicode="i" horiz-adv-x="259" 
d="M117 -21q-10 8 -11 20q-12 139 -28 388v-408h39zM165 731q-51 -1 -82 6q0 -14 1 -35q5 19 25 21q44 5 56 8zM220 716v16h-13q9 -6 13 -16zM219 696q-6 -14 -21 -17l-20 -5q-11 -2 -12 -2.5t-7.5 -1.5t-8 -1t-12.5 -1q-10 -2 -23 -3q-22 -2 -30 19q1 -19 1 -31q98 0 132 3
q0 19 1 40zM262 540q5 -27 5.5 -59.5t0 -70.5t-0.5 -57q6 -254 -8 -399q-1 -8 -7.5 -13.5t-14.5 -4.5q-5 1 -9 3h-164q-3 -1 -6 -1t-6 1h-10q-8 0 -14 6t-6 14q0 16 16 20v565q0 15 14 19q6 9 16 9q67 3 172 3q8 0 14 -6t6 -14q0 -4 -1 -7q2 -3 3 -8zM82 778q14 -4 32.5 -6
t32.5 -1.5t37.5 1t36.5 0.5q8 0 13 -5q4 1 8 1q8 0 13.5 -6.5t5.5 -14.5q-3 -53 -3 -94q5 -4 6 -11q1 -8 -4 -15t-13 -8h-4q-2 -1 -5 -1q-38 -5 -164 -5q-12 0 -18 10q-10 6 -10 18q0 17 -1.5 52t-1.5 52q0 14 14 19v1q2 8 9.5 12t15.5 1zM197 499q-24 -248 10 -473
q1 -12 -6 -21.5t-19 -11.5q-10 -1 -18 4q-2 -11 -11 -18h68q12 136 6 374q-1 22 0 59t0.5 66t-5.5 56v1q-85 0 -144 -3v-34q8 10 21 11q12 1 21 -7t10 -20l3 -51l6 74q1 12 10.5 19.5t21.5 6.5t19.5 -10.5t6.5 -21.5z" />
    <glyph glyph-name="j" unicode="j" horiz-adv-x="449" 
d="M411 717q-8 -16 -26 -16q-1 0 -46.5 1t-46.5 -1q-8 0 -14 3v-17q85 0 131 6q0 9 2 24zM238 604q-2 3 -3 7q-2 8 2 15t12 9q75 19 185 -3q7 -2 12 -8t4 -14q5 -5 5 -13q0 -19 2.5 -145.5t2.5 -208.5q0 -120 -6 -201q-7 -100 -24 -132q-24 -47 -70 -74t-101 -33
q-55 -5 -106.5 11.5t-87.5 53.5q-36 39 -62 141q-22 88 -22 151q0 17 16 20q5 4 11 5q10 1 36 5.5t39.5 6.5t41 4t40.5 -1q10 -2 15 -10q9 -5 10 -16q1 -5 1.5 -10t0.5 -8v-3q5 -5 6 -11q0 -3 2 -20.5t5 -33.5t7 -30q6 -23 14 -31q2 -2 3 -2q0 3 1 7q3 14 5 38q5 46 5 66
v415q0 33 -2 53zM353 570q7 6 16 8q12 1 21.5 -6t11.5 -19l16 -107q-3 131 -3 149q-35 6 -66 8q6 -9 5 -19q-1 -7 -1 -14zM362 133q10 50 12 104q2 44 -2 91q-4 50 -8 80l-13 91q0 -49 3 -121q7 -168 7 -210q0 -9 1 -35zM107 -30q-10 17 -20 41l-4 11l-5 12q-2 7 -3 11
q-7 18 -12 28.5t-1 22t14.5 16.5t22 1t16.5 -14l14 -34q2 -4 4 -10.5t4 -12t4 -9.5q13 -34 28 -50q44 -47 78 -29q38 20 53 87q3 17 4 36t0 49t-1 42q0 41 -7 208q-6 135 0 212q1 8 5 15q-12 -1 -22 -3q1 -18 1 -47v-2v-415q0 -22 -5 -70l-5 -42q-2 -10 -4 -16l-4 -8
q-4 -7 -10 -10q-32 -16 -55 10q-15 15 -24 47q-7 26 -12 69q-1 1 -1 3q-7 25 -9 42q-8 2 -30.5 0t-32.5 -3l-33 -6q-24 -4 -34 -6q3 -56 21 -127q23 -92 53 -123q28 -30 71 -43.5t89 -9.5q46 5 83.5 27t55.5 58q13 26 20 116q2 33 4 73q-20 -97 -59 -159q-44 -69 -108 -83
q-72 -16 -157 42q-10 7 -12.5 18.5t4.5 21.5q8 11 21 13zM447 763q0 -15 -3 -44q-2 -19 -3 -27q5 -4 6 -11q1 -6 -3 -11.5t-11 -6.5l-7 -1q-52 -7 -156 -7q-4 -2 -8 -2q-7 0 -11.5 4.5t-4.5 11.5q0 56 -5 92q-4 4 -5 10q-1 7 3 12t11 6q28 4 56 5q30 0 71.5 -1t54.5 -1
q7 0 11.5 -4.5t4.5 -11.5q0 -4 -1 -7v-6zM288 759h97q22 0 28 -21q1 12 1 22q-114 1 -140 -1l1 -4q6 4 13 4z" />
    <glyph glyph-name="k" unicode="k" horiz-adv-x="616" 
d="M185 165q1 -70 5 -128q1 -11 -6.5 -20t-18.5 -11l2 -24q1 -12 -7 -21t-20 -10t-21 7t-10 20q-27 379 -27 719q0 10 6 18q-7 1 -13 2q5 -52 4 -130q-2 -118 -2 -138q8 -357 0 -523q16 -3 36 -3.5t32.5 -0.5t39 1t35.5 2q0 23 -2.5 72.5t-2.5 74.5q0 10 7 16q1 0 1 1
q6 6 14.5 6t14.5 -5q88 -84 248 -187q11 12 22 28q-15 -6 -27 4q-139 112 -310 230zM68 758q31 -5 84 -7q65 -4 88 -6q8 -1 13 -7t5 -14q5 -5 5 -13q0 -35 -2.5 -131.5t-0.5 -149.5q58 48 141 94q13 7 23 -2q8 0 13 -5q54 -47 113 -138q4 -7 2.5 -15t-8.5 -13q-6 -4 -14 -3
q-114 -73 -160 -115q42 -32 121.5 -97.5t119.5 -95.5q3 -1 5 -2q4 -3 7 -7q9 -13 0 -25q-3 -4 -8 -6q-2 -4 -17 -28l-21 -32l-18 -26q-12 -18 -23 -31t-23 -25q-6 -6 -14 -6t-14 6q-5 4 -6 11q-141 91 -223 163q4 -107 4 -111v-1q7 -6 7 -15q0 -8 -6 -14t-14 -6
q-13 0 -58.5 -2t-79 -0.5t-61.5 7.5q-9 2 -13 9t-3 15q2 5 5 9v2q8 166 0 524q0 20 2 139q1 82 -5 135q-2 14 12 20q2 7 8 11.5t14 3.5zM173 676q-1 -31 7 -89q10 -73 10 -99q1 -49 -3 -211l16 15q47 44 65 58l57 40q39 28 59 44q10 7 21.5 5.5t19 -11t6 -21t-10.5 -19.5
l-23 -17q14 -3 20 -16q4 -11 0 -22.5t-15 -16.5q-42 -18 -106 -69l-17 -13q41 -29 109 -84q91 -74 126 -97q9 -7 11.5 -19t-4.5 -22q-6 -8 -16 -11l26 -20q11 -9 11 -22l36 56l-116 93q-81 67 -127 101q-7 6 -8 15q-11 14 2 27q53 49 173 127q-47 69 -89 107
q-93 -52 -153 -109q-11 -10 -24 -2q-14 3 -15 18q-4 17 -1 157t3 157q-17 2 -73 5h-14q2 -2 3 -5h6q12 0 20 -9t8 -21z" />
    <glyph glyph-name="l" unicode="l" horiz-adv-x="235" 
d="M102 74q-10 3 -16 11.5t-5 19.5q11 102 6 299q-5 218 0 306q0 5 2 9q-13 -1 -22 -3q0 -119 -4.5 -356.5t-4.5 -356.5q23 -1 53 0q-10 9 -10 22q0 24 1 49zM144 717q4 2 9 3h-11q1 -2 2 -3zM48 752q26 10 91 8q45 -1 90 -7q8 -1 13 -7.5t4 -15.5t-9 -14q0 -25 3 -88
q3 -60 2 -98q-1 -44 -3.5 -133t-3.5 -142t-1 -128.5t3 -139.5q0 -8 -5.5 -14.5t-13.5 -6.5h-2q-3 -1 -6 -1q-13 0 -27.5 -0.5t-32 -1t-27.5 -0.5q-53 -1 -89 2q-8 1 -13.5 7.5t-4.5 14.5q0 3 2 7q0 122 4.5 367.5t4.5 368.5q0 8 5 13.5t12 6.5zM186 692q1 -26 3.5 -74.5
t2.5 -58.5q4 -80 0 -136q-3 -36 -20 -201q-13 -126 -13 -197q0 -13 -9 -21q31 1 46 1q-2 61 -2 134t1 125.5t3.5 137.5t3.5 128q1 36 -2 96q-3 64 -3 90q-16 2 -32 3q20 -6 21 -27z" />
    <glyph glyph-name="m" unicode="m" horiz-adv-x="809" 
d="M371 429q-10 19 -22 31q-28 28 -77 19q-39 -6 -62 -18t-41 -38v-4q48 36 103 40q58 4 99 -30zM417 466q59 46 142 68q79 21 133 -13q47 -29 68 -95q16 -47 18 -110q1 13 1 20q2 48 0 77q-7 83 -55 127q-50 45 -106 45q-50 0 -87.5 -15t-74.5 -50q-12 -10 -25 -2
q-10 0 -16 8q-45 59 -93 61q-45 2 -107 -46q-6 -5 -14.5 -4t-13.5 8q-10 6 -11 17v6h-70q6 -7 7 -16l4 -53q2 19 4 36q2 12 11.5 19.5t21 6t19 -11t6.5 -20.5l-2 -21q32 20 85 29q79 13 128 -36q15 -15 27 -35zM455 325q3 -30 3.5 -60.5t0 -71.5t-0.5 -43q0 -12 -8.5 -20.5
t-20.5 -8.5t-20.5 8.5t-8.5 20.5v19q-20 4 -23 24q-1 12 -5 80q-2 44 -10 68q-23 65 -86 60q-29 -2 -58.5 -19t-47.5 -44l-5 -5l-1 -18l-9 -217q-1 -12 -10 -20t-21 -7q-10 1 -17 7q-8 -5 -17 -5q-12 0 -20.5 8.5t-8.5 20.5q0 40 1 115t2 109q0 121 -9 220q-1 11 5 20
q-3 -1 -6 -1q-2 -18 -1 -51q2 -42 1 -60q-1 -37 -5.5 -125.5t-6.5 -153.5t-2 -126q94 -5 150 -5q4 31 -5 107q-10 83 2 129q4 18 20.5 44.5t35.5 43.5q27 25 51 23q32 -4 42 -48q9 -35 9.5 -74.5t-3 -93t-4.5 -70.5q89 0 137 -4q1 20 0 58q-1 63 -1 84q5 109 64 155l6 4
q-27 -9 -50.5 -28.5t-35.5 -43.5q-1 -3 -3 -5zM712 384q-3 11 -7 24q-15 46 -44 64q-33 21 -88 6q-79 -21 -133 -68l1 -6q44 44 102 58q47 12 90.5 -3.5t70.5 -60.5zM750 167q0 -11 -1.5 -41t-2.5 -47q0 -12 -9 -20t-21 -8t-20 9t-8 21l4 64q2 45 1.5 63t-3 50.5t-11.5 58
t-25 51.5q-18 31 -49 39q9 -9 15 -28q4 -16 7 -42q5 -44 6 -116q1 -84 -4 -188q24 -1 70 -6q43 -4 64 -5q4 17 7 36.5t4 33.5t2 39t1 35t-0.5 40t-0.5 36q-2 -27 -6 -53q-3 -17 -20 -22zM34 603q18 2 41 3.5t37 1.5h42h36q7 0 13 -5q9 -3 11 -13q59 39 110 37q62 -3 115 -67
q40 34 82.5 49.5t96.5 15.5q72 0 132 -55q61 -55 68 -154q3 -31 1 -82q-3 -77 -3 -79q0 -11 0.5 -45t0 -52.5t-1.5 -47t-4.5 -52.5t-9.5 -47v-2q1 -3 1 -7q0 -8 -6 -14t-14 -6q-30 0 -87 6q-56 5 -83 5q-8 0 -14 6t-6 14q-3 6 -3 12q5 108 4 195q-1 71 -5 112q-3 23 -7 36
q-1 4 -2 7q-1 -1 -3 -1q-7 -3 -14 -8q-44 -34 -48 -125q0 -20 1 -81q1 -52 -2 -78q-2 -13 -15 -16q-7 -7 -16 -6q-49 5 -165 5q-8 0 -14 6t-6 14q0 3 1 7v2q0 29 4 79t4 88.5t-8 71.5q-4 15 -9 18q-6 0 -19 -12q-15 -14 -28.5 -35.5t-16.5 -33.5q-9 -39 -1 -114
q11 -88 5 -127q-1 -4 -3 -8q-1 -7 -6.5 -12t-13.5 -5q-64 0 -197 6q-8 0 -13.5 6.5t-5.5 14.5q1 11 10 16q0 62 2 127t6.5 155t5.5 127q1 16 -1 57q-1 38 1 61q0 4 3 9q0 7 5 13t12 7z" />
    <glyph glyph-name="n" unicode="n" horiz-adv-x="590" 
d="M277 550q74 18 148 -21t108 -113q20 -42 28 -90q1 55 -7 97q-14 69 -54 105q-47 41 -131 39q-58 -1 -92 -17zM205 513q12 10 25 18q-12 3 -14 14l-2 6h-33q-17 0 -32.5 -1t-31 -3.5t-28.5 -7.5l-1 -19q8 10 21 11q12 1 21 -7t10 -20q2 -26 3 -54l4 71q1 12 10 20t21 7
t20 -10t7 -21v-4zM432 457q-47 39 -104.5 39.5t-101.5 -42.5q39 22 85 27q69 8 121 -24zM483 85q-12 -13 -28 -9q-12 2 -18.5 12t-3.5 22q20 91 22 144q4 84 -25 126q-17 25 -47 36t-66 7q-35 -4 -64.5 -21t-44.5 -42q-4 -7 -11 -11q-3 -130 1 -271q0 -12 -8 -21t-20 -9
q-10 0 -18 6q-7 -19 -26 -20q-12 -1 -21 7t-10 20q-5 74 -7 221q-2 140 -3 170q-1 -10 -3 -52.5t-3 -56.5t-2.5 -52t-2 -56.5t-1.5 -52t-1 -56.5t0.5 -51.5t1.5 -53.5q20 1 74 2q49 0 78 4q-1 10 -2.5 37.5t-2.5 42.5q-4 78 -1 131q6 77 30 118q33 57 97 48q23 -4 36 -28
q9 -17 14 -46q7 -45 2 -123q-5 -77 -23 -190q68 2 128 -3q0 10 2 22q-4 0 -7 1q-12 4 -17.5 14.5t-2.5 21.5zM66 573q10 5 21 8t23.5 5t21 3t23.5 1.5t21 0.5h23h19q3 0 6 -1h1q16 4 23 -10q45 25 121 27q99 2 157 -49q51 -45 67 -127q23 -114 -19 -307q-4 -15 -10 -34
q-1 -4 -5 -15t-6 -17q-11 -34 -9 -56v-2q3 -6 2 -11q-1 -9 -7.5 -14t-14.5 -4q-75 9 -163 5q-14 -1 -19 12q-9 8 -8 19q20 133 25 203q5 74 -2 114q-3 22 -9 33q-4 7 -7 7q-37 6 -56 -28q-20 -33 -25 -101q-3 -50 1 -126l5 -95q0 -16 -15 -19q-5 -6 -12 -7q-34 -5 -91 -5
q-63 -1 -86 -3q-15 -1 -20 12q-7 6 -7 14q-4 43 -2.5 133t3.5 137t7 138l6 133q0 7 6 13q2 10 11 13z" />
    <glyph glyph-name="o" unicode="o" horiz-adv-x="663" 
d="M357 464q-35 -9 -58 -36t-31 -63q-9 -43 4.5 -75.5t44.5 -40.5q52 -11 85 17q32 26 38 74q6 45 -16 81t-67 43zM407 490q42 -21 60.5 -65t12.5 -91q-9 -62 -52 -98q-49 -42 -119 -25q-52 12 -72 60t-8 102q10 44 38.5 79t71.5 49q6 5 14 4h1q16 3 33 3q8 0 13.5 -5
t6.5 -13zM248 680q4 5 10 8q154 62 277 -22q53 -36 90 -94q38 -58 56 -127q14 -54 16 -110t-11.5 -110t-40 -99.5t-72.5 -80t-106 -48.5q-68 -17 -168 -4q-109 15 -160 52q-75 55 -99.5 154.5t-1.5 206.5q21 96 76 171.5t134 102.5zM384 531q-43 1 -69 -2t-50 -16
q-45 -25 -70.5 -77t-23.5 -112q1 -59 30 -102.5t81 -55.5q44 -10 89 7.5t79 55t45.5 82.5t-3.5 90q-7 17 -16.5 31.5t-14.5 20.5t-25 25.5t-27 25.5q-6 7 -14 16zM374 113q71 -3 109 22q34 23 56 68q23 44 30 103q7 56 -2 108q-8 54 -29 89q-23 38 -61.5 62t-84.5 31
q10 -5 19 -12q5 -4 40 -38q6 -7 20 -21l22 -21q8 -8 19 -21.5t19 -28.5t15 -33q21 -65 6 -124t-59 -107q-51 -57 -119 -77zM340 624q-95 -18 -156 -91t-69 -164q8 62 39.5 114.5t82.5 79.5q36 20 81 25q3 9 10.5 15t17.5 6q-5 7 -6 15zM489 625q64 -33 99 -92
q27 -45 37 -108q9 -62 1 -127q-8 -68 -36 -124t-75 -87q-58 -38 -162 -31q-113 8 -184.5 61t-98.5 134q16 -118 93 -174q42 -31 142 -44q91 -12 152 2q51 13 90.5 42.5t63.5 69t36 87.5t10.5 99t-15.5 101q-16 64 -49.5 116t-80.5 83q-5 4 -11 7q-3 -10 -12 -15z" />
    <glyph glyph-name="p" unicode="p" horiz-adv-x="602" 
d="M269 283q49 0 75 11q17 7 23 17q8 12 4 31q-1 10 -10 21.5t-18 15.5q-14 7 -41 3l-27 -6l-11 -2q0 -3 2 -50q1 -26 3 -41zM399 561l1 -1q36 -13 68.5 -48.5t49.5 -72.5q27 -57 27.5 -108.5t-20.5 -90.5q-20 -38 -59 -68q-73 -56 -195 -80q66 -7 128 13t105 60.5t62 98.5
t0 127q-27 95 -93 138q-33 22 -74 32zM157 591q2 0 31.5 4.5t34.5 5t32.5 4t36 3t33.5 0.5t36.5 -1t33 -5t36 -8.5t32.5 -13.5q17 -7 32 -17q79 -52 109 -162q23 -81 1.5 -147.5t-70.5 -113t-117 -70.5t-140 -19q2 -10 6.5 -35t6.5 -38t5 -39t0 -39q-1 -13 -14 -17
q-4 -8 -13 -10q-94 -21 -182 -21q-8 0 -14 6t-6 14q-2 4 -3 8q-18 126 -19 340q-1 250 -8 336q0 4 1 7q-2 3 -3 5q-3 8 0.5 15.5t11.5 10.5q3 1 14.5 5.5t21.5 8t19 5.5q19 3 34 -3q13 -6 21 -19zM212 538q28 11 46 17q33 10 60 13q-41 0 -107 -9q2 -6 2 -12zM213 83
q4 -39 11 -76q2 -12 -5 -22t-19 -12h-10q3 -22 8 -41q3 -10 -2 -19.5t-14 -13.5q38 4 75 13q0 20 -2.5 42.5t-8.5 52.5t-9 47q0 4 1 8q-5 7 -4 15q1 5 4 10zM153 515l2 36q-3 0 -6 1h-6q1 -3 1 -7l3 -32zM291 156q88 22 139 62q73 56 55 143q-3 -43 -23 -76
q-49 -82 -171 -129zM242 411q8 1 25 5q19 4 29 5q39 6 65 -6q18 -9 32 -28t18 -39q3 -19 -1 -36l2 3q17 33 15 68t-24.5 64t-56.5 34q-29 5 -68.5 -9.5t-71.5 -38.5q-6 -140 -1 -245q99 28 153 69q-34 -14 -93 -14q-4 -4 -9 -5q-9 -1 -15.5 3.5t-8.5 12.5q-4 25 -5.5 69
t-4.5 63q-2 14 10 21q5 3 10 4zM77 560q7 -87 8 -340q1 -207 18 -328q30 1 62 4q-18 4 -23 22q-7 24 -10 50t-5 65t-3 47l-38 461q-1 11 7 20.5t20 10.5q5 0 10 -1q-2 1 -3 2q-4 2 -12 0q-9 -1 -31 -11v-2z" />
    <glyph glyph-name="q" unicode="q" horiz-adv-x="549" 
d="M316 295q-7 47 -9 90q-25 3 -40 -8t-20 -29q-5 -20 4.5 -36t32.5 -18q20 -2 26 -1q3 0 6 2zM346 402q2 -47 9 -99q12 -13 0 -27q-18 -18 -37 -22q-12 -3 -38 0q-43 5 -62 36.5t-9 67.5q9 37 42 56.5t80 6.5q14 -4 15 -18v-1zM454 108q9 -127 36 -213q3 -13 -3 -24
q24 3 43 5q0 40 -1 83q-1 0 -2 -1q-12 -3 -22.5 2.5t-14.5 16.5q-20 64 -36 131zM394 137q-86 -36 -146 -26q-65 12 -108 49.5t-64 90.5q17 -66 39 -92q32 -38 104 -51q44 -8 129 -8q10 0 16 -7q6 -6 7 -14q2 -25 3 -71.5t4.5 -81t13.5 -63.5q14 1 48 4q-4 5 -6 10
q-30 100 -40 260zM368 475q-76 12 -123 -24.5t-52 -89.5q-5 -54 34 -86q47 -39 141 -24q11 1 20 -4v3q-1 19 -13 145q-5 46 -7 80zM211 497q-11 -4 -21 -10q-53 -32 -68 -104q-10 -47 1 -92q12 -45 47 -79t88 -43q44 -8 120 24q-120 -19 -188 37q-31 25 -44.5 61t-10.5 75
q8 82 76 131zM551 -162q-35 -4 -100 -9.5t-79 -7.5q-8 -1 -14.5 4.5t-7.5 13.5q-1 7 4 14q-10 29 -14 62t-5.5 84.5t-2.5 60.5q-73 0 -120 9q-86 16 -127 64q-29 34 -48 112q-21 80 -10 159q12 78 54 133q43 57 109 77q66 19 156 -5q5 13 19 13q86 0 146 3q7 0 13 -4
q12 -4 14 -16q5 -38 6 -99q1 -81 2 -95q24 -384 24 -546q0 -5 -2 -9q-2 -16 -17 -18zM479 517q-27 -185 47 -454q-4 90 -20 346q-1 21 -2 97q-1 48 -4 78q-54 -2 -127 -2q-1 -1 -1 -2q-3 -8 -10 -12t-15 -1q-55 19 -100 16t-78 -21t-56 -49q-30 -40 -42 -96q24 81 89 120
q86 51 202 5l4 -2v4q0 12 8.5 20.5t20.5 8.5t20.5 -8.5t8.5 -20.5v-10q9 19 30 16q12 -2 19 -11.5t6 -21.5z" />
    <glyph glyph-name="r" unicode="r" horiz-adv-x="522" 
d="M195 419l-2 -4q-1 -4 -4 -7q6 -47 7 -71q1 -21 3 -66.5t4 -79.5t7 -66q1 -12 -6 -21.5t-19 -11.5q-8 -1 -15 2l1 -24q1 -12 -7.5 -20.5t-20.5 -9.5t-20.5 7.5t-9.5 20.5q-17 353 -25 451q-1 12 7 21t20 10q10 1 18.5 -5t11.5 -15q4 1 8 1q12 0 20.5 -8.5t8.5 -20.5v-12
q30 24 71 36q79 24 142 -3q7 -3 17 -11l15 -12l24 -21q9 -8 10 -20t-7 -21q-14 -16 -34 -7l1 -2q5 -10 1.5 -21.5t-14 -17t-22 -2t-17.5 14.5q-25 50 -81 47q-44 -2 -93 -31zM66 540q0 -11 8 -88q3 -29 3 -77q-1 -58 0 -74q1 -35 14 -287q71 2 154 14q2 20 -3 71
q-8 81 -10 98q-3 60 3 97q10 52 40 74q29 21 58 9q16 -6 33 -24q15 4 61 19q41 14 67 20q-9 48 -33.5 86.5t-59.5 59.5q-81 50 -172 -9q-7 -4 -15 -2.5t-13 8.5q-2 3 -2 6q-4 3 -5 8l-3 10q-69 -1 -125 -17v-2zM31 573q70 26 164 26q5 0 9 -2q16 2 21 -14l3 -8
q102 54 194 -2q45 -28 75 -77t38 -108q1 -10 -5 -17q-3 -13 -16 -16q-28 -5 -75 -21q-55 -18 -77 -23q-8 -2 -15 2t-9 11q-12 13 -20 16q-8 4 -19 -4q-18 -13 -24 -49q-6 -33 -3 -87q1 -17 9 -97q6 -58 4 -81q-1 -15 -16 -18q-3 -14 -17 -16q-100 -14 -184 -14q-8 0 -14 6
t-6 14q0 6 3 10q-13 270 -14 295q-1 18 0 76q0 45 -3 73q-8 75 -8 90q-5 3 -7 9q-3 8 0.5 15.5t11.5 10.5z" />
    <glyph glyph-name="s" unicode="s" horiz-adv-x="565" 
d="M24 243q2 5 6 7q30 20 76 33q3 1 29.5 8t41.5 12q-60 32 -88 74q-39 59 -33 149q5 64 43.5 113t97.5 75q54 25 119.5 23t117.5 -35q68 -43 118 -142l3 -3q5 -6 4 -13t-6 -11q-11 -9 -62 -54l-34 -30l-11 -9l-3 -3l-1 -1q-1 -1 -1.5 -1t-0.5 -1l-6 -2q-11 -2 -26 6
q-10 5 -23 16q-7 5 -23.5 19t-26.5 21q-28 22 -45 27q-14 4 -22 -8q-4 -7 7 -18q13 -15 47 -33q23 -11 63 -28q39 -16 46 -20q110 -64 137 -165q28 -105 -48 -210q-14 -19 -38.5 -33t-42 -19t-43.5 -11q-120 -25 -198 3q-86 32 -146 135l-20 35q-6 11 -13.5 34.5t-7.5 43.5
q0 13 13 16zM274 606q-25 -11 -36 -40q-3 -9 -6 -28q-2 -19 -1 -25q1 -3 2 -5q0 12 7 23q20 33 59 23q23 -7 57 -33l26 -21l24 -20q11 -8 18 -12q1 -1 2 -1l9 8l34 30l50 44l-13 25q-2 -5 -6 -10q-7 -9 -19 -10t-22 7q-2 2 -5 4q-3 -6 -7 -10q-9 -8 -21 -7.5t-20 8.5
q-21 23 -57 36.5t-75 13.5zM430 348q47 -20 75 -44q-32 47 -90 80q-6 3 -43 19q-41 17 -65 29l-27 15q18 -14 91 -59q37 -23 59 -40zM317 27q-67 0 -125.5 20.5t-83.5 60.5q-19 28 -20 76q0 13 1 35t1 24q-23 -9 -42 -21q-1 -1 -3 -2q2 -30 37 -90q53 -92 127 -119
q69 -25 179 -1q81 17 104 49q12 16 21 33q-21 -21 -53 -36q-10 -6 -20 -11q-60 -28 -123 -18zM400 298q-20 8 -47 17q-10 3 -34 11l-38 12q-14 5 -34 12.5t-35 14.5q-81 38 -106 97q-18 44 -13 82q-2 -10 -3 -20q-6 -79 27 -128q25 -36 80 -65l50 -24q33 -16 49 -25
q57 -32 73 -77q15 -41 -15 -62q-24 -17 -63 -7q-37 11 -69 44.5t-45 87.5q-12 -4 -31 -9q2 -5 2 -11v-18q18 1 27 -15q49 -88 121 -122q11 -6 26 -8q10 0 21 1q51 3 88 20q45 30 39 76q-8 66 -70 116zM183 585q-15 -10 -24 -23q-19 -30 1 -78q13 -31 54 -55q-29 32 -39 70
q-4 16 0 47q3 24 8 39zM264 664q33 11 75 7q71 -8 134 -49q-25 31 -57 52q-44 28 -100.5 29.5t-104.5 -20.5q-68 -31 -100 -89q30 47 99 63q26 6 54 7zM209 283q10 -49 36 -77.5t55 -36.5q23 -6 35 2q8 6 2 22q-12 34 -58 60q-15 9 -46 23l-27 12q2 -2 3 -5z" />
    <glyph glyph-name="t" unicode="t" horiz-adv-x="417" 
d="M345 691q1 -3 1 -6q0 -49 -5 -185h65q8 0 14 -6t6 -14q0 -3 -1 -6q1 -2 1 -5q0 -151 1 -171q0 -8 -5.5 -14.5t-13.5 -6.5h-2h-62q3 -41 1 -125q-2 -82 2 -123q8 -6 8 -16q0 -8 -6 -14t-14 -6q-15 0 -59.5 -1t-77.5 -0.5t-62 4.5q-8 1 -13 8t-4 15l2 6q-2 4 -2 8v246
q-28 1 -52 5q-10 2 -14 12q-5 5 -6 12q-7 78 -7 158q0 8 6 14t14 6h2q4 5 11 6q9 1 26 4l23 4q0 28 -2.5 90t-2.5 95q0 12 10 18q6 10 18 10q18 0 91 -2q61 -2 88 0q8 0 14.5 -5.5t6.5 -13.5v-1zM221 597q2 28 4 53q2 13 13 21h-3q-3 0 -29 1q1 -2 1 -4q8 -33 14 -71z
M175 426q-2 120 -17 195q4 -116 4 -136q0 -10 -7 -16q-5 -6 -13 -7q-11 -1 -32 -4.5t-30 -5.5q0 -21 1 -43q8 9 19 10q41 4 75 7zM283 644q-9 -88 -5 -206l69 10q12 1 21.5 -6t11.5 -19q3 -20 -16 -30q1 -1 2 -3q4 -11 -0.5 -22t-15.5 -16q-33 -13 -67 -19q8 -157 8 -225
q0 -12 -8.5 -20.5t-20.5 -8.5q-5 0 -10 2q0 -12 -7.5 -20.5t-19.5 -9.5t-21 7t-10 20q-2 24 -8.5 91.5t-7.5 104.5q-1 23 -1 52q-13 0 -39.5 1.5t-40.5 1.5q-6 0 -12 3l1 -10q21 -3 48 -3h2h3q8 0 14 -6t6 -14v-265q33 -4 147 -1q-2 41 -1 119q1 101 -2 136q-2 4 -2 9
q0 8 6 14t14 6h65v143h-63q-10 0 -16 7q-7 7 -7 17q6 154 6 186h-35q14 -10 12 -26z" />
    <glyph glyph-name="u" unicode="u" horiz-adv-x="556" 
d="M50 373q-1 -31 -1 -61q3 -178 49 -240q20 -28 48.5 -41t75.5 -23q57 -13 98 -1q2 3 5 5q-5 -2 -10 -3q-46 -7 -84.5 7t-65.5 45.5t-46 68t-34 80.5q-22 71 -35 163zM156 186q56 -135 149 -119q19 3 47 14q-42 -5 -90 18q-67 31 -106 87zM62 610q75 10 157 -4q7 -2 12 -8
t4 -14q6 -6 6 -14q0 -6 -1.5 -50t-2 -83t1.5 -96q3 -81 15 -121q6 -21 13 -28q3 -3 5 -2h1q1 1 3 4t4 7q7 14 14 40q12 46 23 126q5 37 22 225q1 13 14 17q5 4 11 5q88 9 176 0q8 -1 13.5 -7.5t4.5 -14.5v-2q6 -30 7.5 -74.5t0.5 -78t-4 -86.5l-4 -70q-2 -57 1 -152
q4 -127 4 -155q0 -5 -2 -9q7 -6 6 -16q-1 -8 -7 -13.5t-15 -4.5q-29 3 -60.5 3t-75.5 -0.5t-61 -0.5q-4 0 -8 2q-2 -1 -5 -1q-8 0 -14 6t-6 14v10q-44 -8 -101 4q-34 8 -55 14.5t-48 23.5t-45 42q-53 72 -57 264q-1 77 7 151t22 117q2 6 7 10q0 7 5 13t12 7zM504 539
q-3 -19 -4.5 -39.5t-2 -39t-0.5 -40.5v-44q0 -17 -1.5 -74.5t-2 -84t0 -71t3.5 -81.5q1 -12 -7 -21t-20 -10t-21 7t-10 20q-2 31 -3 66l-1 -1q-1 -23 -1 -43v-2q4 -11 -1 -21v-49q0 -12 -8.5 -20.5t-20.5 -8.5t-20.5 8.5t-8.5 20.5v17q-24 -9 -40 -14q8 0 14 -6t6 -14v-21
q151 1 168 0v1q0 24 -4 153q-3 97 -1 156q1 19 4 69.5t4 82t0 72.5t-6 69q-72 5 -142 -1q-12 -141 -21 -213q-11 -83 -24 -132q-9 -30 -18 -47q-12 -25 -30 -31l1 -1q54 -25 92 2q0 20 1.5 57.5t1.5 54.5q5 156 1 252q-1 12 7.5 20.5t20.5 9.5t20.5 -7.5t9.5 -20.5
q0 -11 1 -23q2 29 7 53q2 12 12 19t21.5 4.5t18.5 -12.5t4 -21zM156 518q-1 -64 -1 -119t15.5 -108.5t47.5 -89.5q-1 4 -3 7q-13 46 -16 131q-2 59 -1.5 95t2 82.5t1.5 51.5q-65 10 -124 3q0 -2 -1 -3q-2 -7 -4 -15q9 -2 15.5 -9.5t6.5 -17.5q1 -25 3 -52q0 10 0.5 27
t0.5 19q0 12 9 20t21 8t20 -9t8 -21z" />
    <glyph glyph-name="v" unicode="v" horiz-adv-x="633" 
d="M82 484l-8 24l-64 -33h-1q45 -186 222 -481q15 0 43.5 1t42.5 1q28 43 71 123q56 104 75 135l76 123q-63 -80 -104 -140q-3 -4 -52 -86q-34 -57 -67 -87q-6 -5 -13 -7q4 -10 0.5 -20.5t-12.5 -15.5q-11 -6 -22.5 -3t-17.5 13q-41 71 -106 208q-73 154 -101 205
q-6 10 -3 21.5t14 17.5q13 8 27 1zM332 -43q-37 -3 -107 -3q-9 0 -15 7q-7 2 -11 9q-188 312 -232 506q-1 8 3 14.5t12 8.5q3 8 10 12l79 41q48 24 83 38q8 3 15.5 -0.5t10.5 -11.5q1 -3 1 -6q0 -1 1 -1l102 -250q68 165 152 274q7 8 17 8q9 12 23 7q34 -13 94.5 -48
t62.5 -36q8 -4 10.5 -12t-1.5 -15q-1 -1 -1 -2q3 -7 -1 -15q-13 -30 -32 -66t-35 -60l-40 -64l-36 -58q-17 -28 -74 -134q-45 -83 -74 -129q-4 -13 -17 -14zM129 527q25 -81 84 -204l55 -113q33 45 80 119l111 174q7 10 19 12t22 -5t12 -19t-5 -22q-22 -31 -110 -171
q-58 -92 -102 -147l8 -16q13 18 30 46q50 83 54 90q47 67 126 166q8 9 20 10.5t21 -5.5q10 -9 11 -22q23 41 38 77q-16 8 -43.5 25t-49 28.5t-43.5 19.5q-46 -60 -89.5 -142.5t-72.5 -163.5q-3 -8 -10.5 -11.5t-15.5 -0.5q-6 3 -10 8q-5 4 -8 10l-112 275l-24 -11q2 -3 4 -7
z" />
    <glyph glyph-name="w" unicode="w" horiz-adv-x="816" 
d="M222 164l-49 121l22 -60q6 -14 13.5 -37.5t10.5 -30.5zM252 88q-3 3 -5 6q2 -19 -14 -29q-10 -6 -21.5 -3t-18.5 13q-11 19 -20.5 41t-19.5 51l-12 38l-60 164l1 -5q46 -147 124 -335l33 9q23 7 29 8q-1 3 -2 5zM425 471q16 13 33 3q1 0 2 -1l-28 57q-21 3 -48 6
q-1 -2 -2 -3q-57 -94 -98 -176q-4 -7 -12 -10t-15 1q-8 4 -10 13l-1 1q-2 6 -18.5 50t-22.5 62.5t-15.5 52.5t-12.5 60q-20 -6 -56.5 -15t-54.5 -15q2 -2 3 -5q31 -68 70 -175q-29 87 -42 161q-2 12 5 22t19 12t22 -5t12 -19q9 -52 26 -108q17 -57 32 -98l42 -105
q66 142 121 233q7 10 18.5 13t21.5 -3q6 -4 9 -9zM688 448l12 24q5 11 16 15t22 -1t15 -16t-1 -22l-36 -76l-39 -82q-13 -29 -31.5 -72.5t-31 -82.5t-21.5 -78q-2 -12 -12.5 -18.5t-22 -4t-18 13t-3.5 21.5v3q-15 3 -20 17q-45 116 -63 149q-2 6 -19 36l-25 47l-26 -54
q-50 -105 -79 -155l15 -41q2 -6 2 -12h1q6 16 16 37l20 40q22 47 26 76q1 9 7.5 14t14.5 4q12 -2 16 -12q7 -6 8 -14q2 -21 18 -72q14 -44 17 -70q80 -32 141 -45q20 76 61 187l71 192q5 15 16 44l16 44q5 16 10 39.5t6 43.5q-80 39 -149 52l-27 -83l-30 -100
q-13 -43 -23 -84q-1 -11 -12 -16q-7 -4 -15 -1t-11 11l-47 101q-1 -7 -4 -12q38 -69 85 -180q14 39 40 103q11 25 39 109q25 70 45 112q5 10 16.5 14t22 -1t14.5 -16.5t-1 -22.5q-19 -38 -42 -105zM427 48q-1 25 -16 71l-6 20q-4 -9 -10 -20l-20 -41q-10 -22 -16 -38
q-2 -5 -6 -8q-4 -11 -16 -12q-24 -2 -70 -15l-56 -16q-3 -4 -7 -5q-8 -4 -15.5 -0.5t-10.5 10.5q-86 203 -134 358q-2 6 -29 82t-35 117q-1 8 3.5 14.5t11.5 8.5q1 1 2 1q25 11 55 20t65.5 18t53.5 14q8 3 15.5 -1t9.5 -12q8 0 13.5 -5t6.5 -13q7 -58 53 -180q35 65 79 137
q2 4 6 7v1q1 8 8 13t15 4q36 -6 63 -8q5 -1 9 -3q10 -2 15 -11l69 -143q12 44 36 123l33 103q1 2 2 5q1 8 8 13t15 4q84 -12 181 -60q8 -4 10 -12q9 -6 9 -17q0 -24 -5.5 -52t-11.5 -46l-17 -48q-12 -32 -16 -42q-4 -13 -71 -194q-43 -117 -63 -193q0 -2 -1 -4v-2
q-1 -8 -8 -13t-15 -4q-66 10 -169 51q-4 2 -7 4q-15 3 -16 19z" />
    <glyph glyph-name="x" unicode="x" horiz-adv-x="581" 
d="M287 333l-5 7l-2 -2l6 -7zM323 285l-1 -1l27 -37zM246 388l-14 16l13 -17zM155 151l39 56l55 77l-6 7q-56 -74 -88 -140zM118 101q-8 -1 -16 2q-11 5 -15.5 16t-0.5 22q39 92 121 199q-50 69 -85 124q-7 11 -4.5 22.5t12.5 17.5q8 5 17 5l-21 28l-2 2l-10 -6
q-46 -27 -66 -38q10 -15 33.5 -55.5t40.5 -66t38 -46.5q5 -6 5 -14.5t-6 -14.5q-2 -1 -3 -2t-2 -3l-9 -12q-88 -125 -121 -194l51 -21q33 -14 58.5 -23.5t48.5 -16.5q47 62 90 144q3 6 8 9q2 1 4 3q6 5 14.5 4t13.5 -8q18 -22 65 -78q34 -40 52 -63q10 9 21 17.5t26 18.5
l22 15l27 16q20 13 22 14q-3 3 -66 92q-45 63 -82 96q-6 5 -7 13.5t5 14.5q3 3 7 5q71 97 137 164l-2 2q-55 66 -111 98q-39 -37 -123 -137q-2 -4 -6 -7q-7 -5 -15 -3.5t-13 7.5q-51 70 -91 108l-5 -3q15 -21 33 -44l41 -49l35 -42l107 124q7 9 19 10t21.5 -6.5t10.5 -19.5
t-7 -22l-115 -133l6 -7l120 126q8 9 20 9t21 -8t9 -20t-8 -21q-102 -105 -127 -134l42 -59q70 -99 103 -139q8 -9 7 -21t-10.5 -19.5t-21.5 -6.5t-19 11l-27 33l6 -8q7 -10 4.5 -22t-12 -19t-21.5 -4.5t-19 11.5q-36 53 -108 147l-43 -62q-46 -65 -74 -100q-8 -9 -20 -10.5
t-21 5.5q-17 14 -9 33zM6 518q29 15 87 49q65 38 90 51q7 4 15 1t12 -10q3 -6 2 -12q35 -35 76 -89q71 85 113 125q7 6 17 5q10 11 23 4q32 -17 67 -48q35 -32 61 -63q7 -8 5 -17q2 -1 3 -3q6 -6 6 -14t-6 -14q-65 -66 -136 -161q33 -32 72 -89q65 -91 76 -104q7 -9 4 -19
q-1 -10 -9 -16q-12 -7 -37 -22l-38 -25q-14 -9 -32.5 -23t-30.5 -28q-4 -4 -10 -5q-16 -9 -26 5q-15 20 -64 78l-49 58q-40 -73 -83 -131q-1 -1 -2 -3l-1 -1q-2 -8 -9 -12t-15 -2q-28 7 -57.5 18t-68.5 27.5t-53 21.5q-12 5 -13 17q-1 0 -1 1q-8 3 -11 11t1 15
q17 37 42.5 80t40.5 66l52 72q-20 23 -38.5 51.5t-39.5 65t-31 52.5q-9 2 -13 10q-4 7 -1 15t10 12z" />
    <glyph glyph-name="y" unicode="y" horiz-adv-x="561" 
d="M249 250q-16 -1 -26 12q-103 143 -171 265q-6 10 -3 21.5t13.5 17.5t22 3t17.5 -14l17 -29l-24 50q-4 7 -3 15q-47 -21 -75 -44q21 -49 58.5 -110t60.5 -93l76 -102q15 -9 9 -25q-35 -93 -111 -273l31 -13q-10 13 -4 29zM280 -148q-93 13 -200 62q-6 2 -9 8q-10 10 -4 22
q78 187 112 275l-77 105q-24 34 -64 98.5t-61 115.5q-4 10 1 19q0 9 7 15q23 20 49 35q27 15 64.5 31t50.5 23q10 5 20 -1q13 0 18 -12q14 -32 53 -100q27 -46 40 -73q12 28 38 71q51 85 61 106q1 3 4 5q7 13 22 9q74 -20 157 -70q11 -6 10 -19q4 -7 3 -15q-7 -27 -17.5 -54
t-28.5 -65t-23 -47q-2 -6 -22 -50t-24 -54l-22 -49q-17 -40 -22 -54l-21 -50q-15 -36 -21 -54l-19 -51q-12 -32 -19 -54l-16 -52q-8 -28 -15 -54q0 -3 -2 -6q-2 -8 -8.5 -12.5t-14.5 -3.5zM507 547l-36 -68l-39 -77l-32 -66l-37 -78q-26 -56 -33 -70q-11 -24 -37 -71
q-25 -46 -35 -66q-9 -20 -30 -17l-37 -96q-6 -14 -21 -17q52 -19 99 -27q7 27 15 55l16 51q8 23 20 54l18 52q7 19 22 54l20 49q6 15 23 53t21.5 49t23 52t22.5 49q6 14 22.5 48.5t26.5 58t15 47.5q-66 39 -124 57q-9 -17 -58 -97q-38 -64 -50 -106q-2 -8 -9.5 -12.5
t-14.5 -1.5q-11 3 -14 13q-6 4 -8 10q-13 36 -50 99q-39 66 -50 92l-18 -9q6 -4 9 -11q42 -89 140 -254q51 125 98 223q5 11 16.5 15t22 -1t14.5 -16.5t-1 -21.5l-21 -46l41 76q5 11 17 14t22.5 -2.5t13.5 -17.5t-3 -22z" />
    <glyph glyph-name="z" unicode="z" horiz-adv-x="604" 
d="M549 616q9 -5 10 -14t8 -79q5 -46 12 -75q3 -16 -12 -22l-63 -70l-78 -84l-66 -66q136 -2 232 -15q11 -2 15 -12q6 -6 6 -14q0 -12 1 -54t0 -71t-4 -56q-1 -9 -7.5 -14t-14.5 -4q-7 1 -12 5q-144 13 -357 -1q-10 -1 -82 -10q-54 -7 -88 -5q-8 0 -13.5 6.5t-5.5 14.5
q0 2 1 5l-1 1q-18 97 -18 156q0 12 10 18l3 3q13 15 49 60l56 69q19 23 50.5 57.5t59.5 61.5q-96 1 -167 8q-4 1 -8 3q-12 5 -12 18q0 27 9 92q8 56 5 85q-1 14 11 20q6 11 18 11q14 0 83 0.5t95.5 0t80 -2t96 -5t83.5 -9.5q11 -2 15 -12zM318 82q27 0 50 2q20 1 65 8t69 8
q12 1 21 -7t10 -20t-7 -21t-20 -10q-23 -1 -65 -7q-52 -7 -69 -9q-42 -3 -114 -1t-80 2l-8 -13q-5 -7 -12 -10q38 5 59 6q210 13 355 2q2 21 1 141q-39 5 -82 8q20 -5 22 -26q1 -12 -7 -21t-20 -10q-57 -5 -168 -22zM476 491q-25 -52 -61.5 -108t-84.5 -122t-69 -98l-21 -34
q24 3 64 10q123 19 176 23q-67 4 -163 4q-13 0 -18 12q-6 7 -5 15t7 13q38 34 75 72l91 98l70 76q-5 27 -10 67q-7 67 -7 70q-32 5 -69.5 8t-64.5 4.5t-73 2t-65 0.5h-73h-67q1 -29 -6 -81t-8 -70q77 -6 195 -6q8 0 14 -6t6 -14q0 -9 -7 -15q-1 -3 -4 -5q-32 -28 -68 -66.5
t-54 -60.5l-65 -78l-56 -69q-1 -2 -3 -3q1 -52 17 -135q24 0 62 5l11 1q-7 1 -12 5q-14 9 -13 26q-11 -1 -20 5q-9 7 -11.5 19t4.5 22l171 237q7 9 56 70q50 62 72 96q-108 -8 -238 -8q-12 0 -20.5 8.5t-8.5 20.5q0 22 21 28q-10 2 -16.5 10.5t-5.5 19.5q1 12 10 20t21 7
q50 -3 101 -3.5t132.5 0t101.5 0.5q12 0 20.5 -8.5t8.5 -20.5t-8.5 -20.5t-20.5 -8.5h-8l-1 -2q2 -3 2 -6q0 -6 -1 -11q1 -8 -3 -16z" />
    <glyph glyph-name="braceleft" unicode="{" horiz-adv-x="441" 
d="M-10 272v-10q12 -4 23 -9q-1 1 -5 4l-10 7zM33 375q-18 -9 -48 -13q0 -7 1.5 -19t1.5 -15q5 6 13 11q9 6 10 5v1q18 20 21 27q1 1 1 3zM310 728v5h-12q6 -1 12 -5zM370 -92q2 -4 2 -8q2 -22 -18 -30q26 3 53 8q-23 60 -25 96q-70 -27 -118 -5q-8 3 -14 7q12 -17 25 -25
q24 -15 60 -5q12 3 22.5 -3t13.5 -17q3 -10 -1 -18zM106 158l-11 15q7 -19 9 -44q1 -15 1.5 -52t5 -64.5t16.5 -55.5q33 -71 128 -86q29 -4 62 -3q-79 3 -139.5 57.5t-66.5 135.5q-1 19 -2.5 51t-2.5 46zM345 751q1 -12 2 -53t3 -64q0 -6 -3 -11v-4q-1 -7 -6.5 -12t-13.5 -4
q-56 6 -79 -11q-17 -13 -19 -45q-2 -17 2 -74q4 -53 -4 -78q-3 -10 -15 -27q-9 -12 -23 -28l-21 -23l12 -11l17 -15q9 -8 10 -10q5 -6 9 -15t5.5 -15t3.5 -16t2 -12q7 -27 5 -70q0 -8 -1 -21t-1.5 -24t-0.5 -20q0 -33 10.5 -53.5t38.5 -33.5q12 -5 25 -6.5t27 1.5t25.5 7
t28.5 11q8 3 15 -1h4q7 -1 12 -6.5t4 -13.5q-2 -17 2 -38t8 -34l15 -40q6 -4 7 -11q2 -7 -2 -13.5t-11 -7.5q-106 -26 -188 -14q-114 18 -155 108q-15 30 -20 62.5t-5.5 72t-1.5 47.5q-3 38 -21 60q-21 26 -71 44q-5 -1 -9 -1q-7 1 -11.5 7t-3.5 14q2 29 2 38.5t-3 40.5
l-3 43q-1 9 7 15q4 9 14 10q19 2 26.5 3.5t18 6t16.5 12.5q15 20 18 59q1 6 2 36q1 23 3 37q16 107 88 164.5t179 54.5q2 0 5 -1h1q8 0 13.5 -5t5.5 -12zM270 672q-20 -5 -34 -14.5t-31 -29.5q-28 -32 -36.5 -57.5t-8.5 -55.5q0 -4 0.5 -27t0.5 -35t-4 -34t-12 -42
q-16 -40 -58 -75q52 -32 68 -91q5 -14 7 -33q6 -9 11 -19q9 -18 20 -50q1 7 2 22.5t1 23.5q2 37 -3 60q-2 5 -4 13l-3 13q-1 4 -3 9t-4 9l-7 6l-16 15q-11 10 -17 16q-4 4 -6 8q-2 2 -3 4q-3 5 -3 11q0 4 2 7q0 1 1 2l2 2q1 1 2 3l7 8l21 23l21 25q8 12 10 16q5 20 2 65
q-4 60 -2 80q4 48 34 70q30 23 86 20q-1 17 -2 41q-9 -7 -21 -6q-5 1 -10 1q-5 -3 -10 -4z" />
    <glyph glyph-name="bar" unicode="|" horiz-adv-x="206" 
d="M67 669q1 8 2 17q-24 -3 -43 -9l-1 -8q9 9 21 9q13 0 21 -9zM115 486q-1 -28 -2 -89t-2 -93q-1 -19 -7.5 -91.5t-1.5 -111.5q7 -11 4 -23q1 -4 2.5 -6.5t3 -4.5t5.5 -6.5t8 -11.5q8 -10 6 -21.5t-12 -19t-21.5 -5.5t-18.5 12l-20 27q-8 14 -12 37q-10 14 -15 23
q0 -6 -1 -21q-1 -59 1 -89q9 1 76 8q43 4 71 3q0 89 -7 236l-4 -41q-5 -51 -4 -81q0 -12 -8 -21t-20 -9t-21 8t-9 20q-1 33 4 88q6 67 7 83q4 81 -2 200zM-4 -18q-2 34 -1 100t0 97q-12 372 -5 510q1 10 10 15q3 5 9 6q39 11 98 16q7 7 17 8q12 1 21 -6l25 1q9 0 15 -7
q8 -6 7 -16q-2 -22 1 -62q3 -52 3 -67q0 -98 9.5 -291t9.5 -289q10 -6 8 -18q-1 -7 -7 -11.5t-14 -3.5q-33 5 -90 0q-78 -8 -98 -8q-7 0 -12.5 5.5t-5.5 12.5q0 2 1 4q-1 2 -1 4z" />
    <glyph glyph-name="braceright" unicode="}" horiz-adv-x="417" 
d="M358 271l1 -1q10 -7 14 -12q4 -3 7 -7t4 -9q1 30 5 52q-58 29 -82 65q-21 32 -20 80q0 13 3.5 50t1.5 64t-13 57q-27 73 -120 96q-44 11 -98 10q8 -2 17 -5q95 -10 148 -93q55 -83 50 -204q0 -9 -2 -21q0 -2 -1 -8.5t-2 -10.5q0 -5 -1 -9q11 -12 28 -26q13 -11 33 -25
l12 -8q3 -2 5 -4q2 -1 3 -3q8 -7 8 -19q0 -5 -1 -9zM281 132q-5 -22 -6 -49q6 43 23 67q7 11 15 19q-18 -17 -32 -37zM61 -107q-10 8 -11 22q-1 20 18 28q-16 -1 -34 2q0 -46 -4 -91q114 -10 180 59q-4 -2 -9 -4q-3 -3 -6 -5q-35 -31 -102 -39q-12 -1 -21 6.5t-11 19.5v2z
M213 345q-15 21 -18 42q-2 15 -2 32q-5 -36 -1 -60q1 -6 2 -15l1 -12q1 -5 2.5 -10t3.5 -8l6 -6l15 -16q10 -11 16 -17q4 -5 6 -9q5 -8 4 -15l-4 -9q0 -1 -1.5 -2t-3.5 -3l-7 -7l-23 -21q-15 -14 -23 -24q-10 -10 -11 -14q-6 -22 -8 -71q-2 -58 -7 -79q-10 -46 -41 -65
q-12 -7 -26 -10q46 3 74 12q9 12 14 34q3 12 7 33q5 33 6 39q10 52 30 87l2 3q5 21 13 40q4 9 16 27l22 30l4 5q-22 17 -36 31q-25 25 -30 47q-1 5 -2 11zM66 654q-14 1 -28 0q-10 -1 -18 5q4 -23 3 -43q73 20 119 -6q33 -19 48 -48q-14 29 -49 55q-33 23 -75 37zM21 708
q3 4 7 6q-10 -1 -19 -2l3 -13q4 6 9 9zM-8 -160q6 56 6 115q0 6 4 11v4q2 7 8 11t14 3q52 -11 76 3q18 11 25 41q4 19 6 74q2 53 10 79q3 12 18 28q9 11 25 26l23 21l-11 11l-15 15q-8 9 -10 12q-4 7 -7 16t-4 15.5t-2 16t-2 11.5q-4 29 2 71q1 8 3 21t3 23.5t2 19.5
q3 32 -6 53.5t-36 36.5q-15 9 -33.5 10.5t-32.5 -1.5t-40 -10q-8 -3 -15 2h-3q-7 1 -11.5 7.5t-3.5 13.5q2 11 2 23t-1 20.5t-4 23.5t-4.5 21.5t-6.5 25.5q-5 4 -6 10q-1 8 3.5 14t11.5 7q107 16 188 -4q112 -28 145 -119q12 -33 14.5 -65t-1 -72t-3.5 -46q-1 -37 14 -60
q19 -29 68 -53q5 2 10 0q7 -1 10.5 -7.5t1.5 -14.5q-3 -13 -4.5 -29.5t-2 -27t0 -33.5t0.5 -31q0 -10 -9 -15q-5 -9 -14 -9q-29 -1 -43.5 -6.5t-26.5 -22.5t-17 -52q-1 -2 -4 -32q-3 -20 -5 -32q-25 -106 -102.5 -156.5t-183.5 -38.5q-2 0 -4 1h-2h-2q-7 1 -12 6.5t-4 13.5z
M324 177q5 4 11 7q21 9 50 10v14q0 7 -1 14q-7 -20 -32 -30q-4 -1 -7 -2t-4 -2h-2q-1 -1 -2 -1q-7 -5 -13 -10z" />
    <glyph glyph-name="asciitilde" unicode="~" horiz-adv-x="695" 
d="M200 342q15 -4 31 -11q23 -10 51 -28q-25 22 -42 30q-16 7 -40 9zM550 201q10 6 17 16q12 18 15 54q1 12 10.5 19.5t21.5 6.5t19.5 -10.5t6.5 -21.5q-2 -23 -7 -41q17 22 33 49q-27 20 -116 60q-34 -78 -100 -93q-48 -11 -101 16q48 -36 68 -48q7 -4 15 -7q55 -2 84 56
q5 11 16.5 14.5t22.5 -1.5t14.5 -16.5t-1.5 -22.5q-8 -16 -18 -30zM86 200q-2 -4 -3 -9q-4 -12 -14.5 -17.5t-22 -2t-17 14t-2.5 21.5q4 13 9 24q25 71 67 98q-40 -13 -62 -32q-30 -25 -59 -87l48 -37l38 -31q29 48 66 63t86 -1q23 -7 84 -38q53 -26 84 -35q63 -15 116 0
q-42 -2 -84 12q-52 4 -152 51q-95 43 -127 46q-21 2 -34 -7q-10 -8 -17 -24l-1 -3q-1 -3 -3 -6zM66 99q-14 10 -58 46q-36 28 -58 43q-6 4 -7.5 11.5t2.5 13.5q0 4 2 8q34 73 70 104q41 35 114 48q76 15 125 -8q13 -6 25.5 -15.5t27 -22t19.5 -16.5q61 -48 114 -36t79 83
q1 3 3 6l1 1q3 6 10 8.5t14 -0.5l33 -15l40 -18q14 -7 34 -18t36 -22q3 -3 5 -7h1q6 -4 8 -11t-1 -14q-126 -221 -325 -171q-34 9 -92 37q-59 29 -79 36q-36 12 -61 2q-29 -12 -53 -56q1 -7 -4 -14q-4 -6 -11.5 -7t-13.5 4z" />
    <glyph glyph-name="quoteleft" unicode="&#x2018;" horiz-adv-x="284" 
d="M100 513q-6 -3 -14 -2q-10 2 -17 9t-8 17q-13 -45 -11 -91q34 2 37 2v7q6 31 13 58zM173 650q17 10 32 -2q10 -7 11.5 -19t-5.5 -21q-50 -68 -66 -159h13q3 51 29.5 96.5t71.5 68.5l-16 23l-18 24q-5 8 -15 18.5t-19 17.5q-18 -10 -34 -22q3 -1 6 -4q10 -8 10 -21z
M212 731q17 -12 32 -29t33 -43.5t22 -31.5q10 -13 -1 -25q1 -14 -12 -20q-40 -16 -63.5 -55.5t-24.5 -85.5q8 -7 7 -18q-1 -8 -7.5 -13t-15.5 -4q-16 2 -37 2.5t-32.5 0.5t-40.5 -2t-36 -2q-15 -1 -20 14q-4 5 -5 11q-9 96 37 180t131 126q10 5 20 -1q7 0 13 -4z" />
    <glyph glyph-name="quoteright" unicode="&#x2019;" horiz-adv-x="197" 
d="M191 670q10 -4 14.5 -13t2.5 -20l-4 -20q22 -131 -57 -254q-5 -7 -13 -8.5t-15 2.5q-5 3 -7 9q-1 1 -3 1l-31 28q-21 20 -35 29t-31 14q-8 2 -12 9t-2 15q1 6 7 11q2 5 6 8q39 28 44 39q12 23 3 62q-9 37 -29 58q-6 7 -5 16q-1 2 -2 5q-1 8 3.5 15t12.5 9q9 1 19 4l23 7
l19 5q41 10 69 9q8 0 13.5 -6.5t5.5 -14.5q0 -2 -1 -4q3 -8 5 -15zM100 659l-29 -8q14 -19 22 -44v33q0 11 7 19zM151 645l1 4q0 3 2 7q-2 7 -5 14q-7 -1 -15 -3q15 -6 17 -22z" />
    <glyph glyph-name="quotedblleft" unicode="&#x201c;" horiz-adv-x="383" 
d="M217 655q-10 -44 -14.5 -65.5t-10.5 -58.5t-5 -66.5t8 -57.5q2 -8 -2 -15t-12 -9q-3 -1 -5 -1q-4 -2 -8 -2q-86 -4 -110 -3q-8 0 -13.5 6.5t-5.5 14.5t6 13q0 189 16 281q2 8 8.5 12.5t15.5 3.5q1 0 1 -1q5 1 9 1q12 -2 57 -12q31 -7 51 -7q8 0 14 -6t6 -14t-6 -14z
M106 665l-8 2l-1 -6q4 3 9 4zM385 657q10 -8 8 -20q-27 -117 -27 -244q0 -8 -6 -14t-14 -6q-4 -2 -9 -2q-15 0 -46 -0.5t-46 -0.5q-8 0 -13.5 5.5t-6.5 12.5q-3 5 -3 11q0 47 7 139t7 136q0 8 6 14t14 6q4 0 7 -1q1 0 3 -1q18 -5 50 -11q41 -7 55 -11q11 -2 14 -13zM297 644
q-12 2 -21 4q-1 -29 -4 -67l15 49q3 8 10 14zM92 504h-6q-1 -31 -1 -88q18 1 67 3q-5 33 -4 70l-2 -14q-2 -12 -11.5 -19t-21.5 -5.5t-19 11t-6 21.5zM144 640q2 0 3 -1q15 -2 21 -16l7 28q-13 2 -32 6l-8 2q8 -8 9 -19zM319 533q7 0 13 -2q1 -1 2 -1q6 54 17 104
q-5 1 -11 2q7 -11 3 -24q-13 -38 -24 -79zM287 439q-10 -7 -23 -4h-1q-1 -13 -1 -25q9 0 31 0.5t33 0.5q0 17 1 35q-13 -18 -34 -10q-3 1 -6 3z" />
    <glyph glyph-name="quotedblright" unicode="&#x201d;" horiz-adv-x="357" 
d="M244 655l5 11l-7 -1zM208 425q9 57 8.5 126.5t-19.5 120.5q-3 8 0.5 15.5t11.5 10.5q2 0 4 1q3 2 7 3q74 14 109 17q8 1 14.5 -4.5t7.5 -13.5t-4 -14q25 -169 21 -280q0 -8 -6 -13.5t-15 -5.5h-3q-3 -1 -7 -1q-12 0 -59 4q-33 3 -52 0q-8 -1 -15 4t-8 13q-1 10 5 17z
M303 429q15 -2 25 -2q1 45 -3 98q-12 -48 -22 -96zM73 595q2 31 5 57l-10 -1q3 -28 5 -56zM42 398q-11 7 -10 20q11 123 -6 245q-1 9 4 15.5t13 7.5h1q4 2 8 3q17 2 47 7l44 6q8 1 14.5 -4t8.5 -13q3 -4 4 -10q3 -35 10 -138q7 -96 12 -135q1 -9 -4 -15.5t-13 -7.5h-5h-6
q-18 4 -51 5q-39 2 -56 4q-10 2 -15 10zM115 440q-6 -4 -14 -4q-19 0 -26 17l-2 -26q11 -2 41 -3q1 8 1 16zM269 538q-5 -6 -13 -9q0 -25 -3 -57q7 33 16 66zM291 615q-3 -8 -4 -11q-2 -4 -4 -14v-3zM297 630q5 8 16 11l-3 23q0 -1 -1 -2z" />
    <glyph glyph-name="uni3000" unicode="&#x3000;" horiz-adv-x="1000" 
 />
    <glyph glyph-name="afii10023" unicode="&#x401;" horiz-adv-x="646" 
d="M74 -31q-12 7 -14 22q-7 58 -9 125q-3 -83 -3 -147h26zM625 685q1 -31 1 -119q0 -8 -6 -14t-14 -6h-3h-5q-63 6 -183 6q-24 0 -80.5 -1.5t-86.5 -1.5q1 -52 0 -72q94 0 146 -5q8 -1 14 -7q12 -6 12 -19q0 -80 4 -163q10 -6 10 -18q0 -8 -6 -14t-14 -6q-31 0 -85 -5
q-56 -4 -72 -5q0 -50 -2 -75q33 0 95 -2t74 -2q109 -2 180 4q11 1 18 -7q7 -5 9 -13q9 -33 8 -87q-1 -63 1 -80q1 -7 -3.5 -13.5t-11.5 -7.5q-5 -6 -13 -7q-35 -3 -74 -5l-66 -5q-29 -2 -76.5 -3t-67.5 -1.5t-76 -1t-67 -0.5h-75h-70q-14 0 -19 13q-13 5 -13 19q0 60 2 125
t6 151q2 73 4 125q7 247 -8 397q-1 8 4.5 14.5t13.5 7.5h5q6 8 16 8q31 0 101 0.5t122 0.5q48 0 102 -2q32 -1 113 -8q70 -5 111 -5q8 0 14 -6t6 -14v-4q1 -2 1 -5q2 -17 3 -37q3 -6 3 -13q0 -6 -2 -11zM170 685q101 23 196 31.5t217 8.5q-1 5 -1 10q-37 1 -96 6
q-80 6 -112 7q-53 2 -100 2q-51 0 -121 -0.5t-100 -0.5q2 -15 3 -30q7 16 25 17q12 1 20.5 -7.5t9.5 -20.5q0 -10 1 -20q0 16 1 32q0 12 9 20t21 8t20 -9t8 -21q-1 -17 -1 -33zM121 80q-1 68 -4.5 194.5t-4.5 173.5q-1 -16 -2 -49t-1 -49q-5 -179 3 -286q2 9 9 16zM460 38
q14 -9 14 -25q0 -12 -8.5 -20.5t-20.5 -8.5q-23 0 -98 -0.5t-125 0t-98 2.5q-4 0 -7 1q-3 -12 -13 -18q327 0 495 15q-1 18 0 49q-4 -1 -8 -1q-63 4 -131 6zM116 42q-2 3 -3 6v-6h3zM229 589q35 0 99.5 1.5t85.5 1.5q113 0 172 -5q0 54 -1 80h-29q8 -9 8 -20
q0 -12 -8.5 -20.5t-20.5 -8.5q-225 0 -367 -20q0 -79 2 -186q62 6 167 13q12 1 21 -7t10 -20t-7 -21t-20 -10l-49 -3q15 -1 28 -3q12 -2 19 -12t5 -22t-12 -19t-22 -5q-27 5 -73 3q-48 -1 -64 -1q5 -148 5 -215q216 13 417 0h3q-1 16 -3 29q-69 -5 -172 -3q-21 1 -58 2
t-67.5 1.5t-57.5 0.5q-8 0 -14 6t-6 14v3q-6 7 -5 16q2 22 2 91q0 8 6 14q5 10 16 10q22 1 86 6q42 3 59 4q-4 76 -4 149q-48 4 -143 4q-4 0 -7 1h-7q-8 1 -13 7.5t-4 15.5q2 15 2.5 31.5t0 41t-0.5 34.5q0 9 6 15t15 6zM550 985v-4q0 -21 -0.5 -61.5t-0.5 -61.5
q0 -6 -4 -11q-5 -10 -16 -10q-8 0 -29.5 -0.5t-38.5 -0.5t-32 2q-8 1 -12.5 7t-3.5 13q0 2 1 3q-1 5 -1 9q6 37 6 116q-1 3 -1 6q0 7 5.5 12.5t12.5 5.5q16 0 48 -1.5t48 -1.5q7 0 12.5 -5.5t5.5 -12.5v-4zM499 972v-35q0 -12 -8.5 -20.5t-20.5 -8.5q-9 0 -16 5
q-1 -6 -1 -11l29 2q12 1 21 -7t10 -20q0 14 1 44v50q-7 0 -15 1zM255 979q0 -79 -3 -113q-1 -7 -6.5 -11.5t-12.5 -4.5q-4 -2 -8 -3q-75 -8 -126 2q-7 2 -11 8t-3 14l2 4v2q0 64 1 80q-2 6 0 13q1 15 2 28q1 7 6.5 12t13.5 4q5 -1 9 -4q19 0 59.5 -1t62.5 -1q7 0 12.5 -5.5
t5.5 -12.5q0 -6 -4 -11zM214 972l5 -17v17h-5zM143 972l6 -16q3 -8 3.5 -9t2.5 -5.5t3 -6t5 -9.5l10 -17q7 -15 -1 -29q21 0 45 2q1 10 1 21q-5 -5 -12 -7q-11 -3 -21.5 2.5t-14.5 17.5l-14 47q-1 5 -1 10q-7 1 -12 1v-2z" />
    <glyph glyph-name="afii10017" unicode="&#x410;" horiz-adv-x="738" 
d="M399 355q-17 45 -33 108q-25 -70 -45 -110q34 0 78 2zM198 167q-21 -78 -35 -121q-4 -12 -15 -17t-22 -2q-17 6 -20 24q-12 -13 -29 -8q-11 3 -17 13.5t-3 22.5l13 42q-23 -51 -45 -79q17 -13 35.5 -24.5t45.5 -25.5l41 -22q14 31 39 93q27 71 43 105v2q-16 -2 -31 -3z
M483 320q-40 113 -116 287l-29 -63l-31 -68l-27 -60q-14 -35 -27 -69q-8 -22 -15 -44h18h16q41 -1 66 1q20 1 123 13zM505 258l-2 5q-16 -1 -36 -3q-103 -12 -125 -14q-27 -2 -70 -1h-52l-5 -18l86 11q70 9 115 13.5t89 6.5zM411 644l-6 14q-4 11 0.5 22t15.5 15.5t22 0
t16 -15.5l12 -29q-9 32 -13 60q-56 33 -123 48q-54 -98 -122 -282l-19 -49l75 164q4 8 12 26l11 26q4 8 9 21.5t8 26.5q3 12 13 18t22 3t18 -13t3 -22l-1 -4h1q16 -8 17 -25q16 6 29 -5zM584 326h5l-36 102l-9 24q21 -62 40 -126zM601 270q22 -77 41 -158q3 -12 -3 -22
t-18 -13q-3 -1 -5 -1q2 -11 -4.5 -21t-18.5 -12q-11 -3 -21.5 3.5t-12.5 18.5q-15 65 -36 135q-29 0 -60 -3l4 -4q38 -62 101 -202q20 7 65 29q44 21 61 28l-86 227q-4 -3 -7 -5zM340 799q83 -18 149 -60q12 -8 8 -23q7 -41 22 -85.5t38 -101.5t34 -87q74 -215 142 -383
q10 -2 14 -12q3 -8 -0.5 -15.5t-11.5 -10.5q-26 -9 -84 -37q-56 -27 -90 -38q-8 -3 -15.5 1t-9.5 12q-1 4 -1 8q-61 135 -92 189q-27 -3 -56.5 -4t-66.5 -2t-56 -1q-11 -24 -41 -100q-29 -74 -47 -112q-4 -7 -11.5 -10t-15.5 1q-1 1 -2 1q-7 -1 -13 3q-12 7 -41 22t-52 28
q-23 14 -42 30q-6 5 -7 14q-3 1 -6 3q-6 6 -6 14.5t5 14.5q12 12 23 30.5t18 33t18 39.5q10 24 16 38q34 74 115 292q71 190 126 291q7 11 20 10q7 9 19 7zM396 509q23 -99 46 -154q2 -5 2 -10q2 -4 2 -8q0 -8 -5.5 -14.5t-13.5 -6.5q-73 -3 -122 -3q-12 0 -18 11q-2 0 -4 2
q-7 4 -9.5 11.5t2.5 15.5q23 41 67 164q3 8 10.5 11.5t15.5 0.5l6 -4q8 1 14 -3.5t7 -12.5z" />
    <glyph glyph-name="afii10018" unicode="&#x411;" 
d="M421 159q9 6 17 17t8 18q1 29 -14 45q-14 15 -44 23q-32 8 -120 7q-2 -22 -5.5 -67.5t-5.5 -68.5q39 0 61 0.5t53.5 7t49.5 18.5zM131 286l-2 -70q2 39 2 70zM189 286q0 -39 -7 -176q34 -19 83 -25.5t99 1.5q54 10 87.5 36.5t39.5 67.5q2 12 1 29.5t-4 24.5
q-22 47 -136 81q-40 11 -101 24l-62 12v-75zM540 268q8 -16 10 -44.5t-1 -41.5q-10 -65 -58.5 -103t-115.5 -50q-69 -12 -131 -1q100 -22 178 -14q135 14 165 125q17 62 -12 114q-30 53 -107 87q53 -31 72 -72zM235 93q-8 0 -13.5 6.5t-5.5 14.5q1 30 6.5 89t6.5 88
q0 8 6.5 13.5t14.5 5.5q3 0 7 -1h55q10 0 27 -0.5t31.5 -2.5t27.5 -6q41 -10 63 -33q27 -29 25 -75q-1 -19 -14.5 -38t-28.5 -29q-10 -6 -23 -11.5t-24 -9t-27.5 -5.5t-26 -3.5t-28 -2t-24.5 -0.5h-55zM180 47v-2q13 -4 26 -7q-13 4 -26 9zM254 454q31 -5 46 -8l42 -8
q26 -5 49 -11t44 -13q140 -44 190 -133q41 -72 18 -158q-40 -149 -215 -167q-107 -11 -250 29q-2 -10 -10 -16.5t-18 -6.5q-12 0 -21 9q-7 -7 -17 -8q-12 -1 -21.5 6.5t-10.5 19.5q-5 59 -7 116q-1 -78 2 -140q18 -1 73.5 -7t80.5 -8t74 -5t79 0.5t70 9.5t72 20q31 14 60 34
q44 31 63 81t14 108q-5 57 -31 108t-68 81q-29 21 -64 34q-36 14 -82 21t-75.5 9t-83.5 4q-9 1 -15 1zM222 549v16q0 9 6 15t15 6q35 0 99.5 1.5t85.5 1.5q113 0 172 -5q0 54 -1 80h-29q8 -9 8 -20q0 -12 -8.5 -20.5t-20.5 -8.5q-206 0 -361 -19q-1 -64 0 -149q10 16 29 13
l16 -3q-4 2 -7 6q-5 6 -5 14q0 2 1 5q-1 2 -1 5q0 18 1 62zM79 747q-5 -58 -5 -175q0 -21 1.5 -85.5t1.5 -99.5q6 100 25 288q1 12 10.5 19.5t21.5 6.5q7 -1 13 -4q7 5 17 4q3 0 5 -1q121 5 211 14q95 8 217 8q-1 5 -1 10q-37 1 -96 6q-80 6 -112 7q-53 2 -100 2h-209z
M263 546q-2 -42 -2 -51q54 -2 84.5 -4.5t79.5 -9.5t88.5 -22.5t72.5 -39.5q49 -36 79.5 -94.5t35.5 -122.5q6 -67 -17 -127.5t-76 -97.5q-33 -23 -70.5 -39t-80 -22.5t-79.5 -9.5t-85.5 -0.5t-80.5 5.5t-82.5 8.5t-73.5 7.5q-8 1 -13.5 7.5t-4.5 14.5v2q-3 4 -3 10
q-5 26 -1.5 212.5t3.5 213.5q0 35 -1.5 99t-1.5 86q0 122 6 186q-2 4 -2 9q0 8 6 14t14 6h230q48 0 102 -2q32 -1 113 -8q70 -5 111 -5q8 0 14 -6t6 -14v-4q1 -2 1 -5q2 -17 3 -37q3 -6 3 -13q0 -6 -2 -11q1 -31 1 -119q0 -8 -6 -14t-14 -6h-8q-63 6 -183 6q-24 0 -80 -1
q-56 -2 -86 -2z" />
    <glyph glyph-name="afii10019" unicode="&#x412;" horiz-adv-x="687" 
d="M277 216q1 -7 4 -52q60 -16 125 -14q39 1 52 11q4 2 4 6q0 7 -6 19q-17 30 -81 33q-23 2 -60 0q-37 -3 -38 -3zM273 527q5 -71 5 -77q32 7 52 20t21 24q0 9 -15 18q-22 12 -63 15zM246 391q20 5 38 11q47 15 76 33q28 18 32 34q0 1 -2 18q-4 -29 -39 -51q-32 -20 -83 -29
q-4 -2 -8 -2q-8 0 -14 5v-19zM179 545q-9 3 -14 11q-3 4 -4 9v-52q1 -108 2 -140q12 2 25 5q0 95 -9 167zM185 238q-7 -2 -14 0l6 -61q3 -34 5 -59q0 27 3 120zM337 354q25 12 44 26q-29 -16 -69 -30zM187 299q1 10 1 20l-23 -4l2 -23l4 2zM217 621l2 -2q61 22 118 8
q44 -10 74 -42.5t36 -84.5q3 -32 2 -39q9 18 15 38q14 50 -7 82q-19 29 -66 44q-43 13 -90 11.5t-84 -15.5zM177 613q-11 4 -16 14l-2 6q1 -25 2 -55q2 11 11 18q0 9 5 17zM192 32q-4 3 -6 7v-5zM237 46q-4 -12 -15 -17q81 -8 169 7l7 1q-88 1 -161 9zM240 104q71 -8 158 -9
q89 -1 114 43q21 36 -8 85q-18 31 -49 50t-77.5 17.5t-93.5 -33.5q5 0 14.5 0.5t14.5 1.5q39 2 64 0q86 -4 113 -53q13 -24 12 -43q-2 -21 -20 -34q-23 -18 -75 -19q-37 -1 -78 5q-42 6 -62 12q-7 2 -11 8q-13 4 -14 18l-1 12q-1 -35 -1 -61zM79 692q20 -133 11 -372
q0 -8 -1.5 -44.5t-2 -47.5t-1.5 -43.5t-1 -46.5v-43q0 -28 0.5 -47t2 -42.5t2.5 -45.5q20 -3 40.5 -3.5t54 0.5t43.5 1l1 11v1q-41 3 -68 10q-2 1 -5 2q-11 1 -19 9.5t-8 19.5q0 57 -9 161q-11 127 -13 165q-2 46 -3 176q-1 119 -6 172q-1 18 13 27q-14 -3 -35 -11
q3 -4 4 -9zM263 568q59 -3 92 -22q18 -9 27 -23q-16 38 -59 48q-42 10 -87 -8v-6q6 7 15 8q6 3 12 3zM184 743q27 -6 78 -1q69 8 90 7q124 -5 198 -80q83 -83 55 -207q-4 -18 -18 -44q-8 -16 -10 -23q50 -28 81 -82q32 -54 38 -116q7 -68 -18 -129t-83 -96q-42 -26 -104 -35
t-115.5 -5t-109.5 16v-3q-1 -13 -14 -17q-5 -10 -17 -10q-10 0 -47.5 -1.5t-64.5 0t-51 5.5q-12 3 -15 15q-6 5 -7 13q-2 23 -3.5 48t-2 44.5t-0.5 48.5v44q0 15 1 48.5t1.5 44.5t2 48.5t1.5 45.5q9 235 -11 364q0 5 1 9q-7 4 -10 11q-3 8 0.5 15.5t11.5 10.5q48 17 68 21
q44 9 70 -9q2 0 4 -1zM174 666q48 24 112 28q65 4 122 -14q67 -21 97 -67q36 -54 15 -130q-22 -76 -79 -129q129 -17 170 -129q27 -74 3 -131q-21 -48 -86 -79q-51 -24 -127 -36q-19 -3 -36 -5q138 -12 210 32q46 28 66.5 78.5t14.5 108.5q-6 57 -34.5 104t-73.5 68
q-5 3 -8 8q-10 8 -6 20q4 15 18 43q11 22 13 34q24 104 -43 171q-62 62 -172 68q-19 1 -84 -6q-56 -6 -90 1q-10 -1 -17 5q-8 8 -25 7q19 -5 21 -25q2 -23 3 -47q2 15 16 22z" />
    <glyph glyph-name="afii10020" unicode="&#x413;" horiz-adv-x="631" 
d="M624 772q10 -5 11 -16q11 -115 2 -179q-1 -6 -6 -11q-3 -15 -19 -15q-60 0 -175.5 1t-170.5 1v-23q-20 -263 -16 -383q4 -109 1 -165q0 -5 -2 -9v-4q0 -8 -6 -14t-14 -6q-21 0 -99 -5q-64 -5 -104 -1q-8 1 -13.5 7.5t-4.5 14.5q-2 4 -2 9q0 67 10 177q12 135 14 174
q2 55 3 209q1 145 6 211q1 8 7 13.5t15 4.5h2q5 9 15 11q44 6 99 8.5t86.5 3t103 0t89.5 -0.5q19 0 49 -2.5t51.5 -2t41.5 6.5q8 3 15.5 -1t9.5 -12q0 -1 1 -2zM126 31q-9 -11 -23 -11q-12 0 -20.5 8.5t-8.5 20.5q0 44 -4 274q-2 -45 -14 -176q-10 -109 -10 -165q31 -2 81 1
l13 1q-16 9 -15 27q1 10 1 20zM130 378q-1 1 -2 1q0 -12 2 -156q1 43 0 155zM134 678q-1 1 -1 2q-6 -26 -7.5 -54t0 -73.5t1.5 -61.5v-43q1 3 3 5q0 15 -0.5 53t-0.5 59.5t1 54t4 58.5zM226 563q0 7 4 12q1 8 6.5 13t13.5 5q60 0 176.5 -1t171.5 -1q7 57 -2 154
q-22 -4 -46.5 -4t-53 2t-40.5 2q-19 0 -90 0.5t-102 0t-84.5 -3t-95.5 -8.5h-6q-1 -22 -3 -45q2 8 4 15q3 11 13.5 17t22.5 3q15 -4 20 -19q1 2 3 5v3q2 12 11.5 19t21.5 6q16 -3 23 -18q29 1 86.5 8t72.5 9q128 13 207 -22q11 -5 15 -16.5t0 -22.5q-3 -6 -9 -11
q-2 -10 -10 -17.5t-18 -7.5q-35 -1 -98.5 -7t-73.5 -7q-29 -2 -96 -4q-53 -1 -82 -3q-1 -25 0 -152v-85q1 -257 -5 -373q-1 -14 -12 -22q23 1 40 2q2 50 -1 157q-4 123 16 417z" />
    <glyph glyph-name="afii10021" unicode="&#x414;" horiz-adv-x="983" 
d="M464 782l86 -19q79 -23 79 -35l11 -26q22 -46 45 -125l55 -180l58 -174l16 -49l11 -3h41q111 -3 111 -17q3 0 3 -10l-8 -38l-9 -18l-46 -105l-65 -144l1 -2v-2q-8 -32 -30 -32q0 -1 -19 -2l-13 1l-104 -7h-47l-15 -3q-19 3 -19 19v3q0 7 15 27l57 139l5 11l-30 -1h-15
q-122 0 -171 8l-75 2q-26 0 -56 -4h-20v-1q41 -79 44 -90q23 -48 31 -55q16 -5 16 -19q0 -18 -24 -22q-8 0 -14 5q-29 -8 -107 -8l-17 -1h-34l-5 1l-6 -1h-1q-11 0 -15 8l-1 -2h-6q-15 0 -21 21q-11 14 -32 65q-43 88 -76 166l-30 54q-12 22 -12 29v5q0 20 27 20l19 -1
l104 1h38l94 218l84 197q72 165 72 169q0 27 20 27zM479 739l-46 -108v-1h1q16 43 34 43h6l1 -1h2q7 34 20 34v1l-3 18l3 11h-1zM540 725v-1l14 -41h1v1l-2 16v3q0 8 5 15v1q0 4 -18 6zM602 692v-2q13 -43 66 -241l68 -201q37 -95 44 -120l42 -4l5 9q-32 0 -44 19
q-6 6 -90 270l-65 208l-25 62h-1zM516 646l-53 -133q-86 -240 -154 -382l-5 -17h46l286 21h58v1q-20 62 -60 154q-8 43 -39 122q-52 171 -76 234h-3zM511 511q16 0 20 -21q3 -1 33 -64l43 -177l16 -45q3 0 3 -9v-5l-1 -1v-1q11 0 13 -18q0 -13 -15 -19l-198 -3q-33 1 -33 10
q-4 1 -4 11q1 9 3 9l-1 10v2q1 14 20 74l49 140l35 98q6 9 17 9zM428 192v-6l98 2h19l43 1q-24 67 -42 150q-18 78 -30 99v1h-1q-5 -3 -30 -79q-30 -81 -51 -148q-2 -14 -6 -20zM236 177q0 -6 -7 -19v-3h1l7 19v3h-1zM202 133h-44l-104 -1q33 -54 68 -144q29 -54 50 -104
l18 -37h4l27 -4h19v1q-10 0 -22 41q-49 122 -71 153q-28 41 -32 41q-19 6 -19 23q3 23 23 23h8l90 -7l7 22q-8 -7 -22 -7zM891 132v-1q7 0 10 -18v-6q0 -10 -11 -21l-48 -129q-15 -36 -32 -112l-3 -2h4q4 4 30 66q57 120 73 163l24 57h-2l-43 3h-2zM268 37q-6 -11 -14 -11
v-1q31 -49 47 -106l14 -38v-2q-3 -23 -23 -23q-18 3 -18 10h-1q0 -13 -11 -22l13 1h36l34 3v3q-77 153 -77 157v7q8 22 36 22l12 -3h15q25 4 63 4q118 -3 118 -8l109 -3l92 2q15 -6 15 -19v-2l-1 -7l3 -2q-20 -40 -60 -143l-8 -17l-2 -2v-4h22l84 6h10v1q-7 0 -10 18v11
q18 67 36 110l5 16v1h-1q-21 -38 -59 -138q-9 -17 -23 -17q-23 4 -23 24l24 66q27 65 58 121q-80 8 -131 8q-150 0 -384 -23z" />
    <glyph glyph-name="afii10022" unicode="&#x415;" horiz-adv-x="668" 
d="M90 -31q-12 7 -14 22q-7 58 -9 125q-3 -83 -3 -147h26zM641 685q1 -31 1 -119q0 -8 -6 -14t-14 -6h-3h-5q-63 6 -183 6q-24 0 -80.5 -1.5t-86.5 -1.5q1 -52 0 -72q94 0 146 -5q8 -1 14 -7q12 -6 12 -19q0 -80 4 -163q10 -6 10 -18q0 -8 -6 -14t-14 -6q-31 0 -85 -5
q-56 -4 -72 -5q0 -50 -2 -75q33 0 95 -2t74 -2q109 -2 180 4q11 1 18 -7q7 -5 9 -13q9 -33 8 -87q-1 -63 1 -80q1 -7 -3.5 -13.5t-11.5 -7.5q-5 -6 -13 -7q-35 -3 -74 -5l-66 -5q-29 -2 -76.5 -3t-67.5 -1.5t-76 -1t-67 -0.5h-75h-70q-14 0 -19 13q-13 5 -13 19q0 60 2 125
t6 151q2 73 4 125q7 247 -8 397q-1 8 4.5 14.5t13.5 7.5h5q6 8 16 8q31 0 101 0.5t122 0.5q48 0 102 -2q32 -1 113 -8q70 -5 111 -5q8 0 14 -6t6 -14v-4q1 -2 1 -5q2 -17 3 -37q3 -6 3 -13q0 -6 -2 -11zM186 685q101 23 196 31.5t217 8.5q-1 5 -1 10q-37 1 -96 6
q-80 6 -112 7q-53 2 -100 2q-51 0 -121 -0.5t-100 -0.5q2 -15 3 -30q7 16 25 17q12 1 20.5 -7.5t9.5 -20.5q0 -10 1 -20q0 16 1 32q0 12 9 20t21 8t20 -9t8 -21q-1 -17 -1 -33zM137 80q-1 68 -4.5 194.5t-4.5 173.5q-1 -16 -2 -49t-1 -49q-5 -179 3 -286q2 9 9 16zM476 38
q14 -9 14 -25q0 -12 -8.5 -20.5t-20.5 -8.5q-23 0 -98 -0.5t-125 0t-98 2.5q-4 0 -7 1q-3 -12 -13 -18q327 0 495 15q-1 18 0 49q-4 -1 -8 -1q-63 4 -131 6zM132 42q-2 3 -3 6v-6h3zM245 589q35 0 99.5 1.5t85.5 1.5q113 0 172 -5q0 54 -1 80h-29q8 -9 8 -20
q0 -12 -8.5 -20.5t-20.5 -8.5q-225 0 -367 -20q0 -79 2 -186q62 6 167 13q12 1 21 -7t10 -20t-7 -21t-20 -10l-49 -3q15 -1 28 -3q12 -2 19 -12t5 -22t-12 -19t-22 -5q-27 5 -73 3q-48 -1 -64 -1q5 -148 5 -215q216 13 417 0h3q-1 16 -3 29q-69 -5 -172 -3q-21 1 -58 2
t-67.5 1.5t-57.5 0.5q-8 0 -14 6t-6 14v3q-6 7 -5 16q2 22 2 91q0 8 6 14q5 10 16 10q22 1 86 6q42 3 59 4q-4 76 -4 149q-48 4 -143 4q-4 0 -7 1h-7q-8 1 -13 7.5t-4 15.5q2 15 2.5 31.5t0 41t-0.5 34.5q0 9 6 15t15 6z" />
    <glyph glyph-name="afii10024" unicode="&#x416;" horiz-adv-x="1113" 
d="M928 796q6 0 29 -23q42 -29 101 -102q11 -17 11 -24q0 -12 -22 -29q-74 -66 -123 -113q-121 -108 -152 -153q48 -38 83 -56l83 -61q25 -26 68 -56q3 0 65 -49q20 -7 38 -39v-5q0 -10 -16 -34q-38 -59 -73 -108q0 -4 -14 -20q0 -15 -19 -18q-31 9 -31 19q-34 26 -48 48
q-50 43 -60 47l-137 94l-42 35v-3l-6 -168l-15 -42q-5 0 -5 -3l-27 2h-45q-68 0 -105 -3q-7 0 -16 16q-12 5 -12 18v30q0 84 5 160q-24 -27 -155 -156q-31 -35 -60 -75q-3 0 -14 -11l-8 -1q-18 0 -51 35q-49 34 -83 70q-21 5 -21 21q0 13 34 54q25 43 79 97l50 45
q82 70 93 73q18 16 29 21l1 1v1q-74 52 -90 57q-54 35 -125 97q-36 35 -79 95l-22 26l-1 8q0 13 29 42q75 90 106 123q0 2 12 2q2 6 12 6q15 0 21 -19q123 -125 152 -144q63 -53 84 -66l2 24v149q2 33 23 33q23 0 119 17q20 5 38 5h11q11 0 13 -6l6 1h2q19 -2 19 -19l-2 -8
q3 -11 3 -30v-40q0 -49 -5 -120q167 171 228 215q17 17 35 17zM647 501q-20 0 -20 34v23l5 131v30q0 28 -4 28h-4q-57 -5 -142 -21h-6v-177q0 -41 -17 -41h-15q-9 0 -26 16q-5 0 -95 74q-44 36 -151 144q-21 -22 -62 -73q-44 -47 -44 -52q0 -8 49 -68q23 -32 61 -60
q51 -44 105 -75l55 -35l32 -23q9 0 14 -15l32 31h2v1q-46 28 -123 93q-74 67 -106 107q-35 37 -35 51v2q0 15 15 24q-10 16 -10 25v3q5 26 26 26h3q18 0 26 -22q38 -42 87 -76q52 -40 107 -88q62 -52 114 -85h3q0 151 -11 251v4q5 25 26 25h3q26 -4 26 -25l12 2h3
q30 0 30 -64v-64l-3 -136h1q110 95 135 123l96 94q9 11 21 11h3q22 0 25 -29l58 53q17 18 28 18h4l7 -2q-41 45 -65 59q-34 -21 -198 -180q0 -12 -24 -30q-44 -42 -50 -42h-3zM1005 675q0 -23 -13 -30q-78 -75 -133 -121q-56 -53 -84 -74l-108 -96q-4 -6 -8 -6v-3
q10 -9 68 -40q100 -62 162 -107q37 -25 106 -83q6 -10 6 -16v-3q-5 -26 -26 -26h-3v-1q11 -14 11 -23v-3q-5 -26 -26 -26h-3q-16 0 -28 23q-27 26 -49 44q-40 28 -110 68l-151 111q0 -9 -8 -21l4 -131v-37q-5 -26 -26 -26h-3q-8 0 -15 6q-9 -15 -23 -15h-3q-26 4 -26 26v12
q0 123 6 222l-6 4h-1q-41 -22 -82 -57q-58 -52 -149 -145q-30 -46 -48 -46h-2q-7 0 -14 4q0 -19 -27 -28q-9 -15 -23 -15h-3q-26 4 -26 26v2q0 19 60 96q27 37 94 110q6 8 9 8v3q-56 -43 -145 -131q-21 -25 -47 -65l-13 -15q5 -18 77 -72l28 -23h1q1 13 77 92
q147 145 153 159q7 14 19 14q26 0 26 -23l1 -2l-5 -205v-19l81 2h65q4 14 7 157l2 33v4l1 1v1q-5 2 -5 13q2 19 19 19h2q25 0 71 -45q30 -25 78 -55l88 -59q67 -57 73 -67q0 -5 22 -21q45 62 89 132q-26 15 -70 52q-25 14 -61 45q-66 60 -148 107l-41 32l-11 -3
q-19 2 -19 19q0 21 105 127l148 137l53 48v1l-19 24h-1zM293 541v-3l56 -48q47 -39 74 -55v1q-43 31 -123 101z" />
    <glyph glyph-name="afii10025" unicode="&#x417;" horiz-adv-x="662" 
d="M62 78q0 8 3 14l-7 -5q2 -4 4 -9zM262 -92l-20 10q-85 49 -159 128q20 -27 54 -57q55 -48 86 -67q16 -9 39 -14zM585 351q1 0 2 -1q17 -9 36 -34q46 -59 50 -147.5t-37 -152.5q-110 -170 -313 -157q-80 5 -120 29q-34 19 -92 71q-84 75 -98 137q-1 8 3.5 15t12.5 9h6
q67 57 141 74q14 3 22 -10q3 -2 5 -5q42 -48 76 -70q47 -29 87 -17q16 5 32.5 17t25.5 26q8 13 7 23q-2 11 -18 21q-21 14 -61 9q-15 -2 -38 -7q-3 0 -16.5 -3t-19.5 -5q-8 -1 -14.5 3t-8.5 11q-6 4 -8 11q-21 69 -60 163q-6 14 5 24q4 6 11 9l64 24q19 7 52 24.5t53 37.5
q21 18 16 37q-4 18 -15 20q-15 2 -42 -10q-16 -8 -33.5 -19t-35 -24t-22.5 -16q-3 -2 -6 -2q-14 -8 -25 4q-15 17 -55 48q-41 33 -59 55q-11 13 0 26q-6 13 4 23l56 51q21 18 57.5 42t70.5 37q59 22 119 11t109.5 -43t84.5 -83t46 -108q13 -77 -29 -145q-3 -5 -11 -14
l-14 -15zM192 638q4 4 16.5 15t16.5 14l16 10q10 7 22 11q11 5 26 9q22 6 45 5q14 2 28 2q61 1 111 -29t71 -92q6 -19 10 -45q5 -36 0 -56q-3 -11 -8 -22q0 -10 -1 -20q-7 -54 -50 -112q8 1 15 -2q97 -41 113 -137q13 -81 -34 -170l13 19q34 53 31 128.5t-42 125.5
q-14 18 -23 23q-1 0 -6 1q-19 4 -23 20q-4 12 6 28q4 7 13 18l14 15l7 7q34 56 23 117q-9 50 -39.5 94t-73 71t-93 37t-99.5 -9q-30 -11 -61.5 -32t-52.5 -38.5t-54 -48.5q15 -18 50 -45q34 -27 49 -42q57 41 87 55q38 18 64 13q38 -6 49 -51q9 -40 -28 -75
q-23 -20 -55.5 -38.5t-54.5 -27.5t-60 -23q34 -82 53 -146l23 6l6 1q-3 10 2 19.5t14 14.5q26 11 51 30h-4q-8 0 -16 4l-33 -21q-10 -7 -22 -4.5t-18.5 12.5t-4 22t12.5 18q7 5 35 22l48 31q20 13 40 29q50 39 70 73q-6 61 -55 115q-46 52 -97 57q-37 -6 -69.5 -25
t-51.5 -47q-7 -10 -18.5 -12.5t-21.5 4.5t-12.5 18.5t4.5 21.5q8 12 18 24q3 6 8 10zM113 99q71 -81 157 -130q105 -60 177 -34q36 13 68 69q-24 -17 -54 -27q-90 -29 -156 -11q-30 9 -62 29t-51.5 37t-46.5 43q-8 9 -8 21t8.5 20.5t20.5 8.5t21 -8q37 -38 68.5 -62
t65.5 -33q49 -14 122 11q54 17 72.5 57t4.5 86q-18 62 -74 93q-24 -24 -50 -42q22 -3 39 -14q31 -20 35 -49q4 -25 -12 -51q-14 -20 -36 -36.5t-44 -22.5q-58 -18 -120 22q-39 24 -84 76q-46 -13 -88 -44q16 4 27 -9z" />
    <glyph glyph-name="afii10026" unicode="&#x418;" horiz-adv-x="720" 
d="M683 -53q-3 75 -3 169q-5 -75 -14 -161q-1 -6 -4 -12zM213 -94q-107 -5 -156 2q-8 1 -13 8t-4 15v1q-6 6 -6 14q-5 163 -4.5 252.5t4 252.5t3.5 252v2q-5 6 -4 14t7.5 13.5t14.5 4.5q34 -3 99.5 -7t97.5 -7q8 -1 13.5 -7.5t4.5 -14.5q0 -1 -1 -3q1 -1 1 -2q4 -37 4 -85
t-1.5 -73t-7.5 -89l-7 -76q30 40 114 172q92 145 156 214q10 10 23 4q26 2 67 -1q60 -5 74 -5q7 0 13 -5q4 1 8 1q8 -1 13 -8t4 -15q-6 -39 -8.5 -87t-2.5 -80.5t0.5 -91.5t0.5 -84q0 -34 -0.5 -110.5t-0.5 -119.5t1.5 -106.5t3.5 -116.5q0 -6 -3 -11q-4 -9 -14 -12
q-96 -21 -206 -21q-10 0 -16 8q-14 6 -13 20q2 45 -2 116q-6 107 -6 119q-1 35 4 97q2 33 2 42q-35 -50 -100 -162q-85 -147 -137 -210q-1 -2 -3 -3q-6 -10 -17 -11zM139 49q-3 -17 -7 -33l7 10v23zM626 677q12 1 21 -7t10 -20q2 -30 9.5 -87.5t10.5 -84.5q1 -16 3 -32
q-3 188 8 271q-14 0 -73 5q-41 3 -65 1l-22 -26q2 3 5 5q16 15 35 4q6 4 14 4q12 0 20.5 -8.5t8.5 -20.5v-6q2 -1 3 -1q6 2 12 3zM554 638q-26 -33 -58 -102l16 26q39 63 42 67v9zM619 80q16 217 0 392v-13q3 -104 0 -379zM614 -64l3 1l-2 2q0 -2 -1 -3zM485 368q8 1 14 -4
q2 -1 3 -3q10 -5 10 -17q0 -22 -5 -97q-4 -60 -3 -94q0 -22 6 -117q3 -64 2 -106q29 0 55 2q-7 8 -7 19q0 23 2.5 253t-1.5 253q-1 26 -3 69l-62 -103l-72 -115l-65 -100q-41 -62 -79.5 -111t-79.5 -94l-3 -3q0 -11 -7.5 -19.5t-18.5 -9.5l-2 -4q-7 -10 -19 -12t-22 5
q-9 7 -11.5 18t3.5 21q-11 -7 -23 -4t-18 13.5t-3 21.5q5 22 8.5 44t5 51t2 44t0 53t-0.5 48v350q0 12 8.5 20.5t20.5 8.5q16 0 24 -13q8 11 22 12q12 1 21 -7t10 -20q9 -124 6 -312q-1 -34 -2.5 -100t-2.5 -97q106 157 174 288q13 24 36 79t33 75q29 63 53 100
q-34 -46 -88 -131q-2 -2 -14 -21t-14.5 -23.5t-13.5 -21.5l-15 -23l-14 -21q-10 -15 -15 -22l-16 -22q-9 -13 -16 -22l-16 -20q-8 -11 -17 -21q-5 -6 -12 -7q-5 -2 -10 -2q-8 0 -13.5 6.5t-5.5 14.5q2 38 7 94t8.5 91.5t5 90.5t-3.5 91q-26 2 -77.5 5t-76.5 5
q0 -87 -3.5 -249t-4 -248.5t4.5 -249.5v-2q42 -4 128 0h1q52 63 133 204q84 146 135 210q6 7 14 8z" />
    <glyph glyph-name="afii10027" unicode="&#x419;" horiz-adv-x="747" 
d="M683 -53q-3 75 -3 169q-5 -75 -14 -161q-1 -6 -4 -12zM213 -94q-107 -5 -156 2q-8 1 -13 8t-4 15v1q-6 6 -6 14q-5 163 -4.5 252.5t4 252.5t3.5 252v2q-5 6 -4 14t7.5 13.5t14.5 4.5q34 -3 99.5 -7t97.5 -7q8 -1 13.5 -7.5t4.5 -14.5q0 -1 -1 -3q1 -1 1 -2q4 -37 4 -85
t-1.5 -73t-7.5 -89l-7 -76q30 40 114 172q92 145 156 214q10 10 23 4q26 2 67 -1q60 -5 74 -5q7 0 13 -5q4 1 8 1q8 -1 13 -8t4 -15q-6 -39 -8.5 -87t-2.5 -80.5t0.5 -91.5t0.5 -84q0 -34 -0.5 -110.5t-0.5 -119.5t1.5 -106.5t3.5 -116.5q0 -6 -3 -11q-4 -9 -14 -12
q-96 -21 -206 -21q-10 0 -16 8q-14 6 -13 20q2 45 -2 116q-6 107 -6 119q-1 35 4 97q2 33 2 42q-35 -50 -100 -162q-85 -147 -137 -210q-1 -2 -3 -3q-6 -10 -17 -11zM139 49q-3 -17 -7 -33l7 10v23zM626 677q12 1 21 -7t10 -20q2 -30 9.5 -87.5t10.5 -84.5q1 -16 3 -32
q-3 188 8 271q-14 0 -73 5q-41 3 -65 1l-22 -26q2 3 5 5q16 15 35 4q6 4 14 4q12 0 20.5 -8.5t8.5 -20.5v-6q2 -1 3 -1q6 2 12 3zM554 638q-26 -33 -58 -102l16 26q39 63 42 67v9zM619 80q16 217 0 392v-13q3 -104 0 -379zM614 -64l3 1l-2 2q0 -2 -1 -3zM485 368q8 1 14 -4
q2 -1 3 -3q10 -5 10 -17q0 -22 -5 -97q-4 -60 -3 -94q0 -22 6 -117q3 -64 2 -106q29 0 55 2q-7 8 -7 19q0 23 2.5 253t-1.5 253q-1 26 -3 69l-62 -103l-72 -115l-65 -100q-41 -62 -79.5 -111t-79.5 -94l-3 -3q0 -11 -7.5 -19.5t-18.5 -9.5l-2 -4q-7 -10 -19 -12t-22 5
q-9 7 -11.5 18t3.5 21q-11 -7 -23 -4t-18 13.5t-3 21.5q5 22 8.5 44t5 51t2 44t0 53t-0.5 48v350q0 12 8.5 20.5t20.5 8.5q16 0 24 -13q8 11 22 12q12 1 21 -7t10 -20q9 -124 6 -312q-1 -34 -2.5 -100t-2.5 -97q106 157 174 288q13 24 36 79t33 75q29 63 53 100
q-34 -46 -88 -131q-2 -2 -14 -21t-14.5 -23.5t-13.5 -21.5l-15 -23l-14 -21q-10 -15 -15 -22l-16 -22q-9 -13 -16 -22l-16 -20q-8 -11 -17 -21q-5 -6 -12 -7q-5 -2 -10 -2q-8 0 -13.5 6.5t-5.5 14.5q2 38 7 94t8.5 91.5t5 90.5t-3.5 91q-26 2 -77.5 5t-76.5 5
q0 -87 -3.5 -249t-4 -248.5t4.5 -249.5v-2q42 -4 128 0h1q52 63 133 204q84 146 135 210q6 7 14 8zM205 1006h30l22 -3h32q29 -2 29 -22q12 -49 24 -49q31 -13 47 -13h10q38 0 51 31v19q-6 6 -6 14q3 19 19 19h30q20 0 37 -4l67 1q18 0 25 -18l2 -5q0 -51 -11 -72
q-8 -23 -56 -68q-27 -28 -109 -50l-53 -6h-32q-89 0 -165 53q-38 34 -45 57q-18 30 -23 64v8q0 11 8 15l-1 2v5q0 19 27 19zM168 965v-5q0 -11 15 -41q14 -43 55 -67l34 -16h2l-27 18q-41 34 -41 83v5q7 22 22 22h6q19 0 21 -27l8 2h6q14 0 26 -26l21 -13h5q-33 28 -33 50
q-4 15 -7 15h-5l-25 -1l-22 4h-19zM488 964v-13q0 -12 -12 -36l-9 -10h2q10 10 23 34l14 6h5l14 -6l13 6h6q21 -7 21 -22v-6q-7 -22 -39 -53q-45 -25 -67 -31v-1q19 0 64 24q39 34 42 45q17 14 17 45l2 3v12l-50 -1h-5zM435 825v-1h9l2 1v1z" />
    <glyph glyph-name="afii10028" unicode="&#x41a;" horiz-adv-x="694" 
d="M249 755q1 -3 1 -6q0 -13 0.5 -45t0.5 -50.5t-1 -46t-4 -50.5l32 28q40 35 55 50q106 110 164 160q6 6 14.5 5t13.5 -7q1 -1 2 -3q2 0 3 -1q61 -40 127 -128q12 -16 -4 -28q-1 -1 -3 -2l-4 -6l-88 -85l-111 -104q-47 -44 -95 -80q39 -23 105 -82.5t71 -64.5
q23 -19 74 -55q53 -38 76 -56q4 -3 6 -7q6 0 11 -3q7 -4 9 -12t-2 -15q-17 -30 -56 -83t-55 -78q-4 -7 -12 -9t-15 2q-2 1 -4 3q-7 1 -11 7q-25 32 -160 137q-60 47 -105 77q-23 15 -38 24q1 -144 -8 -204q-2 -8 -8.5 -13t-14.5 -4q-2 1 -3 1h-2q-126 0 -182 5
q-8 1 -13.5 7.5t-4.5 14.5q1 6 5 11v2q0 92 11 383q9 238 3 381q0 9 6 15q2 14 15 17q59 16 180 28q8 1 14.5 -4.5t7.5 -13.5q1 -7 -3 -12zM272 360q17 -10 34 -22q-7 10 -2 21q-1 11 8 17q49 36 96 78t115 109l91 88q-17 22 -35 42q5 -18 -10 -30q-87 -73 -210 -207z
M202 373l-10 -7v-8l5 5q0 2 1 5q2 3 4 5zM262 298q-15 10 -30 18l-2 -2q16 -7 32 -16zM202 527q3 20 5 40.5t2.5 45.5t1 40.5t0 47t-0.5 42.5q-90 -9 -141 -22q6 -143 -3 -378q-11 -289 -11 -379q47 -3 146 -3q3 23 4.5 51.5t1.5 47.5t-0.5 54.5t-0.5 50.5v1q-3 7 -1 15
t9.5 12t15.5 1q22 -7 76 -44q48 -33 108 -78q112 -87 155 -132l45 62q29 40 43 62q-2 1 -3 2q-16 12 -75 55q-50 36 -77 58q-22 18 -57.5 51.5t-65.5 58t-60 40.5q42 -29 86 -67l94 -84l77 -68q17 -15 7 -35l7 -5q9 -7 10.5 -19t-5.5 -21.5t-19 -11t-22 5.5q-22 17 -65 45
q-49 32 -68 46l-56 42l-58 43q-22 16 -54 36t-61 32v-114v-113q0 -12 -8.5 -20.5t-20.5 -8.5q-10 0 -17.5 6t-10.5 15q-4 -1 -8 -1q-12 -1 -20.5 7.5t-9.5 20.5q-5 102 -3 314q2 206 -4 310q-1 12 7 21t20 10q11 1 19 -5t11 -16q3 1 5 1q12 1 21 -7t10 -20q6 -105 8 -232
q45 33 123.5 103.5t114.5 99.5q14 11 30 3q38 36 74 65q12 10 27 6q-26 25 -50 41q-51 -47 -149 -147q-17 -18 -57 -53q-37 -31 -54 -50q-6 -6 -14.5 -6t-14.5 5v1h-2q-8 2 -13 8.5t-4 14.5z" />
    <glyph glyph-name="afii10029" unicode="&#x41b;" horiz-adv-x="767" 
d="M393 584l-113 -217q-94 -181 -170 -283q-7 -10 -19 -11.5t-21 5.5q-4 3 -7 7l-1 -3q-35 -68 -39 -93q84 -40 125 -56q0 1 1 1q38 55 77 126.5t63 124.5l61 137q6 15 25 51q16 31 23 48q3 8 10.5 11.5t15.5 0.5q9 -4 12 -13q3 -2 4 -6l4 -8q-11 30 -22 71l-2 -4l-67 -112
l-39 -72l-44 -80l-40 -69q-24 -42 -48 -77.5t-49 -67.5q-7 -10 -19 -11.5t-21.5 5.5t-11 18.5t5.5 20.5l47 67q22 34 46 75l40 68l43 78l40 73q20 36 67 114l31 53q-4 15 -8 28zM429 647q1 0 1 -1l1 -2q1 14 13 22q10 7 21.5 4.5t18.5 -12.5q22 -32 36 -85q17 -64 22 -76
l74 -200q59 -159 96 -243q4 -11 0 -22.5t-15 -16t-22.5 -0.5t-16.5 15l-23 57q6 -23 10 -45q3 -12 -3.5 -22t-18.5 -12.5t-22 4t-12 18.5q-9 42 -25 89t-29 78l-38 86l-36 82q32 -80 70 -211l13 -47l14 -48q5 -17 14.5 -40.5t20.5 -43.5v-1q97 0 144 19q-23 67 -74.5 236.5
t-95 287.5t-98.5 225q-1 -1 -2 -1q-95 -13 -105 -13q0 -3 -2 -5q-24 -40 -48 -86l-40 -78q-16 -31 -42 -94l-35 -80q-8 -19 -39 -96t-34 -86q46 74 106 190l36 70l40 78l36 68q21 38 42 73q6 10 18 13t22 -3t13 -18t-3 -22zM464 548l3 -15q19 -77 31 -105q14 -34 57 -131
l-67 178q-8 20 -22 77zM350 767q15 1 111 14q8 1 14 -3q16 6 25 -10q58 -111 104 -236t98.5 -297.5t76.5 -242.5q3 -7 -0.5 -14.5t-11.5 -10.5q-3 -7 -10 -9q-27 -12 -63 -17.5t-57.5 -6t-61.5 -0.5q-8 0 -14 6t-6 14q0 2 1 5q-12 21 -22 46.5t-15 43.5l-14 49q-9 32 -12 44
q-41 142 -76 225l-6 -13q-19 -34 -25 -48l-61 -139q-24 -52 -64 -125.5t-80 -129.5q-2 -4 -5 -6q0 -2 -1 -4q-3 -8 -10.5 -11.5t-15.5 -0.5q-47 17 -154 68q-13 6 -11 20q-1 4 -1 8q2 32 43 114l32 62q17 32 23 49q8 18 35 87l39 95l36 86q25 58 43 94l42 82q25 48 50 88
q2 4 5 6q1 7 6.5 12.5t12.5 5.5z" />
    <glyph glyph-name="afii10030" unicode="&#x41c;" horiz-adv-x="849" 
d="M390 233l-70 122l61 -135l1 1zM403 176q-1 0 -3 1l2 -4zM852 719q4 -28 5 -62t0.5 -57.5t-2 -63.5t-1.5 -56q-3 -143 -3 -514q8 -6 8 -16q0 -8 -6 -14t-14 -6q-1 0 -96 2q-56 2 -93 -2q-8 -1 -14.5 4.5t-7.5 13.5v3q-2 4 -2 9q0 31 -2 97t-2 104.5t2 104.5
q-52 -92 -94 -181q-2 -4 -6 -7q-2 -9 -11 -14q-52 -27 -101 -76q-5 -6 -13 -6t-14 5q-12 0 -18 9q-17 26 -39 71l-36 69l-34 54q20 -133 18 -201q12 -5 12 -18q0 -8 -6 -14t-14 -6q-34 0 -111 -11q-76 -12 -118 -10q-8 0 -13.5 6.5t-5.5 14.5v3v3q0 77 3.5 224t3.5 168
q4 234 -9 389q-1 11 7 17q0 8 5.5 13.5t13.5 5.5q141 7 170 7q3 0 6 -1q14 4 22 -9q14 -22 28 -47l24 -46q10 -19 25 -51.5t22 -46.5t23.5 -52.5t19.5 -46.5t21.5 -52.5t20.5 -48.5l28 54q28 52 47 81q95 145 127 209q1 2 3 4v3q1 8 7.5 13.5t14.5 4.5q25 -2 85 -2
q57 1 90 -3q10 -2 15 -11q8 -5 9 -14zM755 646q0 -54 12 -169q13 -125 15 -174q2 -55 -3 -139q-8 -132 -8 -135q0 -12 -9 -20t-21 -8q-15 0 -23 13q-12 0 -20.5 8.5t-8.5 20.5q0 46 -5.5 251.5t0.5 255.5l-236 -413q-8 -14 -25 -14l5 -12q4 -11 -0.5 -22t-15.5 -15.5t-22 0
t-16 15.5q-101 240 -171 369l-18 30q2 -41 3 -68q1 -39 2 -121.5t3 -146t6 -121.5q1 -12 -7 -21t-20 -10t-21 7q-7 -13 -22 -15q-12 -1 -21.5 6.5t-10.5 19.5q-6 68 -6 175q0 124 -2 170q-1 18 -5 78.5t-5 90t0 78t6 87.5q2 10 8.5 16.5t16.5 8.5q0 8 5 16l-56 -3
q12 -155 8 -387q0 -28 -3.5 -166.5t-3.5 -211.5q32 0 91 9t85 11q1 29 -2 68.5t-7 67.5l-11 76l-11 66q0 4 1 8q-4 15 10 22q7 4 15 1.5t12 -10.5q12 -24 40 -65q31 -47 43 -68q10 -16 37 -71q19 -36 32 -58q47 45 98 72q0 2 1 4q61 127 140 257l2 4q2 8 9 12.5t15 3
t12.5 -8.5t3.5 -15q-8 -40 -11.5 -93t-3 -93t2.5 -104t2 -94q32 2 78 0q11 0 33 -0.5t34 -1.5q0 366 3 510q0 18 1.5 56t2 60t-0.5 53t-4 56q-26 3 -75 2q-52 0 -73 1q-1 -1 -1 -2q-35 -70 -129 -213q-16 -24 -45 -78q-33 -62 -45 -81q-1 -2 -3 -4q-2 -10 -11 -13
q-8 -4 -15.5 -0.5t-10.5 10.5l-35 82l-37 90l-35 79q-21 47 -41.5 86.5t-42.5 76.5q-24 0 -52 -1l4 -6q9 -22 22.5 -44.5t32 -49.5t29.5 -46l174 -304l10 17q37 67 51 90q25 41 55 84l72 100l59 82q6 8 16 11l6 10q6 10 18 13t22 -3q16 -10 14 -28q8 -8 8 -20z" />
    <glyph glyph-name="afii10031" unicode="&#x41d;" horiz-adv-x="669" 
d="M226 755q1 -1 1 -3q9 -60 2 -169q-7 -105 -4 -144q83 11 209 22q4 94 11 273q0 8 6.5 13.5t14.5 5.5h1q4 2 9 2q129 0 188 -15q8 -2 12 -9t2 -15q-1 -5 -5 -9q0 -24 1 -71.5t0.5 -85t-1.5 -71.5q-1 -29 -6.5 -127t-6.5 -143.5t1.5 -121t12.5 -135.5q1 -9 -5 -16
q-5 -12 -18 -12q-33 0 -98.5 -1.5t-98.5 -1.5q-8 0 -14 6t-6 14q0 3 1 6q-2 4 -2 8q0 48 -2.5 138.5t-2.5 131.5q-84 -9 -196 -23q0 -103 22 -247q1 -8 -4 -15t-13 -8q-6 -1 -11 2q-4 -2 -8 -2q-112 0 -174 -3q-8 0 -14.5 5.5t-6.5 13.5q0 4 1 8q-3 5 -4 10
q-15 113 -15.5 258t6.5 257q1 23 -4 136q-3 88 7 142q2 8 8.5 12.5t14.5 3.5q5 6 14 6h156q8 0 14 -6t6 -14q0 -3 -1 -6zM506 371v12l-76 -24zM150 697q-3 -31 -3.5 -63.5t2 -67.5t5 -63.5t6.5 -69t7 -66.5q21 4 62 9q52 6 74 10q53 11 131 35q-135 -12 -224 -25
q-8 -1 -14 3.5t-8 11.5q-2 3 -2 6q-4 45 3 169q6 101 -1 155h-98q4 -6 4 -12l1 -16q9 18 29 16q12 -1 19.5 -10.5t6.5 -21.5zM610 669q2 -114 -12 -324q-15 -225 -15 -321q0 -21 -20 -28q-1 -10 -8 -17t-17 -9q-12 -1 -21.5 6t-11.5 19q-6 48 -7.5 109t0 99t5.5 109
l-112 -18q-35 -5 -98.5 -10t-115.5 -3q-3 0 -5 1q3 -72 3 -214q0 -11 -7.5 -19.5t-18.5 -9.5l1 -12q1 -12 -7 -21t-20 -10t-21 7t-10 20q-36 425 -40 485q0 -16 -1 -29q-7 -113 -6.5 -255t15.5 -252v-2q57 2 151 2q-19 132 -19 232v4q-2 4 -3 8q-1 9 4 15.5t13 7.5
q149 19 234 27h5h3q8 0 14 -6t6 -14q0 -48 2.5 -143.5t2.5 -141.5q26 0 79 1.5t80 1.5q-9 60 -11 134.5t-0.5 121t6.5 139.5t6 122q1 33 1.5 70t-0.5 84.5t-1 70.5q-48 9 -149 9q-6 -169 -11 -261q3 -4 4 -9q0 -6 -2 -11l33 10q1 44 -1 124.5t-2 114.5q0 12 8.5 20.5
t20.5 8.5q22 0 28 -21q8 7 19 7q12 0 20.5 -8.5t8.5 -20.5z" />
    <glyph glyph-name="afii10032" unicode="&#x41e;" horiz-adv-x="877" 
d="M401 534q-68 -14 -117.5 -76.5t-58.5 -140.5q-12 -95 44 -154q65 -68 206 -59q91 6 132 75q37 63 21 152t-75 148.5t-140 51.5q-6 -1 -12 3zM21 251q-1 9 -1 21v25v23q-2 59 0 77q-12 -69 1 -146zM351 776q4 3 9 4q20 2 39 2.5t38.5 -2t34.5 -5t36 -9.5l33 -10
q12 -3 34 -11q7 -3 11 -4q79 -27 153 -85q73 -59 114 -130q16 -28 24 -66q9 -37 10 -61.5t1 -65.5q0 -155 -43 -236q-55 -100 -153 -162t-212 -67q-74 -3 -141.5 6t-137.5 42q-69 32 -115 87q-79 96 -103 237q-25 141 26 257q24 50 66 99t89 85q102 78 187 95zM316 16
q7 0 35 3q15 1 47.5 2.5t53 4.5t40.5 10q67 22 111 76q-49 -43 -126 -48q-159 -11 -237 72q-69 73 -55 186q6 49 28.5 96.5t56.5 84.5t83 57.5t102 15.5q8 -1 14 -7q77 -15 130.5 -81t67.5 -150l4 -23q0 24 -3 48q-17 158 -153 217q-9 5 -19 7.5t-18 4t-20 1t-18.5 -0.5
t-21.5 -2t-20.5 -2.5t-23.5 -3.5l-23 -5q-12 -2 -22 5t-12 19v8q-61 -50 -108 -123q-40 -63 -59.5 -128.5t-12.5 -120.5q5 -44 46 -113q50 -84 133 -110zM195 568q-17 -16 -37 -38q-55 -61 -71 -95q-9 -20 -10 -51.5t1 -61.5v-34q7 113 83 231q16 25 34 49zM728 348
q9 -150 -68 -258q44 51 69 127q6 19 10 38q-1 49 -11 93zM407 741q-58 0 -110 -23q-51 -24 -109 -69q-44 -34 -83 -79q-38 -45 -60 -91v-1q19 34 69 90q42 46 83 75.5t94 44.5q18 5 40 7q0 12 8.5 20t20.5 8h9h14h15q11 3 25 4.5t21 1.5t23.5 -0.5t19.5 -0.5q12 0 20 -9
t8 -21v-4q59 -30 124 -83q106 -88 144 -165q39 -78 14 -196v-26q-2 -76 -20 -111q-22 -40 -79 -88q-89 -74 -172 -93.5t-196 11.5q-20 6 -38 14q-64 -1 -110 26q-58 33 -96 125q-38 49 -57 105q26 -111 87 -184q59 -71 155 -99q96 -27 207 -22q104 5 193 61t138 148
q39 71 39 216q0 39 -1 63t-8 55.5t-20 54.5q-37 64 -105 118t-140 79l-59 19q-16 6 -46 12.5t-55 7.5q-3 -1 -7 -1z" />
    <glyph glyph-name="afii10033" unicode="&#x41f;" horiz-adv-x="720" 
d="M610 777l11 -3h27q21 0 21 -30q10 0 19 -216q11 -253 11 -317v-120q0 -7 -5 -12q4 -1 7 -10l-4 -153q-4 -16 -19 -16q-9 0 -19 11h-18l-54 4h-60l-26 -2q-11 0 -16 24q-10 0 -10 73q-5 44 -12 315v93q0 62 -12 140h-20l-113 -13h-27l-6 -136h-1l2 -8q-9 -111 -9 -220v-11
l3 -131v-35q0 -35 -4 -52l2 -11q0 -25 -35 -25l-8 -1h-41q-78 0 -118 -3l-23 10q-6 5 -6 13l-4 315v174l5 202v81q3 19 18 19l-1 2v5q0 23 50 23q246 21 472 21h23zM85 714l2 -1v-93l-6 -201v-163l4 -304l95 1h57q5 27 5 57v24l-3 131v21q0 136 16 380q3 0 8 11q7 6 15 6h33
l106 13h33q16 0 35 -14q5 0 16 -130v-121q7 -265 15 -378h76l55 -4h12q2 129 8 129q-7 3 -7 13v114q0 99 -19 479q-7 52 -12 52h-22l-10 3q-214 0 -447 -18zM518 721q50 -5 50 -12h8l11 2h4q37 -14 37 -31v-4l-4 -14q4 -44 9 -216q12 -175 12 -285v-70q0 -20 -4 -39l3 -62
q-8 -19 -22 -19h-4q-20 0 -24 36v5l1 23l-3 7q-10 -8 -16 -8h-4q-23 0 -23 45q-5 0 -8 220v278q-2 64 -7 64q-68 -7 -182 -28l-139 -21q8 -49 8 -136v-94l-3 -174v-144q-3 -32 -23 -32h-12l-1 2h-2q0 -23 -19 -28h-6l-9 2q-6 -21 -21 -21h-4q-20 0 -22 27q-6 25 -6 192v21
l14 294v107q-10 11 -10 18v4q0 14 18 20l-1 1v9q0 30 81 34q173 27 323 27zM172 438l-1 -68v-110h1l2 109v69h-2z" />
    <glyph glyph-name="afii10034" unicode="&#x420;" 
d="M257 558q2 -23 5.5 -68.5t5.5 -67.5q88 -1 120 7q30 8 44 23q15 16 14 45q0 7 -8 18t-17 17q-18 12 -49.5 18.5t-53.5 7t-61 0.5zM261 196q0 -14 4 -126q3 -84 1 -136q-1 -15 -15 -18q-5 -12 -18 -12h-175q-8 0 -14 6t-6 14q0 5 2 9q-6 64 -6 186q0 22 1.5 86t1.5 99
q0 27 -3.5 213.5t1.5 212.5q0 6 3 10v2q-1 8 4.5 14.5t13.5 7.5q23 2 73.5 7.5t82.5 8.5t80.5 5.5t85.5 -0.5t79.5 -9.5t80 -22.5t70.5 -39q53 -37 76 -97.5t17 -127.5q-5 -64 -35.5 -122.5t-79.5 -94.5q-33 -24 -72.5 -39.5t-88.5 -22.5t-79.5 -9.5t-84.5 -4.5zM129 475
l2 -70q0 31 -2 70zM189 330l62 12q61 13 101 24q114 34 136 81q3 7 4 24.5t-1 29.5q-6 41 -39.5 67.5t-87.5 36.5q-50 8 -99 1.5t-83 -25.5q7 -137 7 -176v-75zM468 351q77 34 107 87q29 52 12 114q-30 111 -165 125q-78 8 -178 -14q62 11 131 -1q67 -12 115.5 -50
t58.5 -103q3 -13 1 -41.5t-10 -44.5q-19 -41 -72 -72zM243 598h21h26q6 0 24.5 -0.5t28 -2t26 -3.5t27.5 -5.5t24 -9t23 -11.5q15 -10 28.5 -29t14.5 -38q2 -46 -25 -75q-22 -23 -63 -33q-13 -4 -27.5 -6t-31.5 -2.5t-27 -0.5h-28h-23h-4q-4 -1 -7 -1q-8 0 -14.5 5.5
t-6.5 13.5q-1 29 -6.5 88t-6.5 89q0 8 5.5 14.5t13.5 6.5h5h3zM206 653q-13 -3 -26 -7v-2q13 5 26 9zM233 234l-16 -3q-19 -3 -29 13q-2 -141 3 -223q1 -12 -7 -21t-20 -10q-10 -1 -17 4q-6 -3 -13 -4q-12 -1 -21.5 6.5t-10.5 19.5q-19 188 -25 288q0 -35 -1.5 -99.5
t-1.5 -85.5q0 -117 5 -175h147q2 47 -1 125q-4 104 -4 135q0 3 1 5q-1 3 -1 5q0 8 5 14q3 4 7 6zM242 235q6 0 15 1q54 2 83.5 4t75.5 9t82 21q35 13 64 34q42 30 68 81t31 108q5 58 -14 108t-63 81q-29 20 -60 34q-32 14 -72 20t-70 9.5t-79 0.5t-74 -5t-80.5 -8t-73.5 -7
q-3 -62 -2 -140q2 57 7 116q1 12 10.5 19.5t21.5 6.5q10 -1 17 -8q9 9 21 9q10 0 18 -6.5t10 -16.5q143 40 250 29q175 -18 215 -167q23 -86 -18 -158q-50 -89 -190 -133q-21 -7 -44 -13t-49 -11l-42 -8q-15 -3 -46 -8z" />
    <glyph glyph-name="afii10035" unicode="&#x421;" horiz-adv-x="763" 
d="M572 213q1 -1 2 -1q31 -16 77 -51q53 -41 69 -51q7 -5 8.5 -13t-2.5 -15q-2 -3 -5 -5q0 -6 -4 -12q-66 -93 -126 -131q-63 -39 -147.5 -40.5t-158.5 27.5q-79 27 -145.5 76t-101.5 109q-55 92 -48 241q6 121 60 221t141 156q60 38 127 50.5t142 -4.5q76 -17 148 -66
q62 -42 100 -80q38 -39 63 -97q4 -8 0.5 -15.5t-10.5 -10.5q-1 -1 -3 -1q-3 -7 -9 -10q-29 -15 -74 -43q-63 -39 -75 -46q-7 -4 -15 -2t-12 9q-5 8 -2 17q-22 44 -65 70.5t-93 30.5q-51 4 -96 -18t-69 -69q-19 -36 -14 -101q5 -58 24 -107q16 -41 56.5 -70t88.5 -36
q48 -6 84.5 14t49.5 67q2 8 9 12t15 2q7 -2 11 -7zM203 544q62 48 142 70q34 10 68 13q-66 0 -115 -19q-57 -22 -95 -64zM172 105q17 -18 46 -33q-59 50 -90 114q13 -49 44 -81zM597 69q9 3 19 5q11 3 21.5 -3t13.5 -18q1 -4 1 -8q14 17 31 41q-11 8 -57 44q-35 27 -60 41
q-22 -51 -68 -72t-100 -13q-58 7 -107.5 42.5t-70.5 88.5q-20 54 -25 118q-6 77 17 122q14 26 33 47q-67 -48 -85 -108q-19 -63 8 -153q21 -70 88 -127q36 -31 71 -46t81 -17q57 -3 113 4q15 9 29 22q9 9 21 8t20 -9q4 -4 6 -9zM606 513q-33 39 -88.5 52t-120.5 2
q10 0 20 -1q57 -5 108 -35t79 -81l50 31q44 28 74 44q-21 45 -54 77q-32 30 -88 68q-67 45 -134 60q-69 16 -128 5t-111 -45q-79 -50 -129 -142q-49 -90 -54 -203q-7 -138 42 -219q31 -52 92 -97q60 -44 134 -71q72 -26 145 -24q74 1 126 34q31 19 59 49q-43 -11 -88 -16
q-71 -40 -178 -28q-161 19 -232 92q-70 73 -70 203q0 309 216 394q75 29 186 22q114 -7 209 -97q9 -8 9 -20t-8 -21q-6 -7 -16 -8q4 -17 -9 -28q-9 -8 -21 -7t-20 10z" />
    <glyph glyph-name="afii10036" unicode="&#x422;" horiz-adv-x="704" 
d="M627 672q14 -1 28 -3l6 -2q-3 33 -7 55q-171 0 -276 4q132 -8 226 -27q10 -2 16.5 -9.5t6.5 -17.5zM355 -9q-1 -29 -1 -56q0 -6 -3 -12q32 2 71 5q-3 29 -3 72q-1 80 -1 90q-5 131 -20 453q0 4 1 7q-1 3 -1 6q0 8 6 14t14 6q134 0 253 11q-2 13 -4 29q-9 -6 -20 -5
q-112 15 -278 13q1 -24 4 -59l5 -45l5 -53q17 -203 17 -452q0 -12 -8.5 -20.5t-20.5 -8.5q-9 0 -16 5zM262 565q2 -46 1 -130q-1 -90 0 -127q4 -139 16 -388q10 0 21 1q-4 6 -4 14q0 32 1.5 70.5t3 65t5 71.5t4.5 67q11 173 -21 413q-156 -4 -205 -4q-12 0 -20.5 8.5
t-8.5 20.5t8.5 20.5t20.5 8.5q30 0 65 1q-15 0 -30 1q-12 1 -20 10t-7 21t10 20t21 7q10 -1 175 -7q-21 2 -41 3q-1 0 -111 9q-64 5 -92 6q-2 -27 -3 -71q-2 -77 -2 -81q119 -11 178 -11q4 0 7 -1q4 1 7 1q8 0 14.5 -5.5t6.5 -13.5zM38 787q39 0 112 -6l109 -9
q146 -10 407 -10q8 0 14 -6t6 -14v-1q7 -5 8 -13q4 -25 9.5 -75t9.5 -75v-3q1 -2 1 -4q1 -8 -4.5 -14.5t-13.5 -7.5q-122 -12 -258 -13q15 -315 20 -444q0 -11 1 -92q0 -54 5 -87q1 -9 -4 -15.5t-13 -7.5h-3q-110 -10 -186 -10q-8 0 -14 6t-6 14q0 5 3 10q-2 3 -2 7
q-12 251 -16 389q-1 39 0 130q1 76 0 108q-57 0 -198 13q-8 1 -13.5 7.5t-4.5 14.5q0 4 2 8v5q1 12 2 84q1 54 4 87q1 5 4 10q4 14 19 14z" />
    <glyph glyph-name="afii10037" unicode="&#x423;" horiz-adv-x="748" 
d="M243 810q15 0 21 -27q39 -67 67 -135q2 0 12 -28q12 -25 19 -55l15 -39h2q0 14 81 162l52 98q1 21 19 21l39 -14l151 -45q37 -12 37 -37v-10q-38 -76 -90 -163q-34 -51 -73 -126q-13 -18 -60 -115l-42 -99q-29 -61 -67 -173q-2 0 -15 -38l-12 -33q-8 -30 -23 -30h-6
q0 -15 -19 -18h-24q-55 0 -122 22q-51 12 -56 15q-2 -5 -12 -5q-20 2 -20 19q20 65 59 162q6 12 20 53q4 0 4 11q5 0 21 55q0 10 7 16l-30 68q-33 58 -87 190l-32 68q0 6 -43 89q-5 0 -8 26q-3 0 -3 9q0 18 35 27q37 23 72 37q32 21 96 39q5 3 15 3zM66 693q51 -96 51 -106
q37 -75 71 -160l53 -108l18 -46l1 -8q0 -5 -7 -12q6 -6 6 -14v-3q0 -19 -37 -104q-3 -14 -20 -51l-37 -101q0 -5 56 -15q0 -5 76 -19l35 -2h23l41 115q33 92 79 195q25 66 84 175q55 97 86 146q41 69 63 113l9 19q-8 6 -109 32q0 3 -15 6h-1v-1q7 0 10 -18q0 -7 -7 -19h1
q7 5 15 5q23 -3 23 -23q-5 -25 -58 -107q-113 -188 -166 -332l15 -42v-4q-3 -23 -23 -23h-6l2 -7v-7q0 -14 -17 -23q-2 -6 -15 -12q0 -20 -16 -32q-39 -111 -42 -128q-9 -11 -21 -11q-23 3 -23 23v3q0 9 9 33v1h-2q0 -6 -18 -9q-23 3 -23 23q30 126 63 201q-66 151 -103 276
q-18 68 -43 125q-17 36 -17 43q6 39 26 39h2q20 0 26 -27l14 -30h4q-8 13 -12 33q-7 0 -10 17q3 23 23 23q17 0 23 -19q8 0 14 -28q18 -36 41 -113l36 -102q37 -92 43 -99q0 7 133 247q49 84 68 121l15 7q-2 4 -29 11l-1 1h-3q-2 -1 -52 -96l-63 -120q-24 -58 -41 -68
q-6 -10 -17 -10q-19 3 -19 20v8q-7 0 -35 92l-19 46q-15 28 -35 77q-32 53 -32 58q-62 -19 -89 -39q-7 0 -72 -36h-3zM319 178l-41 -140v-2h1l48 135q-3 6 -6 7h-2z" />
    <glyph glyph-name="afii10038" unicode="&#x424;" horiz-adv-x="1057" 
d="M599 756q18 0 28 -18q4 -5 4 -12v-67h2l75 4h65q27 0 90 -21q0 -5 30 -7l24 -13q41 -24 79 -68q43 -58 52 -115q2 -5 2 -15q0 -7 -2 -7q2 -11 2 -30v-22q0 -39 -17 -84q-6 -30 -71 -107q-5 -4 -12 -4h-3q-4 -21 -94 -59q-92 -30 -181 -30h-24v-34l2 -46l-1 -23
q1 -38 3 -38q11 -6 11 -17q0 -18 -21 -19q-58 0 -167 -7h-22q-24 4 -24 21l3 15l-2 165h-8q-31 -7 -65 -7h-8q-83 0 -136 19l-53 20q-24 13 -36 23l-58 55q-39 57 -47 121l-5 57v16q0 45 22 108q18 35 32 50l41 39q0 13 37 28q24 15 87 28q40 8 77 8h30q55 0 85 -7v56
q4 36 35 36h38l65 2h22q6 6 14 6zM589 719q0 -7 -12 -7h-8l-65 -2h-41v-15l1 -75l-19 -6q-64 11 -84 11h-45q-61 0 -129 -22l-22 -13q-14 0 -72 -59q-35 -49 -41 -126v-14q0 -55 23 -125q12 -22 18 -27q17 0 22 -19q41 -51 58 -52q18 -15 101 -34q31 -5 80 -5q31 0 63 7h13
q34 0 34 -10q0 -9 3 -12l3 -179h1l141 7l-2 141l2 8v9q0 14 7 18q164 0 248 41q31 14 57 35h8q0 5 29 37q36 49 42 84q6 0 9 56v11q0 44 -17 100q-29 67 -96 105q0 5 -38 15q0 4 -24 7q0 3 -34 11l-36 5h-54l-82 -4h-8l-11 -3h-10l-2 2h-1l1 1v4q-7 7 -7 22v72h-4zM521 676
q23 -4 23 -24l13 3q27 0 27 -58h1q49 20 125 20q117 0 249 -101q31 -38 31 -74l2 -17q0 -20 -6 -45l3 -10v-11q0 -64 -33 -102q-49 -49 -104 -70q-28 -2 -46 -11l-13 2q-104 -32 -130 -32h-27l-41 2q-2 -118 -7 -129q-5 -14 -20 -14q-24 3 -24 23v3l4 132l-14 8v-1l-3 -205
q-5 -21 -23 -21q-23 4 -23 22l2 217q-43 -22 -68 -22h-23q-54 -12 -79 -12q-57 0 -92 34q-38 11 -76 49q-41 44 -56 89q-10 29 -10 40v9q0 110 45 167q16 23 53 49q58 31 131 31q111 0 188 -38v3l-2 73q5 21 23 21zM130 365q0 -34 44 -93h2v1q-26 72 -26 109v35q0 87 63 131
v1h-2q-47 -25 -71 -88q-10 -36 -10 -96zM588 514l1 -2v-16l4 -163v-14q18 0 22 -23q0 -15 -20 -34v-22q22 -15 41 -15h19q87 0 186 86l12 3q18 -3 18 -10q37 43 37 74v6q0 61 -52 108q-41 37 -118 37h-11q-139 -8 -139 -15zM196 412v-14q0 -50 17 -86q17 -62 28 -62
q42 -12 74 -12h13q78 0 127 28q17 16 28 16h4l2 -1h1l7 186l1 2q-13 0 -30 27q-29 30 -114 30h-60q-23 0 -58 -18q-40 -30 -40 -96zM924 484l18 -36h1v2q-11 34 -19 34zM671 484h54q35 -4 63 -22q41 -35 50 -56l12 -31v-18q0 -41 -76 -77q-51 -22 -57 -22q0 -3 -27 -3h-16
q-52 0 -52 22v1q0 10 4 11q-4 0 -5 127l-6 30v2q0 19 27 33zM389 482h25q46 -4 46 -21v-2l3 -149l1 -19q0 -7 -20 -21q0 -3 -12 -7l-5 2l-49 -3h-4q-40 0 -84 20l-19 13q-22 18 -23 32q-10 15 -10 30v8q0 33 13 52q36 45 47 45q19 12 67 19zM542 446l-6 -169h2l10 7l-4 155
l-1 7h-1zM655 443v-1q5 -12 6 -140l2 -9h21q35 0 48 13q29 8 53 23q27 20 27 27v14q-20 51 -64 70l-28 6h-44zM276 363q14 -39 41 -51q31 -15 41 -15h29q38 4 38 6l-3 140l-14 1h-13q-52 0 -90 -21q-29 -28 -29 -52v-8z" />
    <glyph glyph-name="afii10039" unicode="&#x425;" horiz-adv-x="797" 
d="M534 279l26 -39q54 -81 86 -140l26 -54l29 -56q11 5 20 10q-5 19 -28 57q-22 38 -61 92zM745 661q4 -7 4 -15l6 6zM453 399q132 164 247 269q15 13 32 5q-54 47 -107 67q-1 -6 -6 -10q-36 -32 -110.5 -122t-94.5 -128q-3 -6 -9 -9l10 -15l192 221q8 9 20 10t21 -7t10 -20
t-7 -21l-203 -233zM487 348l19 -29q-1 6 2 12q-8 10 -2 21q20 39 46 76zM449 300l-5 -7l157 -253q6 -11 3 -22.5t-13.5 -17.5t-22 -3t-17.5 13l-145 234l-38 -50q-11 -15 -55 -79q39 49 67 89q4 6 12.5 7.5t15.5 -3.5q5 -4 7 -10q28 -39 92 -139q55 -86 90 -132l54 33
q-11 20 -29.5 58t-27.5 54q-30 57 -82 136zM415 351l-5 8l-6 -7l6 -8zM216 753q22 -34 97 -120q56 -65 82 -107q35 51 100 128t98 106q2 2 4 3q0 3 1 7q2 8 9.5 12t15.5 1q48 -14 95 -48t84 -75q5 -6 4.5 -14t-6.5 -14q-5 -5 -13 -5q-1 -1 -2 -3q-88 -81 -145 -146.5
t-98 -143.5l122 -162q39 -53 63 -94q30 -51 35 -77q0 -4 -1 -9q5 -17 -11 -23q-18 -8 -40 -20q-3 -8 -11 -13t-17 -4l-7 -4q-55 -35 -78 -46q-7 -4 -15 -1t-12 10q-2 4 -2 9q-33 43 -94 137l-79 120q-31 -43 -85 -109l-102 -129q-12 -16 -28 -4q-4 3 -6 6l-6 4
q-19 19 -59 44q-54 34 -67 44q-7 5 -8 13t4 15q2 3 5 5q1 1 1 2q68 144 204 311q-38 56 -102 134q-83 101 -115 121q-7 4 -9 12t2 15t11 9q1 3 3 5q10 9 30 29l34 32q14 13 33.5 29t37.5 28q7 4 15 2.5t13 -8.5q1 -3 2 -5q8 -2 13 -9zM186 47q23 24 45 53t48 67.5t43 60.5
l50 67l-6 9q-53 -69 -96 -135q-8 -13 -21 -31l-23 -32q-9 -14 -16 -29q-5 -11 -16.5 -14.5t-22.5 1.5t-14.5 16.5t1.5 22.5q8 16 20 33l24 37l20 28q48 74 110 154q-108 159 -210 284q-7 9 -6 21t10.5 19.5t21.5 6.5t20 -11q101 -126 202 -273l6 8q-121 184 -208 287
q-6 8 -7 17q-14 -11 -27 -24l-34 -31l-27 -27q38 -34 104 -113q71 -87 108 -143l2 -2q6 -5 7 -13t-5 -15q-139 -169 -207 -312q4 -3 48 -31q38 -24 59 -43l33 42q-19 -11 -35 4q-9 8 -9 20t8 21z" />
    <glyph glyph-name="afii10040" unicode="&#x426;" horiz-adv-x="854" 
d="M432 790l27 -2h38l109 -2h41q19 0 20 -28q4 0 4 -10l3 -202v-125l8 -174v-101l-1 -12l1 -4l83 2q38 0 48 -15q11 -11 11 -24q7 -3 7 -13t-3 -10l1 -4l3 -41v-223q-4 -5 -4 -11q-15 -7 -22 -7l-15 1l-7 -3q-78 6 -118 6h-29l-5 -1l-5 1h-21q-15 11 -15 15q-3 66 -8 118
q-32 0 -321 -17h-121q-42 0 -61 12q-6 -15 -19 -15q-18 0 -21 23q-6 4 -6 11l-14 822q9 26 19 26l20 -1l145 1h46q19 -2 19 -19q0 -7 -4 -12q4 -3 5 -76v-17l-4 -177v-81l8 -214l-2 -11v-47h6l153 8v5q-6 6 -6 14q0 7 4 12l-6 252l1 261q-3 57 -7 82q0 20 15 27zM458 750
l4 -68l-1 -261l6 -241l2 -16l-2 -7l7 -38q0 -20 -34 -20l-156 -8h-8q-6 -6 -14 -6q-9 0 -19 11q-9 0 -9 18l-2 113q0 7 3 7l-1 1l-6 160v93l4 177v5l-3 75h-24l-143 -1l-4 -5l14 -804q8 15 20 15q26 -8 54 -8h98q124 5 286 16l79 3q15 -6 15 -19l-3 -13q6 -53 7 -103h35v1
q-4 7 -4 14q1 12 4 12l-8 135h-5l-41 1v2q-10 -7 -18 -7t-19 8l-68 3l-268 -2h-11v-16q-3 -23 -23 -23q-25 0 -30 41h-2l-21 -7q-19 0 -31 29v3q0 10 7 16l-2 2v1q-19 263 -19 499q-5 118 -11 144q5 21 24 21q17 -3 17 -10q11 21 26 21q24 0 29 -26q0 -9 -9 -19q6 -37 6 -68
v-131q0 -278 20 -303q8 -63 14 -84h87q120 0 188 -9l-2 2v1l-2 41l1 14q-8 64 -8 104v14q0 104 15 381v27l-3 53q3 27 24 27q24 0 24 -30q2 0 4 -9l-2 -19v-2h2q0 7 17 10q23 0 23 -29q8 0 9 -139v-217q0 -104 11 -237l1 -1h39q6 16 22 16q18 -3 18 -9h1q6 16 22 16
q24 0 24 -34l7 -29q15 -6 15 -21q-3 -18 -9 -18l8 -152q0 -4 -6 -12h2l42 -1v199l-4 56l1 9q-6 8 -24 8l-90 -1q-34 0 -34 37l1 39v74l-8 174v125l-3 207h-32l-109 2h-34zM546 627v-13l-1 -408l7 -114q0 -4 -6 -12v-11h14q-10 140 -10 228v218l-2 112h-2zM704 -65v-7h1v7h-1
zM708 -164l-1 -10h5l-2 10h-2z" />
    <glyph glyph-name="afii10041" unicode="&#x427;" 
d="M180 774l6 -1h7q51 -1 51 -14q3 0 4 -12l-1 -19q0 -112 33 -197q30 -61 79 -61q47 0 72 66v13l-2 6h2l-2 2v4h2l-2 9v29q0 112 -8 156q0 11 15 18l14 -1l79 1h35q99 0 99 -16v-4l-4 -33v-30l17 -645v-108q-8 -19 -17 -19l-182 -14q-17 0 -34 18q-4 0 -8 315h-2
q-40 -8 -72 -8q-205 0 -292 178q-18 37 -41 163q-8 49 -8 90v80q0 14 15 22q0 11 86 11h54zM58 724v-9l-1 -43q0 -87 38 -227q17 -49 47 -83q20 -26 59 -50q68 -42 164 -42h2q49 0 96 18h2l7 -6q5 -337 9 -337l1 -1v-1l9 1l146 11v69q0 81 -16 665v45l-54 1h-60l-44 -1
q4 -72 4 -134v-23q6 -7 6 -13q0 -75 -68 -120q-24 -12 -46 -12q-117 0 -143 202q-4 28 -7 101l-37 1q-113 -1 -113 -6zM159 725h1q25 0 25 -31l-2 -1v-2q0 -117 68 -216q54 -62 116 -62h5q62 0 116 68l-6 190l-1 5q4 26 23 26h7l11 -4q3 27 20 27h7q20 -3 20 -16h7
q16 0 23 -19l-1 -15q0 -224 30 -651q-7 -21 -26 -21q-14 0 -26 21q-15 0 -17 39l-2 21l3 9q-4 92 -18 276h-1v-11l15 -379q-7 -19 -21 -19h-8q-20 0 -21 36l-2 7l2 26l-13 297h-1q-64 -43 -136 -43h-8q-131 0 -222 136q-36 74 -41 109l-11 55q4 23 19 23q-4 26 -4 53v23
q0 30 23 30l2 1h1q8 0 19 -9h2q0 18 23 21zM142 610v-4q0 -38 36 -117q17 -36 69 -82l8 -4v1q-44 37 -64 73q-29 48 -45 115l-2 18h-2z" />
    <glyph glyph-name="afii10042" unicode="&#x428;" horiz-adv-x="955" 
d="M716 798h15q191 -6 191 -17q6 -7 6 -16h-2l5 -11l-3 -13q4 -612 8 -738v-13q0 -20 -3 -20l2 -1l-2 -10v-38q-7 -10 -13 -10q-352 0 -811 11q-54 12 -54 21q-3 42 -6 47q-24 540 -31 760q0 9 20 25l10 2l5 -1q99 8 173 8h14q13 0 19 -28l-2 -7q9 -174 17 -525l2 -8v-10
q0 -43 6 -65v-10l75 3h9q2 94 4 114q-8 210 -12 448l1 60l13 25q0 9 43 9q80 5 140 5q18 0 26 -18q4 -5 4 -12v-1q0 -579 16 -644h10l77 2q-8 358 -10 639q2 12 10 18q0 19 28 19zM716 760l8 -538q3 0 5 -9l-1 -68l-1 -11l5 -14l-5 -16h20l3 3l-4 318q0 307 15 307
q8 10 19 10h1q21 0 26 -27v-3q0 -8 -7 -16l-3 -61v-7h2q2 83 16 83q0 2 9 4h9q21 -6 21 -27q-4 0 -10 -128q-6 -140 -6 -332l1 -125h9q24 -5 24 -21v-8q-5 -19 -18 -19v-1q30 0 30 -22v-7q0 -18 -28 -20h-17q-4 -30 -21 -30h-4l-14 2q-3 -22 -22 -22h-7q-21 0 -21 42v5
q-148 -6 -199 -6q-11 -23 -28 -23q-13 0 -28 20l-236 -5q-108 0 -125 14q-11 10 -11 21v4q0 7 4 12l-4 43v7l1 2q-38 311 -38 538v56q4 26 24 26h2q22 0 27 -29l-4 -16v-38q0 -78 5 -192h2v9l-3 145q0 142 14 142q6 10 17 10h4q25 -4 25 -25q-10 -22 -10 -38l-1 -89
q0 -225 30 -510q149 13 174 13v2l-14 1h-20l-103 -4q-22 0 -22 22l4 11l1 58q-5 76 -12 420q-6 143 -8 143q-62 0 -162 -8q8 -248 29 -669q2 0 2 -10v-100l4 1q499 -10 804 -10l3 77q-4 0 -7 689l-1 27l1 8q-114 9 -162 9h-13zM397 751l-1 -54l14 -525q0 -9 -6 -26v-17
q7 0 10 -14v-5q0 -10 -11 -14v-1h1l26 1h3l3 205q0 232 -9 411q7 22 22 22h6q16 0 24 -22h3q0 7 17 10h2q22 0 31 -37v-2q0 -5 -8 -16v-79q0 -145 23 -487h16q-14 70 -16 574l-1 82zM142 433v-19h1v19h-1zM143 402v-7h1v7h-1zM484 309l-2 -210h7l9 1q-8 110 -12 209h-2z
M550 52v-6l1 -2v-1l4 1l188 6q8 0 8 7h-1q-102 0 -200 -5zM480 50h-1v-8h23l-1 1v8zM287 37v-1h11l123 3l6 1v7z" />
    <glyph glyph-name="afii10043" unicode="&#x429;" horiz-adv-x="1038" 
d="M476 778q48 0 86 -5l8 1q17 -6 17 -16v-6q0 -5 -6 -12v-5q15 -96 23 -442q0 -79 4 -129l-1 -6l1 -15l-1 -9h26l50 -2q-3 6 -3 15l3 17l3 331q0 214 -7 256v8q0 11 15 15h7q7 0 7 -3l20 2q192 -6 192 -19l2 -8l-1 -14q4 -57 4 -241v-170l-1 -89l1 -5l-7 -103
q115 0 115 -11l4 -16q-6 -51 -44 -269l-3 -18l2 -1v-1q0 -14 -29 -32q-116 -5 -164 -15q-26 0 -26 41l3 108h-2l-35 2l-19 -2q-569 3 -641 11q-7 -4 -13 -4q-19 0 -19 38q-17 145 -33 768q0 34 27 34q101 17 169 17h9q34 0 34 -56q9 -145 25 -590h15l7 2v-2l1 2h77
q-14 603 -27 603l-1 4v6q4 27 16 27q27 8 110 8zM392 736q10 -85 22 -480l3 -136q2 0 5 -11q0 -18 -27 -23l-15 5h-36l-91 -2q-13 6 -13 22l1 4l-1 4h1l-1 4q-18 519 -27 613h-2q-69 0 -156 -16l-3 -4q14 -473 23 -649q3 0 7 -11l-1 -9v-13l1 -6h-1l1 -2v-15l3 -16l-2 -23
l3 -13q63 -8 596 -11l23 3l80 -3l8 3h6q26 -9 26 -22v-6q0 -7 -11 -16l-3 -105l27 3v1l-1 11l15 165h-3q-11 -17 -20 -17h-10q-12 0 -19 18h-15q-172 0 -600 -19h-5q-22 0 -29 31h-16q-22 4 -22 22v6q0 6 7 14q-22 477 -22 596v61q4 26 23 26h6q11 0 20 -12q4 17 21 20h8
q16 -3 20 -20l-4 -270q0 -162 7 -381l1 -6q184 13 257 13q-16 320 -16 605q6 18 22 18h7q5 0 12 -5h1q6 15 22 15q17 0 24 -21l-1 -17q16 -417 16 -593l55 1h137v1l-1 11q13 319 13 539v71q6 23 21 23h8q21 0 23 -37v-3l-3 -12v-34q0 -150 -12 -560h15l6 565v17l-2 28
q6 25 22 25h8q17 0 20 -26l-1 -6l1 -13v-4l-5 -589l57 1h4q52 0 57 -19l3 -11v-1l-18 -50q-17 -58 -28 -106l1 -5q-12 -60 -19 -60h3l45 1v2q8 63 45 268l-82 3h-16q-15 0 -21 26v12l2 19q-3 5 -3 15v3q8 9 8 168v170l-3 222q0 8 -54 8q-61 6 -110 6v-2q4 -109 4 -219
l-1 -333l-2 -5l2 -4h-2l2 -2v-1l-2 -1l2 -2v-1l-2 -4l2 -4h-2l2 -2v-1l-2 -4l2 -4h-2l2 -1v-2l-2 -1l2 -2v-1l-2 -1l2 -2v-1l-2 -1l2 -2v-4l-2 -1q3 -6 3 -19q-5 -14 -16 -14l-17 -1l-65 3l-38 -2q-19 0 -19 42l-1 19l1 10q-10 510 -29 572l-72 3q-76 -1 -76 -4zM903 15
l-2 -30v-2h1l10 32h-9z" />
    <glyph glyph-name="afii10044" unicode="&#x42a;" horiz-adv-x="832" 
d="M129 762h100l19 -3l45 2q137 0 137 -27q4 0 4 -13l-4 -221l1 -17l-1 -4q26 6 50 6h22q95 0 193 -55q128 -88 128 -238v-2q0 -83 -53 -176q-43 -58 -83 -69q-115 -41 -292 -41q-70 0 -183 13q-8 6 -10 13l1 21v69l-1 10v3h1l-1 173v351l-156 -6q-20 5 -20 19q2 11 4 11
q-8 89 -8 153q10 25 42 25q19 3 65 3zM60 713l7 -124l115 6l39 -1l5 1q13 -7 14 -10v-321l1 -282l1 -14l-1 -16h1q85 -9 153 -9q182 0 287 42q58 30 88 119q10 33 12 54l-1 8l3 24v17l-2 17h2q0 27 -29 91h-1v-2q23 -53 23 -91v-4q0 -115 -125 -186q-56 -30 -147 -54
q-78 -16 -153 -16l-51 -10h-4q-25 5 -25 20v7q0 8 7 17l-7 14l2 23v14q0 204 -22 563l-123 11l-16 -2q-23 6 -23 21v7q0 6 5 15q-24 4 -24 23v6q0 15 22 21q216 -14 258 -26q14 -10 14 -22t-10 -22q18 -8 18 -23q0 -16 -18 -27q8 -115 8 -175l2 -6q30 7 72 7h3
q179 0 277 -88l8 2h8q6 0 15 -8q-40 69 -134 102q-65 21 -113 21h-21q-25 0 -58 -9q-13 0 -21 20q-10 7 -10 17q4 135 4 241q-21 4 -96 7l-78 -2h-15l-4 3h-71q-68 0 -68 -5zM302 604v-1q10 -158 10 -211h1l3 3q-7 209 -12 209h-2zM313 364l1 -28h2l1 17v7zM531 361v-1
q65 -10 127 -67q32 -39 32 -73v-18q0 -47 -53 -99q80 52 80 103v18q0 51 -71 99q-42 23 -102 37l-11 1h-2zM316 324v-2l7 -219h1v19q-4 202 -7 202h-1zM367 312q6 -123 6 -237v-15q168 23 231 81q37 31 37 66v10q0 55 -104 91q-51 15 -106 15h-12q-50 0 -50 -10zM414 309h34
q91 0 147 -51q17 -25 17 -48q0 -80 -160 -98h-12q-8 0 -17 11q-19 0 -19 49l-7 101v4l-2 11v5q0 14 19 16zM435 271v-1q7 -118 11 -118l10 -2q36 0 94 26q24 17 24 34q0 45 -111 61h-28z" />
    <glyph glyph-name="afii10045" unicode="&#x42b;" horiz-adv-x="935" 
d="M134 784h60q62 0 62 -24q0 -8 -7 -15q6 -99 6 -176v-68l1 -9q32 5 55 5q90 0 187 -48q47 -23 94 -82q56 -79 56 -164v-8q0 -70 -40 -125q-4 0 -28 -30q-82 -73 -161 -92q-105 -33 -217 -33q-51 0 -132 11l-8 -1q-4 0 -19 10q-15 6 -15 17q2 96 2 276v187l-4 315l-1 1v1
l1 4l-1 2q3 42 20 42q42 4 89 4zM834 784q46 0 46 -18q9 -11 9 -15l-2 -15q7 -121 19 -766q0 -27 -16 -30l-144 -1l-6 -2v2l-1 -2h-38q-20 0 -20 33l-2 5l2 10q-6 146 -6 212l7 526l-1 1v2l1 5v19q0 21 28 29q38 4 124 5zM63 735l1 -4h-1l1 -1v-2q5 -192 5 -327v-166
l-2 -250l-1 -7l1 -11v-3q91 -10 138 -10q161 0 285 64q84 51 114 132q6 25 6 45v8q0 113 -105 198q-93 58 -196 58q-47 0 -47 -10q0 -4 -23 -12h-6q-14 0 -16 19v119q0 68 -6 170l-6 1h-70q-71 0 -71 -5zM721 742l-2 -14l1 -1l-1 -6l1 -50q-7 -297 -7 -470q0 -105 7 -226
l143 3l5 15q-13 658 -19 748l-11 5zM769 720h8q20 -4 20 -24h2q6 12 16 12h7q22 -5 22 -19l2 -184v-35q-3 -453 -12 -453q-10 -15 -23 -15h-1q-22 0 -25 27h-1q0 -36 -23 -36h-7q-13 0 -20 20l-3 239v87l3 329q0 13 13 21q4 31 22 31zM157 719q15 0 24 -21l-1 -24
q0 -58 11 -272q59 11 114 11q146 0 235 -79q47 -54 47 -103l1 -15q0 -86 -98 -154q-31 -24 -110 -49q-122 -32 -234 -32q-69 0 -69 32q0 22 30 28v3q-18 566 -25 630q5 23 23 23h4q14 0 21 -14h1q0 36 26 36zM796 594q0 -166 -9 -506q5 2 5 8l5 345v153h-1zM194 315l9 -222
q7 -1 14 -15q52 0 162 46q92 54 92 105v12q0 41 -87 77q-49 16 -97 16h-16q-53 0 -69 -18zM482 318v-2q38 -34 38 -79v-11q0 -61 -80 -121q-42 -30 -117 -55h-6v-2h4q84 21 123 42q95 57 95 127q0 62 -57 101zM237 316h34q91 0 147 -51q17 -25 17 -48q0 -80 -160 -98h-12
q-8 0 -17 11q-19 0 -19 49l-7 101v4l-2 11v5q0 14 19 16zM258 278v-1q7 -118 11 -118l10 -2q36 0 94 26q24 17 24 34q0 45 -111 61h-28z" />
    <glyph glyph-name="afii10046" unicode="&#x42c;" 
d="M321 133.5q22 0.5 53.5 7t49.5 18.5q9 6 17 17t8 18q1 29 -14 45q-14 15 -44 23q-32 8 -120 7q-2 -22 -5.5 -67.5t-5.5 -68.5q39 0 61 0.5zM348.5 490.5q30.5 -2.5 79.5 -9.5t88.5 -22.5t72.5 -39.5q49 -36 79.5 -94.5t35.5 -122.5q6 -67 -17 -127.5t-76 -97.5
q-33 -23 -70.5 -39t-80 -22.5t-79.5 -9.5t-85.5 -0.5t-80.5 5.5t-82.5 8.5t-73.5 7.5q-8 1 -13.5 7.5t-4.5 14.5v2q-3 4 -3 10q-5 26 -1.5 212.5t3.5 213.5q0 35 -1.5 99t-1.5 86q0 122 6 186q-2 4 -2 9q0 8 6 14t14 6h175q13 0 18 -12q14 -3 15 -18q2 -52 -1 -136
q-4 -112 -4 -126q54 -2 84.5 -4.5zM134 286l-2 -70q2 39 2 70zM192 286q0 -39 -7 -176q34 -19 83 -25.5t99 1.5q54 10 87.5 36.5t39.5 67.5q2 12 1 29.5t-4 24.5q-22 47 -136 81q-40 11 -101 24l-62 12v-75zM543 268q8 -16 10 -44.5t-1 -41.5q-10 -65 -58.5 -103t-115.5 -50
q-69 -12 -131 -1q100 -22 178 -14q135 14 165 125q17 62 -12 114q-30 53 -107 87q53 -31 72 -72zM243 93h-5q-8 0 -13.5 6.5t-5.5 14.5q1 30 6.5 89t6.5 88q0 8 6.5 13.5t14.5 5.5q3 0 7 -1h4h23h28q10 0 27 -0.5t31.5 -2.5t27.5 -6q41 -10 63 -33q27 -29 25 -75
q-1 -19 -14.5 -38t-28.5 -29q-10 -6 -23 -11.5t-24 -9t-27.5 -5.5t-26 -3.5t-28 -2t-24.5 -0.5h-26h-21h-3zM183 47v-2q13 -4 26 -7q-13 4 -26 9zM229 463q-5 6 -5 14q0 2 1 5q-1 2 -1 5q0 31 4 135q3 78 1 125h-147q-5 -58 -5 -175q0 -21 1.5 -85.5t1.5 -99.5q6 100 25 288
q1 12 10.5 19.5t21.5 6.5q7 -1 13 -4q7 5 17 4q12 -1 20 -10t7 -21q-5 -82 -3 -223q10 16 29 13l16 -3q-4 2 -7 6zM257 454q31 -5 46 -8l42 -8q26 -5 49 -11t44 -13q140 -44 190 -133q41 -72 18 -158q-40 -149 -215 -167q-107 -11 -250 29q-2 -10 -10 -16.5t-18 -6.5
q-12 0 -21 9q-7 -7 -17 -8q-12 -1 -21.5 6.5t-10.5 19.5q-5 59 -7 116q-1 -78 2 -140q18 -1 73.5 -7t80.5 -8t74 -5t79 0.5t70 9.5t72 20q31 14 60 34q44 31 63 81t14 108q-5 57 -31 108t-68 81q-29 21 -64 34q-36 14 -82 21t-75.5 9t-83.5 4q-9 1 -15 1z" />
    <glyph glyph-name="afii10047" unicode="&#x42d;" horiz-adv-x="750" 
d="M373 786q113 0 225 -70q85 -58 123 -178q29 -89 29 -176q0 -203 -138 -351q-47 -50 -169 -78q-70 -14 -121 -14q-152 0 -253 88q-56 64 -59 92v6q0 7 8 14l-1 1v4q0 15 40 40q76 65 90 66q19 -4 19 -17v-6l-3 -9q43 -54 149 -81q38 -8 67 -8q46 0 53 15q28 5 61 36
q28 34 37 81v1l-96 2h-129q-14 0 -20 7q-6 -9 -15 -9q-16 0 -20 21l-3 99l3 56q0 13 18 21l7 7l41 -1q92 0 148 4l82 -3q-5 40 -58 98q-42 33 -90 33t-123 -32h-5l-9 1l-11 -1h-3q-10 0 -45 56q-57 77 -65 106q0 13 15 22q0 7 26 11q103 46 195 46zM183 702q5 -16 37 -59
l21 13q-6 11 -6 17q0 31 88 41h34q112 0 200 -88q67 -77 85 -148q20 -63 20 -98l1 -1q11 -3 11 -11v-6q0 -32 15 -32l2 -1v-12q-5 -21 -24 -21h-5v-1q0 -51 -46 -148q-103 -164 -308 -164q-159 0 -210 105l-4 22v3q5 19 17 19v3l-10 15q-28 -19 -41 -34l-10 -6l3 -11l-2 -1
v-2q40 -80 134 -115q67 -23 140 -23q115 0 223 52q42 27 51 48q6 3 16 22q14 0 52 78q27 51 39 138l1 11q4 37 7 40q-4 68 -12 91q-21 114 -45 155q-50 91 -160 131q-68 23 -127 23q-78 0 -187 -45zM249 601l11 -16l25 4q59 26 114 26q41 0 78 -19h1v1q-57 33 -131 33
q-66 0 -98 -29zM304 406h-12l-2 1h-1v-11l-2 -13q103 -2 270 -9l-4 10l1 15v8l-51 2zM307 286l-18 2v-4l1 -2v-1l7 3l33 -2l246 -1l3 12q-158 -7 -272 -7zM205 116v-2l7 -2h1v1l-7 3h-1zM221 107v-1l7 -3h2v2l-7 2h-2zM156 87q42 -55 159 -55l35 1v2q-126 0 -192 52h-2z
M368 37v-1h5v1h-5zM355 36v-1h7v1h-7z" />
    <glyph glyph-name="afii10048" unicode="&#x42e;" horiz-adv-x="1148" 
d="M727 792h18q105 0 205 -54q2 -4 25 -17q66 -67 96 -143q62 -130 62 -244v-21q0 -91 -40 -181l-23 -34q-35 -47 -95 -92q-52 -35 -95 -54q-41 -18 -104 -31q-4 -9 -12 -9h-18q-151 0 -270 82q-54 46 -78 78q-43 61 -70 153q-6 27 -11 27l-63 -4v-18l4 -281q-3 -23 -16 -23
h-7q-5 0 -11 6h-5q0 3 -162 6q-9 0 -21 8q-13 8 -13 18l1 83l-1 20l1 20q-12 377 -12 542v95q0 42 10 42l14 16q7 6 54 6h95q57 0 57 -25q4 -1 8 -11l3 -167v-113l70 4q8 71 77 170q66 88 152 113q77 33 175 33zM352 440h-1l-120 -7q-6 0 -16 11v153l-3 145q-3 0 -12 8h-113
l-34 -2l-3 -13l-1 -76q5 -353 16 -659l-4 -9v-12l3 -3q156 -3 156 -6q-4 128 -4 290l1 2h2l1 -2h1v11q0 11 15 15l89 4l5 1v-1l2 1h1l1 -1l2 1h1q15 0 15 -10l20 -74q51 -143 162 -205q54 -33 154 -47q0 -2 37 -4q0 5 49 8q73 17 104 35q152 74 196 193q21 67 21 128v17
q0 150 -105 316q-31 40 -68 62q-89 44 -178 44h-15q-77 0 -149 -23q-92 -27 -155 -113q-48 -74 -63 -135q-5 0 -10 -43zM90 724q22 0 27 -37q-1 -8 -3 -8l3 -41h2v44l-1 7h1l-1 1q3 27 23 27h7q17 0 20 -27h-1l1 -1l-1 -7q0 -108 10 -280h1q153 24 222 24q28 130 89 190
q82 83 181 83h30q98 0 200 -62q30 -23 37 -48q53 -47 72 -89q38 -73 38 -151v-26q0 -97 -53 -196q-32 -48 -52 -48q-78 -62 -219 -62h-1q-97 0 -122 23q-110 39 -164 130q-43 82 -43 168h-2l-210 -28q15 -230 15 -266q0 -22 -28 -26l-4 1l2 -9v-10q-6 -21 -21 -21h-8
q-22 0 -24 53q-3 55 -23 278q-3 0 -3 6l1 22l-24 361q0 20 26 25zM575 622l10 -10q37 15 91 28q18 8 51 8v1l-45 3q-57 0 -107 -29v-1zM118 625v-9h1v9h-1zM498 391q14 -9 14 -19v-8q0 -9 -13 -20q0 -40 45 -106q60 -70 149 -70q85 0 158 60q63 65 63 138v19q0 47 -37 123
q-21 34 -35 34q-60 26 -130 26h-12q-133 0 -188 -119q-14 -40 -14 -58zM716 539h2l18 -1l12 1q62 -15 91 -52q35 -41 35 -92v-17q0 -59 -53 -118q-45 -39 -94 -39q-74 0 -134 84q-23 44 -23 87q0 107 112 144zM608 389q0 -79 85 -123q20 -7 36 -7q52 0 89 60q20 39 20 69
q0 46 -33 80q-4 0 -35 22q-30 11 -55 11q-72 0 -103 -75zM961 351v-5h3v1l-1 4h-2zM948 290q-36 -95 -117 -136q-70 -35 -139 -35q-128 0 -203 114h-1v-1q25 -65 98 -102q38 -18 96 -32l9 -8q72 0 174 53q85 50 85 136v2l-1 9h-1z" />
    </font>
</defs>
</svg>
