<?xml version="1.0" standalone="no"?>
<!DOCTYPE svg PUBLIC "-//W3C//DTD SVG 1.1//EN" "http://www.w3.org/Graphics/SVG/1.1/DTD/svg11.dtd" >
<svg xmlns="http://www.w3.org/2000/svg">
<metadata></metadata>
<defs>
<font id="LisichkaComic" horiz-adv-x="1199" >
<font-face units-per-em="2048" ascent="1638" descent="-410" />
<missing-glyph horiz-adv-x="1001" />
<glyph horiz-adv-x="2048" />
<glyph horiz-adv-x="2048" />
<glyph unicode="&#xd;" horiz-adv-x="569" />
<glyph unicode=" "  horiz-adv-x="1001" />
<glyph unicode="&#x09;" horiz-adv-x="1001" />
<glyph unicode="&#xa0;" horiz-adv-x="1001" />
<glyph unicode="!" horiz-adv-x="400" d="M53 128q67 -234 206 -27q-53 251 -206 27zM89 428q81 -69 161 -16l115 1342q-145 146 -272 39z" />
<glyph unicode="&#x22;" horiz-adv-x="600" d="M69 1789l45 -321q83 -101 137 3l-19 313q-115 75 -163 5zM352 1439q91 -98 130 -15l45 349q-95 83 -144 2z" />
<glyph unicode="#" d="M71 914l937 137q160 -14 35 -151l-962 -119q-66 59 -10 133zM149 1301l937 137q160 -14 35 -151l-962 -119q-66 59 -10 133zM238 565l214 1163q113 74 142 -29l-208 -1145q-117 -126 -148 11zM690 610l157 1149q81 132 164 19l-176 -1156q-65 -118 -145 -12z" />
<glyph unicode="$" horiz-adv-x="1200" d="M86 277q-62 105 10 112q142 -46 261 -74l46 562q-275 107 -272 352q-10 256 328 325l10 122q108 80 143 -21l-8 -80q54 4 113 5l14 148q46 75 115 1l-11 -150q159 -10 241 -101q57 -106 -66 -112q-56 90 -185 85l-40 -521q501 -169 259 -631q-84 -138 -319 -145l-8 -105 q-60 -120 -144 -18l12 129q-54 6 -115 17l-7 -77q-87 -148 -125 -14l10 116q-121 29 -262 75zM268 1213q-1 -122 147 -187l34 413q-193 -50 -181 -226zM481 290q61 -11 115 -16l50 542q-14 3 -28 5q-44 7 -84 17zM548 985q43 -9 94 -16l18 -4l46 491q-61 3 -113 2zM734 273 q178 16 215 136q138 272 -176 375z" />
<glyph unicode="%" d="M27 130l1016 1654q133 36 111 -92l-1004 -1671q-140 -40 -123 109zM28 1270q-23 132 2 234q41 150 270 204q247 13 335 -221q37 -116 -43 -287q-132 -157 -355 -126q-176 72 -209 196zM137 1458q-17 -54 5 -136q-4 -61 119 -132q133 -24 217 66q67 105 35 200 q-63 141 -201 131q-147 -15 -175 -129zM544 290q-23 132 2 234q41 150 270 204q247 13 335 -221q37 -116 -43 -287q-132 -157 -355 -126q-176 72 -209 196zM653 478q-17 -54 5 -136q-4 -61 119 -132q133 -24 217 66q67 105 35 200q-63 141 -201 131q-147 -15 -175 -129z" />
<glyph unicode="&#x26;" horiz-adv-x="1200" d="M61 216q-84 203 65 485q146 202 313 308q-175 218 -221 464q37 240 269 324q387 50 486 -328q64 -346 -343 -534l329 -469q43 52 85 112q89 43 91 -93q-49 -68 -100 -126l128 -183q19 -104 -122 -49l-95 138q-193 -188 -407 -255q-377 -75 -478 206zM176 254 q52 -174 337 -120q189 60 360 235l-349 505q-134 -51 -248 -215q-167 -253 -100 -405zM341 1474q26 -209 208 -402q358 142 305 403q-70 236 -322 217q-171 -41 -191 -218z" />
<glyph unicode="'" horiz-adv-x="401" d="M112 1420q90 -98 129 -15l46 349q-95 83 -145 2z" />
<glyph unicode="(" horiz-adv-x="599" d="M42 855q13 596 449 937q92 3 75 -87q-413 -355 -395 -840q-12 -533 308 -770q22 -117 -96 -83q-339 225 -341 843z" />
<glyph unicode=")" horiz-adv-x="599" d="M18 101q425 341 423 826q29 532 -283 780q-18 117 99 80q332 -237 313 -854q-33 -596 -480 -922q-92 0 -72 90z" />
<glyph unicode="*" horiz-adv-x="598" d="M109 1604q-44 -126 48 -121l56 21l-6 -65q91 -98 130 -15l6 44l43 -39q121 30 83 117l-44 38l62 23q28 122 -67 127l-45 -19l7 58q-95 83 -144 2l-3 -31l-23 20q-133 -18 -86 -98l41 -38z" />
<glyph unicode="+" d="M114 760q-61 64 1 133l416 27l61 534q108 82 144 -19l-57 -506l380 25q159 -27 24 -152l-420 -18l-57 -506q-108 -133 -148 1l57 498z" />
<glyph unicode="," horiz-adv-x="400" d="M109 -142q54 -120 133 -33l63 306q-91 148 -189 18z" />
<glyph unicode="-" horiz-adv-x="802" d="M71 914l570 38q160 -14 35 -151l-595 -20q-66 59 -10 133z" />
<glyph unicode="." horiz-adv-x="400" d="M53 128q67 -234 206 -27q-53 251 -206 27z" />
<glyph unicode="/" d="M27 130q-17 -149 123 -109l1005 1671q22 128 -111 92z" />
<glyph unicode="0" horiz-adv-x="1200" d="M72 436q64 -289 399 -422q461 -111 651 212q124 315 7 1087q-116 510 -579 466q-354 -85 -462 -671q-60 -359 -16 -672zM212 506q-49 252 3 550q62 493 356 583q343 64 435 -402q104 -715 -16 -905q-136 -283 -491 -177q-251 109 -287 351z" />
<glyph unicode="1" horiz-adv-x="1200" d="M542 1755l14 -1714q100 -107 160 12l-45 1693q-41 107 -129 9z" />
<glyph unicode="2" horiz-adv-x="1200" d="M68 1563q199 191 498 235q288 7 408 -195q113 -294 -407 -1173l-154 -308l638 82q135 -37 9 -154l-787 -77q-109 -27 -109 109l230 362q521 783 448 1091q-90 138 -280 104q-251 -42 -403 -230q-145 40 -91 154z" />
<glyph unicode="3" d="M142 125q363 -172 612 -97q680 413 88 963q403 581 -147 823q-325 34 -504 -256q-18 -147 112 -109q85 266 344 225q391 -176 131 -560q-66 -98 -403 -71q-74 -125 33 -150q243 43 376 -39q419 -402 -115 -704q-182 -67 -448 109q-136 3 -79 -134z" />
<glyph unicode="4" d="M97 770l25 932q41 137 148 11l-35 -859l701 111l-9 823q88 106 144 -12l42 -1732q-92 -113 -163 19l-6 774l-751 -102q-62 -12 -96 35z" />
<glyph unicode="5" d="M80 1694l44 -799q560 68 814 -174q176 -280 -60 -514q-472 -172 -684 122q-137 -31 -78 -137q291 -314 821 -123q389 333 103 769q-173 232 -788 219l-29 556q283 23 742 37q77 101 -6 149q-444 -21 -755 -58q-72 15 -124 -47z" />
<glyph unicode="6" horiz-adv-x="1200" d="M62 528q-46 792 809 1269q123 -5 104 -103q-622 -286 -784 -935q142 275 476 286q347 1 511 -364q68 -574 -355 -643q-235 -74 -514 20q-220 156 -247 470zM222 588q-21 -263 168 -391q184 -82 399 -21q290 45 246 465q-82 264 -365 253q-298 -39 -448 -306z" />
<glyph unicode="7" d="M105 1639l880 142q89 52 123 -58l-522 -1674q-73 -81 -144 28l485 1567l-815 -138q-60 59 -7 133z" />
<glyph unicode="8" horiz-adv-x="1200" d="M101 1366q65 -291 400 -468l-233 -220q-241 -316 -71 -553q251 -178 732 -94q227 96 115 531q-130 238 -303 344q290 222 369 481q41 261 -191 397q-333 45 -530 -39q-240 -89 -288 -379zM261 1374q7 172 189 247q143 82 433 50q153 -62 113 -258q-90 -251 -361 -430 q-317 156 -374 391zM317 204q-141 150 100 421l208 190q190 -95 304 -299q66 -294 -78 -367q-372 -39 -534 55z" />
<glyph unicode="9" horiz-adv-x="1200" d="M35 1222q35 577 463 569q245 31 503 -111q188 -193 159 -507q-10 -1022 -473 -1138q-496 -124 -572 187q4 131 126 72q59 -246 440 -99q271 111 310 773q-188 -244 -519 -196q-342 61 -437 450zM182 1236q34 -276 314 -315q301 -15 495 221q69 256 -95 415 q-166 114 -389 92q-293 8 -325 -413z" />
<glyph unicode=":" horiz-adv-x="400" d="M101 498q67 -235 206 -27q-53 251 -206 27zM134 1249q67 -235 206 -27q-53 251 -206 27z" />
<glyph unicode=";" horiz-adv-x="400" d="M108 1035q67 -235 206 -27q-53 251 -206 27zM109 -142q54 -120 133 -33l63 306q-91 148 -189 18z" />
<glyph unicode="&#x3c;" d="M139 882l740 541q150 64 113 -110l-675 -475l686 -461q110 -120 -66 -143l-737 502q-85 50 -61 146z" />
<glyph unicode="=" d="M67 722q-56 -69 10 -134l962 46q125 127 -35 154zM145 1103q-56 -69 10 -134l962 47q125 126 -35 153z" />
<glyph unicode="&#x3e;" d="M137 405l740 367l-608 560q-90 135 88 131l651 -608q76 -63 38 -154l-814 -422q-158 -40 -95 126z" />
<glyph unicode="?" horiz-adv-x="1200" d="M86 1245q22 472 466 531q662 99 548 -658q-416 -293 -423 -660q-101 -150 -165 4q27 417 407 710q118 522 -325 449q-381 -35 -336 -434q-131 -55 -172 58zM488 128q67 -234 206 -27q-53 251 -206 27z" />
<glyph unicode="@" horiz-adv-x="1798" d="M36 942q18 -678 467 -887q535 -128 829 12q63 159 -72 163q-236 -149 -716 -12q-313 173 -349 746q36 399 326 621q444 164 924 -95q172 -209 172 -770q-14 -295 -126 -303q-144 4 -214 262q-37 222 0 625q0 146 -168 50l-4 -82q-258 154 -548 9q-308 -357 -91 -782 q332 -268 730 -1q68 -186 285 -234q280 -1 285 442q10 606 -194 906q-516 308 -1078 145q-417 -208 -458 -815zM561 661q-109 241 68 471q223 135 476 -9q-5 -238 36 -476q-361 -253 -580 14z" />
<glyph unicode="A" d="M19 78l481 1680q47 66 97 66q49 0 102 -62l232 -867l43 -3q82 -2 82 -56q0 -38 -42 -103l-39 -3l184 -688q-42 -47 -82 -47q-41 0 -81 50l-158 671l-505 -49l-174 -633q-50 -42 -83 -42q-46 0 -57 86zM367 798l435 71l-207 813z" />
<glyph unicode="B" d="M20 1740l122 -1681q15 -44 62 -54q116 -14 233 -14q259 0 520 70q246 189 246 430q0 193 -158 421q-118 125 -324 172q154 135 153 293q0 160 -157 345q-190 79 -403 79q-83 0 -171 -12q-13 3 -25 3q-56 0 -98 -52zM164 1662q69 7 131 7q193 0 321 -66q104 -100 104 -204 q0 -88 -74 -178q-92 -114 -312 -113q-60 0 -130 8zM213 957q63 3 121 3q471 0 612 -167q105 -156 105 -295q0 -179 -174 -331q-208 -63 -400 -62q-96 0 -189 15z" />
<glyph unicode="C" d="M79 1267q-19 -132 -19 -272q0 -191 35 -399q151 -490 450 -608q54 -4 104 -4q356 0 503 224q-3 101 -87 101q-15 0 -32 -3q-110 -188 -343 -188q-58 0 -123 11q-240 122 -345 519q-30 172 -30 334q0 119 16 233q33 275 291 426q104 41 196 41q87 0 164 -37q76 26 76 71 q0 32 -38 75q-76 32 -174 32q-111 0 -252 -41q-342 -175 -392 -515z" />
<glyph unicode="D" d="M30 1684l80 -1554q8 -133 105 -137q84 -9 160 -9q534 0 710 453q61 199 61 386q0 401 -279 749q-354 237 -654 237q-33 0 -65 -3q-35 9 -60 9q-69 0 -69 -66q0 -27 11 -65zM152 1631q14 69 94 69q8 0 16 -1q18 1 36 1q231 0 501 -215q233 -338 233 -681q0 -164 -53 -329 q-185 -343 -556 -343q-58 0 -120 8q-57 8 -75 66z" />
<glyph unicode="E" d="M48 1654l70 -1628q28 -29 80 -29q22 0 48 5l857 80q19 45 19 74q0 52 -61 52h-3l-789 -95l-47 757l699 70q18 45 18 74q0 47 -47 52l-676 -77l-38 632l879 104q26 33 26 58q0 26 -30 42l-957 -112q-48 -12 -48 -59z" />
<glyph unicode="F" d="M77 1674l7 -1630q15 -61 56 -61q29 0 71 31l-10 918l836 -24q28 50 28 81q0 44 -57 50l-809 4l-13 594l902 68q28 34 28 58.5t-28 41.5l-960 -74q-49 -11 -51 -57z" />
<glyph unicode="G" d="M72 638q111 -501 400 -642q98 -16 184 -16q292 0 437 185q86 176 86 350q0 191 -103 379q-11 36 -155 36q-110 0 -298 -21q-37 -11 -37 -42.5t37 -83.5l342 14q81 -138 81 -277q0 -122 -63 -246l1 -1q-113 -161 -313 -161q-77 0 -166 23q-229 141 -302 545q-9 97 -9 190 q0 196 40 376q55 271 325 401q87 27 164 27q107 0 195 -52q82 21 82 70q0 31 -32 73q-92 48 -224 48q-91 0 -202 -23q-355 -147 -432 -482q-48 -212 -48 -450q0 -107 10 -220z" />
<glyph unicode="H" d="M51 1706q21 71 61 71q36 0 87 -60l76 -862l651 110l-49 823q42 50 76 50q38 0 68 -62l122 -1732q-42 -52 -80 -52q-44 0 -83 71l-46 774l-649 -93l62 -696q-22 -60 -67 -60q-32 0 -77 31z" />
<glyph unicode="I" d="M85 1732q-37 -46 -37 -81q0 -42 52 -71l384 29l109 -1452l-352 -49q-36 -25 -36 -53q0 -32 45 -68l842 100q32 43 32 74q0 43 -63 62l-325 -41l-125 1437l462 35q41 47 41 81q0 48 -82 71z" />
<glyph unicode="J" d="M21 515q-2 16 -2 30q0 88 70 88q25 0 59 -11q40 -330 410 -490q27 -2 52 -2q372 0 372 435q0 56 -6 120q-17 55 -111 1086q42 41 77 41q37 0 66 -43q73 -910 102 -1058q11 -90 11 -168q0 -548 -538 -548h-29q-434 159 -533 520z" />
<glyph unicode="K" d="M15 1732l100 -1721q46 -35 87.5 -35t78.5 35l-65 756q340 -62 739 -708q48 -51 84 -51q53 0 82 110q-413 593 -779 727q471 277 743 872q-1 84 -69 84q-31 0 -76 -17q-312 -704 -736 -878l-71 826q-39 34 -68.5 34t-49.5 -34z" />
<glyph unicode="L" d="M27 1724q42 50 76 50q38 0 68 -62l138 -1583l758 75q57 -18 57 -60q0 -31 -31 -76l-825 -67q-17 -9 -33 -9q-45 0 -83 71z" />
<glyph unicode="M" d="M33 37l82 1695q41 50 82 50l88 -57l259 -900l359 929q55 62 107 62q56 0 108 -73l30 -1692q-48 -50 -83 -50t-58 50l-11 1583l-400 -1016q-35 -30 -63 -30q-38 0 -63 56l-252 926l-45 -1533q-29 -48 -64 -48t-76 48z" />
<glyph unicode="N" d="M61 1656q21 71 61 71q36 0 87 -60l752 -1280l-84 1401q42 50 76 50q38 0 68 -62l122 -1732q-42 -52 -80 -52q-44 0 -83 71l-757 1349l124 -1364q-22 -60 -67 -60q-32 0 -77 31z" />
<glyph unicode="O" d="M77 226q142 -240 434 -240q100 0 218 28q334 133 398 422q19 132 19 273q0 192 -35 399q-158 582 -457 699q-35 3 -69 3q-311 0 -456 -253q-76 -378 -76 -819q0 -246 24 -512zM210 332q-23 230 -23 449q0 367 65 700q113 195 298 195q39 0 82 -9q240 -122 352 -611 q27 -155 27 -297q0 -132 -23 -253q-37 -242 -288 -351q-96 -29 -177 -28q-214 -1 -313 205z" />
<glyph unicode="P" d="M48 1728l67 -1684q42 -41 89 -41q50 0 107 45l-44 655q566 19 774 278q113 209 113 381q0 277 -296 455q-156 24 -308 24q-227 0 -446 -53q-46 -15 -56 -60zM200 1684q154 44 325 44q128 0 266 -25q212 -146 212 -352q0 -121 -74 -263q-137 -203 -670 -240z" />
<glyph unicode="Q" d="M72 1359q-19 -132 -19 -272q0 -192 35 -399q91 -564 353 -693q53 -5 102 -5q252 0 378 135l119 -136h7q111 0 111 79q0 13 -3 28l-155 151q130 284 130 646q0 312 -97 683q-142 236 -380 236q-85 0 -182 -30q-335 -134 -399 -423zM212 1289q36 242 287 352q84 35 157 35 q154 0 255 -158q90 -332 90 -612q0 -309 -110 -553l-184 180q-67 -21 -67 -63q0 -17 11 -37l175 -199q-85 -111 -245 -111q-55 0 -118 13q-203 133 -248 604q-27 153 -27 294q0 133 24 255z" />
<glyph unicode="R" d="M48 1728l67 -1684q42 -41 84 -41q45 0 92 45l-66 782q64 1 106 4q317 -307 596 -756q45 -56 90 -56q59 0 119 98q-334 459 -644 732q368 58 527 256q93 183 94 329q0 241 -255 380q-156 24 -308 24q-227 0 -446 -53q-46 -15 -56 -60zM180 1684q165 44 341 44 q132 0 270 -25q171 -108 171 -277q0 -96 -55 -211q-137 -203 -690 -240z" />
<glyph unicode="S" d="M82 1500q171 313 759 312q93 0 195 -7q39 -24 39 -55q0 -32 -41 -70q-47 1 -92 1q-644 0 -716 -284q-27 -64 -27 -121q0 -220 403 -340q480 -77 541 -474q4 -37 4 -72q0 -392 -581 -392q-27 0 -56 1q-233 33 -348 171q-24 51 -24 84q0 59 73 64q92 -144 303 -182 q54 -4 102 -4q396 0 395 275q0 14 -1 29q-51 304 -407 371q-562 157 -562 496q0 92 41 197z" />
<glyph unicode="T" d="M85 1732q-37 -46 -37 -81q0 -42 52 -71l407 31v-1l137 -1562q39 -52 83.5 -52t94.5 52l-188 1573l439 33q41 47 41 81q0 48 -82 71z" />
<glyph unicode="U" d="M163 1631v9q0 95 52 95q31 0 79 -33q-124 -632 -124 -1007q0 -513 232 -544q89 -19 165 -19q404 0 420 530q4 60 4 128q0 365 -117 963q41 35 75 35q39 0 68 -46q106 -606 106 -986q0 -39 -1 -75q-17 -689 -532 -689q-92 0 -200 22q-347 22 -347 658q0 374 120 959z" />
<glyph unicode="V" d="M30 1691q14 85 62 85q35 0 89 -47l484 -1517l324 1577q58 35 97 35q62 0 73 -91l-395 -1676q-47 -66 -97 -66q-49 0 -102 62z" />
<glyph unicode="W" d="M0 1628l307 -1621q23 -13 42 -13q28 0 47 28l145 584l178 -580q44 -37 78 -37q48 0 78 70l320 1655q-11 84 -65 84q-36 0 -90 -36l-251 -1541l-182 596q-38 39 -70 39q-36 0 -63 -50l-107 -440l-234 1277q-34 41 -65 41q-36 0 -68 -56z" />
<glyph unicode="X" d="M49 1611q-5 22 -5 39q0 58 53 59q30 0 77 -19l431 -722l395 805q35 14 60 14q60 0 60 -80v-15l-421 -880l416 -697q2 -12 2 -22q0 -72 -86 -73q-14 0 -29 2l-379 632l-298 -624q-36 -14 -62 -14q-73 0 -71 110l336 686z" />
<glyph unicode="Y" d="M55 1673q21 63 66 63q38 0 92 -43q121 -581 465 -867l373 974q32 14 56 14q44 0 56 -50l-635 -1748q-42 -21 -75 -21q-59 0 -83 72l254 622q-400 320 -569 984z" />
<glyph unicode="Z" d="M51 1725l1066 106h2q53 0 53 -50q0 -14 -4 -31l-880 -1613l689 67q43 -18 43 -54q0 -37 -47 -94l-785 -59q-16 -3 -29 -3q-56 0 -56 57q0 15 4 34l847 1602l-895 -110q-43 22 -43 61q0 36 35 87z" />
<glyph unicode="[" horiz-adv-x="802" d="M94 1609l109 -1492q-34 -52 51 -121l448 51q76 104 -31 136l-325 -41l-125 1477l462 35q98 114 -41 152l-530 -51q-81 -100 -18 -146z" />
<glyph unicode="\" d="M27 1675l1017 -1655q133 -36 111 93l-1005 1670q-140 40 -123 -108z" />
<glyph unicode="]" horiz-adv-x="802" d="M85 1732q-81 -100 15 -152l384 49l109 -1472l-352 -49q-76 -52 9 -121l466 59q76 104 20 136l-125 1457q57 112 -82 150z" />
<glyph unicode="^" d="M65 1144l443 587q51 85 146 60l464 -622q63 -151 -111 -112l-398 557l-402 -537q-121 -109 -142 67z" />
<glyph unicode="_" horiz-adv-x="1200" d="M0 0v-100h1200v100h-1200z" />
<glyph unicode="`" horiz-adv-x="399" d="M73 1727l139 -293q110 -71 130 44l-112 293q-132 37 -157 -44z" />
<glyph unicode="a" d="M19 78l481 1680q47 66 97 66q49 0 102 -62l232 -867l43 -3q82 -2 82 -56q0 -38 -42 -103l-39 -3l184 -688q-42 -47 -82 -47q-41 0 -81 50l-158 671l-505 -49l-174 -633q-50 -42 -83 -42q-46 0 -57 86zM367 798l435 71l-207 813z" />
<glyph unicode="b" d="M20 1740l122 -1681q15 -44 62 -54q116 -14 233 -14q259 0 520 70q246 189 246 430q0 193 -158 421q-118 125 -324 172q154 135 153 293q0 160 -157 345q-190 79 -403 79q-83 0 -171 -12q-13 3 -25 3q-56 0 -98 -52zM164 1662q69 7 131 7q193 0 321 -66q104 -100 104 -204 q0 -88 -74 -178q-92 -114 -312 -113q-60 0 -130 8zM213 957q63 3 121 3q471 0 612 -167q105 -156 105 -295q0 -179 -174 -331q-208 -63 -400 -62q-96 0 -189 15z" />
<glyph unicode="c" d="M79 1267q-19 -132 -19 -272q0 -191 35 -399q151 -490 450 -608q54 -4 104 -4q356 0 503 224q-3 101 -87 101q-15 0 -32 -3q-110 -188 -343 -188q-58 0 -123 11q-240 122 -345 519q-30 172 -30 334q0 119 16 233q33 275 291 426q104 41 196 41q87 0 164 -37q76 26 76 71 q0 32 -38 75q-76 32 -174 32q-111 0 -252 -41q-342 -175 -392 -515z" />
<glyph unicode="d" d="M30 1684l80 -1554q8 -133 105 -137q84 -9 160 -9q534 0 710 453q61 199 61 386q0 401 -279 749q-354 237 -654 237q-33 0 -65 -3q-35 9 -60 9q-69 0 -69 -66q0 -27 11 -65zM152 1631q14 69 94 69q8 0 16 -1q18 1 36 1q231 0 501 -215q233 -338 233 -681q0 -164 -53 -329 q-185 -343 -556 -343q-58 0 -120 8q-57 8 -75 66z" />
<glyph unicode="e" d="M48 1654l70 -1628q28 -29 80 -29q22 0 48 5l857 80q19 45 19 74q0 52 -61 52h-3l-789 -95l-47 757l699 70q18 45 18 74q0 47 -47 52l-676 -77l-38 632l879 104q26 33 26 58q0 26 -30 42l-957 -112q-48 -12 -48 -59z" />
<glyph unicode="f" d="M77 1674l7 -1630q15 -61 56 -61q29 0 71 31l-10 918l836 -24q28 50 28 81q0 44 -57 50l-809 4l-13 594l902 68q28 33 28 58t-28 42l-960 -74q-49 -11 -51 -57z" />
<glyph unicode="g" d="M72 638q111 -501 400 -642q98 -16 184 -16q292 0 437 185q86 176 86 350q0 191 -103 379q-11 36 -155 36q-110 0 -298 -21q-37 -11 -37 -42.5t37 -83.5l342 14q81 -138 81 -277q0 -122 -63 -246l1 -1q-113 -161 -313 -161q-77 0 -166 23q-229 141 -302 545q-9 97 -9 190 q0 196 40 376q55 271 325 401q87 27 164 27q107 0 195 -52q82 21 82 70q0 31 -32 73q-92 48 -224 48q-91 0 -202 -23q-355 -147 -432 -482q-48 -212 -48 -450q0 -107 10 -220z" />
<glyph unicode="h" horiz-adv-x="1203" d="M51 1706q21 71 61 71q36 0 87 -60l76 -862l651 110l-49 823q42 50 76 50q38 0 68 -62l122 -1732q-42 -52 -80 -52q-44 0 -83 71l-46 774l-649 -93l62 -696q-22 -60 -67 -60q-32 0 -77 31z" />
<glyph unicode="i" horiz-adv-x="400" d="M49 1747l136 -1709q48 -45 85 -45q45 0 74 68l-166 1686q-24 52 -56.5 52t-72.5 -52z" />
<glyph unicode="j" d="M43 515q-2 16 -2 30q0 88 70 88q25 0 59 -11q40 -330 410 -490q27 -2 52 -2q372 0 372 435q0 56 -6 120q-17 55 -111 1086q42 41 77 41q37 0 66 -43q73 -910 102 -1058q11 -90 11 -168q0 -548 -538 -548h-29q-434 159 -533 520z" />
<glyph unicode="k" d="M15 1732l100 -1721q46 -35 87.5 -35t78.5 35l-65 756q340 -62 739 -708q48 -51 84 -51q53 0 82 110q-413 593 -779 727q471 277 743 872q-1 84 -69 84q-31 0 -76 -17q-312 -704 -736 -878l-71 826q-39 34 -68.5 34t-49.5 -34z" />
<glyph unicode="l" d="M27 1724q42 50 76 50q38 0 68 -62l138 -1583l758 75q57 -18 57 -60q0 -31 -31 -76l-825 -67q-17 -9 -33 -9q-45 0 -83 71z" />
<glyph unicode="m" d="M33 37l82 1695q41 50 82 50l88 -57l259 -900l359 929q55 62 107 62q56 0 108 -73l30 -1692q-48 -50 -83 -50t-58 50l-11 1583l-400 -1016q-35 -30 -63 -30q-38 0 -63 56l-252 926l-45 -1533q-29 -48 -64 -48t-76 48z" />
<glyph unicode="n" d="M61 1656q21 71 61 71q36 0 87 -60l752 -1280l-84 1401q42 50 76 50q38 0 68 -62l122 -1732q-42 -52 -80 -52q-44 0 -83 71l-757 1349l124 -1364q-22 -60 -67 -60q-32 0 -77 31z" />
<glyph unicode="o" d="M77 226q142 -240 434 -240q100 0 218 28q334 133 398 422q19 132 19 273q0 192 -35 399q-158 582 -457 699q-35 3 -69 3q-311 0 -456 -253q-76 -378 -76 -819q0 -246 24 -512zM210 332q-23 230 -23 449q0 367 65 700q113 195 298 195q39 0 82 -9q240 -122 352 -611 q27 -155 27 -297q0 -132 -23 -253q-37 -242 -288 -351q-96 -29 -177 -28q-214 -1 -313 205z" />
<glyph unicode="p" d="M48 1728l67 -1684q42 -41 89 -41q50 0 107 45l-44 655q566 19 774 278q113 209 113 381q0 277 -296 455q-156 24 -308 24q-227 0 -446 -53q-46 -15 -56 -60zM200 1684q154 44 325 44q128 0 266 -25q212 -146 212 -352q0 -121 -74 -263q-137 -203 -670 -240z" />
<glyph unicode="q" d="M72 1359q-19 -132 -19 -272q0 -192 35 -399q91 -564 353 -693q53 -5 102 -5q252 0 378 135l119 -136h7q111 0 111 79q0 13 -3 28l-155 151q130 284 130 646q0 312 -97 683q-142 236 -380 236q-85 0 -182 -30q-335 -134 -399 -423zM212 1289q36 242 287 352q84 35 157 35 q154 0 255 -158q90 -332 90 -612q0 -309 -110 -553l-184 180q-67 -21 -67 -63q0 -17 11 -37l175 -199q-85 -111 -245 -111q-55 0 -118 13q-203 133 -248 604q-27 153 -27 294q0 133 24 255z" />
<glyph unicode="r" d="M48 1728l67 -1684q42 -41 84 -41q45 0 92 45l-66 782q64 1 106 4q317 -307 596 -756q45 -56 90 -56q59 0 119 98q-334 459 -644 732q368 58 527 256q93 183 94 329q0 241 -255 380q-156 24 -308 24q-227 0 -446 -53q-46 -15 -56 -60zM180 1684q165 44 341 44 q132 0 270 -25q171 -108 171 -277q0 -96 -55 -211q-137 -203 -690 -240z" />
<glyph unicode="s" d="M82 1500q171 313 759 312q93 0 195 -7q39 -24 39 -55q0 -32 -41 -70q-47 1 -92 1q-644 0 -716 -284q-27 -64 -27 -121q0 -220 403 -340q480 -77 541 -474q4 -37 4 -72q0 -392 -581 -392q-27 0 -56 1q-233 33 -348 171q-24 51 -24 84q0 59 73 64q92 -144 303 -182 q54 -4 102 -4q396 0 395 275q0 14 -1 29q-51 304 -407 371q-562 157 -562 496q0 92 41 197z" />
<glyph unicode="t" d="M85 1732q-37 -46 -37 -81q0 -42 52 -71l407 31v-1l137 -1562q39 -52 83.5 -52t94.5 52l-188 1573l439 33q41 47 41 81q0 48 -82 71z" />
<glyph unicode="u" d="M163 1631v9q0 95 52 95q31 0 79 -33q-124 -632 -124 -1007q0 -513 232 -544q89 -19 165 -19q404 0 420 530q4 60 4 128q0 365 -117 963q41 35 75 35q39 0 68 -46q106 -606 106 -986q0 -39 -1 -75q-17 -689 -532 -689q-92 0 -200 22q-347 22 -347 658q0 374 120 959z" />
<glyph unicode="v" d="M30 1691q14 85 62 85q35 0 89 -47l484 -1517l324 1577q58 35 97 35q62 0 73 -91l-395 -1676q-47 -66 -97 -66q-49 0 -102 62z" />
<glyph unicode="w" d="M0 1628l307 -1621q23 -13 42 -13q28 0 47 28l145 584l178 -580q44 -37 78 -37q48 0 78 70l320 1655q-11 84 -65 84q-36 0 -90 -36l-251 -1541l-182 596q-38 39 -70 39q-36 0 -63 -50l-107 -440l-234 1277q-34 41 -65 41q-36 0 -68 -56z" />
<glyph unicode="x" d="M49 1611q-5 22 -5 39q0 58 53 59q30 0 77 -19l431 -722l395 805q35 14 60 14q60 0 60 -80v-15l-421 -880l416 -697q2 -12 2 -22q0 -72 -86 -73q-14 0 -29 2l-379 632l-298 -624q-36 -14 -62 -14q-73 0 -71 110l336 686z" />
<glyph unicode="y" d="M55 1673q21 63 66 63q38 0 92 -43q121 -581 465 -867l373 974q32 14 56 14q44 0 56 -50l-635 -1748q-42 -21 -75 -21q-59 0 -83 72l254 622q-400 320 -569 984z" />
<glyph unicode="z" d="M51 1725l1066 106h2q53 0 53 -50q0 -14 -4 -31l-880 -1613l689 67q43 -18 43 -54q0 -37 -47 -94l-785 -59q-16 -3 -29 -3q-56 0 -56 57q0 15 4 34l847 1602l-895 -110q-43 22 -43 61q0 36 35 87z" />
<glyph unicode="{" horiz-adv-x="600" d="M0 811l168 -231l32 -549l285 -31q100 58 0 140l-169 27l-27 449l-142 199l127 204l42 566l232 81q86 91 -54 132l-299 -127l-51 -670z" />
<glyph unicode="|" horiz-adv-x="532" />
<glyph unicode="}" horiz-adv-x="600" d="M33 132q-86 -91 54 -132l299 127l51 670l144 190l-168 231l-32 549l-285 31q-100 -58 0 -140l169 -27l27 -449l142 -199l-127 -204l-42 -566z" />
<glyph unicode="~" d="M97 910q200 165 468 33q295 -119 469 33q160 -27 35 -153q-180 -147 -481 -24q-274 138 -481 -23q-66 65 -10 134z" />
<glyph unicode="&#xa1;" horiz-adv-x="682" />
<glyph unicode="&#xa4;" horiz-adv-x="1139" />
<glyph unicode="&#xa5;" d="M55 1673q38 116 158 20q121 -581 407 -861q293 210 427 951q98 57 116 -19q-125 -764 -463 -1057l24 -695q-121 -60 -158 51v632q-342 314 -511 978zM213 537l788 113q160 -14 35 -151l-813 -95q-66 59 -10 133zM304 284l610 90q160 -14 35 -151l-635 -72q-66 59 -10 133 z" />
<glyph unicode="&#xa6;" horiz-adv-x="532" />
<glyph unicode="&#xa7;" d="M17 234q-11 105 62 85q28 -113 152 -184q278 -124 355 87q52 209 -157 329q-407 286 -182 563q109 104 294 92q-220 240 -41 474q201 204 664 -11q39 -52 -27 -86q-456 184 -568 -8q-89 -183 139 -404q286 -164 241 -452q-51 -268 -318 -226q92 -120 65 -283 q-66 -326 -497 -163q-139 73 -182 187zM330 1003q-125 -143 75 -313q362 -207 441 47q31 208 -177 335q-260 58 -339 -69z" />
<glyph unicode="&#xa8;" horiz-adv-x="799" d="M106 1615q67 -235 206 -27q-53 251 -206 27zM510 1644q56 -220 206 -27q-90 225 -206 27z" />
<glyph unicode="&#xa9;" horiz-adv-x="1509" />
<glyph unicode="&#xab;" horiz-adv-x="1198" d="M78 818l489 378q150 64 113 -110l-424 -312l412 -271q110 -120 -66 -143l-463 312q-85 50 -61 146zM468 882l489 378q150 64 113 -110l-424 -312l412 -271q110 -120 -66 -143l-463 312q-85 50 -61 146z" />
<glyph unicode="&#xad;" horiz-adv-x="802" d="M71 914l570 38q160 -14 35 -151l-595 -20q-66 59 -10 133z" />
<glyph unicode="&#xae;" horiz-adv-x="1509" />
<glyph unicode="&#xaf;" horiz-adv-x="799" d="M90 1613q-61 64 1 133l565 47q159 -27 24 -152z" />
<glyph unicode="&#xb0;" horiz-adv-x="799" d="M77 1562q114 -714 663 -223q-50 771 -663 223zM178 1526q430 374 465 -152q-385 -335 -465 152z" />
<glyph unicode="&#xb1;" d="M114 160q-61 64 1 133l944 61q159 -27 24 -152zM124 909q-61 64 1 133l416 27l61 534q108 82 144 -19l-57 -506l380 25q159 -27 24 -152l-420 -18l-57 -506q-108 -133 -148 1l57 498z" />
<glyph unicode="&#xb4;" horiz-adv-x="399" d="M73 1478q20 -115 130 -44l139 293q-24 81 -157 44z" />
<glyph unicode="&#xb5;" horiz-adv-x="1180" />
<glyph unicode="&#xb7;" horiz-adv-x="400" d="M50 965q50 -296 290 -92q-22 320 -290 92z" />
<glyph unicode="&#xb8;" horiz-adv-x="682" />
<glyph unicode="&#xbb;" horiz-adv-x="1198" d="M165 467l424 313l-412 270q-110 120 66 143l463 -312q85 -50 61 -145l-489 -379q-150 -64 -113 110zM487 477l424 313l-412 270q-110 120 66 143l463 -312q85 -50 61 -145l-489 -379q-150 -64 -113 110z" />
<glyph unicode="&#xbf;" horiz-adv-x="1251" />
<glyph unicode="&#xc0;" d="M19 78l481 1680q92 129 199 4l232 -867l43 -3q140 -3 40 -159l-39 -3l184 -688q-85 -96 -163 3l-158 671l-505 -49l-174 -633q-122 -103 -140 44zM367 798l435 71l-207 813zM392 2192l139 -293q110 -71 130 44l-112 293q-132 37 -157 -44z" />
<glyph unicode="&#xc1;" d="M19 78l481 1680q92 129 199 4l232 -867l43 -3q140 -3 40 -159l-39 -3l184 -688q-85 -96 -163 3l-158 671l-505 -49l-174 -633q-122 -103 -140 44zM367 798l435 71l-207 813zM536 1974q20 -115 130 -44l139 293q-24 81 -157 44z" />
<glyph unicode="&#xc2;" d="M19 78l481 1680q92 129 199 4l232 -867l43 -3q140 -3 40 -159l-39 -3l184 -688q-85 -96 -163 3l-158 671l-505 -49l-174 -633q-122 -103 -140 44zM254 1872l267 296q51 85 146 60l301 -337q63 -151 -101 -82l-249 289l-222 -252q-121 -150 -142 26zM367 798l435 71 l-207 813z" />
<glyph unicode="&#xc3;" d="M19 78l481 1680q92 129 199 4l232 -867l43 -3q140 -3 40 -159l-39 -3l184 -688q-85 -96 -163 3l-158 671l-505 -49l-174 -633q-122 -103 -140 44zM234 2049q126 159 333 54q159 -100 333 35q160 -27 35 -153q-204 -130 -345 -26q-213 111 -346 -44q-66 65 -10 134z M367 798l435 71l-207 813z" />
<glyph unicode="&#xc4;" d="M19 78l481 1680q92 129 199 4l232 -867l43 -3q140 -3 40 -159l-39 -3l184 -688q-85 -96 -163 3l-158 671l-505 -49l-174 -633q-122 -103 -140 44zM291 1969q67 -235 206 -27q-53 251 -206 27zM367 798l435 71l-207 813zM695 1998q56 -220 206 -27q-90 225 -206 27z" />
<glyph unicode="&#xc5;" d="M19 78l481 1680q92 129 199 4l232 -867l43 -3q140 -3 40 -159l-39 -3l184 -688q-85 -96 -163 3l-158 671l-505 -49l-174 -633q-122 -103 -140 44zM367 798l435 71l-207 813zM371 2151q83 -491 485 -153q-37 530 -485 153zM445 2120q314 248 340 -101q-282 -223 -340 101z " />
<glyph unicode="&#xc6;" horiz-adv-x="1801" d="M19 78l481 1550q34 48 71 61q17 6 35 4l783 103q57 -31 14 -130l-686 -93l215 -736l556 45q76 -18 39 -156l-554 -36l166 -573l527 84q98 2 45 -126l-599 -71q-29 -14 -57 -5l-3 -1v2q-28 10 -56 45l-158 641l-505 -19l-174 -633q-122 -103 -140 44zM367 798l435 31 l-207 723z" />
<glyph unicode="&#xc7;" horiz-adv-x="1479" />
<glyph unicode="&#xc8;" d="M48 1654l70 -1628q39 -41 128 -24l857 80q53 128 -45 126l-789 -95l-47 757l699 70q47 118 -29 126l-676 -77l-38 632l879 104q53 69 -4 100l-957 -112q-48 -12 -48 -59zM387 2144l139 -293q110 -71 130 44l-112 293q-132 37 -157 -44z" />
<glyph unicode="&#xc9;" d="M48 1654l70 -1628q39 -41 128 -24l857 80q53 128 -45 126l-789 -95l-47 757l699 70q47 118 -29 126l-676 -77l-38 632l879 104q53 69 -4 100l-957 -112q-48 -12 -48 -59zM415 1875q20 -115 130 -44l139 293q-24 81 -157 44z" />
<glyph unicode="&#xca;" d="M48 1654l70 -1628q39 -41 128 -24l857 80q53 128 -45 126l-789 -95l-47 757l699 70q47 118 -29 126l-676 -77l-38 632l879 104q53 69 -4 100l-957 -112q-48 -12 -48 -59zM215 1947l267 296q51 85 146 60l301 -337q63 -151 -101 -82l-249 289l-222 -252q-121 -150 -142 26 z" />
<glyph unicode="&#xcb;" d="M48 1654l70 -1628q39 -41 128 -24l857 80q53 128 -45 126l-789 -95l-47 757l699 70q47 118 -29 126l-676 -77l-38 632l879 104q53 69 -4 100l-957 -112q-48 -12 -48 -59zM268 1979q67 -235 206 -27q-53 251 -206 27zM672 2008q56 -220 206 -27q-90 225 -206 27z" />
<glyph unicode="&#xcc;" d="M85 1732q-81 -100 15 -152l384 29l109 -1452l-352 -49q-76 -52 9 -121l842 100q76 104 -31 136l-325 -41l-125 1437l462 35q98 114 -41 152zM334 2148l139 -293q110 -71 130 44l-112 293q-132 37 -157 -44z" />
<glyph unicode="&#xcd;" d="M85 1732q-81 -100 15 -152l384 29l109 -1452l-352 -49q-76 -52 9 -121l842 100q76 104 -31 136l-325 -41l-125 1437l462 35q98 114 -41 152zM474 1913q20 -115 130 -44l139 293q-24 81 -157 44z" />
<glyph unicode="&#xce;" d="M85 1732q-81 -100 15 -152l384 29l109 -1452l-352 -49q-76 -52 9 -121l842 100q76 104 -31 136l-325 -41l-125 1437l462 35q98 114 -41 152zM198 1907l267 296q51 85 146 60l301 -337q63 -151 -101 -82l-249 289l-222 -252q-121 -150 -142 26z" />
<glyph unicode="&#xcf;" d="M85 1732q-81 -100 15 -152l384 29l109 -1452l-352 -49q-76 -52 9 -121l842 100q76 104 -31 136l-325 -41l-125 1437l462 35q98 114 -41 152zM225 1942q67 -235 206 -27q-53 251 -206 27zM629 1971q56 -220 206 -27q-90 225 -206 27z" />
<glyph unicode="&#xd0;" horiz-adv-x="1479" />
<glyph unicode="&#xd1;" d="M61 1656q41 137 148 11l752 -1280l-84 1401q88 106 144 -12l122 -1732q-92 -113 -163 19l-757 1349l124 -1364q-37 -103 -144 -29zM183 1992q126 159 333 54q159 -100 333 35q160 -27 35 -153q-204 -130 -345 -26q-213 111 -346 -44q-66 65 -10 134z" />
<glyph unicode="&#xd2;" d="M77 226q191 -323 652 -212q334 133 398 422q44 313 -16 672q-158 582 -457 699q-364 30 -525 -250q-118 -590 -52 -1331zM210 332q-62 616 42 1149q137 236 380 186q240 -122 352 -611q52 -298 4 -550q-37 -242 -288 -351q-354 -106 -490 177zM323 2266l139 -293 q110 -71 130 44l-112 293q-132 37 -157 -44z" />
<glyph unicode="&#xd3;" d="M77 226q191 -323 652 -212q334 133 398 422q44 313 -16 672q-158 582 -457 699q-364 30 -525 -250q-118 -590 -52 -1331zM210 332q-62 616 42 1149q137 236 380 186q240 -122 352 -611q52 -298 4 -550q-37 -242 -288 -351q-354 -106 -490 177zM490 1949q20 -115 130 -44 l139 293q-24 81 -157 44z" />
<glyph unicode="&#xd4;" d="M77 226q191 -323 652 -212q334 133 398 422q44 313 -16 672q-158 582 -457 699q-364 30 -525 -250q-118 -590 -52 -1331zM207 1928l267 296q51 85 146 60l301 -337q63 -151 -101 -82l-249 289l-222 -252q-121 -150 -142 26zM210 332q-62 616 42 1149q137 236 380 186 q240 -122 352 -611q52 -298 4 -550q-37 -242 -288 -351q-354 -106 -490 177z" />
<glyph unicode="&#xd5;" d="M77 226q191 -323 652 -212q334 133 398 422q44 313 -16 672q-158 582 -457 699q-364 30 -525 -250q-118 -590 -52 -1331zM193 2059q126 159 333 54q159 -100 333 35q160 -27 35 -153q-204 -130 -345 -26q-213 111 -346 -44q-66 65 -10 134zM210 332q-62 616 42 1149 q137 236 380 186q240 -122 352 -611q52 -298 4 -550q-37 -242 -288 -351q-354 -106 -490 177z" />
<glyph unicode="&#xd6;" d="M77 226q191 -323 652 -212q334 133 398 422q44 313 -16 672q-158 582 -457 699q-364 30 -525 -250q-118 -590 -52 -1331zM210 332q-62 616 42 1149q137 236 380 186q240 -122 352 -611q52 -298 4 -550q-37 -242 -288 -351q-354 -106 -490 177zM238 1980q67 -235 206 -27 q-53 251 -206 27zM642 2009q56 -220 206 -27q-90 225 -206 27z" />
<glyph unicode="&#xd7;" d="M217 587l290 279l-278 325q13 88 105 81l276 -308l306 295q89 -8 87 -100l-299 -300l262 -292q76 -141 -106 -113l-258 301l-266 -267q-137 -85 -119 99z" />
<glyph unicode="&#xd8;" d="M8 86q-17 -149 123 -109l1005 1671q22 128 -111 92zM77 226q191 -323 652 -212q334 133 398 422q44 313 -16 672q-158 582 -457 699q-364 30 -525 -250q-118 -590 -52 -1331zM210 332q-62 616 42 1149q137 236 380 186q240 -122 352 -611q52 -298 4 -550 q-37 -242 -288 -351q-354 -106 -490 177z" />
<glyph unicode="&#xd9;" d="M163 1631q-4 163 131 71q-293 -1498 108 -1551q566 -118 585 511q26 381 -113 1091q89 76 143 -11q117 -668 105 -1061q-20 -812 -732 -667q-550 35 -227 1617zM386 2117l139 -293q110 -71 130 44l-112 293q-132 37 -157 -44z" />
<glyph unicode="&#xda;" d="M163 1631q-4 163 131 71q-293 -1498 108 -1551q566 -118 585 511q26 381 -113 1091q89 76 143 -11q117 -668 105 -1061q-20 -812 -732 -667q-550 35 -227 1617zM503 1926q20 -115 130 -44l139 293q-24 81 -157 44z" />
<glyph unicode="&#xdb;" d="M163 1631q-4 163 131 71q-293 -1498 108 -1551q566 -118 585 511q26 381 -113 1091q89 76 143 -11q117 -668 105 -1061q-20 -812 -732 -667q-550 35 -227 1617zM249 1955l267 296q51 85 146 60l301 -337q63 -151 -101 -82l-249 289l-222 -252q-121 -150 -142 26z" />
<glyph unicode="&#xdc;" d="M163 1631q-4 163 131 71q-293 -1498 108 -1551q566 -118 585 511q26 381 -113 1091q89 76 143 -11q117 -668 105 -1061q-20 -812 -732 -667q-550 35 -227 1617zM288 1938q67 -235 206 -27q-53 251 -206 27zM692 1967q56 -220 206 -27q-90 225 -206 27z" />
<glyph unicode="&#xdd;" d="M55 1673q38 116 158 20q121 -581 465 -867l373 974q94 40 112 -36l-635 -1748q-121 -60 -158 51l254 622q-400 320 -569 984zM541 1895q20 -115 130 -44l139 293q-24 81 -157 44z" />
<glyph unicode="&#xde;" horiz-adv-x="1366" />
<glyph unicode="&#xdf;" d="M20 1470l122 -1411q69 -130 150 2l-114 1316q-35 147 49 232q216 108 389 -6q192 -185 30 -382q-105 -129 -304 -112q-44 -79 7 -159q449 17 597 -157q241 -357 -69 -596q-270 -71 -473 -48q-53 -103 14 -141q284 -7 539 83q443 310 88 821q-118 125 -324 172 q309 272 -4 638q-268 137 -574 0q-153 -87 -123 -252z" />
<glyph unicode="&#xe0;" d="M19 78l481 1680q92 129 199 4l232 -867l43 -3q140 -3 40 -159l-39 -3l184 -688q-85 -96 -163 3l-158 671l-505 -49l-174 -633q-122 -103 -140 44zM367 798l435 71l-207 813zM402 2171l139 -293q110 -71 130 44l-112 293q-132 37 -157 -44z" />
<glyph unicode="&#xe1;" d="M19 78l481 1680q92 129 199 4l232 -867l43 -3q140 -3 40 -159l-39 -3l184 -688q-85 -96 -163 3l-158 671l-505 -49l-174 -633q-122 -103 -140 44zM367 798l435 71l-207 813zM532 1928q20 -115 130 -44l139 293q-24 81 -157 44z" />
<glyph unicode="&#xe2;" d="M19 78l481 1680q92 129 199 4l232 -867l43 -3q140 -3 40 -159l-39 -3l184 -688q-85 -96 -163 3l-158 671l-505 -49l-174 -633q-122 -103 -140 44zM235 1814l267 296q51 85 146 60l301 -337q63 -151 -101 -82l-249 289l-222 -252q-121 -150 -142 26zM367 798l435 71 l-207 813z" />
<glyph unicode="&#xe3;" d="M19 78l481 1680q92 129 199 4l232 -867l43 -3q140 -3 40 -159l-39 -3l184 -688q-85 -96 -163 3l-158 671l-505 -49l-174 -633q-122 -103 -140 44zM232 2001q126 159 333 54q159 -100 333 35q160 -27 35 -153q-204 -130 -345 -26q-213 111 -346 -44q-66 65 -10 134z M367 798l435 71l-207 813z" />
<glyph unicode="&#xe4;" d="M19 78l481 1680q92 129 199 4l232 -867l43 -3q140 -3 40 -159l-39 -3l184 -688q-85 -96 -163 3l-158 671l-505 -49l-174 -633q-122 -103 -140 44zM293 1981q67 -235 206 -27q-53 251 -206 27zM367 798l435 71l-207 813zM697 2010q56 -220 206 -27q-90 225 -206 27z" />
<glyph unicode="&#xe5;" d="M19 78l481 1680q92 129 199 4l232 -867l43 -3q140 -3 40 -159l-39 -3l184 -688q-85 -96 -163 3l-158 671l-505 -49l-174 -633q-122 -103 -140 44zM367 798l435 71l-207 813zM375 2157q83 -491 485 -153q-37 530 -485 153zM449 2126q314 248 340 -101q-282 -223 -340 101z " />
<glyph unicode="&#xe6;" horiz-adv-x="1801" d="M19 78l481 1550q34 48 71 61q17 6 35 4l783 103q57 -31 14 -130l-686 -93l215 -736l556 45q76 -18 39 -156l-554 -36l166 -573l527 84q98 2 45 -126l-599 -71q-29 -14 -57 -5l-3 -1v2q-28 10 -56 45l-158 641l-505 -19l-174 -633q-122 -103 -140 44zM367 798l435 31 l-207 723z" />
<glyph unicode="&#xe7;" horiz-adv-x="1024" />
<glyph unicode="&#xe8;" d="M48 1654l70 -1628q39 -41 128 -24l857 80q53 128 -45 126l-789 -95l-47 757l699 70q47 118 -29 126l-676 -77l-38 632l879 104q53 69 -4 100l-957 -112q-48 -12 -48 -59zM401 2140l139 -293q110 -71 130 44l-112 293q-132 37 -157 -44z" />
<glyph unicode="&#xe9;" d="M48 1654l70 -1628q39 -41 128 -24l857 80q53 128 -45 126l-789 -95l-47 757l699 70q47 118 -29 126l-676 -77l-38 632l879 104q53 69 -4 100l-957 -112q-48 -12 -48 -59zM500 1901q20 -115 130 -44l139 293q-24 81 -157 44z" />
<glyph unicode="&#xea;" d="M48 1654l70 -1628q39 -41 128 -24l857 80q53 128 -45 126l-789 -95l-47 757l699 70q47 118 -29 126l-676 -77l-38 632l879 104q53 69 -4 100l-957 -112q-48 -12 -48 -59zM204 1940l267 296q51 85 146 60l301 -337q63 -151 -101 -82l-249 289l-222 -252q-121 -150 -142 26 z" />
<glyph unicode="&#xeb;" d="M48 1654l70 -1628q39 -41 128 -24l857 80q53 128 -45 126l-789 -95l-47 757l699 70q47 118 -29 126l-676 -77l-38 632l879 104q53 69 -4 100l-957 -112q-48 -12 -48 -59zM235 1953q67 -235 206 -27q-53 251 -206 27zM639 1982q56 -220 206 -27q-90 225 -206 27z" />
<glyph unicode="&#xec;" horiz-adv-x="399" d="M-87 2150l139 -293q110 -71 130 44l-112 293q-132 37 -157 -44zM49 1747l136 -1709q107 -100 159 23l-166 1686q-48 104 -129 0z" />
<glyph unicode="&#xed;" horiz-adv-x="399" d="M49 1747l136 -1709q107 -100 159 23l-166 1686q-48 104 -129 0zM52 1925q20 -115 130 -44l139 293q-24 81 -157 44z" />
<glyph unicode="&#xee;" horiz-adv-x="399" d="M-257 1916l267 296q51 85 146 60l301 -337q63 -151 -101 -82l-249 289l-222 -252q-121 -150 -142 26zM49 1747l136 -1709q107 -100 159 23l-166 1686q-48 104 -129 0z" />
<glyph unicode="&#xef;" horiz-adv-x="399" d="M-199 1930q67 -235 206 -27q-53 251 -206 27zM49 1747l136 -1709q107 -100 159 23l-166 1686q-48 104 -129 0zM205 1959q56 -220 206 -27q-90 225 -206 27z" />
<glyph unicode="&#xf0;" horiz-adv-x="1139" />
<glyph unicode="&#xf1;" d="M61 1656q41 137 148 11l752 -1280l-84 1401q88 106 144 -12l122 -1732q-92 -113 -163 19l-757 1349l124 -1364q-37 -103 -144 -29zM170 1971q126 159 333 54q159 -100 333 35q160 -27 35 -153q-204 -130 -345 -26q-213 111 -346 -44q-66 65 -10 134z" />
<glyph unicode="&#xf2;" d="M77 226q191 -323 652 -212q334 133 398 422q44 313 -16 672q-158 582 -457 699q-364 30 -525 -250q-118 -590 -52 -1331zM210 332q-62 616 42 1149q137 236 380 186q240 -122 352 -611q52 -298 4 -550q-37 -242 -288 -351q-354 -106 -490 177zM408 2218l139 -293 q110 -71 130 44l-112 293q-132 37 -157 -44z" />
<glyph unicode="&#xf3;" d="M77 226q191 -323 652 -212q334 133 398 422q44 313 -16 672q-158 582 -457 699q-364 30 -525 -250q-118 -590 -52 -1331zM210 332q-62 616 42 1149q137 236 380 186q240 -122 352 -611q52 -298 4 -550q-37 -242 -288 -351q-354 -106 -490 177zM479 1992q20 -115 130 -44 l139 293q-24 81 -157 44z" />
<glyph unicode="&#xf4;" d="M77 226q191 -323 652 -212q334 133 398 422q44 313 -16 672q-158 582 -457 699q-364 30 -525 -250q-118 -590 -52 -1331zM180 1903l267 296q51 85 146 60l301 -337q63 -151 -101 -82l-249 289l-222 -252q-121 -150 -142 26zM210 332q-62 616 42 1149q137 236 380 186 q240 -122 352 -611q52 -298 4 -550q-37 -242 -288 -351q-354 -106 -490 177z" />
<glyph unicode="&#xf5;" d="M77 226q191 -323 652 -212q334 133 398 422q44 313 -16 672q-158 582 -457 699q-364 30 -525 -250q-118 -590 -52 -1331zM174 2025q126 159 333 54q159 -100 333 35q160 -27 35 -153q-204 -130 -345 -26q-213 111 -346 -44q-66 65 -10 134zM210 332q-62 616 42 1149 q137 236 380 186q240 -122 352 -611q52 -298 4 -550q-37 -242 -288 -351q-354 -106 -490 177z" />
<glyph unicode="&#xf6;" d="M77 226q191 -323 652 -212q334 133 398 422q44 313 -16 672q-158 582 -457 699q-364 30 -525 -250q-118 -590 -52 -1331zM210 332q-62 616 42 1149q137 236 380 186q240 -122 352 -611q52 -298 4 -550q-37 -242 -288 -351q-354 -106 -490 177zM231 1980q67 -235 206 -27 q-53 251 -206 27zM635 2009q56 -220 206 -27q-90 225 -206 27z" />
<glyph unicode="&#xf7;" d="M114 760q-61 64 1 133l944 61q159 -27 24 -152zM505 494q67 -235 206 -27q-53 251 -206 27zM538 1245q67 -235 206 -27q-53 251 -206 27z" />
<glyph unicode="&#xf8;" horiz-adv-x="1198" d="M8 86q-17 -149 123 -109l1005 1671q22 128 -111 92zM77 226q191 -323 652 -212q334 133 398 422q44 313 -16 672q-158 582 -457 699q-364 30 -525 -250q-118 -590 -52 -1331zM210 332q-62 616 42 1149q137 236 380 186q240 -122 352 -611q52 -298 4 -550 q-37 -242 -288 -351q-354 -106 -490 177z" />
<glyph unicode="&#xf9;" d="M163 1631q-4 163 131 71q-293 -1498 108 -1551q566 -118 585 511q26 381 -113 1091q89 76 143 -11q117 -668 105 -1061q-20 -812 -732 -667q-550 35 -227 1617zM410 2059l139 -293q110 -71 130 44l-112 293q-132 37 -157 -44z" />
<glyph unicode="&#xfa;" d="M163 1631q-4 163 131 71q-293 -1498 108 -1551q566 -118 585 511q26 381 -113 1091q89 76 143 -11q117 -668 105 -1061q-20 -812 -732 -667q-550 35 -227 1617zM518 1790q20 -115 130 -44l139 293q-24 81 -157 44z" />
<glyph unicode="&#xfb;" d="M163 1631q-4 163 131 71q-293 -1498 108 -1551q566 -118 585 511q26 381 -113 1091q89 76 143 -11q117 -668 105 -1061q-20 -812 -732 -667q-550 35 -227 1617zM246 1940l267 296q51 85 146 60l301 -337q63 -151 -101 -82l-249 289l-222 -252q-121 -150 -142 26z" />
<glyph unicode="&#xfc;" d="M163 1631q-4 163 131 71q-293 -1498 108 -1551q566 -118 585 511q26 381 -113 1091q89 76 143 -11q117 -668 105 -1061q-20 -812 -732 -667q-550 35 -227 1617zM304 1970q67 -235 206 -27q-53 251 -206 27zM708 1999q56 -220 206 -27q-90 225 -206 27z" />
<glyph unicode="&#xfd;" d="M55 1673q38 116 158 20q121 -581 465 -867l373 974q94 40 112 -36l-635 -1748q-121 -60 -158 51l254 622q-400 320 -569 984zM505 1864q20 -115 130 -44l139 293q-24 81 -157 44z" />
<glyph unicode="&#xfe;" horiz-adv-x="1139" />
<glyph unicode="&#xff;" d="M55 1673q38 116 158 20q121 -581 465 -867l373 974q94 40 112 -36l-635 -1748q-121 -60 -158 51l254 622q-400 320 -569 984zM282 1929q67 -235 206 -27q-53 251 -206 27zM686 1958q56 -220 206 -27q-90 225 -206 27z" />
<glyph unicode="&#x152;" horiz-adv-x="1801" d="M97 246q171 -343 876 -255l-1 3q4 1 7 1l737 50q53 128 -45 156l-669 -65l-47 727l579 40q47 118 -29 126l-556 -47l-38 602l759 54q53 99 -4 130l-779 -54q-597 -17 -758 -417q-118 -480 -32 -1051zM210 332q-62 466 42 889q125 325 532 351l63 -1451q-512 -48 -637 211 z" />
<glyph unicode="&#x153;" horiz-adv-x="1801" d="M97 246q171 -343 876 -255l-1 3q4 1 7 1l737 50q53 128 -45 156l-669 -65l-47 727l579 40q47 118 -29 126l-556 -47l-38 602l759 54q53 99 -4 130l-779 -54q-597 -17 -758 -417q-118 -480 -32 -1051zM210 332q-62 466 42 889q125 325 532 351l63 -1451q-512 -48 -637 211 z" />
<glyph unicode="&#x178;" d="M55 1673q38 116 158 20q121 -581 465 -867l373 974q94 40 112 -36l-635 -1748q-121 -60 -158 51l254 622q-400 320 -569 984zM292 1965q67 -235 206 -27q-53 251 -206 27zM696 1994q56 -220 206 -27q-90 225 -206 27z" />
<glyph unicode="&#x2c6;" horiz-adv-x="799" d="M41 1432l267 296q51 85 146 60l301 -337q63 -151 -101 -82l-249 289l-222 -252q-121 -150 -142 26z" />
<glyph unicode="&#x2dc;" horiz-adv-x="799" d="M35 1693q126 159 333 54q159 -100 333 35q160 -27 35 -153q-204 -130 -345 -26q-213 111 -346 -44q-66 65 -10 134z" />
<glyph unicode="&#x2000;" horiz-adv-x="1160" />
<glyph unicode="&#x2001;" horiz-adv-x="2321" />
<glyph unicode="&#x2002;" horiz-adv-x="1160" />
<glyph unicode="&#x2003;" horiz-adv-x="2321" />
<glyph unicode="&#x2004;" horiz-adv-x="773" />
<glyph unicode="&#x2005;" horiz-adv-x="580" />
<glyph unicode="&#x2006;" horiz-adv-x="386" />
<glyph unicode="&#x2007;" horiz-adv-x="386" />
<glyph unicode="&#x2008;" horiz-adv-x="290" />
<glyph unicode="&#x2009;" horiz-adv-x="464" />
<glyph unicode="&#x200a;" horiz-adv-x="128" />
<glyph unicode="&#x2010;" horiz-adv-x="802" d="M71 914l570 38q160 -14 35 -151l-595 -20q-66 59 -10 133z" />
<glyph unicode="&#x2011;" horiz-adv-x="802" d="M71 914l570 38q160 -14 35 -151l-595 -20q-66 59 -10 133z" />
<glyph unicode="&#x2012;" horiz-adv-x="802" d="M71 914l570 38q160 -14 35 -151l-595 -20q-66 59 -10 133z" />
<glyph unicode="&#x2013;" horiz-adv-x="1399" d="M114 760q-61 64 1 133l1112 61q159 -27 24 -152z" />
<glyph unicode="&#x2014;" horiz-adv-x="1798" d="M114 760q-61 64 1 133l1543 65q159 -27 24 -152z" />
<glyph unicode="&#x2018;" horiz-adv-x="455" />
<glyph unicode="&#x2019;" horiz-adv-x="455" />
<glyph unicode="&#x201a;" horiz-adv-x="455" />
<glyph unicode="&#x201c;" horiz-adv-x="682" />
<glyph unicode="&#x201d;" horiz-adv-x="682" />
<glyph unicode="&#x201e;" horiz-adv-x="682" />
<glyph unicode="&#x2022;" horiz-adv-x="799" d="M67 1027q114 -714 663 -223q-50 771 -663 223z" />
<glyph unicode="&#x2026;" horiz-adv-x="1198" d="M107 118q67 -234 206 -27q-53 251 -206 27zM468 118q67 -234 206 -27q-53 251 -206 27zM841 125q67 -234 206 -27q-53 251 -206 27z" />
<glyph unicode="&#x202f;" horiz-adv-x="464" />
<glyph unicode="&#x2039;" d="M268 882l489 378q150 64 113 -110l-424 -312l412 -271q110 -120 -66 -143l-463 312q-85 50 -61 146z" />
<glyph unicode="&#x203a;" d="M293 551l424 313l-412 270q-110 120 66 143l463 -312q85 -50 61 -145l-489 -379q-150 -64 -113 110z" />
<glyph unicode="&#x205f;" horiz-adv-x="580" />
<glyph unicode="&#x2122;" horiz-adv-x="1198" d="M67 1062q-34 -38 6 -58l173 12v0l59 -586q33 -39 75 0l-80 590l187 12q42 43 -17 57zM262 428l35 636q36 38 72 -3l110 -338l153 349q49 48 91 -4l13 -635q-41 -37 -60 0l-5 594l-170 -381q-35 -27 -53 10l-107 347l-19 -575q-25 -36 -60 0z" />
<glyph unicode="&#x25fc;" horiz-adv-x="1785" d="M0 0v1785h1785v-1785h-1785z" />
</font>
</defs>
</svg>
