<svg xmlns="http://www.w3.org/2000/svg"><defs><font id="main" horiz-adv-x="1199"><font-face units-per-em="2048" ascent="1638" descent="-410"/><glyph horiz-adv-x="2048"/><glyph horiz-adv-x="2048"/><glyph horiz-adv-x="569"/><glyph horiz-adv-x="1001"/><glyph horiz-adv-x="1001"/><glyph horiz-adv-x="1001"/><glyph unicode="!" horiz-adv-x="400" d="M53 128q67-234 206-27-53 251-206 27zm36 300q81-69 161-16l115 1342q-145 146-272 39z"/><glyph unicode="&quot;" horiz-adv-x="600" d="M69 1789l45-321q83-101 137 3l-19 313q-115 75-163 5zm283-350q91-98 130-15l45 349q-95 83-144 2z"/><glyph unicode="#" d="M71 914l937 137q160-14 35-151L81 781q-66 59-10 133zm78 387l937 137q160-14 35-151l-962-119q-66 59-10 133zm89-736l214 1163q113 74 142-29L386 554q-117-126-148 11zm452 45l157 1149q81 132 164 19L835 622q-65-118-145-12z"/><glyph unicode="$" horiz-adv-x="1200" d="M86 277Q24 382 96 389q142-46 261-74l46 562q-275 107-272 352-10 256 328 325l10 122q108 80 143-21l-8-80q54 4 113 5l14 148q46 75 115 1l-11-150q159-10 241-101 57-106-66-112-56 90-185 85l-40-521q501-169 259-631-84-138-319-145l-8-105Q657-71 573 31l12 129q-54 6-115 17l-7-77Q376-48 338 86l10 116q-121 29-262 75zm182 936q-1-122 147-187l34 413q-193-50-181-226zm213-923q61-11 115-16l50 542q-14 3-28 5-44 7-84 17zm67 695q43-9 94-16l18-4 46 491q-61 3-113 2zm186-712q178 16 215 136 138 272-176 375z"/><glyph unicode="%" d="M27 130l1016 1654q133 36 111-92L150 21Q10-19 27 130zm1 1140q-23 132 2 234 41 150 270 204 247 13 335-221 37-116-43-287-132-157-355-126-176 72-209 196zm109 188q-17-54 5-136-4-61 119-132 133-24 217 66 67 105 35 200-63 141-201 131-147-15-175-129zM544 290q-23 132 2 234 41 150 270 204 247 13 335-221 37-116-43-287Q976 63 753 94q-176 72-209 196zm109 188q-17-54 5-136-4-61 119-132 133-24 217 66 67 105 35 200-63 141-201 131-147-15-175-129z"/><glyph unicode="&amp;" horiz-adv-x="1200" d="M61 216q-84 203 65 485 146 202 313 308-175 218-221 464 37 240 269 324 387 50 486-328 64-346-343-534l329-469q43 52 85 112 89 43 91-93-49-68-100-126l128-183q19-104-122-49l-95 138Q753 77 539 10 162-65 61 216zm115 38q52-174 337-120 189 60 360 235L524 874q-134-51-248-215-167-253-100-405zm165 1220q26-209 208-402 358 142 305 403-70 236-322 217-171-41-191-218z"/><glyph unicode="'" horiz-adv-x="401" d="M112 1420q90-98 129-15l46 349q-95 83-145 2z"/><glyph unicode="(" horiz-adv-x="599" d="M42 855q13 596 449 937 92 3 75-87-413-355-395-840-12-533 308-770 22-117-96-83Q44 237 42 855z"/><glyph unicode=")" horiz-adv-x="599" d="M18 101q425 341 423 826 29 532-283 780-18 117 99 80 332-237 313-854Q537 337 90 11q-92 0-72 90z"/><glyph unicode="*" horiz-adv-x="598" d="M109 1604q-44-126 48-121l56 21-6-65q91-98 130-15l6 44 43-39q121 30 83 117l-44 38 62 23q28 122-67 127l-45-19 7 58q-95 83-144 2l-3-31-23 20q-133-18-86-98l41-38z"/><glyph unicode="+" d="M114 760q-61 64 1 133l416 27 61 534q108 82 144-19l-57-506 380 25q159-27 24-152l-420-18-57-506q-108-133-148 1l57 498z"/><glyph unicode="," horiz-adv-x="400" d="M109-142q54-120 133-33l63 306q-91 148-189 18z"/><glyph unicode="-" horiz-adv-x="802" d="M71 914l570 38q160-14 35-151L81 781q-66 59-10 133z"/><glyph unicode="." horiz-adv-x="400" d="M53 128q67-234 206-27-53 251-206 27z"/><glyph unicode="/" d="M27 130Q10-19 150 21l1005 1671q22 128-111 92z"/><glyph unicode="0" horiz-adv-x="1200" d="M72 436q64-289 399-422 461-111 651 212 124 315 7 1087-116 510-579 466-354-85-462-671-60-359-16-672zm140 70q-49 252 3 550 62 493 356 583 343 64 435-402 104-715-16-905Q854 49 499 155 248 264 212 506z"/><glyph unicode="1" horiz-adv-x="1200" d="M542 1755L556 41Q656-66 716 53l-45 1693q-41 107-129 9z"/><glyph unicode="2" horiz-adv-x="1200" d="M68 1563q199 191 498 235 288 7 408-195 113-294-407-1173L413 122l638 82q135-37 9-154L273-27Q164-54 164 82l230 362q521 783 448 1091-90 138-280 104-251-42-403-230-145 40-91 154z"/><glyph unicode="3" d="M142 125Q505-47 754 28q680 413 88 963 403 581-147 823-325 34-504-256-18-147 112-109 85 266 344 225 391-176 131-560-66-98-403-71-74-125 33-150 243 43 376-39 419-402-115-704-182-67-448 109-136 3-79-134z"/><glyph unicode="4" d="M97 770l25 932q41 137 148 11l-35-859 701 111-9 823q88 106 144-12l42-1732q-92-113-163 19l-6 774-751-102q-62-12-96 35z"/><glyph unicode="5" d="M80 1694l44-799q560 68 814-174 176-280-60-514Q406 35 194 329q-137-31-78-137Q407-122 937 69q389 333 103 769-173 232-788 219l-29 556q283 23 742 37 77 101-6 149-444-21-755-58-72 15-124-47z"/><glyph unicode="6" horiz-adv-x="1200" d="M62 528q-46 792 809 1269 123-5 104-103-622-286-784-935 142 275 476 286 347 1 511-364 68-574-355-643-235-74-514 20Q89 214 62 528zm160 60q-21-263 168-391 184-82 399-21 290 45 246 465-82 264-365 253-298-39-448-306z"/><glyph unicode="7" d="M105 1639l880 142q89 52 123-58L586 49q-73-81-144 28l485 1567-815-138q-60 59-7 133z"/><glyph unicode="8" horiz-adv-x="1200" d="M101 1366q65-291 400-468L268 678Q27 362 197 125 448-53 929 31q227 96 115 531-130 238-303 344 290 222 369 481 41 261-191 397-333 45-530-39-240-89-288-379zm160 8q7 172 189 247 143 82 433 50 153-62 113-258-90-251-361-430-317 156-374 391zm56-1170Q176 354 417 625l208 190q190-95 304-299 66-294-78-367-372-39-534 55z"/><glyph unicode="9" horiz-adv-x="1200" d="M35 1222q35 577 463 569 245 31 503-111 188-193 159-507Q1150 151 687 35 191-89 115 222q4 131 126 72 59-246 440-99 271 111 310 773-188-244-519-196-342 61-437 450zm147 14q34-276 314-315 301-15 495 221 69 256-95 415-166 114-389 92-293 8-325-413z"/><glyph unicode=":" horiz-adv-x="400" d="M101 498q67-235 206-27-53 251-206 27zm33 751q67-235 206-27-53 251-206 27z"/><glyph unicode=";" horiz-adv-x="400" d="M108 1035q67-235 206-27-53 251-206 27zm1-1177q54-120 133-33l63 306q-91 148-189 18z"/><glyph unicode="&lt;" d="M139 882l740 541q150 64 113-110L317 838l686-461q110-120-66-143L200 736q-85 50-61 146z"/><glyph unicode="=" d="M67 722q-56-69 10-134l962 46q125 127-35 154zm78 381q-56-69 10-134l962 47q125 126-35 153z"/><glyph unicode="&gt;" d="M137 405l740 367-608 560q-90 135 88 131l651-608q76-63 38-154L232 279q-158-40-95 126z"/><glyph unicode="?" horiz-adv-x="1200" d="M86 1245q22 472 466 531 662 99 548-658-416-293-423-660-101-150-165 4 27 417 407 710 118 522-325 449-381-35-336-434-131-55-172 58zM488 128q67-234 206-27-53 251-206 27z"/><glyph unicode="@" horiz-adv-x="1798" d="M36 942Q54 264 503 55q535-128 829 12 63 159-72 163-236-149-716-12-313 173-349 746 36 399 326 621 444 164 924-95 172-209 172-770-14-295-126-303-144 4-214 262-37 222 0 625 0 146-168 50l-4-82q-258 154-548 9-308-357-91-782 332-268 730-1 68-186 285-234 280-1 285 442 10 606-194 906-516 308-1078 145Q77 1549 36 942zm525-281q-109 241 68 471 223 135 476-9-5-238 36-476-361-253-580 14z"/><glyph unicode="A" d="M19 78l481 1680q47 66 97 66 49 0 102-62l232-867 43-3q82-2 82-56 0-38-42-103l-39-3 184-688q-42-47-82-47-41 0-81 50L838 716l-505-49L159 34Q109-8 76-8 30-8 19 78zm348 720l435 71-207 813z"/><glyph unicode="B" d="M20 1740L142 59q15-44 62-54Q320-9 437-9q259 0 520 70 246 189 246 430 0 193-158 421-118 125-324 172 154 135 153 293 0 160-157 345-190 79-403 79-83 0-171-12-13 3-25 3-56 0-98-52zm144-78q69 7 131 7 193 0 321-66 104-100 104-204 0-88-74-178-92-114-312-113-60 0-130 8zm49-705q63 3 121 3 471 0 612-167 105-156 105-295 0-179-174-331-208-63-400-62-96 0-189 15z"/><glyph unicode="C" d="M79 1267q-19-132-19-272 0-191 35-399Q246 106 545-12q54-4 104-4 356 0 503 224-3 101-87 101-15 0-32-3-110-188-343-188-58 0-123 11-240 122-345 519-30 172-30 334 0 119 16 233 33 275 291 426 104 41 196 41 87 0 164-37 76 26 76 71 0 32-38 75-76 32-174 32-111 0-252-41-342-175-392-515z"/><glyph unicode="D" d="M30 1684l80-1554Q118-3 215-7q84-9 160-9 534 0 710 453 61 199 61 386 0 401-279 749-354 237-654 237-33 0-65-3-35 9-60 9-69 0-69-66 0-27 11-65zm122-53q14 69 94 69 8 0 16-1 18 1 36 1 231 0 501-215 233-338 233-681 0-164-53-329-185-343-556-343-58 0-120 8-57 8-75 66z"/><glyph unicode="E" d="M48 1654L118 26q28-29 80-29 22 0 48 5l857 80q19 45 19 74 0 52-61 52h-3l-789-95-47 757 699 70q18 45 18 74 0 47-47 52l-676-77-38 632 879 104q26 33 26 58 0 26-30 42L96 1713q-48-12-48-59z"/><glyph unicode="F" d="M77 1674L84 44q15-61 56-61 29 0 71 31l-10 918 836-24q28 50 28 81 0 44-57 50l-809 4-13 594 902 68q28 34 28 58.5t-28 41.5l-960-74q-49-11-51-57z"/><glyph unicode="G" d="M72 638Q183 137 472-4q98-16 184-16 292 0 437 185 86 176 86 350 0 191-103 379-11 36-155 36-110 0-298-21-37-11-37-42.5t37-83.5l342 14q81-138 81-277 0-122-63-246l1-1Q871 112 671 112q-77 0-166 23-229 141-302 545-9 97-9 190 0 196 40 376 55 271 325 401 87 27 164 27 107 0 195-52 82 21 82 70 0 31-32 73-92 48-224 48-91 0-202-23-355-147-432-482-48-212-48-450 0-107 10-220z"/><glyph unicode="H" d="M51 1706q21 71 61 71 36 0 87-60l76-862 651 110-49 823q42 50 76 50 38 0 68-62L1143 44q-42-52-80-52-44 0-83 71l-46 774-649-93 62-696q-22-60-67-60-32 0-77 31z"/><glyph unicode="I" d="M85 1732q-37-46-37-81 0-42 52-71l384 29L593 157l-352-49q-36-25-36-53 0-32 45-68l842 100q32 43 32 74 0 43-63 62l-325-41-125 1437 462 35q41 47 41 81 0 48-82 71z"/><glyph unicode="J" d="M21 515q-2 16-2 30 0 88 70 88 25 0 59-11 40-330 410-490 27-2 52-2 372 0 372 435 0 56-6 120-17 55-111 1086 42 41 77 41 37 0 66-43 73-910 102-1058 11-90 11-168Q1121-5 583-5h-29Q120 154 21 515z"/><glyph unicode="K" d="M15 1732L115 11q46-35 87.5-35T281 11l-65 756q340-62 739-708 48-51 84-51 53 0 82 110-413 593-779 727 471 277 743 872-1 84-69 84-31 0-76-17-312-704-736-878l-71 826q-39 34-68.5 34T15 1732z"/><glyph unicode="L" d="M27 1724q42 50 76 50 38 0 68-62L309 129l758 75q57-18 57-60 0-31-31-76L268 1q-17-9-33-9-45 0-83 71z"/><glyph unicode="M" d="M33 37l82 1695q41 50 82 50l88-57 259-900 359 929q55 62 107 62 56 0 108-73l30-1692q-48-50-83-50t-58 50l-11 1583L596 618q-35-30-63-30-38 0-63 56l-252 926L173 37q-29-48-64-48T33 37z"/><glyph unicode="N" d="M61 1656q21 71 61 71 36 0 87-60L961 387l-84 1401q42 50 76 50 38 0 68-62L1143 44q-42-52-80-52-44 0-83 71L223 1412 347 48q-22-60-67-60-32 0-77 31z"/><glyph unicode="O" d="M77 226Q219-14 511-14q100 0 218 28 334 133 398 422 19 132 19 273 0 192-35 399-158 582-457 699-35 3-69 3-311 0-456-253-76-378-76-819 0-246 24-512zm133 106q-23 230-23 449 0 367 65 700 113 195 298 195 39 0 82-9 240-122 352-611 27-155 27-297 0-132-23-253-37-242-288-351-96-29-177-28-214-1-313 205z"/><glyph unicode="P" d="M48 1728L115 44q42-41 89-41 50 0 107 45l-44 655q566 19 774 278 113 209 113 381 0 277-296 455-156 24-308 24-227 0-446-53-46-15-56-60zm152-44q154 44 325 44 128 0 266-25 212-146 212-352 0-121-74-263-137-203-670-240z"/><glyph unicode="Q" d="M72 1359q-19-132-19-272 0-192 35-399Q179 124 441-5q53-5 102-5 252 0 378 135l119-136h7q111 0 111 79 0 13-3 28l-155 151q130 284 130 646 0 312-97 683-142 236-380 236-85 0-182-30-335-134-399-423zm140-70q36 242 287 352 84 35 157 35 154 0 255-158 90-332 90-612 0-309-110-553L707 533q-67-21-67-63 0-17 11-37l175-199q-85-111-245-111-55 0-118 13-203 133-248 604-27 153-27 294 0 133 24 255z"/><glyph unicode="R" d="M48 1728L115 44q42-41 84-41 45 0 92 45l-66 782q64 1 106 4Q648 527 927 78q45-56 90-56 59 0 119 98-334 459-644 732 368 58 527 256 93 183 94 329 0 241-255 380-156 24-308 24-227 0-446-53-46-15-56-60zm132-44q165 44 341 44 132 0 270-25 171-108 171-277 0-96-55-211-137-203-690-240z"/><glyph unicode="S" d="M82 1500q171 313 759 312 93 0 195-7 39-24 39-55 0-32-41-70-47 1-92 1-644 0-716-284-27-64-27-121 0-220 403-340 480-77 541-474 4-37 4-72Q1147-2 566-2q-27 0-56 1-233 33-348 171-24 51-24 84 0 59 73 64 92-144 303-182 54-4 102-4 396 0 395 275 0 14-1 29-51 304-407 371Q41 964 41 1303q0 92 41 197z"/><glyph unicode="T" d="M85 1732q-37-46-37-81 0-42 52-71l407 31v-1L644 48q39-52 83.5-52T822 48L634 1621l439 33q41 47 41 81 0 48-82 71z"/><glyph unicode="U" d="M163 1631v9q0 95 52 95 31 0 79-33-124-632-124-1007 0-513 232-544 89-19 165-19 404 0 420 530 4 60 4 128 0 365-117 963 41 35 75 35 39 0 68-46 106-606 106-986 0-39-1-75Q1105-8 590-8q-92 0-200 22Q43 36 43 672q0 374 120 959z"/><glyph unicode="V" d="M30 1691q14 85 62 85 35 0 89-47L665 212l324 1577q58 35 97 35 62 0 73-91L764 57Q717-9 667-9q-49 0-102 62z"/><glyph unicode="W" d="M0 1628L307 7q23-13 42-13 28 0 47 28l145 584L719 26q44-37 78-37 48 0 78 70l320 1655q-11 84-65 84-36 0-90-36L789 221 607 817q-38 39-70 39-36 0-63-50L367 366 133 1643q-34 41-65 41-36 0-68-56z"/><glyph unicode="X" d="M49 1611q-5 22-5 39 0 58 53 59 30 0 77-19l431-722 395 805q35 14 60 14 60 0 60-80v-15L699 812l416-697q2-12 2-22 0-72-86-73-14 0-29 2L623 654 325 30q-36-14-62-14-73 0-71 110l336 686z"/><glyph unicode="Y" d="M55 1673q21 63 66 63 38 0 92-43 121-581 465-867l373 974q32 14 56 14 44 0 56-50L528 16Q486-5 453-5q-59 0-83 72l254 622q-400 320-569 984z"/><glyph unicode="Z" d="M51 1725l1066 106h2q53 0 53-50 0-14-4-31L288 137l689 67q43-18 43-54 0-37-47-94L188-3q-16-3-29-3-56 0-56 57 0 15 4 34l847 1602-895-110q-43 22-43 61 0 36 35 87z"/><glyph unicode="[" horiz-adv-x="802" d="M94 1609L203 117Q169 65 254-4l448 51q76 104-31 136l-325-41-125 1477 462 35q98 114-41 152l-530-51q-81-100-18-146z"/><glyph unicode="\" d="M27 1675L1044 20q133-36 111 93L150 1783q-140 40-123-108z"/><glyph unicode="]" horiz-adv-x="802" d="M85 1732q-81-100 15-152l384 49L593 157l-352-49q-76-52 9-121l466 59q76 104 20 136L611 1639q57 112-82 150z"/><glyph unicode="^" d="M65 1144l443 587q51 85 146 60l464-622q63-151-111-112l-398 557-402-537Q86 968 65 1144z"/><glyph unicode="_" horiz-adv-x="1200" d="M0 0v-100h1200V0H0z"/><glyph unicode="`" horiz-adv-x="399" d="M73 1727l139-293q110-71 130 44l-112 293q-132 37-157-44z"/><glyph unicode="a" d="M19 78l481 1680q47 66 97 66 49 0 102-62l232-867 43-3q82-2 82-56 0-38-42-103l-39-3 184-688q-42-47-82-47-41 0-81 50L838 716l-505-49L159 34Q109-8 76-8 30-8 19 78zm348 720l435 71-207 813z"/><glyph unicode="b" d="M20 1740L142 59q15-44 62-54Q320-9 437-9q259 0 520 70 246 189 246 430 0 193-158 421-118 125-324 172 154 135 153 293 0 160-157 345-190 79-403 79-83 0-171-12-13 3-25 3-56 0-98-52zm144-78q69 7 131 7 193 0 321-66 104-100 104-204 0-88-74-178-92-114-312-113-60 0-130 8zm49-705q63 3 121 3 471 0 612-167 105-156 105-295 0-179-174-331-208-63-400-62-96 0-189 15z"/><glyph unicode="c" d="M79 1267q-19-132-19-272 0-191 35-399Q246 106 545-12q54-4 104-4 356 0 503 224-3 101-87 101-15 0-32-3-110-188-343-188-58 0-123 11-240 122-345 519-30 172-30 334 0 119 16 233 33 275 291 426 104 41 196 41 87 0 164-37 76 26 76 71 0 32-38 75-76 32-174 32-111 0-252-41-342-175-392-515z"/><glyph unicode="d" d="M30 1684l80-1554Q118-3 215-7q84-9 160-9 534 0 710 453 61 199 61 386 0 401-279 749-354 237-654 237-33 0-65-3-35 9-60 9-69 0-69-66 0-27 11-65zm122-53q14 69 94 69 8 0 16-1 18 1 36 1 231 0 501-215 233-338 233-681 0-164-53-329-185-343-556-343-58 0-120 8-57 8-75 66z"/><glyph unicode="e" d="M48 1654L118 26q28-29 80-29 22 0 48 5l857 80q19 45 19 74 0 52-61 52h-3l-789-95-47 757 699 70q18 45 18 74 0 47-47 52l-676-77-38 632 879 104q26 33 26 58 0 26-30 42L96 1713q-48-12-48-59z"/><glyph unicode="f" d="M77 1674L84 44q15-61 56-61 29 0 71 31l-10 918 836-24q28 50 28 81 0 44-57 50l-809 4-13 594 902 68q28 33 28 58t-28 42l-960-74q-49-11-51-57z"/><glyph unicode="g" d="M72 638Q183 137 472-4q98-16 184-16 292 0 437 185 86 176 86 350 0 191-103 379-11 36-155 36-110 0-298-21-37-11-37-42.5t37-83.5l342 14q81-138 81-277 0-122-63-246l1-1Q871 112 671 112q-77 0-166 23-229 141-302 545-9 97-9 190 0 196 40 376 55 271 325 401 87 27 164 27 107 0 195-52 82 21 82 70 0 31-32 73-92 48-224 48-91 0-202-23-355-147-432-482-48-212-48-450 0-107 10-220z"/><glyph unicode="h" horiz-adv-x="1203" d="M51 1706q21 71 61 71 36 0 87-60l76-862 651 110-49 823q42 50 76 50 38 0 68-62L1143 44q-42-52-80-52-44 0-83 71l-46 774-649-93 62-696q-22-60-67-60-32 0-77 31z"/><glyph unicode="i" horiz-adv-x="400" d="M49 1747L185 38q48-45 85-45 45 0 74 68L178 1747q-24 52-56.5 52T49 1747z"/><glyph unicode="j" d="M43 515q-2 16-2 30 0 88 70 88 25 0 59-11 40-330 410-490 27-2 52-2 372 0 372 435 0 56-6 120-17 55-111 1086 42 41 77 41 37 0 66-43 73-910 102-1058 11-90 11-168Q1143-5 605-5h-29Q142 154 43 515z"/><glyph unicode="k" d="M15 1732L115 11q46-35 87.5-35T281 11l-65 756q340-62 739-708 48-51 84-51 53 0 82 110-413 593-779 727 471 277 743 872-1 84-69 84-31 0-76-17-312-704-736-878l-71 826q-39 34-68.5 34T15 1732z"/><glyph unicode="l" d="M27 1724q42 50 76 50 38 0 68-62L309 129l758 75q57-18 57-60 0-31-31-76L268 1q-17-9-33-9-45 0-83 71z"/><glyph unicode="m" d="M33 37l82 1695q41 50 82 50l88-57 259-900 359 929q55 62 107 62 56 0 108-73l30-1692q-48-50-83-50t-58 50l-11 1583L596 618q-35-30-63-30-38 0-63 56l-252 926L173 37q-29-48-64-48T33 37z"/><glyph unicode="n" d="M61 1656q21 71 61 71 36 0 87-60L961 387l-84 1401q42 50 76 50 38 0 68-62L1143 44q-42-52-80-52-44 0-83 71L223 1412 347 48q-22-60-67-60-32 0-77 31z"/><glyph unicode="o" d="M77 226Q219-14 511-14q100 0 218 28 334 133 398 422 19 132 19 273 0 192-35 399-158 582-457 699-35 3-69 3-311 0-456-253-76-378-76-819 0-246 24-512zm133 106q-23 230-23 449 0 367 65 700 113 195 298 195 39 0 82-9 240-122 352-611 27-155 27-297 0-132-23-253-37-242-288-351-96-29-177-28-214-1-313 205z"/><glyph unicode="p" d="M48 1728L115 44q42-41 89-41 50 0 107 45l-44 655q566 19 774 278 113 209 113 381 0 277-296 455-156 24-308 24-227 0-446-53-46-15-56-60zm152-44q154 44 325 44 128 0 266-25 212-146 212-352 0-121-74-263-137-203-670-240z"/><glyph unicode="q" d="M72 1359q-19-132-19-272 0-192 35-399Q179 124 441-5q53-5 102-5 252 0 378 135l119-136h7q111 0 111 79 0 13-3 28l-155 151q130 284 130 646 0 312-97 683-142 236-380 236-85 0-182-30-335-134-399-423zm140-70q36 242 287 352 84 35 157 35 154 0 255-158 90-332 90-612 0-309-110-553L707 533q-67-21-67-63 0-17 11-37l175-199q-85-111-245-111-55 0-118 13-203 133-248 604-27 153-27 294 0 133 24 255z"/><glyph unicode="r" d="M48 1728L115 44q42-41 84-41 45 0 92 45l-66 782q64 1 106 4Q648 527 927 78q45-56 90-56 59 0 119 98-334 459-644 732 368 58 527 256 93 183 94 329 0 241-255 380-156 24-308 24-227 0-446-53-46-15-56-60zm132-44q165 44 341 44 132 0 270-25 171-108 171-277 0-96-55-211-137-203-690-240z"/><glyph unicode="s" d="M82 1500q171 313 759 312 93 0 195-7 39-24 39-55 0-32-41-70-47 1-92 1-644 0-716-284-27-64-27-121 0-220 403-340 480-77 541-474 4-37 4-72Q1147-2 566-2q-27 0-56 1-233 33-348 171-24 51-24 84 0 59 73 64 92-144 303-182 54-4 102-4 396 0 395 275 0 14-1 29-51 304-407 371Q41 964 41 1303q0 92 41 197z"/><glyph unicode="t" d="M85 1732q-37-46-37-81 0-42 52-71l407 31v-1L644 48q39-52 83.5-52T822 48L634 1621l439 33q41 47 41 81 0 48-82 71z"/><glyph unicode="u" d="M163 1631v9q0 95 52 95 31 0 79-33-124-632-124-1007 0-513 232-544 89-19 165-19 404 0 420 530 4 60 4 128 0 365-117 963 41 35 75 35 39 0 68-46 106-606 106-986 0-39-1-75Q1105-8 590-8q-92 0-200 22Q43 36 43 672q0 374 120 959z"/><glyph unicode="v" d="M30 1691q14 85 62 85 35 0 89-47L665 212l324 1577q58 35 97 35 62 0 73-91L764 57Q717-9 667-9q-49 0-102 62z"/><glyph unicode="w" d="M0 1628L307 7q23-13 42-13 28 0 47 28l145 584L719 26q44-37 78-37 48 0 78 70l320 1655q-11 84-65 84-36 0-90-36L789 221 607 817q-38 39-70 39-36 0-63-50L367 366 133 1643q-34 41-65 41-36 0-68-56z"/><glyph unicode="x" d="M49 1611q-5 22-5 39 0 58 53 59 30 0 77-19l431-722 395 805q35 14 60 14 60 0 60-80v-15L699 812l416-697q2-12 2-22 0-72-86-73-14 0-29 2L623 654 325 30q-36-14-62-14-73 0-71 110l336 686z"/><glyph unicode="y" d="M55 1673q21 63 66 63 38 0 92-43 121-581 465-867l373 974q32 14 56 14 44 0 56-50L528 16Q486-5 453-5q-59 0-83 72l254 622q-400 320-569 984z"/><glyph unicode="z" d="M51 1725l1066 106h2q53 0 53-50 0-14-4-31L288 137l689 67q43-18 43-54 0-37-47-94L188-3q-16-3-29-3-56 0-56 57 0 15 4 34l847 1602-895-110q-43 22-43 61 0 36 35 87z"/><glyph unicode="{" horiz-adv-x="600" d="M0 811l168-231 32-549L485 0q100 58 0 140l-169 27-27 449-142 199 127 204 42 566 232 81q86 91-54 132l-299-127-51-670z"/><glyph unicode="|" horiz-adv-x="532"/><glyph unicode="}" horiz-adv-x="600" d="M33 132Q-53 41 87 0l299 127 51 670 144 190-168 231-32 549-285 31q-100-58 0-140l169-27 27-449 142-199-127-204-42-566z"/><glyph unicode="~" d="M97 910q200 165 468 33 295-119 469 33 160-27 35-153-180-147-481-24-274 138-481-23-66 65-10 134z"/><glyph unicode="¡" horiz-adv-x="682"/><glyph unicode="¤" horiz-adv-x="1139"/><glyph unicode="¥" d="M55 1673q38 116 158 20 121-581 407-861 293 210 427 951 98 57 116-19-125-764-463-1057l24-695Q603-48 566 63v632q-342 314-511 978zM213 537l788 113q160-14 35-151l-813-95q-66 59-10 133zm91-253l610 90q160-14 35-151l-635-72q-66 59-10 133z"/><glyph unicode="¦" horiz-adv-x="532"/><glyph unicode="§" d="M17 234Q6 339 79 319q28-113 152-184 278-124 355 87 52 209-157 329-407 286-182 563 109 104 294 92-220 240-41 474 201 204 664-11 39-52-27-86-456 184-568-8-89-183 139-404 286-164 241-452-51-268-318-226 92-120 65-283-66-326-497-163Q60 120 17 234zm313 769q-125-143 75-313 362-207 441 47 31 208-177 335-260 58-339-69z"/><glyph unicode="¨" horiz-adv-x="799" d="M106 1615q67-235 206-27-53 251-206 27zm404 29q56-220 206-27-90 225-206 27z"/><glyph unicode="©" horiz-adv-x="1509"/><glyph unicode="«" horiz-adv-x="1198" d="M78 818l489 378q150 64 113-110L256 774l412-271q110-120-66-143L139 672q-85 50-61 146zm390 64l489 378q150 64 113-110L646 838l412-271q110-120-66-143L529 736q-85 50-61 146z"/><glyph unicode="­" horiz-adv-x="802" d="M71 914l570 38q160-14 35-151L81 781q-66 59-10 133z"/><glyph unicode="®" horiz-adv-x="1509"/><glyph unicode="¯" horiz-adv-x="799" d="M90 1613q-61 64 1 133l565 47q159-27 24-152z"/><glyph unicode="°" horiz-adv-x="799" d="M77 1562q114-714 663-223-50 771-663 223zm101-36q430 374 465-152-385-335-465 152z"/><glyph unicode="±" d="M114 160q-61 64 1 133l944 61q159-27 24-152zm10 749q-61 64 1 133l416 27 61 534q108 82 144-19l-57-506 380 25q159-27 24-152l-420-18-57-506q-108-133-148 1l57 498z"/><glyph unicode="´" horiz-adv-x="399" d="M73 1478q20-115 130-44l139 293q-24 81-157 44z"/><glyph unicode="µ" horiz-adv-x="1180"/><glyph unicode="·" horiz-adv-x="400" d="M50 965q50-296 290-92-22 320-290 92z"/><glyph unicode="¸" horiz-adv-x="682"/><glyph unicode="»" horiz-adv-x="1198" d="M165 467l424 313-412 270q-110 120 66 143l463-312q85-50 61-145L278 357q-150-64-113 110zm322 10l424 313-412 270q-110 120 66 143l463-312q85-50 61-145L600 367q-150-64-113 110z"/><glyph unicode="¿" horiz-adv-x="1251"/><glyph unicode="À" d="M19 78l481 1680q92 129 199 4l232-867 43-3q140-3 40-159l-39-3 184-688q-85-96-163 3L838 716l-505-49L159 34Q37-69 19 78zm348 720l435 71-207 813zm25 1394l139-293q110-71 130 44l-112 293q-132 37-157-44z"/><glyph unicode="Á" d="M19 78l481 1680q92 129 199 4l232-867 43-3q140-3 40-159l-39-3 184-688q-85-96-163 3L838 716l-505-49L159 34Q37-69 19 78zm348 720l435 71-207 813zm169 1176q20-115 130-44l139 293q-24 81-157 44z"/><glyph unicode="Â" d="M19 78l481 1680q92 129 199 4l232-867 43-3q140-3 40-159l-39-3 184-688q-85-96-163 3L838 716l-505-49L159 34Q37-69 19 78zm235 1794l267 296q51 85 146 60l301-337q63-151-101-82l-249 289-222-252q-121-150-142 26zM367 798l435 71-207 813z"/><glyph unicode="Ã" d="M19 78l481 1680q92 129 199 4l232-867 43-3q140-3 40-159l-39-3 184-688q-85-96-163 3L838 716l-505-49L159 34Q37-69 19 78zm215 1971q126 159 333 54 159-100 333 35 160-27 35-153-204-130-345-26-213 111-346-44-66 65-10 134zM367 798l435 71-207 813z"/><glyph unicode="Ä" d="M19 78l481 1680q92 129 199 4l232-867 43-3q140-3 40-159l-39-3 184-688q-85-96-163 3L838 716l-505-49L159 34Q37-69 19 78zm272 1891q67-235 206-27-53 251-206 27zm76-1171l435 71-207 813zm328 1200q56-220 206-27-90 225-206 27z"/><glyph unicode="Å" d="M19 78l481 1680q92 129 199 4l232-867 43-3q140-3 40-159l-39-3 184-688q-85-96-163 3L838 716l-505-49L159 34Q37-69 19 78zm348 720l435 71-207 813zm4 1353q83-491 485-153-37 530-485 153zm74-31q314 248 340-101-282-223-340 101z"/><glyph unicode="Æ" horiz-adv-x="1801" d="M19 78l481 1550q34 48 71 61 17 6 35 4l783 103q57-31 14-130l-686-93 215-736 556 45q76-18 39-156l-554-36 166-573 527 84q98 2 45-126L1112 4q-29-14-57-5l-3-1v2q-28 10-56 45L838 686l-505-19L159 34Q37-69 19 78zm348 720l435 31-207 723z"/><glyph unicode="Ç" horiz-adv-x="1479"/><glyph unicode="È" d="M48 1654L118 26q39-41 128-24l857 80q53 128-45 126l-789-95-47 757 699 70q47 118-29 126l-676-77-38 632 879 104q53 69-4 100L96 1713q-48-12-48-59zm339 490l139-293q110-71 130 44l-112 293q-132 37-157-44z"/><glyph unicode="É" d="M48 1654L118 26q39-41 128-24l857 80q53 128-45 126l-789-95-47 757 699 70q47 118-29 126l-676-77-38 632 879 104q53 69-4 100L96 1713q-48-12-48-59zm367 221q20-115 130-44l139 293q-24 81-157 44z"/><glyph unicode="Ê" d="M48 1654L118 26q39-41 128-24l857 80q53 128-45 126l-789-95-47 757 699 70q47 118-29 126l-676-77-38 632 879 104q53 69-4 100L96 1713q-48-12-48-59zm167 293l267 296q51 85 146 60l301-337q63-151-101-82l-249 289-222-252q-121-150-142 26z"/><glyph unicode="Ë" d="M48 1654L118 26q39-41 128-24l857 80q53 128-45 126l-789-95-47 757 699 70q47 118-29 126l-676-77-38 632 879 104q53 69-4 100L96 1713q-48-12-48-59zm220 325q67-235 206-27-53 251-206 27zm404 29q56-220 206-27-90 225-206 27z"/><glyph unicode="Ì" d="M85 1732q-81-100 15-152l384 29L593 157l-352-49q-76-52 9-121l842 100q76 104-31 136l-325-41-125 1437 462 35q98 114-41 152zm249 416l139-293q110-71 130 44l-112 293q-132 37-157-44z"/><glyph unicode="Í" d="M85 1732q-81-100 15-152l384 29L593 157l-352-49q-76-52 9-121l842 100q76 104-31 136l-325-41-125 1437 462 35q98 114-41 152zm389 181q20-115 130-44l139 293q-24 81-157 44z"/><glyph unicode="Î" d="M85 1732q-81-100 15-152l384 29L593 157l-352-49q-76-52 9-121l842 100q76 104-31 136l-325-41-125 1437 462 35q98 114-41 152zm113 175l267 296q51 85 146 60l301-337q63-151-101-82l-249 289-222-252q-121-150-142 26z"/><glyph unicode="Ï" d="M85 1732q-81-100 15-152l384 29L593 157l-352-49q-76-52 9-121l842 100q76 104-31 136l-325-41-125 1437 462 35q98 114-41 152zm140 210q67-235 206-27-53 251-206 27zm404 29q56-220 206-27-90 225-206 27z"/><glyph unicode="Ð" horiz-adv-x="1479"/><glyph unicode="Ñ" d="M61 1656q41 137 148 11L961 387l-84 1401q88 106 144-12L1143 44q-92-113-163 19L223 1412 347 48Q310-55 203 19zm122 336q126 159 333 54 159-100 333 35 160-27 35-153-204-130-345-26-213 111-346-44-66 65-10 134z"/><glyph unicode="Ò" d="M77 226Q268-97 729 14q334 133 398 422 44 313-16 672-158 582-457 699-364 30-525-250Q11 967 77 226zm133 106q-62 616 42 1149 137 236 380 186 240-122 352-611 52-298 4-550-37-242-288-351Q346 49 210 332zm113 1934l139-293q110-71 130 44l-112 293q-132 37-157-44z"/><glyph unicode="Ó" d="M77 226Q268-97 729 14q334 133 398 422 44 313-16 672-158 582-457 699-364 30-525-250Q11 967 77 226zm133 106q-62 616 42 1149 137 236 380 186 240-122 352-611 52-298 4-550-37-242-288-351Q346 49 210 332zm280 1617q20-115 130-44l139 293q-24 81-157 44z"/><glyph unicode="Ô" d="M77 226Q268-97 729 14q334 133 398 422 44 313-16 672-158 582-457 699-364 30-525-250Q11 967 77 226zm130 1702l267 296q51 85 146 60l301-337q63-151-101-82l-249 289-222-252q-121-150-142 26zm3-1596q-62 616 42 1149 137 236 380 186 240-122 352-611 52-298 4-550-37-242-288-351Q346 49 210 332z"/><glyph unicode="Õ" d="M77 226Q268-97 729 14q334 133 398 422 44 313-16 672-158 582-457 699-364 30-525-250Q11 967 77 226zm116 1833q126 159 333 54 159-100 333 35 160-27 35-153-204-130-345-26-213 111-346-44-66 65-10 134zm17-1727q-62 616 42 1149 137 236 380 186 240-122 352-611 52-298 4-550-37-242-288-351Q346 49 210 332z"/><glyph unicode="Ö" d="M77 226Q268-97 729 14q334 133 398 422 44 313-16 672-158 582-457 699-364 30-525-250Q11 967 77 226zm133 106q-62 616 42 1149 137 236 380 186 240-122 352-611 52-298 4-550-37-242-288-351Q346 49 210 332zm28 1648q67-235 206-27-53 251-206 27zm404 29q56-220 206-27-90 225-206 27z"/><glyph unicode="×" d="M217 587l290 279-278 325q13 88 105 81l276-308 306 295q89-8 87-100L704 859l262-292q76-141-106-113L602 755 336 488q-137-85-119 99z"/><glyph unicode="Ø" d="M8 86Q-9-63 131-23l1005 1671q22 128-111 92zm69 140Q268-97 729 14q334 133 398 422 44 313-16 672-158 582-457 699-364 30-525-250Q11 967 77 226zm133 106q-62 616 42 1149 137 236 380 186 240-122 352-611 52-298 4-550-37-242-288-351Q346 49 210 332z"/><glyph unicode="Ù" d="M163 1631q-4 163 131 71Q1 204 402 151 968 33 987 662q26 381-113 1091 89 76 143-11 117-668 105-1061-20-812-732-667-550 35-227 1617zm223 486l139-293q110-71 130 44l-112 293q-132 37-157-44z"/><glyph unicode="Ú" d="M163 1631q-4 163 131 71Q1 204 402 151 968 33 987 662q26 381-113 1091 89 76 143-11 117-668 105-1061-20-812-732-667-550 35-227 1617zm340 295q20-115 130-44l139 293q-24 81-157 44z"/><glyph unicode="Û" d="M163 1631q-4 163 131 71Q1 204 402 151 968 33 987 662q26 381-113 1091 89 76 143-11 117-668 105-1061-20-812-732-667-550 35-227 1617zm86 324l267 296q51 85 146 60l301-337q63-151-101-82l-249 289-222-252q-121-150-142 26z"/><glyph unicode="Ü" d="M163 1631q-4 163 131 71Q1 204 402 151 968 33 987 662q26 381-113 1091 89 76 143-11 117-668 105-1061-20-812-732-667-550 35-227 1617zm125 307q67-235 206-27-53 251-206 27zm404 29q56-220 206-27-90 225-206 27z"/><glyph unicode="Ý" d="M55 1673q38 116 158 20 121-581 465-867l373 974q94 40 112-36L528 16Q407-44 370 67l254 622q-400 320-569 984zm486 222q20-115 130-44l139 293q-24 81-157 44z"/><glyph unicode="Þ" horiz-adv-x="1366"/><glyph unicode="ß" d="M20 1470L142 59q69-130 150 2L178 1377q-35 147 49 232 216 108 389-6 192-185 30-382-105-129-304-112-44-79 7-159 449 17 597-157 241-357-69-596-270-71-473-48Q351 46 418 8q284-7 539 83 443 310 88 821-118 125-324 172 309 272-4 638-268 137-574 0-153-87-123-252z"/><glyph unicode="à" d="M19 78l481 1680q92 129 199 4l232-867 43-3q140-3 40-159l-39-3 184-688q-85-96-163 3L838 716l-505-49L159 34Q37-69 19 78zm348 720l435 71-207 813zm35 1373l139-293q110-71 130 44l-112 293q-132 37-157-44z"/><glyph unicode="á" d="M19 78l481 1680q92 129 199 4l232-867 43-3q140-3 40-159l-39-3 184-688q-85-96-163 3L838 716l-505-49L159 34Q37-69 19 78zm348 720l435 71-207 813zm165 1130q20-115 130-44l139 293q-24 81-157 44z"/><glyph unicode="â" d="M19 78l481 1680q92 129 199 4l232-867 43-3q140-3 40-159l-39-3 184-688q-85-96-163 3L838 716l-505-49L159 34Q37-69 19 78zm216 1736l267 296q51 85 146 60l301-337q63-151-101-82l-249 289-222-252q-121-150-142 26zM367 798l435 71-207 813z"/><glyph unicode="ã" d="M19 78l481 1680q92 129 199 4l232-867 43-3q140-3 40-159l-39-3 184-688q-85-96-163 3L838 716l-505-49L159 34Q37-69 19 78zm213 1923q126 159 333 54 159-100 333 35 160-27 35-153-204-130-345-26-213 111-346-44-66 65-10 134zM367 798l435 71-207 813z"/><glyph unicode="ä" d="M19 78l481 1680q92 129 199 4l232-867 43-3q140-3 40-159l-39-3 184-688q-85-96-163 3L838 716l-505-49L159 34Q37-69 19 78zm274 1903q67-235 206-27-53 251-206 27zm74-1183l435 71-207 813zm330 1212q56-220 206-27-90 225-206 27z"/><glyph unicode="å" d="M19 78l481 1680q92 129 199 4l232-867 43-3q140-3 40-159l-39-3 184-688q-85-96-163 3L838 716l-505-49L159 34Q37-69 19 78zm348 720l435 71-207 813zm8 1359q83-491 485-153-37 530-485 153zm74-31q314 248 340-101-282-223-340 101z"/><glyph unicode="æ" horiz-adv-x="1801" d="M19 78l481 1550q34 48 71 61 17 6 35 4l783 103q57-31 14-130l-686-93 215-736 556 45q76-18 39-156l-554-36 166-573 527 84q98 2 45-126L1112 4q-29-14-57-5l-3-1v2q-28 10-56 45L838 686l-505-19L159 34Q37-69 19 78zm348 720l435 31-207 723z"/><glyph unicode="ç" horiz-adv-x="1024"/><glyph unicode="è" d="M48 1654L118 26q39-41 128-24l857 80q53 128-45 126l-789-95-47 757 699 70q47 118-29 126l-676-77-38 632 879 104q53 69-4 100L96 1713q-48-12-48-59zm353 486l139-293q110-71 130 44l-112 293q-132 37-157-44z"/><glyph unicode="é" d="M48 1654L118 26q39-41 128-24l857 80q53 128-45 126l-789-95-47 757 699 70q47 118-29 126l-676-77-38 632 879 104q53 69-4 100L96 1713q-48-12-48-59zm452 247q20-115 130-44l139 293q-24 81-157 44z"/><glyph unicode="ê" d="M48 1654L118 26q39-41 128-24l857 80q53 128-45 126l-789-95-47 757 699 70q47 118-29 126l-676-77-38 632 879 104q53 69-4 100L96 1713q-48-12-48-59zm156 286l267 296q51 85 146 60l301-337q63-151-101-82l-249 289-222-252q-121-150-142 26z"/><glyph unicode="ë" d="M48 1654L118 26q39-41 128-24l857 80q53 128-45 126l-789-95-47 757 699 70q47 118-29 126l-676-77-38 632 879 104q53 69-4 100L96 1713q-48-12-48-59zm187 299q67-235 206-27-53 251-206 27zm404 29q56-220 206-27-90 225-206 27z"/><glyph unicode="ì" horiz-adv-x="399" d="M-87 2150l139-293q110-71 130 44L70 2194q-132 37-157-44zm136-403L185 38Q292-62 344 61L178 1747q-48 104-129 0z"/><glyph unicode="í" horiz-adv-x="399" d="M49 1747L185 38Q292-62 344 61L178 1747q-48 104-129 0zm3 178q20-115 130-44l139 293q-24 81-157 44z"/><glyph unicode="î" horiz-adv-x="399" d="M-257 1916l267 296q51 85 146 60l301-337q63-151-101-82l-249 289-222-252q-121-150-142 26zm306-169L185 38Q292-62 344 61L178 1747q-48 104-129 0z"/><glyph unicode="ï" horiz-adv-x="399" d="M-199 1930q67-235 206-27-53 251-206 27zm248-183L185 38Q292-62 344 61L178 1747q-48 104-129 0zm156 212q56-220 206-27-90 225-206 27z"/><glyph unicode="ð" horiz-adv-x="1139"/><glyph unicode="ñ" d="M61 1656q41 137 148 11L961 387l-84 1401q88 106 144-12L1143 44q-92-113-163 19L223 1412 347 48Q310-55 203 19zm109 315q126 159 333 54 159-100 333 35 160-27 35-153-204-130-345-26-213 111-346-44-66 65-10 134z"/><glyph unicode="ò" d="M77 226Q268-97 729 14q334 133 398 422 44 313-16 672-158 582-457 699-364 30-525-250Q11 967 77 226zm133 106q-62 616 42 1149 137 236 380 186 240-122 352-611 52-298 4-550-37-242-288-351Q346 49 210 332zm198 1886l139-293q110-71 130 44l-112 293q-132 37-157-44z"/><glyph unicode="ó" d="M77 226Q268-97 729 14q334 133 398 422 44 313-16 672-158 582-457 699-364 30-525-250Q11 967 77 226zm133 106q-62 616 42 1149 137 236 380 186 240-122 352-611 52-298 4-550-37-242-288-351Q346 49 210 332zm269 1660q20-115 130-44l139 293q-24 81-157 44z"/><glyph unicode="ô" d="M77 226Q268-97 729 14q334 133 398 422 44 313-16 672-158 582-457 699-364 30-525-250Q11 967 77 226zm103 1677l267 296q51 85 146 60l301-337q63-151-101-82l-249 289-222-252q-121-150-142 26zm30-1571q-62 616 42 1149 137 236 380 186 240-122 352-611 52-298 4-550-37-242-288-351Q346 49 210 332z"/><glyph unicode="õ" d="M77 226Q268-97 729 14q334 133 398 422 44 313-16 672-158 582-457 699-364 30-525-250Q11 967 77 226zm97 1799q126 159 333 54 159-100 333 35 160-27 35-153-204-130-345-26-213 111-346-44-66 65-10 134zm36-1693q-62 616 42 1149 137 236 380 186 240-122 352-611 52-298 4-550-37-242-288-351Q346 49 210 332z"/><glyph unicode="ö" d="M77 226Q268-97 729 14q334 133 398 422 44 313-16 672-158 582-457 699-364 30-525-250Q11 967 77 226zm133 106q-62 616 42 1149 137 236 380 186 240-122 352-611 52-298 4-550-37-242-288-351Q346 49 210 332zm21 1648q67-235 206-27-53 251-206 27zm404 29q56-220 206-27-90 225-206 27z"/><glyph unicode="÷" d="M114 760q-61 64 1 133l944 61q159-27 24-152zm391-266q67-235 206-27-53 251-206 27zm33 751q67-235 206-27-53 251-206 27z"/><glyph unicode="ø" horiz-adv-x="1198" d="M8 86Q-9-63 131-23l1005 1671q22 128-111 92zm69 140Q268-97 729 14q334 133 398 422 44 313-16 672-158 582-457 699-364 30-525-250Q11 967 77 226zm133 106q-62 616 42 1149 137 236 380 186 240-122 352-611 52-298 4-550-37-242-288-351Q346 49 210 332z"/><glyph unicode="ù" d="M163 1631q-4 163 131 71Q1 204 402 151 968 33 987 662q26 381-113 1091 89 76 143-11 117-668 105-1061-20-812-732-667-550 35-227 1617zm247 428l139-293q110-71 130 44l-112 293q-132 37-157-44z"/><glyph unicode="ú" d="M163 1631q-4 163 131 71Q1 204 402 151 968 33 987 662q26 381-113 1091 89 76 143-11 117-668 105-1061-20-812-732-667-550 35-227 1617zm355 159q20-115 130-44l139 293q-24 81-157 44z"/><glyph unicode="û" d="M163 1631q-4 163 131 71Q1 204 402 151 968 33 987 662q26 381-113 1091 89 76 143-11 117-668 105-1061-20-812-732-667-550 35-227 1617zm83 309l267 296q51 85 146 60l301-337q63-151-101-82l-249 289-222-252q-121-150-142 26z"/><glyph unicode="ü" d="M163 1631q-4 163 131 71Q1 204 402 151 968 33 987 662q26 381-113 1091 89 76 143-11 117-668 105-1061-20-812-732-667-550 35-227 1617zm141 339q67-235 206-27-53 251-206 27zm404 29q56-220 206-27-90 225-206 27z"/><glyph unicode="ý" d="M55 1673q38 116 158 20 121-581 465-867l373 974q94 40 112-36L528 16Q407-44 370 67l254 622q-400 320-569 984zm450 191q20-115 130-44l139 293q-24 81-157 44z"/><glyph unicode="þ" horiz-adv-x="1139"/><glyph unicode="ÿ" d="M55 1673q38 116 158 20 121-581 465-867l373 974q94 40 112-36L528 16Q407-44 370 67l254 622q-400 320-569 984zm227 256q67-235 206-27-53 251-206 27zm404 29q56-220 206-27-90 225-206 27z"/><glyph unicode="Œ" horiz-adv-x="1801" d="M97 246Q268-97 973-9l-1 3q4 1 7 1l737 50q53 128-45 156l-669-65-47 727 579 40q47 118-29 126l-556-47-38 602 759 54q53 99-4 130l-779-54q-597-17-758-417Q11 817 97 246zm113 86q-62 466 42 889 125 325 532 351l63-1451Q335 73 210 332z"/><glyph unicode="œ" horiz-adv-x="1801" d="M97 246Q268-97 973-9l-1 3q4 1 7 1l737 50q53 128-45 156l-669-65-47 727 579 40q47 118-29 126l-556-47-38 602 759 54q53 99-4 130l-779-54q-597-17-758-417Q11 817 97 246zm113 86q-62 466 42 889 125 325 532 351l63-1451Q335 73 210 332z"/><glyph unicode="Ÿ" d="M55 1673q38 116 158 20 121-581 465-867l373 974q94 40 112-36L528 16Q407-44 370 67l254 622q-400 320-569 984zm237 292q67-235 206-27-53 251-206 27zm404 29q56-220 206-27-90 225-206 27z"/><glyph unicode="ˆ" horiz-adv-x="799" d="M41 1432l267 296q51 85 146 60l301-337q63-151-101-82l-249 289-222-252q-121-150-142 26z"/><glyph unicode="˜" horiz-adv-x="799" d="M35 1693q126 159 333 54 159-100 333 35 160-27 35-153-204-130-345-26-213 111-346-44-66 65-10 134z"/><glyph horiz-adv-x="1160"/><glyph horiz-adv-x="2321"/><glyph horiz-adv-x="1160"/><glyph horiz-adv-x="2321"/><glyph horiz-adv-x="773"/><glyph horiz-adv-x="580"/><glyph horiz-adv-x="386"/><glyph horiz-adv-x="386"/><glyph horiz-adv-x="290"/><glyph horiz-adv-x="464"/><glyph horiz-adv-x="128"/><glyph unicode="‐" horiz-adv-x="802" d="M71 914l570 38q160-14 35-151L81 781q-66 59-10 133z"/><glyph unicode="‑" horiz-adv-x="802" d="M71 914l570 38q160-14 35-151L81 781q-66 59-10 133z"/><glyph unicode="‒" horiz-adv-x="802" d="M71 914l570 38q160-14 35-151L81 781q-66 59-10 133z"/><glyph unicode="–" horiz-adv-x="1399" d="M114 760q-61 64 1 133l1112 61q159-27 24-152z"/><glyph unicode="—" horiz-adv-x="1798" d="M114 760q-61 64 1 133l1543 65q159-27 24-152z"/><glyph unicode="‘" horiz-adv-x="455"/><glyph unicode="’" horiz-adv-x="455"/><glyph unicode="‚" horiz-adv-x="455"/><glyph unicode="“" horiz-adv-x="682"/><glyph unicode="”" horiz-adv-x="682"/><glyph unicode="„" horiz-adv-x="682"/><glyph unicode="•" horiz-adv-x="799" d="M67 1027q114-714 663-223-50 771-663 223z"/><glyph unicode="…" horiz-adv-x="1198" d="M107 118q67-234 206-27-53 251-206 27zm361 0q67-234 206-27-53 251-206 27zm373 7q67-234 206-27-53 251-206 27z"/><glyph horiz-adv-x="464"/><glyph unicode="‹" d="M268 882l489 378q150 64 113-110L446 838l412-271q110-120-66-143L329 736q-85 50-61 146z"/><glyph unicode="›" d="M293 551l424 313-412 270q-110 120 66 143l463-312q85-50 61-145L406 441q-150-64-113 110z"/><glyph horiz-adv-x="580"/><glyph unicode="™" horiz-adv-x="1198" d="M67 1062q-34-38 6-58l173 12 59-586q33-39 75 0l-80 590 187 12q42 43-17 57zm195-634l35 636q36 38 72-3l110-338 153 349q49 48 91-4l13-635q-41-37-60 0l-5 594-170-381q-35-27-53 10l-107 347-19-575q-25-36-60 0z"/><glyph unicode="◼" horiz-adv-x="1785" d="M0 0v1785h1785V0H0z"/></font>
</defs>
</svg>
