<svg xmlns="http://www.w3.org/2000/svg"><defs><font id="main" horiz-adv-x="1139"><font-face units-per-em="2048" ascent="1638" descent="-410"/><glyph horiz-adv-x="2048"/><glyph horiz-adv-x="2048"/><glyph horiz-adv-x="569"/><glyph horiz-adv-x="569"/><glyph horiz-adv-x="569"/><glyph horiz-adv-x="569"/><glyph unicode="!" horiz-adv-x="534" d="M843 378l6 70v1096l6 14 13 9q26 27 74 46 35 27 38 70h161V392q-26-26-81-28l-12-65H874q-25 34-31 79zm31-341v107h288l1-61q8-8 14-41V-65H890l-1 61q-8 8-15 41z"/><glyph unicode="&quot;" horiz-adv-x="613" d="M55 1257l77 243q5 14 15 29 14-1 27 7l34 107q5 14 15 29 12 5 27 7l19 23 38-12-6-35-68-214q-4-12-13-24-12 1-26-3l-47-139-25-10q-12-7-21-20zm262 23l88 231q6 13 17 27 14-1 27 6l39 101q5 14 16 28 12 4 27 5l19 21 36-14-7-33-79-204q-4-12-14-23-12 3-25 0l-54-133-25-8q-12-6-21-18z"/><glyph unicode="#"/><glyph unicode="$"/><glyph unicode="%" horiz-adv-x="1821"/><glyph unicode="&amp;" horiz-adv-x="1366"/><glyph unicode="'" horiz-adv-x="2073" d="M-93 9v147l11 34 1648-11q87-39 158-124l80-11q0-80-23-170H122Q29-106-59-23-80-13-93 9zm0 678v147l11 34 114-11h1580q37-33 68-78 31-33 79-57 27-4 45-23V541l-11-34-135 11H223L87 529q-34 33-67 80l-79 44zm0 644v170h1785q8-47 32-101h80v-204H143q-83 41-156 124z"/><glyph unicode="(" horiz-adv-x="1044" d="M-242 30v216h151q30 14 54 46l5 26-10 72v713l10 105q-7 37-26 72l-60 52q-19 29-37 66-23 24-54 39h-33v203l167 7q8 0 11 13 13 38 16 85h178v-26q0-47 37-72h97q39-13 86-14h87l10-6q29-21 54-52l38-66q40-7 54-59v-170l-313 7-16 6-5-6q-17-36-27-79l5-765h6l-6-20v-26q-2-33-10-72l10-20q4-37 22-72h183v7h97l38-7 10 13 6-39V24l-27 6q-32-12-65-38l-37-72q-30-29-76-33l-178 6-70-6-5-20-5-72H-48l6 33-6 20q-17 32-48 58-24 27-43 66l-49 58-16 7z"/><glyph unicode=")" horiz-adv-x="1074" d="M670 24v183l6 39 11-13 39 7h101v-7h191q19 35 22 72l11 20q-9 39-11 72v26l-5 20h5l6 765q-10 43-28 79l-6 6-17-6-325-7v170q15 52 56 59l39 66q27 31 56 52l12 6h89q50 1 90 14h101q39 25 39 72v26h185q3-47 17-85 4-13 11-13l174-7v-203h-34q-32-15-56-39-19-37-39-66l-62-52q-20-35-28-72l12-105V390l-12-72 6-26q26-32 56-46h157V30l-39 7-17-7-50-58q-21-39-45-66-32-26-51-58l-5-20 5-33h-185l-5 72-6 20-73 6-185-6q-48 4-78 33L765-8q-34 26-67 38z"/><glyph unicode="*" horiz-adv-x="1185" d="M-1008 1386l6 35 27-2q8 10 17 15 17-2 31-8l103-47q12 4 17 15 17-3 31-9l235-106-9-41q-15 2-25-2l-19-11-136 59q-9-8-13-18-13 2-26 7l-207 94zm178-542l125 222q8 13 19 25 10-6 21-3l55 98q8 13 19 25 10 1 22-2l19 17 23-26-14-34-110-196q-6-11-16-20-9 6-19 6l-74-126-21-2q-10-2-20-13zm253 635q-1 15 2 31 11 2 19 11l-11 111q-1 15 1 32 8 6 19 10l7 25 33-8 8-36 21-224q2-13-1-26-11 0-20-5l12-146-16-13q-7-8-9-22l-40 7zm6-260l10 18q4 10 1 24l40 8 113-228q6-14 10-30-10-5-14-16l50-101q6-13 10-30-5-8-14-16l3-26-34-4-20 30-100 202q-6 12-8 25 10 3 16 12zm35 69l232 107q13 6 30 9 4-10 15-14l102 47q14 6 30 9 8-5 16-14l26 2 4-34-32-20-204-94q-12-5-25-7-3 10-11 17l-134-60-18 11q-10 4-24 1z"/><glyph unicode="+" horiz-adv-x="1578" d="M-144 792v137h117l10-5h357l38 5 10-5h14l14 5q19 27 23 66l-9 339q3 33 23 66 26 18 57 33 18 28 19 70h155v-103l-4-10-5-424 5-14q24-18 56-28h358q34-1 61-28l38-57q33-6 66-23V674l-546 5q-8-2-15-9-21-27-23-66l9-335-4-9-19-71-66-24q-6-33-24-66H430v114l5 14v344l4 9-4 66-5 14q-28 18-66 19H6q-34 7-56 38l-38 51q-29 3-56 24z"/><glyph unicode="," horiz-adv-x="683" d="M-71-336L118-43q12 17 31 33 19-5 38 0l84 129q12 17 31 33 17 2 38-1l33 24 46-30-20-44-168-258q-10-15-26-28-16 7-35 7L57-346l-38-4q-18-4-33-19z"/><glyph unicode="-" horiz-adv-x="1132" d="M-584 770v125h911l4-71q25-9 45-48V651h-911l-4 72q-25 9-45 47z"/><glyph unicode="." horiz-adv-x="450" d="M-993 241v108h288l1-61q8-8 14-41V139h-287l-1 61q-8 8-15 41z"/><glyph unicode="/" horiz-adv-x="1350" d="M-600 215l927 1385 44-30q46 11 78 54l162-108-859-1274-15-12 2-8-10-14q-39-22-90-18-41 0-85-21l-26-40z"/><glyph unicode="0" horiz-adv-x="1542" d="M-1016-70H642l6-87q47-11 82-58v-154H-927l-6 87q-45 11-83 58v154z"/><glyph unicode="1" horiz-adv-x="1542" d="M-1016-70H642l6-87q47-11 82-58v-154H-927l-6 87q-45 11-83 58v154zm682 1697l87 6q10 37 57 70l154 1 20-1395-87-6q-10-39-57-70l-154-1z"/><glyph unicode="2" horiz-adv-x="1542" d="M-1016-70H642l6-87q47-11 82-58v-154H-927l-6 87q-45 11-83 58v154zm402 1697l87 6q10 37 57 70l154 1 20-1395-87-6q-10-39-57-70l-154-1zm508 0l87 6q11 37 57 70l154 1 20-1395-87-6q-10-39-57-70l-153-1z"/><glyph unicode="3" horiz-adv-x="1542" d="M-1016-70H642l6-87q47-11 82-58v-154H-927l-6 87q-45 11-83 58v154zm196 1681l87 6q10 37 57 70l154 1 20-1395-87-6q-10-39-57-70l-154-1zm491-1l87 5q10 38 57 70l154 2 20-1395-87-6q-10-40-57-70l-154-2zm496 1l87 6q10 37 57 70l154 1 20-1395-87-6q-10-39-57-70l-154-1z"/><glyph unicode="4" horiz-adv-x="1542" d="M-1016-70H642l6-87q47-11 82-58v-154H-927l-6 87q-45 11-83 58v154zm122 656v154l1395 7 5-87q37-11 69-57V449l-1395-8-5 87q-39 11-69 58zm284 1045l87 6q10 37 57 70l154 1 20-1395-87-6q-10-39-57-70l-154-1z"/><glyph unicode="5" horiz-adv-x="1542" d="M-1016-70H642l6-87q47-11 82-58v-154H-927l-6 87q-45 11-83 58v154zm122 656v154l1395 7 5-87q37-11 69-57V449l-1395-8-5 87q-39 11-69 58zm215 1045l87 6q10 37 57 70l154 1 20-1395-87-6q-10-39-57-70l-154-1zm688 9l87 5q10 38 57 70l154 2 20-1395-87-6q-10-40-57-70l-154-2z"/><glyph unicode="6" horiz-adv-x="1542" d="M-1016-70H642l6-87q47-11 82-58v-154H-927l-6 87q-45 11-83 58v154zm122 656v154l1395 7 5-87q37-11 69-57V449l-1395-8-5 87q-39 11-69 58zm90 1036l87 6q10 38 57 70l154 2 20-1396-87-5q-10-40-57-70l-154-2zm511 2l87 5q10 38 57 70l153 2L25 306l-87-6q-10-40-57-70l-154-2zm475-9l86 6q11 37 57 70l154 1 21-1395-87-6q-11-39-57-70l-154-1z"/><glyph unicode="7" horiz-adv-x="1542" d="M-1016-70H642l6-87q47-11 82-58v-154H-927l-6 87q-45 11-83 58v154zm105 1206v154l1395 8 4-87q38-11 70-58V999l-1395-7-5 87q-39 11-69 57zm17-576v154l1395 7 5-87q37-10 69-57V423l-1395-8-5 87q-39 11-69 58zm284 1071l87 6q10 37 57 70l154 1 20-1395-87-6q-10-39-57-70l-154-1z"/><glyph unicode="8" horiz-adv-x="1542" d="M-1016-70H642l6-87q47-11 82-58v-154H-927l-6 87q-45 11-83 58v154zm105 613v154l1395 7 4-87q38-11 70-57V406l-1395-8-5 87q-39 11-69 58zm8 542v154l1395 7 5-87q38-10 69-57l1-154-1395-8-5 87q-40 11-70 58zm112 537l87 6q10 38 57 70l154 2 20-1396-87-5q-10-40-57-70l-154-2zm903 8l87 5q10 38 57 70l154 2 20-1395-87-6q-10-40-57-70l-154-2z"/><glyph unicode="9" horiz-adv-x="1542" d="M-1016-70H642l6-87q47-11 82-58v-154H-927l-6 87q-45 11-83 58v154zm122 656v154l1395 7 5-87q37-11 69-57V449l-1395-8-5 87q-39 11-69 58zm0 566v154l1395 7 5-87q37-11 69-58v-154l-1395-7-5 87q-39 11-69 58zm90 470l87 6q10 38 57 70l154 2 20-1396-87-5q-10-40-57-70l-154-2zm511 2l87 5q10 38 57 70l153 2L25 306l-87-6q-10-40-57-70l-154-2zm475-9l86 6q11 37 57 70l154 1 21-1395-87-6q-11-39-57-70l-154-1z"/><glyph unicode=":" horiz-adv-x="450" d="M-1002 314v107h288l1-61q8-8 14-41V211h-287l-1 62q-8 8-15 41zm41 841v146h288l1-83q8-11 14-56v-147h-288l-1 84q-8 11-14 56z"/><glyph unicode=";" horiz-adv-x="650" d="M-1364-188l189 293q12 17 31 33 19-6 39-1l83 130q12 17 31 33 17 2 38 0l33 23 46-30-20-44-167-258q-10-15-27-28-16 7-35 7l-113-168-37-4q-18-4-34-19zm123 1358v107h288l1-61q8-8 14-41v-108h-288l-1 62q-7 8-14 41z"/><glyph unicode="&lt;" horiz-adv-x="770" d="M-411 959l28 40 211 224q13 13 31 22 15-9 34-13l141 145 37-3q19 1 37 12l50-42-239-254q-15-15-36-27-18 9-38 7l-106-112q-14-14-36-27-17 2-38 8l-36-18zm2-38l27 47 45-17 268-152q16-9 29-25-5-16-4-35l173-103 7-37q5-18 21-33l-30-59-303 172q-18 11-35 29 4 19-2 38l-134 76q-18 11-35 29-3 17-2 38z"/><glyph unicode="=" horiz-adv-x="1698" d="M-830 1260v108H621l5-62q41-7 72-41v-107H-753l-5 61q-40 8-72 41zm7-648v107H628l5-61q40-8 72-41V509H-746l-5 62q-40 8-72 41z"/><glyph unicode="&gt;" horiz-adv-x="770" d="M-266 1362l43 43q15-12 31-13l32 3 119-144q16 3 28 12 15-9 26-22l178-224 24-40-34-37-31 17q-17-6-32-8-18 13-30 28l-89 111q-17 2-32-7-18 12-30 27zm2-778q13 15 17 33l6 37 147 103q1 19-4 35 11 16 25 25l225 152 39 17 22-47-21-32q1-21-2-38-14-18-29-29L48 765q-6-20-2-39-15-18-29-28l-256-173z"/><glyph unicode="?" horiz-adv-x="770" d="M-679 1043q13 15 17 33l6 37 147 103q1 19-4 35 11 16 25 25l226 152 38 17 23-48-22-31q1-21-1-39-15-17-30-28l-113-76q-5-19-1-39-15-17-30-28l-256-172zm254-1352l9 77q8 3 15 16l12 30 76-28q6 17 9 37 8 5 15 2l114-49 17-16-6-65-16-11q-5-21-11-35-10-5-18-2l-57 25q-7-14-11-36-10-4-18-1zm80 483l54 171q-11 16-25 26-1 19 4 35l87 258 20 37 47-24 2-38q14-16 23-31-1-23-7-41l-43-129q8-19 22-32 0-23-6-40l-98-293-56 32q1 20-6 37zm79 1188l43 43q15-12 31-13l32 3 119-144q16 3 28 12 15-9 26-22l178-224 24-40-34-37-31 17q-17-6-32-8-18 13-30 28l-89 111q-17 2-32-7-18 12-30 27zm2-778q13 15 17 33l6 37 147 103q1 19-4 35 11 16 25 25l225 152 39 17 22-47-21-32q1-21-2-38-14-18-29-29L48 765q-6-20-2-39-15-18-29-28l-256-173z"/><glyph unicode="@" horiz-adv-x="2079"/><glyph unicode="A" horiz-adv-x="683" d="M370-87v987q1 59 19 126 51 16 87 58v436q2 58 20 126 37 31 87 58l39 106h146l20-135V803q0-52-20-106-45-9-87-39L671 87l-78-68q-34-38-48-96z"/><glyph unicode="B" horiz-adv-x="2033" d="M147 278q2 55 32 107h150q32 29 53 75l-10 139q0 48-22 96l-85 64q-23 35-65 65-38 25-53 75 0 56 32 117h139q39 27 64 75l-10 129 10 54-10 21q-3 11-22 21l-85 65q-19 38-54 75-44 28-64 85 1 55 43 107h139q30 41 43 97h150q30-36 53-86l846-11q51 10 86 54 29 29 75 43l118-11q9-45 32-86l75-64q24-32 64-53 39-24 54-75-1-65-22-129-42-7-75-43l-10-32 10-236-10-85 10-22 97-32V738l-86-64-21-75 10-32-10-257h10q33-39 86-54l11-139q-41-39-97-54-54-1-117-21-20-44-65-75l-139 11q-9 50-54 85H597l-43-96H415l-65 86-85 53q-22 44-65 75-39 40-53 97zm525 182q20-44 64-75h760q19 49 22 107l10 128q-21 48-64 86H714l-42-107 10-107zm0 631q19-43 64-75h760q18 51 22 108l10 139q-22 42-64 75H714q-26-46-32-107z"/><glyph unicode="C" horiz-adv-x="1913" d="M90 284v123h178l34 39 5 50-5 16-6 663 11 61-17 45q-21 15-50 28-19 16-39 38l-27 45-39 28H90v172l150 6q27 6 50 22l6 17q-4 19-6 45h151q30-9 33-45 11-23 34-39h1041q28-4 61-17l33-39 28-50 56-16q15-19 22-45v-72q0-30-17-62l-122 6-17-6-67 6H636q-23-9-45-28l-11-44 6-17V546l-6-67q4-28 17-61l61-11h1091V228l-56-5q-20-16-39-39l-27-45q-19-17-45-27l-72-6H541q-29-1-56-17l-11-61-145-5q-25 0-39 27-4 28-16 56l-50 22-67 89-39 11-17-5z"/><glyph unicode="D" horiz-adv-x="1918" d="M-1068 73v171l6 24h136q47 2 83 41l6 47-6 18-6 41-6 18 6 41v585l12 83-6 17q-18 41-65 65-32 28-59 71-28 35-77 42-22 50-24 112v82h184l29 24 6 18q-4 20-6 47h195l6-65 12-24h885q38 28 41 83l195 6 6-65 77-53 47-83 83-12v-171q-50-22-112-24h-83l-12-5q-2-11-12-18l-11-53 11-709-11-95 6-17q22-39 70-59 29-28 60-77 33-33 88-36l6-194H521l-24-6q-10-46-47-83H314q-30 30-47 83l-886 6-23-6q-10-46-48-83h-129q-45 22-48 83-41 16-82 53-23 37-59 71zm520 248l6-18q31-24 71-35H60l65-6 24 11 23 77-12 632 12 160-6 35q-23 24-59 41l-613-6-18-5q-16-39-24-83l6-632 6-53-6-18z"/><glyph unicode="E" horiz-adv-x="1698" d="M-903 745v166H548l5-94q41-12 72-62V589H-826l-5 94q-39 12-72 62z"/><glyph unicode="F" horiz-adv-x="1987" d="M-648 864h120l46-6 17 6q17 17 34 40l6 46-6 17-5 62 11 63-17 57q-23 15-51 29-22 16-40 40l-29 45q-16 15-40 23h-46v183l155 5q27 7 51 23l6 17q-5 20-6 46h154q31-9 34-46 11-22 34-40H852l63-17 63-91 63-11q8-31 11-69v-120H-54l-69-5-22-52 5-148-5-17 5-46q16-22 40-40h918l74-5q21-13 40-35l29-45q19-19 45-29h46V556l-74 6H-94q-22-13-40-35l-11-39v-18h5l6-382-6-68-28-45q-23-15-52-23-16-13-34-34v-58h-177q-8 31-11 69l6 68v382l11 120v17h-6l-28 46q-28 5-57 22-16 20-29 46l-34 40-17 11-46-5z"/><glyph unicode="G" horiz-adv-x="1952" d="M-693 117v188h188l29 29 12 58-17 83 5 11v557l-5 47 5 12v23l12 53-23 53q-43 21-88 58-21 40-59 82l-59-5v193h171q21 8 41 24l5 17q-4 20-5 47h146q52-10 65-82l52-6h328q14 2 24 12 3 67 64 76h123l18-6q2-38 17-82l540-6 29-29 59-82 70-6v-182l-18-12H515l-12 6-24-11-23-36 6-70V439l-6-17-6-53 24-59 41-11 17 6h329l17-6q42-21 70-71 32-38 94-47l12-52V-12H397q-27-5-58-23v-59l-141-6q-58 6-64 77Q74-12 5-12h-264l-17-5-12-83h-193v65q-19 17-47 29-39 29-65 82-40 28-100 41zm516 258l12-47q27-16 59-23H57l53-6 18 6q16 19 29 46l6 53-6 18-6 650 6 77q-1 34-12 70-19 17-47 29l-245-6-24-52-6-18 6-53 6-650-6-77z"/><glyph unicode="H" horiz-adv-x="2153" d="M-728 685v200l82 6 81-6q28 5 57 19l25 63-13 68v19h-6l6 57v337q7 30 25 63 18 20 44 38l56 31 6 75h176q18-29 25-63l-7-588-6-19 6-50q15-25 38-50h675q20 19 38 44 5 21 6 50l-6 19-6 250 6 75-6 82 6 75 31 56 63 25q20 22 31 50v44h132q37-1 75-13l-19-657q3-32 19-68 21-20 50-32 22-18 44-44l31-50q21-20 50-31h50l-6-206-163 6q-30-8-56-32-14-28-19-62l12-69V59l-6-56 6-18 7-163q-19-31-57-32H705q-2 55-19 88l-56 25q-23 18-44 44l-12 75v338l6 81 6 19-6 50-38 50h-675l-38-44-6-50 6-19 7-419-13-69q-13-27-37-50-23-13-50-18-20-25-32-57v-44h-131q-38 1-75 13l6 163v425l13 69q-4 35-19 68-21 21-50 32l-50 37q-11 26-32 50-15 22-37 44z"/><glyph unicode="I" horiz-adv-x="1194" d="M222-170v1760h56q34 36 37 93h205L514 41l-6-24q-13-44-56-81-48-15-69-62v-44H222zM843-64l6 93v1467l6 19 13 13q26 36 74 62 35 35 38 93h161V-45q-26-35-81-37l-12-88H874q-25 46-31 106z"/><glyph unicode="J" horiz-adv-x="2040" d="M-503 131v179h160l19-6 1087 6q39 12 70 39l6 64-6 19-6 850 6 13-6 115 25 96 83 38q18 43 26 96h211l-7-1125q-1-45-12-109 3-46 32-89 38-17 76-45l45-70 96-32V-34l-141 6-83-13-6-19-13-64 6-19v-19l7-51q-1-27-13-52H961v52q-18 38-64 57-27 27-51 64l-58 70-1080-6q-42 15-83 44l-44 77q-43 6-84 38z"/><glyph unicode="K" horiz-adv-x="2134" d="M-568 697v201l82 6 82-6q28 5 56 19l25 63-12 69v19h-7l7 56v339q7 29 25 63 18 20 44 37l56 32 6 75h176q18-29 25-63l-6-583-6-19 6-57q13-24 37-44l245-6q29 6 56 25 12 28 13 63l-13 584 7 50-7 19q19 30 57 31h150v-25q1-26 13-57l56-25 51-37q8-33 12-76v-426l-6-76q14-24 38-44l420-6q23-14 44-37l38-51q15-21 44-37h56V566l-590 6q-22-15-44-38l-6-75 6-421-6-81-44-44-56-25q-18-24-26-56-18-31-56-32H329v107l7 57-7 18 7 75v339l12 75-12 69q-25 20-57 32H28l-37-44-6-57 6-18 6-415-12-74q-14-24-38-44l-50-25q-20-22-32-51v-44h-131q-38 1-76 13v88l7 75v426l12 69q-3 35-19 69-21 21-50 32l-50 37q-11 27-31 51-16 22-38 44z"/><glyph unicode="L" horiz-adv-x="1880" d="M-683 163v142h181q23 29 40 67l-12 80v948q9 39 29 79 30 19 67 34 15 39 23 85h181l-6-1096 6-45-6-11v-40l-6-22 12-62q38-17 90-17h847q40-1 96-12l45-62q18-34 62-45h34V5L-270 0q-21-33-23-79l-51-6h-135v29q-3 37-40 61-34 18-56 57-20 26-51 51-48 2-57 50z"/><glyph unicode="M" horiz-adv-x="1890" d="M-588 1501q1 6 12 11h97q41 1 86 11 10 35 12 75h183l6-17q5-35 29-69h366l17 6 23 80h178v-23q5-31 23-63h263l12 17q0 40 34 69h161v-40q15-30 46-52 26-21 51-51l40-58q38-1 69-28v-166H931l-23-23-12-81 12-91V119l-6-34 6-12 6-183H725v64q-27 19-64 34-25 22-45 57-9 40-12 86v894l6 92q-1 33-12 74-35 10-74 12h-75l-17-6q-16-32-23-75l6-986 6-22-12-64q-10-31-40-56-31-14-63-35 0-40-34-69H111V28q6 39 6 91v894l-6 46 12 35v45l-12 46q-27 14-63 18H-54l-29-64 6-962 5-18V79l-5-17q-13-32-35-63l-63-28q-12-33-17-75l-178-6q-6 1-11 12v97q5 40 6 92v957l-6 6 6 17 11 63-6 23q-15 26-40 51-32 16-63 40-16 29-40 58-30 13-69 17z"/><glyph unicode="N" horiz-adv-x="1910" d="M-638 1542h277q27 3 58 18l6 70h159q28-17 29-53 14-20 41-35h704q30 1 59 18l12 64 194 6v-41q9-25 29-47l47-29 70-94q31-1 65-12v-159q-27-17-59-23l-147-6-23-53 12-1010-6-70 12-65v-82q-2-30-18-59H724q-12 31-17 65-19 17-47 29L613 3l-24 59-6 934 12 147q-3 27-17 58-18 18-47 30l-71-6H-91l-24-53-6-18 6-47V168l6-77-12-64q-17-22-41-41l-47-17q-15-23-23-53-6-30-41-36h-83q-35 1-70 12l6 147v1021l6 59 6 18-6 53q-15 16-36 35l-52 29q-18 25-30 53l-41 35-59 6z"/><glyph unicode="O" horiz-adv-x="2090" d="M-828 104v197l1574-5 63-5 41-26q17-39 47-84l57-10q25-11 26-42V20q-1-6-10-10H-677q-27 0-57 10l5 52-41 32-42-6zm0 1324v130H876q9-47 42-88h62v-203l-68 5H-589l-62 5q-21 10-41 26l-47 78q-59 3-89 47z"/><glyph unicode="P" horiz-adv-x="1973" d="M-578 1390v186l102 12h222q16 41 24 90h192v-42q15-39 60-48h1002l12-6q31-22 60-54l48-66h66v-198H-2q-27-23-48-60L-38 88q-13-39-36-78l-66-36q-21-34-30-84h-192V22l6 12v1068l12 102-18 36q-28 22-66 42l-48 66q-23 26-60 42h-42z"/><glyph unicode="Q" horiz-adv-x="1840" d="M-688 113v186h181q27 30 39 78l-17 90 6 17v524l-6 51 17 62q-9 46-45 84-38 17-73 56-17 38-62 57h-40v186h169l34 22 6 17q-4 19-6 45h135q54-4 62-68 50-16 113-16h129q48 23 51 84h129q55-4 56-68 50-16 107-16h265q35 31 45 84h130q57-5 62-73 37-19 73-57 21-32 56-73h62v-174l-17-12H844q-47-7-74-56l12-118V501q-1-56-12-124 8-46 45-84 45-17 68-62 28-38 79-51h28V-5H810q-14-41-45-85H630q-25 27-51 79L213-5l-17-6-11-79H16Q2-46-29-5h-236l-23-6-11-79h-169q-13 46-51 85-36 23-67 61-24 40-73 57h-29zm496 247q8-25 23-50l123-17 45 22 17 51-11 62v619l-6 12 6 5 5 68q-11 50-61 73l-73-6q-27-2-51-16l-17-57 6-62V490l5-34-5-11zm484 0q10-60 79-61l67-6q22 8 45 22l11 57-11 62v568l6 107 5 23q-12 48-61 73l-74-6q-26-2-50-16-12-26-17-57l5-62V422z"/><glyph unicode="R" horiz-adv-x="1860" d="M-688 737v76l6 71 147-6q27 3 53 23 13 22 24 53l-12 65v17h-6l12 41 6 47-6 18-24 47-53 29q-19 16-35 41l-29 42q-21 14-47 17-33 9-36 47v76l6 71h153q28 6 53 23l6 18q-5 20-6 47h158q31-6 36-41 8-25 29-47h839q27 1 59 12l12 64q31 9 70 12h124v-29l17-59q25-8 53-24l35-41 30-47 64-11 12-65v-129H880l-41-30-6-70 6-65-6-70q5-27 18-53 20-19 47-29 21-17 41-41l29-47q18-18 41-30h53V578l-47-12-18 6h-70q-30-1-65-11l-29-47 12-447-6-17q4-20 6-47l6-147-194-6v36q-5 25-18 53l-59 17q-18 19-35 47l-12 64v306l12 117-6 18q-5 27-23 53l-65 11H-83q-27 0-58-11-17-22-30-53l12-441-12-64q-13-22-35-41-21-13-47-18l-29-47v-47h-188l-6 71 6 70v388l12 140-30 42-53 23q-19 18-35 47l-29 41q-20 14-47 18-33 9-36 47zm517 229l6-24q12-48 65-64h598l35 23 12 53-6 59 6 123q-16 44-64 65l-616-6-12-6-24-71 6-135z"/><glyph unicode="S" horiz-adv-x="1921" d="M-598 54v195H66q33 7 66 24l6 83-6 65 6 24-6 95q-31 20-71 30h-492l-12 12q-26 22-48 53-20 27-47 53l-18 6-42-6v196h149q42-6 95-6H55q36 6 71 24l12 83-6 89 6 65-6 24q-23 25-60 42-42-6-94-6h-392l-11 6q-28 19-54 47l-41 59q-34 11-78 18v184l18 6h813v6q12 39 17 83h190l6-18q4-35 18-71h510q33-13 65-36l42-65q33-17 77-24l12-89v-106H476l-18-6q-16-34-24-77V926q21-26 54-48h510l59-47 36-65q39-6 77-24V564l-700 6-24-24-12-83 6-101-6-65 6-24q34-17 77-24h410l89-11q24-26 41-60l48-53h65V-71H399q-38-3-77-23v-66H126v54q-26 25-65 35h-409q-42 2-89 12-26 22-48 54-19 26-47 53z"/><glyph unicode="T" horiz-adv-x="1794" d="M-588 1295v169h788q12 40 17 84h186v-34q11-28 39-50h473l40-23 45-62q26-29 67-34 22-39 23-90v-79q-2-10-11-17H442q-29-18-50-50l11-1239H217v57q-25 23-62 39-27 28-50 62l-6 95 6 102v743l-6 45 11 45v45l-17 45q-37 10-78 11h-428l-62 46-39 61q-34 11-74 29z"/><glyph unicode="U" horiz-adv-x="1550" d="M-470-145v1667h53q33 34 36 88h194l-6-1537-6-18 6-6V32q-20-40-65-65-34-22-58-64v-48h-154zm1095 0l6 212v1366l6 18 12 12q28 29 71 53 32 36 35 94h153V-21q-19-38-77-47l-11-77H625z"/><glyph unicode="V" horiz-adv-x="1874" d="M-528 102v80q1 31 18 63h149q23 9 46 29l11 52-11 68-6 18q4 19 6 46v917q8 24 22 51 18 20 46 35l46 28 6 69h155q28-17 28-52l-5-1066 5-34-5-12-6-91q8-22 23-46 30-8 68-12h533l29-5 11 5 12 12 23 52-12 63v842l6 40-6 12v91l12 63q19 20 45 35l46 28q13 27 18 58 30 12 63 17h126l-6-1169-12-63q4-27 18-58 19-18 46-28l45-35 23-51q20-19 46-29h46l-6-189h-149q-27-6-51-22-1-31-18-64H807q-16 27-22 58-19 19-46 28H-98q-20-13-34-40v-46h-189l-6 69-92 63-23 51q-26 16-57 23-26 13-29 46z"/><glyph unicode="W" horiz-adv-x="1774" d="M-498 93v179l18 6h98q40 1 86 11 14 30 18 70l-12 74q6 41 6 93v899l34 63q32 13 64 35 16 34 23 75H15l6-17-6-1090 6-46-6-17-6-98 6-18q24-21 58-34h75l17-6q27 17 52 46l6 23-12 64-6 985q7 38 23 75 26 23 64 41 22 24 34 57v35h191L505 335q11-31 40-57h98q32 5 58 29l12 40-6 17-6 911 6 17-6 75 12 87q21 24 52 46 30 16 57 40v58h190v-133l-5-17V457l-12-93q6-37 23-75l64-34 40-58q23-25 58-40h40V-33h-173q-24-25-35-63v-24H834l-23 81-387 6q-19-26-28-63v-24H217q-10 36-29 75l-86 12H-77l-11-6-23-81h-179v24q-6 34-29 63l-63 40q-15 31-41 57-33 17-75 29z"/><glyph unicode="X" horiz-adv-x="1860" d="M-548 733v166h144l11-6H42l46 6 12-6h17l17 6q24 33 29 80l-12 413q3 40 29 80 30 22 69 40 21 35 23 86h189v-126l-6-12-6-515 6-18q30-22 69-34h435q42-1 75-34l46-69q40-8 80-29V589l-665 6q-10-2-17-11-26-33-29-81l12-407-6-11-23-86-80-28q-7-41-29-81H151V28l6 17v418l6 12-6 80-6 17q-33 21-80 23h-435q-41 8-69 46l-46 63q-36 3-69 29z"/><glyph unicode="Y" horiz-adv-x="1837" d="M-588 710v170q40 16 91 17l1053-6 12 6q27 29 34 79l-12 295 6 11-6 102 23 85 73 34q16 38 23 85h187l-17-640 6-17q27-25 62-45 28-27 51-63 21-25 57-45h45V602l-45-11-46 6h-79q-10-3-17-12-23-31-34-73l11-97V115l-5-17 11-181q-2-10-11-17H709v40q-14 38-56 57-33 16-51 56l-12 402 6 11 6 57-6 40q-31 22-68 34h-951l-17 11q-25 22-46 57-24 26-56 51-20-4-46-6z"/><glyph unicode="Z" horiz-adv-x="1858" d="M-468 65v161q10 33 48 36l632-6 48 24q9 24 12 53l-6 728h-6l12 42-6 72q-13 23-36 41l-18 6q-20-4-48-6h-399l-71 12-42 36-30 48q-14 17-36 30h-54v191l788 6q30 2 59 17l6 72h197l-6-42 30-47h477q31-2 66-12l42-36 30-54q23-16 53-24 33-9 36-48v-77q-1-36-12-72H666l-72-6-24-53 6-72-6-788q17-19 42-35h477l66-12 42-42 24-54q28-12 59-18 29-17 30-53V0q-1-31-18-60H499q-25-12-42-36v-54H272l-18 66q-22 18-54 24h-477q-28 11-53 30-16 19-30 47l-36 42z"/><glyph unicode="[" horiz-adv-x="1044" d="M-242 30v216h151q30 14 54 46l5 26-10 72v713l10 105q-7 37-26 72l-60 52q-19 29-37 66-23 24-54 39h-33v203l167 7q8 0 11 13 13 38 16 85h178v-26q0-47 37-72h97q39-13 86-14h87l10-6q29-21 54-52l38-66q40-7 54-59v-170l-313 7-16 6-5-6q-17-36-27-79l5-765h6l-6-20v-26q-2-33-10-72l10-20q4-37 22-72h183v7h97l38-7 10 13 6-39V24l-27 6q-32-12-65-38l-37-72q-30-29-76-33l-178 6-70-6-5-20-5-72H-48l6 33-6 20q-17 32-48 58-24 27-43 66l-49 58-16 7z"/><glyph unicode="\" horiz-adv-x="1018" d="M-442 1541l48 23q15 44-5 95l177 81L414 341l2-19 8-3 7-16q-2-45-32-86-22-34-26-83l20-43-140-64z"/><glyph unicode="]" horiz-adv-x="1074" d="M670 24v183l6 39 11-13 39 7h101v-7h191q19 35 22 72l11 20q-9 39-11 72v26l-5 20h5l6 765q-10 43-28 79l-6 6-17-6-325-7v170q15 52 56 59l39 66q27 31 56 52l12 6h89q50 1 90 14h101q39 25 39 72v26h185q3-47 17-85 4-13 11-13l174-7v-203h-34q-32-15-56-39-19-37-39-66l-62-52q-20-35-28-72l12-105V390l-12-72 6-26q26-32 56-46h157V30l-39 7-17-7-50-58q-21-39-45-66-32-26-51-58l-5-20 5-33h-185l-5 72-6 20-73 6-185-6q-48 4-78 33L765-8q-34 26-67 38z"/><glyph unicode="^" horiz-adv-x="796" d="M-486 1268l190 293q12 18 30 34 19-6 39-1l84 129q12 18 30 34 18 2 39-1l33 24 45-30-19-44-168-259q-10-15-26-27-16 6-35 6l-113-167-38-5q-18-4-34-18zm277 502l41 36 37-30 207-228q12-14 20-33-11-14-15-32l133-152-6-38q0-18 10-37l-47-47-234 258q-13 16-24 38 10 17 10 38l-103 114q-14 15-25 38 3 17 11 37z"/><glyph unicode="_" horiz-adv-x="1698" d="M-897 23v107H554l5-61q40-8 72-41V-79H-820l-5 61q-40 8-72 41z"/><glyph unicode="`" horiz-adv-x="2073" d="M-93 9v147l11 34 1648-11q87-39 158-124l80-11q0-80-23-170H122Q29-106-59-23-80-13-93 9zm0 678v147l11 34 114-11h1580q37-33 68-78 31-33 79-57 27-4 45-23V541l-11-34-135 11H223L87 529q-34 33-67 80l-79 44zm0 644v170h1785q8-47 32-101h80v-204H143q-83 41-156 124z"/><glyph unicode="a" horiz-adv-x="683" d="M370-158v920q1 55 18 118 47 14 81 54v406q2 54 18 117 35 29 82 54l36 100h136l19-127V672q0-48-19-99-42-8-81-36L651 4l-73-63q-31-35-45-90z"/><glyph unicode="b" horiz-adv-x="2040" d="M147 278q2 55 32 107h150q32 29 53 75l-10 139q0 48-22 96l-85 64q-23 35-65 65-38 25-53 75 0 56 32 117h139q39 27 64 75l-10 129 10 54-10 21q-3 11-22 21l-85 65q-19 38-54 75-44 28-64 85 1 55 43 107h139q30 41 43 97h150q30-36 53-86l846-11q51 10 86 54 29 29 75 43l118-11q9-45 32-86l75-64q24-32 64-53 39-24 54-75-1-65-22-129-42-7-75-43l-10-32 10-236-10-85 10-22 97-32V738l-86-64-21-75 10-32-10-257h10q33-39 86-54l11-139q-41-39-97-54-54-1-117-21-20-44-65-75l-139 11q-9 50-54 85H597l-43-96H415l-65 86-85 53q-22 44-65 75-39 40-53 97zm525 182q20-44 64-75h760q19 49 22 107l10 128q-21 48-64 86H714l-42-107 10-107zm0 631q19-43 64-75h760q18 51 22 108l10 139q-22 42-64 75H714q-26-46-32-107z"/><glyph unicode="c" horiz-adv-x="1913" d="M90 284v123h178l34 39 5 50-5 16-6 663 11 61-17 45q-21 15-50 28-19 16-39 38l-27 45-39 28H90v172l150 6q27 6 50 22l6 17q-4 19-6 45h151q30-9 33-45 11-23 34-39h1041q28-4 61-17l33-39 28-50 56-16q15-19 22-45v-72q0-30-17-62l-122 6-17-6-67 6H636q-23-9-45-28l-11-44 6-17V546l-6-67q4-28 17-61l61-11h1091V228l-56-5q-20-16-39-39l-27-45q-19-17-45-27l-72-6H541q-29-1-56-17l-11-61-145-5q-25 0-39 27-4 28-16 56l-50 22-67 89-39 11-17-5z"/><glyph unicode="d" horiz-adv-x="1918" d="M-1068 73v171l6 24h136q47 2 83 41l6 47-6 18-6 41-6 18 6 41v585l12 83-6 17q-18 41-65 65-32 28-59 71-28 35-77 42-22 50-24 112v82h184l29 24 6 18q-4 20-6 47h195l6-65 12-24h885q38 28 41 83l195 6 6-65 77-53 47-83 83-12v-171q-50-22-112-24h-83l-12-5q-2-11-12-18l-11-53 11-709-11-95 6-17q22-39 70-59 29-28 60-77 33-33 88-36l6-194H521l-24-6q-10-46-47-83H314q-30 30-47 83l-886 6-23-6q-10-46-48-83h-129q-45 22-48 83-41 16-82 53-23 37-59 71zm520 248l6-18q31-24 71-35H60l65-6 24 11 23 77-12 632 12 160-6 35q-23 24-59 41l-613-6-18-5q-16-39-24-83l6-632 6-53-6-18z"/><glyph unicode="e" horiz-adv-x="1698" d="M-903 745v166H548l5-94q41-12 72-62V589H-826l-5 94q-39 12-72 62z"/><glyph unicode="f" horiz-adv-x="1987" d="M-648 864h120l46-6 17 6q17 17 34 40l6 46-6 17-5 62 11 63-17 57q-23 15-51 29-22 16-40 40l-29 45q-16 15-40 23h-46v183l155 5q27 7 51 23l6 17q-5 20-6 46h154q31-9 34-46 11-22 34-40H852l63-17 63-91 63-11q8-31 11-69v-120H-54l-69-5-22-52 5-148-5-17 5-46q16-22 40-40h918l74-5q21-13 40-35l29-45q19-19 45-29h46V556l-74 6H-94q-22-13-40-35l-11-39v-18h5l6-382-6-68-28-45q-23-15-52-23-16-13-34-34v-58h-177q-8 31-11 69l6 68v382l11 120v17h-6l-28 46q-28 5-57 22-16 20-29 46l-34 40-17 11-46-5z"/><glyph unicode="g" horiz-adv-x="1952" d="M-693 117v188h188l29 29 12 58-17 83 5 11v557l-5 47 5 12v23l12 53-23 53q-43 21-88 58-21 40-59 82l-59-5v193h171q21 8 41 24l5 17q-4 20-5 47h146q52-10 65-82l52-6h328q14 2 24 12 3 67 64 76h123l18-6q2-38 17-82l540-6 29-29 59-82 70-6v-182l-18-12H515l-12 6-24-11-23-36 6-70V439l-6-17-6-53 24-59 41-11 17 6h329l17-6q42-21 70-71 32-38 94-47l12-52V-12H397q-27-5-58-23v-59l-141-6q-58 6-64 77Q74-12 5-12h-264l-17-5-12-83h-193v65q-19 17-47 29-39 29-65 82-40 28-100 41zm516 258l12-47q27-16 59-23H57l53-6 18 6q16 19 29 46l6 53-6 18-6 650 6 77q-1 34-12 70-19 17-47 29l-245-6-24-52-6-18 6-53 6-650-6-77z"/><glyph unicode="h" horiz-adv-x="2153" d="M-728 685v200l82 6 81-6q28 5 57 19l25 63-13 68v19h-6l6 57v337q7 30 25 63 18 20 44 38l56 31 6 75h176q18-29 25-63l-7-588-6-19 6-50q15-25 38-50h675q20 19 38 44 5 21 6 50l-6 19-6 250 6 75-6 82 6 75 31 56 63 25q20 22 31 50v44h132q37-1 75-13l-19-657q3-32 19-68 21-20 50-32 22-18 44-44l31-50q21-20 50-31h50l-6-206-163 6q-30-8-56-32-14-28-19-62l12-69V59l-6-56 6-18 7-163q-19-31-57-32H705q-2 55-19 88l-56 25q-23 18-44 44l-12 75v338l6 81 6 19-6 50-38 50h-675l-38-44-6-50 6-19 7-419-13-69q-13-27-37-50-23-13-50-18-20-25-32-57v-44h-131q-38 1-75 13l6 163v425l13 69q-4 35-19 68-21 21-50 32l-50 37q-11 26-32 50-15 22-37 44z"/><glyph unicode="i" horiz-adv-x="1194" d="M222-170v1760h56q34 36 37 93h205L514 41l-6-24q-13-44-56-81-48-15-69-62v-44H222zM843-64l6 93v1467l6 19 13 13q26 36 74 62 35 35 38 93h161V-45q-26-35-81-37l-12-88H874q-25 46-31 106z"/><glyph unicode="j" horiz-adv-x="2040" d="M-503 131v179h160l19-6 1087 6q39 12 70 39l6 64-6 19-6 850 6 13-6 115 25 96 83 38q18 43 26 96h211l-7-1125q-1-45-12-109 3-46 32-89 38-17 76-45l45-70 96-32V-34l-141 6-83-13-6-19-13-64 6-19v-19l7-51q-1-27-13-52H961v52q-18 38-64 57-27 27-51 64l-58 70-1080-6q-42 15-83 44l-44 77q-43 6-84 38z"/><glyph unicode="k" horiz-adv-x="2134" d="M-568 697v201l82 6 82-6q28 5 56 19l25 63-12 69v19h-7l7 56v339q7 29 25 63 18 20 44 37l56 32 6 75h176q18-29 25-63l-6-583-6-19 6-57q13-24 37-44l245-6q29 6 56 25 12 28 13 63l-13 584 7 50-7 19q19 30 57 31h150v-25q1-26 13-57l56-25 51-37q8-33 12-76v-426l-6-76q14-24 38-44l420-6q23-14 44-37l38-51q15-21 44-37h56V566l-590 6q-22-15-44-38l-6-75 6-421-6-81-44-44-56-25q-18-24-26-56-18-31-56-32H329v107l7 57-7 18 7 75v339l12 75-12 69q-25 20-57 32H28l-37-44-6-57 6-18 6-415-12-74q-14-24-38-44l-50-25q-20-22-32-51v-44h-131q-38 1-76 13v88l7 75v426l12 69q-3 35-19 69-21 21-50 32l-50 37q-11 27-31 51-16 22-38 44z"/><glyph unicode="l" horiz-adv-x="1866" d="M-683 163v142h181q23 29 40 67l-12 80v948q9 39 29 79 30 19 67 34 15 39 23 85h181l-6-1096 6-45-6-11v-40l-6-22 12-62q38-17 90-17h847q40-1 96-12l45-62q18-34 62-45h34V5L-270 0q-21-33-23-79l-51-6h-135v29q-3 37-40 61-34 18-56 57-20 26-51 51-48 2-57 50z"/><glyph unicode="m" horiz-adv-x="1890" d="M-588 1501q1 6 12 11h97q41 1 86 11 10 35 12 75h183l6-17q5-35 29-69h366l17 6 23 80h178v-23q5-31 23-63h263l12 17q0 40 34 69h161v-40q15-30 46-52 26-21 51-51l40-58q38-1 69-28v-166H931l-23-23-12-81 12-91V119l-6-34 6-12 6-183H725v64q-27 19-64 34-25 22-45 57-9 40-12 86v894l6 92q-1 33-12 74-35 10-74 12h-75l-17-6q-16-32-23-75l6-986 6-22-12-64q-10-31-40-56-31-14-63-35 0-40-34-69H111V28q6 39 6 91v894l-6 46 12 35v45l-12 46q-27 14-63 18H-54l-29-64 6-962 5-18V79l-5-17q-13-32-35-63l-63-28q-12-33-17-75l-178-6q-6 1-11 12v97q5 40 6 92v957l-6 6 6 17 11 63-6 23q-15 26-40 51-32 16-63 40-16 29-40 58-30 13-69 17z"/><glyph unicode="n" horiz-adv-x="1910" d="M-638 1542h277q27 3 58 18l6 70h159q28-17 29-53 14-20 41-35h704q30 1 59 18l12 64 194 6v-41q9-25 29-47l47-29 70-94q31-1 65-12v-159q-27-17-59-23l-147-6-23-53 12-1010-6-70 12-65v-82q-2-30-18-59H724q-12 31-17 65-19 17-47 29L613 3l-24 59-6 934 12 147q-3 27-17 58-18 18-47 30l-71-6H-91l-24-53-6-18 6-47V168l6-77-12-64q-17-22-41-41l-47-17q-15-23-23-53-6-30-41-36h-83q-35 1-70 12l6 147v1021l6 59 6 18-6 53q-15 16-36 35l-52 29q-18 25-30 53l-41 35-59 6z"/><glyph unicode="o" horiz-adv-x="2090" d="M-828 104v197l1574-5 63-5 41-26q17-39 47-84l57-10q25-11 26-42V20q-1-6-10-10H-677q-27 0-57 10l5 52-41 32-42-6zm0 1324v130H876q9-47 42-88h62v-203l-68 5H-589l-62 5q-21 10-41 26l-47 78q-59 3-89 47z"/><glyph unicode="p" horiz-adv-x="1973" d="M-578 1390v186l102 12h222q16 41 24 90h192v-42q15-39 60-48h1002l12-6q31-22 60-54l48-66h66v-198H-2q-27-23-48-60L-38 88q-13-39-36-78l-66-36q-21-34-30-84h-192V22l6 12v1068l12 102-18 36q-28 22-66 42l-48 66q-23 26-60 42h-42z"/><glyph unicode="q" horiz-adv-x="1840" d="M-688 113v186h181q27 30 39 78l-17 90 6 17v524l-6 51 17 62q-9 46-45 84-38 17-73 56-17 38-62 57h-40v186h169l34 22 6 17q-4 19-6 45h135q54-4 62-68 50-16 113-16h129q48 23 51 84h129q55-4 56-68 50-16 107-16h265q35 31 45 84h130q57-5 62-73 37-19 73-57 21-32 56-73h62v-174l-17-12H844q-47-7-74-56l12-118V501q-1-56-12-124 8-46 45-84 45-17 68-62 28-38 79-51h28V-5H810q-14-41-45-85H630q-25 27-51 79L213-5l-17-6-11-79H16Q2-46-29-5h-236l-23-6-11-79h-169q-13 46-51 85-36 23-67 61-24 40-73 57h-29zm496 247q8-25 23-50l123-17 45 22 17 51-11 62v619l-6 12 6 5 5 68q-11 50-61 73l-73-6q-27-2-51-16l-17-57 6-62V490l5-34-5-11zm484 0q10-60 79-61l67-6q22 8 45 22l11 57-11 62v568l6 107 5 23q-12 48-61 73l-74-6q-26-2-50-16-12-26-17-57l5-62V422z"/><glyph unicode="r" horiz-adv-x="1860" d="M-688 737v76l6 71 147-6q27 3 53 23 13 22 24 53l-12 65v17h-6l12 41 6 47-6 18-24 47-53 29q-19 16-35 41l-29 42q-21 14-47 17-33 9-36 47v76l6 71h153q28 6 53 23l6 18q-5 20-6 47h158q31-6 36-41 8-25 29-47h839q27 1 59 12l12 64q31 9 70 12h124v-29l17-59q25-8 53-24l35-41 30-47 64-11 12-65v-129H880l-41-30-6-70 6-65-6-70q5-27 18-53 20-19 47-29 21-17 41-41l29-47q18-18 41-30h53V578l-47-12-18 6h-70q-30-1-65-11l-29-47 12-447-6-17q4-20 6-47l6-147-194-6v36q-5 25-18 53l-59 17q-18 19-35 47l-12 64v306l12 117-6 18q-5 27-23 53l-65 11H-83q-27 0-58-11-17-22-30-53l12-441-12-64q-13-22-35-41-21-13-47-18l-29-47v-47h-188l-6 71 6 70v388l12 140-30 42-53 23q-19 18-35 47l-29 41q-20 14-47 18-33 9-36 47zm517 229l6-24q12-48 65-64h598l35 23 12 53-6 59 6 123q-16 44-64 65l-616-6-12-6-24-71 6-135z"/><glyph unicode="s" horiz-adv-x="1921" d="M-598 54v195H66q33 7 66 24l6 83-6 65 6 24-6 95q-31 20-71 30h-492l-12 12q-26 22-48 53-20 27-47 53l-18 6-42-6v196h149q42-6 95-6H55q36 6 71 24l12 83-6 89 6 65-6 24q-23 25-60 42-42-6-94-6h-392l-11 6q-28 19-54 47l-41 59q-34 11-78 18v184l18 6h813v6q12 39 17 83h190l6-18q4-35 18-71h510q33-13 65-36l42-65q33-17 77-24l12-89v-106H476l-18-6q-16-34-24-77V926q21-26 54-48h510l59-47 36-65q39-6 77-24V564l-700 6-24-24-12-83 6-101-6-65 6-24q34-17 77-24h410l89-11q24-26 41-60l48-53h65V-71H399q-38-3-77-23v-66H126v54q-26 25-65 35h-409q-42 2-89 12-26 22-48 54-19 26-47 53z"/><glyph unicode="t" horiz-adv-x="1794" d="M-588 1295v169h788q12 40 17 84h186v-34q11-28 39-50h473l40-23 45-62q26-29 67-34 22-39 23-90v-79q-2-10-11-17H442q-29-18-50-50l11-1239H217v57q-25 23-62 39-27 28-50 62l-6 95 6 102v743l-6 45 11 45v45l-17 45q-37 10-78 11h-428l-62 46-39 61q-34 11-74 29z"/><glyph unicode="u" horiz-adv-x="1550" d="M-470-145v1667h53q33 34 36 88h194l-6-1537-6-18 6-6V32q-20-40-65-65-34-22-58-64v-48h-154zm1095 0l6 212v1366l6 18 12 12q28 29 71 53 32 36 35 94h153V-21q-19-38-77-47l-11-77H625z"/><glyph unicode="v" horiz-adv-x="1874" d="M-528 102v80q1 31 18 63h149q23 9 46 29l11 52-11 68-6 18q4 19 6 46v917q8 24 22 51 18 20 46 35l46 28 6 69h155q28-17 28-52l-5-1066 5-34-5-12-6-91q8-22 23-46 30-8 68-12h533l29-5 11 5 12 12 23 52-12 63v842l6 40-6 12v91l12 63q19 20 45 35l46 28q13 27 18 58 30 12 63 17h126l-6-1169-12-63q4-27 18-58 19-18 46-28l45-35 23-51q20-19 46-29h46l-6-189h-149q-27-6-51-22-1-31-18-64H807q-16 27-22 58-19 19-46 28H-98q-20-13-34-40v-46h-189l-6 69-92 63-23 51q-26 16-57 23-26 13-29 46z"/><glyph unicode="w" horiz-adv-x="1774" d="M-498 93v179l18 6h98q40 1 86 11 14 30 18 70l-12 74q6 41 6 93v899l34 63q32 13 64 35 16 34 23 75H15l6-17-6-1090 6-46-6-17-6-98 6-18q24-21 58-34h75l17-6q27 17 52 46l6 23-12 64-6 985q7 38 23 75 26 23 64 41 22 24 34 57v35h191L505 335q11-31 40-57h98q32 5 58 29l12 40-6 17-6 911 6 17-6 75 12 87q21 24 52 46 30 16 57 40v58h190v-133l-5-17V457l-12-93q6-37 23-75l64-34 40-58q23-25 58-40h40V-33h-173q-24-25-35-63v-24H834l-23 81-387 6q-19-26-28-63v-24H217q-10 36-29 75l-86 12H-77l-11-6-23-81h-179v24q-6 34-29 63l-63 40q-15 31-41 57-33 17-75 29z"/><glyph unicode="x" horiz-adv-x="1860" d="M-548 733v166h144l11-6H42l46 6 12-6h17l17 6q24 33 29 80l-12 413q3 40 29 80 30 22 69 40 21 35 23 86h189v-126l-6-12-6-515 6-18q30-22 69-34h435q42-1 75-34l46-69q40-8 80-29V589l-665 6q-10-2-17-11-26-33-29-81l12-407-6-11-23-86-80-28q-7-41-29-81H151V28l6 17v418l6 12-6 80-6 17q-33 21-80 23h-435q-41 8-69 46l-46 63q-36 3-69 29z"/><glyph unicode="y" horiz-adv-x="1837" d="M-588 710v170q40 16 91 17l1053-6 12 6q27 29 34 79l-12 295 6 11-6 102 23 85 73 34q16 38 23 85h187l-17-640 6-17q27-25 62-45 28-27 51-63 21-25 57-45h45V602l-45-11-46 6h-79q-10-3-17-12-23-31-34-73l11-97V115l-5-17 11-181q-2-10-11-17H709v40q-14 38-56 57-33 16-51 56l-12 402 6 11 6 57-6 40q-31 22-68 34h-951l-17 11q-25 22-46 57-24 26-56 51-20-4-46-6z"/><glyph unicode="z" horiz-adv-x="1858" d="M-468 65v161q10 33 48 36l632-6 48 24q9 24 12 53l-6 728h-6l12 42-6 72q-13 23-36 41l-18 6q-20-4-48-6h-399l-71 12-42 36-30 48q-14 17-36 30h-54v191l788 6q30 2 59 17l6 72h197l-6-42 30-47h477q31-2 66-12l42-36 30-54q23-16 53-24 33-9 36-48v-77q-1-36-12-72H666l-72-6-24-53 6-72-6-788q17-19 42-35h477l66-12 42-42 24-54q28-12 59-18 29-17 30-53V0q-1-31-18-60H499q-25-12-42-36v-54H272l-18 66q-22 18-54 24h-477q-28 11-53 30-16 19-30 47l-36 42z"/><glyph unicode="{" horiz-adv-x="1044" d="M-242 30v216h151q30 14 54 46l5 26-10 72v713l10 105q-7 37-26 72l-60 52q-19 29-37 66-23 24-54 39h-33v203l167 7q8 0 11 13 13 38 16 85h178v-26q0-47 37-72h97q39-13 86-14h87l10-6q29-21 54-52l38-66q40-7 54-59v-170l-313 7-16 6-5-6q-17-36-27-79l5-765h6l-6-20v-26q-2-33-10-72l10-20q4-37 22-72h183v7h97l38-7 10 13 6-39V24l-27 6q-32-12-65-38l-37-72q-30-29-76-33l-178 6-70-6-5-20-5-72H-48l6 33-6 20q-17 32-48 58-24 27-43 66l-49 58-16 7z"/><glyph unicode="|" horiz-adv-x="727" d="M843-64l6 93v1467l6 19 13 13q26 36 74 62 35 35 38 93h161V-45q-26-35-81-37l-12-88H874q-25 46-31 106z"/><glyph unicode="}" horiz-adv-x="1074" d="M670 24v183l6 39 11-13 39 7h101v-7h191q19 35 22 72l11 20q-9 39-11 72v26l-5 20h5l6 765q-10 43-28 79l-6 6-17-6-325-7v170q15 52 56 59l39 66q27 31 56 52l12 6h89q50 1 90 14h101q39 25 39 72v26h185q3-47 17-85 4-13 11-13l174-7v-203h-34q-32-15-56-39-19-37-39-66l-62-52q-20-35-28-72l12-105V390l-12-72 6-26q26-32 56-46h157V30l-39 7-17-7-50-58q-21-39-45-66-32-26-51-58l-5-20 5-33h-185l-5 72-6 20-73 6-185-6q-48 4-78 33L765-8q-34 26-67 38z"/><glyph unicode="~" horiz-adv-x="1196"/><glyph unicode="¡" horiz-adv-x="682"/><glyph unicode="¢"/><glyph unicode="£"/><glyph unicode="¥"/><glyph unicode="¦" horiz-adv-x="532"/><glyph unicode="§"/><glyph unicode="¨" horiz-adv-x="682"/><glyph unicode="©" horiz-adv-x="1509"/><glyph unicode="ª" horiz-adv-x="758"/><glyph unicode="«"/><glyph unicode="¬" horiz-adv-x="1196"/><glyph unicode="­" horiz-adv-x="1132" d="M-584 770v125h911l4-71q25-9 45-48V651h-911l-4 72q-25 9-45 47z"/><glyph unicode="®" horiz-adv-x="1509"/><glyph unicode="¯" horiz-adv-x="1131"/><glyph unicode="°" horiz-adv-x="819"/><glyph unicode="±" horiz-adv-x="1124"/><glyph unicode="²" horiz-adv-x="682"/><glyph unicode="³" horiz-adv-x="682"/><glyph unicode="´" horiz-adv-x="682"/><glyph unicode="µ" horiz-adv-x="1180"/><glyph unicode="¶" horiz-adv-x="1100"/><glyph unicode="·" horiz-adv-x="682"/><glyph unicode="¸" horiz-adv-x="682"/><glyph unicode="¹" horiz-adv-x="682"/><glyph unicode="º" horiz-adv-x="748"/><glyph unicode="»"/><glyph unicode="¼" horiz-adv-x="1708"/><glyph unicode="½" horiz-adv-x="1708"/><glyph unicode="¾" horiz-adv-x="1708"/><glyph unicode="¿" horiz-adv-x="1251"/><glyph unicode="À" horiz-adv-x="1366"/><glyph unicode="Á" horiz-adv-x="1366"/><glyph unicode="Â" horiz-adv-x="1366"/><glyph unicode="Ã" horiz-adv-x="1366"/><glyph unicode="Ä" horiz-adv-x="1366"/><glyph unicode="Å" horiz-adv-x="1366"/><glyph unicode="Æ" horiz-adv-x="2048"/><glyph unicode="Ç" horiz-adv-x="1479"/><glyph unicode="È" horiz-adv-x="1366"/><glyph unicode="É" horiz-adv-x="1366"/><glyph unicode="Ê" horiz-adv-x="1366"/><glyph unicode="Ë" horiz-adv-x="1366"/><glyph unicode="Ì" horiz-adv-x="569"/><glyph unicode="Í" horiz-adv-x="569"/><glyph unicode="Î" horiz-adv-x="569"/><glyph unicode="Ï" horiz-adv-x="569"/><glyph unicode="Ð" horiz-adv-x="1479"/><glyph unicode="Ñ" horiz-adv-x="1479"/><glyph unicode="Ò" horiz-adv-x="1593"/><glyph unicode="Ó" horiz-adv-x="1593"/><glyph unicode="Ô" horiz-adv-x="1593"/><glyph unicode="Õ" horiz-adv-x="1593"/><glyph unicode="Ö" horiz-adv-x="1593"/><glyph unicode="×" horiz-adv-x="1196"/><glyph unicode="Ø" horiz-adv-x="1593"/><glyph unicode="Ù" horiz-adv-x="1479"/><glyph unicode="Ú" horiz-adv-x="1479"/><glyph unicode="Û" horiz-adv-x="1479"/><glyph unicode="Ü" horiz-adv-x="1479"/><glyph unicode="Ý" horiz-adv-x="1366"/><glyph unicode="Þ" horiz-adv-x="1366"/><glyph unicode="ß" horiz-adv-x="1251"/><glyph unicode="à"/><glyph unicode="á"/><glyph unicode="â"/><glyph unicode="ã"/><glyph unicode="ä"/><glyph unicode="å"/><glyph unicode="æ" horiz-adv-x="1821"/><glyph unicode="ç" horiz-adv-x="1024"/><glyph unicode="è"/><glyph unicode="é"/><glyph unicode="ê"/><glyph unicode="ë"/><glyph unicode="ì" horiz-adv-x="569"/><glyph unicode="í" horiz-adv-x="569"/><glyph unicode="î" horiz-adv-x="569"/><glyph unicode="ï" horiz-adv-x="569"/><glyph unicode="ð"/><glyph unicode="ñ"/><glyph unicode="ò"/><glyph unicode="ó"/><glyph unicode="ô"/><glyph unicode="õ"/><glyph unicode="ö"/><glyph unicode="÷" horiz-adv-x="1124"/><glyph unicode="ø" horiz-adv-x="1251"/><glyph unicode="ù"/><glyph unicode="ú"/><glyph unicode="û"/><glyph unicode="ü"/><glyph unicode="ý" horiz-adv-x="1024"/><glyph unicode="þ"/><glyph unicode="ÿ" horiz-adv-x="1024"/><glyph unicode="Œ" horiz-adv-x="2048"/><glyph unicode="œ" horiz-adv-x="1933"/><glyph unicode="Ÿ" horiz-adv-x="1366"/><glyph unicode="ˆ" horiz-adv-x="682"/><glyph unicode="˜" horiz-adv-x="682"/><glyph horiz-adv-x="905"/><glyph horiz-adv-x="1810"/><glyph horiz-adv-x="905"/><glyph horiz-adv-x="1810"/><glyph horiz-adv-x="603"/><glyph horiz-adv-x="452"/><glyph horiz-adv-x="301"/><glyph horiz-adv-x="301"/><glyph horiz-adv-x="226"/><glyph horiz-adv-x="362"/><glyph horiz-adv-x="100"/><glyph unicode="‐" horiz-adv-x="1132" d="M-584 770v125h911l4-71q25-9 45-48V651h-911l-4 72q-25 9-45 47z"/><glyph unicode="‑" horiz-adv-x="1132" d="M-584 770v125h911l4-71q25-9 45-48V651h-911l-4 72q-25 9-45 47z"/><glyph unicode="‒" horiz-adv-x="1132" d="M-584 770v125h911l4-71q25-9 45-48V651h-911l-4 72q-25 9-45 47z"/><glyph unicode="–"/><glyph unicode="—" horiz-adv-x="2048"/><glyph unicode="‘" horiz-adv-x="455"/><glyph unicode="’" horiz-adv-x="455"/><glyph unicode="‚" horiz-adv-x="455"/><glyph unicode="“" horiz-adv-x="682"/><glyph unicode="”" horiz-adv-x="682"/><glyph unicode="„" horiz-adv-x="682"/><glyph unicode="•" horiz-adv-x="717"/><glyph unicode="…" horiz-adv-x="2048"/><glyph horiz-adv-x="362"/><glyph unicode="‹" horiz-adv-x="682"/><glyph unicode="›" horiz-adv-x="682"/><glyph horiz-adv-x="452"/><glyph unicode="€"/><glyph unicode="™" horiz-adv-x="2048"/><glyph unicode="◼" horiz-adv-x="1600" d="M0 0v1600h1600V0H0z"/><glyph unicode="ﬁ" horiz-adv-x="1024"/><glyph unicode="ﬂ" horiz-adv-x="1024"/></font>
</defs>
</svg>
