<?xml version="1.0" standalone="no"?>
<!DOCTYPE svg PUBLIC "-//W3C//DTD SVG 1.1//EN" "http://www.w3.org/Graphics/SVG/1.1/DTD/svg11.dtd" >
<svg xmlns="http://www.w3.org/2000/svg">
<metadata></metadata>
<defs>
<font id="ClaWrite" horiz-adv-x="1139" >
<font-face units-per-em="2048" ascent="1638" descent="-410" />
<missing-glyph horiz-adv-x="569" />
<glyph horiz-adv-x="2048" />
<glyph horiz-adv-x="2048" />
<glyph unicode="&#xd;" horiz-adv-x="569" />
<glyph unicode=" "  horiz-adv-x="569" />
<glyph unicode="&#x09;" horiz-adv-x="569" />
<glyph unicode="&#xa0;" horiz-adv-x="569" />
<glyph unicode="!" horiz-adv-x="534" d="M843 378l6 70v1096l6 14l13 9q26 27 74 46q35 27 38 70h161v-1291q-26 -26 -81 -28l-12 -65h-174q-25 34 -31 79zM874 37v107h288l1 -61q8 -8 14 -41v-107h-287l-1 61q-8 8 -15 41z" />
<glyph unicode="&#x22;" horiz-adv-x="613" d="M55 1257l77 243q5 14 15 29q14 -1 27 7l34 107q5 14 15 29q12 5 27 7l19 23l38 -12l-6 -35l-68 -214q-4 -12 -13 -24q-12 1 -26 -3l-47 -139l-25 -10q-12 -7 -21 -20zM317 1280l88 231q6 13 17 27q14 -1 27 6l39 101q5 14 16 28q12 4 27 5l19 21l36 -14l-7 -33l-79 -204 q-4 -12 -14 -23q-12 3 -25 0l-54 -133l-25 -8q-12 -6 -21 -18z" />
<glyph unicode="#" />
<glyph unicode="$" />
<glyph unicode="%" horiz-adv-x="1821" />
<glyph unicode="&#x26;" horiz-adv-x="1366" />
<glyph unicode="'" horiz-adv-x="2073" d="M-93 9v147l11 34l1648 -11q87 -39 158 -124l80 -11q0 -80 -23 -170h-1659q-93 20 -181 103q-21 10 -34 32zM-93 687v147l11 34l114 -11h1580q37 -33 68 -78q31 -33 79 -57q27 -4 45 -23v-158l-11 -34l-135 11h-1435l-136 11q-34 33 -67 80l-79 44zM-93 1331v170h1785 q8 -47 32 -101h80v-204h-1661q-83 41 -156 124z" />
<glyph unicode="(" horiz-adv-x="1044" d="M-242 30v216h151q30 14 54 46l5 26l-10 72v713l10 105q-7 37 -26 72l-60 52q-19 29 -37 66q-23 24 -54 39h-33v203l167 7q8 0 11 13q13 38 16 85h178v-26q0 -47 37 -72h97q39 -13 86 -14h87l10 -6q29 -21 54 -52l38 -66q40 -7 54 -59v-170l-313 7l-16 6l-5 -6 q-17 -36 -27 -79l5 -765h6l-6 -20v-26q-2 -33 -10 -72l10 -20q4 -37 22 -72h183v7h97l38 -7l10 13l6 -39v-183l-27 6q-32 -12 -65 -38l-37 -72q-30 -29 -76 -33l-178 6l-70 -6l-5 -20l-5 -72h-178l6 33l-6 20q-17 32 -48 58q-24 27 -43 66l-49 58l-16 7z" />
<glyph unicode=")" horiz-adv-x="1074" d="M670 24v183l6 39l11 -13l39 7h101v-7h191q19 35 22 72l11 20q-9 39 -11 72v26l-5 20h5l6 765q-10 43 -28 79l-6 6l-17 -6l-325 -7v170q15 52 56 59l39 66q27 31 56 52l12 6h89q50 1 90 14h101q39 25 39 72v26h185q3 -47 17 -85q4 -13 11 -13l174 -7v-203h-34 q-32 -15 -56 -39q-19 -37 -39 -66l-62 -52q-20 -35 -28 -72l12 -105v-713l-12 -72l6 -26q26 -32 56 -46h157v-216l-39 7l-17 -7l-50 -58q-21 -39 -45 -66q-32 -26 -51 -58l-5 -20l5 -33h-185l-5 72l-6 20l-73 6l-185 -6q-48 4 -78 33l-40 72q-34 26 -67 38z" />
<glyph unicode="*" horiz-adv-x="1185" d="M-1008 1386l6 35l27 -2q8 10 17 15q17 -2 31 -8l103 -47q12 4 17 15q17 -3 31 -9l235 -106l-9 -41q-15 2 -25 -2l-19 -11l-136 59q-9 -8 -13 -18q-13 2 -26 7l-207 94zM-830 844l125 222q8 13 19 25q10 -6 21 -3l55 98q8 13 19 25q10 1 22 -2l19 17l23 -26l-14 -34 l-110 -196q-6 -11 -16 -20q-9 6 -19 6l-74 -126l-21 -2q-10 -2 -20 -13zM-577 1479q-1 15 2 31q11 2 19 11l-11 111q-1 15 1 32q8 6 19 10l7 25l33 -8l8 -36l21 -224q2 -13 -1 -26q-11 0 -20 -5l12 -146l-16 -13q-7 -8 -9 -22l-40 7zM-571 1219l10 18q4 10 1 24l40 8 l113 -228q6 -14 10 -30q-10 -5 -14 -16l50 -101q6 -13 10 -30q-5 -8 -14 -16l3 -26l-34 -4l-20 30l-100 202q-6 12 -8 25q10 3 16 12zM-536 1288l232 107q13 6 30 9q4 -10 15 -14l102 47q14 6 30 9q8 -5 16 -14l26 2l4 -34l-32 -20l-204 -94q-12 -5 -25 -7q-3 10 -11 17 l-134 -60l-18 11q-10 4 -24 1z" />
<glyph unicode="+" horiz-adv-x="1578" d="M-144 792v137h117l10 -5h357l38 5l10 -5h14l14 5q19 27 23 66l-9 339q3 33 23 66q26 18 57 33q18 28 19 70h155v-103l-4 -10l-5 -424l5 -14q24 -18 56 -28h358q34 -1 61 -28l38 -57q33 -6 66 -23v-142l-546 5q-8 -2 -15 -9q-21 -27 -23 -66l9 -335l-4 -9l-19 -71l-66 -24 q-6 -33 -24 -66h-141v114l5 14v344l4 9l-4 66l-5 14q-28 18 -66 19h-358q-34 7 -56 38l-38 51q-29 3 -56 24z" />
<glyph unicode="," horiz-adv-x="683" d="M-71 -336l189 293q12 17 31 33q19 -5 38 0l84 129q12 17 31 33q17 2 38 -1l33 24l46 -30l-20 -44l-168 -258q-10 -15 -26 -28q-16 7 -35 7l-113 -168l-38 -4q-18 -4 -33 -19z" />
<glyph unicode="-" horiz-adv-x="1132" d="M-584 770v125h911l4 -71q25 -9 45 -48v-125h-911l-4 72q-25 9 -45 47z" />
<glyph unicode="." horiz-adv-x="450" d="M-993 241v108h288l1 -61q8 -8 14 -41v-108h-287l-1 61q-8 8 -15 41z" />
<glyph unicode="/" horiz-adv-x="1350" d="M-600 215l927 1385l44 -30q46 11 78 54l162 -108l-859 -1274l-15 -12l2 -8l-10 -14q-39 -22 -90 -18q-41 0 -85 -21l-26 -40z" />
<glyph unicode="0" horiz-adv-x="1542" d="M-1016 -70h1658l6 -87q47 -11 82 -58v-154h-1657l-6 87q-45 11 -83 58v154z" />
<glyph unicode="1" horiz-adv-x="1542" d="M-1016 -70h1658l6 -87q47 -11 82 -58v-154h-1657l-6 87q-45 11 -83 58v154zM-334 1627l87 6q10 37 57 70l154 1l20 -1395l-87 -6q-10 -39 -57 -70l-154 -1z" />
<glyph unicode="2" horiz-adv-x="1542" d="M-1016 -70h1658l6 -87q47 -11 82 -58v-154h-1657l-6 87q-45 11 -83 58v154zM-614 1627l87 6q10 37 57 70l154 1l20 -1395l-87 -6q-10 -39 -57 -70l-154 -1zM-106 1627l87 6q11 37 57 70l154 1l20 -1395l-87 -6q-10 -39 -57 -70l-153 -1z" />
<glyph unicode="3" horiz-adv-x="1542" d="M-1016 -70h1658l6 -87q47 -11 82 -58v-154h-1657l-6 87q-45 11 -83 58v154zM-820 1611l87 6q10 37 57 70l154 1l20 -1395l-87 -6q-10 -39 -57 -70l-154 -1zM-329 1610l87 5q10 38 57 70l154 2l20 -1395l-87 -6q-10 -40 -57 -70l-154 -2zM167 1611l87 6q10 37 57 70l154 1 l20 -1395l-87 -6q-10 -39 -57 -70l-154 -1z" />
<glyph unicode="4" horiz-adv-x="1542" d="M-1016 -70h1658l6 -87q47 -11 82 -58v-154h-1657l-6 87q-45 11 -83 58v154zM-894 586v154l1395 7l5 -87q37 -11 69 -57v-154l-1395 -8l-5 87q-39 11 -69 58zM-610 1631l87 6q10 37 57 70l154 1l20 -1395l-87 -6q-10 -39 -57 -70l-154 -1z" />
<glyph unicode="5" horiz-adv-x="1542" d="M-1016 -70h1658l6 -87q47 -11 82 -58v-154h-1657l-6 87q-45 11 -83 58v154zM-894 586v154l1395 7l5 -87q37 -11 69 -57v-154l-1395 -8l-5 87q-39 11 -69 58zM-679 1631l87 6q10 37 57 70l154 1l20 -1395l-87 -6q-10 -39 -57 -70l-154 -1zM9 1640l87 5q10 38 57 70l154 2 l20 -1395l-87 -6q-10 -40 -57 -70l-154 -2z" />
<glyph unicode="6" horiz-adv-x="1542" d="M-1016 -70h1658l6 -87q47 -11 82 -58v-154h-1657l-6 87q-45 11 -83 58v154zM-894 586v154l1395 7l5 -87q37 -11 69 -57v-154l-1395 -8l-5 87q-39 11 -69 58zM-804 1622l87 6q10 38 57 70l154 2l20 -1396l-87 -5q-10 -40 -57 -70l-154 -2zM-293 1624l87 5q10 38 57 70 l153 2l21 -1395l-87 -6q-10 -40 -57 -70l-154 -2zM182 1615l86 6q11 37 57 70l154 1l21 -1395l-87 -6q-11 -39 -57 -70l-154 -1z" />
<glyph unicode="7" horiz-adv-x="1542" d="M-1016 -70h1658l6 -87q47 -11 82 -58v-154h-1657l-6 87q-45 11 -83 58v154zM-911 1136v154l1395 8l4 -87q38 -11 70 -58v-154l-1395 -7l-5 87q-39 11 -69 57zM-894 560v154l1395 7l5 -87q37 -10 69 -57v-154l-1395 -8l-5 87q-39 11 -69 58zM-610 1631l87 6q10 37 57 70 l154 1l20 -1395l-87 -6q-10 -39 -57 -70l-154 -1z" />
<glyph unicode="8" horiz-adv-x="1542" d="M-1016 -70h1658l6 -87q47 -11 82 -58v-154h-1657l-6 87q-45 11 -83 58v154zM-911 543v154l1395 7l4 -87q38 -11 70 -57v-154l-1395 -8l-5 87q-39 11 -69 58zM-903 1085v154l1395 7l5 -87q38 -10 69 -57l1 -154l-1395 -8l-5 87q-40 11 -70 58zM-791 1622l87 6q10 38 57 70 l154 2l20 -1396l-87 -5q-10 -40 -57 -70l-154 -2zM112 1630l87 5q10 38 57 70l154 2l20 -1395l-87 -6q-10 -40 -57 -70l-154 -2z" />
<glyph unicode="9" horiz-adv-x="1542" d="M-1016 -70h1658l6 -87q47 -11 82 -58v-154h-1657l-6 87q-45 11 -83 58v154zM-894 586v154l1395 7l5 -87q37 -11 69 -57v-154l-1395 -8l-5 87q-39 11 -69 58zM-894 1152v154l1395 7l5 -87q37 -11 69 -58v-154l-1395 -7l-5 87q-39 11 -69 58zM-804 1622l87 6q10 38 57 70 l154 2l20 -1396l-87 -5q-10 -40 -57 -70l-154 -2zM-293 1624l87 5q10 38 57 70l153 2l21 -1395l-87 -6q-10 -40 -57 -70l-154 -2zM182 1615l86 6q11 37 57 70l154 1l21 -1395l-87 -6q-11 -39 -57 -70l-154 -1z" />
<glyph unicode=":" horiz-adv-x="450" d="M-1002 314v107h288l1 -61q8 -8 14 -41v-108h-287l-1 62q-8 8 -15 41zM-961 1155v146h288l1 -83q8 -11 14 -56v-147h-288l-1 84q-8 11 -14 56z" />
<glyph unicode=";" horiz-adv-x="650" d="M-1364 -188l189 293q12 17 31 33q19 -6 39 -1l83 130q12 17 31 33q17 2 38 0l33 23l46 -30l-20 -44l-167 -258q-10 -15 -27 -28q-16 7 -35 7l-113 -168l-37 -4q-18 -4 -34 -19zM-1241 1170v107h288l1 -61q8 -8 14 -41v-108h-288l-1 62q-7 8 -14 41z" />
<glyph unicode="&#x3c;" horiz-adv-x="770" d="M-411 959l28 40l211 224q13 13 31 22q15 -9 34 -13l141 145l37 -3q19 1 37 12l50 -42l-239 -254q-15 -15 -36 -27q-18 9 -38 7l-106 -112q-14 -14 -36 -27q-17 2 -38 8l-36 -18zM-409 921l27 47l45 -17l268 -152q16 -9 29 -25q-5 -16 -4 -35l173 -103l7 -37q5 -18 21 -33 l-30 -59l-303 172q-18 11 -35 29q4 19 -2 38l-134 76q-18 11 -35 29q-3 17 -2 38z" />
<glyph unicode="=" horiz-adv-x="1698" d="M-830 1260v108h1451l5 -62q41 -7 72 -41v-107h-1451l-5 61q-40 8 -72 41zM-823 612v107h1451l5 -61q40 -8 72 -41v-108h-1451l-5 62q-40 8 -72 41z" />
<glyph unicode="&#x3e;" horiz-adv-x="770" d="M-266 1362l43 43q15 -12 31 -13l32 3l119 -144q16 3 28 12q15 -9 26 -22l178 -224l24 -40l-34 -37l-31 17q-17 -6 -32 -8q-18 13 -30 28l-89 111q-17 2 -32 -7q-18 12 -30 27zM-264 584q13 15 17 33l6 37l147 103q1 19 -4 35q11 16 25 25l225 152l39 17l22 -47l-21 -32 q1 -21 -2 -38q-14 -18 -29 -29l-113 -75q-6 -20 -2 -39q-15 -18 -29 -28l-256 -173z" />
<glyph unicode="?" horiz-adv-x="770" d="M-679 1043q13 15 17 33l6 37l147 103q1 19 -4 35q11 16 25 25l226 152l38 17l23 -48l-22 -31q1 -21 -1 -39q-15 -17 -30 -28l-113 -76q-5 -19 -1 -39q-15 -17 -30 -28l-256 -172zM-425 -309l9 77q8 3 15 16l12 30l76 -28q6 17 9 37q8 5 15 2l114 -49l17 -16l-6 -65 l-16 -11q-5 -21 -11 -35q-10 -5 -18 -2l-57 25q-7 -14 -11 -36q-10 -4 -18 -1zM-345 174l54 171q-11 16 -25 26q-1 19 4 35l87 258l20 37l47 -24l2 -38q14 -16 23 -31q-1 -23 -7 -41l-43 -129q8 -19 22 -32q0 -23 -6 -40l-98 -293l-56 32q1 20 -6 37zM-266 1362l43 43 q15 -12 31 -13l32 3l119 -144q16 3 28 12q15 -9 26 -22l178 -224l24 -40l-34 -37l-31 17q-17 -6 -32 -8q-18 13 -30 28l-89 111q-17 2 -32 -7q-18 12 -30 27zM-264 584q13 15 17 33l6 37l147 103q1 19 -4 35q11 16 25 25l225 152l39 17l22 -47l-21 -32q1 -21 -2 -38 q-14 -18 -29 -29l-113 -75q-6 -20 -2 -39q-15 -18 -29 -28l-256 -173z" />
<glyph unicode="@" horiz-adv-x="2079" />
<glyph unicode="A" horiz-adv-x="683" d="M370 -87v987q1 59 19 126q51 16 87 58v436q2 58 20 126q37 31 87 58l39 106h146l20 -135v-872q0 -52 -20 -106q-45 -9 -87 -39l-10 -571l-78 -68q-34 -38 -48 -96z" />
<glyph unicode="B" horiz-adv-x="2033" d="M147 278q2 55 32 107h150q32 29 53 75l-10 139q0 48 -22 96l-85 64q-23 35 -65 65q-38 25 -53 75q0 56 32 117h139q39 27 64 75l-10 129l10 54l-10 21q-3 11 -22 21l-85 65q-19 38 -54 75q-44 28 -64 85q1 55 43 107h139q30 41 43 97h150q30 -36 53 -86l846 -11 q51 10 86 54q29 29 75 43l118 -11q9 -45 32 -86l75 -64q24 -32 64 -53q39 -24 54 -75q-1 -65 -22 -129q-42 -7 -75 -43l-10 -32l10 -236l-10 -85l10 -22l97 -32v-139l-86 -64l-21 -75l10 -32l-10 -257h10q33 -39 86 -54l11 -139q-41 -39 -97 -54q-54 -1 -117 -21 q-20 -44 -65 -75l-139 11q-9 50 -54 85h-856l-43 -96h-139l-65 86l-85 53q-22 44 -65 75q-39 40 -53 97zM672 460q20 -44 64 -75h760q19 49 22 107l10 128q-21 48 -64 86h-750l-42 -107l10 -107zM672 1091q19 -43 64 -75h760q18 51 22 108l10 139q-22 42 -64 75h-750 q-26 -46 -32 -107z" />
<glyph unicode="C" horiz-adv-x="1913" d="M90 284v123h178l34 39l5 50l-5 16l-6 663l11 61l-17 45q-21 15 -50 28q-19 16 -39 38l-27 45l-39 28h-45v172l150 6q27 6 50 22l6 17q-4 19 -6 45h151q30 -9 33 -45q11 -23 34 -39h1041q28 -4 61 -17l33 -39l28 -50l56 -16q15 -19 22 -45v-72q0 -30 -17 -62l-122 6 l-17 -6l-67 6h-890q-23 -9 -45 -28l-11 -44l6 -17v-668l-6 -67q4 -28 17 -61l61 -11h1091v-179l-56 -5q-20 -16 -39 -39l-27 -45q-19 -17 -45 -27l-72 -6h-969q-29 -1 -56 -17l-11 -61l-145 -5q-25 0 -39 27q-4 28 -16 56l-50 22l-67 89l-39 11l-17 -5z" />
<glyph unicode="D" horiz-adv-x="1918" d="M-1068 73v171l6 24h136q47 2 83 41l6 47l-6 18l-6 41l-6 18l6 41v585l12 83l-6 17q-18 41 -65 65q-32 28 -59 71q-28 35 -77 42q-22 50 -24 112v82h184l29 24l6 18q-4 20 -6 47h195l6 -65l12 -24h885q38 28 41 83l195 6l6 -65l77 -53l47 -83l83 -12v-171 q-50 -22 -112 -24h-83l-12 -5q-2 -11 -12 -18l-11 -53l11 -709l-11 -95l6 -17q22 -39 70 -59q29 -28 60 -77q33 -33 88 -36l6 -194h-171l-24 -6q-10 -46 -47 -83h-136q-30 30 -47 83l-886 6l-23 -6q-10 -46 -48 -83h-129q-45 22 -48 83q-41 16 -82 53q-23 37 -59 71z M-548 321l6 -18q31 -24 71 -35h531l65 -6l24 11l23 77l-12 632l12 160l-6 35q-23 24 -59 41l-613 -6l-18 -5q-16 -39 -24 -83l6 -632l6 -53l-6 -18z" />
<glyph unicode="E" horiz-adv-x="1698" d="M-903 745v166h1451l5 -94q41 -12 72 -62v-166h-1451l-5 94q-39 12 -72 62z" />
<glyph unicode="F" horiz-adv-x="1987" d="M-648 864h120l46 -6l17 6q17 17 34 40l6 46l-6 17l-5 62l11 63l-17 57q-23 15 -51 29q-22 16 -40 40l-29 45q-16 15 -40 23h-46v183l155 5q27 7 51 23l6 17q-5 20 -6 46h154q31 -9 34 -46q11 -22 34 -40h1072l63 -17l63 -91l63 -11q8 -31 11 -69v-120h-1106l-69 -5 l-22 -52l5 -148l-5 -17l5 -46q16 -22 40 -40h918l74 -5q21 -13 40 -35l29 -45q19 -19 45 -29h46v-188l-74 6h-1072q-22 -13 -40 -35l-11 -39v-18h5l6 -382l-6 -68l-28 -45q-23 -15 -52 -23q-16 -13 -34 -34v-58h-177q-8 31 -11 69l6 68v382l11 120v17h-6l-28 46 q-28 5 -57 22q-16 20 -29 46l-34 40l-17 11l-46 -5z" />
<glyph unicode="G" horiz-adv-x="1952" d="M-693 117v188h188l29 29l12 58l-17 83l5 11v557l-5 47l5 12v23l12 53l-23 53q-43 21 -88 58q-21 40 -59 82l-59 -5v193h171q21 8 41 24l5 17q-4 20 -5 47h146q52 -10 65 -82l52 -6h328q14 2 24 12q3 67 64 76h123l18 -6q2 -38 17 -82l540 -6l29 -29l59 -82l70 -6v-182 l-18 -12h-521l-12 6l-24 -11l-23 -36l6 -70v-692l-6 -17l-6 -53l24 -59l41 -11l17 6h329l17 -6q42 -21 70 -71q32 -38 94 -47l12 -52v-141h-657q-27 -5 -58 -23v-59l-141 -6q-58 6 -64 77q-60 11 -129 11h-264l-17 -5l-12 -83h-193v65q-19 17 -47 29q-39 29 -65 82 q-40 28 -100 41zM-177 375l12 -47q27 -16 59 -23h163l53 -6l18 6q16 19 29 46l6 53l-6 18l-6 650l6 77q-1 34 -12 70q-19 17 -47 29l-245 -6l-24 -52l-6 -18l6 -53l6 -650l-6 -77z" />
<glyph unicode="H" horiz-adv-x="2153" d="M-728 685v200l82 6l81 -6q28 5 57 19l25 63l-13 68v19h-6l6 57v337q7 30 25 63q18 20 44 38l56 31l6 75h176q18 -29 25 -63l-7 -588l-6 -19l6 -50q15 -25 38 -50h675q20 19 38 44q5 21 6 50l-6 19l-6 250l6 75l-6 82l6 75l31 56l63 25q20 22 31 50v44h132q37 -1 75 -13 l-19 -657q3 -32 19 -68q21 -20 50 -32q22 -18 44 -44l31 -50q21 -20 50 -31h50l-6 -206l-163 6q-30 -8 -56 -32q-14 -28 -19 -62l12 -69v-338l-6 -56l6 -18l7 -163q-19 -31 -57 -32h-150q-2 55 -19 88l-56 25q-23 18 -44 44l-12 75v338l6 81l6 19l-6 50l-38 50h-675l-38 -44 l-6 -50l6 -19l7 -419l-13 -69q-13 -27 -37 -50q-23 -13 -50 -18q-20 -25 -32 -57v-44h-131q-38 1 -75 13l6 163v425l13 69q-4 35 -19 68q-21 21 -50 32l-50 37q-11 26 -32 50q-15 22 -37 44z" />
<glyph unicode="I" horiz-adv-x="1194" d="M222 -170v1760h56q34 36 37 93h205l-6 -1642l-6 -24q-13 -44 -56 -81q-48 -15 -69 -62v-44h-161zM843 -64l6 93v1467l6 19l13 13q26 36 74 62q35 35 38 93h161v-1728q-26 -35 -81 -37l-12 -88h-174q-25 46 -31 106z" />
<glyph unicode="J" horiz-adv-x="2040" d="M-503 131v179h160l19 -6l1087 6q39 12 70 39l6 64l-6 19l-6 850l6 13l-6 115l25 96l83 38q18 43 26 96h211l-7 -1125q-1 -45 -12 -109q3 -46 32 -89q38 -17 76 -45l45 -70l96 -32v-204l-141 6l-83 -13l-6 -19l-13 -64l6 -19v-19l7 -51q-1 -27 -13 -52h-198v52 q-18 38 -64 57q-27 27 -51 64l-58 70l-1080 -6q-42 15 -83 44l-44 77q-43 6 -84 38z" />
<glyph unicode="K" horiz-adv-x="2134" d="M-568 697v201l82 6l82 -6q28 5 56 19l25 63l-12 69v19h-7l7 56v339q7 29 25 63q18 20 44 37l56 32l6 75h176q18 -29 25 -63l-6 -583l-6 -19l6 -57q13 -24 37 -44l245 -6q29 6 56 25q12 28 13 63l-13 584l7 50l-7 19q19 30 57 31h150v-25q1 -26 13 -57l56 -25l51 -37 q8 -33 12 -76v-426l-6 -76q14 -24 38 -44l420 -6q23 -14 44 -37l38 -51q15 -21 44 -37h56v-207l-590 6q-22 -15 -44 -38l-6 -75l6 -421l-6 -81l-44 -44l-56 -25q-18 -24 -26 -56q-18 -31 -56 -32h-151v107l7 57l-7 18l7 75v339l12 75l-12 69q-25 20 -57 32h-251l-37 -44 l-6 -57l6 -18l6 -415l-12 -74q-14 -24 -38 -44l-50 -25q-20 -22 -32 -51v-44h-131q-38 1 -76 13v88l7 75v426l12 69q-3 35 -19 69q-21 21 -50 32l-50 37q-11 27 -31 51q-16 22 -38 44z" />
<glyph unicode="L" horiz-adv-x="1880" d="M-683 163v142h181q23 29 40 67l-12 80v948q9 39 29 79q30 19 67 34q15 39 23 85h181l-6 -1096l6 -45l-6 -11v-40l-6 -22l12 -62q38 -17 90 -17h847q40 -1 96 -12l45 -62q18 -34 62 -45h34v-181l-1270 -5q-21 -33 -23 -79l-51 -6h-135v29q-3 37 -40 61q-34 18 -56 57 q-20 26 -51 51q-48 2 -57 50z" />
<glyph unicode="M" horiz-adv-x="1890" d="M-588 1501q1 6 12 11h97q41 1 86 11q10 35 12 75h183l6 -17q5 -35 29 -69h366l17 6l23 80h178v-23q5 -31 23 -63h263l12 17q0 40 34 69h161v-40q15 -30 46 -52q26 -21 51 -51l40 -58q38 -1 69 -28v-166h-189l-23 -23l-12 -81l12 -91v-889l-6 -34l6 -12l6 -183h-189v64 q-27 19 -64 34q-25 22 -45 57q-9 40 -12 86v894l6 92q-1 33 -12 74q-35 10 -74 12h-75l-17 -6q-16 -32 -23 -75l6 -986l6 -22l-12 -64q-10 -31 -40 -56q-31 -14 -63 -35q0 -40 -34 -69h-161v138q6 39 6 91v894l-6 46l12 35v45l-12 46q-27 14 -63 18h-102l-29 -64l6 -962 l5 -18v-80l-5 -17q-13 -32 -35 -63l-63 -28q-12 -33 -17 -75l-178 -6q-6 1 -11 12v97q5 40 6 92v957l-6 6l6 17l11 63l-6 23q-15 26 -40 51q-32 16 -63 40q-16 29 -40 58q-30 13 -69 17z" />
<glyph unicode="N" horiz-adv-x="1910" d="M-638 1542h277q27 3 58 18l6 70h159q28 -17 29 -53q14 -20 41 -35h704q30 1 59 18l12 64l194 6v-41q9 -25 29 -47l47 -29l70 -94q31 -1 65 -12v-159q-27 -17 -59 -23l-147 -6l-23 -53l12 -1010l-6 -70l12 -65v-82q-2 -30 -18 -59h-159q-12 31 -17 65q-19 17 -47 29 l-47 29l-24 59l-6 934l12 147q-3 27 -17 58q-18 18 -47 30l-71 -6h-551l-24 -53l-6 -18l6 -47v-939l6 -77l-12 -64q-17 -22 -41 -41l-47 -17q-15 -23 -23 -53q-6 -30 -41 -36h-83q-35 1 -70 12l6 147v1021l6 59l6 18l-6 53q-15 16 -36 35l-52 29q-18 25 -30 53l-41 35l-59 6 z" />
<glyph unicode="O" horiz-adv-x="2090" d="M-828 104v197l1574 -5l63 -5l41 -26q17 -39 47 -84l57 -10q25 -11 26 -42v-109q-1 -6 -10 -10h-1647q-27 0 -57 10l5 52l-41 32l-42 -6zM-828 1428v130h1704q9 -47 42 -88h62v-203l-68 5h-1501l-62 5q-21 10 -41 26l-47 78q-59 3 -89 47z" />
<glyph unicode="P" horiz-adv-x="1973" d="M-578 1390v186l102 12h222q16 41 24 90h192v-42q15 -39 60 -48h1002l12 -6q31 -22 60 -54l48 -66h66v-198h-1212q-27 -23 -48 -60l12 -1116q-13 -39 -36 -78l-66 -36q-21 -34 -30 -84h-192v132l6 12v1068l12 102l-18 36q-28 22 -66 42l-48 66q-23 26 -60 42h-42z" />
<glyph unicode="Q" horiz-adv-x="1840" d="M-688 113v186h181q27 30 39 78l-17 90l6 17v524l-6 51l17 62q-9 46 -45 84q-38 17 -73 56q-17 38 -62 57h-40v186h169l34 22l6 17q-4 19 -6 45h135q54 -4 62 -68q50 -16 113 -16h129q48 23 51 84h129q55 -4 56 -68q50 -16 107 -16h265q35 31 45 84h130q57 -5 62 -73 q37 -19 73 -57q21 -32 56 -73h62v-174l-17 -12h-129q-47 -7 -74 -56l12 -118v-524q-1 -56 -12 -124q8 -46 45 -84q45 -17 68 -62q28 -38 79 -51h28v-185h-180q-14 -41 -45 -85h-135q-25 27 -51 79l-366 6l-17 -6l-11 -79h-169q-14 44 -45 85h-236l-23 -6l-11 -79h-169 q-13 46 -51 85q-36 23 -67 61q-24 40 -73 57h-29zM-192 360q8 -25 23 -50l123 -17l45 22l17 51l-11 62v619l-6 12l6 5l5 68q-11 50 -61 73l-73 -6q-27 -2 -51 -16l-17 -57l6 -62v-574l5 -34l-5 -11zM292 360q10 -60 79 -61l67 -6q22 8 45 22l11 57l-11 62v568l6 107l5 23 q-12 48 -61 73l-74 -6q-26 -2 -50 -16q-12 -26 -17 -57l5 -62v-642z" />
<glyph unicode="R" horiz-adv-x="1860" d="M-688 737v76l6 71l147 -6q27 3 53 23q13 22 24 53l-12 65v17h-6l12 41l6 47l-6 18l-24 47l-53 29q-19 16 -35 41l-29 42q-21 14 -47 17q-33 9 -36 47v76l6 71h153q28 6 53 23l6 18q-5 20 -6 47h158q31 -6 36 -41q8 -25 29 -47h839q27 1 59 12l12 64q31 9 70 12h124v-29 l17 -59q25 -8 53 -24l35 -41l30 -47l64 -11l12 -65v-129h-182l-41 -30l-6 -70l6 -65l-6 -70q5 -27 18 -53q20 -19 47 -29q21 -17 41 -41l29 -47q18 -18 41 -30h53v-182l-47 -12l-18 6h-70q-30 -1 -65 -11l-29 -47l12 -447l-6 -17q4 -20 6 -47l6 -147l-194 -6v36 q-5 25 -18 53l-59 17q-18 19 -35 47l-12 64v306l12 117l-6 18q-5 27 -23 53l-65 11h-534q-27 0 -58 -11q-17 -22 -30 -53l12 -441l-12 -64q-13 -22 -35 -41q-21 -13 -47 -18l-29 -47v-47h-188l-6 71l6 70v388l12 140l-30 42l-53 23q-19 18 -35 47l-29 41q-20 14 -47 18 q-33 9 -36 47zM-171 966l6 -24q12 -48 65 -64h598l35 23l12 53l-6 59l6 123q-16 44 -64 65l-616 -6l-12 -6l-24 -71l6 -135z" />
<glyph unicode="S" horiz-adv-x="1921" d="M-598 54v195h664q33 7 66 24l6 83l-6 65l6 24l-6 95q-31 20 -71 30h-492l-12 12q-26 22 -48 53q-20 27 -47 53l-18 6l-42 -6v196h149q42 -6 95 -6h409q36 6 71 24l12 83l-6 89l6 65l-6 24q-23 25 -60 42q-42 -6 -94 -6h-392l-11 6q-28 19 -54 47l-41 59q-34 11 -78 18 v184l18 6h813v6q12 39 17 83h190l6 -18q4 -35 18 -71h510q33 -13 65 -36l42 -65q33 -17 77 -24l12 -89v-106h-694l-18 -6q-16 -34 -24 -77v-190q21 -26 54 -48h510l59 -47l36 -65q39 -6 77 -24v-178l-700 6l-24 -24l-12 -83l6 -101l-6 -65l6 -24q34 -17 77 -24h410l89 -11 q24 -26 41 -60l48 -53h65v-196h-771q-38 -3 -77 -23v-66h-196v54q-26 25 -65 35h-409q-42 2 -89 12q-26 22 -48 54q-19 26 -47 53z" />
<glyph unicode="T" horiz-adv-x="1794" d="M-588 1295v169h788q12 40 17 84h186v-34q11 -28 39 -50h473l40 -23l45 -62q26 -29 67 -34q22 -39 23 -90v-79q-2 -10 -11 -17h-637q-29 -18 -50 -50l11 -1239h-186v57q-25 23 -62 39q-27 28 -50 62l-6 95l6 102v743l-6 45l11 45v45l-17 45q-37 10 -78 11h-428l-62 46 l-39 61q-34 11 -74 29z" />
<glyph unicode="U" horiz-adv-x="1550" d="M-470 -145v1667h53q33 34 36 88h194l-6 -1537l-6 -18l6 -6v-17q-20 -40 -65 -65q-34 -22 -58 -64v-48h-154zM625 -145l6 212v1366l6 18l12 12q28 29 71 53q32 36 35 94h153v-1631q-19 -38 -77 -47l-11 -77h-195z" />
<glyph unicode="V" horiz-adv-x="1874" d="M-528 102v80q1 31 18 63h149q23 9 46 29l11 52l-11 68l-6 18q4 19 6 46v917q8 24 22 51q18 20 46 35l46 28l6 69h155q28 -17 28 -52l-5 -1066l5 -34l-5 -12l-6 -91q8 -22 23 -46q30 -8 68 -12h533l29 -5l11 5l12 12l23 52l-12 63v842l6 40l-6 12v91l12 63q19 20 45 35 l46 28q13 27 18 58q30 12 63 17h126l-6 -1169l-12 -63q4 -27 18 -58q19 -18 46 -28l45 -35l23 -51q20 -19 46 -29h46l-6 -189h-149q-27 -6 -51 -22q-1 -31 -18 -64h-149q-16 27 -22 58q-19 19 -46 28h-837q-20 -13 -34 -40v-46h-189l-6 69l-92 63l-23 51q-26 16 -57 23 q-26 13 -29 46z" />
<glyph unicode="W" horiz-adv-x="1774" d="M-498 93v179l18 6h98q40 1 86 11q14 30 18 70l-12 74q6 41 6 93v899l34 63q32 13 64 35q16 34 23 75h178l6 -17l-6 -1090l6 -46l-6 -17l-6 -98l6 -18q24 -21 58 -34h75l17 -6q27 17 52 46l6 23l-12 64l-6 985q7 38 23 75q26 23 64 41q22 24 34 57v35h191l-12 -1263 q11 -31 40 -57h98q32 5 58 29l12 40l-6 17l-6 911l6 17l-6 75l12 87q21 24 52 46q30 16 57 40v58h190v-133l-5 -17v-991l-12 -93q6 -37 23 -75l64 -34l40 -58q23 -25 58 -40h40v-190h-173q-24 -25 -35 -63v-24h-178l-23 81l-387 6q-19 -26 -28 -63v-24h-179q-10 36 -29 75 l-86 12h-179l-11 -6l-23 -81h-179v24q-6 34 -29 63l-63 40q-15 31 -41 57q-33 17 -75 29z" />
<glyph unicode="X" horiz-adv-x="1860" d="M-548 733v166h144l11 -6h435l46 6l12 -6h17l17 6q24 33 29 80l-12 413q3 40 29 80q30 22 69 40q21 35 23 86h189v-126l-6 -12l-6 -515l6 -18q30 -22 69 -34h435q42 -1 75 -34l46 -69q40 -8 80 -29v-172l-665 6q-10 -2 -17 -11q-26 -33 -29 -81l12 -407l-6 -11l-23 -86 l-80 -28q-7 -41 -29 -81h-172v138l6 17v418l6 12l-6 80l-6 17q-33 21 -80 23h-435q-41 8 -69 46l-46 63q-36 3 -69 29z" />
<glyph unicode="Y" horiz-adv-x="1837" d="M-588 710v170q40 16 91 17l1053 -6l12 6q27 29 34 79l-12 295l6 11l-6 102l23 85l73 34q16 38 23 85h187l-17 -640l6 -17q27 -25 62 -45q28 -27 51 -63q21 -25 57 -45h45v-176l-45 -11l-46 6h-79q-10 -3 -17 -12q-23 -31 -34 -73l11 -97v-300l-5 -17l11 -181 q-2 -10 -11 -17h-176v40q-14 38 -56 57q-33 16 -51 56l-12 402l6 11l6 57l-6 40q-31 22 -68 34h-951l-17 11q-25 22 -46 57q-24 26 -56 51q-20 -4 -46 -6z" />
<glyph unicode="Z" horiz-adv-x="1858" d="M-468 65v161q10 33 48 36l632 -6l48 24q9 24 12 53l-6 728h-6l12 42l-6 72q-13 23 -36 41l-18 6q-20 -4 -48 -6h-399l-71 12l-42 36l-30 48q-14 17 -36 30h-54v191l788 6q30 2 59 17l6 72h197l-6 -42l30 -47h477q31 -2 66 -12l42 -36l30 -54q23 -16 53 -24q33 -9 36 -48 v-77q-1 -36 -12 -72h-632l-72 -6l-24 -53l6 -72l-6 -788q17 -19 42 -35h477l66 -12l42 -42l24 -54q28 -12 59 -18q29 -17 30 -53v-83q-1 -31 -18 -60h-793q-25 -12 -42 -36v-54h-185l-18 66q-22 18 -54 24h-477q-28 11 -53 30q-16 19 -30 47l-36 42z" />
<glyph unicode="[" horiz-adv-x="1044" d="M-242 30v216h151q30 14 54 46l5 26l-10 72v713l10 105q-7 37 -26 72l-60 52q-19 29 -37 66q-23 24 -54 39h-33v203l167 7q8 0 11 13q13 38 16 85h178v-26q0 -47 37 -72h97q39 -13 86 -14h87l10 -6q29 -21 54 -52l38 -66q40 -7 54 -59v-170l-313 7l-16 6l-5 -6 q-17 -36 -27 -79l5 -765h6l-6 -20v-26q-2 -33 -10 -72l10 -20q4 -37 22 -72h183v7h97l38 -7l10 13l6 -39v-183l-27 6q-32 -12 -65 -38l-37 -72q-30 -29 -76 -33l-178 6l-70 -6l-5 -20l-5 -72h-178l6 33l-6 20q-17 32 -48 58q-24 27 -43 66l-49 58l-16 7z" />
<glyph unicode="\" horiz-adv-x="1018" d="M-442 1541l48 23q15 44 -5 95l177 81l636 -1399l2 -19l8 -3l7 -16q-2 -45 -32 -86q-22 -34 -26 -83l20 -43l-140 -64z" />
<glyph unicode="]" horiz-adv-x="1074" d="M670 24v183l6 39l11 -13l39 7h101v-7h191q19 35 22 72l11 20q-9 39 -11 72v26l-5 20h5l6 765q-10 43 -28 79l-6 6l-17 -6l-325 -7v170q15 52 56 59l39 66q27 31 56 52l12 6h89q50 1 90 14h101q39 25 39 72v26h185q3 -47 17 -85q4 -13 11 -13l174 -7v-203h-34 q-32 -15 -56 -39q-19 -37 -39 -66l-62 -52q-20 -35 -28 -72l12 -105v-713l-12 -72l6 -26q26 -32 56 -46h157v-216l-39 7l-17 -7l-50 -58q-21 -39 -45 -66q-32 -26 -51 -58l-5 -20l5 -33h-185l-5 72l-6 20l-73 6l-185 -6q-48 4 -78 33l-40 72q-34 26 -67 38z" />
<glyph unicode="^" horiz-adv-x="796" d="M-486 1268l190 293q12 18 30 34q19 -6 39 -1l84 129q12 18 30 34q18 2 39 -1l33 24l45 -30l-19 -44l-168 -259q-10 -15 -26 -27q-16 6 -35 6l-113 -167l-38 -5q-18 -4 -34 -18zM-209 1770l41 36l37 -30l207 -228q12 -14 20 -33q-11 -14 -15 -32l133 -152l-6 -38 q0 -18 10 -37l-47 -47l-234 258q-13 16 -24 38q10 17 10 38l-103 114q-14 15 -25 38q3 17 11 37z" />
<glyph unicode="_" horiz-adv-x="1698" d="M-897 23v107h1451l5 -61q40 -8 72 -41v-107h-1451l-5 61q-40 8 -72 41z" />
<glyph unicode="`" horiz-adv-x="2073" d="M-93 9v147l11 34l1648 -11q87 -39 158 -124l80 -11q0 -80 -23 -170h-1659q-93 20 -181 103q-21 10 -34 32zM-93 687v147l11 34l114 -11h1580q37 -33 68 -78q31 -33 79 -57q27 -4 45 -23v-158l-11 -34l-135 11h-1435l-136 11q-34 33 -67 80l-79 44zM-93 1331v170h1785 q8 -47 32 -101h80v-204h-1661q-83 41 -156 124z" />
<glyph unicode="a" horiz-adv-x="683" d="M370 -158v920q1 55 18 118q47 14 81 54v406q2 54 18 117q35 29 82 54l36 100h136l19 -127v-812q0 -48 -19 -99q-42 -8 -81 -36l-9 -533l-73 -63q-31 -35 -45 -90z" />
<glyph unicode="b" horiz-adv-x="2040" d="M147 278q2 55 32 107h150q32 29 53 75l-10 139q0 48 -22 96l-85 64q-23 35 -65 65q-38 25 -53 75q0 56 32 117h139q39 27 64 75l-10 129l10 54l-10 21q-3 11 -22 21l-85 65q-19 38 -54 75q-44 28 -64 85q1 55 43 107h139q30 41 43 97h150q30 -36 53 -86l846 -11 q51 10 86 54q29 29 75 43l118 -11q9 -45 32 -86l75 -64q24 -32 64 -53q39 -24 54 -75q-1 -65 -22 -129q-42 -7 -75 -43l-10 -32l10 -236l-10 -85l10 -22l97 -32v-139l-86 -64l-21 -75l10 -32l-10 -257h10q33 -39 86 -54l11 -139q-41 -39 -97 -54q-54 -1 -117 -21 q-20 -44 -65 -75l-139 11q-9 50 -54 85h-856l-43 -96h-139l-65 86l-85 53q-22 44 -65 75q-39 40 -53 97zM672 460q20 -44 64 -75h760q19 49 22 107l10 128q-21 48 -64 86h-750l-42 -107l10 -107zM672 1091q19 -43 64 -75h760q18 51 22 108l10 139q-22 42 -64 75h-750 q-26 -46 -32 -107z" />
<glyph unicode="c" horiz-adv-x="1913" d="M90 284v123h178l34 39l5 50l-5 16l-6 663l11 61l-17 45q-21 15 -50 28q-19 16 -39 38l-27 45l-39 28h-45v172l150 6q27 6 50 22l6 17q-4 19 -6 45h151q30 -9 33 -45q11 -23 34 -39h1041q28 -4 61 -17l33 -39l28 -50l56 -16q15 -19 22 -45v-72q0 -30 -17 -62l-122 6 l-17 -6l-67 6h-890q-23 -9 -45 -28l-11 -44l6 -17v-668l-6 -67q4 -28 17 -61l61 -11h1091v-179l-56 -5q-20 -16 -39 -39l-27 -45q-19 -17 -45 -27l-72 -6h-969q-29 -1 -56 -17l-11 -61l-145 -5q-25 0 -39 27q-4 28 -16 56l-50 22l-67 89l-39 11l-17 -5z" />
<glyph unicode="d" horiz-adv-x="1918" d="M-1068 73v171l6 24h136q47 2 83 41l6 47l-6 18l-6 41l-6 18l6 41v585l12 83l-6 17q-18 41 -65 65q-32 28 -59 71q-28 35 -77 42q-22 50 -24 112v82h184l29 24l6 18q-4 20 -6 47h195l6 -65l12 -24h885q38 28 41 83l195 6l6 -65l77 -53l47 -83l83 -12v-171 q-50 -22 -112 -24h-83l-12 -5q-2 -11 -12 -18l-11 -53l11 -709l-11 -95l6 -17q22 -39 70 -59q29 -28 60 -77q33 -33 88 -36l6 -194h-171l-24 -6q-10 -46 -47 -83h-136q-30 30 -47 83l-886 6l-23 -6q-10 -46 -48 -83h-129q-45 22 -48 83q-41 16 -82 53q-23 37 -59 71z M-548 321l6 -18q31 -24 71 -35h531l65 -6l24 11l23 77l-12 632l12 160l-6 35q-23 24 -59 41l-613 -6l-18 -5q-16 -39 -24 -83l6 -632l6 -53l-6 -18z" />
<glyph unicode="e" horiz-adv-x="1698" d="M-903 745v166h1451l5 -94q41 -12 72 -62v-166h-1451l-5 94q-39 12 -72 62z" />
<glyph unicode="f" horiz-adv-x="1987" d="M-648 864h120l46 -6l17 6q17 17 34 40l6 46l-6 17l-5 62l11 63l-17 57q-23 15 -51 29q-22 16 -40 40l-29 45q-16 15 -40 23h-46v183l155 5q27 7 51 23l6 17q-5 20 -6 46h154q31 -9 34 -46q11 -22 34 -40h1072l63 -17l63 -91l63 -11q8 -31 11 -69v-120h-1106l-69 -5 l-22 -52l5 -148l-5 -17l5 -46q16 -22 40 -40h918l74 -5q21 -13 40 -35l29 -45q19 -19 45 -29h46v-188l-74 6h-1072q-22 -13 -40 -35l-11 -39v-18h5l6 -382l-6 -68l-28 -45q-23 -15 -52 -23q-16 -13 -34 -34v-58h-177q-8 31 -11 69l6 68v382l11 120v17h-6l-28 46 q-28 5 -57 22q-16 20 -29 46l-34 40l-17 11l-46 -5z" />
<glyph unicode="g" horiz-adv-x="1952" d="M-693 117v188h188l29 29l12 58l-17 83l5 11v557l-5 47l5 12v23l12 53l-23 53q-43 21 -88 58q-21 40 -59 82l-59 -5v193h171q21 8 41 24l5 17q-4 20 -5 47h146q52 -10 65 -82l52 -6h328q14 2 24 12q3 67 64 76h123l18 -6q2 -38 17 -82l540 -6l29 -29l59 -82l70 -6v-182 l-18 -12h-521l-12 6l-24 -11l-23 -36l6 -70v-692l-6 -17l-6 -53l24 -59l41 -11l17 6h329l17 -6q42 -21 70 -71q32 -38 94 -47l12 -52v-141h-657q-27 -5 -58 -23v-59l-141 -6q-58 6 -64 77q-60 11 -129 11h-264l-17 -5l-12 -83h-193v65q-19 17 -47 29q-39 29 -65 82 q-40 28 -100 41zM-177 375l12 -47q27 -16 59 -23h163l53 -6l18 6q16 19 29 46l6 53l-6 18l-6 650l6 77q-1 34 -12 70q-19 17 -47 29l-245 -6l-24 -52l-6 -18l6 -53l6 -650l-6 -77z" />
<glyph unicode="h" horiz-adv-x="2153" d="M-728 685v200l82 6l81 -6q28 5 57 19l25 63l-13 68v19h-6l6 57v337q7 30 25 63q18 20 44 38l56 31l6 75h176q18 -29 25 -63l-7 -588l-6 -19l6 -50q15 -25 38 -50h675q20 19 38 44q5 21 6 50l-6 19l-6 250l6 75l-6 82l6 75l31 56l63 25q20 22 31 50v44h132q37 -1 75 -13 l-19 -657q3 -32 19 -68q21 -20 50 -32q22 -18 44 -44l31 -50q21 -20 50 -31h50l-6 -206l-163 6q-30 -8 -56 -32q-14 -28 -19 -62l12 -69v-338l-6 -56l6 -18l7 -163q-19 -31 -57 -32h-150q-2 55 -19 88l-56 25q-23 18 -44 44l-12 75v338l6 81l6 19l-6 50l-38 50h-675l-38 -44 l-6 -50l6 -19l7 -419l-13 -69q-13 -27 -37 -50q-23 -13 -50 -18q-20 -25 -32 -57v-44h-131q-38 1 -75 13l6 163v425l13 69q-4 35 -19 68q-21 21 -50 32l-50 37q-11 26 -32 50q-15 22 -37 44z" />
<glyph unicode="i" horiz-adv-x="1194" d="M222 -170v1760h56q34 36 37 93h205l-6 -1642l-6 -24q-13 -44 -56 -81q-48 -15 -69 -62v-44h-161zM843 -64l6 93v1467l6 19l13 13q26 36 74 62q35 35 38 93h161v-1728q-26 -35 -81 -37l-12 -88h-174q-25 46 -31 106z" />
<glyph unicode="j" horiz-adv-x="2040" d="M-503 131v179h160l19 -6l1087 6q39 12 70 39l6 64l-6 19l-6 850l6 13l-6 115l25 96l83 38q18 43 26 96h211l-7 -1125q-1 -45 -12 -109q3 -46 32 -89q38 -17 76 -45l45 -70l96 -32v-204l-141 6l-83 -13l-6 -19l-13 -64l6 -19v-19l7 -51q-1 -27 -13 -52h-198v52 q-18 38 -64 57q-27 27 -51 64l-58 70l-1080 -6q-42 15 -83 44l-44 77q-43 6 -84 38z" />
<glyph unicode="k" horiz-adv-x="2134" d="M-568 697v201l82 6l82 -6q28 5 56 19l25 63l-12 69v19h-7l7 56v339q7 29 25 63q18 20 44 37l56 32l6 75h176q18 -29 25 -63l-6 -583l-6 -19l6 -57q13 -24 37 -44l245 -6q29 6 56 25q12 28 13 63l-13 584l7 50l-7 19q19 30 57 31h150v-25q1 -26 13 -57l56 -25l51 -37 q8 -33 12 -76v-426l-6 -76q14 -24 38 -44l420 -6q23 -14 44 -37l38 -51q15 -21 44 -37h56v-207l-590 6q-22 -15 -44 -38l-6 -75l6 -421l-6 -81l-44 -44l-56 -25q-18 -24 -26 -56q-18 -31 -56 -32h-151v107l7 57l-7 18l7 75v339l12 75l-12 69q-25 20 -57 32h-251l-37 -44 l-6 -57l6 -18l6 -415l-12 -74q-14 -24 -38 -44l-50 -25q-20 -22 -32 -51v-44h-131q-38 1 -76 13v88l7 75v426l12 69q-3 35 -19 69q-21 21 -50 32l-50 37q-11 27 -31 51q-16 22 -38 44z" />
<glyph unicode="l" horiz-adv-x="1866" d="M-683 163v142h181q23 29 40 67l-12 80v948q9 39 29 79q30 19 67 34q15 39 23 85h181l-6 -1096l6 -45l-6 -11v-40l-6 -22l12 -62q38 -17 90 -17h847q40 -1 96 -12l45 -62q18 -34 62 -45h34v-181l-1270 -5q-21 -33 -23 -79l-51 -6h-135v29q-3 37 -40 61q-34 18 -56 57 q-20 26 -51 51q-48 2 -57 50z" />
<glyph unicode="m" horiz-adv-x="1890" d="M-588 1501q1 6 12 11h97q41 1 86 11q10 35 12 75h183l6 -17q5 -35 29 -69h366l17 6l23 80h178v-23q5 -31 23 -63h263l12 17q0 40 34 69h161v-40q15 -30 46 -52q26 -21 51 -51l40 -58q38 -1 69 -28v-166h-189l-23 -23l-12 -81l12 -91v-889l-6 -34l6 -12l6 -183h-189v64 q-27 19 -64 34q-25 22 -45 57q-9 40 -12 86v894l6 92q-1 33 -12 74q-35 10 -74 12h-75l-17 -6q-16 -32 -23 -75l6 -986l6 -22l-12 -64q-10 -31 -40 -56q-31 -14 -63 -35q0 -40 -34 -69h-161v138q6 39 6 91v894l-6 46l12 35v45l-12 46q-27 14 -63 18h-102l-29 -64l6 -962 l5 -18v-80l-5 -17q-13 -32 -35 -63l-63 -28q-12 -33 -17 -75l-178 -6q-6 1 -11 12v97q5 40 6 92v957l-6 6l6 17l11 63l-6 23q-15 26 -40 51q-32 16 -63 40q-16 29 -40 58q-30 13 -69 17z" />
<glyph unicode="n" horiz-adv-x="1910" d="M-638 1542h277q27 3 58 18l6 70h159q28 -17 29 -53q14 -20 41 -35h704q30 1 59 18l12 64l194 6v-41q9 -25 29 -47l47 -29l70 -94q31 -1 65 -12v-159q-27 -17 -59 -23l-147 -6l-23 -53l12 -1010l-6 -70l12 -65v-82q-2 -30 -18 -59h-159q-12 31 -17 65q-19 17 -47 29 l-47 29l-24 59l-6 934l12 147q-3 27 -17 58q-18 18 -47 30l-71 -6h-551l-24 -53l-6 -18l6 -47v-939l6 -77l-12 -64q-17 -22 -41 -41l-47 -17q-15 -23 -23 -53q-6 -30 -41 -36h-83q-35 1 -70 12l6 147v1021l6 59l6 18l-6 53q-15 16 -36 35l-52 29q-18 25 -30 53l-41 35l-59 6 z" />
<glyph unicode="o" horiz-adv-x="2090" d="M-828 104v197l1574 -5l63 -5l41 -26q17 -39 47 -84l57 -10q25 -11 26 -42v-109q-1 -6 -10 -10h-1647q-27 0 -57 10l5 52l-41 32l-42 -6zM-828 1428v130h1704q9 -47 42 -88h62v-203l-68 5h-1501l-62 5q-21 10 -41 26l-47 78q-59 3 -89 47z" />
<glyph unicode="p" horiz-adv-x="1973" d="M-578 1390v186l102 12h222q16 41 24 90h192v-42q15 -39 60 -48h1002l12 -6q31 -22 60 -54l48 -66h66v-198h-1212q-27 -23 -48 -60l12 -1116q-13 -39 -36 -78l-66 -36q-21 -34 -30 -84h-192v132l6 12v1068l12 102l-18 36q-28 22 -66 42l-48 66q-23 26 -60 42h-42z" />
<glyph unicode="q" horiz-adv-x="1840" d="M-688 113v186h181q27 30 39 78l-17 90l6 17v524l-6 51l17 62q-9 46 -45 84q-38 17 -73 56q-17 38 -62 57h-40v186h169l34 22l6 17q-4 19 -6 45h135q54 -4 62 -68q50 -16 113 -16h129q48 23 51 84h129q55 -4 56 -68q50 -16 107 -16h265q35 31 45 84h130q57 -5 62 -73 q37 -19 73 -57q21 -32 56 -73h62v-174l-17 -12h-129q-47 -7 -74 -56l12 -118v-524q-1 -56 -12 -124q8 -46 45 -84q45 -17 68 -62q28 -38 79 -51h28v-185h-180q-14 -41 -45 -85h-135q-25 27 -51 79l-366 6l-17 -6l-11 -79h-169q-14 44 -45 85h-236l-23 -6l-11 -79h-169 q-13 46 -51 85q-36 23 -67 61q-24 40 -73 57h-29zM-192 360q8 -25 23 -50l123 -17l45 22l17 51l-11 62v619l-6 12l6 5l5 68q-11 50 -61 73l-73 -6q-27 -2 -51 -16l-17 -57l6 -62v-574l5 -34l-5 -11zM292 360q10 -60 79 -61l67 -6q22 8 45 22l11 57l-11 62v568l6 107l5 23 q-12 48 -61 73l-74 -6q-26 -2 -50 -16q-12 -26 -17 -57l5 -62v-642z" />
<glyph unicode="r" horiz-adv-x="1860" d="M-688 737v76l6 71l147 -6q27 3 53 23q13 22 24 53l-12 65v17h-6l12 41l6 47l-6 18l-24 47l-53 29q-19 16 -35 41l-29 42q-21 14 -47 17q-33 9 -36 47v76l6 71h153q28 6 53 23l6 18q-5 20 -6 47h158q31 -6 36 -41q8 -25 29 -47h839q27 1 59 12l12 64q31 9 70 12h124v-29 l17 -59q25 -8 53 -24l35 -41l30 -47l64 -11l12 -65v-129h-182l-41 -30l-6 -70l6 -65l-6 -70q5 -27 18 -53q20 -19 47 -29q21 -17 41 -41l29 -47q18 -18 41 -30h53v-182l-47 -12l-18 6h-70q-30 -1 -65 -11l-29 -47l12 -447l-6 -17q4 -20 6 -47l6 -147l-194 -6v36 q-5 25 -18 53l-59 17q-18 19 -35 47l-12 64v306l12 117l-6 18q-5 27 -23 53l-65 11h-534q-27 0 -58 -11q-17 -22 -30 -53l12 -441l-12 -64q-13 -22 -35 -41q-21 -13 -47 -18l-29 -47v-47h-188l-6 71l6 70v388l12 140l-30 42l-53 23q-19 18 -35 47l-29 41q-20 14 -47 18 q-33 9 -36 47zM-171 966l6 -24q12 -48 65 -64h598l35 23l12 53l-6 59l6 123q-16 44 -64 65l-616 -6l-12 -6l-24 -71l6 -135z" />
<glyph unicode="s" horiz-adv-x="1921" d="M-598 54v195h664q33 7 66 24l6 83l-6 65l6 24l-6 95q-31 20 -71 30h-492l-12 12q-26 22 -48 53q-20 27 -47 53l-18 6l-42 -6v196h149q42 -6 95 -6h409q36 6 71 24l12 83l-6 89l6 65l-6 24q-23 25 -60 42q-42 -6 -94 -6h-392l-11 6q-28 19 -54 47l-41 59q-34 11 -78 18 v184l18 6h813v6q12 39 17 83h190l6 -18q4 -35 18 -71h510q33 -13 65 -36l42 -65q33 -17 77 -24l12 -89v-106h-694l-18 -6q-16 -34 -24 -77v-190q21 -26 54 -48h510l59 -47l36 -65q39 -6 77 -24v-178l-700 6l-24 -24l-12 -83l6 -101l-6 -65l6 -24q34 -17 77 -24h410l89 -11 q24 -26 41 -60l48 -53h65v-196h-771q-38 -3 -77 -23v-66h-196v54q-26 25 -65 35h-409q-42 2 -89 12q-26 22 -48 54q-19 26 -47 53z" />
<glyph unicode="t" horiz-adv-x="1794" d="M-588 1295v169h788q12 40 17 84h186v-34q11 -28 39 -50h473l40 -23l45 -62q26 -29 67 -34q22 -39 23 -90v-79q-2 -10 -11 -17h-637q-29 -18 -50 -50l11 -1239h-186v57q-25 23 -62 39q-27 28 -50 62l-6 95l6 102v743l-6 45l11 45v45l-17 45q-37 10 -78 11h-428l-62 46 l-39 61q-34 11 -74 29z" />
<glyph unicode="u" horiz-adv-x="1550" d="M-470 -145v1667h53q33 34 36 88h194l-6 -1537l-6 -18l6 -6v-17q-20 -40 -65 -65q-34 -22 -58 -64v-48h-154zM625 -145l6 212v1366l6 18l12 12q28 29 71 53q32 36 35 94h153v-1631q-19 -38 -77 -47l-11 -77h-195z" />
<glyph unicode="v" horiz-adv-x="1874" d="M-528 102v80q1 31 18 63h149q23 9 46 29l11 52l-11 68l-6 18q4 19 6 46v917q8 24 22 51q18 20 46 35l46 28l6 69h155q28 -17 28 -52l-5 -1066l5 -34l-5 -12l-6 -91q8 -22 23 -46q30 -8 68 -12h533l29 -5l11 5l12 12l23 52l-12 63v842l6 40l-6 12v91l12 63q19 20 45 35 l46 28q13 27 18 58q30 12 63 17h126l-6 -1169l-12 -63q4 -27 18 -58q19 -18 46 -28l45 -35l23 -51q20 -19 46 -29h46l-6 -189h-149q-27 -6 -51 -22q-1 -31 -18 -64h-149q-16 27 -22 58q-19 19 -46 28h-837q-20 -13 -34 -40v-46h-189l-6 69l-92 63l-23 51q-26 16 -57 23 q-26 13 -29 46z" />
<glyph unicode="w" horiz-adv-x="1774" d="M-498 93v179l18 6h98q40 1 86 11q14 30 18 70l-12 74q6 41 6 93v899l34 63q32 13 64 35q16 34 23 75h178l6 -17l-6 -1090l6 -46l-6 -17l-6 -98l6 -18q24 -21 58 -34h75l17 -6q27 17 52 46l6 23l-12 64l-6 985q7 38 23 75q26 23 64 41q22 24 34 57v35h191l-12 -1263 q11 -31 40 -57h98q32 5 58 29l12 40l-6 17l-6 911l6 17l-6 75l12 87q21 24 52 46q30 16 57 40v58h190v-133l-5 -17v-991l-12 -93q6 -37 23 -75l64 -34l40 -58q23 -25 58 -40h40v-190h-173q-24 -25 -35 -63v-24h-178l-23 81l-387 6q-19 -26 -28 -63v-24h-179q-10 36 -29 75 l-86 12h-179l-11 -6l-23 -81h-179v24q-6 34 -29 63l-63 40q-15 31 -41 57q-33 17 -75 29z" />
<glyph unicode="x" horiz-adv-x="1860" d="M-548 733v166h144l11 -6h435l46 6l12 -6h17l17 6q24 33 29 80l-12 413q3 40 29 80q30 22 69 40q21 35 23 86h189v-126l-6 -12l-6 -515l6 -18q30 -22 69 -34h435q42 -1 75 -34l46 -69q40 -8 80 -29v-172l-665 6q-10 -2 -17 -11q-26 -33 -29 -81l12 -407l-6 -11l-23 -86 l-80 -28q-7 -41 -29 -81h-172v138l6 17v418l6 12l-6 80l-6 17q-33 21 -80 23h-435q-41 8 -69 46l-46 63q-36 3 -69 29z" />
<glyph unicode="y" horiz-adv-x="1837" d="M-588 710v170q40 16 91 17l1053 -6l12 6q27 29 34 79l-12 295l6 11l-6 102l23 85l73 34q16 38 23 85h187l-17 -640l6 -17q27 -25 62 -45q28 -27 51 -63q21 -25 57 -45h45v-176l-45 -11l-46 6h-79q-10 -3 -17 -12q-23 -31 -34 -73l11 -97v-300l-5 -17l11 -181 q-2 -10 -11 -17h-176v40q-14 38 -56 57q-33 16 -51 56l-12 402l6 11l6 57l-6 40q-31 22 -68 34h-951l-17 11q-25 22 -46 57q-24 26 -56 51q-20 -4 -46 -6z" />
<glyph unicode="z" horiz-adv-x="1858" d="M-468 65v161q10 33 48 36l632 -6l48 24q9 24 12 53l-6 728h-6l12 42l-6 72q-13 23 -36 41l-18 6q-20 -4 -48 -6h-399l-71 12l-42 36l-30 48q-14 17 -36 30h-54v191l788 6q30 2 59 17l6 72h197l-6 -42l30 -47h477q31 -2 66 -12l42 -36l30 -54q23 -16 53 -24q33 -9 36 -48 v-77q-1 -36 -12 -72h-632l-72 -6l-24 -53l6 -72l-6 -788q17 -19 42 -35h477l66 -12l42 -42l24 -54q28 -12 59 -18q29 -17 30 -53v-83q-1 -31 -18 -60h-793q-25 -12 -42 -36v-54h-185l-18 66q-22 18 -54 24h-477q-28 11 -53 30q-16 19 -30 47l-36 42z" />
<glyph unicode="{" horiz-adv-x="1044" d="M-242 30v216h151q30 14 54 46l5 26l-10 72v713l10 105q-7 37 -26 72l-60 52q-19 29 -37 66q-23 24 -54 39h-33v203l167 7q8 0 11 13q13 38 16 85h178v-26q0 -47 37 -72h97q39 -13 86 -14h87l10 -6q29 -21 54 -52l38 -66q40 -7 54 -59v-170l-313 7l-16 6l-5 -6 q-17 -36 -27 -79l5 -765h6l-6 -20v-26q-2 -33 -10 -72l10 -20q4 -37 22 -72h183v7h97l38 -7l10 13l6 -39v-183l-27 6q-32 -12 -65 -38l-37 -72q-30 -29 -76 -33l-178 6l-70 -6l-5 -20l-5 -72h-178l6 33l-6 20q-17 32 -48 58q-24 27 -43 66l-49 58l-16 7z" />
<glyph unicode="|" horiz-adv-x="727" d="M843 -64l6 93v1467l6 19l13 13q26 36 74 62q35 35 38 93h161v-1728q-26 -35 -81 -37l-12 -88h-174q-25 46 -31 106z" />
<glyph unicode="}" horiz-adv-x="1074" d="M670 24v183l6 39l11 -13l39 7h101v-7h191q19 35 22 72l11 20q-9 39 -11 72v26l-5 20h5l6 765q-10 43 -28 79l-6 6l-17 -6l-325 -7v170q15 52 56 59l39 66q27 31 56 52l12 6h89q50 1 90 14h101q39 25 39 72v26h185q3 -47 17 -85q4 -13 11 -13l174 -7v-203h-34 q-32 -15 -56 -39q-19 -37 -39 -66l-62 -52q-20 -35 -28 -72l12 -105v-713l-12 -72l6 -26q26 -32 56 -46h157v-216l-39 7l-17 -7l-50 -58q-21 -39 -45 -66q-32 -26 -51 -58l-5 -20l5 -33h-185l-5 72l-6 20l-73 6l-185 -6q-48 4 -78 33l-40 72q-34 26 -67 38z" />
<glyph unicode="~" horiz-adv-x="1196" />
<glyph unicode="&#xa1;" horiz-adv-x="682" />
<glyph unicode="&#xa2;" />
<glyph unicode="&#xa3;" />
<glyph unicode="&#xa5;" />
<glyph unicode="&#xa6;" horiz-adv-x="532" />
<glyph unicode="&#xa7;" />
<glyph unicode="&#xa8;" horiz-adv-x="682" />
<glyph unicode="&#xa9;" horiz-adv-x="1509" />
<glyph unicode="&#xaa;" horiz-adv-x="758" />
<glyph unicode="&#xab;" />
<glyph unicode="&#xac;" horiz-adv-x="1196" />
<glyph unicode="&#xad;" horiz-adv-x="1132" d="M-584 770v125h911l4 -71q25 -9 45 -48v-125h-911l-4 72q-25 9 -45 47z" />
<glyph unicode="&#xae;" horiz-adv-x="1509" />
<glyph unicode="&#xaf;" horiz-adv-x="1131" />
<glyph unicode="&#xb0;" horiz-adv-x="819" />
<glyph unicode="&#xb1;" horiz-adv-x="1124" />
<glyph unicode="&#xb2;" horiz-adv-x="682" />
<glyph unicode="&#xb3;" horiz-adv-x="682" />
<glyph unicode="&#xb4;" horiz-adv-x="682" />
<glyph unicode="&#xb5;" horiz-adv-x="1180" />
<glyph unicode="&#xb6;" horiz-adv-x="1100" />
<glyph unicode="&#xb7;" horiz-adv-x="682" />
<glyph unicode="&#xb8;" horiz-adv-x="682" />
<glyph unicode="&#xb9;" horiz-adv-x="682" />
<glyph unicode="&#xba;" horiz-adv-x="748" />
<glyph unicode="&#xbb;" />
<glyph unicode="&#xbc;" horiz-adv-x="1708" />
<glyph unicode="&#xbd;" horiz-adv-x="1708" />
<glyph unicode="&#xbe;" horiz-adv-x="1708" />
<glyph unicode="&#xbf;" horiz-adv-x="1251" />
<glyph unicode="&#xc0;" horiz-adv-x="1366" />
<glyph unicode="&#xc1;" horiz-adv-x="1366" />
<glyph unicode="&#xc2;" horiz-adv-x="1366" />
<glyph unicode="&#xc3;" horiz-adv-x="1366" />
<glyph unicode="&#xc4;" horiz-adv-x="1366" />
<glyph unicode="&#xc5;" horiz-adv-x="1366" />
<glyph unicode="&#xc6;" horiz-adv-x="2048" />
<glyph unicode="&#xc7;" horiz-adv-x="1479" />
<glyph unicode="&#xc8;" horiz-adv-x="1366" />
<glyph unicode="&#xc9;" horiz-adv-x="1366" />
<glyph unicode="&#xca;" horiz-adv-x="1366" />
<glyph unicode="&#xcb;" horiz-adv-x="1366" />
<glyph unicode="&#xcc;" horiz-adv-x="569" />
<glyph unicode="&#xcd;" horiz-adv-x="569" />
<glyph unicode="&#xce;" horiz-adv-x="569" />
<glyph unicode="&#xcf;" horiz-adv-x="569" />
<glyph unicode="&#xd0;" horiz-adv-x="1479" />
<glyph unicode="&#xd1;" horiz-adv-x="1479" />
<glyph unicode="&#xd2;" horiz-adv-x="1593" />
<glyph unicode="&#xd3;" horiz-adv-x="1593" />
<glyph unicode="&#xd4;" horiz-adv-x="1593" />
<glyph unicode="&#xd5;" horiz-adv-x="1593" />
<glyph unicode="&#xd6;" horiz-adv-x="1593" />
<glyph unicode="&#xd7;" horiz-adv-x="1196" />
<glyph unicode="&#xd8;" horiz-adv-x="1593" />
<glyph unicode="&#xd9;" horiz-adv-x="1479" />
<glyph unicode="&#xda;" horiz-adv-x="1479" />
<glyph unicode="&#xdb;" horiz-adv-x="1479" />
<glyph unicode="&#xdc;" horiz-adv-x="1479" />
<glyph unicode="&#xdd;" horiz-adv-x="1366" />
<glyph unicode="&#xde;" horiz-adv-x="1366" />
<glyph unicode="&#xdf;" horiz-adv-x="1251" />
<glyph unicode="&#xe0;" />
<glyph unicode="&#xe1;" />
<glyph unicode="&#xe2;" />
<glyph unicode="&#xe3;" />
<glyph unicode="&#xe4;" />
<glyph unicode="&#xe5;" />
<glyph unicode="&#xe6;" horiz-adv-x="1821" />
<glyph unicode="&#xe7;" horiz-adv-x="1024" />
<glyph unicode="&#xe8;" />
<glyph unicode="&#xe9;" />
<glyph unicode="&#xea;" />
<glyph unicode="&#xeb;" />
<glyph unicode="&#xec;" horiz-adv-x="569" />
<glyph unicode="&#xed;" horiz-adv-x="569" />
<glyph unicode="&#xee;" horiz-adv-x="569" />
<glyph unicode="&#xef;" horiz-adv-x="569" />
<glyph unicode="&#xf0;" />
<glyph unicode="&#xf1;" />
<glyph unicode="&#xf2;" />
<glyph unicode="&#xf3;" />
<glyph unicode="&#xf4;" />
<glyph unicode="&#xf5;" />
<glyph unicode="&#xf6;" />
<glyph unicode="&#xf7;" horiz-adv-x="1124" />
<glyph unicode="&#xf8;" horiz-adv-x="1251" />
<glyph unicode="&#xf9;" />
<glyph unicode="&#xfa;" />
<glyph unicode="&#xfb;" />
<glyph unicode="&#xfc;" />
<glyph unicode="&#xfd;" horiz-adv-x="1024" />
<glyph unicode="&#xfe;" />
<glyph unicode="&#xff;" horiz-adv-x="1024" />
<glyph unicode="&#x152;" horiz-adv-x="2048" />
<glyph unicode="&#x153;" horiz-adv-x="1933" />
<glyph unicode="&#x178;" horiz-adv-x="1366" />
<glyph unicode="&#x2c6;" horiz-adv-x="682" />
<glyph unicode="&#x2dc;" horiz-adv-x="682" />
<glyph unicode="&#x2000;" horiz-adv-x="905" />
<glyph unicode="&#x2001;" horiz-adv-x="1810" />
<glyph unicode="&#x2002;" horiz-adv-x="905" />
<glyph unicode="&#x2003;" horiz-adv-x="1810" />
<glyph unicode="&#x2004;" horiz-adv-x="603" />
<glyph unicode="&#x2005;" horiz-adv-x="452" />
<glyph unicode="&#x2006;" horiz-adv-x="301" />
<glyph unicode="&#x2007;" horiz-adv-x="301" />
<glyph unicode="&#x2008;" horiz-adv-x="226" />
<glyph unicode="&#x2009;" horiz-adv-x="362" />
<glyph unicode="&#x200a;" horiz-adv-x="100" />
<glyph unicode="&#x2010;" horiz-adv-x="1132" d="M-584 770v125h911l4 -71q25 -9 45 -48v-125h-911l-4 72q-25 9 -45 47z" />
<glyph unicode="&#x2011;" horiz-adv-x="1132" d="M-584 770v125h911l4 -71q25 -9 45 -48v-125h-911l-4 72q-25 9 -45 47z" />
<glyph unicode="&#x2012;" horiz-adv-x="1132" d="M-584 770v125h911l4 -71q25 -9 45 -48v-125h-911l-4 72q-25 9 -45 47z" />
<glyph unicode="&#x2013;" />
<glyph unicode="&#x2014;" horiz-adv-x="2048" />
<glyph unicode="&#x2018;" horiz-adv-x="455" />
<glyph unicode="&#x2019;" horiz-adv-x="455" />
<glyph unicode="&#x201a;" horiz-adv-x="455" />
<glyph unicode="&#x201c;" horiz-adv-x="682" />
<glyph unicode="&#x201d;" horiz-adv-x="682" />
<glyph unicode="&#x201e;" horiz-adv-x="682" />
<glyph unicode="&#x2022;" horiz-adv-x="717" />
<glyph unicode="&#x2026;" horiz-adv-x="2048" />
<glyph unicode="&#x202f;" horiz-adv-x="362" />
<glyph unicode="&#x2039;" horiz-adv-x="682" />
<glyph unicode="&#x203a;" horiz-adv-x="682" />
<glyph unicode="&#x205f;" horiz-adv-x="452" />
<glyph unicode="&#x20ac;" />
<glyph unicode="&#x2122;" horiz-adv-x="2048" />
<glyph unicode="&#x25fc;" horiz-adv-x="1600" d="M0 0v1600h1600v-1600h-1600z" />
<glyph unicode="&#xfb01;" horiz-adv-x="1024" />
<glyph unicode="&#xfb02;" horiz-adv-x="1024" />
</font>
</defs>
</svg>
