<svg xmlns="http://www.w3.org/2000/svg"><defs><font id="main" horiz-adv-x="1600"><font-face units-per-em="2048" ascent="1638" descent="-410"/><glyph horiz-adv-x="2048"/><glyph horiz-adv-x="2048"/><glyph horiz-adv-x="598"/><glyph horiz-adv-x="900"/><glyph horiz-adv-x="900"/><glyph horiz-adv-x="900"/><glyph unicode="!" horiz-adv-x="500" d="M38 1363l92-988q40-176 219-21l-25 1056q-174 202-286-47zM158 142Q130 0 258 0q217 26 100 200-133 41-200-58z"/><glyph unicode="&quot;" horiz-adv-x="1000" d="M100 951q58 246 213 381 248 174 170-110-37-155-124-271-259-301-259 0zm399 1q58 246 213 381 248 174 170-110-37-155-124-271-259-301-259 0z"/><glyph unicode="#" d="M118 786q-223 33 5 233 149 29 296 53 37 180 76 349 227 86 207-51-17-127-37-261 142 20 283 35 30 162 59 326 130 86 218-64-10-117-25-237 85 7 170 13 255-20 0-283-104-7-210-15-21-133-47-269 120 11 246 22 165-96-13-257-147-9-285-16-36-168-80-340-100-78-226 80 23 123 47 248-138-5-266-8-27-145-57-296-187-125-227 64 17 116 35 229-68-1-133 0-129 135 26 183 68 7 140 15 24 139 49 273-125-12-251-26zm458-222q130 13 270 26 25 136 51 272-136-12-274-25-22-133-47-273z"/><glyph unicode="$" d="M110 911q158 189 360 320 174 108 325 174 20 107 42 201 153 159 191 9-6-65-13-134 60 14 116 20 169-29 311-205 166-296-146-252-50 187-158 218-75-4-145-21-22-229-46-493 13-2 26-3 219-23 378-119 182-113 8-335Q1173 81 907 27q-13-2-25-4-7-69-13-141-204-158-247 16 4 56 8 111-240 15-391 156-7 174 175 162 103-64 235-77 14 161 29 310-45 6-94 14-235 33-457 93-221 58-17 244zm300-72q107-32 292-60 23 191 48 359-47-31-91-68-140-105-249-231zm494-572q55 11 115 29 253 156 41 226-57 1-133 8-11-128-23-263z"/><glyph unicode="%" d="M53 1200q15 87 76 161 120 133 255 137 118 0 185-83 141-169 31-364-82-116-256-147-79-13-164 51-132 103-127 245zm144-83q39-62 128-86 110-4 178 78.5t-5 209.5q-29 42-112 54-79-6-115-39-31-107-73-75-36-66-1-142zM450 0l400 1500h200L650 0H450zm398 295q15 87 76 161 120 133 255 137 118 0 185-83 141-169 31-364-82-116-256-147-79-13-164 51-132 103-127 245zm144-83q39-62 128-86 110-4 178 78.5t-5 209.5q-29 42-112 54-79-6-115-39-31-107-73-75-36-66-1-142z"/><glyph unicode="&amp;" d="M48 246q-182 342 346 648-93 36-170 147-119 168 52 351 272 203 574 52 180-112 135-327-38-183-169-250 218-172 417-398 55 16 102 71 146 100 165-131-59-82-140-108 52-55 121-127-10-222-214-131-55 73-101 131Q971 39 661 0 252 23 48 246zm277 99q78-77 349-106 233 18 375 124-149 183-456 390-397-196-268-408zm117 812q74-98 179-139 151 59 146 207-54 107-185 95-145-44-140-163z"/><glyph unicode="'" horiz-adv-x="600" d="M100 951q58 246 213 381 248 174 170-110-37-155-124-271-259-301-259 0z"/><glyph unicode="(" horiz-adv-x="700" d="M300 0q57-146 260-48-400 848 1 1547-161 165-261 1-400-700 0-1500z"/><glyph unicode=")" horiz-adv-x="700" d="M99 1499Q499 800 100 0q150-135 249 0 401 800 0 1500-57 147-250-1z"/><glyph unicode="*" horiz-adv-x="800" d="M168 1203q12 9 25 17-139 219 95 176 24-11 46-23 7 12 14 23 176 234 176-60 1-4 1-8 13 0 25-1 272-49 44-195 3-4 5-8 120-273-125-150-10 5-19 10-135-276-202-12-1 24-1 46-252-2-84 185z"/><glyph unicode="+" horiz-adv-x="1100" d="M21 728q104 97 306 135 35 3 74 5l19 196q107 195 258 44l-36-240q104-3 226-11 260-67 5-193-140-2-249-13l-17-243q-207-275-231-44l12 241q-19-6-35-13-90-30-182-38-235-23-150 174z"/><glyph unicode="," horiz-adv-x="600" d="M100-250Q158-4 301 197 561 305 483 21q-37-155-124-271-259-301-259 0z"/><glyph unicode="-" horiz-adv-x="1100" d="M21 728q104 97 306 135 201 17 541-6 260-67 5-193-358-4-520-72-86-82-178-90-235-23-154 226z"/><glyph unicode="." horiz-adv-x="600" d="M70 208Q-100 59 116 0q158 7 327 39 131 161-40 206-166 0-333-37z"/><glyph unicode="/" horiz-adv-x="800" d="M100 0h200l400 1500H500z"/><glyph unicode="0" d="M4 744q36 221 190 409 304 335 646 345 297-1 467-210 357-426 78-919Q1179 75 739-3 538-36 323 125-10 387 4 744zm269-231q119-185 385-254 333-13 537.5 230t-15.5 618q-87 121-338 156-238-15-345-112-92-315-219-223-109-192-5-415z"/><glyph unicode="1" d="M262 706q64 175 277 443 161 217 261 298 219 153 168-161L879 274q79-9 265-18 132-54-4-232Q909-25 335 0q-201 200 87 240 82 25 186 33l64 573q-76-127-191-246-248-80-219 106z"/><glyph unicode="2" d="M41 221Q-68 42 116 22q689-51 1302 10 114 204-26 251-518-99-997-54 117 223 449 282 576 172 656 418 43 282-146 422-231 141-493 148-400-6-656-244L93 1131q-124-361 251-122 211 238 523 260 378-25 334-269-38-133-334-226-150-25-478-177Q147 463 41 221z"/><glyph unicode="3" horiz-adv-x="1598" d="M17 1278q-76-108 192-179 155 154 531 192 418-29 492-230-7-131-257-234-162-34-323-24-145-50-3-175 514 0 524-238-40-120-247-155-417-25-749 50-205-40-138-161Q263-26 946 3q512 67 529 331 14 264-258 375 421 173 213 574-192 212-696 218-421-8-717-223z"/><glyph unicode="4" d="M3 466l24 102q265 375 591 590 300 200 652 343l96 3 48-97q-5-319-69-723 49 2 91-23 126-98 1-170-72-20-126-31-22-143-32-378-235-168-265-14 9 159 40 350-335-60-723-87-203-28-307 1zm395 116q314 14 683 90 50 403 38 566-115-72-254-166-278-197-467-490z"/><glyph unicode="5" d="M0 271q-13 318 265 188 91-48 170-150 234-99 518-5 441 200 5 387-379 132-930 74-4 384 16 704 758 37 1054 29 347-36 22-251-394 22-783-8-23-87-19-239 513 15 897-140 542-262 44-663Q1018-8 596 0 153 73 0 271z"/><glyph unicode="6" d="M25 325q-83 240 102 495 244 321 873 680 262 45 198-171-681-406-789-600l277 66q490 47 678-155 281-298-25-545Q1101-11 786 4 172-9 25 325zm315 160q-98-136 56-215 280-77 616-36 191 53 200 169-75 172-415 163-274 5-457-81z"/><glyph unicode="7" d="M83 1468q-185-216 35-272 124-17 233 69 225 43 731 0-315-303-473-642-106-242-188-500 20-246 303-22 33 218 140 442 195 408 550 700 173 203-4 263-819 48-1327-38z"/><glyph unicode="8" d="M1 332q-5 386 370 533-186 48-270 221-49 221 230 352 165 57 396 63 283-11 459-127 247-163 163-377-77-94-199-126 255-51 336-305 54-261-100-442Q1209-40 548 11 31 86 1 332zm307 228q-111-196 78-286 235-70 501-44 398 35 323 304-85 175-414 193-342 3-488-167zm105 492q96-76 362-93 219 15 343 100 76 73-51 143-138 64-298 73-195 5-351-49-148-94-5-174z"/><glyph unicode="9" d="M8 1147q-32-493 399-538 354-13 614 90Q766 340 300 99 262-58 562 18q506 216 882 876 124 298-19 495-233 149-805 99-516-69-612-341zm292-105q0 158 372 254 252 22 501-27 127-144-72-324-298-130-636-117-165 28-165 214z"/><glyph unicode=":" horiz-adv-x="600" d="M217 1024q214-76 276 45 47 216-231 231-199-73-45-276zm51-994q214-75 276 45 47 216-232 231-199-72-44-276z"/><glyph unicode=";" horiz-adv-x="600" d="M100-250q0-301 259 0 87 116 124 271 78 284-182 176Q158-4 100-250zm117 1274q214-76 276 45 47 216-231 231-199-73-45-276z"/><glyph unicode="&lt;" horiz-adv-x="1200" d="M157 632q286 403 732 868 311 0 175-189-362-355-583-738 246-182 608-363Q1147 5 893 1 535 194 199 403q-172 80-42 229z"/><glyph unicode="=" horiz-adv-x="1100" d="M11 1021q104 97 306 136 201 16 541-7 260-67 5-193-358-4-474-64-108-46-200-54-235-23-178 182zm11-436q105 97 306 135 201 17 541-6 261-68 5-193-358-4-473-65-108-45-200-53-235-23-179 182z"/><glyph unicode="&gt;" horiz-adv-x="1200" d="M117 1292q-58 204 196 208 358-192 690-570 172-80 42-230Q800 400 317 1 6 1 142 191q358 309 579 569-242 350-604 532z"/><glyph unicode="?" d="M1 1161q-32-294 221-172 59 255 442 253 493-8 500-213-21-211-335-273-276-53-570-63-108-104 49-240 245-13 583 39 317 69 483 264 262 314 6 556-182 159-499 180-333 26-606-44-264-87-274-287zM328 29q214-76 276 45 47 216-232 231-198-72-44-276z"/><glyph unicode="@" horiz-adv-x="2001" d="M162 145q282-363 980-354 164 155 26 209-613 0-840 289-291 652 132 995 314 202 776 82 456-195 485-906 14-235-163-256-237 24-183 385l58 447q20 141-197 65l-12-86q-59 98-256 133-403 11-541-245-144-273 86-555 250-218 702-141Q1344 2 1556 17q356 61 344 452 27 866-571 1099-598 198-1023-172-525-472-144-1251zm421 565q62 246 312 250 147 17 302-139-17-159-52-355-94-144-374-71-185 74-188 315z"/><glyph unicode="A" d="M0 52Q36-1 102-1q48 0 112 28 42 65 125 340 195-46 365-46 265 0 470 112 42-183 72-366 61-62 117-62 73 0 136 106-24 349-88 605-94 327-193 568-101 220-234 220-16 0-33-3-204-53-387-226-195-181-343-500Q-1 302-1 75q0-12 1-23zm411 533q179 471 515 678 120-161 190-571-210-135-464-135-116 0-241 28z"/><glyph unicode="B" d="M4 1202Q5 683 54 191 81 7 277 7q28 0 59 4 698 27 1000 338 164 166 165 288 0 152-255 235 253 222 253 374 0 140-213 223-198 32-445 31-214 0-465-23-343-53-372-275zm284-349l2 199q162 41 232 164 222 20 442 20h57q144-11 144-75 0-75-197-223-119-85-680-85zm4-247q451 50 711 50 192-11 192-70 0-52-151-143-285-137-735-157-17 124-17 286v34z"/><glyph unicode="C" d="M0 717q89 314 323 475 287 225 579 295 80 12 149 12 362 0 440-320 3-28 3-52 0-132-82-132-38 0-93 29-108 211-283 211-55 0-116-21-250-97-420-214-170-128-256-293-1-176 190-292 234-114 451-127 236 16 408 158 59 16 100 16 100 0 100-96 0-60-38-156Q1219 31 891 1 479 13 268 176-3 397-3 659q0 29 3 58z"/><glyph unicode="D" d="M3 1176q-2-71-2-142 0-451 100-844Q167-3 316-3q60 0 132 31 446 219 732 507 267 220 319 525 5 43 5 83 0 214-155 313-240 45-511 44-206 0-429-25-343-60-406-299zm242-75h4q135 0 200 124 186 36 417 36 60 0 124-2 219-8 323-107 2-17 2-34 0-191-247-431-251-221-595-374-46-16-81-16-86 0-107 95-46 201-46 488 0 105 6 221z"/><glyph unicode="E" d="M8 1324q-12-110-12-229 0-150 19-313-5-124-5-228 0-214 22-341Q81 0 310 0h15l245 86q311 110 545 110 20 0 39-1 186 68 186 135 0 58-137 116-51 5-104 5-249 0-541-105-109-34-183-34-111 0-140 78-14 40-14 78 0 102 103 193 470 42 772 42 76 0 141-3 174 102 174 168 0 69-186 100-299-9-559-23-112-12-197-12-254 0-254 106 0 16 6 35 66 114 388 134 325 0 738 8 150 90 150 161 0 72-158 124-408-28-1026-36-238-5-305-141z"/><glyph unicode="F" d="M0 1328q86 108 429 112 294 34 654 58l289-9q125-82 125-150 0-70-133-126l-312 21q-324-6-574-66-56-143-214-150 1-146 11-279 18-1 37-1 190 0 435 64 186 27 340 27 104 0 193-12 121-87 121-155 0-73-140-125-119 15-249 15t-270-15q-264-15-442-100 0-179 7-373Q249-1 184.5-1T50 64Q38 282 38 762q-12 332-38 566z"/><glyph unicode="G" d="M64 271Q8 462 8 631q0 229 102 418 224 365 673 452 45 4 87 4 366 0 538-266 18-80 18-132 0-100-66-100-47 0-127 49-62 194-334 194-64 0-139-11-363-45-467-316-57-146-57-266 0-90 32-165 121-225 404-225 51 0 106 7 315 83 393 205 21 46 21 80 0 86-136 86-20 0-42-2-120-62-249-62-45 0-90 7-104 77-104 139 0 69 129 120 121 23 379 23 140 0 321-7 99-29 99-145 0-73-39-180Q1343 146 843-1q-80-8-154-8Q259-9 64 271z"/><glyph unicode="H" d="M0 1313Q52 534 70 103 133 9 194 9q57 0 112 84l-16 352q281 120 622 120 142 0 294-21 12-238 68-440 63-99 116-99 58 0 104 118 0 196-59 765 0 413-67 571-56 45-102 45-67 0-114-93-1-38-1-78 0-210 26-498-532-6-907-113-18 256-18 550-53 114-125 114-57 0-127-73z"/><glyph unicode="I" horiz-adv-x="1100" d="M75 1178q171-46 300-61 30-289 30-597 0-81-2-164-160-31-315-114-47-85-47-140 0-80 97-100 175 83 333 107 203-5 392-109 136 37 136 125 0 55-53 130-168 4-286 77-35 298-35 574 0 113 6 222 173 55 328 156 37 81 37 132 0 87-108 87-27 0-60-5-89-70-340-109-269 28-376 81Q4 1445 4 1359q0-70 71-181z"/><glyph unicode="J" horiz-adv-x="1100" d="M55 1203q100-35 236-35 48 0 101 4 231-321 231-580 0-69-16-133-54-194-218-226-10-1-19-1-99 0-167 85-31 3-56 3Q6 320 6 236q0-53 57-140Q126-2 394-2q36 0 76 2 261 37 343 218 75 168 75 346 0 303-218 634 137 17 293 87 37 79 37 129 0 85-109 85-27 0-60-5-89-39-343-68h-24q-252 0-355 41Q1 1451 1 1363q0-62 54-160z"/><glyph unicode="K" d="M11 1360q-2-278-2-512 0-468 8-762Q91 4 154 4q75 0 135 117l-14 318q139 54 311 173 256-192 559-529 60-15 106-15 140 0 140 145 0 26-4 56-340 309-584 490 352 237 670 551 23 63 23 106 0 91-104 91-27 0-61-6-356-319-695-584-184-137-378-180l-11 223 11 407q-72 102-133 102-63 0-114-109z"/><glyph unicode="L" d="M14 1367q93 132 174 132 56 0 106-65-22-353-22-612 0-184 11-321 15-213 233-213 37 0 81 6 520 49 715 144 46 10 80 10 107 0 107-94 0-67-55-183Q1182 58 298 0 87 51 44 255 7 655 7 1038q0 166 7 329z"/><glyph unicode="M" horiz-adv-x="2300" d="M0 188Q41 4 116 4q67 0 162 147 152 304 263 668Q797 24 1001 14q4-1 8-1 87 0 262 422 211 426 352 594 154-555 305-871 78-125 140-125 76 0 131 185-181 361-428 1149-54 138-125 138-81 0-185-175-202-295-364-599-40-174-130-245-75 114-120 287-80 242-156 589-63 144-132 144t-145-144Q174 494 0 188z"/><glyph unicode="N" d="M0 1231q39 175 144 176 58 0 136-55 288-300 611-601 185-171 309-234 12 13 12 68 0 95-36 317-41 148-61 506 106 97 186 97 78 0 130-92-2-85-2-170 0-356 31-691 45-191 45-332 0-70-11-127-44-91-111-91-63 0-145 81-186 187-417 375-304 293-437 449-40-42-90-42-21 0-43 7 2-310 63-638 1-23 1-45Q315 3 232 3 165 3 43 127 29 522 0 1231z"/><glyph unicode="O" horiz-adv-x="2000" d="M0 747q3-357 390-619Q598-6 864-6q54 0 111 6 452 98 761 455 164 188 164 379 0 226-230 457-251 209-615 210-476-10-861-345Q30 968 0 747zm299 184q237 13 248 176 243 129 476 129 22 0 43-1 315-47 491-216 95-103 95-206 0-87-68-175-231-298-609-351-413 0-621 229-100 133-100 256 0 82 45 159z"/><glyph unicode="P" d="M6 957q41-251 93-444 19-172 26-470Q188 1 239 1q85 0 138 116l-5 222q119 54 342 147 247 101 435 225 239 137 337 404 13 52 13 97 0 194-243 255-228 34-413 34-47 0-92-2-313-20-512-103Q6 1282 6 982v-25zm261 65q132 28 156 198 170 31 357 31 161 0 336-23 75-25 75-78 0-75-148-207-158-119-347-183-234-93-370-107-46 211-59 369z"/><glyph unicode="Q" d="M4 744q36 221 190 409 304 335 646 345 297-1 467-210 195-233 195-472 0-198-134-400-22-29-45-57l58-87q17-82 17-135 0-92-53-92-28 0-71 25l-127 117Q966 47 739-3q-34-6-69-6-169 0-347 134Q3 376 3 715q0 15 1 29zm269-231q119-185 385-254 25-5 50-5 133 0 257 146l-45 99q-20 37-20 64 0 67 129 67 14 0 30-1l108-78q120 93 120 238 0 136-107 318-87 121-338 156-238-15-345-112-71-244-163-244-27 0-56 21-56-98-56-205 0-101 51-210z"/><glyph unicode="R" d="M20 1333q-13-89-13-208 0-224 47-553 11-102 11-204 0-119-15-237Q113-3 171-3q57 0 110 129 8 88 8 222 0 40-1 84 50-5 101-5 101 0 204 19 278-202 535-333 67-26 107-26 57 0 57 54 0 48-45 137-191 178-383 290 359 129 575 503 57 110 57 193 0 133-150 193-186 47-429 47-158 0-339-20-391-78-558-151zm229-198q117 84 616 136h4q213 0 316-116v-9q0-118-101-204-184-172-446-227-218-43-365-43-11 187-24 463z"/><glyph unicode="S" d="M110 911q158 189 360 320 387 241 661 270 169-29 311-205 58-103 58-165 0-93-131-93-32 0-73 6-50 187-158 218-268-14-479-192-140-105-249-231 176-52 563-94 219-23 378-119 93-58 93-144 0-82-85-191Q1173 81 907 27 792 7 691 7 409 7 239 165v13q0 150 152 150 11 0 23-1 130-80 304-80 137 0 301 49 138 85 138 144 0 50-97 82-165 3-476 52-235 33-457 93-115 30-115 95 0 60 98 149z"/><glyph unicode="T" horiz-adv-x="1300" d="M150 1434q132 58 368 58 32 0 66-1 81-5 167-4 137 0 290 11 161-29 161-107 0-66-112-166-123-19-246-19-50 0-101 3 65-468 70-821 3-46 3-88 0-123-26-211-47-88-99-88-64 0-136 136-9 60-9 144 0 63 5 141 5 81 5 170 0 264-40 604-171 0-316-43-166 33-166 114 0 67 116 167z"/><glyph unicode="U" d="M6 214q-4-31-4-58Q2 2 148 0q593 303 889 303 60 0 108-13l59-214q87-73 155-73 85 0 141 115-137 189-142 713 16 133 16 287 0 128-11 270-51 115-132 115-71 0-164-87-21-73-21-151 0-98 33-203 31-186 31-438 0-36-1-73-57 15-132 15-240 0-660-155v21q0 128 53 391 87 257 105 472 1 9 1 17 0 92-66 92-52 0-144-57-116-137-183-558Q24 452 6 214z"/><glyph unicode="V" d="M0 1222q38 143 118 143 61 0 147-86 177-559 411-850 175 216 286 490 121 302 273 476 114 105 179 105 86 0 85-185-101-251-252-519-180-377-407-696Q775 0 705 0q-68 0-141 94-80 168-255 442Q116 850 0 1222z"/><glyph unicode="W" horiz-adv-x="2300" d="M0 1326q55 131 140 131 71 0 162-92 67-127 81-330 93-273 255-479 132 265 266 868 91 76 164 76 91 0 152-121l61-257 99-303 140-316q112 207 225 454 77 158 196 491 84 49 140 49 118 0 118-215-113-256-295-618-181-333-257-523Q1574 0 1498 0t-154 141q-140 492-280 759-204-604-292-774Q703 15 628 15q-78 0-163 120-110 337-253 602Q80 983 0 1326z"/><glyph unicode="X" d="M0 1255q322-348 527-545-247-330-404-464v-11q0-213 101-212 58 0 148 69 169 144 399 430 301-234 536-446 49-44 85-44 74 0 99 180-253 267-537 544 232 280 517 549 26 58 26 96 0 75-98 75-60 0-156-28-226-192-491-520-262 206-481 447-90 67-150 67-102 0-121-187z"/><glyph unicode="Y" d="M27 1162q445-296 758-403-159-318-363-582-8-34-8-62Q414-2 564-2q65 0 158 22 178 337 342 680 138 301 384 575 51 89 51 144 0 85-125 85-49 0-117-13-197-236-349-474-387 123-693 428-47 12-83 12-128 0-128-145 0-62 23-150z"/><glyph unicode="Z" d="M1 185q19 170 251 303 421 283 862 670 65 53 65 80 0 30-74 31-300 13-839 16-40-39-90-39-58 0-131 52-40 37-40 75 0 63 110 128 693-3 1229-34 125-35 125-166 0-21-3-45-5-166-521-554-221-188-477-333-108-60-108-89 0-17 38-24 302-26 633-26 182 0 372 8 96-21 96-76 0-56-103-148Q1090-1 796-1 474-1 166 17 1 46 1 176v9z"/><glyph unicode="[" horiz-adv-x="700" d="M125-4q0-199 200-199l134-4q175 39 66 204H425Q325-3 325 96q-48 167-1 1305 1 99 101 99h100q166 160 0 200H325q-200 0-200-193Q77 415 125-4z"/><glyph unicode="\" horiz-adv-x="800" d="M100 1500L500 0h200L300 1500H100z"/><glyph unicode="]" horiz-adv-x="700" d="M174 1499h100q100 0 100-100 48-166 9-1304 0-99-100-99H183q-166-160 0-200h200q200 0 200 193 39 1091-9 1511 0 199-200 199l-134 4q-175-39-66-204z"/><glyph unicode="^" horiz-adv-x="800" d="M100 1100h200l100 200 100-200h200l-200 400H300z"/><glyph unicode="_" d="M0 0v-100h1600V0H0z"/><glyph unicode="`" horiz-adv-x="600" d="M100 1298q0 200 198 0 67-76 95-179 60-188-130-73-119 90-163 252z"/><glyph unicode="a" d="M0 52Q36-1 102-1q48 0 112 28 42 65 125 340 195-46 365-46 265 0 470 112 42-183 72-366 61-62 117-62 73 0 136 106-24 349-88 605-94 327-193 568-101 220-234 220-16 0-33-3-204-53-387-226-195-181-343-500Q-1 302-1 75q0-12 1-23zm411 533q179 471 515 678 120-161 190-571-210-135-464-135-116 0-241 28z"/><glyph unicode="b" d="M4 1202Q5 683 54 191 81 7 277 7q28 0 59 4 698 27 1000 338 164 166 165 288 0 152-255 235 253 222 253 374 0 140-213 223-198 32-445 31-214 0-465-23-343-53-372-275zm284-349l2 199q162 41 232 164 222 20 442 20h57q144-11 144-75 0-75-197-223-119-85-680-85zm4-247q451 50 711 50 192-11 192-70 0-52-151-143-285-137-735-157-17 124-17 286v34z"/><glyph unicode="c" d="M0 717q89 314 323 475 287 225 579 295 80 12 149 12 362 0 440-320 3-28 3-52 0-132-82-132-38 0-93 29-108 211-283 211-55 0-116-21-250-97-420-214-170-128-256-293-1-176 190-292 234-114 451-127 236 16 408 158 59 16 100 16 100 0 100-96 0-60-38-156Q1219 31 891 1 479 13 268 176-3 397-3 659q0 29 3 58z"/><glyph unicode="d" d="M3 1176q-2-71-2-142 0-451 100-844Q167-3 316-3q60 0 132 31 446 219 732 507 267 220 319 525 5 43 5 83 0 214-155 313-240 45-511 44-206 0-429-25-343-60-406-299zm242-75h4q135 0 200 124 186 36 417 36 60 0 124-2 219-8 323-107 2-17 2-34 0-191-247-431-251-221-595-374-46-16-81-16-86 0-107 95-46 201-46 488 0 105 6 221z"/><glyph unicode="e" d="M8 1324q-12-110-12-229 0-150 19-313-5-124-5-228 0-214 22-341Q81 0 310 0h15l245 86q311 110 545 110 20 0 39-1 186 68 186 135 0 58-137 116-51 5-104 5-249 0-541-105-109-34-183-34-111 0-140 78-14 40-14 78 0 102 103 193 470 42 772 42 76 0 141-3 174 102 174 168 0 69-186 100-299-9-559-23-112-12-197-12-254 0-254 106 0 16 6 35 66 114 388 134 325 0 738 8 150 90 150 161 0 72-158 124-408-28-1026-36-238-5-305-141z"/><glyph unicode="f" d="M0 1328q86 108 429 112 294 34 654 58l289-9q125-82 125-150 0-71-133-126l-312 21q-324-6-574-66-56-143-214-150 1-146 11-279 18-1 37-1 190 0 435 64 186 27 340 27 104 0 193-12 121-87 121-155 0-73-140-125-119 15-249 15t-270-15q-264-15-442-100 0-179 7-373Q248-1 184-1T50 64Q38 282 38 762q-12 332-38 566z"/><glyph unicode="g" d="M65 271Q9 462 9 631q0 229 102 418 224 365 673 452 45 4 87 4 366 0 538-266 18-80 18-132 0-100-66-100-47 0-127 49-62 194-334 194-64 0-139-11-363-45-467-316-57-146-57-266 0-90 32-165 121-225 404-225 51 0 106 7 315 83 393 205 21 46 21 80 0 86-136 86-20 0-42-2-120-62-249-62-45 0-90 7-104 77-104 139 0 69 129 120 121 23 379 23 140 0 321-7 99-29 99-145 0-73-39-180Q1344 146 844-1q-80-8-154-8Q260-9 65 271z"/><glyph unicode="h" d="M0 1313Q52 534 70 103 133 9 194 9q57 0 112 84l-16 352q281 120 622 120 142 0 294-21 12-238 68-440 63-99 116-99 58 0 104 118 0 196-59 765 0 413-67 571-56 45-102 45-67 0-114-93-1-38-1-78 0-210 26-498-532-6-907-113-18 256-18 550-53 114-125 114-57 0-127-73z"/><glyph unicode="i" horiz-adv-x="501" d="M56 900q64-549 76-763Q192 3 259.5 2.5T402 137q-2 222-54 786-5 308-88 506-35 75-77 75-40 0-85-67-91-61-91-230 0-125 49-307z"/><glyph unicode="j" horiz-adv-x="1101" d="M0 367Q72 190 263 61 392 4 515 4q173 0 335 112 147 121 147 475 0 303-108 779-52 131-131 131-71 0-163-103 123-513 123-786 0-236-92-293-13-33-72-33t-162 32q-106 88-157 197-39 7-72 7Q12 522 0 367z"/><glyph unicode="k" d="M11 1360q-2-278-2-512 0-468 8-762Q91 4 154 4q75 0 135 117l-14 318q139 54 311 173 256-192 559-529 60-15 106-15 140 0 140 145 0 26-4 56-340 309-584 490 352 237 670 551 23 63 23 106 0 91-104 91-27 0-61-6-356-319-695-584-184-137-378-180l-11 223 11 407q-72 102-133 102-63 0-114-109z"/><glyph unicode="l" d="M14 1367q93 132 174 132 56 0 106-65-22-353-22-612 0-184 11-321 15-213 233-213 37 0 81 6 520 49 715 144 46 10 80 10 107 0 107-94 0-67-55-183Q1182 58 298 0 87 51 44 255 7 655 7 1038q0 166 7 329z"/><glyph unicode="m" horiz-adv-x="2300" d="M0 188Q41 4 116 4q67 0 162 147 152 304 263 668Q797 24 1001 14q4-1 8-1 87 0 262 422 211 426 352 594 154-555 305-871 78-125 140-125 76 0 131 185-181 361-428 1149-54 138-125 138-81 0-185-175-202-295-364-599-40-174-130-245-75 114-120 287-80 242-156 589-63 144-132 144t-145-144Q174 494 0 188z"/><glyph unicode="n" d="M0 1231q39 175 144 176 58 0 136-55 288-300 611-601 185-171 309-234 12 13 12 68 0 95-36 317-41 148-61 506 106 97 186 97 78 0 130-92-2-85-2-170 0-356 31-691 45-191 45-332 0-70-11-127-44-91-111-91-63 0-145 81-186 187-417 375-304 293-437 449-40-42-90-42-21 0-43 7 2-310 63-638 1-23 1-45Q315 3 232 3 165 3 43 127 29 522 0 1231z"/><glyph unicode="o" horiz-adv-x="2000" d="M0 747q3-357 390-619Q598-6 864-6q54 0 111 6 452 98 761 455 164 188 164 379 0 226-230 457-251 209-615 210-476-10-861-345Q30 968 0 747zm299 184q237 13 248 176 243 129 476 129 22 0 43-1 315-47 491-216 95-103 95-206 0-87-68-175-231-298-609-351-413 0-621 229-100 133-100 256 0 82 45 159z"/><glyph unicode="p" d="M6 957q41-251 93-444 19-172 26-470Q188 1 239 1q85 0 138 116l-5 222q119 54 342 147 247 101 435 225 239 137 337 404 13 52 13 97 0 194-243 255-228 34-413 34-47 0-92-2-313-20-512-103Q6 1282 6 982v-25zm261 65q132 28 156 198 170 31 357 31 161 0 336-23 75-25 75-78 0-76-148-207-158-119-347-183-234-93-370-107-46 211-59 369z"/><glyph unicode="q" d="M4 744q36 221 190 409 304 335 646 345 297-1 467-210 195-233 195-472 0-198-134-400-22-29-45-57l58-87q17-82 17-135 0-92-53-92-28 0-71 25l-127 117Q966 47 739-3q-34-6-69-6-169 0-347 134Q3 376 3 715q0 15 1 29zm269-231q119-185 385-254 25-5 50-5 133 0 257 146l-45 99q-20 37-20 64 0 67 129 67 14 0 30-1l108-78q120 93 120 238 0 136-107 318-87 121-338 156-238-15-345-112-71-244-163-244-27 0-56 21-56-98-56-205 0-101 51-210z"/><glyph unicode="r" d="M20 1333q-13-89-13-208 0-224 47-553 11-102 11-204 0-119-15-237Q113-3 171-3q57 0 110 129 8 88 8 222 0 40-1 84 50-5 101-5 101 0 204 19 278-202 535-333 67-26 107-26 57 0 57 54 0 48-45 137-191 178-383 290 359 129 575 503 57 110 57 193 0 133-150 193-186 47-429 47-158 0-339-20-391-78-558-151zm229-198q117 84 616 136h4q213 0 316-116v-9q0-118-101-204-184-172-446-227-218-43-365-43-11 187-24 463z"/><glyph unicode="s" d="M110 911q158 189 360 320 387 241 661 270 169-29 311-205 58-103 58-165 0-93-131-93-32 0-73 6-50 187-158 218-268-14-479-192-140-105-249-231 176-52 563-94 219-23 378-119 93-58 93-144 0-82-85-191Q1173 81 907 27 792 7 691 7 409 7 239 165v13q0 150 152 150 11 0 23-1 130-80 304-80 137 0 301 49 138 85 138 144 0 50-97 82-165 3-476 52-235 33-457 93-115 30-115 95 0 60 98 149z"/><glyph unicode="t" horiz-adv-x="1300" d="M126 1434q132 58 368 58 32 0 66-1 81-5 167-4 137 0 290 11 161-29 161-107 0-66-112-166-123-19-246-19-50 0-101 3 65-468 70-821 3-46 3-88 0-123-26-211-47-88-99-88-64 0-136 136-9 60-9 144 0 63 5 141 5 81 5 170 0 264-40 604-171 0-316-43-166 33-166 114 0 67 116 167z"/><glyph unicode="u" d="M6 214q-4-31-4-58Q2 2 148 0q593 303 889 303 60 0 108-13l59-214q87-73 155-73 85 0 141 115-137 189-142 713 16 133 16 287 0 128-11 270-51 115-132 115-71 0-164-87-21-73-21-151 0-98 33-203 31-186 31-438 0-36-1-73-57 15-132 15-240 0-660-155v21q0 128 53 391 87 257 105 472 1 9 1 17 0 92-66 92-52 0-144-57-116-137-183-558Q24 452 6 214z"/><glyph unicode="v" d="M0 1222q38 143 118 143 61 0 147-86 177-559 411-850 175 216 286 490 121 302 273 476 114 105 179 105 86 0 85-185-101-251-252-519-180-377-407-696Q775 0 705 0q-68 0-141 94-80 168-255 442Q116 850 0 1222z"/><glyph unicode="w" horiz-adv-x="2300" d="M0 1326q55 131 140 131 71 0 162-92 67-127 81-330 93-273 255-479 132 265 266 868 91 76 164 76 91 0 152-121l61-257 99-303 140-316q112 207 225 454 77 158 196 491 84 49 140 49 118 0 118-215-113-256-295-618-181-333-257-523Q1574 0 1498 0t-154 141q-140 492-280 759-204-604-292-774Q703 15 628 15q-78 0-163 120-110 337-253 602Q80 983 0 1326z"/><glyph unicode="x" d="M0 1255q322-348 527-545-247-330-404-464v-11q0-213 101-212 58 0 148 69 169 144 399 430 301-234 536-446 49-44 85-44 74 0 99 180-253 267-537 544 232 280 517 549 26 58 26 96 0 75-98 75-60 0-156-28-226-192-491-520-262 206-481 447-90 67-150 67-102 0-121-187z"/><glyph unicode="y" d="M27 1162q445-296 758-403-159-318-363-582-8-34-8-62Q414-2 564-2q65 0 158 22 178 337 342 680 138 301 384 575 51 89 51 144 0 85-125 85-49 0-117-13-197-236-349-474-387 123-693 428-47 12-83 12-128 0-128-145 0-62 23-150z"/><glyph unicode="z" d="M2 185q19 170 251 303 421 283 862 670 65 53 65 80 0 30-74 31-300 13-839 16-40-39-90-39-58 0-131 52-40 37-40 75 0 63 110 128 693-3 1229-34 125-35 125-166 0-21-3-45-5-166-521-554-221-188-477-333-108-60-108-89 0-17 38-24 302-26 633-26 182 0 372 8 96-21 96-76 0-56-103-148Q1091-1 797-1 475-1 167 17 2 46 2 176v9z"/><glyph unicode="{" horiz-adv-x="700" d="M-48 663q71-62 149-182 3-305 24-485 0-199 200-199l134-4q175 39 66 204H425Q325-3 325 96q-48 167-30 472L157 726l137 140 31 585q0 49 100 49h100q166 160 0 200H325q-200 0-200-193-13-307-19-560-57-95-148-148z"/><glyph unicode="|" horiz-adv-x="400" d="M100-200h200v1900H100V-200z"/><glyph unicode="}" horiz-adv-x="700" d="M35-7q-166-160 0-200h200q200 0 200 193 13 307 19 560 57 95 148 148l6 136q-71 62-149 182-3 305-24 485 0 199-200 199l-134 4q-175-39-66-204h100q100 0 100-99 48-167 31-471l137-159-137-140-30-584Q235-7 135-7H35z"/><glyph unicode="~" d="M134 651Q34 702 234 850q200 100 561-4.5t661-4.5q100-56-100-200-200-100-561 4.5T134 651z"/><glyph unicode="¡" horiz-adv-x="500" d="M80 1000q133-41 200 58 28 142-100 142-217-26-100-200zm9-154l25-1055q174-202 286 47l-92 987q-40 176-219 21z"/><glyph unicode="¤" horiz-adv-x="1000" d="M103 879l195 152 49-67q91 56 190 60 95-1 164-44l53 55 150-149-69-68q75-162-26-342l62-56-154-125-46 57q-79-44-186-63-63-10-129 18l-43-70-177 127 60 69q-79 99-74 221 11 75 51 141zm172-335q55-85 176-119 151-6 244 107.5T689 821q-41 55-156 73-107-8-157-53-40-146-99-104-50-89-2-193z"/><glyph unicode="¥" d="M3 1400q193 216 260 7 76-402 516-550 247 112 475 560 121 190 242-58-292-542-596-759 16-387-20-577-184-75-260 30 33 218 48 566Q157 890 3 1400zM400 200l100 100 649 1-100-100zm0 200l100 100 649 1-100-100z"/><glyph unicode="¦" horiz-adv-x="400" d="M100-200h200v800H100v-800zm0 1100h200v800H100V900z"/><glyph unicode="¨" horiz-adv-x="1000" d="M67 1300q214-56 276 34 68 217-210 228-199-53-66-262zm550-4q214-56 276 34 68 217-210 228-199-53-66-262z"/><glyph unicode="©" d="M0 750q0 311 219.5 530.5T750 1500t530.5-219.5T1500 750t-219.5-530.5T750 0 219.5 219.5 0 750zm100 0q0-269 190.5-459.5T750 100t459.5 190.5T1400 750t-190.5 459.5T750 1400t-459.5-190.5T100 750zm196-21q54 189 196 285 174 135 350 177 301 44 357-184 14-154-104-94-86 167-242 115-151-59-254-129-103-77-155-176-1-105 115-175 142-68 273-76 143 9 247 95 174 48 98-142-143-107-341-125-250 7-377 105-183 147-163 324z"/><glyph unicode="ª" horiz-adv-x="800" d="M102 921q-5 91 88 290 59 127 137 200 73 69 154 90 62 12 107-87 39-96 77-227 25-102 35-242-45-75-101-18-12 74-29 147-134-74-333-27-33-110-50-136-60-26-85 10zm164 214q159-36 281 42-28 164-76 229-134-83-205-271z"/><glyph unicode="«" horiz-adv-x="1800" d="M157 632q286 403 732 868 311 0 175-189-362-355-583-738 246-182 608-363Q1147 5 893 1 535 194 199 403q-172 80-42 229zm600 99q286 403 732 868 311 0 175-189-362-355-583-738 246-182 608-363 58-205-196-209-358 193-694 402-172 80-42 229z"/><glyph unicode="­" horiz-adv-x="1100" d="M21 728q104 97 306 135 201 17 541-6 260-67 5-193-358-4-520-72-86-82-178-90-235-23-154 226z"/><glyph unicode="®" d="M0 750q0 311 219.5 530.5T750 1500t530.5-219.5T1500 750t-219.5-530.5T750 0 219.5 219.5 0 750zm100 0q0-269 190.5-459.5T750 100t459.5 190.5T1400 750t-190.5 459.5T750 1400t-459.5-190.5T100 750zm208 344q-23-154 21-453 14-132-3-262 75-158 140-3 6 69 4 182 91-8 185 8 168-120 324-198 151-57 72 99-116 105-232 172 217 77 348 299 91 172-56 230-186 45-465 16-237-47-338-90zm139-118q71 50 373 81 130 1 193-69 3-74-61-127l-134-89-136-46q-132-25-221-25-6 111-14 275z"/><glyph unicode="¯" horiz-adv-x="1000" d="M179 1490q-290-231 13-261 322 22 635 48 161 178-30 221-298 7-618-8z"/><glyph unicode="°" horiz-adv-x="700" d="M107 1246q12 73 63 134 99 110 212 114 97-1 153-69 117-140 25-302-67-96-212-122-65-11-136 42-109 86-105 203zm102-74q36-57 116-80 100-4 161.5 72t-3.5 194q-27 37-103 49-71-5-104-36-27-97-66-69-33-60-1-130z"/><glyph unicode="±" horiz-adv-x="1200" d="M120 228q104 97 306 135 201 17 541-6 260-67 5-193-358-4-520-72-86-82-178-90Q39-21 120 228zm2 626q104 97 306 135 35 3 74 5l19 196q107 195 258 44l-36-240q104-3 226-11 260-67 5-193-140-2-249-13l-17-243q-207-275-231-44l12 241q-19-6-35-13-90-30-182-38-235-23-150 174z"/><glyph unicode="²" horiz-adv-x="800" d="M116 989q42 96 138 149 129 60 189 70 117 37 132 90 17 97-132 107-124-9-207-103-148-95-99 48l44 49q101 95 259 97 104-2 195-58 75-56 58-168-32-98-260-166-131-24-177-112 189-18 394 21 55-19 10-100-242-24-514-4-73 8-30 80z"/><glyph unicode="³" horiz-adv-x="800" d="M107 1411q115 86 278 89 196-3 271-87 81-160-83-230 106-44 101-149-7-106-206-133-266-11-353 49-26 48 54 64 129-30 291-20 81 14 96 62-4 95-204 95-55 50 2 70 62-4 125 10 97 41 100 93-29 80-191 92-146-15-207-77-104 29-74 72z"/><glyph unicode="´" horiz-adv-x="500" d="M102 1266q34 147 140 234 175 31 159-110-27-124-77-184-244-241-222 60z"/><glyph unicode="µ" d="M6 214q-56-673 76-640Q249-561 265 4q596 360 880 286l59-214q197-164 296 42-137 189-142 713 29 243 5 557-96 216-296 28-47-165 12-354 35-212 30-511-241 63-792-140-5 126 53 412 87 257 105 472 11 187-209 52-116-137-183-558Q24 452 6 214z"/><glyph unicode="·" horiz-adv-x="500" d="M151 639q184-56 237 33 59 217-181 229-171-54-56-262z"/><glyph unicode="¸" horiz-adv-x="1000" d="M291-404Q191-304 391-204q100-91 200 0 52 100-152 256 52 201 205 44 286-300 47-500-200-100-400 0z"/><glyph unicode="¹" horiz-adv-x="800" d="M203 1178q26 69 110 173 63 85 103 116 86 60 66-62l-35-395q31-4 104-7 52-21-1-91-92-19-318-9-79 78 35 93 32 10 73 13l25 224q-30-50-75-96-98-31-87 41z"/><glyph unicode="º" horiz-adv-x="800" d="M100 1200q15 87 76 161 120 133 255 137 118 0 185-83 141-169 31-364-82-116-256-147-79-13-164 51-132 103-127 245zm144-83q39-62 128-86 110-4 178 78.5t-5 209.5q-29 42-112 54-79-6-115-39-31-107-73-75-36-66-1-142z"/><glyph unicode="»" horiz-adv-x="1800" d="M116 1292q-58 204 196 208 358-192 690-570 172-80 42-230Q799 400 316 1 5 1 141 191q358 309 579 569-242 350-604 532zm600 98q-58 204 196 208 358-192 690-570 172-80 42-230-245-300-728-699-311 0-175 190 358 309 579 569-242 350-604 532z"/><glyph unicode="¼" d="M159 1183q26 69 110 173 63 85 103 117 86 59 66-63l-35-395q31-4 104-7 52-21-1-91-92-19-318-9-79 78 35 94 32 9 73 13l25 223q-30-49-75-96-98-31-87 41zM450 0l400 1500h200L650 0H450zm395 183l9 40q105 146 233 230 118 78 257 134l38 1 19-38q-2-124-27-282 19 1 36-9 49-38 0-66-28-8-50-12-8-56-12-148-93-65-105-5 4 62 16 137-132-24-285-34-80-11-121 0zm155 46q124 5 270 35 19 157 15 220-46-28-101-64-109-77-184-191z"/><glyph unicode="½" d="M159 1183q26 69 110 173 63 85 103 117 86 59 66-63l-35-395q31-4 104-7 52-21-1-91-92-19-318-9-79 78 35 94 32 9 73 13l25 223q-30-49-75-96-98-31-87 41zM450 0l400 1500h200L650 0H450zm409 94q42 96 138 150 129 60 189 70 117 37 132 90 17 97-132 107-124-9-207-104-148-95-99 49l44 49q101 95 259 97 104-3 195-59 75-55 58-167-32-98-259-167-132-23-178-112 189-17 394 22 55-19 10-100-242-24-514-4-73 8-30 79z"/><glyph unicode="¾" d="M72 1413q115 86 278 89 196-2 271-87 81-160-83-229 106-45 101-150-7-106-206-132-266-12-353 48-26 48 54 64 129-30 291-20 81 14 96 62-4 95-204 95-55 50 2 70 62-4 125 10 97 41 100 93-29 81-191 92-146-15-207-77-104 29-74 72zM450 0l400 1500h200L650 0H450zm395 183l9 40q105 146 233 230 118 78 257 134l38 1 19-38q-2-124-27-282 19 1 36-9 49-38 0-66-28-8-50-12-8-56-12-148-93-65-105-5 4 62 16 137-132-24-285-34-80-11-121 0zm156 46q123 5 269 35 19 157 15 220-46-28-100-64-110-77-184-191z"/><glyph unicode="¿" d="M127-113q182-159 499-180 333-26 606 44 264 87 274 287 32 294-221 172-59-255-442-253-493 8-500 213 21 211 335 273 276 53 570 63 108 104-49 240-245 13-583-39-317-69-483-264-262-314-6-556zm776 1238q-47-216 232-231 198 72 44 276-214 76-276-45z"/><glyph unicode="À" d="M0 52q63-92 214-25 42 65 125 340 498-118 835 66 42-183 72-366 141-143 253 44-24 349-88 605-94 327-193 568-113 247-267 217-204-53-387-226-195-181-343-500Q-12 278 0 52zm411 533q179 471 515 678 120-161 190-571-306-197-705-107zm289 1267q0 200 198 0 67-76 95-179 60-188-130-73-119 90-163 252z"/><glyph unicode="Á" d="M0 52q63-92 214-25 42 65 125 340 498-118 835 66 42-183 72-366 141-143 253 44-24 349-88 605-94 327-193 568-113 247-267 217-204-53-387-226-195-181-343-500Q-12 278 0 52zm411 533q179 471 515 678 120-161 190-571-306-197-705-107zm492 1130q34 147 140 234 175 31 159-110-27-124-77-184-244-241-222 60z"/><glyph unicode="Â" d="M0 52q63-92 214-25 42 65 125 340 498-118 835 66 42-183 72-366 141-143 253 44-24 349-88 605-94 327-193 568-113 247-267 217-204-53-387-226-195-181-343-500Q-12 278 0 52zm411 533q179 471 515 678 120-161 190-571-306-197-705-107zm133 992q67-97 284-51 47 127 139 170 105-60 139-160 183-64 242 81-66 99-218 259-203 82-302-1-178-136-284-298z"/><glyph unicode="Ã" d="M0 52q63-92 214-25 42 65 125 340 498-118 835 66 42-183 72-366 141-143 253 44-24 349-88 605-94 327-193 568-113 247-267 217-204-53-387-226-195-181-343-500Q-12 278 0 52zm411 533q179 471 515 678 120-161 190-571-306-197-705-107zm123 1066q-100 51 100 199 200 100 300 0t400 0q100-56-100-200-200-100-300 0t-400 1z"/><glyph unicode="Ä" d="M0 52q63-92 214-25 42 65 125 340 498-118 835 66 42-183 72-366 141-143 253 44-24 349-88 605-94 327-193 568-113 247-267 217-204-53-387-226-195-181-343-500Q-12 278 0 52zm411 533q179 471 515 678 120-161 190-571-306-197-705-107zm156 1020q214-56 276 34 68 217-210 228-199-53-66-262zm550-4q214-56 276 34 68 217-210 228-199-53-66-262z"/><glyph unicode="Å" d="M0 52q63-92 214-25 42 65 125 340 498-118 835 66 42-183 72-366 141-143 253 44-24 349-88 605-94 327-193 568-113 247-267 217-204-53-387-226-195-181-343-500Q-12 278 0 52zm411 533q179 471 515 678 120-161 190-571-306-197-705-107zm307 1165q12 73 63 134 99 110 212 114 97-1 153-69 117-140 25-302-67-96-212-122-65-11-136 42-109 86-105 203zm140-64q27-43 87-60 75-3 121 54t-3 145q-20 28-77 37-53-4-78-27-20-73-49-52-25-45-1-97z"/><glyph unicode="Æ" horiz-adv-x="2812" d="M12 52q63-92 214-25 42 65 125 340 498-118 835 66 42-183 72-366 141-143 253 44-24 349-88 605-94 327-193 568-113 247-267 217-204-53-387-226-195-181-343-500Q0 278 12 52zm411 533q179 471 515 678 120-161 190-571-306-197-705-107zm800 739q-27-249 7-542-16-381 17-569Q1298-7 1540 0l245 86q337 119 584 109 346 126 49 251-291 27-645-100-275-86-323 44-53 146 89 271 588 52 913 39 353 207-12 268-299-9-559-23-504-52-445 129 66 114 388 134 325 0 738 8 304 183-8 285-408-28-1026-36-238-5-305-141z"/><glyph unicode="Ç" d="M0 717q89 314 323 475 287 225 579 295 496 73 589-308 24-256-172-155-142 277-399 190-250-97-420-214-170-128-256-293-1-176 190-292 234-114 451-127 236 16 408 158 288 81 162-236Q1219 31 891 1 479 13 268 176-33 421 0 717zM611-404Q511-304 711-204q100-91 200 0 52 100-152 256 52 201 205 44 286-300 47-500-200-100-400 0z"/><glyph unicode="È" d="M8 1324q-27-249 7-542-16-381 17-569Q83-7 325 0l245 86q337 119 584 109 346 126 49 251-291 27-645-100-275-86-323 44-53 146 89 271 588 52 913 39 353 207-12 268-299-9-559-23-504-52-445 129 66 114 388 134 325 0 738 8 304 183-8 285-408-28-1026-36-238-5-305-141zm540 536q0 200 198 0 67-76 95-179 60-188-130-73-119 90-163 252z"/><glyph unicode="É" d="M8 1324q-27-249 7-542-16-381 17-569Q83-7 325 0l245 86q337 119 584 109 346 126 49 251-291 27-645-100-275-86-323 44-53 146 89 271 588 52 913 39 353 207-12 268-299-9-559-23-504-52-445 129 66 114 388 134 325 0 738 8 304 183-8 285-408-28-1026-36-238-5-305-141zm594 387q34 147 140 234 175 31 159-110-27-124-77-184-244-241-222 60z"/><glyph unicode="Ê" d="M8 1324q-27-249 7-542-16-381 17-569Q83-7 325 0l245 86q337 119 584 109 346 126 49 251-291 27-645-100-275-86-323 44-53 146 89 271 588 52 913 39 353 207-12 268-299-9-559-23-504-52-445 129 66 114 388 134 325 0 738 8 304 183-8 285-408-28-1026-36-238-5-305-141zm335 294q67-97 284-51 47 127 139 170 105-60 139-160 183-64 242 81-66 99-218 259-203 82-302-1-178-136-284-298z"/><glyph unicode="Ë" d="M8 1324q-27-249 7-542-16-381 17-569Q83-7 325 0l245 86q337 119 584 109 346 126 49 251-291 27-645-100-275-86-323 44-53 146 89 271 588 52 913 39 353 207-12 268-299-9-559-23-504-52-445 129 66 114 388 134 325 0 738 8 304 183-8 285-408-28-1026-36-238-5-305-141zm351 312q214-56 276 34 68 217-210 228-199-53-66-262zm550-4q214-56 276 34 68 217-210 228-199-53-66-262z"/><glyph unicode="Ì" horiz-adv-x="1100" d="M75 1178q171-46 300-61 38-365 28-761-160-31-315-114Q-27 36 138 2q175 83 333 107 203-5 392-109 221 60 83 255-168 4-286 77-49 420-29 796 173 55 328 156 116 253-131 214-89-70-340-109-269 28-376 81-196-45-37-292zm222 625q0 200 198 0 67-76 95-179 60-188-130-73-119 90-163 252z"/><glyph unicode="Í" horiz-adv-x="1100" d="M75 1178q171-46 300-61 38-365 28-761-160-31-315-114Q-27 36 138 2q175 83 333 107 203-5 392-109 221 60 83 255-168 4-286 77-49 420-29 796 173 55 328 156 116 253-131 214-89-70-340-109-269 28-376 81-196-45-37-292zm306 496q34 147 140 234 175 31 159-110-27-124-77-184-244-241-222 60z"/><glyph unicode="Î" horiz-adv-x="1100" d="M75 1178q171-46 300-61 38-365 28-761-160-31-315-114Q-27 36 138 2q175 83 333 107 203-5 392-109 221 60 83 255-168 4-286 77-49 420-29 796 173 55 328 156 116 253-131 214-89-70-340-109-269 28-376 81-196-45-37-292zm72 427q67-97 284-51 47 127 139 170 105-60 139-160 183-64 242 81-66 99-218 259-203 82-302-1-178-136-284-298z"/><glyph unicode="Ï" horiz-adv-x="1100" d="M75 1178q171-46 300-61 38-365 28-761-160-31-315-114Q-27 36 138 2q175 83 333 107 203-5 392-109 221 60 83 255-168 4-286 77-49 420-29 796 173 55 328 156 116 253-131 214-89-70-340-109-269 28-376 81-196-45-37-292zm63 444q214-56 276 34 68 217-210 228-199-53-66-262zm550-4q214-56 276 34 68 217-210 228-199-53-66-262z"/><glyph unicode="Ð" d="M-111 809q-58-221 60-248 40 7 79 16 25-200 73-387Q193-80 448 28q446 219 732 507 267 220 319 525 34 278-150 396-423 79-940 19-343-60-406-299-5-172 2-337-57-14-116-30zm350 77q0 102 6 215 138-2 204 124 235 46 541 34 219-8 323-107 24-203-245-465-251-221-595-374-158-55-188 79-26 114-38 256 54 22 253 82 84 169-12 203-196-39-249-47z"/><glyph unicode="Ñ" d="M0 1231q61 273 280 121 288-300 611-601 185-171 309-234 32 36-24 385-41 148-61 506 209 192 316 5-9-446 29-861 67-285 34-459-86-176-256-10-186 187-417 375-304 293-437 449-57-60-133-35 2-310 63-638 18-400-271-107Q29 522 0 1231zm333 373q-100 51 100 199 200 100 300 0t400 0q100-56-100-200-200-100-300 0t-400 1z"/><glyph unicode="Ò" horiz-adv-x="2000" d="M0 747q3-357 390-619Q641-33 975 0q452 98 761 455 358 410-66 836-251 209-615 210-476-10-861-345Q30 968 0 747zm299 184q237 13 248 176 265 141 519 128 315-47 491-216 175-190 27-381-231-298-609-351-413 0-621 229-168 223-55 415zm529 943q0 200 198 0 67-76 95-179 60-188-130-73-119 90-163 252z"/><glyph unicode="Ó" horiz-adv-x="2000" d="M0 747q3-357 390-619Q641-33 975 0q452 98 761 455 358 410-66 836-251 209-615 210-476-10-861-345Q30 968 0 747zm299 184q237 13 248 176 265 141 519 128 315-47 491-216 175-190 27-381-231-298-609-351-413 0-621 229-168 223-55 415zm693 797q34 147 140 234 175 31 159-110-27-124-77-184-244-241-222 60z"/><glyph unicode="Ô" horiz-adv-x="2000" d="M0 747q3-357 390-619Q641-33 975 0q452 98 761 455 358 410-66 836-251 209-615 210-476-10-861-345Q30 968 0 747zm299 184q237 13 248 176 265 141 519 128 315-47 491-216 175-190 27-381-231-298-609-351-413 0-621 229-168 223-55 415zm378 682q67-97 284-51 47 127 139 170 105-60 139-160 183-64 242 81-66 99-218 259-203 82-302-1-178-136-284-298z"/><glyph unicode="Õ" horiz-adv-x="2000" d="M0 747q3-357 390-619Q641-33 975 0q452 98 761 455 358 410-66 836-251 209-615 210-476-10-861-345Q30 968 0 747zm299 184q237 13 248 176 265 141 519 128 315-47 491-216 175-190 27-381-231-298-609-351-413 0-621 229-168 223-55 415zm467 720q-100 51 100 199 200 100 300 0t400 0q100-56-100-200-200-100-300 0t-400 1z"/><glyph unicode="Ö" horiz-adv-x="2000" d="M0 747q3-357 390-619Q641-33 975 0q452 98 761 455 358 410-66 836-251 209-615 210-476-10-861-345Q30 968 0 747zm299 184q237 13 248 176 265 141 519 128 315-47 491-216 175-190 27-381-231-298-609-351-413 0-621 229-168 223-55 415zm369 675q214-56 276 34 68 217-210 228-199-53-66-262zm550-4q214-56 276 34 68 217-210 228-199-53-66-262z"/><glyph unicode="×" horiz-adv-x="1000" d="M94 984q-2 108 167 108 153-145 245-269 95 126 230 259 131 75 159-128-179-162-274-286 128-161 219-324-117-140-228-52-77 153-136 245-97-157-188-257Q70 194 99 389q113 112 254 280-97 125-259 315z"/><glyph unicode="Ø" horiz-adv-x="2000" d="M0 747q3-357 390-619Q641-33 975 0q452 98 761 455 358 410-66 836-251 209-615 210-476-10-861-345Q30 968 0 747zm299 184q237 13 248 176 265 141 519 128 315-47 491-216 175-190 27-381-231-298-609-351-413 0-621 229-168 223-55 415zm1-931h294l1006 1500h-294z"/><glyph unicode="Ù" d="M6 214Q-24 2 148 0q713 364 997 290l59-214q197-164 296 42-137 189-142 713 29 243 5 557-96 216-296 28-47-165 12-354 35-212 30-511-241 63-792-140-5 126 53 412 87 257 105 472 11 187-209 52-116-137-183-558Q24 452 6 214zm587 1620q0 200 198 0 67-76 95-179 60-188-130-73-119 90-163 252z"/><glyph unicode="Ú" d="M6 214Q-24 2 148 0q713 364 997 290l59-214q197-164 296 42-137 189-142 713 29 243 5 557-96 216-296 28-47-165 12-354 35-212 30-511-241 63-792-140-5 126 53 412 87 257 105 472 11 187-209 52-116-137-183-558Q24 452 6 214zm681 1464q34 147 140 234 175 31 159-110-27-124-77-184-244-241-222 60z"/><glyph unicode="Û" d="M6 214Q-24 2 148 0q713 364 997 290l59-214q197-164 296 42-137 189-142 713 29 243 5 557-96 216-296 28-47-165 12-354 35-212 30-511-241 63-792-140-5 126 53 412 87 257 105 472 11 187-209 52-116-137-183-558Q24 452 6 214zm382 1395q67-97 284-51 47 127 139 170 105-60 139-160 183-64 242 81-66 99-218 259-203 82-302-1-178-136-284-298z"/><glyph unicode="Ü" d="M6 214Q-24 2 148 0q713 364 997 290l59-214q197-164 296 42-137 189-142 713 29 243 5 557-96 216-296 28-47-165 12-354 35-212 30-511-241 63-792-140-5 126 53 412 87 257 105 472 11 187-209 52-116-137-183-558Q24 452 6 214zm361 1391q214-56 276 34 68 217-210 228-199-53-66-262zm550-4q214-56 276 34 68 217-210 228-199-53-66-262z"/><glyph unicode="Ý" d="M27 1162q445-296 758-403-159-318-363-582Q363-65 722 20q178 337 342 680 138 301 384 575 162 284-191 216-197-236-349-474-387 123-693 428-282 70-188-283zm675 505q34 147 140 234 175 31 159-110-27-124-77-184-244-241-222 60z"/><glyph unicode="Þ" d="M-176 1652q171-46 300-61Q214 257 230-18 70-49-85-132q-115-206 50-240 175 83 333 107 203-5 392-109 221 60 83 255-168 4-286 77-9 194-23 422 102 44 250 106 247 101 435 225 239 137 337 404 69 277-230 352-286 43-505 32-204-13-359-53-6 77-12 156 173 55 328 156 116 253-131 214-89-70-340-109-269 28-376 81-196-45-37-292zm588-484q7 24 11 52 316 58 693 8 181-60-73-285-158-119-347-183-144-57-250-84-15 231-34 492z"/><glyph unicode="ß" d="M4 1202Q5 683 54 191 85-19 200 0q109 74 101 287-11 136-11 765 162 41 232 164 251 23 499 20 313-24-53-298-119-85-468-76-140-262 0-262 243 56 503 56 362-21 45-296-254-123-617-126Q355-2 507-5q527 13 859 324 339 402-120 553 486 425 40 597-369 59-910 8-343-53-372-275z"/><glyph unicode="à" d="M0 52q63-92 214-25 42 65 125 340 498-118 835 66 42-183 72-366 141-143 253 44-24 349-88 605-94 327-193 568-113 247-267 217-204-53-387-226-195-181-343-500Q-12 278 0 52zm411 533q179 471 515 678 120-161 190-571-306-197-705-107zm288 1265q0 200 198 0 67-76 95-179 60-188-130-73-119 90-163 252z"/><glyph unicode="á" d="M0 52q63-92 214-25 42 65 125 340 498-118 835 66 42-183 72-366 141-143 253 44-24 349-88 605-94 327-193 568-113 247-267 217-204-53-387-226-195-181-343-500Q-12 278 0 52zm411 533q179 471 515 678 120-161 190-571-306-197-705-107zm491 1137q34 147 140 234 175 31 159-110-27-124-77-184-244-241-222 60z"/><glyph unicode="â" d="M0 52q63-92 214-25 42 65 125 340 498-118 835 66 42-183 72-366 141-143 253 44-24 349-88 605-94 327-193 568-113 247-267 217-204-53-387-226-195-181-343-500Q-12 278 0 52zm411 533q179 471 515 678 120-161 190-571-306-197-705-107zm145 1027q67-97 284-51 47 127 139 170 105-60 139-160 183-64 242 81-66 99-218 259-203 82-302-1-178-136-284-298z"/><glyph unicode="ã" d="M0 52q63-92 214-25 42 65 125 340 498-118 835 66 42-183 72-366 141-143 253 44-24 349-88 605-94 327-193 568-113 247-267 217-204-53-387-226-195-181-343-500Q-12 278 0 52zm411 533q179 471 515 678 120-161 190-571-306-197-705-107zm156 1065q-100 51 100 199 200 100 300 0t400 0q100-56-100-200-200-100-300 0t-400 1z"/><glyph unicode="ä" d="M0 52q63-92 214-25 42 65 125 340 498-118 835 66 42-183 72-366 141-143 253 44-24 349-88 605-94 327-193 568-113 247-267 217-204-53-387-226-195-181-343-500Q-12 278 0 52zm411 533q179 471 515 678 120-161 190-571-306-197-705-107zm156 1020q214-56 276 34 68 217-210 228-199-53-66-262zm550-4q214-56 276 34 68 217-210 228-199-53-66-262z"/><glyph unicode="å" d="M0 52q63-92 214-25 42 65 125 340 498-118 835 66 42-183 72-366 141-143 253 44-24 349-88 605-94 327-193 568-113 247-267 217-204-53-387-226-195-181-343-500Q-12 278 0 52zm411 533q179 471 515 678 120-161 190-571-306-197-705-107zm289 1162q12 73 63 134 99 110 212 114 97-1 153-69 117-140 25-302-67-96-212-122-65-11-136 42-109 86-105 203zm140-64q27-43 87-60 75-3 121 54t-3 145q-20 28-77 37-53-4-78-27-20-73-49-52-25-45-1-97z"/><glyph unicode="æ" horiz-adv-x="2800" d="M12 52q63-92 214-25 42 65 125 340 498-118 835 66 42-183 72-366 141-143 253 44-24 349-88 605-94 327-193 568-113 247-267 217-204-53-387-226-195-181-343-500Q0 278 12 52zm411 533q179 471 515 678 120-161 190-571-306-197-705-107zm800 739q-27-249 7-542-16-381 17-569Q1298-7 1540 0l245 86q337 119 584 109 346 126 49 251-291 27-645-100-275-86-323 44-53 146 89 271 588 52 913 39 353 207-12 268-299-9-559-23-504-52-445 129 66 114 388 134 325 0 738 8 304 183-8 285-408-28-1026-36-238-5-305-141z"/><glyph unicode="ç" d="M0 717q89 314 323 475 287 225 579 295 496 73 589-308 24-256-172-155-142 277-399 190-250-97-420-214-170-128-256-293-1-176 190-292 234-114 451-127 236 16 408 158 288 81 162-236Q1219 31 891 1 479 13 268 176-33 421 0 717zM591-370Q491-270 691-170q100-91 200 0Q943-70 739 86q52 201 205 44 286-300 47-500-200-100-400 0z"/><glyph unicode="è" d="M8 1324q-27-249 7-542-16-381 17-569Q83-7 325 0l245 86q337 119 584 109 346 126 49 251-291 27-645-100-275-86-323 44-53 146 89 271 588 52 913 39 353 207-12 268-299-9-559-23-504-52-445 129 66 114 388 134 325 0 738 8 304 183-8 285-408-28-1026-36-238-5-305-141zm544 522q0 200 198 0 67-76 95-179 60-188-130-73-119 90-163 252z"/><glyph unicode="é" d="M8 1324q-27-249 7-542-16-381 17-569Q83-7 325 0l245 86q337 119 584 109 346 126 49 251-291 27-645-100-275-86-323 44-53 146 89 271 588 52 913 39 353 207-12 268-299-9-559-23-504-52-445 129 66 114 388 134 325 0 738 8 304 183-8 285-408-28-1026-36-238-5-305-141zm694 394q34 147 140 234 175 31 159-110-27-124-77-184-244-241-222 60z"/><glyph unicode="ê" d="M8 1324q-27-249 7-542-16-381 17-569Q83-7 325 0l245 86q337 119 584 109 346 126 49 251-291 27-645-100-275-86-323 44-53 146 89 271 588 52 913 39 353 207-12 268-299-9-559-23-504-52-445 129 66 114 388 134 325 0 738 8 304 183-8 285-408-28-1026-36-238-5-305-141zm392 288q67-97 284-51 47 127 139 170 105-60 139-160 183-64 242 81-66 99-218 259-203 82-302-1-178-136-284-298z"/><glyph unicode="ë" d="M8 1324q-27-249 7-542-16-381 17-569Q83-7 325 0l245 86q337 119 584 109 346 126 49 251-291 27-645-100-275-86-323 44-53 146 89 271 588 52 913 39 353 207-12 268-299-9-559-23-504-52-445 129 66 114 388 134 325 0 738 8 304 183-8 285-408-28-1026-36-238-5-305-141zm353 301q214-56 276 34 68 217-210 228-199-53-66-262zm550-4q214-56 276 34 68 217-210 228-199-53-66-262z"/><glyph unicode="ì" horiz-adv-x="500" d="M-1 1850q0 200 198 0 67-76 95-179 60-188-130-73-119 90-163 252zm57-950q64-549 76-763 120-269 270 0-2 222-54 786-5 308-88 506-69 146-162 8-158-106-42-537z"/><glyph unicode="í" horiz-adv-x="500" d="M56 900q64-549 76-763 120-269 270 0-2 222-54 786-5 308-88 506-69 146-162 8-158-106-42-537zm43 822q34 147 140 234 175 31 159-110-27-124-77-184-244-241-222 60z"/><glyph unicode="î" horiz-adv-x="500" d="M-239 1617q67-97 284-51 47 127 139 170 105-60 139-160 183-64 242 81-66 99-218 259-203 82-302-1-178-136-284-298zM56 900q64-549 76-763 120-269 270 0-2 222-54 786-5 308-88 506-69 146-162 8-158-106-42-537z"/><glyph unicode="ï" horiz-adv-x="500" d="M-239 1638q214-56 276 34 68 217-210 228-199-53-66-262zM56 900q64-549 76-763 120-269 270 0-2 222-54 786-5 308-88 506-69 146-162 8-158-106-42-537zm255 734q214-56 276 34 68 217-210 228-199-53-66-262z"/><glyph unicode="ð" d="M-111 809q-58-221 60-248 40 7 79 16 25-200 73-387Q193-80 448 28q446 219 732 507 267 220 319 525 34 278-150 396-423 79-940 19-343-60-406-299-5-172 2-337-57-14-116-30zm350 77q0 102 6 215 138-2 204 124 235 46 541 34 219-8 323-107 24-203-245-465-251-221-595-374-158-55-188 79-26 114-38 256 54 22 253 82 84 169-12 203-196-39-249-47z"/><glyph unicode="ñ" d="M0 1231q61 273 280 121 288-300 611-601 185-171 309-234 32 36-24 385-41 148-61 506 209 192 316 5-9-446 29-861 67-285 34-459-86-176-256-10-186 187-417 375-304 293-437 449-57-60-133-35 2-310 63-638 18-400-271-107Q29 522 0 1231zm333 320q-100 51 100 199 200 100 300 0t400 0q100-56-100-200-200-100-300 0t-400 1z"/><glyph unicode="ò" horiz-adv-x="2000" d="M0 747q3-357 390-619Q641-33 975 0q452 98 761 455 358 410-66 836-251 209-615 210-476-10-861-345Q30 968 0 747zm299 184q237 13 248 176 265 141 519 128 315-47 491-216 175-190 27-381-231-298-609-351-413 0-621 229-168 223-55 415zm600 928q0 200 198 0 67-76 95-179 60-188-130-73-119 90-163 252z"/><glyph unicode="ó" horiz-adv-x="2000" d="M0 747q3-357 390-619Q641-33 975 0q452 98 761 455 358 410-66 836-251 209-615 210-476-10-861-345Q30 968 0 747zm299 184q237 13 248 176 265 141 519 128 315-47 491-216 175-190 27-381-231-298-609-351-413 0-621 229-168 223-55 415zm603 787q34 147 140 234 175 31 159-110-27-124-77-184-244-241-222 60z"/><glyph unicode="ô" horiz-adv-x="2000" d="M0 747q3-357 390-619Q641-33 975 0q452 98 761 455 358 410-66 836-251 209-615 210-476-10-861-345Q30 968 0 747zm299 184q237 13 248 176 265 141 519 128 315-47 491-216 175-190 27-381-231-298-609-351-413 0-621 229-168 223-55 415zm301 676q67-97 284-51 47 127 139 170 105-60 139-160 183-64 242 81-66 99-218 259-203 82-302-1-178-136-284-298z"/><glyph unicode="õ" horiz-adv-x="2000" d="M0 747q3-357 390-619Q641-33 975 0q452 98 761 455 358 410-66 836-251 209-615 210-476-10-861-345Q30 968 0 747zm299 184q237 13 248 176 265 141 519 128 315-47 491-216 175-190 27-381-231-298-609-351-413 0-621 229-168 223-55 415zm368 719q-100 51 100 199 200 100 300 0t400 0q100-56-100-200-200-100-300 0t-400 1z"/><glyph unicode="ö" horiz-adv-x="2000" d="M0 747q3-357 390-619Q641-33 975 0q452 98 761 455 358 410-66 836-251 209-615 210-476-10-861-345Q30 968 0 747zm299 184q237 13 248 176 265 141 519 128 315-47 491-216 175-190 27-381-231-298-609-351-413 0-621 229-168 223-55 415zm369 675q214-56 276 34 68 217-210 228-199-53-66-262zm550-4q214-56 276 34 68 217-210 228-199-53-66-262z"/><glyph unicode="÷" horiz-adv-x="1200" d="M121 728q104 97 306 135 201 17 541-6 260-67 5-193-358-4-520-72-86-82-178-90-235-23-154 226zm346 396q214-76 276 45 47 216-231 231-199-73-45-276zm51-994q214-75 276 45 47 216-232 231-199-72-44-276z"/><glyph unicode="ø" horiz-adv-x="2000" d="M0 747q3-357 390-619Q641-33 975 0q452 98 761 455 358 410-66 836-251 209-615 210-476-10-861-345Q30 968 0 747zm299 184q237 13 248 176 265 141 519 128 315-47 491-216 175-190 27-381-231-298-609-351-413 0-621 229-168 223-55 415zm1-931h294l1006 1500h-294z"/><glyph unicode="ù" d="M6 214Q-24 2 148 0q713 364 997 290l59-214q197-164 296 42-137 189-142 713 29 243 5 557-96 216-296 28-47-165 12-354 35-212 30-511-241 63-792-140-5 126 53 412 87 257 105 472 11 187-209 52-116-137-183-558Q24 452 6 214zm586 1582q0 200 198 0 67-76 95-179 60-188-130-73-119 90-163 252z"/><glyph unicode="ú" d="M6 214Q-24 2 148 0q713 364 997 290l59-214q197-164 296 42-137 189-142 713 29 243 5 557-96 216-296 28-47-165 12-354 35-212 30-511-241 63-792-140-5 126 53 412 87 257 105 472 11 187-209 52-116-137-183-558Q24 452 6 214zm696 1453q34 147 140 234 175 31 159-110-27-124-77-184-244-241-222 60z"/><glyph unicode="û" d="M6 214Q-24 2 148 0q713 364 997 290l59-214q197-164 296 42-137 189-142 713 29 243 5 557-96 216-296 28-47-165 12-354 35-212 30-511-241 63-792-140-5 126 53 412 87 257 105 472 11 187-209 52-116-137-183-558Q24 452 6 214zm394 1395q67-97 284-51 47 127 139 170 105-60 139-160 183-64 242 81-66 99-218 259-203 82-302-1-178-136-284-298z"/><glyph unicode="ü" d="M6 214Q-24 2 148 0q713 364 997 290l59-214q197-164 296 42-137 189-142 713 29 243 5 557-96 216-296 28-47-165 12-354 35-212 30-511-241 63-792-140-5 126 53 412 87 257 105 472 11 187-209 52-116-137-183-558Q24 452 6 214zm406 1412q214-56 276 34 68 217-210 228-199-53-66-262zm550-4q214-56 276 34 68 217-210 228-199-53-66-262z"/><glyph unicode="ý" d="M27 1162q445-296 758-403-159-318-363-582Q363-65 722 20q178 337 342 680 138 301 384 575 162 284-191 216-197-236-349-474-387 123-693 428-282 70-188-283zm675 505q34 147 140 234 175 31 159-110-27-124-77-184-244-241-222 60z"/><glyph unicode="þ" d="M84 957q41-251 93-444 19-172 26-470 167-111 252 74l-5 222q119 54 264 147 247 101 435 225 239 137 337 404 69 277-230 352-286 43-505 32-235-20-469-125-24 316-130 399-264 96-68-816zm261 65q132 28 156 198 238 58 615 8 181-60-73-285-158-119-347-183-156-93-292-107-46 211-59 369z"/><glyph unicode="ÿ" d="M27 1162q445-296 758-403-159-318-363-582Q363-65 722 20q178 337 342 680 138 301 384 575 162 284-191 216-197-236-349-474-387 123-693 428-282 70-188-283zm334 464q214-56 276 34 68 217-210 228-199-53-66-262zm550-4q214-56 276 34 68 217-210 228-199-53-66-262z"/><glyph unicode="Œ" horiz-adv-x="3200" d="M0 747q3-357 390-619Q641-33 975 0q452 98 761 455 358 410-66 836-251 209-615 210-476-10-861-345Q30 968 0 747zm299 184q237 13 248 176 265 141 519 128 315-47 491-216 175-190 27-381-231-298-609-351-413 0-621 229-168 223-55 415zm1313 393q-27-249 7-542-16-381 17-569Q1687-7 1929 0l245 86q337 119 584 109 346 126 49 251-291 27-645-100-275-86-323 44-53 146 89 271 588 52 913 39 353 207-12 268-299-9-559-23-504-52-445 129 66 114 388 134 325 0 738 8 304 183-8 285-408-28-1026-36-238-5-305-141z"/><glyph unicode="œ" horiz-adv-x="3200" d="M0 747q3-357 390-619Q641-33 975 0q452 98 761 455 358 410-66 836-251 209-615 210-476-10-861-345Q30 968 0 747zm299 184q237 13 248 176 265 141 519 128 315-47 491-216 175-190 27-381-231-298-609-351-413 0-621 229-168 223-55 415zm1313 393q-27-249 7-542-16-381 17-569Q1687-7 1929 0l245 86q337 119 584 109 346 126 49 251-291 27-645-100-275-86-323 44-53 146 89 271 588 52 913 39 353 207-12 268-299-9-559-23-504-52-445 129 66 114 388 134 325 0 738 8 304 183-8 285-408-28-1026-36-238-5-305-141z"/><glyph unicode="Ÿ" d="M27 1162q445-296 758-403-159-318-363-582Q363-65 722 20q178 337 342 680 138 301 384 575 162 284-191 216-197-236-349-474-387 123-693 428-282 70-188-283zm334 464q214-56 276 34 68 217-210 228-199-53-66-262zm550-4q214-56 276 34 68 217-210 228-199-53-66-262z"/><glyph unicode="ˆ" horiz-adv-x="1000" d="M96 1156q67-97 284-51 47 127 139 170 105-60 139-160 183-64 242 81-66 99-218 259-203 82-302-1-178-136-284-298z"/><glyph unicode="˜" horiz-adv-x="1000" d="M100 1301q-100 51 100 199 200 100 300 0t400 0q100-56-100-200-200-100-300 0t-400 1z"/><glyph horiz-adv-x="999"/><glyph horiz-adv-x="1998"/><glyph horiz-adv-x="999"/><glyph horiz-adv-x="1998"/><glyph horiz-adv-x="666"/><glyph horiz-adv-x="499"/><glyph horiz-adv-x="333"/><glyph horiz-adv-x="333"/><glyph horiz-adv-x="249"/><glyph horiz-adv-x="399"/><glyph horiz-adv-x="111"/><glyph unicode="‐" horiz-adv-x="1100" d="M21 728q104 97 306 135 201 17 541-6 260-67 5-193-358-4-520-72-86-82-178-90-235-23-154 226z"/><glyph unicode="‑" horiz-adv-x="1100" d="M21 728q104 97 306 135 201 17 541-6 260-67 5-193-358-4-520-72-86-82-178-90-235-23-154 226z"/><glyph unicode="‒" horiz-adv-x="1100" d="M21 728q104 97 306 135 201 17 541-6 260-67 5-193-358-4-520-72-86-82-178-90-235-23-154 226z"/><glyph unicode="–" horiz-adv-x="1200" d="M121 728q104 97 306 135 201 17 541-6 260-67 5-193-358-4-520-72-86-82-178-90-235-23-154 226z"/><glyph unicode="—" d="M121 728q104 97 305 135 202 17 923-6 301-57 6-193-740-4-902-72-61-35-153-43-235-23-179 179z"/><glyph unicode="‘" horiz-adv-x="600" d="M100 965q58 246 213 381 248 174 170-110-37-155-81-323-302-249-302 52z"/><glyph unicode="’" horiz-adv-x="600" d="M119 977q37 155 81 323 302 249 302-52-58-246-213-381Q41 693 119 977z"/><glyph unicode="‚" horiz-adv-x="600" d="M117-224q37 155 81 323 302 249 302-52-58-246-213-381Q39-508 117-224z"/><glyph unicode="“" horiz-adv-x="1000" d="M100 965q58 246 213 381 248 174 170-110-37-155-81-323-302-249-302 52zm400 0q58 246 213 381 248 174 170-110-37-155-81-323-302-249-302 52z"/><glyph unicode="”" horiz-adv-x="1000" d="M119 977q37 155 81 323 302 249 302-52-58-246-213-381Q41 693 119 977zm399 0q37 155 81 323 302 249 302-52-58-246-213-381-248-174-170 110z"/><glyph unicode="„" horiz-adv-x="1000" d="M119-107q37 155 81 323 302 249 302-52-58-246-213-381Q41-391 119-107zm399 0q37 155 81 323 302 249 302-52-58-246-213-381-248-174-170 110z"/><glyph unicode="•" horiz-adv-x="600" d="M177 604q244-100 314 59 54 282-263 302-227-96-51-361z"/><glyph unicode="…" d="M175 208Q5 58 221 0q62 7 141 40 130 160-40 205-76 0-147-37zm482-1Q487 58 703 0q63 7 141 39 131 161-40 206-76 0-147-38zm500 0Q987 58 1203 0q63 7 141 39 131 161-40 206-76 0-147-38z"/><glyph horiz-adv-x="399"/><glyph unicode="‹" horiz-adv-x="1200" d="M157 632q286 403 732 868 311 0 175-189-362-355-583-738 246-182 608-363Q1147 5 893 1 535 194 199 403q-172 80-42 229z"/><glyph unicode="›" horiz-adv-x="1200" d="M117 1292q-58 204 196 208 358-192 690-570 172-80 42-230Q800 400 317 1 6 1 142 191q358 309 579 569-242 350-604 532z"/><glyph horiz-adv-x="499"/><glyph unicode="€" d="M0 800l100 200h124q74 114 180 192 267 225 539 295 462 73 548-308 23-256-160-155-132 277-372 190-232-97-391-214h332L800 800H383q-30-45-53-93v-7h570l-99-200H407q40-46 100-85 218-114 420-127 220 16 380 158 268 81 151-236Q1238 31 932 1 549 13 352 176 178 328 124 500H1l99 200h1q1 8 2 17 11 43 25 83H0z"/><glyph unicode="™" d="M100 890q63 24 184 21 89-4 194 3 126-20 21-103-73-10-147-6 27-175 30-307 5-68-10-113-45-73-100 18-7 40-2 107 8 120-15 290-72 0-134-16-129 23-21 106zm141-468q33-131 118-14 65 114 112 250 109-298 195-302 37-7 115 158 90 160 150 223 65-208 129-327 73-104 116 23-77 135-182 431-49 110-132-14-86-111-155-225-17-65-55-92-32 43-51 108-34 91-66 221-54 108-118 0-102-326-176-440z"/><glyph unicode="◼" horiz-adv-x="1475" d="M0 0v1475h1475V0H0z"/></font>
</defs>
</svg>
