<?xml version="1.0" standalone="no"?>
<!DOCTYPE svg PUBLIC "-//W3C//DTD SVG 1.1//EN" "http://www.w3.org/Graphics/SVG/1.1/DTD/svg11.dtd" >
<svg xmlns="http://www.w3.org/2000/svg">
<metadata></metadata>
<defs>
<font id="StrippedClone" horiz-adv-x="1600" >
<font-face units-per-em="2048" ascent="1638" descent="-410" />
<missing-glyph horiz-adv-x="900" />
<glyph horiz-adv-x="2048" />
<glyph horiz-adv-x="2048" />
<glyph unicode="&#xd;" horiz-adv-x="598" />
<glyph unicode=" "  horiz-adv-x="900" />
<glyph unicode="&#x09;" horiz-adv-x="900" />
<glyph unicode="&#xa0;" horiz-adv-x="900" />
<glyph unicode="!" horiz-adv-x="500" d="M38 1363l92 -988q40 -176 219 -21l-25 1056q-174 202 -286 -47zM158 142q-28 -142 100 -142q217 26 100 200q-133 41 -200 -58z" />
<glyph unicode="&#x22;" horiz-adv-x="1000" d="M100 951q58 246 213 381q248 174 170 -110q-37 -155 -124 -271q-259 -301 -259 0zM499 952q58 246 213 381q248 174 170 -110q-37 -155 -124 -271q-259 -301 -259 0z" />
<glyph unicode="#" d="M118 786q-223 33 5 233q149 29 296 53q37 180 76 349q227 86 207 -51q-17 -127 -37 -261q142 20 283 35q30 162 59 326q130 86 218 -64q-10 -117 -25 -237q85 7 170 13q255 -20 0 -283q-104 -7 -210 -15q-21 -133 -47 -269q120 11 246 22q165 -96 -13 -257 q-147 -9 -285 -16q-36 -168 -80 -340q-100 -78 -226 80q23 123 47 248q-138 -5 -266 -8q-27 -145 -57 -296q-187 -125 -227 64q17 116 35 229q-68 -1 -133 0q-129 135 26 183q68 7 140 15q24 139 49 273q-125 -12 -251 -26zM576 564q130 13 270 26q25 136 51 272 q-136 -12 -274 -25q-22 -133 -47 -273z" />
<glyph unicode="$" d="M110 911q158 189 360 320q174 108 325 174q20 107 42 201q153 159 191 9q-6 -65 -13 -134q60 14 116 20q169 -29 311 -205q166 -296 -146 -252q-50 187 -158 218q-75 -4 -145 -21q-22 -229 -46 -493q13 -2 26 -3q219 -23 378 -119q182 -113 8 -335q-186 -210 -452 -264 q-13 -2 -25 -4q-7 -69 -13 -141q-204 -158 -247 16q4 56 8 111q-240 15 -391 156q-7 174 175 162q103 -64 235 -77q14 161 29 310q-45 6 -94 14q-235 33 -457 93q-221 58 -17 244zM410 839q107 -32 292 -60q23 191 48 359q-47 -31 -91 -68q-140 -105 -249 -231zM904 267 q55 11 115 29q253 156 41 226q-57 1 -133 8q-11 -128 -23 -263z" />
<glyph unicode="%" d="M53 1200q15 87 76 161q120 133 255 137q118 0 185 -83q141 -169 31 -364q-82 -116 -256 -147q-79 -13 -164 51q-132 103 -127 245zM197 1117q39 -62 128 -86q110 -4 178 78.5t-5 209.5q-29 42 -112 54q-79 -6 -115 -39q-31 -107 -73 -75q-36 -66 -1 -142zM450 0l400 1500 h200l-400 -1500h-200zM848 295q15 87 76 161q120 133 255 137q118 0 185 -83q141 -169 31 -364q-82 -116 -256 -147q-79 -13 -164 51q-132 103 -127 245zM992 212q39 -62 128 -86q110 -4 178 78.5t-5 209.5q-29 42 -112 54q-79 -6 -115 -39q-31 -107 -73 -75 q-36 -66 -1 -142z" />
<glyph unicode="&#x26;" d="M48 246q-182 342 346 648q-93 36 -170 147q-119 168 52 351q272 203 574 52q180 -112 135 -327q-38 -183 -169 -250q218 -172 417 -398q55 16 102 71q146 100 165 -131q-59 -82 -140 -108q52 -55 121 -127q-10 -222 -214 -131q-55 73 -101 131q-195 -135 -505 -174 q-409 23 -613 246zM325 345q78 -77 349 -106q233 18 375 124q-149 183 -456 390q-397 -196 -268 -408zM442 1157q74 -98 179 -139q151 59 146 207q-54 107 -185 95q-145 -44 -140 -163z" />
<glyph unicode="'" horiz-adv-x="600" d="M100 951q58 246 213 381q248 174 170 -110q-37 -155 -124 -271q-259 -301 -259 0z" />
<glyph unicode="(" horiz-adv-x="700" d="M300 0q57 -146 260 -48q-400 848 1 1547q-161 165 -261 1q-400 -700 0 -1500z" />
<glyph unicode=")" horiz-adv-x="700" d="M99 1499q400 -699 1 -1499q150 -135 249 0q401 800 0 1500q-57 147 -250 -1z" />
<glyph unicode="*" horiz-adv-x="800" d="M168 1203q12 9 25 17q-139 219 95 176q24 -11 46 -23q7 12 14 23q176 234 176 -60q1 -4 1 -8q13 0 25 -1q272 -49 44 -195q3 -4 5 -8q120 -273 -125 -150q-10 5 -19 10q-135 -276 -202 -12q-1 24 -1 46q-252 -2 -84 185z" />
<glyph unicode="+" horiz-adv-x="1100" d="M21 728q104 97 306 135q35 3 74 5l19 196q107 195 258 44l-36 -240q104 -3 226 -11q260 -67 5 -193q-140 -2 -249 -13l-17 -243q-207 -275 -231 -44l12 241q-19 -6 -35 -13q-90 -30 -182 -38q-235 -23 -150 174z" />
<glyph unicode="," horiz-adv-x="600" d="M100 -250q58 246 201 447q260 108 182 -176q-37 -155 -124 -271q-259 -301 -259 0z" />
<glyph unicode="-" horiz-adv-x="1100" d="M21 728q104 97 306 135q201 17 541 -6q260 -67 5 -193q-358 -4 -520 -72q-86 -82 -178 -90q-235 -23 -154 226z" />
<glyph unicode="." horiz-adv-x="600" d="M70 208q-170 -149 46 -208q158 7 327 39q131 161 -40 206q-166 0 -333 -37z" />
<glyph unicode="/" horiz-adv-x="800" d="M100 0h200l400 1500h-200z" />
<glyph unicode="0" d="M4 744q36 221 190 409q304 335 646 345q297 -1 467 -210q357 -426 78 -919q-206 -294 -646 -372q-201 -33 -416 128q-333 262 -319 619zM273 513q119 -185 385 -254q333 -13 537.5 230t-15.5 618q-87 121 -338 156q-238 -15 -345 -112q-92 -315 -219 -223 q-109 -192 -5 -415z" />
<glyph unicode="1" d="M262 706q64 175 277 443q161 217 261 298q219 153 168 -161l-89 -1012q79 -9 265 -18q132 -54 -4 -232q-231 -49 -805 -24q-201 200 87 240q82 25 186 33l64 573q-76 -127 -191 -246q-248 -80 -219 106z" />
<glyph unicode="2" d="M41 221q-109 -179 75 -199q689 -51 1302 10q114 204 -26 251q-518 -99 -997 -54q117 223 449 282q576 172 656 418q43 282 -146 422q-231 141 -493 148q-400 -6 -656 -244l-112 -124q-124 -361 251 -122q211 238 523 260q378 -25 334 -269q-38 -133 -334 -226 q-150 -25 -478 -177q-242 -134 -348 -376z" />
<glyph unicode="3" horiz-adv-x="1598" d="M17 1278q-76 -108 192 -179q155 154 531 192q418 -29 492 -230q-7 -131 -257 -234q-162 -34 -323 -24q-145 -50 -3 -175q514 0 524 -238q-40 -120 -247 -155q-417 -25 -749 50q-205 -40 -138 -161q224 -150 907 -121q512 67 529 331q14 264 -258 375q421 173 213 574 q-192 212 -696 218q-421 -8 -717 -223z" />
<glyph unicode="4" d="M3 466l24 102q265 375 591 590q300 200 652 343l96 3l48 -97q-5 -319 -69 -723q49 2 91 -23q126 -98 1 -170q-72 -20 -126 -31q-22 -143 -32 -378q-235 -168 -265 -14q9 159 40 350q-335 -60 -723 -87q-203 -28 -307 1zM398 582q314 14 683 90q50 403 38 566 q-115 -72 -254 -166q-278 -197 -467 -490z" />
<glyph unicode="5" d="M0 271q-13 318 265 188q91 -48 170 -150q234 -99 518 -5q441 200 5 387q-379 132 -930 74q-4 384 16 704q758 37 1054 29q347 -36 22 -251q-394 22 -783 -8q-23 -87 -19 -239q513 15 897 -140q542 -262 44 -663q-241 -205 -663 -197q-443 73 -596 271z" />
<glyph unicode="6" d="M25 325q-83 240 102 495q244 321 873 680q262 45 198 -171q-681 -406 -789 -600l277 66q490 47 678 -155q281 -298 -25 -545q-238 -106 -553 -91q-614 -13 -761 321zM340 485q-98 -136 56 -215q280 -77 616 -36q191 53 200 169q-75 172 -415 163q-274 5 -457 -81z" />
<glyph unicode="7" d="M83 1468q-185 -216 35 -272q124 -17 233 69q225 43 731 0q-315 -303 -473 -642q-106 -242 -188 -500q20 -246 303 -22q33 218 140 442q195 408 550 700q173 203 -4 263q-819 48 -1327 -38z" />
<glyph unicode="8" d="M1 332q-5 386 370 533q-186 48 -270 221q-49 221 230 352q165 57 396 63q283 -11 459 -127q247 -163 163 -377q-77 -94 -199 -126q255 -51 336 -305q54 -261 -100 -442q-177 -164 -838 -113q-517 75 -547 321zM308 560q-111 -196 78 -286q235 -70 501 -44q398 35 323 304 q-85 175 -414 193q-342 3 -488 -167zM413 1052q96 -76 362 -93q219 15 343 100q76 73 -51 143q-138 64 -298 73q-195 5 -351 -49q-148 -94 -5 -174z" />
<glyph unicode="9" d="M8 1147q-32 -493 399 -538q354 -13 614 90q-255 -359 -721 -600q-38 -157 262 -81q506 216 882 876q124 298 -19 495q-233 149 -805 99q-516 -69 -612 -341zM300 1042q0 158 372 254q252 22 501 -27q127 -144 -72 -324q-298 -130 -636 -117q-165 28 -165 214z" />
<glyph unicode=":" horiz-adv-x="600" d="M217 1024q214 -76 276 45q47 216 -231 231q-199 -73 -45 -276zM268 30q214 -75 276 45q47 216 -232 231q-199 -72 -44 -276z" />
<glyph unicode=";" horiz-adv-x="600" d="M100 -250q0 -301 259 0q87 116 124 271q78 284 -182 176q-143 -201 -201 -447zM217 1024q214 -76 276 45q47 216 -231 231q-199 -73 -45 -276z" />
<glyph unicode="&#x3c;" horiz-adv-x="1200" d="M157 632q286 403 732 868q311 0 175 -189q-362 -355 -583 -738q246 -182 608 -363q58 -205 -196 -209q-358 193 -694 402q-172 80 -42 229z" />
<glyph unicode="=" horiz-adv-x="1100" d="M11 1021q104 97 306 136q201 16 541 -7q260 -67 5 -193q-358 -4 -474 -64q-108 -46 -200 -54q-235 -23 -178 182zM22 585q105 97 306 135q201 17 541 -6q261 -68 5 -193q-358 -4 -473 -65q-108 -45 -200 -53q-235 -23 -179 182z" />
<glyph unicode="&#x3e;" horiz-adv-x="1200" d="M117 1292q-58 204 196 208q358 -192 690 -570q172 -80 42 -230q-245 -300 -728 -699q-311 0 -175 190q358 309 579 569q-242 350 -604 532z" />
<glyph unicode="?" d="M1 1161q-32 -294 221 -172q59 255 442 253q493 -8 500 -213q-21 -211 -335 -273q-276 -53 -570 -63q-108 -104 49 -240q245 -13 583 39q317 69 483 264q262 314 6 556q-182 159 -499 180q-333 26 -606 -44q-264 -87 -274 -287zM328 29q214 -76 276 45q47 216 -232 231 q-198 -72 -44 -276z" />
<glyph unicode="@" horiz-adv-x="2001" d="M162 145q282 -363 980 -354q164 155 26 209q-613 0 -840 289q-291 652 132 995q314 202 776 82q456 -195 485 -906q14 -235 -163 -256q-237 24 -183 385l58 447q20 141 -197 65l-12 -86q-59 98 -256 133q-403 11 -541 -245q-144 -273 86 -555q250 -218 702 -141 q129 -205 341 -190q356 61 344 452q27 866 -571 1099q-598 198 -1023 -172q-525 -472 -144 -1251zM583 710q62 246 312 250q147 17 302 -139q-17 -159 -52 -355q-94 -144 -374 -71q-185 74 -188 315z" />
<glyph unicode="A" d="M0 52q36 -53 102 -53q48 0 112 28q42 65 125 340q195 -46 365 -46q265 0 470 112q42 -183 72 -366q61 -62 117 -62q73 0 136 106q-24 349 -88 605q-94 327 -193 568q-101 220 -234 220q-16 0 -33 -3q-204 -53 -387 -226q-195 -181 -343 -500q-222 -473 -222 -700 q0 -12 1 -23zM411 585q179 471 515 678q120 -161 190 -571q-210 -135 -464 -135q-116 0 -241 28z" />
<glyph unicode="B" d="M4 1202q1 -519 50 -1011q27 -184 223 -184q28 0 59 4q698 27 1000 338q164 166 165 288q0 152 -255 235q253 222 253 374q0 140 -213 223q-198 32 -445 31q-214 0 -465 -23q-343 -53 -372 -275zM288 853l2 199q162 41 232 164q222 20 442 20h57q144 -11 144 -75 q0 -75 -197 -223q-119 -85 -680 -85zM292 606q451 50 711 50q192 -11 192 -70q0 -52 -151 -143q-285 -137 -735 -157q-17 124 -17 286v34z" />
<glyph unicode="C" d="M0 717q89 314 323 475q287 225 579 295q80 12 149 12q362 0 440 -320q3 -28 3 -52q0 -132 -82 -132q-38 0 -93 29q-108 211 -283 211q-55 0 -116 -21q-250 -97 -420 -214q-170 -128 -256 -293q-1 -176 190 -292q234 -114 451 -127q236 16 408 158q59 16 100 16 q100 0 100 -96q0 -60 -38 -156q-236 -179 -564 -209q-412 12 -623 175q-271 221 -271 483q0 29 3 58z" />
<glyph unicode="D" d="M3 1176q-2 -71 -2 -142q0 -451 100 -844q66 -193 215 -193q60 0 132 31q446 219 732 507q267 220 319 525q5 43 5 83q0 214 -155 313q-240 45 -511 44q-206 0 -429 -25q-343 -60 -406 -299zM245 1101h4q135 0 200 124q186 36 417 36q60 0 124 -2q219 -8 323 -107 q2 -17 2 -34q0 -191 -247 -431q-251 -221 -595 -374q-46 -16 -81 -16q-86 0 -107 95q-46 201 -46 488q0 105 6 221z" />
<glyph unicode="E" d="M8 1324q-12 -110 -12 -229q0 -150 19 -313q-5 -124 -5 -228q0 -214 22 -341q49 -213 278 -213h15l245 86q311 110 545 110q20 0 39 -1q186 68 186 135q0 58 -137 116q-51 5 -104 5q-249 0 -541 -105q-109 -34 -183 -34q-111 0 -140 78q-14 40 -14 78q0 102 103 193 q470 42 772 42q76 0 141 -3q174 102 174 168q0 69 -186 100q-299 -9 -559 -23q-112 -12 -197 -12q-254 0 -254 106q0 16 6 35q66 114 388 134q325 0 738 8q150 90 150 161q0 72 -158 124q-408 -28 -1026 -36q-238 -5 -305 -141z" />
<glyph unicode="F" d="M0 1328q86 108 429 112q294 34 654 58l289 -9q125 -82 125 -150q0 -70 -133 -126l-312 21q-324 -6 -574 -66q-56 -143 -214 -150q1 -146 11 -279q18 -1 37 -1q190 0 435 64q186 27 340 27q104 0 193 -12q121 -87 121 -155q0 -73 -140 -125q-119 15 -249 15t-270 -15 q-264 -15 -442 -100q0 -179 7 -373q-58 -65 -122.5 -65t-134.5 65q-12 218 -12 698q-12 332 -38 566z" />
<glyph unicode="G" d="M64 271q-56 191 -56 360q0 229 102 418q224 365 673 452q45 4 87 4q366 0 538 -266q18 -80 18 -132q0 -100 -66 -100q-47 0 -127 49q-62 194 -334 194q-64 0 -139 -11q-363 -45 -467 -316q-57 -146 -57 -266q0 -90 32 -165q121 -225 404 -225q51 0 106 7q315 83 393 205 q21 46 21 80q0 86 -136 86q-20 0 -42 -2q-120 -62 -249 -62q-45 0 -90 7q-104 77 -104 139q0 69 129 120q121 23 379 23q140 0 321 -7q99 -29 99 -145q0 -73 -39 -180q-117 -392 -617 -539q-80 -8 -154 -8q-430 0 -625 280z" />
<glyph unicode="H" d="M0 1313q52 -779 70 -1210q63 -94 124 -94q57 0 112 84l-16 352q281 120 622 120q142 0 294 -21q12 -238 68 -440q63 -99 116 -99q58 0 104 118q0 196 -59 765q0 413 -67 571q-56 45 -102 45q-67 0 -114 -93q-1 -38 -1 -78q0 -210 26 -498q-532 -6 -907 -113 q-18 256 -18 550q-53 114 -125 114q-57 0 -127 -73z" />
<glyph unicode="I" horiz-adv-x="1100" d="M75 1178q171 -46 300 -61q30 -289 30 -597q0 -81 -2 -164q-160 -31 -315 -114q-47 -85 -47 -140q0 -80 97 -100q175 83 333 107q203 -5 392 -109q136 37 136 125q0 55 -53 130q-168 4 -286 77q-35 298 -35 574q0 113 6 222q173 55 328 156q37 81 37 132q0 87 -108 87 q-27 0 -60 -5q-89 -70 -340 -109q-269 28 -376 81q-108 -25 -108 -111q0 -70 71 -181z" />
<glyph unicode="J" horiz-adv-x="1100" d="M55 1203q100 -35 236 -35q48 0 101 4q231 -321 231 -580q0 -69 -16 -133q-54 -194 -218 -226q-10 -1 -19 -1q-99 0 -167 85q-31 3 -56 3q-141 0 -141 -84q0 -53 57 -140q63 -98 331 -98q36 0 76 2q261 37 343 218q75 168 75 346q0 303 -218 634q137 17 293 87 q37 79 37 129q0 85 -109 85q-27 0 -60 -5q-89 -39 -343 -68h-24q-252 0 -355 41q-108 -16 -108 -104q0 -62 54 -160z" />
<glyph unicode="K" d="M11 1360q-2 -278 -2 -512q0 -468 8 -762q74 -82 137 -82q75 0 135 117l-14 318q139 54 311 173q256 -192 559 -529q60 -15 106 -15q140 0 140 145q0 26 -4 56q-340 309 -584 490q352 237 670 551q23 63 23 106q0 91 -104 91q-27 0 -61 -6q-356 -319 -695 -584 q-184 -137 -378 -180l-11 223l11 407q-72 102 -133 102q-63 0 -114 -109z" />
<glyph unicode="L" d="M14 1367q93 132 174 132q56 0 106 -65q-22 -353 -22 -612q0 -184 11 -321q15 -213 233 -213q37 0 81 6q520 49 715 144q46 10 80 10q107 0 107 -94q0 -67 -55 -183q-262 -113 -1146 -171q-211 51 -254 255q-37 400 -37 783q0 166 7 329z" />
<glyph unicode="M" horiz-adv-x="2300" d="M0 188q41 -184 116 -184q67 0 162 147q152 304 263 668q256 -795 460 -805q4 -1 8 -1q87 0 262 422q211 426 352 594q154 -555 305 -871q78 -125 140 -125q76 0 131 185q-181 361 -428 1149q-54 138 -125 138q-81 0 -185 -175q-202 -295 -364 -599q-40 -174 -130 -245 q-75 114 -120 287q-80 242 -156 589q-63 144 -132 144t-145 -144q-240 -868 -414 -1174z" />
<glyph unicode="N" d="M0 1231q39 175 144 176q58 0 136 -55q288 -300 611 -601q185 -171 309 -234q12 13 12 68q0 95 -36 317q-41 148 -61 506q106 97 186 97q78 0 130 -92q-2 -85 -2 -170q0 -356 31 -691q45 -191 45 -332q0 -70 -11 -127q-44 -91 -111 -91q-63 0 -145 81q-186 187 -417 375 q-304 293 -437 449q-40 -42 -90 -42q-21 0 -43 7q2 -310 63 -638q1 -23 1 -45q0 -186 -83 -186q-67 0 -189 124q-14 395 -43 1104z" />
<glyph unicode="O" horiz-adv-x="2000" d="M0 747q3 -357 390 -619q208 -134 474 -134q54 0 111 6q452 98 761 455q164 188 164 379q0 226 -230 457q-251 209 -615 210q-476 -10 -861 -345q-164 -188 -194 -409zM299 931q237 13 248 176q243 129 476 129q22 0 43 -1q315 -47 491 -216q95 -103 95 -206 q0 -87 -68 -175q-231 -298 -609 -351q-413 0 -621 229q-100 133 -100 256q0 82 45 159z" />
<glyph unicode="P" d="M6 957q41 -251 93 -444q19 -172 26 -470q63 -42 114 -42q85 0 138 116l-5 222q119 54 342 147q247 101 435 225q239 137 337 404q13 52 13 97q0 194 -243 255q-228 34 -413 34q-47 0 -92 -2q-313 -20 -512 -103q-233 -114 -233 -414v-25zM267 1022q132 28 156 198 q170 31 357 31q161 0 336 -23q75 -25 75 -78q0 -75 -148 -207q-158 -119 -347 -183q-234 -93 -370 -107q-46 211 -59 369z" />
<glyph unicode="Q" d="M4 744q36 221 190 409q304 335 646 345q297 -1 467 -210q195 -233 195 -472q0 -198 -134 -400q-22 -29 -45 -57l58 -87q17 -82 17 -135q0 -92 -53 -92q-28 0 -71 25l-127 117q-181 -140 -408 -190q-34 -6 -69 -6q-169 0 -347 134q-320 251 -320 590q0 15 1 29zM273 513 q119 -185 385 -254q25 -5 50 -5q133 0 257 146l-45 99q-20 37 -20 64q0 67 129 67q14 0 30 -1l108 -78q120 93 120 238q0 136 -107 318q-87 121 -338 156q-238 -15 -345 -112q-71 -244 -163 -244q-27 0 -56 21q-56 -98 -56 -205q0 -101 51 -210z" />
<glyph unicode="R" d="M20 1333q-13 -89 -13 -208q0 -224 47 -553q11 -102 11 -204q0 -119 -15 -237q63 -134 121 -134q57 0 110 129q8 88 8 222q0 40 -1 84q50 -5 101 -5q101 0 204 19q278 -202 535 -333q67 -26 107 -26q57 0 57 54q0 48 -45 137q-191 178 -383 290q359 129 575 503 q57 110 57 193q0 133 -150 193q-186 47 -429 47q-158 0 -339 -20q-391 -78 -558 -151zM249 1135q117 84 616 136h4q213 0 316 -116v-9q0 -118 -101 -204q-184 -172 -446 -227q-218 -43 -365 -43q-11 187 -24 463z" />
<glyph unicode="S" d="M110 911q158 189 360 320q387 241 661 270q169 -29 311 -205q58 -103 58 -165q0 -93 -131 -93q-32 0 -73 6q-50 187 -158 218q-268 -14 -479 -192q-140 -105 -249 -231q176 -52 563 -94q219 -23 378 -119q93 -58 93 -144q0 -82 -85 -191q-186 -210 -452 -264 q-115 -20 -216 -20q-282 0 -452 158v13q0 150 152 150q11 0 23 -1q130 -80 304 -80q137 0 301 49q138 85 138 144q0 50 -97 82q-165 3 -476 52q-235 33 -457 93q-115 30 -115 95q0 60 98 149z" />
<glyph unicode="T" horiz-adv-x="1300" d="M150 1434q132 58 368 58q32 0 66 -1q81 -5 167 -4q137 0 290 11q161 -29 161 -107q0 -66 -112 -166q-123 -19 -246 -19q-50 0 -101 3q65 -468 70 -821q3 -46 3 -88q0 -123 -26 -211q-47 -88 -99 -88q-64 0 -136 136q-9 60 -9 144q0 63 5 141q5 81 5 170q0 264 -40 604 q-171 0 -316 -43q-166 33 -166 114q0 67 116 167z" />
<glyph unicode="U" d="M6 214q-4 -31 -4 -58q0 -154 146 -156q593 303 889 303q60 0 108 -13l59 -214q87 -73 155 -73q85 0 141 115q-137 189 -142 713q16 133 16 287q0 128 -11 270q-51 115 -132 115q-71 0 -164 -87q-21 -73 -21 -151q0 -98 33 -203q31 -186 31 -438q0 -36 -1 -73 q-57 15 -132 15q-240 0 -660 -155v21q0 128 53 391q87 257 105 472q1 9 1 17q0 92 -66 92q-52 0 -144 -57q-116 -137 -183 -558q-59 -337 -77 -575z" />
<glyph unicode="V" d="M0 1222q38 143 118 143q61 0 147 -86q177 -559 411 -850q175 216 286 490q121 302 273 476q114 105 179 105q86 0 85 -185q-101 -251 -252 -519q-180 -377 -407 -696q-65 -100 -135 -100q-68 0 -141 94q-80 168 -255 442q-193 314 -309 686z" />
<glyph unicode="W" horiz-adv-x="2300" d="M0 1326q55 131 140 131q71 0 162 -92q67 -127 81 -330q93 -273 255 -479q132 265 266 868q91 76 164 76q91 0 152 -121l61 -257l99 -303l140 -316q112 207 225 454q77 158 196 491q84 49 140 49q118 0 118 -215q-113 -256 -295 -618q-181 -333 -257 -523 q-73 -141 -149 -141t-154 141q-140 492 -280 759q-204 -604 -292 -774q-69 -111 -144 -111q-78 0 -163 120q-110 337 -253 602q-132 246 -212 589z" />
<glyph unicode="X" d="M0 1255q322 -348 527 -545q-247 -330 -404 -464v-11q0 -213 101 -212q58 0 148 69q169 144 399 430q301 -234 536 -446q49 -44 85 -44q74 0 99 180q-253 267 -537 544q232 280 517 549q26 58 26 96q0 75 -98 75q-60 0 -156 -28q-226 -192 -491 -520q-262 206 -481 447 q-90 67 -150 67q-102 0 -121 -187z" />
<glyph unicode="Y" d="M27 1162q445 -296 758 -403q-159 -318 -363 -582q-8 -34 -8 -62q0 -117 150 -117q65 0 158 22q178 337 342 680q138 301 384 575q51 89 51 144q0 85 -125 85q-49 0 -117 -13q-197 -236 -349 -474q-387 123 -693 428q-47 12 -83 12q-128 0 -128 -145q0 -62 23 -150z" />
<glyph unicode="Z" d="M1 185q19 170 251 303q421 283 862 670q65 53 65 80q0 30 -74 31q-300 13 -839 16q-40 -39 -90 -39q-58 0 -131 52q-40 37 -40 75q0 63 110 128q693 -3 1229 -34q125 -35 125 -166q0 -21 -3 -45q-5 -166 -521 -554q-221 -188 -477 -333q-108 -60 -108 -89q0 -17 38 -24 q302 -26 633 -26q182 0 372 8q96 -21 96 -76q0 -56 -103 -148q-306 -15 -600 -15q-322 0 -630 18q-165 29 -165 159v9z" />
<glyph unicode="[" horiz-adv-x="700" d="M125 -4q0 -199 200 -199l134 -4q175 39 66 204h-100q-100 0 -100 99q-48 167 -1 1305q1 99 101 99h100q166 160 0 200h-200q-200 0 -200 -193q-48 -1092 0 -1511z" />
<glyph unicode="\" horiz-adv-x="800" d="M100 1500l400 -1500h200l-400 1500h-200z" />
<glyph unicode="]" horiz-adv-x="700" d="M174 1499h100q100 0 100 -100q48 -166 9 -1304q0 -99 -100 -99h-100q-166 -160 0 -200h200q200 0 200 193q39 1091 -9 1511q0 199 -200 199l-134 4q-175 -39 -66 -204z" />
<glyph unicode="^" horiz-adv-x="800" d="M100 1100h200l100 200l100 -200h200l-200 400h-200z" />
<glyph unicode="_" d="M0 0v-100h1600v100h-1600z" />
<glyph unicode="`" horiz-adv-x="600" d="M100 1298q0 200 198 0q67 -76 95 -179q60 -188 -130 -73q-119 90 -163 252z" />
<glyph unicode="a" d="M0 52q36 -53 102 -53q48 0 112 28q42 65 125 340q195 -46 365 -46q265 0 470 112q42 -183 72 -366q61 -62 117 -62q73 0 136 106q-24 349 -88 605q-94 327 -193 568q-101 220 -234 220q-16 0 -33 -3q-204 -53 -387 -226q-195 -181 -343 -500q-222 -473 -222 -700 q0 -12 1 -23zM411 585q179 471 515 678q120 -161 190 -571q-210 -135 -464 -135q-116 0 -241 28z" />
<glyph unicode="b" d="M4 1202q1 -519 50 -1011q27 -184 223 -184q28 0 59 4q698 27 1000 338q164 166 165 288q0 152 -255 235q253 222 253 374q0 140 -213 223q-198 32 -445 31q-214 0 -465 -23q-343 -53 -372 -275zM288 853l2 199q162 41 232 164q222 20 442 20h57q144 -11 144 -75 q0 -75 -197 -223q-119 -85 -680 -85zM292 606q451 50 711 50q192 -11 192 -70q0 -52 -151 -143q-285 -137 -735 -157q-17 124 -17 286v34z" />
<glyph unicode="c" d="M0 717q89 314 323 475q287 225 579 295q80 12 149 12q362 0 440 -320q3 -28 3 -52q0 -132 -82 -132q-38 0 -93 29q-108 211 -283 211q-55 0 -116 -21q-250 -97 -420 -214q-170 -128 -256 -293q-1 -176 190 -292q234 -114 451 -127q236 16 408 158q59 16 100 16 q100 0 100 -96q0 -60 -38 -156q-236 -179 -564 -209q-412 12 -623 175q-271 221 -271 483q0 29 3 58z" />
<glyph unicode="d" d="M3 1176q-2 -71 -2 -142q0 -451 100 -844q66 -193 215 -193q60 0 132 31q446 219 732 507q267 220 319 525q5 43 5 83q0 214 -155 313q-240 45 -511 44q-206 0 -429 -25q-343 -60 -406 -299zM245 1101h4q135 0 200 124q186 36 417 36q60 0 124 -2q219 -8 323 -107 q2 -17 2 -34q0 -191 -247 -431q-251 -221 -595 -374q-46 -16 -81 -16q-86 0 -107 95q-46 201 -46 488q0 105 6 221z" />
<glyph unicode="e" d="M8 1324q-12 -110 -12 -229q0 -150 19 -313q-5 -124 -5 -228q0 -214 22 -341q49 -213 278 -213h15l245 86q311 110 545 110q20 0 39 -1q186 68 186 135q0 58 -137 116q-51 5 -104 5q-249 0 -541 -105q-109 -34 -183 -34q-111 0 -140 78q-14 40 -14 78q0 102 103 193 q470 42 772 42q76 0 141 -3q174 102 174 168q0 69 -186 100q-299 -9 -559 -23q-112 -12 -197 -12q-254 0 -254 106q0 16 6 35q66 114 388 134q325 0 738 8q150 90 150 161q0 72 -158 124q-408 -28 -1026 -36q-238 -5 -305 -141z" />
<glyph unicode="f" d="M0 1328q86 108 429 112q294 34 654 58l289 -9q125 -82 125 -150q0 -71 -133 -126l-312 21q-324 -6 -574 -66q-56 -143 -214 -150q1 -146 11 -279q18 -1 37 -1q190 0 435 64q186 27 340 27q104 0 193 -12q121 -87 121 -155q0 -73 -140 -125q-119 15 -249 15t-270 -15 q-264 -15 -442 -100q0 -179 7 -373q-59 -65 -123 -65t-134 65q-12 218 -12 698q-12 332 -38 566z" />
<glyph unicode="g" d="M65 271q-56 191 -56 360q0 229 102 418q224 365 673 452q45 4 87 4q366 0 538 -266q18 -80 18 -132q0 -100 -66 -100q-47 0 -127 49q-62 194 -334 194q-64 0 -139 -11q-363 -45 -467 -316q-57 -146 -57 -266q0 -90 32 -165q121 -225 404 -225q51 0 106 7q315 83 393 205 q21 46 21 80q0 86 -136 86q-20 0 -42 -2q-120 -62 -249 -62q-45 0 -90 7q-104 77 -104 139q0 69 129 120q121 23 379 23q140 0 321 -7q99 -29 99 -145q0 -73 -39 -180q-117 -392 -617 -539q-80 -8 -154 -8q-430 0 -625 280z" />
<glyph unicode="h" d="M0 1313q52 -779 70 -1210q63 -94 124 -94q57 0 112 84l-16 352q281 120 622 120q142 0 294 -21q12 -238 68 -440q63 -99 116 -99q58 0 104 118q0 196 -59 765q0 413 -67 571q-56 45 -102 45q-67 0 -114 -93q-1 -38 -1 -78q0 -210 26 -498q-532 -6 -907 -113 q-18 256 -18 550q-53 114 -125 114q-57 0 -127 -73z" />
<glyph unicode="i" horiz-adv-x="501" d="M56 900q64 -549 76 -763q60 -134 127.5 -134.5t142.5 134.5q-2 222 -54 786q-5 308 -88 506q-35 75 -77 75q-40 0 -85 -67q-91 -61 -91 -230q0 -125 49 -307z" />
<glyph unicode="j" horiz-adv-x="1101" d="M0 367q72 -177 263 -306q129 -57 252 -57q173 0 335 112q147 121 147 475q0 303 -108 779q-52 131 -131 131q-71 0 -163 -103q123 -513 123 -786q0 -236 -92 -293q-13 -33 -72 -33t-162 32q-106 88 -157 197q-39 7 -72 7q-151 0 -163 -155z" />
<glyph unicode="k" d="M11 1360q-2 -278 -2 -512q0 -468 8 -762q74 -82 137 -82q75 0 135 117l-14 318q139 54 311 173q256 -192 559 -529q60 -15 106 -15q140 0 140 145q0 26 -4 56q-340 309 -584 490q352 237 670 551q23 63 23 106q0 91 -104 91q-27 0 -61 -6q-356 -319 -695 -584 q-184 -137 -378 -180l-11 223l11 407q-72 102 -133 102q-63 0 -114 -109z" />
<glyph unicode="l" d="M14 1367q93 132 174 132q56 0 106 -65q-22 -353 -22 -612q0 -184 11 -321q15 -213 233 -213q37 0 81 6q520 49 715 144q46 10 80 10q107 0 107 -94q0 -67 -55 -183q-262 -113 -1146 -171q-211 51 -254 255q-37 400 -37 783q0 166 7 329z" />
<glyph unicode="m" horiz-adv-x="2300" d="M0 188q41 -184 116 -184q67 0 162 147q152 304 263 668q256 -795 460 -805q4 -1 8 -1q87 0 262 422q211 426 352 594q154 -555 305 -871q78 -125 140 -125q76 0 131 185q-181 361 -428 1149q-54 138 -125 138q-81 0 -185 -175q-202 -295 -364 -599q-40 -174 -130 -245 q-75 114 -120 287q-80 242 -156 589q-63 144 -132 144t-145 -144q-240 -868 -414 -1174z" />
<glyph unicode="n" d="M0 1231q39 175 144 176q58 0 136 -55q288 -300 611 -601q185 -171 309 -234q12 13 12 68q0 95 -36 317q-41 148 -61 506q106 97 186 97q78 0 130 -92q-2 -85 -2 -170q0 -356 31 -691q45 -191 45 -332q0 -70 -11 -127q-44 -91 -111 -91q-63 0 -145 81q-186 187 -417 375 q-304 293 -437 449q-40 -42 -90 -42q-21 0 -43 7q2 -310 63 -638q1 -23 1 -45q0 -186 -83 -186q-67 0 -189 124q-14 395 -43 1104z" />
<glyph unicode="o" horiz-adv-x="2000" d="M0 747q3 -357 390 -619q208 -134 474 -134q54 0 111 6q452 98 761 455q164 188 164 379q0 226 -230 457q-251 209 -615 210q-476 -10 -861 -345q-164 -188 -194 -409zM299 931q237 13 248 176q243 129 476 129q22 0 43 -1q315 -47 491 -216q95 -103 95 -206 q0 -87 -68 -175q-231 -298 -609 -351q-413 0 -621 229q-100 133 -100 256q0 82 45 159z" />
<glyph unicode="p" d="M6 957q41 -251 93 -444q19 -172 26 -470q63 -42 114 -42q85 0 138 116l-5 222q119 54 342 147q247 101 435 225q239 137 337 404q13 52 13 97q0 194 -243 255q-228 34 -413 34q-47 0 -92 -2q-313 -20 -512 -103q-233 -114 -233 -414v-25zM267 1022q132 28 156 198 q170 31 357 31q161 0 336 -23q75 -25 75 -78q0 -76 -148 -207q-158 -119 -347 -183q-234 -93 -370 -107q-46 211 -59 369z" />
<glyph unicode="q" d="M4 744q36 221 190 409q304 335 646 345q297 -1 467 -210q195 -233 195 -472q0 -198 -134 -400q-22 -29 -45 -57l58 -87q17 -82 17 -135q0 -92 -53 -92q-28 0 -71 25l-127 117q-181 -140 -408 -190q-34 -6 -69 -6q-169 0 -347 134q-320 251 -320 590q0 15 1 29zM273 513 q119 -185 385 -254q25 -5 50 -5q133 0 257 146l-45 99q-20 37 -20 64q0 67 129 67q14 0 30 -1l108 -78q120 93 120 238q0 136 -107 318q-87 121 -338 156q-238 -15 -345 -112q-71 -244 -163 -244q-27 0 -56 21q-56 -98 -56 -205q0 -101 51 -210z" />
<glyph unicode="r" d="M20 1333q-13 -89 -13 -208q0 -224 47 -553q11 -102 11 -204q0 -119 -15 -237q63 -134 121 -134q57 0 110 129q8 88 8 222q0 40 -1 84q50 -5 101 -5q101 0 204 19q278 -202 535 -333q67 -26 107 -26q57 0 57 54q0 48 -45 137q-191 178 -383 290q359 129 575 503 q57 110 57 193q0 133 -150 193q-186 47 -429 47q-158 0 -339 -20q-391 -78 -558 -151zM249 1135q117 84 616 136h4q213 0 316 -116v-9q0 -118 -101 -204q-184 -172 -446 -227q-218 -43 -365 -43q-11 187 -24 463z" />
<glyph unicode="s" d="M110 911q158 189 360 320q387 241 661 270q169 -29 311 -205q58 -103 58 -165q0 -93 -131 -93q-32 0 -73 6q-50 187 -158 218q-268 -14 -479 -192q-140 -105 -249 -231q176 -52 563 -94q219 -23 378 -119q93 -58 93 -144q0 -82 -85 -191q-186 -210 -452 -264 q-115 -20 -216 -20q-282 0 -452 158v13q0 150 152 150q11 0 23 -1q130 -80 304 -80q137 0 301 49q138 85 138 144q0 50 -97 82q-165 3 -476 52q-235 33 -457 93q-115 30 -115 95q0 60 98 149z" />
<glyph unicode="t" horiz-adv-x="1300" d="M126 1434q132 58 368 58q32 0 66 -1q81 -5 167 -4q137 0 290 11q161 -29 161 -107q0 -66 -112 -166q-123 -19 -246 -19q-50 0 -101 3q65 -468 70 -821q3 -46 3 -88q0 -123 -26 -211q-47 -88 -99 -88q-64 0 -136 136q-9 60 -9 144q0 63 5 141q5 81 5 170q0 264 -40 604 q-171 0 -316 -43q-166 33 -166 114q0 67 116 167z" />
<glyph unicode="u" d="M6 214q-4 -31 -4 -58q0 -154 146 -156q593 303 889 303q60 0 108 -13l59 -214q87 -73 155 -73q85 0 141 115q-137 189 -142 713q16 133 16 287q0 128 -11 270q-51 115 -132 115q-71 0 -164 -87q-21 -73 -21 -151q0 -98 33 -203q31 -186 31 -438q0 -36 -1 -73 q-57 15 -132 15q-240 0 -660 -155v21q0 128 53 391q87 257 105 472q1 9 1 17q0 92 -66 92q-52 0 -144 -57q-116 -137 -183 -558q-59 -337 -77 -575z" />
<glyph unicode="v" d="M0 1222q38 143 118 143q61 0 147 -86q177 -559 411 -850q175 216 286 490q121 302 273 476q114 105 179 105q86 0 85 -185q-101 -251 -252 -519q-180 -377 -407 -696q-65 -100 -135 -100q-68 0 -141 94q-80 168 -255 442q-193 314 -309 686z" />
<glyph unicode="w" horiz-adv-x="2300" d="M0 1326q55 131 140 131q71 0 162 -92q67 -127 81 -330q93 -273 255 -479q132 265 266 868q91 76 164 76q91 0 152 -121l61 -257l99 -303l140 -316q112 207 225 454q77 158 196 491q84 49 140 49q118 0 118 -215q-113 -256 -295 -618q-181 -333 -257 -523 q-73 -141 -149 -141t-154 141q-140 492 -280 759q-204 -604 -292 -774q-69 -111 -144 -111q-78 0 -163 120q-110 337 -253 602q-132 246 -212 589z" />
<glyph unicode="x" d="M0 1255q322 -348 527 -545q-247 -330 -404 -464v-11q0 -213 101 -212q58 0 148 69q169 144 399 430q301 -234 536 -446q49 -44 85 -44q74 0 99 180q-253 267 -537 544q232 280 517 549q26 58 26 96q0 75 -98 75q-60 0 -156 -28q-226 -192 -491 -520q-262 206 -481 447 q-90 67 -150 67q-102 0 -121 -187z" />
<glyph unicode="y" d="M27 1162q445 -296 758 -403q-159 -318 -363 -582q-8 -34 -8 -62q0 -117 150 -117q65 0 158 22q178 337 342 680q138 301 384 575q51 89 51 144q0 85 -125 85q-49 0 -117 -13q-197 -236 -349 -474q-387 123 -693 428q-47 12 -83 12q-128 0 -128 -145q0 -62 23 -150z" />
<glyph unicode="z" d="M2 185q19 170 251 303q421 283 862 670q65 53 65 80q0 30 -74 31q-300 13 -839 16q-40 -39 -90 -39q-58 0 -131 52q-40 37 -40 75q0 63 110 128q693 -3 1229 -34q125 -35 125 -166q0 -21 -3 -45q-5 -166 -521 -554q-221 -188 -477 -333q-108 -60 -108 -89q0 -17 38 -24 q302 -26 633 -26q182 0 372 8q96 -21 96 -76q0 -56 -103 -148q-306 -15 -600 -15q-322 0 -630 18q-165 29 -165 159v9z" />
<glyph unicode="{" horiz-adv-x="700" d="M-48 663q71 -62 149 -182q3 -305 24 -485q0 -199 200 -199l134 -4q175 39 66 204h-100q-100 0 -100 99q-48 167 -30 472l-138 158l137 140l31 585q0 49 100 49h100q166 160 0 200h-200q-200 0 -200 -193q-13 -307 -19 -560q-57 -95 -148 -148z" />
<glyph unicode="|" horiz-adv-x="400" d="M100 -200h200v1900h-200v-1900z" />
<glyph unicode="}" horiz-adv-x="700" d="M35 -7q-166 -160 0 -200h200q200 0 200 193q13 307 19 560q57 95 148 148l6 136q-71 62 -149 182q-3 305 -24 485q0 199 -200 199l-134 4q-175 -39 -66 -204h100q100 0 100 -99q48 -167 31 -471l137 -159l-137 -140l-30 -584q-1 -50 -101 -50h-100z" />
<glyph unicode="~" d="M134 651q-100 51 100 199q200 100 561 -4.5t661 -4.5q100 -56 -100 -200q-200 -100 -561 4.5t-661 5.5z" />
<glyph unicode="&#xa1;" horiz-adv-x="500" d="M80 1000q133 -41 200 58q28 142 -100 142q-217 -26 -100 -200zM89 846l25 -1055q174 -202 286 47l-92 987q-40 176 -219 21z" />
<glyph unicode="&#xa4;" horiz-adv-x="1000" d="M103 879l195 152l49 -67q91 56 190 60q95 -1 164 -44l53 55l150 -149l-69 -68q75 -162 -26 -342l62 -56l-154 -125l-46 57q-79 -44 -186 -63q-63 -10 -129 18l-43 -70l-177 127l60 69q-79 99 -74 221q11 75 51 141zM275 544q55 -85 176 -119q151 -6 244 107.5t-6 288.5 q-41 55 -156 73q-107 -8 -157 -53q-40 -146 -99 -104q-50 -89 -2 -193z" />
<glyph unicode="&#xa5;" d="M3 1400q193 216 260 7q76 -402 516 -550q247 112 475 560q121 190 242 -58q-292 -542 -596 -759q16 -387 -20 -577q-184 -75 -260 30q33 218 48 566q-511 271 -665 781zM400 200l100 100l649 1l-100 -100zM400 400l100 100l649 1l-100 -100z" />
<glyph unicode="&#xa6;" horiz-adv-x="400" d="M100 -200h200v800h-200v-800zM100 900h200v800h-200v-800z" />
<glyph unicode="&#xa8;" horiz-adv-x="1000" d="M67 1300q214 -56 276 34q68 217 -210 228q-199 -53 -66 -262zM617 1296q214 -56 276 34q68 217 -210 228q-199 -53 -66 -262z" />
<glyph unicode="&#xa9;" d="M0 750q0 311 219.5 530.5t530.5 219.5t530.5 -219.5t219.5 -530.5t-219.5 -530.5t-530.5 -219.5t-530.5 219.5t-219.5 530.5zM100 750q0 -269 190.5 -459.5t459.5 -190.5t459.5 190.5t190.5 459.5t-190.5 459.5t-459.5 190.5t-459.5 -190.5t-190.5 -459.5zM296 729 q54 189 196 285q174 135 350 177q301 44 357 -184q14 -154 -104 -94q-86 167 -242 115q-151 -59 -254 -129q-103 -77 -155 -176q-1 -105 115 -175q142 -68 273 -76q143 9 247 95q174 48 98 -142q-143 -107 -341 -125q-250 7 -377 105q-183 147 -163 324z" />
<glyph unicode="&#xaa;" horiz-adv-x="800" d="M102 921q-5 91 88 290q59 127 137 200q73 69 154 90q62 12 107 -87q39 -96 77 -227q25 -102 35 -242q-45 -75 -101 -18q-12 74 -29 147q-134 -74 -333 -27q-33 -110 -50 -136q-60 -26 -85 10zM266 1135q159 -36 281 42q-28 164 -76 229q-134 -83 -205 -271z" />
<glyph unicode="&#xab;" horiz-adv-x="1800" d="M157 632q286 403 732 868q311 0 175 -189q-362 -355 -583 -738q246 -182 608 -363q58 -205 -196 -209q-358 193 -694 402q-172 80 -42 229zM757 731q286 403 732 868q311 0 175 -189q-362 -355 -583 -738q246 -182 608 -363q58 -205 -196 -209q-358 193 -694 402 q-172 80 -42 229z" />
<glyph unicode="&#xad;" horiz-adv-x="1100" d="M21 728q104 97 306 135q201 17 541 -6q260 -67 5 -193q-358 -4 -520 -72q-86 -82 -178 -90q-235 -23 -154 226z" />
<glyph unicode="&#xae;" d="M0 750q0 311 219.5 530.5t530.5 219.5t530.5 -219.5t219.5 -530.5t-219.5 -530.5t-530.5 -219.5t-530.5 219.5t-219.5 530.5zM100 750q0 -269 190.5 -459.5t459.5 -190.5t459.5 190.5t190.5 459.5t-190.5 459.5t-459.5 190.5t-459.5 -190.5t-190.5 -459.5zM308 1094 q-23 -154 21 -453q14 -132 -3 -262q75 -158 140 -3q6 69 4 182q91 -8 185 8q168 -120 324 -198q151 -57 72 99q-116 105 -232 172q217 77 348 299q91 172 -56 230q-186 45 -465 16q-237 -47 -338 -90zM447 976q71 50 373 81q130 1 193 -69q3 -74 -61 -127l-134 -89l-136 -46 q-132 -25 -221 -25q-6 111 -14 275z" />
<glyph unicode="&#xaf;" horiz-adv-x="1000" d="M179 1490q-290 -231 13 -261q322 22 635 48q161 178 -30 221q-298 7 -618 -8z" />
<glyph unicode="&#xb0;" horiz-adv-x="700" d="M107 1246q12 73 63 134q99 110 212 114q97 -1 153 -69q117 -140 25 -302q-67 -96 -212 -122q-65 -11 -136 42q-109 86 -105 203zM209 1172q36 -57 116 -80q100 -4 161.5 72t-3.5 194q-27 37 -103 49q-71 -5 -104 -36q-27 -97 -66 -69q-33 -60 -1 -130z" />
<glyph unicode="&#xb1;" horiz-adv-x="1200" d="M120 228q104 97 306 135q201 17 541 -6q260 -67 5 -193q-358 -4 -520 -72q-86 -82 -178 -90q-235 -23 -154 226zM122 854q104 97 306 135q35 3 74 5l19 196q107 195 258 44l-36 -240q104 -3 226 -11q260 -67 5 -193q-140 -2 -249 -13l-17 -243q-207 -275 -231 -44l12 241 q-19 -6 -35 -13q-90 -30 -182 -38q-235 -23 -150 174z" />
<glyph unicode="&#xb2;" horiz-adv-x="800" d="M116 989q42 96 138 149q129 60 189 70q117 37 132 90q17 97 -132 107q-124 -9 -207 -103q-148 -95 -99 48l44 49q101 95 259 97q104 -2 195 -58q75 -56 58 -168q-32 -98 -260 -166q-131 -24 -177 -112q189 -18 394 21q55 -19 10 -100q-242 -24 -514 -4q-73 8 -30 80z" />
<glyph unicode="&#xb3;" horiz-adv-x="800" d="M107 1411q115 86 278 89q196 -3 271 -87q81 -160 -83 -230q106 -44 101 -149q-7 -106 -206 -133q-266 -11 -353 49q-26 48 54 64q129 -30 291 -20q81 14 96 62q-4 95 -204 95q-55 50 2 70q62 -4 125 10q97 41 100 93q-29 80 -191 92q-146 -15 -207 -77q-104 29 -74 72z " />
<glyph unicode="&#xb4;" horiz-adv-x="500" d="M102 1266q34 147 140 234q175 31 159 -110q-27 -124 -77 -184q-244 -241 -222 60z" />
<glyph unicode="&#xb5;" d="M6 214q-56 -673 76 -640q167 -135 183 430q596 360 880 286l59 -214q197 -164 296 42q-137 189 -142 713q29 243 5 557q-96 216 -296 28q-47 -165 12 -354q35 -212 30 -511q-241 63 -792 -140q-5 126 53 412q87 257 105 472q11 187 -209 52q-116 -137 -183 -558 q-59 -337 -77 -575z" />
<glyph unicode="&#xb7;" horiz-adv-x="500" d="M151 639q184 -56 237 33q59 217 -181 229q-171 -54 -56 -262z" />
<glyph unicode="&#xb8;" horiz-adv-x="1000" d="M291 -404q-100 100 100 200q100 -91 200 0q52 100 -152 256q52 201 205 44q286 -300 47 -500q-200 -100 -400 0z" />
<glyph unicode="&#xb9;" horiz-adv-x="800" d="M203 1178q26 69 110 173q63 85 103 116q86 60 66 -62l-35 -395q31 -4 104 -7q52 -21 -1 -91q-92 -19 -318 -9q-79 78 35 93q32 10 73 13l25 224q-30 -50 -75 -96q-98 -31 -87 41z" />
<glyph unicode="&#xba;" horiz-adv-x="800" d="M100 1200q15 87 76 161q120 133 255 137q118 0 185 -83q141 -169 31 -364q-82 -116 -256 -147q-79 -13 -164 51q-132 103 -127 245zM244 1117q39 -62 128 -86q110 -4 178 78.5t-5 209.5q-29 42 -112 54q-79 -6 -115 -39q-31 -107 -73 -75q-36 -66 -1 -142z" />
<glyph unicode="&#xbb;" horiz-adv-x="1800" d="M116 1292q-58 204 196 208q358 -192 690 -570q172 -80 42 -230q-245 -300 -728 -699q-311 0 -175 190q358 309 579 569q-242 350 -604 532zM716 1390q-58 204 196 208q358 -192 690 -570q172 -80 42 -230q-245 -300 -728 -699q-311 0 -175 190q358 309 579 569 q-242 350 -604 532z" />
<glyph unicode="&#xbc;" d="M159 1183q26 69 110 173q63 85 103 117q86 59 66 -63l-35 -395q31 -4 104 -7q52 -21 -1 -91q-92 -19 -318 -9q-79 78 35 94q32 9 73 13l25 223q-30 -49 -75 -96q-98 -31 -87 41zM450 0l400 1500h200l-400 -1500h-200zM845 183l9 40q105 146 233 230q118 78 257 134l38 1 l19 -38q-2 -124 -27 -282q19 1 36 -9q49 -38 0 -66q-28 -8 -50 -12q-8 -56 -12 -148q-93 -65 -105 -5q4 62 16 137q-132 -24 -285 -34q-80 -11 -121 0zM1000 229q124 5 270 35q19 157 15 220q-46 -28 -101 -64q-109 -77 -184 -191z" />
<glyph unicode="&#xbd;" d="M159 1183q26 69 110 173q63 85 103 117q86 59 66 -63l-35 -395q31 -4 104 -7q52 -21 -1 -91q-92 -19 -318 -9q-79 78 35 94q32 9 73 13l25 223q-30 -49 -75 -96q-98 -31 -87 41zM450 0l400 1500h200l-400 -1500h-200zM859 94q42 96 138 150q129 60 189 70q117 37 132 90 q17 97 -132 107q-124 -9 -207 -104q-148 -95 -99 49l44 49q101 95 259 97q104 -3 195 -59q75 -55 58 -167q-32 -98 -259 -167q-132 -23 -178 -112q189 -17 394 22q55 -19 10 -100q-242 -24 -514 -4q-73 8 -30 79z" />
<glyph unicode="&#xbe;" d="M72 1413q115 86 278 89q196 -2 271 -87q81 -160 -83 -229q106 -45 101 -150q-7 -106 -206 -132q-266 -12 -353 48q-26 48 54 64q129 -30 291 -20q81 14 96 62q-4 95 -204 95q-55 50 2 70q62 -4 125 10q97 41 100 93q-29 81 -191 92q-146 -15 -207 -77q-104 29 -74 72z M450 0l400 1500h200l-400 -1500h-200zM845 183l9 40q105 146 233 230q118 78 257 134l38 1l19 -38q-2 -124 -27 -282q19 1 36 -9q49 -38 0 -66q-28 -8 -50 -12q-8 -56 -12 -148q-93 -65 -105 -5q4 62 16 137q-132 -24 -285 -34q-80 -11 -121 0zM1001 229q123 5 269 35 q19 157 15 220q-46 -28 -100 -64q-110 -77 -184 -191z" />
<glyph unicode="&#xbf;" d="M127 -113q182 -159 499 -180q333 -26 606 44q264 87 274 287q32 294 -221 172q-59 -255 -442 -253q-493 8 -500 213q21 211 335 273q276 53 570 63q108 104 -49 240q-245 13 -583 -39q-317 -69 -483 -264q-262 -314 -6 -556zM903 1125q-47 -216 232 -231q198 72 44 276 q-214 76 -276 -45z" />
<glyph unicode="&#xc0;" d="M0 52q63 -92 214 -25q42 65 125 340q498 -118 835 66q42 -183 72 -366q141 -143 253 44q-24 349 -88 605q-94 327 -193 568q-113 247 -267 217q-204 -53 -387 -226q-195 -181 -343 -500q-233 -497 -221 -723zM411 585q179 471 515 678q120 -161 190 -571 q-306 -197 -705 -107zM700 1852q0 200 198 0q67 -76 95 -179q60 -188 -130 -73q-119 90 -163 252z" />
<glyph unicode="&#xc1;" d="M0 52q63 -92 214 -25q42 65 125 340q498 -118 835 66q42 -183 72 -366q141 -143 253 44q-24 349 -88 605q-94 327 -193 568q-113 247 -267 217q-204 -53 -387 -226q-195 -181 -343 -500q-233 -497 -221 -723zM411 585q179 471 515 678q120 -161 190 -571 q-306 -197 -705 -107zM903 1715q34 147 140 234q175 31 159 -110q-27 -124 -77 -184q-244 -241 -222 60z" />
<glyph unicode="&#xc2;" d="M0 52q63 -92 214 -25q42 65 125 340q498 -118 835 66q42 -183 72 -366q141 -143 253 44q-24 349 -88 605q-94 327 -193 568q-113 247 -267 217q-204 -53 -387 -226q-195 -181 -343 -500q-233 -497 -221 -723zM411 585q179 471 515 678q120 -161 190 -571 q-306 -197 -705 -107zM544 1577q67 -97 284 -51q47 127 139 170q105 -60 139 -160q183 -64 242 81q-66 99 -218 259q-203 82 -302 -1q-178 -136 -284 -298z" />
<glyph unicode="&#xc3;" d="M0 52q63 -92 214 -25q42 65 125 340q498 -118 835 66q42 -183 72 -366q141 -143 253 44q-24 349 -88 605q-94 327 -193 568q-113 247 -267 217q-204 -53 -387 -226q-195 -181 -343 -500q-233 -497 -221 -723zM411 585q179 471 515 678q120 -161 190 -571 q-306 -197 -705 -107zM534 1651q-100 51 100 199q200 100 300 0t400 0q100 -56 -100 -200q-200 -100 -300 0t-400 1z" />
<glyph unicode="&#xc4;" d="M0 52q63 -92 214 -25q42 65 125 340q498 -118 835 66q42 -183 72 -366q141 -143 253 44q-24 349 -88 605q-94 327 -193 568q-113 247 -267 217q-204 -53 -387 -226q-195 -181 -343 -500q-233 -497 -221 -723zM411 585q179 471 515 678q120 -161 190 -571 q-306 -197 -705 -107zM567 1605q214 -56 276 34q68 217 -210 228q-199 -53 -66 -262zM1117 1601q214 -56 276 34q68 217 -210 228q-199 -53 -66 -262z" />
<glyph unicode="&#xc5;" d="M0 52q63 -92 214 -25q42 65 125 340q498 -118 835 66q42 -183 72 -366q141 -143 253 44q-24 349 -88 605q-94 327 -193 568q-113 247 -267 217q-204 -53 -387 -226q-195 -181 -343 -500q-233 -497 -221 -723zM411 585q179 471 515 678q120 -161 190 -571 q-306 -197 -705 -107zM718 1750q12 73 63 134q99 110 212 114q97 -1 153 -69q117 -140 25 -302q-67 -96 -212 -122q-65 -11 -136 42q-109 86 -105 203zM858 1686q27 -43 87 -60q75 -3 121 54t-3 145q-20 28 -77 37q-53 -4 -78 -27q-20 -73 -49 -52q-25 -45 -1 -97z" />
<glyph unicode="&#xc6;" horiz-adv-x="2812" d="M12 52q63 -92 214 -25q42 65 125 340q498 -118 835 66q42 -183 72 -366q141 -143 253 44q-24 349 -88 605q-94 327 -193 568q-113 247 -267 217q-204 -53 -387 -226q-195 -181 -343 -500q-233 -497 -221 -723zM423 585q179 471 515 678q120 -161 190 -571 q-306 -197 -705 -107zM1223 1324q-27 -249 7 -542q-16 -381 17 -569q51 -220 293 -213l245 86q337 119 584 109q346 126 49 251q-291 27 -645 -100q-275 -86 -323 44q-53 146 89 271q588 52 913 39q353 207 -12 268q-299 -9 -559 -23q-504 -52 -445 129q66 114 388 134 q325 0 738 8q304 183 -8 285q-408 -28 -1026 -36q-238 -5 -305 -141z" />
<glyph unicode="&#xc7;" d="M0 717q89 314 323 475q287 225 579 295q496 73 589 -308q24 -256 -172 -155q-142 277 -399 190q-250 -97 -420 -214q-170 -128 -256 -293q-1 -176 190 -292q234 -114 451 -127q236 16 408 158q288 81 162 -236q-236 -179 -564 -209q-412 12 -623 175q-301 245 -268 541z M611 -404q-100 100 100 200q100 -91 200 0q52 100 -152 256q52 201 205 44q286 -300 47 -500q-200 -100 -400 0z" />
<glyph unicode="&#xc8;" d="M8 1324q-27 -249 7 -542q-16 -381 17 -569q51 -220 293 -213l245 86q337 119 584 109q346 126 49 251q-291 27 -645 -100q-275 -86 -323 44q-53 146 89 271q588 52 913 39q353 207 -12 268q-299 -9 -559 -23q-504 -52 -445 129q66 114 388 134q325 0 738 8 q304 183 -8 285q-408 -28 -1026 -36q-238 -5 -305 -141zM548 1860q0 200 198 0q67 -76 95 -179q60 -188 -130 -73q-119 90 -163 252z" />
<glyph unicode="&#xc9;" d="M8 1324q-27 -249 7 -542q-16 -381 17 -569q51 -220 293 -213l245 86q337 119 584 109q346 126 49 251q-291 27 -645 -100q-275 -86 -323 44q-53 146 89 271q588 52 913 39q353 207 -12 268q-299 -9 -559 -23q-504 -52 -445 129q66 114 388 134q325 0 738 8 q304 183 -8 285q-408 -28 -1026 -36q-238 -5 -305 -141zM602 1711q34 147 140 234q175 31 159 -110q-27 -124 -77 -184q-244 -241 -222 60z" />
<glyph unicode="&#xca;" d="M8 1324q-27 -249 7 -542q-16 -381 17 -569q51 -220 293 -213l245 86q337 119 584 109q346 126 49 251q-291 27 -645 -100q-275 -86 -323 44q-53 146 89 271q588 52 913 39q353 207 -12 268q-299 -9 -559 -23q-504 -52 -445 129q66 114 388 134q325 0 738 8 q304 183 -8 285q-408 -28 -1026 -36q-238 -5 -305 -141zM343 1618q67 -97 284 -51q47 127 139 170q105 -60 139 -160q183 -64 242 81q-66 99 -218 259q-203 82 -302 -1q-178 -136 -284 -298z" />
<glyph unicode="&#xcb;" d="M8 1324q-27 -249 7 -542q-16 -381 17 -569q51 -220 293 -213l245 86q337 119 584 109q346 126 49 251q-291 27 -645 -100q-275 -86 -323 44q-53 146 89 271q588 52 913 39q353 207 -12 268q-299 -9 -559 -23q-504 -52 -445 129q66 114 388 134q325 0 738 8 q304 183 -8 285q-408 -28 -1026 -36q-238 -5 -305 -141zM359 1636q214 -56 276 34q68 217 -210 228q-199 -53 -66 -262zM909 1632q214 -56 276 34q68 217 -210 228q-199 -53 -66 -262z" />
<glyph unicode="&#xcc;" horiz-adv-x="1100" d="M75 1178q171 -46 300 -61q38 -365 28 -761q-160 -31 -315 -114q-115 -206 50 -240q175 83 333 107q203 -5 392 -109q221 60 83 255q-168 4 -286 77q-49 420 -29 796q173 55 328 156q116 253 -131 214q-89 -70 -340 -109q-269 28 -376 81q-196 -45 -37 -292zM297 1803 q0 200 198 0q67 -76 95 -179q60 -188 -130 -73q-119 90 -163 252z" />
<glyph unicode="&#xcd;" horiz-adv-x="1100" d="M75 1178q171 -46 300 -61q38 -365 28 -761q-160 -31 -315 -114q-115 -206 50 -240q175 83 333 107q203 -5 392 -109q221 60 83 255q-168 4 -286 77q-49 420 -29 796q173 55 328 156q116 253 -131 214q-89 -70 -340 -109q-269 28 -376 81q-196 -45 -37 -292zM381 1674 q34 147 140 234q175 31 159 -110q-27 -124 -77 -184q-244 -241 -222 60z" />
<glyph unicode="&#xce;" horiz-adv-x="1100" d="M75 1178q171 -46 300 -61q38 -365 28 -761q-160 -31 -315 -114q-115 -206 50 -240q175 83 333 107q203 -5 392 -109q221 60 83 255q-168 4 -286 77q-49 420 -29 796q173 55 328 156q116 253 -131 214q-89 -70 -340 -109q-269 28 -376 81q-196 -45 -37 -292zM147 1605 q67 -97 284 -51q47 127 139 170q105 -60 139 -160q183 -64 242 81q-66 99 -218 259q-203 82 -302 -1q-178 -136 -284 -298z" />
<glyph unicode="&#xcf;" horiz-adv-x="1100" d="M75 1178q171 -46 300 -61q38 -365 28 -761q-160 -31 -315 -114q-115 -206 50 -240q175 83 333 107q203 -5 392 -109q221 60 83 255q-168 4 -286 77q-49 420 -29 796q173 55 328 156q116 253 -131 214q-89 -70 -340 -109q-269 28 -376 81q-196 -45 -37 -292zM138 1622 q214 -56 276 34q68 217 -210 228q-199 -53 -66 -262zM688 1618q214 -56 276 34q68 217 -210 228q-199 -53 -66 -262z" />
<glyph unicode="&#xd0;" d="M-111 809q-58 -221 60 -248q40 7 79 16q25 -200 73 -387q92 -270 347 -162q446 219 732 507q267 220 319 525q34 278 -150 396q-423 79 -940 19q-343 -60 -406 -299q-5 -172 2 -337q-57 -14 -116 -30zM239 886q0 102 6 215q138 -2 204 124q235 46 541 34q219 -8 323 -107 q24 -203 -245 -465q-251 -221 -595 -374q-158 -55 -188 79q-26 114 -38 256q54 22 253 82q84 169 -12 203q-196 -39 -249 -47z" />
<glyph unicode="&#xd1;" d="M0 1231q61 273 280 121q288 -300 611 -601q185 -171 309 -234q32 36 -24 385q-41 148 -61 506q209 192 316 5q-9 -446 29 -861q67 -285 34 -459q-86 -176 -256 -10q-186 187 -417 375q-304 293 -437 449q-57 -60 -133 -35q2 -310 63 -638q18 -400 -271 -107 q-14 395 -43 1104zM333 1604q-100 51 100 199q200 100 300 0t400 0q100 -56 -100 -200q-200 -100 -300 0t-400 1z" />
<glyph unicode="&#xd2;" horiz-adv-x="2000" d="M0 747q3 -357 390 -619q251 -161 585 -128q452 98 761 455q358 410 -66 836q-251 209 -615 210q-476 -10 -861 -345q-164 -188 -194 -409zM299 931q237 13 248 176q265 141 519 128q315 -47 491 -216q175 -190 27 -381q-231 -298 -609 -351q-413 0 -621 229 q-168 223 -55 415zM828 1874q0 200 198 0q67 -76 95 -179q60 -188 -130 -73q-119 90 -163 252z" />
<glyph unicode="&#xd3;" horiz-adv-x="2000" d="M0 747q3 -357 390 -619q251 -161 585 -128q452 98 761 455q358 410 -66 836q-251 209 -615 210q-476 -10 -861 -345q-164 -188 -194 -409zM299 931q237 13 248 176q265 141 519 128q315 -47 491 -216q175 -190 27 -381q-231 -298 -609 -351q-413 0 -621 229 q-168 223 -55 415zM992 1728q34 147 140 234q175 31 159 -110q-27 -124 -77 -184q-244 -241 -222 60z" />
<glyph unicode="&#xd4;" horiz-adv-x="2000" d="M0 747q3 -357 390 -619q251 -161 585 -128q452 98 761 455q358 410 -66 836q-251 209 -615 210q-476 -10 -861 -345q-164 -188 -194 -409zM299 931q237 13 248 176q265 141 519 128q315 -47 491 -216q175 -190 27 -381q-231 -298 -609 -351q-413 0 -621 229 q-168 223 -55 415zM677 1613q67 -97 284 -51q47 127 139 170q105 -60 139 -160q183 -64 242 81q-66 99 -218 259q-203 82 -302 -1q-178 -136 -284 -298z" />
<glyph unicode="&#xd5;" horiz-adv-x="2000" d="M0 747q3 -357 390 -619q251 -161 585 -128q452 98 761 455q358 410 -66 836q-251 209 -615 210q-476 -10 -861 -345q-164 -188 -194 -409zM299 931q237 13 248 176q265 141 519 128q315 -47 491 -216q175 -190 27 -381q-231 -298 -609 -351q-413 0 -621 229 q-168 223 -55 415zM766 1651q-100 51 100 199q200 100 300 0t400 0q100 -56 -100 -200q-200 -100 -300 0t-400 1z" />
<glyph unicode="&#xd6;" horiz-adv-x="2000" d="M0 747q3 -357 390 -619q251 -161 585 -128q452 98 761 455q358 410 -66 836q-251 209 -615 210q-476 -10 -861 -345q-164 -188 -194 -409zM299 931q237 13 248 176q265 141 519 128q315 -47 491 -216q175 -190 27 -381q-231 -298 -609 -351q-413 0 -621 229 q-168 223 -55 415zM668 1606q214 -56 276 34q68 217 -210 228q-199 -53 -66 -262zM1218 1602q214 -56 276 34q68 217 -210 228q-199 -53 -66 -262z" />
<glyph unicode="&#xd7;" horiz-adv-x="1000" d="M94 984q-2 108 167 108q153 -145 245 -269q95 126 230 259q131 75 159 -128q-179 -162 -274 -286q128 -161 219 -324q-117 -140 -228 -52q-77 153 -136 245q-97 -157 -188 -257q-218 -86 -189 109q113 112 254 280q-97 125 -259 315z" />
<glyph unicode="&#xd8;" horiz-adv-x="2000" d="M0 747q3 -357 390 -619q251 -161 585 -128q452 98 761 455q358 410 -66 836q-251 209 -615 210q-476 -10 -861 -345q-164 -188 -194 -409zM299 931q237 13 248 176q265 141 519 128q315 -47 491 -216q175 -190 27 -381q-231 -298 -609 -351q-413 0 -621 229 q-168 223 -55 415zM300 0h294l1006 1500h-294z" />
<glyph unicode="&#xd9;" d="M6 214q-30 -212 142 -214q713 364 997 290l59 -214q197 -164 296 42q-137 189 -142 713q29 243 5 557q-96 216 -296 28q-47 -165 12 -354q35 -212 30 -511q-241 63 -792 -140q-5 126 53 412q87 257 105 472q11 187 -209 52q-116 -137 -183 -558q-59 -337 -77 -575z M593 1834q0 200 198 0q67 -76 95 -179q60 -188 -130 -73q-119 90 -163 252z" />
<glyph unicode="&#xda;" d="M6 214q-30 -212 142 -214q713 364 997 290l59 -214q197 -164 296 42q-137 189 -142 713q29 243 5 557q-96 216 -296 28q-47 -165 12 -354q35 -212 30 -511q-241 63 -792 -140q-5 126 53 412q87 257 105 472q11 187 -209 52q-116 -137 -183 -558q-59 -337 -77 -575z M687 1678q34 147 140 234q175 31 159 -110q-27 -124 -77 -184q-244 -241 -222 60z" />
<glyph unicode="&#xdb;" d="M6 214q-30 -212 142 -214q713 364 997 290l59 -214q197 -164 296 42q-137 189 -142 713q29 243 5 557q-96 216 -296 28q-47 -165 12 -354q35 -212 30 -511q-241 63 -792 -140q-5 126 53 412q87 257 105 472q11 187 -209 52q-116 -137 -183 -558q-59 -337 -77 -575z M388 1609q67 -97 284 -51q47 127 139 170q105 -60 139 -160q183 -64 242 81q-66 99 -218 259q-203 82 -302 -1q-178 -136 -284 -298z" />
<glyph unicode="&#xdc;" d="M6 214q-30 -212 142 -214q713 364 997 290l59 -214q197 -164 296 42q-137 189 -142 713q29 243 5 557q-96 216 -296 28q-47 -165 12 -354q35 -212 30 -511q-241 63 -792 -140q-5 126 53 412q87 257 105 472q11 187 -209 52q-116 -137 -183 -558q-59 -337 -77 -575z M367 1605q214 -56 276 34q68 217 -210 228q-199 -53 -66 -262zM917 1601q214 -56 276 34q68 217 -210 228q-199 -53 -66 -262z" />
<glyph unicode="&#xdd;" d="M27 1162q445 -296 758 -403q-159 -318 -363 -582q-59 -242 300 -157q178 337 342 680q138 301 384 575q162 284 -191 216q-197 -236 -349 -474q-387 123 -693 428q-282 70 -188 -283zM702 1667q34 147 140 234q175 31 159 -110q-27 -124 -77 -184q-244 -241 -222 60z" />
<glyph unicode="&#xde;" d="M-176 1652q171 -46 300 -61q90 -1334 106 -1609q-160 -31 -315 -114q-115 -206 50 -240q175 83 333 107q203 -5 392 -109q221 60 83 255q-168 4 -286 77q-9 194 -23 422q102 44 250 106q247 101 435 225q239 137 337 404q69 277 -230 352q-286 43 -505 32 q-204 -13 -359 -53q-6 77 -12 156q173 55 328 156q116 253 -131 214q-89 -70 -340 -109q-269 28 -376 81q-196 -45 -37 -292zM412 1168q7 24 11 52q316 58 693 8q181 -60 -73 -285q-158 -119 -347 -183q-144 -57 -250 -84q-15 231 -34 492z" />
<glyph unicode="&#xdf;" d="M4 1202q1 -519 50 -1011q31 -210 146 -191q109 74 101 287q-11 136 -11 765q162 41 232 164q251 23 499 20q313 -24 -53 -298q-119 -85 -468 -76q-140 -262 0 -262q243 56 503 56q362 -21 45 -296q-254 -123 -617 -126q-76 -236 76 -239q527 13 859 324q339 402 -120 553 q486 425 40 597q-369 59 -910 8q-343 -53 -372 -275z" />
<glyph unicode="&#xe0;" d="M0 52q63 -92 214 -25q42 65 125 340q498 -118 835 66q42 -183 72 -366q141 -143 253 44q-24 349 -88 605q-94 327 -193 568q-113 247 -267 217q-204 -53 -387 -226q-195 -181 -343 -500q-233 -497 -221 -723zM411 585q179 471 515 678q120 -161 190 -571 q-306 -197 -705 -107zM699 1850q0 200 198 0q67 -76 95 -179q60 -188 -130 -73q-119 90 -163 252z" />
<glyph unicode="&#xe1;" d="M0 52q63 -92 214 -25q42 65 125 340q498 -118 835 66q42 -183 72 -366q141 -143 253 44q-24 349 -88 605q-94 327 -193 568q-113 247 -267 217q-204 -53 -387 -226q-195 -181 -343 -500q-233 -497 -221 -723zM411 585q179 471 515 678q120 -161 190 -571 q-306 -197 -705 -107zM902 1722q34 147 140 234q175 31 159 -110q-27 -124 -77 -184q-244 -241 -222 60z" />
<glyph unicode="&#xe2;" d="M0 52q63 -92 214 -25q42 65 125 340q498 -118 835 66q42 -183 72 -366q141 -143 253 44q-24 349 -88 605q-94 327 -193 568q-113 247 -267 217q-204 -53 -387 -226q-195 -181 -343 -500q-233 -497 -221 -723zM411 585q179 471 515 678q120 -161 190 -571 q-306 -197 -705 -107zM556 1612q67 -97 284 -51q47 127 139 170q105 -60 139 -160q183 -64 242 81q-66 99 -218 259q-203 82 -302 -1q-178 -136 -284 -298z" />
<glyph unicode="&#xe3;" d="M0 52q63 -92 214 -25q42 65 125 340q498 -118 835 66q42 -183 72 -366q141 -143 253 44q-24 349 -88 605q-94 327 -193 568q-113 247 -267 217q-204 -53 -387 -226q-195 -181 -343 -500q-233 -497 -221 -723zM411 585q179 471 515 678q120 -161 190 -571 q-306 -197 -705 -107zM567 1650q-100 51 100 199q200 100 300 0t400 0q100 -56 -100 -200q-200 -100 -300 0t-400 1z" />
<glyph unicode="&#xe4;" d="M0 52q63 -92 214 -25q42 65 125 340q498 -118 835 66q42 -183 72 -366q141 -143 253 44q-24 349 -88 605q-94 327 -193 568q-113 247 -267 217q-204 -53 -387 -226q-195 -181 -343 -500q-233 -497 -221 -723zM411 585q179 471 515 678q120 -161 190 -571 q-306 -197 -705 -107zM567 1605q214 -56 276 34q68 217 -210 228q-199 -53 -66 -262zM1117 1601q214 -56 276 34q68 217 -210 228q-199 -53 -66 -262z" />
<glyph unicode="&#xe5;" d="M0 52q63 -92 214 -25q42 65 125 340q498 -118 835 66q42 -183 72 -366q141 -143 253 44q-24 349 -88 605q-94 327 -193 568q-113 247 -267 217q-204 -53 -387 -226q-195 -181 -343 -500q-233 -497 -221 -723zM411 585q179 471 515 678q120 -161 190 -571 q-306 -197 -705 -107zM700 1747q12 73 63 134q99 110 212 114q97 -1 153 -69q117 -140 25 -302q-67 -96 -212 -122q-65 -11 -136 42q-109 86 -105 203zM840 1683q27 -43 87 -60q75 -3 121 54t-3 145q-20 28 -77 37q-53 -4 -78 -27q-20 -73 -49 -52q-25 -45 -1 -97z" />
<glyph unicode="&#xe6;" horiz-adv-x="2800" d="M12 52q63 -92 214 -25q42 65 125 340q498 -118 835 66q42 -183 72 -366q141 -143 253 44q-24 349 -88 605q-94 327 -193 568q-113 247 -267 217q-204 -53 -387 -226q-195 -181 -343 -500q-233 -497 -221 -723zM423 585q179 471 515 678q120 -161 190 -571 q-306 -197 -705 -107zM1223 1324q-27 -249 7 -542q-16 -381 17 -569q51 -220 293 -213l245 86q337 119 584 109q346 126 49 251q-291 27 -645 -100q-275 -86 -323 44q-53 146 89 271q588 52 913 39q353 207 -12 268q-299 -9 -559 -23q-504 -52 -445 129q66 114 388 134 q325 0 738 8q304 183 -8 285q-408 -28 -1026 -36q-238 -5 -305 -141z" />
<glyph unicode="&#xe7;" d="M0 717q89 314 323 475q287 225 579 295q496 73 589 -308q24 -256 -172 -155q-142 277 -399 190q-250 -97 -420 -214q-170 -128 -256 -293q-1 -176 190 -292q234 -114 451 -127q236 16 408 158q288 81 162 -236q-236 -179 -564 -209q-412 12 -623 175q-301 245 -268 541z M591 -370q-100 100 100 200q100 -91 200 0q52 100 -152 256q52 201 205 44q286 -300 47 -500q-200 -100 -400 0z" />
<glyph unicode="&#xe8;" d="M8 1324q-27 -249 7 -542q-16 -381 17 -569q51 -220 293 -213l245 86q337 119 584 109q346 126 49 251q-291 27 -645 -100q-275 -86 -323 44q-53 146 89 271q588 52 913 39q353 207 -12 268q-299 -9 -559 -23q-504 -52 -445 129q66 114 388 134q325 0 738 8 q304 183 -8 285q-408 -28 -1026 -36q-238 -5 -305 -141zM552 1846q0 200 198 0q67 -76 95 -179q60 -188 -130 -73q-119 90 -163 252z" />
<glyph unicode="&#xe9;" d="M8 1324q-27 -249 7 -542q-16 -381 17 -569q51 -220 293 -213l245 86q337 119 584 109q346 126 49 251q-291 27 -645 -100q-275 -86 -323 44q-53 146 89 271q588 52 913 39q353 207 -12 268q-299 -9 -559 -23q-504 -52 -445 129q66 114 388 134q325 0 738 8 q304 183 -8 285q-408 -28 -1026 -36q-238 -5 -305 -141zM702 1718q34 147 140 234q175 31 159 -110q-27 -124 -77 -184q-244 -241 -222 60z" />
<glyph unicode="&#xea;" d="M8 1324q-27 -249 7 -542q-16 -381 17 -569q51 -220 293 -213l245 86q337 119 584 109q346 126 49 251q-291 27 -645 -100q-275 -86 -323 44q-53 146 89 271q588 52 913 39q353 207 -12 268q-299 -9 -559 -23q-504 -52 -445 129q66 114 388 134q325 0 738 8 q304 183 -8 285q-408 -28 -1026 -36q-238 -5 -305 -141zM400 1612q67 -97 284 -51q47 127 139 170q105 -60 139 -160q183 -64 242 81q-66 99 -218 259q-203 82 -302 -1q-178 -136 -284 -298z" />
<glyph unicode="&#xeb;" d="M8 1324q-27 -249 7 -542q-16 -381 17 -569q51 -220 293 -213l245 86q337 119 584 109q346 126 49 251q-291 27 -645 -100q-275 -86 -323 44q-53 146 89 271q588 52 913 39q353 207 -12 268q-299 -9 -559 -23q-504 -52 -445 129q66 114 388 134q325 0 738 8 q304 183 -8 285q-408 -28 -1026 -36q-238 -5 -305 -141zM361 1625q214 -56 276 34q68 217 -210 228q-199 -53 -66 -262zM911 1621q214 -56 276 34q68 217 -210 228q-199 -53 -66 -262z" />
<glyph unicode="&#xec;" horiz-adv-x="500" d="M-1 1850q0 200 198 0q67 -76 95 -179q60 -188 -130 -73q-119 90 -163 252zM56 900q64 -549 76 -763q120 -269 270 0q-2 222 -54 786q-5 308 -88 506q-69 146 -162 8q-158 -106 -42 -537z" />
<glyph unicode="&#xed;" horiz-adv-x="500" d="M56 900q64 -549 76 -763q120 -269 270 0q-2 222 -54 786q-5 308 -88 506q-69 146 -162 8q-158 -106 -42 -537zM99 1722q34 147 140 234q175 31 159 -110q-27 -124 -77 -184q-244 -241 -222 60z" />
<glyph unicode="&#xee;" horiz-adv-x="500" d="M-239 1617q67 -97 284 -51q47 127 139 170q105 -60 139 -160q183 -64 242 81q-66 99 -218 259q-203 82 -302 -1q-178 -136 -284 -298zM56 900q64 -549 76 -763q120 -269 270 0q-2 222 -54 786q-5 308 -88 506q-69 146 -162 8q-158 -106 -42 -537z" />
<glyph unicode="&#xef;" horiz-adv-x="500" d="M-239 1638q214 -56 276 34q68 217 -210 228q-199 -53 -66 -262zM56 900q64 -549 76 -763q120 -269 270 0q-2 222 -54 786q-5 308 -88 506q-69 146 -162 8q-158 -106 -42 -537zM311 1634q214 -56 276 34q68 217 -210 228q-199 -53 -66 -262z" />
<glyph unicode="&#xf0;" d="M-111 809q-58 -221 60 -248q40 7 79 16q25 -200 73 -387q92 -270 347 -162q446 219 732 507q267 220 319 525q34 278 -150 396q-423 79 -940 19q-343 -60 -406 -299q-5 -172 2 -337q-57 -14 -116 -30zM239 886q0 102 6 215q138 -2 204 124q235 46 541 34q219 -8 323 -107 q24 -203 -245 -465q-251 -221 -595 -374q-158 -55 -188 79q-26 114 -38 256q54 22 253 82q84 169 -12 203q-196 -39 -249 -47z" />
<glyph unicode="&#xf1;" d="M0 1231q61 273 280 121q288 -300 611 -601q185 -171 309 -234q32 36 -24 385q-41 148 -61 506q209 192 316 5q-9 -446 29 -861q67 -285 34 -459q-86 -176 -256 -10q-186 187 -417 375q-304 293 -437 449q-57 -60 -133 -35q2 -310 63 -638q18 -400 -271 -107 q-14 395 -43 1104zM333 1551q-100 51 100 199q200 100 300 0t400 0q100 -56 -100 -200q-200 -100 -300 0t-400 1z" />
<glyph unicode="&#xf2;" horiz-adv-x="2000" d="M0 747q3 -357 390 -619q251 -161 585 -128q452 98 761 455q358 410 -66 836q-251 209 -615 210q-476 -10 -861 -345q-164 -188 -194 -409zM299 931q237 13 248 176q265 141 519 128q315 -47 491 -216q175 -190 27 -381q-231 -298 -609 -351q-413 0 -621 229 q-168 223 -55 415zM899 1859q0 200 198 0q67 -76 95 -179q60 -188 -130 -73q-119 90 -163 252z" />
<glyph unicode="&#xf3;" horiz-adv-x="2000" d="M0 747q3 -357 390 -619q251 -161 585 -128q452 98 761 455q358 410 -66 836q-251 209 -615 210q-476 -10 -861 -345q-164 -188 -194 -409zM299 931q237 13 248 176q265 141 519 128q315 -47 491 -216q175 -190 27 -381q-231 -298 -609 -351q-413 0 -621 229 q-168 223 -55 415zM902 1718q34 147 140 234q175 31 159 -110q-27 -124 -77 -184q-244 -241 -222 60z" />
<glyph unicode="&#xf4;" horiz-adv-x="2000" d="M0 747q3 -357 390 -619q251 -161 585 -128q452 98 761 455q358 410 -66 836q-251 209 -615 210q-476 -10 -861 -345q-164 -188 -194 -409zM299 931q237 13 248 176q265 141 519 128q315 -47 491 -216q175 -190 27 -381q-231 -298 -609 -351q-413 0 -621 229 q-168 223 -55 415zM600 1607q67 -97 284 -51q47 127 139 170q105 -60 139 -160q183 -64 242 81q-66 99 -218 259q-203 82 -302 -1q-178 -136 -284 -298z" />
<glyph unicode="&#xf5;" horiz-adv-x="2000" d="M0 747q3 -357 390 -619q251 -161 585 -128q452 98 761 455q358 410 -66 836q-251 209 -615 210q-476 -10 -861 -345q-164 -188 -194 -409zM299 931q237 13 248 176q265 141 519 128q315 -47 491 -216q175 -190 27 -381q-231 -298 -609 -351q-413 0 -621 229 q-168 223 -55 415zM667 1650q-100 51 100 199q200 100 300 0t400 0q100 -56 -100 -200q-200 -100 -300 0t-400 1z" />
<glyph unicode="&#xf6;" horiz-adv-x="2000" d="M0 747q3 -357 390 -619q251 -161 585 -128q452 98 761 455q358 410 -66 836q-251 209 -615 210q-476 -10 -861 -345q-164 -188 -194 -409zM299 931q237 13 248 176q265 141 519 128q315 -47 491 -216q175 -190 27 -381q-231 -298 -609 -351q-413 0 -621 229 q-168 223 -55 415zM668 1606q214 -56 276 34q68 217 -210 228q-199 -53 -66 -262zM1218 1602q214 -56 276 34q68 217 -210 228q-199 -53 -66 -262z" />
<glyph unicode="&#xf7;" horiz-adv-x="1200" d="M121 728q104 97 306 135q201 17 541 -6q260 -67 5 -193q-358 -4 -520 -72q-86 -82 -178 -90q-235 -23 -154 226zM467 1124q214 -76 276 45q47 216 -231 231q-199 -73 -45 -276zM518 130q214 -75 276 45q47 216 -232 231q-199 -72 -44 -276z" />
<glyph unicode="&#xf8;" horiz-adv-x="2000" d="M0 747q3 -357 390 -619q251 -161 585 -128q452 98 761 455q358 410 -66 836q-251 209 -615 210q-476 -10 -861 -345q-164 -188 -194 -409zM299 931q237 13 248 176q265 141 519 128q315 -47 491 -216q175 -190 27 -381q-231 -298 -609 -351q-413 0 -621 229 q-168 223 -55 415zM300 0h294l1006 1500h-294z" />
<glyph unicode="&#xf9;" d="M6 214q-30 -212 142 -214q713 364 997 290l59 -214q197 -164 296 42q-137 189 -142 713q29 243 5 557q-96 216 -296 28q-47 -165 12 -354q35 -212 30 -511q-241 63 -792 -140q-5 126 53 412q87 257 105 472q11 187 -209 52q-116 -137 -183 -558q-59 -337 -77 -575z M592 1796q0 200 198 0q67 -76 95 -179q60 -188 -130 -73q-119 90 -163 252z" />
<glyph unicode="&#xfa;" d="M6 214q-30 -212 142 -214q713 364 997 290l59 -214q197 -164 296 42q-137 189 -142 713q29 243 5 557q-96 216 -296 28q-47 -165 12 -354q35 -212 30 -511q-241 63 -792 -140q-5 126 53 412q87 257 105 472q11 187 -209 52q-116 -137 -183 -558q-59 -337 -77 -575z M702 1667q34 147 140 234q175 31 159 -110q-27 -124 -77 -184q-244 -241 -222 60z" />
<glyph unicode="&#xfb;" d="M6 214q-30 -212 142 -214q713 364 997 290l59 -214q197 -164 296 42q-137 189 -142 713q29 243 5 557q-96 216 -296 28q-47 -165 12 -354q35 -212 30 -511q-241 63 -792 -140q-5 126 53 412q87 257 105 472q11 187 -209 52q-116 -137 -183 -558q-59 -337 -77 -575z M400 1609q67 -97 284 -51q47 127 139 170q105 -60 139 -160q183 -64 242 81q-66 99 -218 259q-203 82 -302 -1q-178 -136 -284 -298z" />
<glyph unicode="&#xfc;" d="M6 214q-30 -212 142 -214q713 364 997 290l59 -214q197 -164 296 42q-137 189 -142 713q29 243 5 557q-96 216 -296 28q-47 -165 12 -354q35 -212 30 -511q-241 63 -792 -140q-5 126 53 412q87 257 105 472q11 187 -209 52q-116 -137 -183 -558q-59 -337 -77 -575z M412 1626q214 -56 276 34q68 217 -210 228q-199 -53 -66 -262zM962 1622q214 -56 276 34q68 217 -210 228q-199 -53 -66 -262z" />
<glyph unicode="&#xfd;" d="M27 1162q445 -296 758 -403q-159 -318 -363 -582q-59 -242 300 -157q178 337 342 680q138 301 384 575q162 284 -191 216q-197 -236 -349 -474q-387 123 -693 428q-282 70 -188 -283zM702 1667q34 147 140 234q175 31 159 -110q-27 -124 -77 -184q-244 -241 -222 60z" />
<glyph unicode="&#xfe;" d="M84 957q41 -251 93 -444q19 -172 26 -470q167 -111 252 74l-5 222q119 54 264 147q247 101 435 225q239 137 337 404q69 277 -230 352q-286 43 -505 32q-235 -20 -469 -125q-24 316 -130 399q-264 96 -68 -816zM345 1022q132 28 156 198q238 58 615 8q181 -60 -73 -285 q-158 -119 -347 -183q-156 -93 -292 -107q-46 211 -59 369z" />
<glyph unicode="&#xff;" d="M27 1162q445 -296 758 -403q-159 -318 -363 -582q-59 -242 300 -157q178 337 342 680q138 301 384 575q162 284 -191 216q-197 -236 -349 -474q-387 123 -693 428q-282 70 -188 -283zM361 1626q214 -56 276 34q68 217 -210 228q-199 -53 -66 -262zM911 1622 q214 -56 276 34q68 217 -210 228q-199 -53 -66 -262z" />
<glyph unicode="&#x152;" horiz-adv-x="3200" d="M0 747q3 -357 390 -619q251 -161 585 -128q452 98 761 455q358 410 -66 836q-251 209 -615 210q-476 -10 -861 -345q-164 -188 -194 -409zM299 931q237 13 248 176q265 141 519 128q315 -47 491 -216q175 -190 27 -381q-231 -298 -609 -351q-413 0 -621 229 q-168 223 -55 415zM1612 1324q-27 -249 7 -542q-16 -381 17 -569q51 -220 293 -213l245 86q337 119 584 109q346 126 49 251q-291 27 -645 -100q-275 -86 -323 44q-53 146 89 271q588 52 913 39q353 207 -12 268q-299 -9 -559 -23q-504 -52 -445 129q66 114 388 134 q325 0 738 8q304 183 -8 285q-408 -28 -1026 -36q-238 -5 -305 -141z" />
<glyph unicode="&#x153;" horiz-adv-x="3200" d="M0 747q3 -357 390 -619q251 -161 585 -128q452 98 761 455q358 410 -66 836q-251 209 -615 210q-476 -10 -861 -345q-164 -188 -194 -409zM299 931q237 13 248 176q265 141 519 128q315 -47 491 -216q175 -190 27 -381q-231 -298 -609 -351q-413 0 -621 229 q-168 223 -55 415zM1612 1324q-27 -249 7 -542q-16 -381 17 -569q51 -220 293 -213l245 86q337 119 584 109q346 126 49 251q-291 27 -645 -100q-275 -86 -323 44q-53 146 89 271q588 52 913 39q353 207 -12 268q-299 -9 -559 -23q-504 -52 -445 129q66 114 388 134 q325 0 738 8q304 183 -8 285q-408 -28 -1026 -36q-238 -5 -305 -141z" />
<glyph unicode="&#x178;" d="M27 1162q445 -296 758 -403q-159 -318 -363 -582q-59 -242 300 -157q178 337 342 680q138 301 384 575q162 284 -191 216q-197 -236 -349 -474q-387 123 -693 428q-282 70 -188 -283zM361 1626q214 -56 276 34q68 217 -210 228q-199 -53 -66 -262zM911 1622 q214 -56 276 34q68 217 -210 228q-199 -53 -66 -262z" />
<glyph unicode="&#x2c6;" horiz-adv-x="1000" d="M96 1156q67 -97 284 -51q47 127 139 170q105 -60 139 -160q183 -64 242 81q-66 99 -218 259q-203 82 -302 -1q-178 -136 -284 -298z" />
<glyph unicode="&#x2dc;" horiz-adv-x="1000" d="M100 1301q-100 51 100 199q200 100 300 0t400 0q100 -56 -100 -200q-200 -100 -300 0t-400 1z" />
<glyph unicode="&#x2000;" horiz-adv-x="999" />
<glyph unicode="&#x2001;" horiz-adv-x="1998" />
<glyph unicode="&#x2002;" horiz-adv-x="999" />
<glyph unicode="&#x2003;" horiz-adv-x="1998" />
<glyph unicode="&#x2004;" horiz-adv-x="666" />
<glyph unicode="&#x2005;" horiz-adv-x="499" />
<glyph unicode="&#x2006;" horiz-adv-x="333" />
<glyph unicode="&#x2007;" horiz-adv-x="333" />
<glyph unicode="&#x2008;" horiz-adv-x="249" />
<glyph unicode="&#x2009;" horiz-adv-x="399" />
<glyph unicode="&#x200a;" horiz-adv-x="111" />
<glyph unicode="&#x2010;" horiz-adv-x="1100" d="M21 728q104 97 306 135q201 17 541 -6q260 -67 5 -193q-358 -4 -520 -72q-86 -82 -178 -90q-235 -23 -154 226z" />
<glyph unicode="&#x2011;" horiz-adv-x="1100" d="M21 728q104 97 306 135q201 17 541 -6q260 -67 5 -193q-358 -4 -520 -72q-86 -82 -178 -90q-235 -23 -154 226z" />
<glyph unicode="&#x2012;" horiz-adv-x="1100" d="M21 728q104 97 306 135q201 17 541 -6q260 -67 5 -193q-358 -4 -520 -72q-86 -82 -178 -90q-235 -23 -154 226z" />
<glyph unicode="&#x2013;" horiz-adv-x="1200" d="M121 728q104 97 306 135q201 17 541 -6q260 -67 5 -193q-358 -4 -520 -72q-86 -82 -178 -90q-235 -23 -154 226z" />
<glyph unicode="&#x2014;" d="M121 728q104 97 305 135q202 17 923 -6q301 -57 6 -193q-740 -4 -902 -72q-61 -35 -153 -43q-235 -23 -179 179z" />
<glyph unicode="&#x2018;" horiz-adv-x="600" d="M100 965q58 246 213 381q248 174 170 -110q-37 -155 -81 -323q-302 -249 -302 52z" />
<glyph unicode="&#x2019;" horiz-adv-x="600" d="M119 977q37 155 81 323q302 249 302 -52q-58 -246 -213 -381q-248 -174 -170 110z" />
<glyph unicode="&#x201a;" horiz-adv-x="600" d="M117 -224q37 155 81 323q302 249 302 -52q-58 -246 -213 -381q-248 -174 -170 110z" />
<glyph unicode="&#x201c;" horiz-adv-x="1000" d="M100 965q58 246 213 381q248 174 170 -110q-37 -155 -81 -323q-302 -249 -302 52zM500 965q58 246 213 381q248 174 170 -110q-37 -155 -81 -323q-302 -249 -302 52z" />
<glyph unicode="&#x201d;" horiz-adv-x="1000" d="M119 977q37 155 81 323q302 249 302 -52q-58 -246 -213 -381q-248 -174 -170 110zM518 977q37 155 81 323q302 249 302 -52q-58 -246 -213 -381q-248 -174 -170 110z" />
<glyph unicode="&#x201e;" horiz-adv-x="1000" d="M119 -107q37 155 81 323q302 249 302 -52q-58 -246 -213 -381q-248 -174 -170 110zM518 -107q37 155 81 323q302 249 302 -52q-58 -246 -213 -381q-248 -174 -170 110z" />
<glyph unicode="&#x2022;" horiz-adv-x="600" d="M177 604q244 -100 314 59q54 282 -263 302q-227 -96 -51 -361z" />
<glyph unicode="&#x2026;" d="M175 208q-170 -150 46 -208q62 7 141 40q130 160 -40 205q-76 0 -147 -37zM657 207q-170 -149 46 -207q63 7 141 39q131 161 -40 206q-76 0 -147 -38zM1157 207q-170 -149 46 -207q63 7 141 39q131 161 -40 206q-76 0 -147 -38z" />
<glyph unicode="&#x202f;" horiz-adv-x="399" />
<glyph unicode="&#x2039;" horiz-adv-x="1200" d="M157 632q286 403 732 868q311 0 175 -189q-362 -355 -583 -738q246 -182 608 -363q58 -205 -196 -209q-358 193 -694 402q-172 80 -42 229z" />
<glyph unicode="&#x203a;" horiz-adv-x="1200" d="M117 1292q-58 204 196 208q358 -192 690 -570q172 -80 42 -230q-245 -300 -728 -699q-311 0 -175 190q358 309 579 569q-242 350 -604 532z" />
<glyph unicode="&#x205f;" horiz-adv-x="499" />
<glyph unicode="&#x20ac;" d="M0 800l100 200h124q74 114 180 192q267 225 539 295q462 73 548 -308q23 -256 -160 -155q-132 277 -372 190q-232 -97 -391 -214h332l-100 -200h-417q-30 -45 -53 -93v-7h570l-99 -200h-394q40 -46 100 -85q218 -114 420 -127q220 16 380 158q268 81 151 -236 q-220 -179 -526 -209q-383 12 -580 175q-174 152 -228 324h-123l99 200h1q1 8 2 17q11 43 25 83h-128z" />
<glyph unicode="&#x2122;" d="M100 890q63 24 184 21q89 -4 194 3q126 -20 21 -103q-73 -10 -147 -6q27 -175 30 -307q5 -68 -10 -113q-45 -73 -100 18q-7 40 -2 107q8 120 -15 290q-72 0 -134 -16q-129 23 -21 106zM241 422q33 -131 118 -14q65 114 112 250q109 -298 195 -302q37 -7 115 158 q90 160 150 223q65 -208 129 -327q73 -104 116 23q-77 135 -182 431q-49 110 -132 -14q-86 -111 -155 -225q-17 -65 -55 -92q-32 43 -51 108q-34 91 -66 221q-54 108 -118 0q-102 -326 -176 -440z" />
<glyph unicode="&#x25fc;" horiz-adv-x="1475" d="M0 0v1475h1475v-1475h-1475z" />
</font>
</defs>
</svg>
