<?xml version="1.0" standalone="no"?><!DOCTYPE svg PUBLIC "-//W3C//DTD SVG 20010904//EN" "http://www.w3.org/TR/2001/REC-SVG-20010904/DTD/svg10.dtd">
<svg version="1.0" xmlns="http://www.w3.org/2000/svg" width="64px" height="64px" viewBox="0 0 40 53" preserveAspectRatio="xMidYMid meet">
	<defs>
		<linearGradient id="Gr2" x1="0" y1="1" x2="0" y2="0">
			<stop offset="0%" stop-color="#2be5f1"/>
			<stop offset="100%" stop-color="#09c2cd"/>
		</linearGradient>
	</defs>
	<g transform="translate(0,53) scale(0.1,-0.1)" fill="url(#Gr2)" stroke="#606363" stroke-width="18">
		<path d="M75 420 c-10 -16 -28 -198 -29 -295 l-1 -90 30 0 c30 0 30 1 35 65 3 36 10 74 17 85 11 19 12 19 32 -5 11 -14 37 -53 57 -87 40 -69 73 -83 94 -42 10 18 5 31 -37 91 -26 39 -54 80 -62 90 -13 18 -10 24 43 71 46 42 57 57 55 77 -7 46 -41 37 -100 -25 -81 -85 -87 -86 -78 -12 5 39 4 67 -3 74 -13 16 -44 17 -53 3z"/>
	</g>
</svg>
