<?xml version="1.0" standalone="no"?><!DOCTYPE svg PUBLIC "-//W3C//DTD SVG 20010904//EN" "http://www.w3.org/TR/2001/REC-SVG-20010904/DTD/svg10.dtd">
<svg version="1.0" xmlns="http://www.w3.org/2000/svg" width="332pх" height="53pх" viewBox="0 0 332 53" preserveAspectRatio="xMidYMid meet">
	<defs>
		<linearGradient id="Gr2" x1="0" y1="1" x2="0" y2="0">
			<stop offset="0%" stop-color="#2ae4f0"/>
			<stop offset="100%" stop-color="#0bc4d0"/>
		</linearGradient>
	</defs>
	<g transform="translate(0,53) scale(0.1,-0.1)" fill="url(#Gr2)" stroke="#000" stroke-width="10">
		<path d="M165 461 c-81 -37 -125 -113 -125 -218 0 -63 13 -99 48 -136 40 -43 75 -57 137 -57 86 0 147 39 125 79 -13 25 -38 27 -66 6 -47 -35 -143 -2 -163 57 -45 129 72 263 179 204 30 -17 60 -5 60 23 0 24 -73 61 -121 61 -19 0 -52 -9 -74 -19z"/>
		<path fill-rule="evenodd" d="M525 475 c-50 -17 -117 -89 -133 -142 -7 -22 -12 -67 -12 -100 0 -75 38 -142 99 -173 150 -76 297 87 251 279 -25 107 -116 167 -205 136z M532 393 c-18 -9 -45 -32 -60 -51 -22 -29 -27 -46 -27 -94 0 -57 2 -61 42 -99 49 -46 74 -48 120 -13 45 34 63 73 63 134 0 62 -20 105 -60 125 -36 18 -37 18 -78 -2z"/>
		<path d="M1111 462 c-11 -16 -47 -80 -80 -143 -68 -129 -58 -132 -107 27 -15 49 -34 97 -42 107 -18 20 -55 22 -71 4 -14 -17 -41 -247 -41 -350 l0 -78 33 3 32 3 8 105 c11 159 15 168 42 90 63 -185 86 -191 163 -45 l52 100 -2 -115 -3 -115 26 -3 c14 -2 31 3 38 11 15 19 33 385 20 409 -14 27 -45 22 -68 -10z"/>
		<path d="M1265 446 c-25 -38 -46 -174 -43 -277 l3 -94 34 -3 34 -3 -6 48 c-7 58 6 174 29 260 14 51 14 65 4 78 -18 22 -37 19 -55 -9z"/>
		<path d="M1475 461 c-81 -37 -125 -113 -125 -218 0 -63 13 -99 48 -136 40 -43 75 -57 137 -57 86 0 147 39 125 79 -13 25 -38 27 -66 6 -47 -35 -143 -2 -163 57 -45 129 72 263 179 204 30 -17 60 -5 60 23 0 24 -73 61 -121 61 -19 0 -52 -9 -74 -19z"/>
		<path d="M1850 481 c-45 -14 -88 -40 -109 -67 -23 -29 -28 -92 -11 -125 13 -23 68 -52 130 -69 53 -14 70 -26 70 -50 0 -27 -51 -43 -117 -36 -127 13 -118 15 -121 -25 -3 -30 1 -37 25 -48 15 -8 60 -16 100 -19 122 -8 193 42 193 137 0 60 -36 96 -120 121 -37 11 -73 27 -80 35 -33 39 42 81 126 70 57 -7 70 4 58 50 -8 32 -80 45 -144 26z"/>
		<path d="M2070 466 c-15 -41 -31 -218 -28 -316 l3 -95 85 -3 c47 -2 100 0 118 3 30 6 33 9 30 38 l-3 32 -81 -4 c-75 -3 -83 -1 -88 17 -8 23 8 207 24 276 8 36 8 52 -1 62 -18 22 -48 17 -59 -10z"/>
		<path fill-rule="evenodd" d="M2447 423 c-46 -76 -90 -179 -118 -276 -21 -70 -22 -79 -7 -93 24 -24 50 -4 72 55 l18 51 69 0 68 0 22 -50 c23 -54 54 -74 74 -46 10 12 -1 54 -55 213 -79 233 -86 240 -143 146z M2450 304 c-17 -37 -27 -71 -23 -75 13 -12 92 -14 104 -2 13 13 -22 135 -40 141 -6 2 -25 -27 -41 -64z"/>
		<path d="M2672 468 c-7 -7 -12 -25 -12 -40 0 -27 1 -28 56 -28 l57 0 -8 -82 c-4 -46 -11 -123 -15 -173 -4 -50 -4 -94 0 -98 4 -5 20 -7 36 -5 l29 3 13 165 c7 91 15 171 17 178 3 7 22 12 49 12 48 0 66 16 66 59 0 20 -5 21 -138 21 -94 0 -142 -4 -150 -12z"/>
		<path d="M3022 477 c-14 -16 -39 -179 -48 -311 -9 -127 -10 -126 142 -126 120 0 124 2 124 56 0 24 -1 24 -100 24 l-100 0 0 43 c0 24 5 48 12 55 7 7 44 12 94 12 86 0 94 4 94 52 0 18 -6 20 -78 17 -42 -2 -83 0 -90 5 -13 8 -7 83 9 100 5 5 50 12 101 15 l93 6 3 33 3 32 -124 0 c-91 0 -128 -4 -135 -13z"/>
	</g>
</svg>
