<?xml version="1.0" standalone="no"?>
<!DOCTYPE svg PUBLIC "-//W3C//DTD SVG 20010904//EN"
 "http://www.w3.org/TR/2001/REC-SVG-20010904/DTD/svg10.dtd">
<svg version="1.0" xmlns="http://www.w3.org/2000/svg"
 width="700.000000pt" height="700.000000pt" viewBox="0 0 700.000000 700.000000"
 preserveAspectRatio="xMidYMid meet">
<metadata>
Created by potrace 1.14, written by Peter Selinger 2001-2017
</metadata>
<g transform="translate(0.000000,700.000000) scale(0.100000,-0.100000)"
fill="#000000" stroke="none">
<path d="M3909 6456 c-2 -2 -28 -6 -57 -10 -99 -12 -128 -17 -289 -57 -268
-65 -526 -161 -733 -271 -125 -67 -117 -62 -239 -142 -610 -398 -1020 -993
-1205 -1748 -36 -144 -72 -340 -81 -434 -3 -28 -7 -60 -9 -71 -28 -143 -28
-880 -1 -1023 2 -9 6 -43 9 -75 4 -32 11 -77 16 -99 4 -23 11 -57 14 -76 12
-80 91 -347 107 -365 5 -5 9 -15 9 -22 0 -17 84 -188 139 -283 121 -208 443
-572 667 -753 306 -249 690 -414 1048 -453 33 -3 69 -8 80 -10 51 -10 257 -19
441 -19 246 1 351 8 570 40 150 22 378 81 521 135 614 230 876 631 674 1030
-112 222 -301 344 -524 339 -156 -3 -304 -59 -491 -185 -161 -109 -243 -144
-405 -173 -98 -18 -281 -21 -390 -7 -249 33 -531 141 -750 288 -109 72 -266
223 -332 318 -70 99 -126 218 -158 335 -5 17 -16 55 -24 85 -9 30 -25 105 -36
166 -107 609 40 1223 411 1716 85 114 285 310 394 386 273 193 535 281 831
280 61 0 133 -4 160 -9 27 -4 67 -11 89 -14 84 -14 235 -70 380 -140 206 -100
276 -121 417 -124 210 -5 382 76 481 226 64 98 82 158 82 278 0 93 -2 105 -34
169 -107 219 -522 489 -995 647 -122 41 -321 91 -409 104 -27 3 -59 9 -70 11
-26 6 -303 14 -308 10z"/>
</g>
</svg>
